<svg xmlns="http://www.w3.org/2000/svg" xmlns:xlink="http://www.w3.org/1999/xlink" width="529" zoomAndPan="magnify" viewBox="0 0 396.75 396.749984" height="529" preserveAspectRatio="xMidYMid meet" version="1.0"><defs><clipPath id="id1"><path d="M 3 26.097656 L 396 26.097656 L 396 371.097656 L 3 371.097656 Z M 3 26.097656 " clip-rule="nonzero"/></clipPath></defs><g clip-path="url(#id1)"><path fill="#ffffff" d="M 392.863281 65.328125 C 389.371094 61.832031 384 61.476562 380.078125 64.484375 C 346.480469 90.304688 314.4375 116.953125 286.859375 140.808594 C 276.433594 111.359375 258.070312 85.089844 233.121094 64.941406 C 201.660156 39.53125 162.558594 26.097656 120.035156 26.097656 C 88.742188 26.097656 60.941406 34.59375 39.640625 50.664062 C 21.640625 64.238281 8.976562 82.996094 4.875 102.113281 C 0.0390625 124.695312 7.679688 143.519531 24.820312 151.242188 C 53.300781 164.078125 57.390625 182.992188 57.289062 193.121094 C 57.257812 196.757812 57.257812 200.441406 57.289062 204.078125 C 57.390625 214.207031 53.300781 233.121094 24.820312 245.953125 C 7.679688 253.679688 0.0390625 272.503906 4.875 295.085938 C 8.976562 314.210938 21.640625 332.960938 39.640625 346.535156 C 60.941406 362.605469 88.742188 371.097656 120.035156 371.097656 C 162.558594 371.097656 201.660156 357.667969 233.121094 332.257812 C 273.550781 299.601562 296.742188 250.886719 296.742188 198.597656 C 296.742188 197.488281 296.714844 196.375 296.695312 195.269531 C 325.101562 163.160156 360.105469 121.976562 393.707031 78.128906 C 396.710938 74.210938 396.355469 68.824219 392.863281 65.328125 Z M 226.816406 324.441406 C 197.164062 348.390625 160.238281 361.050781 120.035156 361.050781 C 90.9375 361.050781 65.226562 353.253906 45.675781 338.507812 C 29.585938 326.371094 18.289062 309.769531 14.691406 292.976562 C 10.898438 275.296875 16.355469 260.785156 28.933594 255.121094 C 43.753906 248.445312 54.507812 239.390625 60.894531 228.214844 C 66.316406 218.738281 67.386719 209.808594 67.324219 203.984375 C 67.292969 200.40625 67.292969 196.789062 67.324219 193.214844 C 67.386719 187.390625 66.316406 178.460938 60.894531 168.984375 C 54.507812 157.808594 43.753906 148.753906 28.933594 142.078125 C 16.355469 136.414062 10.898438 121.902344 14.691406 104.222656 C 18.289062 87.429688 29.585938 70.828125 45.675781 58.691406 C 65.226562 43.945312 90.9375 36.148438 120.035156 36.148438 C 160.238281 36.148438 197.164062 48.808594 226.816406 72.757812 C 251.351562 92.574219 269.128906 118.679688 278.667969 147.914062 C 231.679688 188.917969 199.472656 220.101562 197.988281 221.542969 C 197.96875 221.5625 197.953125 221.578125 197.941406 221.589844 C 197.933594 221.597656 197.925781 221.605469 197.921875 221.609375 C 197.90625 221.625 197.898438 221.628906 197.886719 221.636719 L 186.445312 233.09375 C 183.367188 233.570312 177.1875 234.933594 170.5625 238.773438 C 162.117188 243.671875 151.234375 253.660156 147.367188 273.433594 C 142.347656 299.058594 138.640625 308.542969 130.125 317.5625 C 126.710938 321.171875 125.847656 326.410156 127.9375 330.910156 C 129.910156 335.179688 134.117188 337.84375 138.773438 337.84375 C 139.003906 337.84375 139.230469 337.839844 139.457031 337.824219 C 152.25 337.117188 171.035156 334.214844 187.910156 324.40625 C 207.285156 313.152344 219.796875 295.589844 225.117188 272.203125 L 236.777344 260.523438 C 236.820312 260.484375 236.859375 260.445312 236.894531 260.40625 C 237.964844 259.304688 247.363281 249.558594 262.109375 233.5625 C 262.464844 233.179688 262.820312 232.796875 263.171875 232.410156 C 266.847656 228.421875 270.835938 224.0625 275.097656 219.367188 C 275.804688 218.582031 276.527344 217.792969 277.25 216.988281 C 280.214844 213.71875 283.300781 210.289062 286.492188 206.726562 C 284.230469 252.855469 262.773438 295.394531 226.816406 324.441406 Z M 195.871094 237.871094 L 201.433594 232.296875 L 226.109375 257 L 220.539062 262.574219 Z M 215.027344 271.265625 C 210.183594 291.179688 199.386719 306.125 182.878906 315.71875 C 167.71875 324.519531 150.597656 327.148438 138.902344 327.796875 C 137.757812 327.855469 137.242188 327.128906 137.042969 326.683594 C 136.828125 326.230469 136.59375 325.332031 137.410156 324.46875 C 148.410156 312.832031 152.410156 299.914062 157.214844 275.371094 C 162.199219 249.878906 180.632812 244.339844 186.980469 243.179688 Z M 295.84375 181.042969 C 292.664062 184.660156 289.5625 188.175781 286.539062 191.585938 C 260.785156 220.597656 240.878906 241.699219 233.132812 249.820312 L 208.605469 225.269531 C 218.058594 216.226562 245.101562 190.660156 281.753906 158.558594 C 284.511719 156.148438 287.320312 153.695312 290.183594 151.210938 C 317.824219 127.222656 350.199219 100.191406 384.265625 73.945312 C 353.863281 113.5 322.398438 150.796875 295.84375 181.042969 Z M 295.84375 181.042969 " fill-opacity="1" fill-rule="nonzero"/></g><path fill="#ffffff" d="M 106.332031 105.367188 C 106.332031 87.9375 92.175781 73.761719 74.765625 73.761719 C 57.355469 73.761719 43.199219 87.9375 43.199219 105.367188 C 43.199219 122.800781 57.355469 136.976562 74.765625 136.976562 C 92.175781 136.976562 106.332031 122.800781 106.332031 105.367188 Z M 53.242188 105.367188 C 53.242188 93.484375 62.902344 83.8125 74.773438 83.8125 C 86.640625 83.8125 96.304688 93.484375 96.304688 105.367188 C 96.304688 117.253906 86.640625 126.925781 74.773438 126.925781 C 62.902344 126.925781 53.242188 117.261719 53.242188 105.367188 Z M 53.242188 105.367188 " fill-opacity="1" fill-rule="nonzero"/><path fill="#ffffff" d="M 156.050781 124.289062 C 171.3125 124.289062 183.730469 111.855469 183.730469 96.574219 C 183.730469 81.292969 171.3125 68.859375 156.050781 68.859375 C 140.789062 68.859375 128.371094 81.292969 128.371094 96.574219 C 128.371094 111.855469 140.789062 124.289062 156.050781 124.289062 Z M 156.050781 78.90625 C 165.777344 78.90625 173.691406 86.832031 173.691406 96.574219 C 173.691406 106.3125 165.777344 114.238281 156.050781 114.238281 C 146.320312 114.238281 138.40625 106.3125 138.40625 96.574219 C 138.40625 86.832031 146.320312 78.90625 156.050781 78.90625 Z M 156.050781 78.90625 " fill-opacity="1" fill-rule="nonzero"/><path fill="#ffffff" d="M 223.15625 157.164062 C 236.148438 157.164062 246.726562 146.582031 246.726562 133.566406 C 246.726562 120.550781 236.15625 109.964844 223.15625 109.964844 C 210.164062 109.964844 199.585938 120.550781 199.585938 133.566406 C 199.585938 146.582031 210.164062 157.164062 223.15625 157.164062 Z M 223.15625 120.019531 C 230.617188 120.019531 236.691406 126.097656 236.691406 133.570312 C 236.691406 141.046875 230.625 147.125 223.15625 147.125 C 215.691406 147.125 209.621094 141.046875 209.621094 133.570312 C 209.621094 126.097656 215.695312 120.019531 223.15625 120.019531 Z M 223.15625 120.019531 " fill-opacity="1" fill-rule="nonzero"/><path fill="#ffffff" d="M 83.628906 257.632812 C 68.371094 257.632812 55.953125 270.066406 55.953125 285.34375 C 55.953125 300.625 68.371094 313.058594 83.628906 313.058594 C 98.890625 313.058594 111.308594 300.625 111.308594 285.34375 C 111.308594 270.066406 98.890625 257.632812 83.628906 257.632812 Z M 83.628906 303.011719 C 73.902344 303.011719 65.988281 295.085938 65.988281 285.34375 C 65.988281 275.605469 73.902344 267.679688 83.628906 267.679688 C 93.359375 267.679688 101.273438 275.605469 101.273438 285.34375 C 101.273438 295.085938 93.359375 303.011719 83.628906 303.011719 Z M 83.628906 303.011719 " fill-opacity="1" fill-rule="nonzero"/></svg>