<svg xmlns="http://www.w3.org/2000/svg" xmlns:xlink="http://www.w3.org/1999/xlink" width="529" zoomAndPan="magnify" viewBox="0 0 396.75 396.749984" height="529" preserveAspectRatio="xMidYMid meet" version="1.0"><defs><clipPath id="bf310a42a0"><path d="M 304.519531 235.695312 L 396.5 235.695312 L 396.5 255.195312 L 304.519531 255.195312 Z M 304.519531 235.695312 " clip-rule="nonzero"/></clipPath><clipPath id="a229acf510"><path d="M 0 38.503906 L 396.5 38.503906 L 396.5 358 L 0 358 Z M 0 38.503906 " clip-rule="nonzero"/></clipPath></defs><g clip-path="url(#bf310a42a0)"><path fill="#ffffff" d="M 393.867188 255.195312 L 307.417969 255.195312 C 305.835938 255.195312 304.542969 253.894531 304.542969 252.300781 L 304.542969 238.59375 C 304.542969 236.996094 305.835938 235.695312 307.417969 235.695312 L 393.867188 235.695312 C 395.453125 235.695312 396.742188 236.996094 396.742188 238.59375 L 396.742188 252.300781 C 396.742188 253.894531 395.453125 255.195312 393.867188 255.195312 " fill-opacity="1" fill-rule="nonzero"/></g><g clip-path="url(#a229acf510)"><path fill="#332f2f" d="M 193.003906 198.253906 L 141.5625 198.253906 C 125.453125 210.457031 105.445312 217.726562 83.707031 217.726562 C 64.046875 217.726562 45.859375 211.753906 30.617188 201.628906 L 30.617188 343.292969 C 30.617188 351.34375 37.199219 357.917969 45.253906 357.917969 L 293.035156 357.917969 C 301.089844 357.917969 307.671875 351.34375 307.671875 343.292969 L 307.671875 199.121094 C 291.738281 210.804688 272.164062 217.8125 250.945312 217.8125 C 229.121094 217.726562 209.027344 210.457031 193.003906 198.253906 Z M 374.621094 195.574219 L 319.796875 227.246094 L 319.796875 315.167969 L 374.621094 346.84375 C 384.40625 352.46875 396.617188 345.457031 396.617188 334.121094 L 396.617188 208.292969 C 396.703125 196.957031 384.40625 189.949219 374.621094 195.574219 Z M 250.859375 38.503906 C 204.699219 38.503906 167.195312 75.890625 167.195312 122.015625 C 167.195312 168.140625 204.609375 205.523438 250.773438 205.523438 C 296.933594 205.523438 334.347656 168.140625 334.347656 122.015625 C 334.433594 75.890625 297.019531 38.503906 250.859375 38.503906 Z M 250.859375 158.015625 C 230.9375 158.015625 214.832031 141.917969 214.832031 122.015625 C 214.832031 102.113281 230.9375 86.015625 250.859375 86.015625 C 270.777344 86.015625 286.886719 102.113281 286.886719 122.015625 C 286.800781 141.917969 270.691406 158.015625 250.859375 158.015625 Z M 83.621094 38.503906 C 37.460938 38.503906 0.046875 75.890625 0.046875 122.015625 C 0.046875 168.140625 37.460938 205.523438 83.621094 205.523438 C 129.78125 205.523438 167.195312 168.140625 167.195312 122.015625 C 167.195312 75.890625 129.78125 38.503906 83.621094 38.503906 Z M 83.621094 158.015625 C 63.703125 158.015625 47.59375 141.917969 47.59375 122.015625 C 47.679688 102.199219 63.789062 86.101562 83.621094 86.101562 C 103.453125 86.101562 119.648438 102.199219 119.648438 122.101562 C 119.648438 141.917969 103.539062 158.015625 83.621094 158.015625 Z M 83.621094 158.015625 " fill-opacity="1" fill-rule="nonzero"/></g></svg>