<svg xmlns="http://www.w3.org/2000/svg" xmlns:xlink="http://www.w3.org/1999/xlink" width="529" zoomAndPan="magnify" viewBox="0 0 396.75 396.749984" height="529" preserveAspectRatio="xMidYMid meet" version="1.0"><defs><clipPath id="c2515d51b8"><path d="M 0 19.84375 L 396.5 19.84375 L 396.5 376.84375 L 0 376.84375 Z M 0 19.84375 " clip-rule="nonzero"/></clipPath></defs><path fill="#ffbd59" d="M 42.179688 265.28125 L 42.179688 131.40625 C 42.179688 130.675781 42.21875 129.945312 42.292969 129.21875 C 42.367188 128.492188 42.472656 127.773438 42.617188 127.054688 C 42.761719 126.339844 42.941406 125.632812 43.15625 124.933594 C 43.367188 124.238281 43.617188 123.550781 43.894531 122.875 C 44.175781 122.203125 44.488281 121.542969 44.835938 120.898438 C 45.179688 120.257812 45.554688 119.632812 45.960938 119.023438 C 46.367188 118.417969 46.804688 117.832031 47.265625 117.265625 C 47.730469 116.703125 48.222656 116.164062 48.738281 115.648438 C 49.253906 115.128906 49.796875 114.640625 50.359375 114.175781 C 50.925781 113.714844 51.511719 113.277344 52.117188 112.871094 C 52.726562 112.464844 53.351562 112.089844 53.996094 111.746094 C 54.640625 111.402344 55.296875 111.089844 55.972656 110.808594 C 56.648438 110.527344 57.335938 110.28125 58.035156 110.066406 C 58.734375 109.855469 59.441406 109.675781 60.15625 109.53125 C 60.875 109.386719 61.59375 109.277344 62.320312 109.207031 C 63.050781 109.132812 63.777344 109.09375 64.507812 109.09375 L 198.488281 109.09375 L 243.148438 64.46875 L 64.507812 64.46875 C 63.414062 64.472656 62.320312 64.5 61.226562 64.558594 C 60.128906 64.613281 59.039062 64.699219 57.949219 64.808594 C 56.859375 64.917969 55.773438 65.054688 54.6875 65.21875 C 53.605469 65.378906 52.527344 65.570312 51.453125 65.785156 C 50.378906 66 49.3125 66.242188 48.25 66.511719 C 47.1875 66.78125 46.132812 67.074219 45.085938 67.394531 C 44.035156 67.714844 42.996094 68.058594 41.964844 68.429688 C 40.9375 68.800781 39.914062 69.195312 38.902344 69.613281 C 37.890625 70.035156 36.890625 70.480469 35.902344 70.949219 C 34.910156 71.417969 33.933594 71.910156 32.96875 72.429688 C 32.003906 72.945312 31.050781 73.488281 30.113281 74.050781 C 29.171875 74.613281 28.246094 75.199219 27.335938 75.808594 C 26.425781 76.417969 25.53125 77.046875 24.652344 77.699219 C 23.773438 78.351562 22.910156 79.027344 22.0625 79.722656 C 21.21875 80.417969 20.386719 81.132812 19.578125 81.867188 C 18.765625 82.601562 17.972656 83.355469 17.195312 84.128906 C 16.421875 84.902344 15.667969 85.695312 14.929688 86.507812 C 14.195312 87.320312 13.480469 88.148438 12.785156 88.992188 C 12.089844 89.839844 11.414062 90.699219 10.761719 91.578125 C 10.109375 92.457031 9.476562 93.351562 8.867188 94.261719 C 8.257812 95.171875 7.671875 96.097656 7.109375 97.035156 C 6.546875 97.972656 6.003906 98.925781 5.488281 99.890625 C 4.96875 100.855469 4.476562 101.832031 4.007812 102.820312 C 3.535156 103.808594 3.089844 104.808594 2.671875 105.820312 C 2.25 106.832031 1.855469 107.851562 1.484375 108.878906 C 1.113281 109.910156 0.765625 110.949219 0.449219 111.996094 C 0.128906 113.042969 -0.167969 114.097656 -0.433594 115.15625 C -0.703125 116.21875 -0.945312 117.285156 -1.160156 118.359375 C -1.378906 119.433594 -1.566406 120.511719 -1.730469 121.59375 C -1.894531 122.675781 -2.03125 123.761719 -2.140625 124.851562 C -2.25 125.9375 -2.335938 127.03125 -2.390625 128.125 C -2.449219 129.214844 -2.476562 130.308594 -2.480469 131.40625 L -2.480469 265.28125 C -2.484375 271.421875 -1.648438 277.453125 0.0195312 283.363281 C 1.6875 289.277344 4.128906 294.851562 7.34375 300.085938 Z M 42.179688 265.28125 " fill-opacity="1" fill-rule="nonzero"/><g clip-path="url(#c2515d51b8)"><path fill="#ffbd59" d="M 388.871094 90.113281 C 387.253906 89.109375 385.535156 88.324219 383.714844 87.761719 C 381.898438 87.199219 380.035156 86.875 378.132812 86.789062 C 376.230469 86.703125 374.347656 86.859375 372.484375 87.253906 C 370.625 87.652344 368.839844 88.277344 367.140625 89.132812 L 308.796875 118.28125 C 307.640625 112.882812 305.839844 107.710938 303.398438 102.757812 L 354.796875 51.394531 L 323.222656 19.84375 L -2.480469 345.289062 L 29.097656 376.84375 L 73.753906 332.21875 L 243.148438 332.21875 C 245.0625 332.210938 246.976562 332.125 248.882812 331.953125 C 250.792969 331.785156 252.691406 331.53125 254.578125 331.199219 C 256.464844 330.871094 258.332031 330.457031 260.183594 329.964844 C 262.035156 329.472656 263.863281 328.90625 265.667969 328.257812 C 267.46875 327.609375 269.242188 326.886719 270.984375 326.085938 C 272.722656 325.289062 274.425781 324.414062 276.09375 323.472656 C 277.761719 322.527344 279.382812 321.511719 280.960938 320.429688 C 282.542969 319.34375 284.074219 318.195312 285.554688 316.984375 C 287.035156 315.769531 288.460938 314.492188 289.835938 313.15625 C 291.207031 311.820312 292.519531 310.429688 293.773438 308.980469 C 295.023438 307.53125 296.214844 306.035156 297.339844 304.484375 C 298.464844 302.933594 299.519531 301.339844 300.507812 299.699219 C 301.496094 298.058594 302.414062 296.378906 303.257812 294.660156 C 304.101562 292.941406 304.871094 291.191406 305.566406 289.40625 C 306.261719 287.625 306.878906 285.8125 307.417969 283.976562 C 307.957031 282.140625 308.417969 280.28125 308.796875 278.40625 L 367.136719 307.550781 C 367.558594 307.761719 367.988281 307.960938 368.425781 308.144531 C 368.859375 308.328125 369.300781 308.5 369.75 308.65625 C 370.195312 308.8125 370.644531 308.957031 371.101562 309.082031 C 371.558594 309.210938 372.015625 309.324219 372.480469 309.421875 C 372.945312 309.519531 373.410156 309.605469 373.878906 309.671875 C 374.347656 309.742188 374.816406 309.796875 375.289062 309.835938 C 375.757812 309.875 376.230469 309.898438 376.707031 309.90625 C 377.179688 309.914062 377.652344 309.910156 378.125 309.886719 C 378.597656 309.867188 379.070312 309.832031 379.539062 309.78125 C 380.011719 309.730469 380.480469 309.664062 380.945312 309.582031 C 381.414062 309.5 381.875 309.40625 382.335938 309.296875 C 382.796875 309.183594 383.253906 309.058594 383.707031 308.921875 C 384.160156 308.78125 384.605469 308.628906 385.046875 308.460938 C 385.492188 308.292969 385.929688 308.109375 386.359375 307.914062 C 386.789062 307.71875 387.214844 307.507812 387.632812 307.285156 C 388.050781 307.0625 388.460938 306.828125 388.863281 306.578125 C 389.265625 306.332031 389.660156 306.070312 390.046875 305.796875 C 390.433594 305.523438 390.808594 305.238281 391.179688 304.9375 C 391.546875 304.640625 391.902344 304.332031 392.253906 304.011719 C 392.601562 303.691406 392.9375 303.359375 393.265625 303.015625 C 393.59375 302.675781 393.910156 302.324219 394.214844 301.960938 C 394.519531 301.597656 394.8125 301.226562 395.09375 300.847656 C 395.375 300.464844 395.644531 300.078125 395.898438 299.679688 C 396.15625 299.28125 396.398438 298.875 396.628906 298.460938 C 396.859375 298.050781 397.078125 297.628906 397.28125 297.203125 C 397.484375 296.773438 397.675781 296.339844 397.851562 295.902344 C 398.027344 295.464844 398.191406 295.019531 398.339844 294.570312 C 398.484375 294.121094 398.621094 293.664062 398.738281 293.207031 C 398.859375 292.75 398.960938 292.289062 399.050781 291.824219 C 399.140625 291.359375 399.21875 290.890625 399.277344 290.421875 C 399.335938 289.953125 399.382812 289.484375 399.414062 289.011719 C 399.441406 288.539062 399.457031 288.066406 399.457031 287.59375 L 399.457031 109.09375 C 399.457031 107.191406 399.214844 105.320312 398.738281 103.480469 C 398.257812 101.640625 397.554688 99.890625 396.628906 98.230469 C 395.703125 96.570312 394.582031 95.050781 393.269531 93.675781 C 391.953125 92.300781 390.488281 91.113281 388.871094 90.113281 Z M 265.476562 265.28125 C 265.476562 266.011719 265.4375 266.738281 265.363281 267.464844 C 265.292969 268.191406 265.183594 268.914062 265.039062 269.628906 C 264.894531 270.34375 264.714844 271.050781 264.503906 271.75 C 264.289062 272.449219 264.042969 273.132812 263.761719 273.808594 C 263.480469 274.484375 263.167969 275.140625 262.824219 275.785156 C 262.476562 276.429688 262.101562 277.054688 261.695312 277.660156 C 261.289062 278.269531 260.851562 278.851562 260.390625 279.417969 C 259.925781 279.980469 259.4375 280.523438 258.917969 281.039062 C 258.402344 281.554688 257.863281 282.042969 257.296875 282.507812 C 256.730469 282.972656 256.144531 283.40625 255.539062 283.8125 C 254.929688 284.21875 254.304688 284.59375 253.660156 284.9375 C 253.015625 285.285156 252.359375 285.597656 251.683594 285.875 C 251.007812 286.15625 250.320312 286.402344 249.621094 286.617188 C 248.925781 286.832031 248.214844 287.007812 247.5 287.152344 C 246.785156 287.296875 246.0625 287.40625 245.335938 287.480469 C 244.609375 287.550781 243.878906 287.589844 243.148438 287.59375 L 118.414062 287.59375 L 265.476562 140.644531 Z M 354.796875 251.488281 L 310.136719 229.175781 L 310.136719 167.511719 L 354.796875 145.199219 Z M 354.796875 251.488281 " fill-opacity="1" fill-rule="nonzero"/></g></svg>