<svg xmlns="http://www.w3.org/2000/svg" xmlns:xlink="http://www.w3.org/1999/xlink" width="529" zoomAndPan="magnify" viewBox="0 0 396.75 396.749984" height="529" preserveAspectRatio="xMidYMid meet" version="1.0"><path fill="#ffbd59" d="M 125.4375 132.113281 C 125.453125 131.234375 125.476562 130.351562 125.511719 129.464844 C 127.921875 69.511719 181.839844 26.363281 236.253906 16.746094 C 310.914062 3.554688 410.066406 52.917969 392.703125 140.917969 C 383.402344 188.03125 350.027344 230.738281 302.769531 243.820312 C 289.738281 247.425781 275.015625 249.75 261.472656 249.75 C 233.148438 249.75 210.800781 235.015625 184.746094 253.839844 C 177.128906 259.34375 169.246094 278.664062 157.164062 274.40625 C 148.332031 271.296875 146.480469 253.382812 145.882812 245.914062 C 142.804688 207.582031 124.757812 170.710938 125.4375 132.113281 Z M 125.4375 132.113281 " fill-opacity="1" fill-rule="nonzero"/><path fill="#ffffff" d="M 341.398438 132.695312 C 341.398438 133.269531 341.371094 133.835938 341.3125 134.40625 C 341.257812 134.972656 341.175781 135.539062 341.0625 136.097656 C 340.953125 136.65625 340.8125 137.210938 340.648438 137.757812 C 340.480469 138.304688 340.289062 138.839844 340.070312 139.367188 C 339.851562 139.894531 339.609375 140.410156 339.339844 140.914062 C 339.070312 141.417969 338.777344 141.90625 338.460938 142.382812 C 338.144531 142.859375 337.804688 143.316406 337.441406 143.757812 C 337.078125 144.199219 336.695312 144.621094 336.292969 145.023438 C 335.890625 145.429688 335.46875 145.8125 335.027344 146.175781 C 334.585938 146.535156 334.128906 146.875 333.652344 147.191406 C 333.179688 147.511719 332.6875 147.804688 332.1875 148.074219 C 331.683594 148.34375 331.167969 148.585938 330.640625 148.804688 C 330.113281 149.023438 329.574219 149.214844 329.03125 149.378906 C 328.484375 149.546875 327.929688 149.683594 327.371094 149.796875 C 326.8125 149.90625 326.246094 149.992188 325.679688 150.046875 C 325.109375 150.101562 324.542969 150.132812 323.96875 150.132812 C 323.398438 150.132812 322.832031 150.101562 322.261719 150.046875 C 321.695312 149.992188 321.128906 149.90625 320.570312 149.796875 C 320.011719 149.683594 319.457031 149.546875 318.910156 149.378906 C 318.367188 149.214844 317.828125 149.023438 317.300781 148.804688 C 316.773438 148.585938 316.257812 148.34375 315.753906 148.074219 C 315.25 147.804688 314.761719 147.511719 314.289062 147.191406 C 313.8125 146.875 313.355469 146.535156 312.914062 146.175781 C 312.472656 145.8125 312.050781 145.429688 311.648438 145.023438 C 311.242188 144.621094 310.859375 144.199219 310.5 143.757812 C 310.136719 143.316406 309.796875 142.859375 309.480469 142.382812 C 309.164062 141.90625 308.871094 141.417969 308.601562 140.914062 C 308.332031 140.410156 308.089844 139.894531 307.871094 139.367188 C 307.652344 138.839844 307.460938 138.304688 307.292969 137.757812 C 307.128906 137.210938 306.988281 136.65625 306.878906 136.097656 C 306.765625 135.539062 306.683594 134.972656 306.628906 134.40625 C 306.570312 133.835938 306.542969 133.269531 306.542969 132.695312 C 306.542969 132.125 306.570312 131.554688 306.628906 130.988281 C 306.683594 130.417969 306.765625 129.855469 306.878906 129.296875 C 306.988281 128.734375 307.128906 128.183594 307.292969 127.636719 C 307.460938 127.089844 307.652344 126.550781 307.871094 126.023438 C 308.089844 125.496094 308.332031 124.980469 308.601562 124.476562 C 308.871094 123.972656 309.164062 123.484375 309.480469 123.011719 C 309.796875 122.535156 310.136719 122.078125 310.5 121.636719 C 310.859375 121.195312 311.242188 120.773438 311.648438 120.367188 C 312.050781 119.964844 312.472656 119.582031 312.914062 119.21875 C 313.355469 118.855469 313.8125 118.519531 314.289062 118.199219 C 314.761719 117.882812 315.25 117.589844 315.753906 117.320312 C 316.257812 117.050781 316.773438 116.808594 317.300781 116.589844 C 317.828125 116.371094 318.367188 116.179688 318.910156 116.011719 C 319.457031 115.847656 320.011719 115.707031 320.570312 115.597656 C 321.128906 115.484375 321.695312 115.402344 322.261719 115.347656 C 322.832031 115.289062 323.398438 115.261719 323.96875 115.261719 C 324.542969 115.261719 325.109375 115.289062 325.679688 115.347656 C 326.246094 115.402344 326.8125 115.484375 327.371094 115.597656 C 327.929688 115.707031 328.484375 115.847656 329.03125 116.011719 C 329.574219 116.179688 330.113281 116.371094 330.640625 116.589844 C 331.167969 116.808594 331.683594 117.050781 332.1875 117.320312 C 332.6875 117.589844 333.179688 117.882812 333.652344 118.199219 C 334.128906 118.519531 334.585938 118.855469 335.027344 119.21875 C 335.46875 119.582031 335.890625 119.964844 336.292969 120.367188 C 336.695312 120.773438 337.078125 121.195312 337.441406 121.636719 C 337.804688 122.078125 338.144531 122.535156 338.460938 123.011719 C 338.777344 123.484375 339.070312 123.972656 339.339844 124.476562 C 339.609375 124.980469 339.851562 125.496094 340.070312 126.023438 C 340.289062 126.550781 340.480469 127.089844 340.648438 127.636719 C 340.8125 128.183594 340.953125 128.734375 341.0625 129.296875 C 341.175781 129.855469 341.257812 130.417969 341.3125 130.988281 C 341.371094 131.554688 341.398438 132.125 341.398438 132.695312 Z M 341.398438 132.695312 " fill-opacity="1" fill-rule="nonzero"/><path fill="#ffffff" d="M 279.839844 132.695312 C 279.839844 133.269531 279.8125 133.835938 279.757812 134.40625 C 279.699219 134.972656 279.617188 135.539062 279.503906 136.097656 C 279.394531 136.660156 279.253906 137.210938 279.089844 137.757812 C 278.925781 138.304688 278.730469 138.839844 278.515625 139.371094 C 278.296875 139.898438 278.050781 140.414062 277.78125 140.917969 C 277.511719 141.417969 277.21875 141.910156 276.902344 142.382812 C 276.585938 142.859375 276.246094 143.316406 275.882812 143.757812 C 275.523438 144.199219 275.140625 144.621094 274.734375 145.027344 C 274.332031 145.429688 273.910156 145.8125 273.46875 146.175781 C 273.027344 146.539062 272.570312 146.878906 272.09375 147.195312 C 271.621094 147.511719 271.128906 147.804688 270.628906 148.074219 C 270.125 148.34375 269.609375 148.585938 269.082031 148.804688 C 268.554688 149.023438 268.015625 149.214844 267.472656 149.382812 C 266.925781 149.546875 266.371094 149.6875 265.8125 149.796875 C 265.25 149.910156 264.6875 149.992188 264.121094 150.050781 C 263.550781 150.105469 262.980469 150.132812 262.410156 150.132812 C 261.839844 150.132812 261.269531 150.105469 260.703125 150.050781 C 260.136719 149.992188 259.570312 149.910156 259.011719 149.796875 C 258.453125 149.6875 257.898438 149.546875 257.351562 149.382812 C 256.804688 149.214844 256.269531 149.023438 255.742188 148.804688 C 255.214844 148.585938 254.699219 148.34375 254.195312 148.074219 C 253.691406 147.804688 253.203125 147.511719 252.726562 147.195312 C 252.253906 146.878906 251.796875 146.539062 251.355469 146.175781 C 250.914062 145.8125 250.492188 145.429688 250.085938 145.027344 C 249.683594 144.621094 249.300781 144.199219 248.9375 143.757812 C 248.578125 143.316406 248.238281 142.859375 247.917969 142.382812 C 247.601562 141.910156 247.308594 141.417969 247.039062 140.917969 C 246.769531 140.414062 246.527344 139.898438 246.308594 139.371094 C 246.089844 138.839844 245.898438 138.304688 245.734375 137.757812 C 245.566406 137.210938 245.429688 136.660156 245.316406 136.097656 C 245.207031 135.539062 245.121094 134.972656 245.066406 134.40625 C 245.011719 133.835938 244.984375 133.269531 244.984375 132.695312 C 244.984375 132.125 245.011719 131.554688 245.066406 130.988281 C 245.121094 130.417969 245.207031 129.855469 245.316406 129.296875 C 245.429688 128.734375 245.566406 128.183594 245.734375 127.636719 C 245.898438 127.089844 246.089844 126.550781 246.308594 126.023438 C 246.527344 125.496094 246.769531 124.980469 247.039062 124.476562 C 247.308594 123.972656 247.601562 123.484375 247.917969 123.007812 C 248.238281 122.535156 248.578125 122.078125 248.9375 121.636719 C 249.300781 121.195312 249.683594 120.769531 250.085938 120.367188 C 250.492188 119.964844 250.914062 119.582031 251.355469 119.21875 C 251.796875 118.855469 252.253906 118.515625 252.726562 118.199219 C 253.203125 117.882812 253.691406 117.589844 254.195312 117.320312 C 254.699219 117.050781 255.214844 116.804688 255.742188 116.585938 C 256.269531 116.371094 256.804688 116.175781 257.351562 116.011719 C 257.898438 115.84375 258.453125 115.707031 259.011719 115.59375 C 259.570312 115.484375 260.136719 115.402344 260.703125 115.34375 C 261.269531 115.289062 261.839844 115.261719 262.410156 115.261719 C 262.980469 115.261719 263.550781 115.289062 264.121094 115.34375 C 264.6875 115.402344 265.25 115.484375 265.8125 115.59375 C 266.371094 115.707031 266.925781 115.84375 267.472656 116.011719 C 268.015625 116.175781 268.554688 116.371094 269.082031 116.585938 C 269.609375 116.804688 270.125 117.050781 270.628906 117.320312 C 271.128906 117.589844 271.621094 117.882812 272.09375 118.199219 C 272.570312 118.515625 273.027344 118.855469 273.46875 119.21875 C 273.910156 119.582031 274.332031 119.964844 274.734375 120.367188 C 275.140625 120.769531 275.523438 121.195312 275.882812 121.636719 C 276.246094 122.078125 276.585938 122.535156 276.902344 123.007812 C 277.21875 123.484375 277.511719 123.972656 277.78125 124.476562 C 278.050781 124.980469 278.296875 125.496094 278.515625 126.023438 C 278.730469 126.550781 278.925781 127.089844 279.089844 127.636719 C 279.253906 128.183594 279.394531 128.734375 279.503906 129.296875 C 279.617188 129.855469 279.699219 130.417969 279.757812 130.988281 C 279.8125 131.554688 279.839844 132.125 279.839844 132.695312 Z M 279.839844 132.695312 " fill-opacity="1" fill-rule="nonzero"/><path fill="#ffffff" d="M 221.542969 132.695312 C 221.542969 133.269531 221.511719 133.835938 221.457031 134.40625 C 221.402344 134.972656 221.316406 135.539062 221.207031 136.097656 C 221.09375 136.65625 220.957031 137.210938 220.789062 137.757812 C 220.625 138.304688 220.433594 138.839844 220.214844 139.367188 C 219.996094 139.894531 219.753906 140.410156 219.484375 140.914062 C 219.214844 141.417969 218.921875 141.90625 218.605469 142.382812 C 218.289062 142.859375 217.949219 143.316406 217.585938 143.757812 C 217.222656 144.199219 216.839844 144.621094 216.4375 145.023438 C 216.035156 145.429688 215.609375 145.8125 215.167969 146.175781 C 214.726562 146.535156 214.269531 146.875 213.796875 147.191406 C 213.320312 147.511719 212.832031 147.804688 212.328125 148.074219 C 211.824219 148.34375 211.308594 148.585938 210.78125 148.804688 C 210.253906 149.023438 209.71875 149.214844 209.171875 149.378906 C 208.625 149.546875 208.074219 149.683594 207.515625 149.796875 C 206.953125 149.90625 206.390625 149.992188 205.820312 150.046875 C 205.253906 150.101562 204.683594 150.132812 204.113281 150.132812 C 203.542969 150.132812 202.972656 150.101562 202.40625 150.046875 C 201.835938 149.992188 201.273438 149.90625 200.714844 149.796875 C 200.152344 149.683594 199.601562 149.546875 199.054688 149.378906 C 198.507812 149.214844 197.972656 149.023438 197.445312 148.804688 C 196.917969 148.585938 196.402344 148.34375 195.898438 148.074219 C 195.394531 147.804688 194.90625 147.511719 194.433594 147.191406 C 193.957031 146.875 193.5 146.535156 193.058594 146.175781 C 192.617188 145.8125 192.195312 145.429688 191.789062 145.023438 C 191.386719 144.621094 191.003906 144.199219 190.640625 143.757812 C 190.28125 143.316406 189.941406 142.859375 189.625 142.382812 C 189.304688 141.90625 189.011719 141.417969 188.746094 140.914062 C 188.476562 140.410156 188.230469 139.894531 188.011719 139.367188 C 187.792969 138.839844 187.601562 138.304688 187.4375 137.757812 C 187.269531 137.210938 187.132812 136.65625 187.019531 136.097656 C 186.910156 135.539062 186.828125 134.972656 186.769531 134.40625 C 186.714844 133.835938 186.6875 133.269531 186.6875 132.695312 C 186.6875 132.125 186.714844 131.554688 186.769531 130.988281 C 186.828125 130.417969 186.910156 129.855469 187.019531 129.296875 C 187.132812 128.734375 187.269531 128.183594 187.4375 127.636719 C 187.601562 127.089844 187.792969 126.550781 188.011719 126.023438 C 188.230469 125.496094 188.476562 124.980469 188.746094 124.476562 C 189.011719 123.972656 189.304688 123.484375 189.625 123.011719 C 189.941406 122.535156 190.28125 122.078125 190.640625 121.636719 C 191.003906 121.195312 191.386719 120.773438 191.789062 120.367188 C 192.195312 119.964844 192.617188 119.582031 193.058594 119.21875 C 193.5 118.855469 193.957031 118.519531 194.433594 118.199219 C 194.90625 117.882812 195.394531 117.589844 195.898438 117.320312 C 196.402344 117.050781 196.917969 116.808594 197.445312 116.589844 C 197.972656 116.371094 198.507812 116.179688 199.054688 116.011719 C 199.601562 115.847656 200.152344 115.707031 200.714844 115.597656 C 201.273438 115.484375 201.835938 115.402344 202.40625 115.347656 C 202.972656 115.289062 203.542969 115.261719 204.113281 115.261719 C 204.683594 115.261719 205.253906 115.289062 205.820312 115.347656 C 206.390625 115.402344 206.953125 115.484375 207.515625 115.597656 C 208.074219 115.707031 208.625 115.847656 209.171875 116.011719 C 209.71875 116.179688 210.253906 116.371094 210.78125 116.589844 C 211.308594 116.808594 211.824219 117.050781 212.328125 117.320312 C 212.832031 117.589844 213.320312 117.882812 213.796875 118.199219 C 214.269531 118.519531 214.726562 118.855469 215.167969 119.21875 C 215.609375 119.582031 216.035156 119.964844 216.4375 120.367188 C 216.839844 120.773438 217.222656 121.195312 217.585938 121.636719 C 217.949219 122.078125 218.285156 122.535156 218.605469 123.011719 C 218.921875 123.484375 219.214844 123.972656 219.484375 124.476562 C 219.753906 124.980469 219.996094 125.496094 220.214844 126.023438 C 220.433594 126.550781 220.625 127.089844 220.789062 127.636719 C 220.957031 128.183594 221.09375 128.734375 221.207031 129.296875 C 221.316406 129.855469 221.402344 130.417969 221.457031 130.988281 C 221.511719 131.554688 221.542969 132.125 221.542969 132.695312 Z M 221.542969 132.695312 " fill-opacity="1" fill-rule="nonzero"/><path fill="#545454" d="M 271.492188 247.070312 C 271.476562 246.1875 271.453125 245.304688 271.414062 244.421875 C 269.007812 184.464844 215.089844 141.316406 160.675781 131.699219 C 86.015625 118.507812 -13.136719 167.875 4.226562 255.871094 C 13.527344 302.984375 46.902344 345.691406 94.160156 358.773438 C 107.191406 362.382812 121.914062 364.707031 135.457031 364.707031 C 163.78125 364.707031 186.128906 349.972656 212.179688 368.792969 C 219.800781 374.296875 227.683594 393.621094 239.765625 389.359375 C 248.597656 386.25 250.449219 368.339844 251.046875 360.871094 C 254.125 322.539062 272.171875 285.667969 271.492188 247.070312 Z M 271.492188 247.070312 " fill-opacity="1" fill-rule="nonzero"/><path fill="#ffffff" d="M 90.386719 247.652344 C 90.386719 248.222656 90.359375 248.792969 90.300781 249.359375 C 90.246094 249.929688 90.164062 250.492188 90.050781 251.050781 C 89.941406 251.613281 89.800781 252.164062 89.636719 252.710938 C 89.46875 253.257812 89.277344 253.796875 89.058594 254.324219 C 88.839844 254.851562 88.597656 255.367188 88.328125 255.871094 C 88.058594 256.375 87.765625 256.863281 87.449219 257.335938 C 87.132812 257.8125 86.792969 258.269531 86.429688 258.710938 C 86.066406 259.152344 85.683594 259.574219 85.28125 259.980469 C 84.878906 260.382812 84.457031 260.765625 84.015625 261.128906 C 83.574219 261.492188 83.117188 261.832031 82.640625 262.148438 C 82.167969 262.464844 81.675781 262.757812 81.175781 263.027344 C 80.671875 263.296875 80.15625 263.539062 79.628906 263.757812 C 79.101562 263.976562 78.5625 264.167969 78.019531 264.335938 C 77.472656 264.5 76.917969 264.640625 76.359375 264.75 C 75.800781 264.863281 75.234375 264.945312 74.667969 265 C 74.097656 265.058594 73.53125 265.085938 72.957031 265.085938 C 72.386719 265.085938 71.820312 265.058594 71.25 265 C 70.683594 264.945312 70.117188 264.863281 69.558594 264.75 C 69 264.640625 68.445312 264.5 67.898438 264.335938 C 67.355469 264.167969 66.816406 263.976562 66.289062 263.757812 C 65.761719 263.539062 65.246094 263.296875 64.742188 263.027344 C 64.238281 262.757812 63.75 262.464844 63.277344 262.148438 C 62.800781 261.832031 62.34375 261.492188 61.902344 261.128906 C 61.460938 260.765625 61.039062 260.382812 60.636719 259.980469 C 60.230469 259.574219 59.847656 259.152344 59.488281 258.710938 C 59.125 258.269531 58.785156 257.8125 58.46875 257.335938 C 58.152344 256.863281 57.859375 256.375 57.589844 255.871094 C 57.320312 255.367188 57.078125 254.851562 56.859375 254.324219 C 56.640625 253.796875 56.449219 253.257812 56.28125 252.710938 C 56.117188 252.164062 55.976562 251.613281 55.867188 251.050781 C 55.753906 250.492188 55.671875 249.929688 55.617188 249.359375 C 55.558594 248.792969 55.53125 248.222656 55.53125 247.652344 C 55.53125 247.082031 55.558594 246.511719 55.617188 245.941406 C 55.671875 245.375 55.753906 244.808594 55.867188 244.25 C 55.976562 243.691406 56.117188 243.136719 56.28125 242.589844 C 56.449219 242.042969 56.640625 241.507812 56.859375 240.980469 C 57.078125 240.453125 57.320312 239.9375 57.589844 239.433594 C 57.859375 238.929688 58.152344 238.441406 58.46875 237.964844 C 58.785156 237.492188 59.125 237.03125 59.488281 236.589844 C 59.847656 236.148438 60.230469 235.726562 60.636719 235.324219 C 61.039062 234.917969 61.460938 234.535156 61.902344 234.175781 C 62.34375 233.8125 62.800781 233.472656 63.277344 233.15625 C 63.75 232.835938 64.238281 232.542969 64.742188 232.273438 C 65.246094 232.007812 65.761719 231.761719 66.289062 231.542969 C 66.816406 231.324219 67.355469 231.132812 67.898438 230.96875 C 68.445312 230.800781 69 230.664062 69.558594 230.550781 C 70.117188 230.441406 70.683594 230.355469 71.25 230.300781 C 71.820312 230.246094 72.386719 230.214844 72.957031 230.214844 C 73.53125 230.214844 74.097656 230.246094 74.667969 230.300781 C 75.234375 230.355469 75.800781 230.441406 76.359375 230.550781 C 76.917969 230.664062 77.472656 230.800781 78.019531 230.96875 C 78.5625 231.132812 79.101562 231.324219 79.628906 231.542969 C 80.15625 231.761719 80.671875 232.007812 81.175781 232.273438 C 81.675781 232.542969 82.167969 232.835938 82.640625 233.15625 C 83.117188 233.472656 83.574219 233.8125 84.015625 234.175781 C 84.457031 234.535156 84.878906 234.917969 85.28125 235.324219 C 85.683594 235.726562 86.066406 236.148438 86.429688 236.589844 C 86.792969 237.03125 87.132812 237.492188 87.449219 237.964844 C 87.765625 238.441406 88.058594 238.929688 88.328125 239.433594 C 88.597656 239.9375 88.839844 240.453125 89.058594 240.980469 C 89.277344 241.507812 89.46875 242.042969 89.636719 242.589844 C 89.800781 243.136719 89.941406 243.691406 90.050781 244.25 C 90.164062 244.808594 90.246094 245.375 90.300781 245.941406 C 90.359375 246.511719 90.386719 247.082031 90.386719 247.652344 Z M 90.386719 247.652344 " fill-opacity="1" fill-rule="nonzero"/><path fill="#ffffff" d="M 151.945312 247.652344 C 151.945312 248.222656 151.917969 248.792969 151.863281 249.359375 C 151.808594 249.929688 151.722656 250.492188 151.613281 251.054688 C 151.5 251.613281 151.363281 252.167969 151.195312 252.710938 C 151.03125 253.257812 150.839844 253.796875 150.621094 254.324219 C 150.402344 254.851562 150.15625 255.367188 149.890625 255.871094 C 149.621094 256.375 149.328125 256.863281 149.007812 257.339844 C 148.691406 257.8125 148.351562 258.269531 147.992188 258.710938 C 147.628906 259.152344 147.246094 259.578125 146.84375 259.980469 C 146.4375 260.382812 146.015625 260.765625 145.574219 261.128906 C 145.132812 261.492188 144.675781 261.832031 144.199219 262.148438 C 143.726562 262.464844 143.238281 262.757812 142.734375 263.027344 C 142.230469 263.296875 141.714844 263.542969 141.1875 263.761719 C 140.660156 263.980469 140.125 264.171875 139.578125 264.335938 C 139.03125 264.503906 138.476562 264.640625 137.917969 264.753906 C 137.359375 264.863281 136.792969 264.949219 136.226562 265.003906 C 135.65625 265.058594 135.089844 265.085938 134.519531 265.085938 C 133.945312 265.085938 133.378906 265.058594 132.808594 265.003906 C 132.242188 264.949219 131.675781 264.863281 131.117188 264.753906 C 130.558594 264.640625 130.003906 264.503906 129.457031 264.335938 C 128.914062 264.171875 128.375 263.980469 127.847656 263.761719 C 127.320312 263.542969 126.804688 263.296875 126.300781 263.027344 C 125.796875 262.757812 125.308594 262.464844 124.835938 262.148438 C 124.359375 261.832031 123.902344 261.492188 123.460938 261.128906 C 123.019531 260.765625 122.597656 260.382812 122.195312 259.980469 C 121.789062 259.578125 121.40625 259.152344 121.046875 258.710938 C 120.683594 258.269531 120.34375 257.8125 120.027344 257.339844 C 119.710938 256.863281 119.414062 256.375 119.148438 255.871094 C 118.878906 255.367188 118.632812 254.851562 118.414062 254.324219 C 118.195312 253.796875 118.003906 253.257812 117.839844 252.710938 C 117.671875 252.167969 117.535156 251.613281 117.425781 251.054688 C 117.3125 250.492188 117.230469 249.929688 117.171875 249.359375 C 117.117188 248.792969 117.089844 248.222656 117.089844 247.652344 C 117.089844 247.082031 117.117188 246.511719 117.171875 245.941406 C 117.230469 245.375 117.3125 244.808594 117.421875 244.25 C 117.535156 243.691406 117.671875 243.136719 117.839844 242.589844 C 118.003906 242.042969 118.195312 241.507812 118.414062 240.980469 C 118.632812 240.453125 118.878906 239.9375 119.148438 239.433594 C 119.414062 238.929688 119.710938 238.4375 120.027344 237.964844 C 120.34375 237.488281 120.683594 237.03125 121.046875 236.589844 C 121.40625 236.148438 121.789062 235.726562 122.195312 235.320312 C 122.597656 234.917969 123.019531 234.535156 123.460938 234.171875 C 123.902344 233.8125 124.359375 233.472656 124.835938 233.152344 C 125.308594 232.835938 125.796875 232.542969 126.300781 232.273438 C 126.804688 232.003906 127.320312 231.761719 127.847656 231.542969 C 128.375 231.324219 128.914062 231.132812 129.457031 230.964844 C 130.003906 230.800781 130.558594 230.660156 131.117188 230.550781 C 131.675781 230.4375 132.242188 230.355469 132.808594 230.300781 C 133.378906 230.242188 133.945312 230.214844 134.519531 230.214844 C 135.089844 230.214844 135.65625 230.242188 136.226562 230.300781 C 136.792969 230.355469 137.359375 230.4375 137.917969 230.550781 C 138.476562 230.660156 139.03125 230.800781 139.578125 230.964844 C 140.125 231.132812 140.660156 231.324219 141.1875 231.542969 C 141.714844 231.761719 142.230469 232.003906 142.734375 232.273438 C 143.238281 232.542969 143.726562 232.835938 144.199219 233.152344 C 144.675781 233.472656 145.132812 233.8125 145.574219 234.171875 C 146.015625 234.535156 146.4375 234.917969 146.84375 235.320312 C 147.246094 235.726562 147.628906 236.148438 147.992188 236.589844 C 148.351562 237.03125 148.691406 237.488281 149.007812 237.964844 C 149.328125 238.4375 149.621094 238.929688 149.890625 239.433594 C 150.15625 239.9375 150.402344 240.453125 150.621094 240.980469 C 150.839844 241.507812 151.03125 242.042969 151.195312 242.589844 C 151.363281 243.136719 151.5 243.691406 151.613281 244.25 C 151.722656 244.808594 151.808594 245.375 151.863281 245.941406 C 151.917969 246.511719 151.945312 247.082031 151.945312 247.652344 Z M 151.945312 247.652344 " fill-opacity="1" fill-rule="nonzero"/><path fill="#ffffff" d="M 210.242188 247.652344 C 210.242188 248.222656 210.214844 248.792969 210.160156 249.359375 C 210.101562 249.929688 210.019531 250.492188 209.90625 251.050781 C 209.796875 251.613281 209.660156 252.164062 209.492188 252.710938 C 209.328125 253.257812 209.136719 253.796875 208.917969 254.324219 C 208.699219 254.851562 208.453125 255.367188 208.183594 255.871094 C 207.917969 256.375 207.621094 256.863281 207.304688 257.335938 C 206.988281 257.8125 206.648438 258.269531 206.289062 258.710938 C 205.925781 259.152344 205.542969 259.574219 205.136719 259.980469 C 204.734375 260.382812 204.3125 260.765625 203.871094 261.128906 C 203.429688 261.492188 202.972656 261.832031 202.496094 262.148438 C 202.023438 262.464844 201.535156 262.757812 201.03125 263.027344 C 200.527344 263.296875 200.011719 263.539062 199.484375 263.757812 C 198.957031 263.976562 198.421875 264.167969 197.875 264.335938 C 197.328125 264.5 196.773438 264.640625 196.214844 264.75 C 195.65625 264.863281 195.089844 264.945312 194.523438 265 C 193.957031 265.058594 193.386719 265.085938 192.816406 265.085938 C 192.246094 265.085938 191.675781 265.058594 191.105469 265 C 190.539062 264.945312 189.976562 264.863281 189.414062 264.75 C 188.855469 264.640625 188.304688 264.5 187.757812 264.335938 C 187.210938 264.167969 186.671875 263.976562 186.144531 263.757812 C 185.617188 263.539062 185.105469 263.296875 184.601562 263.027344 C 184.097656 262.757812 183.609375 262.464844 183.132812 262.148438 C 182.660156 261.832031 182.199219 261.492188 181.757812 261.128906 C 181.320312 260.765625 180.894531 260.382812 180.492188 259.980469 C 180.089844 259.574219 179.707031 259.152344 179.34375 258.710938 C 178.980469 258.269531 178.640625 257.8125 178.324219 257.335938 C 178.007812 256.863281 177.714844 256.375 177.445312 255.871094 C 177.175781 255.367188 176.933594 254.851562 176.714844 254.324219 C 176.496094 253.796875 176.304688 253.257812 176.136719 252.710938 C 175.972656 252.164062 175.835938 251.613281 175.722656 251.050781 C 175.613281 250.492188 175.527344 249.929688 175.472656 249.359375 C 175.417969 248.792969 175.386719 248.222656 175.386719 247.652344 C 175.386719 247.082031 175.417969 246.511719 175.472656 245.941406 C 175.527344 245.375 175.613281 244.808594 175.722656 244.25 C 175.835938 243.691406 175.972656 243.136719 176.136719 242.589844 C 176.304688 242.042969 176.496094 241.507812 176.714844 240.980469 C 176.933594 240.453125 177.175781 239.9375 177.445312 239.433594 C 177.714844 238.929688 178.007812 238.441406 178.324219 237.964844 C 178.640625 237.492188 178.980469 237.03125 179.34375 236.589844 C 179.707031 236.148438 180.089844 235.726562 180.492188 235.324219 C 180.894531 234.917969 181.320312 234.535156 181.757812 234.175781 C 182.199219 233.8125 182.660156 233.472656 183.132812 233.15625 C 183.609375 232.835938 184.097656 232.542969 184.601562 232.273438 C 185.105469 232.007812 185.617188 231.761719 186.144531 231.542969 C 186.671875 231.324219 187.210938 231.132812 187.757812 230.96875 C 188.304688 230.800781 188.855469 230.664062 189.414062 230.550781 C 189.976562 230.441406 190.539062 230.355469 191.105469 230.300781 C 191.675781 230.246094 192.246094 230.214844 192.816406 230.214844 C 193.386719 230.214844 193.957031 230.246094 194.523438 230.300781 C 195.089844 230.355469 195.65625 230.441406 196.214844 230.550781 C 196.773438 230.664062 197.328125 230.800781 197.875 230.96875 C 198.421875 231.132812 198.957031 231.324219 199.484375 231.542969 C 200.011719 231.761719 200.527344 232.007812 201.03125 232.273438 C 201.535156 232.542969 202.023438 232.835938 202.496094 233.15625 C 202.972656 233.472656 203.429688 233.8125 203.871094 234.175781 C 204.3125 234.535156 204.734375 234.917969 205.136719 235.324219 C 205.542969 235.726562 205.925781 236.148438 206.289062 236.589844 C 206.648438 237.03125 206.988281 237.492188 207.304688 237.964844 C 207.621094 238.441406 207.917969 238.929688 208.183594 239.433594 C 208.453125 239.9375 208.699219 240.453125 208.917969 240.980469 C 209.136719 241.507812 209.328125 242.042969 209.492188 242.589844 C 209.660156 243.136719 209.796875 243.691406 209.90625 244.25 C 210.019531 244.808594 210.101562 245.375 210.160156 245.941406 C 210.214844 246.511719 210.242188 247.082031 210.242188 247.652344 Z M 210.242188 247.652344 " fill-opacity="1" fill-rule="nonzero"/></svg>