<svg xmlns="http://www.w3.org/2000/svg" xmlns:xlink="http://www.w3.org/1999/xlink" width="529" zoomAndPan="magnify" viewBox="0 0 396.75 396.749984" height="529" preserveAspectRatio="xMidYMid meet" version="1.0"><defs><clipPath id="id1"><path d="M 0 0 L 396.5 0 L 396.5 396.5 L 0 396.5 Z M 0 0 " clip-rule="nonzero"/></clipPath></defs><g clip-path="url(#id1)"><path fill="#ffffff" d="M 0 0 L 396.75 0 L 396.75 396.75 L 0 396.75 Z M 0 0 " fill-opacity="1" fill-rule="nonzero"/><path fill="#ffffff" d="M 0 0 L 396.75 0 L 396.75 396.75 L 0 396.75 Z M 0 0 " fill-opacity="1" fill-rule="nonzero"/><path fill="#ffffff" d="M 0 0 L 396.75 0 L 396.75 396.75 L 0 396.75 Z M 0 0 " fill-opacity="1" fill-rule="nonzero"/></g><path fill="#f58113" d="M 106.199219 89.5 C 101.929688 85.234375 100.78125 73.597656 101.546875 63.953125 C 101.964844 58.558594 103.695312 45.453125 110.707031 40.347656 C 162.183594 2.734375 231.378906 2.730469 282.859375 40.351562 C 288.171875 44.21875 289.84375 52.175781 290.3125 58.15625 C 291.101562 68.273438 288.929688 82.230469 284.027344 87.136719 L 280.34375 83.449219 C 283.273438 80.503906 285.953125 69.230469 285.113281 58.570312 C 284.578125 51.753906 282.640625 46.644531 279.789062 44.5625 C 230.144531 8.289062 163.425781 8.289062 113.769531 44.5625 C 110.183594 47.183594 107.488281 54.769531 106.734375 64.363281 C 105.902344 74.988281 107.683594 83.613281 109.882812 85.8125 L 106.199219 89.5 " fill-opacity="1" fill-rule="nonzero"/><path fill="#82d6e0" d="M 326.496094 244.261719 C 326.496094 315.140625 269.097656 372.59375 198.292969 372.59375 C 127.492188 372.59375 70.085938 315.140625 70.085938 244.261719 C 70.085938 173.375 127.492188 115.917969 198.292969 115.917969 C 269.097656 115.917969 326.496094 173.375 326.496094 244.261719 " fill-opacity="1" fill-rule="nonzero"/><path fill="#ffffff" d="M 299.613281 244.261719 C 299.613281 300.277344 254.253906 345.6875 198.292969 345.6875 C 142.332031 345.6875 96.96875 300.277344 96.96875 244.261719 C 96.96875 188.234375 142.332031 142.820312 198.292969 142.820312 C 254.253906 142.820312 299.613281 188.234375 299.613281 244.261719 " fill-opacity="1" fill-rule="nonzero"/><path fill="#59c8ca" d="M 201.589844 239.9375 L 194.984375 239.9375 L 194.984375 181.402344 L 201.589844 181.402344 L 201.589844 239.9375 " fill-opacity="1" fill-rule="nonzero"/><path fill="#59c8ca" d="M 194.984375 240.136719 L 199.660156 235.460938 L 232.867188 268.816406 L 228.191406 273.492188 L 194.984375 240.136719 " fill-opacity="1" fill-rule="nonzero"/><path fill="#fbc508" d="M 286.957031 336.902344 C 277.691406 345.789062 267.105469 353.300781 255.507812 359.09375 L 276.484375 387.234375 C 278.4375 391.90625 283.808594 394.125 288.484375 392.171875 C 293.179688 390.210938 295.378906 384.835938 293.429688 380.15625 L 286.957031 336.902344 " fill-opacity="1" fill-rule="nonzero"/><path fill="#fbc508" d="M 104.421875 331.621094 C 104.058594 331.921875 103.769531 332.25 103.597656 332.652344 L 96.480469 380.15625 C 94.539062 384.835938 96.746094 390.210938 101.417969 392.171875 C 106.109375 394.125 111.480469 391.90625 113.4375 387.234375 L 136.289062 356.59375 C 124.371094 349.976562 113.625 341.53125 104.421875 331.621094 " fill-opacity="1" fill-rule="nonzero"/><path fill="#fbc508" d="M 340.371094 169.210938 L 348.152344 158.175781 C 355.757812 147.425781 353.210938 132.542969 342.46875 124.929688 L 275.085938 77.199219 C 264.335938 69.585938 249.46875 72.136719 241.867188 82.886719 L 234.070312 93.917969 L 340.371094 169.210938 " fill-opacity="1" fill-rule="nonzero"/><path fill="#fbc508" d="M 56.132812 169.210938 L 48.347656 158.175781 C 40.75 147.425781 43.292969 132.542969 54.042969 124.929688 L 121.421875 77.199219 C 132.167969 69.585938 147.03125 72.136719 154.640625 82.886719 L 162.433594 93.917969 L 56.132812 169.210938 " fill-opacity="1" fill-rule="nonzero"/><path fill="#f58113" d="M 314.84375 105.359375 L 314.988281 105.191406 C 317.367188 101.832031 316.574219 97.175781 313.214844 94.792969 C 309.847656 92.410156 305.199219 93.210938 302.828125 96.574219 L 302.703125 96.761719 L 314.84375 105.359375 " fill-opacity="1" fill-rule="nonzero"/><path fill="#f58113" d="M 81.660156 105.359375 L 81.519531 105.191406 C 79.136719 101.832031 79.925781 97.175781 83.296875 94.792969 C 86.652344 92.410156 91.304688 93.210938 93.6875 96.574219 L 93.796875 96.761719 L 81.660156 105.359375 " fill-opacity="1" fill-rule="nonzero"/><path fill="#f58113" d="M 287.457031 152.085938 L 297.042969 138.515625 L 277.40625 124.601562 L 268.648438 136.984375 C 275.386719 141.433594 281.679688 146.480469 287.457031 152.085938 " fill-opacity="1" fill-rule="nonzero"/><path fill="#f58113" d="M 109.058594 152.085938 L 99.46875 138.515625 L 119.101562 124.601562 L 127.851562 136.984375 C 121.117188 141.433594 114.824219 146.480469 109.058594 152.085938 " fill-opacity="1" fill-rule="nonzero"/><path fill="#4f4c4c" d="M 217.503906 100.109375 L 174.292969 100.109375 L 174.292969 88.109375 L 217.503906 88.109375 L 217.503906 100.109375 " fill-opacity="1" fill-rule="nonzero"/><path fill="#393536" d="M 198.292969 115.917969 C 200.441406 115.917969 202.582031 115.96875 204.703125 116.078125 L 204.703125 100.109375 L 187.09375 100.109375 L 187.09375 116.425781 C 190.78125 116.105469 194.507812 115.917969 198.292969 115.917969 " fill-opacity="1" fill-rule="nonzero"/><path fill="#ffffff" d="M 203.496094 239.078125 C 203.496094 241.855469 201.257812 244.097656 198.476562 244.097656 C 195.703125 244.097656 193.453125 241.855469 193.453125 239.078125 C 193.453125 236.296875 195.703125 234.046875 198.476562 234.046875 C 201.257812 234.046875 203.496094 236.296875 203.496094 239.078125 " fill-opacity="1" fill-rule="nonzero"/><path fill="#231f20" d="M 203.496094 239.078125 L 200.894531 239.078125 C 200.894531 239.753906 200.625 240.34375 200.1875 240.785156 C 199.746094 241.222656 199.160156 241.488281 198.476562 241.492188 C 197.800781 241.488281 197.207031 241.222656 196.765625 240.78125 C 196.324219 240.339844 196.058594 239.75 196.054688 239.078125 C 196.058594 238.394531 196.324219 237.808594 196.765625 237.359375 C 197.214844 236.921875 197.800781 236.652344 198.476562 236.652344 C 199.160156 236.652344 199.746094 236.921875 200.1875 237.359375 C 200.625 237.804688 200.894531 238.390625 200.894531 239.078125 L 206.105469 239.078125 C 206.105469 236.976562 205.25 235.046875 203.875 233.671875 C 202.5 232.292969 200.574219 231.4375 198.476562 231.4375 C 196.378906 231.4375 194.457031 232.292969 193.082031 233.671875 C 191.703125 235.042969 190.84375 236.972656 190.847656 239.078125 C 190.84375 241.175781 191.703125 243.101562 193.082031 244.472656 C 194.457031 245.855469 196.378906 246.710938 198.476562 246.710938 C 200.574219 246.710938 202.5 245.855469 203.875 244.472656 C 205.25 243.097656 206.105469 241.171875 206.105469 239.078125 L 203.496094 239.078125 " fill-opacity="1" fill-rule="nonzero"/><path fill="#393536" d="M 204.902344 168.417969 C 204.902344 172.074219 201.9375 175.027344 198.292969 175.027344 C 194.640625 175.027344 191.675781 172.074219 191.675781 168.417969 C 191.675781 164.761719 194.640625 161.789062 198.292969 161.789062 C 201.9375 161.789062 204.902344 164.761719 204.902344 168.417969 " fill-opacity="1" fill-rule="nonzero"/><path fill="#393536" d="M 204.902344 320.101562 C 204.902344 323.753906 201.9375 326.707031 198.292969 326.707031 C 194.640625 326.707031 191.675781 323.753906 191.675781 320.101562 C 191.675781 316.441406 194.640625 313.476562 198.292969 313.476562 C 201.9375 313.476562 204.902344 316.441406 204.902344 320.101562 " fill-opacity="1" fill-rule="nonzero"/><path fill="#393536" d="M 274.058594 250.867188 C 270.402344 250.867188 267.4375 247.90625 267.4375 244.261719 C 267.4375 240.59375 270.402344 237.628906 274.058594 237.628906 C 277.699219 237.628906 280.664062 240.59375 280.664062 244.261719 C 280.664062 247.90625 277.699219 250.867188 274.058594 250.867188 " fill-opacity="1" fill-rule="nonzero"/><path fill="#393536" d="M 122.53125 250.867188 C 118.882812 250.867188 115.917969 247.90625 115.917969 244.261719 C 115.917969 240.59375 118.882812 237.628906 122.53125 237.628906 C 126.179688 237.628906 129.132812 240.59375 129.132812 244.261719 C 129.132812 247.90625 126.179688 250.867188 122.53125 250.867188 " fill-opacity="1" fill-rule="nonzero"/><path fill="#393536" d="M 139.207031 196.324219 C 142.230469 198.375 143.019531 202.480469 140.984375 205.511719 C 138.949219 208.546875 134.832031 209.335938 131.8125 207.296875 C 128.777344 205.246094 127.984375 201.140625 130.03125 198.101562 C 132.074219 195.074219 136.179688 194.277344 139.207031 196.324219 " fill-opacity="1" fill-rule="nonzero"/><path fill="#393536" d="M 264.777344 281.207031 C 267.804688 283.253906 268.597656 287.375 266.5625 290.398438 C 264.519531 293.425781 260.40625 294.222656 257.371094 292.179688 C 254.351562 290.132812 253.550781 286.019531 255.59375 282.996094 C 257.640625 279.960938 261.75 279.171875 264.777344 281.207031 " fill-opacity="1" fill-rule="nonzero"/><path fill="#393536" d="M 246.167969 185.109375 C 244.117188 188.132812 240.011719 188.933594 236.984375 186.882812 C 233.964844 184.839844 233.160156 180.730469 235.203125 177.703125 C 237.25 174.664062 241.363281 173.871094 244.390625 175.921875 C 247.410156 177.960938 248.214844 182.078125 246.167969 185.109375 " fill-opacity="1" fill-rule="nonzero"/><path fill="#393536" d="M 161.375 310.8125 C 159.320312 313.835938 155.21875 314.640625 152.1875 312.585938 C 149.164062 310.53125 148.367188 306.4375 150.414062 303.40625 C 152.460938 300.378906 156.574219 299.578125 159.59375 301.625 C 162.621094 303.664062 163.414062 307.789062 161.375 310.8125 " fill-opacity="1" fill-rule="nonzero"/><path fill="#393536" d="M 167.574219 174.609375 C 169.332031 177.816406 168.160156 181.835938 164.976562 183.59375 C 161.769531 185.355469 157.753906 184.191406 155.992188 180.988281 C 154.230469 177.785156 155.394531 173.761719 158.601562 172 C 161.792969 170.230469 165.8125 171.414062 167.574219 174.609375 " fill-opacity="1" fill-rule="nonzero"/><path fill="#393536" d="M 240.59375 307.515625 C 242.355469 310.71875 241.191406 314.738281 237.984375 316.507812 C 234.789062 318.261719 230.769531 317.09375 229.007812 313.894531 C 227.253906 310.703125 228.421875 306.675781 231.609375 304.90625 C 234.8125 303.144531 238.835938 304.316406 240.59375 307.515625 " fill-opacity="1" fill-rule="nonzero"/><path fill="#393536" d="M 267.855469 213.5 C 264.660156 215.269531 260.636719 214.09375 258.882812 210.898438 C 257.121094 207.695312 258.292969 203.664062 261.488281 201.90625 C 264.675781 200.152344 268.707031 201.320312 270.464844 204.515625 C 272.222656 207.710938 271.054688 211.738281 267.855469 213.5 " fill-opacity="1" fill-rule="nonzero"/><path fill="#393536" d="M 135.09375 286.605469 C 131.902344 288.363281 127.878906 287.191406 126.121094 283.992188 C 124.359375 280.785156 125.527344 276.769531 128.722656 275 C 131.917969 273.242188 135.941406 274.410156 137.703125 277.609375 C 139.453125 280.820312 138.296875 284.839844 135.09375 286.605469 " fill-opacity="1" fill-rule="nonzero"/></svg>