<svg xmlns="http://www.w3.org/2000/svg" xmlns:xlink="http://www.w3.org/1999/xlink" width="529" zoomAndPan="magnify" viewBox="0 0 396.75 396.749984" height="529" preserveAspectRatio="xMidYMid meet" version="1.0"><defs><clipPath id="id1"><path d="M 10 0 L 361 0 L 361 396.5 L 10 396.5 Z M 10 0 " clip-rule="nonzero"/></clipPath><clipPath id="id2"><path d="M 162 304 L 368 304 L 368 396.5 L 162 396.5 Z M 162 304 " clip-rule="nonzero"/></clipPath><clipPath id="id3"><path d="M 354 304 L 393.972656 304 L 393.972656 344 L 354 344 Z M 354 304 " clip-rule="nonzero"/></clipPath><clipPath id="id4"><path d="M 3.222656 64 L 110 64 L 110 173 L 3.222656 173 Z M 3.222656 64 " clip-rule="nonzero"/></clipPath></defs><g clip-path="url(#id1)"><path fill="#ffffff" d="M 107.988281 174.390625 C 105.011719 174.367188 102.039062 174.484375 99.074219 174.738281 C 96.105469 174.992188 93.160156 175.382812 90.226562 175.914062 C 87.296875 176.445312 84.398438 177.109375 81.53125 177.914062 C 78.664062 178.714844 75.839844 179.648438 73.0625 180.714844 C 70.28125 181.78125 67.558594 182.972656 64.890625 184.296875 C 62.222656 185.617188 59.621094 187.058594 57.089844 188.625 C 54.558594 190.1875 52.101562 191.867188 49.726562 193.660156 C 47.355469 195.457031 45.066406 197.355469 42.871094 199.367188 C 15.5625 225.710938 3.5 271.269531 14.804688 305.3125 C 16.234375 309.503906 17.96875 313.5625 20.011719 317.492188 C 22.050781 321.421875 24.375 325.175781 26.980469 328.757812 C 29.585938 332.339844 32.445312 335.703125 35.558594 338.855469 C 38.667969 342.007812 42 344.910156 45.546875 347.5625 C 93.503906 384.78125 160.75 394.339844 196.5625 396.730469 C 196.710938 396.730469 196.855469 396.730469 197 396.730469 C 197.703125 396.730469 198.386719 396.621094 199.054688 396.402344 C 199.722656 396.183594 200.339844 395.867188 200.90625 395.449219 C 201.472656 395.035156 201.960938 394.542969 202.367188 393.972656 C 202.777344 393.402344 203.085938 392.78125 203.296875 392.113281 C 203.507812 391.441406 203.609375 390.757812 203.601562 390.054688 C 203.59375 389.355469 203.480469 388.671875 203.253906 388.007812 C 203.027344 387.34375 202.703125 386.730469 202.28125 386.167969 C 201.859375 385.605469 201.363281 385.125 200.785156 384.722656 C 187.667969 375.546875 174.484375 366.542969 160.472656 357.1875 C 158.246094 355.957031 156.148438 354.542969 154.175781 352.9375 C 152.203125 351.332031 150.390625 349.566406 148.738281 347.636719 C 147.082031 345.707031 145.613281 343.644531 144.328125 341.453125 C 143.046875 339.257812 141.96875 336.96875 141.09375 334.582031 C 140.828125 333.515625 140.636719 332.4375 140.515625 331.34375 C 140.394531 330.25 140.347656 329.15625 140.375 328.054688 C 140.402344 326.957031 140.503906 325.863281 140.679688 324.78125 C 140.855469 323.695312 141.101562 322.625 141.417969 321.574219 C 141.738281 320.519531 142.125 319.496094 142.582031 318.492188 C 143.039062 317.492188 143.558594 316.527344 144.148438 315.597656 C 144.734375 314.667969 145.378906 313.78125 146.085938 312.9375 C 146.792969 312.09375 147.550781 311.300781 148.363281 310.5625 C 152.21875 307.546875 156.40625 305.09375 160.921875 303.199219 C 166.210938 300.933594 171.136719 298.046875 175.699219 294.539062 C 179.5625 291.277344 182.929688 287.566406 185.796875 283.402344 C 188.664062 279.238281 190.929688 274.773438 192.597656 270 C 193.398438 267.910156 194.066406 265.777344 194.601562 263.601562 C 195.140625 261.429688 195.542969 259.230469 195.808594 257.007812 C 196.074219 254.785156 196.207031 252.554688 196.199219 250.316406 C 196.195312 248.078125 196.050781 245.847656 195.769531 243.625 C 195.488281 241.402344 195.074219 239.207031 194.523438 237.039062 C 193.976562 234.867188 193.296875 232.738281 192.484375 230.652344 C 191.671875 228.5625 190.738281 226.535156 189.679688 224.5625 C 188.617188 222.589844 187.441406 220.6875 186.148438 218.859375 L 201.238281 203.789062 L 205.253906 201.046875 C 223.289062 188.761719 240.289062 175.183594 256.253906 160.3125 C 272.214844 145.441406 286.960938 129.445312 300.484375 112.332031 L 359.429688 37.734375 C 359.679688 37.417969 359.898438 37.085938 360.085938 36.730469 C 360.273438 36.375 360.425781 36.007812 360.546875 35.625 C 360.667969 35.242188 360.753906 34.851562 360.800781 34.453125 C 360.851562 34.054688 360.863281 33.65625 360.839844 33.257812 C 360.816406 32.855469 360.757812 32.460938 360.660156 32.070312 C 360.566406 31.683594 360.433594 31.304688 360.269531 30.9375 C 360.105469 30.574219 359.910156 30.222656 359.683594 29.894531 C 359.453125 29.5625 359.199219 29.257812 358.914062 28.972656 L 332.476562 2.566406 C 332.195312 2.285156 331.886719 2.027344 331.554688 1.800781 C 331.226562 1.574219 330.878906 1.378906 330.511719 1.210938 C 330.144531 1.046875 329.765625 0.917969 329.378906 0.824219 C 328.988281 0.726562 328.589844 0.667969 328.191406 0.644531 C 327.789062 0.621094 327.390625 0.632812 326.992188 0.683594 C 326.59375 0.730469 326.203125 0.816406 325.820312 0.9375 C 325.4375 1.058594 325.066406 1.210938 324.714844 1.398438 C 324.359375 1.585938 324.023438 1.804688 323.707031 2.054688 L 253.652344 57.292969 C 235.085938 71.933594 217.847656 87.992188 201.9375 105.472656 C 186.03125 122.953125 171.664062 141.621094 158.839844 161.472656 L 142.09375 178.199219 C 130.894531 175.40625 119.527344 174.136719 107.988281 174.390625 Z M 180.160156 265.550781 C 178.886719 269.199219 177.164062 272.621094 174.988281 275.816406 C 172.8125 279.007812 170.257812 281.867188 167.324219 284.386719 C 163.601562 287.175781 159.59375 289.480469 155.308594 291.304688 C 149.683594 293.6875 144.492188 296.796875 139.738281 300.640625 C 138.460938 301.78125 137.265625 303.007812 136.152344 304.316406 C 135.042969 305.621094 134.023438 306.996094 133.101562 308.445312 C 132.175781 309.890625 131.355469 311.390625 130.636719 312.949219 C 129.921875 314.507812 129.3125 316.105469 128.8125 317.746094 C 128.316406 319.390625 127.929688 321.054688 127.660156 322.75 C 127.390625 324.441406 127.234375 326.148438 127.199219 327.863281 C 127.160156 329.578125 127.238281 331.285156 127.4375 332.988281 C 127.632812 334.691406 127.945312 336.375 128.371094 338.035156 C 129.429688 341.199219 130.765625 344.238281 132.382812 347.152344 C 133.996094 350.070312 135.863281 352.816406 137.984375 355.394531 C 140.101562 357.96875 142.4375 360.332031 144.988281 362.480469 C 147.539062 364.628906 150.261719 366.527344 153.164062 368.179688 C 159.679688 372.535156 166.015625 376.808594 172.25 381.066406 C 123.792969 374.636719 82.3125 359.367188 53.675781 337.144531 C 50.644531 334.886719 47.800781 332.417969 45.140625 329.734375 C 42.480469 327.050781 40.035156 324.183594 37.808594 321.132812 C 35.578125 318.082031 33.589844 314.882812 31.839844 311.535156 C 30.089844 308.183594 28.601562 304.726562 27.375 301.152344 C 17.722656 272.105469 28.578125 231.542969 52.085938 208.832031 C 55.894531 205.386719 59.992188 202.324219 64.375 199.648438 C 68.757812 196.96875 73.355469 194.722656 78.160156 192.90625 C 82.96875 191.089844 87.902344 189.734375 92.960938 188.839844 C 98.023438 187.949219 103.121094 187.53125 108.261719 187.59375 C 119.28125 187.324219 130.117188 188.609375 140.769531 191.445312 L 141.875 192.546875 C 137.28125 192.667969 132.71875 193.097656 128.183594 193.824219 C 123.644531 194.554688 119.179688 195.582031 114.777344 196.902344 C 110.378906 198.226562 106.085938 199.832031 101.902344 201.726562 C 97.714844 203.617188 93.675781 205.777344 89.777344 208.203125 C 60.695312 227.613281 38.679688 267.328125 52.105469 300.203125 L 64.34375 295.210938 C 53.609375 268.9375 72.996094 235.289062 97.113281 219.183594 C 114.617188 207.492188 135.808594 205.484375 154.65625 205.320312 L 172.5 223.144531 C 173.777344 224.546875 174.953125 226.03125 176.023438 227.59375 C 177.09375 229.160156 178.050781 230.792969 178.890625 232.496094 C 179.730469 234.195312 180.449219 235.945312 181.042969 237.746094 C 181.636719 239.546875 182.105469 241.378906 182.441406 243.246094 C 182.777344 245.113281 182.984375 246.992188 183.054688 248.886719 C 183.128906 250.78125 183.070312 252.671875 182.875 254.558594 C 182.683594 256.445312 182.359375 258.308594 181.902344 260.152344 C 181.449219 261.992188 180.867188 263.792969 180.160156 265.550781 Z M 261.847656 67.683594 L 327.277344 16.082031 L 345.398438 34.183594 L 290.132812 104.152344 C 277.023438 120.746094 262.730469 136.253906 247.253906 150.671875 C 231.78125 165.089844 215.300781 178.257812 197.820312 190.167969 L 172.441406 164.820312 C 184.660156 146.355469 198.265625 128.980469 213.261719 112.6875 C 228.257812 96.394531 244.453125 81.394531 261.847656 67.683594 Z M 163.953125 175.03125 L 187.65625 198.707031 L 177.171875 209.175781 L 153.472656 185.503906 Z M 163.953125 175.03125 " fill-opacity="1" fill-rule="nonzero"/></g><path fill="#ffffff" d="M 60.148438 315.597656 L 69.496094 306.261719 L 82.710938 319.464844 L 73.363281 328.800781 Z M 60.148438 315.597656 " fill-opacity="1" fill-rule="nonzero"/><g clip-path="url(#id2)"><path fill="#ffffff" d="M 347.632812 383.546875 L 228.671875 383.546875 L 228.671875 396.75 L 347.632812 396.75 C 348.28125 396.75 348.929688 396.71875 349.574219 396.65625 C 350.222656 396.589844 350.863281 396.496094 351.5 396.371094 C 352.136719 396.242188 352.765625 396.085938 353.386719 395.898438 C 354.007812 395.710938 354.621094 395.492188 355.21875 395.242188 C 355.820312 394.996094 356.40625 394.71875 356.980469 394.410156 C 357.550781 394.105469 358.109375 393.773438 358.648438 393.414062 C 359.1875 393.050781 359.707031 392.667969 360.210938 392.253906 C 360.710938 391.84375 361.191406 391.40625 361.652344 390.949219 C 362.113281 390.492188 362.546875 390.011719 362.957031 389.507812 C 363.371094 389.007812 363.757812 388.488281 364.117188 387.949219 C 364.480469 387.410156 364.8125 386.851562 365.117188 386.28125 C 365.425781 385.710938 365.703125 385.125 365.949219 384.523438 C 366.199219 383.925781 366.417969 383.316406 366.605469 382.695312 C 366.792969 382.074219 366.953125 381.445312 367.078125 380.808594 C 367.207031 380.171875 367.300781 379.53125 367.363281 378.886719 C 367.425781 378.242188 367.460938 377.59375 367.460938 376.945312 C 367.460938 376.296875 367.425781 375.648438 367.363281 375.003906 C 367.300781 374.359375 367.207031 373.71875 367.078125 373.082031 C 366.953125 372.445312 366.792969 371.816406 366.605469 371.195312 C 366.417969 370.574219 366.199219 369.964844 365.949219 369.367188 C 365.703125 368.765625 365.425781 368.183594 365.117188 367.609375 C 364.8125 367.039062 364.480469 366.480469 364.117188 365.941406 C 363.757812 365.402344 363.371094 364.882812 362.957031 364.382812 C 362.546875 363.878906 362.113281 363.398438 361.652344 362.941406 C 361.191406 362.484375 360.710938 362.046875 360.210938 361.636719 C 359.707031 361.226562 359.1875 360.839844 358.648438 360.480469 C 358.109375 360.117188 357.550781 359.785156 356.980469 359.480469 C 356.40625 359.171875 355.820312 358.898438 355.21875 358.648438 C 354.621094 358.402344 354.007812 358.183594 353.386719 357.992188 C 352.765625 357.804688 352.136719 357.648438 351.5 357.523438 C 350.863281 357.394531 350.222656 357.300781 349.574219 357.238281 C 348.929688 357.171875 348.28125 357.140625 347.632812 357.140625 L 307.976562 357.140625 C 307.542969 357.140625 307.113281 357.097656 306.6875 357.015625 C 306.261719 356.929688 305.851562 356.804688 305.449219 356.636719 C 305.046875 356.472656 304.667969 356.269531 304.304688 356.027344 C 303.945312 355.789062 303.613281 355.515625 303.304688 355.207031 C 303 354.902344 302.722656 354.566406 302.484375 354.207031 C 302.242188 353.847656 302.039062 353.464844 301.871094 353.066406 C 301.707031 352.664062 301.582031 352.253906 301.496094 351.828125 C 301.410156 351.402344 301.371094 350.972656 301.371094 350.539062 C 301.371094 350.105469 301.410156 349.675781 301.496094 349.25 C 301.582031 348.828125 301.707031 348.414062 301.871094 348.011719 C 302.039062 347.613281 302.242188 347.230469 302.484375 346.871094 C 302.722656 346.511719 303 346.179688 303.304688 345.871094 C 303.613281 345.566406 303.945312 345.292969 304.304688 345.050781 C 304.667969 344.808594 305.046875 344.605469 305.449219 344.441406 C 305.851562 344.273438 306.261719 344.148438 306.6875 344.066406 C 307.113281 343.980469 307.542969 343.9375 307.976562 343.9375 L 327.804688 343.9375 C 328.453125 343.9375 329.101562 343.90625 329.75 343.84375 C 330.394531 343.777344 331.035156 343.683594 331.671875 343.558594 C 332.308594 343.429688 332.941406 343.273438 333.5625 343.085938 C 334.183594 342.898438 334.792969 342.679688 335.394531 342.429688 C 335.992188 342.183594 336.578125 341.90625 337.152344 341.597656 C 337.722656 341.292969 338.28125 340.960938 338.820312 340.601562 C 339.359375 340.238281 339.882812 339.855469 340.382812 339.441406 C 340.886719 339.03125 341.367188 338.597656 341.824219 338.136719 C 342.285156 337.679688 342.71875 337.199219 343.132812 336.699219 C 343.542969 336.195312 343.929688 335.675781 344.289062 335.136719 C 344.652344 334.597656 344.984375 334.042969 345.292969 333.46875 C 345.597656 332.898438 345.875 332.3125 346.125 331.710938 C 346.371094 331.113281 346.589844 330.503906 346.777344 329.882812 C 346.96875 329.261719 347.125 328.632812 347.25 327.996094 C 347.378906 327.359375 347.472656 326.71875 347.535156 326.074219 C 347.601562 325.429688 347.632812 324.78125 347.632812 324.132812 C 347.632812 323.484375 347.601562 322.839844 347.535156 322.191406 C 347.472656 321.546875 347.378906 320.90625 347.25 320.269531 C 347.125 319.632812 346.96875 319.003906 346.777344 318.382812 C 346.589844 317.765625 346.371094 317.152344 346.125 316.554688 C 345.875 315.957031 345.597656 315.371094 345.292969 314.796875 C 344.984375 314.226562 344.652344 313.671875 344.289062 313.128906 C 343.929688 312.589844 343.542969 312.070312 343.132812 311.570312 C 342.71875 311.070312 342.285156 310.589844 341.824219 310.128906 C 341.367188 309.671875 340.886719 309.234375 340.382812 308.824219 C 339.882812 308.414062 339.359375 308.027344 338.820312 307.667969 C 338.28125 307.304688 337.722656 306.972656 337.152344 306.667969 C 336.578125 306.363281 335.992188 306.085938 335.394531 305.835938 C 334.792969 305.589844 334.183594 305.371094 333.5625 305.183594 C 332.941406 304.992188 332.308594 304.835938 331.671875 304.710938 C 331.035156 304.582031 330.394531 304.488281 329.75 304.425781 C 329.101562 304.359375 328.453125 304.328125 327.804688 304.328125 L 225.367188 304.328125 C 224.824219 304.328125 224.285156 304.355469 223.746094 304.410156 C 223.207031 304.460938 222.671875 304.539062 222.140625 304.644531 C 221.613281 304.75 221.085938 304.882812 220.570312 305.039062 C 220.050781 305.195312 219.542969 305.378906 219.042969 305.585938 C 218.542969 305.792969 218.054688 306.023438 217.578125 306.277344 C 217.101562 306.53125 216.636719 306.808594 216.1875 307.109375 C 215.738281 307.410156 215.300781 307.730469 214.882812 308.074219 C 214.464844 308.417969 214.066406 308.78125 213.683594 309.164062 C 213.300781 309.546875 212.9375 309.945312 212.59375 310.363281 C 212.25 310.78125 211.929688 311.214844 211.628906 311.664062 C 211.328125 312.113281 211.050781 312.578125 210.792969 313.054688 C 210.539062 313.53125 210.308594 314.019531 210.101562 314.515625 C 209.894531 315.015625 209.710938 315.523438 209.554688 316.042969 C 209.398438 316.558594 209.265625 317.082031 209.160156 317.613281 C 209.054688 318.144531 208.976562 318.675781 208.921875 319.214844 C 208.871094 319.753906 208.84375 320.292969 208.84375 320.832031 C 208.84375 321.269531 208.757812 321.691406 208.589844 322.097656 C 208.425781 322.5 208.183594 322.855469 207.875 323.167969 C 207.566406 323.476562 207.207031 323.714844 206.804688 323.882812 C 206.398438 324.050781 205.976562 324.132812 205.539062 324.132812 L 179.101562 324.132812 C 178.5625 324.132812 178.023438 324.160156 177.484375 324.214844 C 176.945312 324.265625 176.410156 324.34375 175.878906 324.449219 C 175.347656 324.554688 174.824219 324.6875 174.304688 324.84375 C 173.789062 325 173.28125 325.183594 172.78125 325.390625 C 172.28125 325.597656 171.792969 325.828125 171.3125 326.082031 C 170.835938 326.335938 170.375 326.613281 169.921875 326.914062 C 169.472656 327.214844 169.039062 327.535156 168.621094 327.878906 C 168.203125 328.222656 167.800781 328.585938 167.417969 328.96875 C 167.035156 329.351562 166.675781 329.75 166.332031 330.167969 C 165.988281 330.585938 165.664062 331.019531 165.363281 331.46875 C 165.0625 331.917969 164.785156 332.382812 164.53125 332.859375 C 164.277344 333.335938 164.046875 333.824219 163.839844 334.320312 C 163.632812 334.820312 163.449219 335.328125 163.292969 335.847656 C 163.132812 336.363281 163.003906 336.886719 162.898438 337.417969 C 162.792969 337.949219 162.714844 338.480469 162.660156 339.019531 C 162.605469 339.558594 162.582031 340.097656 162.582031 340.636719 L 162.582031 350.539062 L 175.796875 350.539062 L 175.796875 340.636719 C 175.796875 340.199219 175.882812 339.777344 176.050781 339.375 C 176.21875 338.96875 176.457031 338.613281 176.765625 338.304688 C 177.074219 337.992188 177.433594 337.753906 177.839844 337.585938 C 178.242188 337.421875 178.664062 337.335938 179.101562 337.335938 L 205.539062 337.335938 C 206.078125 337.335938 206.621094 337.308594 207.160156 337.257812 C 207.695312 337.203125 208.230469 337.125 208.761719 337.019531 C 209.292969 336.914062 209.816406 336.78125 210.335938 336.625 C 210.851562 336.46875 211.363281 336.289062 211.863281 336.082031 C 212.363281 335.875 212.851562 335.644531 213.328125 335.386719 C 213.804688 335.132812 214.269531 334.855469 214.71875 334.554688 C 215.167969 334.253906 215.601562 333.933594 216.019531 333.589844 C 216.4375 333.246094 216.839844 332.886719 217.222656 332.503906 C 217.605469 332.121094 217.96875 331.71875 218.3125 331.300781 C 218.652344 330.886719 218.976562 330.453125 219.277344 330 C 219.578125 329.550781 219.855469 329.089844 220.109375 328.613281 C 220.367188 328.136719 220.597656 327.648438 220.804688 327.148438 C 221.011719 326.648438 221.191406 326.140625 221.351562 325.625 C 221.507812 325.105469 221.636719 324.582031 221.742188 324.050781 C 221.847656 323.523438 221.929688 322.988281 221.980469 322.449219 C 222.035156 321.914062 222.0625 321.375 222.0625 320.832031 C 222.0625 320.394531 222.144531 319.972656 222.3125 319.570312 C 222.480469 319.164062 222.71875 318.808594 223.027344 318.5 C 223.339844 318.1875 223.695312 317.949219 224.101562 317.785156 C 224.507812 317.617188 224.925781 317.53125 225.367188 317.53125 L 327.804688 317.53125 C 328.238281 317.53125 328.667969 317.574219 329.09375 317.660156 C 329.519531 317.742188 329.933594 317.867188 330.335938 318.035156 C 330.734375 318.199219 331.117188 318.402344 331.476562 318.644531 C 331.839844 318.886719 332.171875 319.160156 332.480469 319.464844 C 332.785156 319.773438 333.058594 320.105469 333.300781 320.464844 C 333.542969 320.828125 333.746094 321.207031 333.910156 321.605469 C 334.078125 322.007812 334.203125 322.421875 334.289062 322.84375 C 334.371094 323.269531 334.414062 323.699219 334.414062 324.132812 C 334.414062 324.566406 334.371094 324.996094 334.289062 325.421875 C 334.203125 325.847656 334.078125 326.257812 333.910156 326.660156 C 333.746094 327.058594 333.542969 327.441406 333.300781 327.800781 C 333.058594 328.160156 332.785156 328.496094 332.480469 328.800781 C 332.171875 329.109375 331.839844 329.382812 331.476562 329.621094 C 331.117188 329.863281 330.734375 330.066406 330.335938 330.234375 C 329.933594 330.398438 329.519531 330.523438 329.09375 330.609375 C 328.667969 330.691406 328.238281 330.734375 327.804688 330.734375 L 307.976562 330.734375 C 307.328125 330.734375 306.679688 330.765625 306.035156 330.832031 C 305.390625 330.894531 304.746094 330.988281 304.109375 331.117188 C 303.472656 331.242188 302.84375 331.398438 302.222656 331.589844 C 301.601562 331.777344 300.992188 331.996094 300.390625 332.242188 C 299.789062 332.492188 299.203125 332.769531 298.632812 333.074219 C 298.058594 333.378906 297.503906 333.710938 296.964844 334.074219 C 296.421875 334.433594 295.902344 334.820312 295.398438 335.230469 C 294.898438 335.640625 294.417969 336.078125 293.957031 336.535156 C 293.5 336.996094 293.0625 337.472656 292.652344 337.976562 C 292.238281 338.476562 291.855469 338.996094 291.492188 339.535156 C 291.132812 340.074219 290.796875 340.632812 290.492188 341.203125 C 290.1875 341.777344 289.910156 342.363281 289.660156 342.960938 C 289.414062 343.558594 289.195312 344.171875 289.003906 344.789062 C 288.816406 345.410156 288.660156 346.039062 288.53125 346.675781 C 288.40625 347.3125 288.3125 347.953125 288.246094 348.597656 C 288.183594 349.242188 288.152344 349.890625 288.152344 350.539062 C 288.152344 351.1875 288.183594 351.835938 288.246094 352.480469 C 288.3125 353.125 288.40625 353.765625 288.53125 354.402344 C 288.660156 355.039062 288.816406 355.667969 289.003906 356.289062 C 289.195312 356.910156 289.414062 357.519531 289.660156 358.117188 C 289.910156 358.71875 290.1875 359.304688 290.492188 359.875 C 290.796875 360.449219 291.132812 361.003906 291.492188 361.542969 C 291.855469 362.082031 292.238281 362.601562 292.652344 363.101562 C 293.0625 363.605469 293.5 364.085938 293.957031 364.542969 C 294.417969 365.003906 294.898438 365.4375 295.398438 365.847656 C 295.902344 366.261719 296.421875 366.644531 296.964844 367.007812 C 297.503906 367.367188 298.058594 367.699219 298.632812 368.003906 C 299.203125 368.3125 299.789062 368.589844 300.390625 368.835938 C 300.992188 369.085938 301.601562 369.304688 302.222656 369.492188 C 302.84375 369.679688 303.472656 369.835938 304.109375 369.964844 C 304.746094 370.089844 305.390625 370.183594 306.035156 370.25 C 306.679688 370.3125 307.328125 370.34375 307.976562 370.34375 L 347.632812 370.34375 C 348.066406 370.34375 348.496094 370.386719 348.921875 370.472656 C 349.347656 370.554688 349.761719 370.679688 350.160156 370.847656 C 350.5625 371.011719 350.941406 371.214844 351.304688 371.457031 C 351.664062 371.699219 352 371.972656 352.304688 372.277344 C 352.613281 372.585938 352.886719 372.917969 353.128906 373.277344 C 353.367188 373.636719 353.570312 374.019531 353.738281 374.417969 C 353.90625 374.820312 354.03125 375.234375 354.113281 375.65625 C 354.199219 376.082031 354.242188 376.511719 354.242188 376.945312 C 354.242188 377.378906 354.199219 377.808594 354.113281 378.234375 C 354.03125 378.660156 353.90625 379.070312 353.738281 379.472656 C 353.570312 379.871094 353.367188 380.253906 353.128906 380.613281 C 352.886719 380.972656 352.613281 381.308594 352.304688 381.613281 C 352 381.921875 351.664062 382.195312 351.304688 382.433594 C 350.941406 382.675781 350.5625 382.878906 350.160156 383.042969 C 349.761719 383.210938 349.347656 383.335938 348.921875 383.421875 C 348.496094 383.503906 348.066406 383.546875 347.632812 383.546875 Z M 347.632812 383.546875 " fill-opacity="1" fill-rule="nonzero"/></g><g clip-path="url(#id3)"><path fill="#ffffff" d="M 354.242188 324.132812 C 354.242188 324.78125 354.273438 325.429688 354.335938 326.074219 C 354.402344 326.71875 354.496094 327.359375 354.621094 327.996094 C 354.75 328.632812 354.90625 329.261719 355.09375 329.882812 C 355.285156 330.503906 355.503906 331.113281 355.75 331.710938 C 356 332.3125 356.277344 332.898438 356.582031 333.46875 C 356.886719 334.042969 357.222656 334.597656 357.582031 335.136719 C 357.945312 335.675781 358.328125 336.195312 358.742188 336.699219 C 359.152344 337.199219 359.589844 337.679688 360.046875 338.136719 C 360.507812 338.597656 360.988281 339.03125 361.492188 339.441406 C 361.992188 339.855469 362.511719 340.238281 363.054688 340.601562 C 363.59375 340.960938 364.148438 341.292969 364.722656 341.597656 C 365.292969 341.90625 365.882812 342.183594 366.480469 342.429688 C 367.082031 342.679688 367.691406 342.898438 368.3125 343.085938 C 368.933594 343.273438 369.5625 343.429688 370.199219 343.558594 C 370.835938 343.683594 371.480469 343.777344 372.125 343.84375 C 372.769531 343.90625 373.417969 343.9375 374.070312 343.9375 C 374.71875 343.9375 375.367188 343.90625 376.011719 343.84375 C 376.65625 343.777344 377.300781 343.683594 377.9375 343.558594 C 378.574219 343.429688 379.203125 343.273438 379.824219 343.085938 C 380.445312 342.898438 381.054688 342.679688 381.65625 342.429688 C 382.253906 342.183594 382.84375 341.90625 383.414062 341.597656 C 383.988281 341.292969 384.542969 340.960938 385.082031 340.601562 C 385.625 340.238281 386.144531 339.855469 386.648438 339.441406 C 387.148438 339.03125 387.628906 338.597656 388.089844 338.136719 C 388.546875 337.679688 388.984375 337.199219 389.394531 336.699219 C 389.808594 336.195312 390.191406 335.675781 390.554688 335.136719 C 390.914062 334.597656 391.25 334.042969 391.554688 333.46875 C 391.859375 332.898438 392.136719 332.3125 392.386719 331.710938 C 392.632812 331.113281 392.851562 330.503906 393.042969 329.882812 C 393.230469 329.261719 393.386719 328.632812 393.515625 327.996094 C 393.640625 327.359375 393.738281 326.71875 393.800781 326.074219 C 393.863281 325.429688 393.894531 324.78125 393.894531 324.132812 C 393.894531 323.484375 393.863281 322.839844 393.800781 322.191406 C 393.738281 321.546875 393.640625 320.90625 393.515625 320.269531 C 393.386719 319.632812 393.230469 319.003906 393.042969 318.382812 C 392.851562 317.765625 392.632812 317.152344 392.386719 316.554688 C 392.136719 315.957031 391.859375 315.371094 391.554688 314.796875 C 391.25 314.226562 390.914062 313.671875 390.554688 313.128906 C 390.191406 312.589844 389.808594 312.070312 389.394531 311.570312 C 388.984375 311.070312 388.546875 310.589844 388.089844 310.128906 C 387.628906 309.671875 387.148438 309.234375 386.648438 308.824219 C 386.144531 308.414062 385.625 308.027344 385.082031 307.667969 C 384.542969 307.304688 383.988281 306.972656 383.414062 306.667969 C 382.84375 306.363281 382.253906 306.085938 381.65625 305.835938 C 381.054688 305.589844 380.445312 305.371094 379.824219 305.183594 C 379.203125 304.992188 378.574219 304.835938 377.9375 304.710938 C 377.300781 304.582031 376.65625 304.488281 376.011719 304.425781 C 375.367188 304.359375 374.71875 304.328125 374.070312 304.328125 C 373.417969 304.328125 372.769531 304.359375 372.125 304.425781 C 371.480469 304.488281 370.835938 304.582031 370.199219 304.710938 C 369.5625 304.835938 368.933594 304.992188 368.3125 305.183594 C 367.691406 305.371094 367.082031 305.589844 366.480469 305.835938 C 365.882812 306.085938 365.292969 306.363281 364.722656 306.667969 C 364.148438 306.972656 363.59375 307.304688 363.054688 307.667969 C 362.511719 308.027344 361.992188 308.414062 361.492188 308.824219 C 360.988281 309.234375 360.507812 309.671875 360.046875 310.128906 C 359.589844 310.589844 359.152344 311.070312 358.742188 311.570312 C 358.328125 312.070312 357.945312 312.589844 357.582031 313.128906 C 357.222656 313.671875 356.890625 314.226562 356.582031 314.796875 C 356.277344 315.371094 356 315.957031 355.75 316.554688 C 355.503906 317.152344 355.285156 317.765625 355.09375 318.382812 C 354.90625 319.003906 354.75 319.632812 354.621094 320.269531 C 354.496094 320.90625 354.402344 321.546875 354.335938 322.191406 C 354.273438 322.839844 354.242188 323.484375 354.242188 324.132812 Z M 374.070312 317.53125 C 374.503906 317.53125 374.933594 317.574219 375.359375 317.660156 C 375.785156 317.742188 376.195312 317.867188 376.597656 318.035156 C 377 318.199219 377.378906 318.402344 377.738281 318.644531 C 378.101562 318.886719 378.433594 319.160156 378.742188 319.464844 C 379.046875 319.773438 379.324219 320.105469 379.5625 320.464844 C 379.804688 320.828125 380.007812 321.207031 380.175781 321.605469 C 380.339844 322.007812 380.464844 322.421875 380.550781 322.84375 C 380.636719 323.269531 380.675781 323.699219 380.675781 324.132812 C 380.675781 324.566406 380.636719 324.996094 380.550781 325.421875 C 380.464844 325.847656 380.339844 326.257812 380.175781 326.660156 C 380.007812 327.058594 379.804688 327.441406 379.5625 327.800781 C 379.324219 328.160156 379.046875 328.496094 378.742188 328.800781 C 378.433594 329.109375 378.101562 329.382812 377.738281 329.621094 C 377.378906 329.863281 377 330.066406 376.597656 330.234375 C 376.195312 330.398438 375.785156 330.523438 375.359375 330.609375 C 374.933594 330.691406 374.503906 330.734375 374.070312 330.734375 C 373.632812 330.734375 373.203125 330.691406 372.777344 330.609375 C 372.351562 330.523438 371.941406 330.398438 371.539062 330.234375 C 371.136719 330.066406 370.757812 329.863281 370.398438 329.621094 C 370.035156 329.382812 369.703125 329.109375 369.394531 328.800781 C 369.089844 328.496094 368.8125 328.160156 368.574219 327.800781 C 368.332031 327.441406 368.128906 327.058594 367.960938 326.660156 C 367.796875 326.257812 367.671875 325.847656 367.585938 325.421875 C 367.5 324.996094 367.460938 324.566406 367.460938 324.132812 C 367.460938 323.699219 367.5 323.269531 367.585938 322.84375 C 367.671875 322.421875 367.796875 322.007812 367.960938 321.605469 C 368.128906 321.207031 368.332031 320.828125 368.574219 320.464844 C 368.8125 320.105469 369.089844 319.773438 369.394531 319.464844 C 369.703125 319.160156 370.035156 318.886719 370.398438 318.644531 C 370.757812 318.402344 371.136719 318.199219 371.539062 318.035156 C 371.941406 317.867188 372.351562 317.742188 372.777344 317.660156 C 373.203125 317.574219 373.632812 317.53125 374.070312 317.53125 Z M 374.070312 317.53125 " fill-opacity="1" fill-rule="nonzero"/></g><path fill="#ffffff" d="M 327.804688 271.320312 C 327.804688 271.96875 327.835938 272.617188 327.902344 273.261719 C 327.964844 273.910156 328.058594 274.550781 328.1875 275.183594 C 328.3125 275.820312 328.46875 276.449219 328.660156 277.070312 C 328.847656 277.691406 329.066406 278.300781 329.316406 278.902344 C 329.5625 279.5 329.839844 280.085938 330.148438 280.65625 C 330.453125 281.230469 330.785156 281.785156 331.148438 282.324219 C 331.507812 282.863281 331.894531 283.382812 332.304688 283.886719 C 332.71875 284.386719 333.152344 284.867188 333.613281 285.324219 C 334.070312 285.785156 334.550781 286.21875 335.054688 286.628906 C 335.554688 287.042969 336.078125 287.429688 336.617188 287.789062 C 337.15625 288.148438 337.714844 288.480469 338.285156 288.789062 C 338.859375 289.09375 339.445312 289.371094 340.046875 289.617188 C 340.644531 289.867188 341.253906 290.085938 341.875 290.273438 C 342.5 290.460938 343.128906 290.617188 343.765625 290.746094 C 344.402344 290.871094 345.042969 290.96875 345.6875 291.03125 C 346.335938 291.09375 346.984375 291.125 347.632812 291.125 C 348.28125 291.125 348.929688 291.09375 349.574219 291.03125 C 350.222656 290.96875 350.863281 290.871094 351.5 290.746094 C 352.136719 290.617188 352.765625 290.460938 353.386719 290.273438 C 354.007812 290.085938 354.621094 289.867188 355.21875 289.617188 C 355.820312 289.371094 356.40625 289.09375 356.980469 288.789062 C 357.550781 288.480469 358.109375 288.148438 358.648438 287.789062 C 359.1875 287.429688 359.707031 287.042969 360.210938 286.628906 C 360.710938 286.21875 361.191406 285.785156 361.652344 285.324219 C 362.113281 284.867188 362.546875 284.386719 362.957031 283.886719 C 363.371094 283.382812 363.757812 282.863281 364.117188 282.324219 C 364.480469 281.785156 364.8125 281.230469 365.117188 280.65625 C 365.425781 280.085938 365.703125 279.5 365.949219 278.902344 C 366.199219 278.300781 366.417969 277.691406 366.605469 277.070312 C 366.792969 276.449219 366.953125 275.820312 367.078125 275.183594 C 367.207031 274.550781 367.300781 273.910156 367.363281 273.261719 C 367.425781 272.617188 367.460938 271.96875 367.460938 271.320312 C 367.460938 270.671875 367.425781 270.027344 367.363281 269.378906 C 367.300781 268.734375 367.207031 268.09375 367.078125 267.457031 C 366.953125 266.820312 366.792969 266.195312 366.605469 265.574219 C 366.417969 264.953125 366.199219 264.34375 365.949219 263.742188 C 365.703125 263.144531 365.425781 262.558594 365.117188 261.984375 C 364.8125 261.414062 364.480469 260.859375 364.117188 260.320312 C 363.757812 259.78125 363.371094 259.257812 362.957031 258.757812 C 362.546875 258.257812 362.113281 257.777344 361.652344 257.316406 C 361.191406 256.859375 360.710938 256.425781 360.210938 256.011719 C 359.707031 255.601562 359.1875 255.214844 358.648438 254.855469 C 358.109375 254.496094 357.550781 254.160156 356.980469 253.855469 C 356.40625 253.550781 355.820312 253.273438 355.21875 253.023438 C 354.621094 252.777344 354.007812 252.558594 353.386719 252.371094 C 352.765625 252.179688 352.136719 252.023438 351.5 251.898438 C 350.863281 251.769531 350.222656 251.675781 349.574219 251.613281 C 348.929688 251.550781 348.28125 251.515625 347.632812 251.515625 C 346.984375 251.515625 346.335938 251.550781 345.6875 251.613281 C 345.042969 251.675781 344.402344 251.769531 343.765625 251.898438 C 343.128906 252.023438 342.5 252.183594 341.875 252.371094 C 341.253906 252.558594 340.644531 252.777344 340.046875 253.023438 C 339.445312 253.273438 338.859375 253.550781 338.285156 253.855469 C 337.714844 254.160156 337.15625 254.496094 336.617188 254.855469 C 336.078125 255.214844 335.554688 255.601562 335.054688 256.011719 C 334.550781 256.425781 334.070312 256.859375 333.613281 257.316406 C 333.152344 257.777344 332.71875 258.257812 332.304688 258.757812 C 331.894531 259.257812 331.507812 259.78125 331.148438 260.320312 C 330.785156 260.859375 330.453125 261.414062 330.148438 261.984375 C 329.839844 262.558594 329.5625 263.144531 329.316406 263.742188 C 329.066406 264.34375 328.847656 264.953125 328.660156 265.574219 C 328.46875 266.195312 328.3125 266.820312 328.1875 267.457031 C 328.058594 268.09375 327.964844 268.734375 327.902344 269.378906 C 327.835938 270.027344 327.804688 270.671875 327.804688 271.320312 Z M 354.242188 271.320312 C 354.242188 271.753906 354.199219 272.183594 354.113281 272.609375 C 354.03125 273.035156 353.90625 273.449219 353.738281 273.847656 C 353.570312 274.25 353.367188 274.628906 353.128906 274.988281 C 352.886719 275.351562 352.613281 275.683594 352.304688 275.988281 C 352 276.296875 351.664062 276.570312 351.304688 276.8125 C 350.941406 277.050781 350.5625 277.253906 350.160156 277.421875 C 349.761719 277.585938 349.347656 277.710938 348.921875 277.796875 C 348.496094 277.878906 348.066406 277.921875 347.632812 277.921875 C 347.199219 277.921875 346.769531 277.878906 346.34375 277.796875 C 345.917969 277.710938 345.503906 277.585938 345.101562 277.421875 C 344.703125 277.253906 344.320312 277.050781 343.960938 276.8125 C 343.601562 276.570312 343.265625 276.296875 342.960938 275.988281 C 342.652344 275.683594 342.378906 275.351562 342.136719 274.988281 C 341.894531 274.628906 341.691406 274.25 341.527344 273.847656 C 341.359375 273.449219 341.234375 273.035156 341.148438 272.609375 C 341.066406 272.183594 341.023438 271.753906 341.023438 271.320312 C 341.023438 270.886719 341.066406 270.457031 341.148438 270.035156 C 341.234375 269.609375 341.359375 269.195312 341.527344 268.796875 C 341.691406 268.394531 341.894531 268.015625 342.136719 267.652344 C 342.378906 267.292969 342.652344 266.960938 342.960938 266.652344 C 343.265625 266.347656 343.601562 266.074219 343.960938 265.832031 C 344.320312 265.59375 344.703125 265.386719 345.101562 265.222656 C 345.503906 265.058594 345.917969 264.929688 346.34375 264.847656 C 346.769531 264.761719 347.199219 264.71875 347.632812 264.71875 C 348.066406 264.71875 348.496094 264.761719 348.921875 264.847656 C 349.347656 264.929688 349.761719 265.058594 350.160156 265.222656 C 350.5625 265.386719 350.941406 265.59375 351.304688 265.832031 C 351.664062 266.074219 352 266.347656 352.304688 266.652344 C 352.613281 266.960938 352.886719 267.292969 353.128906 267.652344 C 353.367188 268.015625 353.570312 268.394531 353.738281 268.796875 C 353.90625 269.195312 354.03125 269.609375 354.113281 270.035156 C 354.199219 270.457031 354.242188 270.886719 354.242188 271.320312 Z M 354.242188 271.320312 " fill-opacity="1" fill-rule="nonzero"/><path fill="#ffffff" d="M 228.671875 291.125 L 294.761719 291.125 C 295.410156 291.125 296.058594 291.09375 296.703125 291.03125 C 297.351562 290.96875 297.992188 290.871094 298.628906 290.746094 C 299.265625 290.617188 299.894531 290.460938 300.515625 290.273438 C 301.136719 290.085938 301.746094 289.867188 302.347656 289.617188 C 302.949219 289.371094 303.535156 289.09375 304.105469 288.789062 C 304.679688 288.480469 305.234375 288.148438 305.777344 287.789062 C 306.316406 287.429688 306.835938 287.042969 307.339844 286.628906 C 307.839844 286.21875 308.320312 285.785156 308.78125 285.324219 C 309.238281 284.867188 309.675781 284.386719 310.085938 283.886719 C 310.5 283.382812 310.886719 282.863281 311.246094 282.324219 C 311.605469 281.785156 311.941406 281.230469 312.246094 280.65625 C 312.550781 280.085938 312.828125 279.5 313.078125 278.902344 C 313.328125 278.300781 313.546875 277.691406 313.734375 277.070312 C 313.921875 276.449219 314.078125 275.820312 314.207031 275.183594 C 314.332031 274.550781 314.429688 273.910156 314.492188 273.261719 C 314.554688 272.617188 314.585938 271.96875 314.585938 271.320312 C 314.585938 270.671875 314.554688 270.027344 314.492188 269.378906 C 314.429688 268.734375 314.332031 268.09375 314.207031 267.457031 C 314.078125 266.820312 313.921875 266.195312 313.734375 265.574219 C 313.546875 264.953125 313.328125 264.34375 313.078125 263.742188 C 312.828125 263.144531 312.550781 262.558594 312.246094 261.984375 C 311.941406 261.414062 311.605469 260.859375 311.246094 260.320312 C 310.886719 259.78125 310.5 259.257812 310.085938 258.757812 C 309.675781 258.257812 309.238281 257.777344 308.78125 257.316406 C 308.320312 256.859375 307.839844 256.425781 307.339844 256.011719 C 306.835938 255.601562 306.316406 255.214844 305.777344 254.855469 C 305.234375 254.496094 304.679688 254.160156 304.105469 253.855469 C 303.535156 253.550781 302.949219 253.273438 302.347656 253.023438 C 301.746094 252.777344 301.136719 252.558594 300.515625 252.371094 C 299.894531 252.179688 299.265625 252.023438 298.628906 251.898438 C 297.992188 251.769531 297.351562 251.675781 296.703125 251.613281 C 296.058594 251.550781 295.410156 251.515625 294.761719 251.515625 L 228.671875 251.515625 C 228.019531 251.515625 227.375 251.550781 226.726562 251.613281 C 226.082031 251.675781 225.4375 251.769531 224.800781 251.898438 C 224.164062 252.023438 223.535156 252.179688 222.914062 252.371094 C 222.292969 252.558594 221.683594 252.777344 221.082031 253.023438 C 220.484375 253.273438 219.898438 253.550781 219.324219 253.855469 C 218.75 254.160156 218.195312 254.496094 217.65625 254.855469 C 217.113281 255.214844 216.59375 255.601562 216.09375 256.011719 C 215.589844 256.425781 215.109375 256.859375 214.652344 257.316406 C 214.191406 257.777344 213.753906 258.257812 213.34375 258.757812 C 212.933594 259.257812 212.546875 259.78125 212.183594 260.320312 C 211.824219 260.859375 211.492188 261.414062 211.183594 261.984375 C 210.878906 262.558594 210.601562 263.144531 210.351562 263.742188 C 210.105469 264.34375 209.886719 264.953125 209.695312 265.574219 C 209.507812 266.195312 209.351562 266.820312 209.222656 267.457031 C 209.097656 268.09375 209.003906 268.734375 208.9375 269.378906 C 208.875 270.027344 208.84375 270.671875 208.84375 271.320312 C 208.84375 271.96875 208.875 272.617188 208.9375 273.261719 C 209.003906 273.910156 209.097656 274.550781 209.222656 275.183594 C 209.351562 275.820312 209.507812 276.449219 209.695312 277.070312 C 209.886719 277.691406 210.105469 278.300781 210.351562 278.902344 C 210.601562 279.5 210.878906 280.085938 211.183594 280.65625 C 211.492188 281.230469 211.824219 281.785156 212.183594 282.324219 C 212.546875 282.863281 212.933594 283.382812 213.34375 283.886719 C 213.753906 284.386719 214.191406 284.867188 214.652344 285.324219 C 215.109375 285.785156 215.589844 286.21875 216.09375 286.628906 C 216.59375 287.042969 217.113281 287.429688 217.65625 287.789062 C 218.195312 288.148438 218.75 288.480469 219.324219 288.789062 C 219.898438 289.09375 220.484375 289.371094 221.082031 289.617188 C 221.683594 289.867188 222.292969 290.085938 222.914062 290.273438 C 223.535156 290.460938 224.164062 290.617188 224.800781 290.746094 C 225.4375 290.871094 226.082031 290.96875 226.726562 291.03125 C 227.375 291.09375 228.019531 291.125 228.671875 291.125 Z M 228.671875 264.71875 L 294.761719 264.71875 C 295.195312 264.71875 295.625 264.761719 296.050781 264.847656 C 296.476562 264.929688 296.886719 265.058594 297.289062 265.222656 C 297.691406 265.386719 298.070312 265.59375 298.433594 265.832031 C 298.792969 266.074219 299.125 266.347656 299.433594 266.652344 C 299.742188 266.960938 300.015625 267.292969 300.253906 267.652344 C 300.496094 268.015625 300.699219 268.394531 300.867188 268.796875 C 301.03125 269.195312 301.15625 269.609375 301.242188 270.035156 C 301.328125 270.457031 301.371094 270.886719 301.371094 271.320312 C 301.371094 271.753906 301.328125 272.183594 301.242188 272.609375 C 301.15625 273.035156 301.03125 273.449219 300.867188 273.847656 C 300.699219 274.25 300.496094 274.628906 300.253906 274.988281 C 300.015625 275.351562 299.742188 275.683594 299.433594 275.988281 C 299.125 276.296875 298.792969 276.570312 298.433594 276.8125 C 298.070312 277.050781 297.691406 277.253906 297.289062 277.421875 C 296.886719 277.585938 296.476562 277.710938 296.050781 277.796875 C 295.625 277.878906 295.195312 277.921875 294.761719 277.921875 L 228.671875 277.921875 C 228.238281 277.921875 227.804688 277.878906 227.382812 277.796875 C 226.957031 277.710938 226.542969 277.585938 226.140625 277.421875 C 225.742188 277.253906 225.359375 277.050781 225 276.8125 C 224.636719 276.570312 224.304688 276.296875 223.996094 275.988281 C 223.691406 275.683594 223.417969 275.351562 223.175781 274.988281 C 222.933594 274.628906 222.730469 274.25 222.5625 273.847656 C 222.398438 273.449219 222.273438 273.035156 222.1875 272.609375 C 222.105469 272.183594 222.0625 271.753906 222.0625 271.320312 C 222.0625 270.886719 222.105469 270.457031 222.1875 270.035156 C 222.273438 269.609375 222.398438 269.195312 222.5625 268.796875 C 222.730469 268.394531 222.933594 268.015625 223.175781 267.652344 C 223.417969 267.292969 223.691406 266.960938 223.996094 266.652344 C 224.304688 266.347656 224.636719 266.074219 225 265.832031 C 225.359375 265.59375 225.742188 265.386719 226.140625 265.222656 C 226.542969 265.058594 226.957031 264.929688 227.382812 264.847656 C 227.804688 264.761719 228.238281 264.71875 228.671875 264.71875 Z M 228.671875 264.71875 " fill-opacity="1" fill-rule="nonzero"/><g clip-path="url(#id4)"><path fill="#ffffff" d="M 13.9375 134.589844 L 30.710938 137.488281 L 33.242188 161.539062 C 33.300781 162.160156 33.410156 162.769531 33.566406 163.371094 C 33.722656 163.976562 33.925781 164.5625 34.171875 165.132812 C 34.421875 165.707031 34.714844 166.253906 35.046875 166.777344 C 35.382812 167.304688 35.757812 167.800781 36.167969 168.265625 C 36.582031 168.734375 37.03125 169.164062 37.511719 169.5625 C 37.992188 169.957031 38.5 170.3125 39.035156 170.632812 C 39.574219 170.949219 40.132812 171.21875 40.710938 171.449219 C 41.292969 171.679688 41.886719 171.859375 42.496094 171.996094 C 43.414062 172.203125 44.34375 172.304688 45.285156 172.300781 C 46.304688 172.300781 47.304688 172.171875 48.292969 171.914062 C 49.277344 171.65625 50.214844 171.277344 51.105469 170.777344 C 51.992188 170.273438 52.800781 169.671875 53.535156 168.960938 C 54.265625 168.25 54.894531 167.460938 55.421875 166.589844 L 69.148438 144.402344 L 94.546875 150.429688 C 95.152344 150.574219 95.769531 150.667969 96.390625 150.71875 C 97.011719 150.765625 97.632812 150.765625 98.253906 150.71875 C 98.875 150.671875 99.488281 150.578125 100.097656 150.433594 C 100.703125 150.289062 101.296875 150.101562 101.871094 149.867188 C 102.449219 149.628906 103.003906 149.351562 103.539062 149.03125 C 104.074219 148.707031 104.578125 148.347656 105.058594 147.949219 C 105.535156 147.546875 105.980469 147.113281 106.386719 146.644531 C 106.796875 146.175781 107.167969 145.675781 107.503906 145.148438 C 107.835938 144.621094 108.125 144.074219 108.371094 143.5 C 108.617188 142.929688 108.820312 142.34375 108.972656 141.738281 C 109.128906 141.136719 109.238281 140.523438 109.296875 139.90625 C 109.359375 139.285156 109.371094 138.664062 109.332031 138.042969 C 109.296875 137.421875 109.210938 136.804688 109.078125 136.195312 C 108.945312 135.589844 108.769531 134.992188 108.542969 134.414062 C 108.320312 133.832031 108.050781 133.273438 107.738281 132.734375 C 107.425781 132.195312 107.074219 131.683594 106.679688 131.199219 L 91.480469 112.390625 L 101.308594 98.527344 C 101.679688 98 102.011719 97.445312 102.292969 96.863281 C 102.578125 96.28125 102.8125 95.683594 103 95.0625 C 103.183594 94.445312 103.320312 93.816406 103.40625 93.175781 C 103.492188 92.535156 103.523438 91.890625 103.503906 91.242188 C 103.484375 90.597656 103.414062 89.957031 103.292969 89.324219 C 103.167969 88.6875 102.996094 88.066406 102.773438 87.460938 C 102.550781 86.855469 102.28125 86.269531 101.964844 85.707031 C 101.644531 85.140625 101.285156 84.609375 100.882812 84.101562 C 100.476562 83.597656 100.035156 83.128906 99.558594 82.695312 C 99.078125 82.261719 98.566406 81.867188 98.023438 81.515625 C 97.480469 81.164062 96.910156 80.859375 96.320312 80.597656 C 95.726562 80.339844 95.117188 80.128906 94.492188 79.964844 C 93.863281 79.804688 93.230469 79.695312 92.585938 79.632812 C 91.941406 79.574219 91.296875 79.566406 90.648438 79.613281 C 90.003906 79.65625 89.367188 79.753906 88.738281 79.902344 C 88.105469 80.046875 87.492188 80.246094 86.894531 80.492188 L 68.136719 88.222656 L 49.929688 68.503906 C 49.097656 67.601562 48.144531 66.84375 47.078125 66.230469 C 46.011719 65.617188 44.878906 65.179688 43.679688 64.917969 C 42.476562 64.652344 41.265625 64.574219 40.039062 64.679688 C 38.8125 64.789062 37.632812 65.078125 36.496094 65.546875 C 35.359375 66.015625 34.320312 66.644531 33.375 67.433594 C 32.433594 68.222656 31.628906 69.132812 30.964844 70.167969 C 30.304688 71.203125 29.808594 72.3125 29.488281 73.5 C 29.167969 74.683594 29.03125 75.890625 29.078125 77.117188 L 30.128906 103.921875 L 11.398438 111.65625 C 10.800781 111.90625 10.226562 112.199219 9.675781 112.535156 C 9.125 112.875 8.605469 113.257812 8.113281 113.679688 C 7.625 114.105469 7.171875 114.5625 6.757812 115.058594 C 6.34375 115.554688 5.96875 116.082031 5.640625 116.640625 C 5.308594 117.195312 5.027344 117.773438 4.789062 118.375 C 4.554688 118.980469 4.367188 119.597656 4.230469 120.226562 C 4.09375 120.859375 4.011719 121.5 3.976562 122.144531 C 3.945312 122.789062 3.964844 123.433594 4.035156 124.078125 C 4.105469 124.71875 4.226562 125.351562 4.402344 125.976562 C 4.574219 126.597656 4.796875 127.203125 5.070312 127.792969 C 5.339844 128.378906 5.65625 128.941406 6.019531 129.476562 C 6.382812 130.011719 6.785156 130.515625 7.226562 130.988281 C 7.671875 131.457031 8.148438 131.890625 8.664062 132.285156 C 9.175781 132.675781 9.71875 133.027344 10.289062 133.335938 C 10.859375 133.640625 11.449219 133.898438 12.0625 134.109375 C 12.675781 134.320312 13.300781 134.480469 13.9375 134.589844 Z M 35.957031 115.804688 C 37.09375 115.332031 38.128906 114.699219 39.070312 113.910156 C 40.011719 113.121094 40.8125 112.210938 41.472656 111.179688 C 42.136719 110.144531 42.628906 109.035156 42.949219 107.851562 C 43.273438 106.667969 43.414062 105.464844 43.367188 104.238281 L 42.414062 79.8125 L 58.984375 97.753906 C 59.820312 98.65625 60.773438 99.410156 61.839844 100.019531 C 62.90625 100.628906 64.039062 101.066406 65.238281 101.332031 C 66.4375 101.597656 67.652344 101.675781 68.875 101.570312 C 70.101562 101.46875 71.28125 101.183594 72.421875 100.71875 L 88.109375 94.238281 L 80.179688 105.460938 C 79.804688 105.992188 79.480469 106.546875 79.195312 107.132812 C 78.914062 107.714844 78.679688 108.320312 78.492188 108.941406 C 78.308594 109.5625 78.175781 110.195312 78.089844 110.839844 C 78.007812 111.480469 77.976562 112.128906 77.996094 112.777344 C 78.019531 113.425781 78.089844 114.066406 78.214844 114.703125 C 78.339844 115.339844 78.515625 115.960938 78.742188 116.570312 C 78.964844 117.179688 79.238281 117.765625 79.558594 118.332031 C 79.878906 118.894531 80.242188 119.429688 80.648438 119.9375 L 94.230469 136.730469 L 71.375 131.371094 C 70.765625 131.226562 70.148438 131.128906 69.519531 131.082031 C 68.894531 131.035156 68.269531 131.035156 67.644531 131.085938 C 67.019531 131.136719 66.402344 131.234375 65.789062 131.382812 C 65.179688 131.527344 64.585938 131.722656 64.003906 131.960938 C 63.425781 132.199219 62.867188 132.484375 62.332031 132.808594 C 61.796875 133.136719 61.289062 133.503906 60.8125 133.910156 C 60.332031 134.316406 59.886719 134.757812 59.480469 135.230469 C 59.070312 135.707031 58.699219 136.210938 58.371094 136.742188 L 46.015625 156.679688 L 43.765625 135.210938 C 43.691406 134.566406 43.570312 133.933594 43.398438 133.308594 C 43.226562 132.683594 43.003906 132.074219 42.730469 131.484375 C 42.460938 130.898438 42.144531 130.332031 41.78125 129.796875 C 41.417969 129.257812 41.015625 128.75 40.570312 128.277344 C 40.128906 127.804688 39.648438 127.371094 39.132812 126.976562 C 38.621094 126.578125 38.078125 126.226562 37.503906 125.917969 C 36.933594 125.609375 36.34375 125.351562 35.730469 125.136719 C 35.117188 124.925781 34.488281 124.761719 33.851562 124.648438 L 20.253906 122.304688 Z M 35.957031 115.804688 " fill-opacity="1" fill-rule="nonzero"/></g><path fill="#ffffff" d="M 116.316406 33.667969 L 129.535156 33.667969 L 129.535156 46.871094 L 116.316406 46.871094 Z M 116.316406 33.667969 " fill-opacity="1" fill-rule="nonzero"/><path fill="#ffffff" d="M 103.097656 46.871094 L 116.316406 46.871094 L 116.316406 60.074219 L 103.097656 60.074219 Z M 103.097656 46.871094 " fill-opacity="1" fill-rule="nonzero"/><path fill="#ffffff" d="M 129.535156 46.871094 L 142.753906 46.871094 L 142.753906 60.074219 L 129.535156 60.074219 Z M 129.535156 46.871094 " fill-opacity="1" fill-rule="nonzero"/><path fill="#ffffff" d="M 116.316406 60.074219 L 129.535156 60.074219 L 129.535156 73.277344 L 116.316406 73.277344 Z M 116.316406 60.074219 " fill-opacity="1" fill-rule="nonzero"/><path fill="#ffffff" d="M 129.535156 112.886719 L 142.753906 112.886719 L 142.753906 126.089844 L 129.535156 126.089844 Z M 129.535156 112.886719 " fill-opacity="1" fill-rule="nonzero"/><path fill="#ffffff" d="M 142.753906 271.320312 L 142.753906 284.523438 C 143.835938 284.523438 144.914062 284.46875 145.992188 284.363281 C 147.066406 284.253906 148.136719 284.09375 149.199219 283.882812 C 150.257812 283.671875 151.304688 283.410156 152.339844 283.09375 C 153.375 282.78125 154.394531 282.414062 155.394531 282 C 156.390625 281.585938 157.367188 281.125 158.324219 280.617188 C 159.277344 280.105469 160.203125 279.550781 161.101562 278.949219 C 162.003906 278.347656 162.871094 277.707031 163.707031 277.019531 C 164.542969 276.335938 165.34375 275.609375 166.109375 274.84375 C 166.875 274.082031 167.597656 273.28125 168.285156 272.445312 C 168.972656 271.609375 169.617188 270.746094 170.21875 269.847656 C 170.820312 268.949219 171.375 268.023438 171.882812 267.070312 C 172.394531 266.117188 172.859375 265.140625 173.273438 264.140625 C 173.6875 263.144531 174.050781 262.128906 174.367188 261.09375 C 174.679688 260.058594 174.945312 259.011719 175.15625 257.953125 C 175.367188 256.894531 175.527344 255.828125 175.636719 254.75 C 175.742188 253.675781 175.796875 252.597656 175.796875 251.515625 L 162.582031 251.515625 C 162.582031 252.164062 162.546875 252.8125 162.484375 253.457031 C 162.421875 254.105469 162.324219 254.746094 162.199219 255.378906 C 162.074219 256.015625 161.914062 256.644531 161.726562 257.265625 C 161.539062 257.886719 161.320312 258.496094 161.070312 259.097656 C 160.824219 259.695312 160.546875 260.28125 160.238281 260.851562 C 159.933594 261.425781 159.601562 261.980469 159.238281 262.519531 C 158.878906 263.058594 158.492188 263.578125 158.078125 264.082031 C 157.667969 264.582031 157.230469 265.0625 156.773438 265.519531 C 156.3125 265.980469 155.832031 266.414062 155.332031 266.828125 C 154.828125 267.238281 154.308594 267.625 153.769531 267.984375 C 153.230469 268.34375 152.671875 268.675781 152.101562 268.984375 C 151.527344 269.289062 150.941406 269.566406 150.339844 269.8125 C 149.742188 270.0625 149.128906 270.28125 148.507812 270.46875 C 147.886719 270.65625 147.257812 270.816406 146.621094 270.941406 C 145.984375 271.066406 145.34375 271.164062 144.695312 271.226562 C 144.050781 271.289062 143.402344 271.320312 142.753906 271.320312 Z M 142.753906 271.320312 " fill-opacity="1" fill-rule="nonzero"/></svg>