<svg xmlns="http://www.w3.org/2000/svg" xmlns:xlink="http://www.w3.org/1999/xlink" width="529" zoomAndPan="magnify" viewBox="0 0 396.75 396.749984" height="529" preserveAspectRatio="xMidYMid meet" version="1.0"><defs><g/></defs><g fill="#332f2f" fill-opacity="1"><g transform="translate(56.068652, 97.833219)"><g><path d="M 5.90625 -52.78125 C 6.175781 -52.78125 6.925781 -52.78125 8.15625 -52.78125 C 9.382812 -52.78125 10.832031 -52.78125 12.5 -52.78125 C 14.164062 -52.78125 15.832031 -52.773438 17.5 -52.765625 C 19.164062 -52.753906 20.5625 -52.734375 21.6875 -52.703125 C 28.082031 -52.554688 33.300781 -51.410156 37.34375 -49.265625 C 41.382812 -47.128906 44.347656 -44.140625 46.234375 -40.296875 C 48.117188 -36.453125 49.0625 -31.898438 49.0625 -26.640625 C 49.0625 -21.171875 48.0625 -16.445312 46.0625 -12.46875 C 44.0625 -8.488281 41.007812 -5.414062 36.90625 -3.25 C 32.8125 -1.082031 27.613281 0 21.3125 0 L 5.90625 0 Z M 16.640625 -44.171875 L 16.640625 -8.609375 L 21.53125 -8.609375 C 24.550781 -8.609375 27.296875 -9.191406 29.765625 -10.359375 C 32.234375 -11.535156 34.207031 -13.445312 35.6875 -16.09375 C 37.175781 -18.75 37.921875 -22.289062 37.921875 -26.71875 C 37.921875 -30.832031 37.265625 -34.171875 35.953125 -36.734375 C 34.640625 -39.304688 32.765625 -41.1875 30.328125 -42.375 C 27.898438 -43.570312 25.019531 -44.171875 21.6875 -44.171875 Z M 16.640625 -44.171875 "/></g></g></g><g fill="#332f2f" fill-opacity="1"><g transform="translate(108.628577, 97.833219)"><g><path d="M 27.84375 0.734375 C 22.851562 0.734375 18.539062 -0.351562 14.90625 -2.53125 C 11.269531 -4.707031 8.457031 -7.8125 6.46875 -11.84375 C 4.488281 -15.875 3.5 -20.6875 3.5 -26.28125 C 3.5 -31.90625 4.503906 -36.75 6.515625 -40.8125 C 8.523438 -44.875 11.351562 -48.003906 15 -50.203125 C 18.644531 -52.410156 22.925781 -53.515625 27.84375 -53.515625 C 32.738281 -53.515625 37 -52.414062 40.625 -50.21875 C 44.25 -48.03125 47.050781 -44.90625 49.03125 -40.84375 C 51.019531 -36.78125 52.015625 -31.925781 52.015625 -26.28125 C 52.015625 -20.707031 51.035156 -15.898438 49.078125 -11.859375 C 47.117188 -7.816406 44.328125 -4.707031 40.703125 -2.53125 C 37.078125 -0.351562 32.789062 0.734375 27.84375 0.734375 Z M 27.84375 -8.03125 C 30.425781 -8.03125 32.660156 -8.644531 34.546875 -9.875 C 36.429688 -11.101562 37.882812 -13.046875 38.90625 -15.703125 C 39.925781 -18.367188 40.4375 -21.847656 40.4375 -26.140625 C 40.4375 -30.535156 39.921875 -34.097656 38.890625 -36.828125 C 37.859375 -39.554688 36.398438 -41.554688 34.515625 -42.828125 C 32.628906 -44.109375 30.40625 -44.75 27.84375 -44.75 C 25.289062 -44.75 23.066406 -44.109375 21.171875 -42.828125 C 19.273438 -41.554688 17.800781 -39.550781 16.75 -36.8125 C 15.707031 -34.070312 15.1875 -30.515625 15.1875 -26.140625 C 15.1875 -21.828125 15.707031 -18.34375 16.75 -15.6875 C 17.800781 -13.039062 19.273438 -11.101562 21.171875 -9.875 C 23.066406 -8.644531 25.289062 -8.03125 27.84375 -8.03125 Z M 27.84375 -8.03125 "/></g></g></g><g fill="#332f2f" fill-opacity="1"><g transform="translate(164.144987, 97.833219)"><g/></g></g><g fill="#332f2f" fill-opacity="1"><g transform="translate(179.620964, 97.833219)"><g><path d="M 24.59375 -14.671875 C 24.59375 -11.316406 24.226562 -8.492188 23.5 -6.203125 C 22.769531 -3.921875 21.429688 -2.191406 19.484375 -1.015625 C 17.546875 0.148438 14.75 0.734375 11.09375 0.734375 C 9.414062 0.734375 7.6875 0.59375 5.90625 0.3125 C 4.132812 0.03125 2.832031 -0.21875 2 -0.4375 L 2.21875 -10.1875 C 2.925781 -10.039062 3.734375 -9.84375 4.640625 -9.59375 C 5.554688 -9.351562 6.578125 -9.234375 7.703125 -9.234375 C 10.160156 -9.234375 11.8125 -9.882812 12.65625 -11.1875 C 13.507812 -12.488281 13.9375 -14.597656 13.9375 -17.515625 L 13.9375 -52.78125 L 24.59375 -52.78125 Z M 24.59375 -14.671875 "/></g></g></g><g fill="#332f2f" fill-opacity="1"><g transform="translate(208.966917, 97.833219)"><g><path d="M 5.90625 0 L 5.90625 -52.78125 L 42.15625 -52.78125 L 42.125 -43.796875 L 16.609375 -43.796875 L 16.609375 -30.984375 L 38.765625 -30.984375 L 38.765625 -22.1875 L 16.53125 -22.1875 L 16.53125 -9.09375 L 42.515625 -9.046875 L 42.515625 0 Z M 5.90625 0 "/></g></g></g><g fill="#332f2f" fill-opacity="1"><g transform="translate(255.285344, 97.833219)"><g><path d="M 5.90625 -52.78125 L 16.53125 -52.78125 L 16.53125 0 L 5.90625 0 Z M 5.90625 -52.78125 "/></g></g></g><g fill="#332f2f" fill-opacity="1"><g transform="translate(277.732813, 97.833219)"><g><path d="M 1.390625 -43.28125 L 1.390625 -52.78125 L 43.625 -52.78125 L 43.625 -43.28125 L 28.03125 -43.28125 L 28.03125 0 L 17.34375 0 L 17.34375 -43.28125 Z M 1.390625 -43.28125 "/></g></g></g><g fill="#332f2f" fill-opacity="1"><g transform="translate(322.700746, 97.833219)"><g><path d="M 27.84375 0.734375 C 22.851562 0.734375 18.539062 -0.351562 14.90625 -2.53125 C 11.269531 -4.707031 8.457031 -7.8125 6.46875 -11.84375 C 4.488281 -15.875 3.5 -20.6875 3.5 -26.28125 C 3.5 -31.90625 4.503906 -36.75 6.515625 -40.8125 C 8.523438 -44.875 11.351562 -48.003906 15 -50.203125 C 18.644531 -52.410156 22.925781 -53.515625 27.84375 -53.515625 C 32.738281 -53.515625 37 -52.414062 40.625 -50.21875 C 44.25 -48.03125 47.050781 -44.90625 49.03125 -40.84375 C 51.019531 -36.78125 52.015625 -31.925781 52.015625 -26.28125 C 52.015625 -20.707031 51.035156 -15.898438 49.078125 -11.859375 C 47.117188 -7.816406 44.328125 -4.707031 40.703125 -2.53125 C 37.078125 -0.351562 32.789062 0.734375 27.84375 0.734375 Z M 27.84375 -8.03125 C 30.425781 -8.03125 32.660156 -8.644531 34.546875 -9.875 C 36.429688 -11.101562 37.882812 -13.046875 38.90625 -15.703125 C 39.925781 -18.367188 40.4375 -21.847656 40.4375 -26.140625 C 40.4375 -30.535156 39.921875 -34.097656 38.890625 -36.828125 C 37.859375 -39.554688 36.398438 -41.554688 34.515625 -42.828125 C 32.628906 -44.109375 30.40625 -44.75 27.84375 -44.75 C 25.289062 -44.75 23.066406 -44.109375 21.171875 -42.828125 C 19.273438 -41.554688 17.800781 -39.550781 16.75 -36.8125 C 15.707031 -34.070312 15.1875 -30.515625 15.1875 -26.140625 C 15.1875 -21.828125 15.707031 -18.34375 16.75 -15.6875 C 17.800781 -13.039062 19.273438 -11.101562 21.171875 -9.875 C 23.066406 -8.644531 25.289062 -8.03125 27.84375 -8.03125 Z M 27.84375 -8.03125 "/></g></g></g><g fill="#332f2f" fill-opacity="1"><g transform="translate(131.610748, 162.754686)"><g><path d="M 3.5 -26.28125 C 3.5 -31.925781 4.503906 -36.78125 6.515625 -40.84375 C 8.523438 -44.90625 11.347656 -48.03125 14.984375 -50.21875 C 18.617188 -52.414062 22.894531 -53.515625 27.8125 -53.515625 C 32.75 -53.515625 37.03125 -52.414062 40.65625 -50.21875 C 44.28125 -48.03125 47.085938 -44.90625 49.078125 -40.84375 C 51.078125 -36.78125 52.078125 -31.925781 52.078125 -26.28125 C 52.078125 -21.457031 51.351562 -17.222656 49.90625 -13.578125 C 48.457031 -9.929688 46.25 -6.878906 43.28125 -4.421875 C 43.875 -2.953125 44.96875 -1.78125 46.5625 -0.90625 C 48.15625 -0.03125 49.921875 0.414062 51.859375 0.4375 L 51.859375 8.984375 C 49.578125 8.984375 47.40625 8.785156 45.34375 8.390625 C 43.289062 8.003906 41.316406 7.179688 39.421875 5.921875 C 37.523438 4.671875 35.660156 2.769531 33.828125 0.21875 C 32.617188 0.382812 31.554688 0.507812 30.640625 0.59375 C 29.722656 0.6875 28.78125 0.734375 27.8125 0.734375 C 22.875 0.734375 18.582031 -0.34375 14.9375 -2.5 C 11.300781 -4.65625 8.484375 -7.742188 6.484375 -11.765625 C 4.492188 -15.796875 3.5 -20.632812 3.5 -26.28125 Z M 15.21875 -26.140625 C 15.21875 -19.691406 16.320312 -15.0625 18.53125 -12.25 C 20.75 -9.4375 23.84375 -8.03125 27.8125 -8.03125 C 31.800781 -8.03125 34.898438 -9.4375 37.109375 -12.25 C 39.328125 -15.0625 40.4375 -19.703125 40.4375 -26.171875 C 40.4375 -32.710938 39.328125 -37.441406 37.109375 -40.359375 C 34.898438 -43.285156 31.800781 -44.75 27.8125 -44.75 C 23.84375 -44.75 20.75 -43.28125 18.53125 -40.34375 C 16.320312 -37.414062 15.21875 -32.679688 15.21875 -26.140625 Z M 15.21875 -26.140625 "/></g></g></g><g fill="#332f2f" fill-opacity="1"><g transform="translate(188.039664, 162.754686)"><g><path d="M 48.140625 -20.109375 C 48.140625 -15.847656 47.445312 -12.15625 46.0625 -9.03125 C 44.675781 -5.90625 42.429688 -3.492188 39.328125 -1.796875 C 36.222656 -0.109375 32.117188 0.734375 27.015625 0.734375 C 21.878906 0.734375 17.765625 -0.125 14.671875 -1.84375 C 11.578125 -3.5625 9.34375 -6 7.96875 -9.15625 C 6.59375 -12.320312 5.90625 -16.09375 5.90625 -20.46875 L 5.90625 -52.78125 L 16.75 -52.78125 L 16.75 -19.671875 C 16.75 -15.734375 17.695312 -12.859375 19.59375 -11.046875 C 21.5 -9.234375 23.972656 -8.328125 27.015625 -8.328125 C 29.035156 -8.328125 30.820312 -8.71875 32.375 -9.5 C 33.9375 -10.289062 35.160156 -11.519531 36.046875 -13.1875 C 36.929688 -14.851562 37.375 -17.015625 37.375 -19.671875 L 37.375 -52.78125 L 48.140625 -52.78125 Z M 48.140625 -20.109375 "/></g></g></g><g fill="#332f2f" fill-opacity="1"><g transform="translate(240.891584, 162.754686)"><g><path d="M 5.90625 0 L 5.90625 -52.78125 L 42.15625 -52.78125 L 42.125 -43.796875 L 16.609375 -43.796875 L 16.609375 -30.984375 L 38.765625 -30.984375 L 38.765625 -22.1875 L 16.53125 -22.1875 L 16.53125 -9.09375 L 42.515625 -9.046875 L 42.515625 0 Z M 5.90625 0 "/></g></g></g><g fill="#332f2f" fill-opacity="1"><g transform="translate(287.20472, 162.754686)"><g/></g></g><g fill="#332f2f" fill-opacity="1"><g transform="translate(2.293341, 283.211385)"><g><path d="M 96.796875 -102.6875 L 61.359375 0 L 37.84375 0 L 2.703125 -102.6875 L 22.515625 -102.6875 L 49.640625 -24.078125 L 76.984375 -102.6875 Z M 96.796875 -102.6875 "/></g></g></g><g fill="#332f2f" fill-opacity="1"><g transform="translate(101.783922, 283.211385)"><g><path d="M 54.1875 1.421875 C 44.476562 1.421875 36.082031 -0.695312 29 -4.9375 C 21.925781 -9.175781 16.457031 -15.210938 12.59375 -23.046875 C 8.738281 -30.878906 6.8125 -40.238281 6.8125 -51.125 C 6.8125 -62.0625 8.765625 -71.484375 12.671875 -79.390625 C 16.578125 -87.296875 22.082031 -93.390625 29.1875 -97.671875 C 36.289062 -101.960938 44.625 -104.109375 54.1875 -104.109375 C 63.695312 -104.109375 71.976562 -101.976562 79.03125 -97.71875 C 86.09375 -93.457031 91.550781 -87.375 95.40625 -79.46875 C 99.269531 -71.5625 101.203125 -62.113281 101.203125 -51.125 C 101.203125 -40.289062 99.296875 -30.941406 95.484375 -23.078125 C 91.671875 -15.222656 86.234375 -9.175781 79.171875 -4.9375 C 72.117188 -0.695312 63.789062 1.421875 54.1875 1.421875 Z M 54.1875 -15.625 C 59.207031 -15.625 63.550781 -16.816406 67.21875 -19.203125 C 70.882812 -21.597656 73.710938 -25.382812 75.703125 -30.5625 C 77.691406 -35.75 78.6875 -42.507812 78.6875 -50.84375 C 78.6875 -59.414062 77.679688 -66.351562 75.671875 -71.65625 C 73.660156 -76.957031 70.816406 -80.847656 67.140625 -83.328125 C 63.472656 -85.816406 59.15625 -87.0625 54.1875 -87.0625 C 49.21875 -87.0625 44.882812 -85.816406 41.1875 -83.328125 C 37.5 -80.847656 34.632812 -76.941406 32.59375 -71.609375 C 30.5625 -66.285156 29.546875 -59.363281 29.546875 -50.84375 C 29.546875 -42.46875 30.5625 -35.695312 32.59375 -30.53125 C 34.632812 -25.375 37.5 -21.597656 41.1875 -19.203125 C 44.882812 -16.816406 49.21875 -15.625 54.1875 -15.625 Z M 54.1875 -15.625 "/></g></g></g><g fill="#332f2f" fill-opacity="1"><g transform="translate(209.7962, 283.211385)"><g><path d="M 53.328125 -104.109375 C 61.046875 -104.109375 67.921875 -102.554688 73.953125 -99.453125 C 79.992188 -96.359375 84.875 -92.132812 88.59375 -86.78125 C 92.3125 -81.425781 94.5 -75.390625 95.15625 -68.671875 L 73.4375 -68.671875 C 72.769531 -72.222656 71.5625 -75.382812 69.8125 -78.15625 C 68.0625 -80.925781 65.765625 -83.101562 62.921875 -84.6875 C 60.078125 -86.269531 56.664062 -87.0625 52.6875 -87.0625 C 47.90625 -87.0625 43.785156 -85.898438 40.328125 -83.578125 C 36.878906 -81.265625 34.226562 -77.523438 32.375 -72.359375 C 30.53125 -67.203125 29.609375 -60.382812 29.609375 -51.90625 C 29.609375 -39.125 31.65625 -29.878906 35.75 -24.171875 C 39.851562 -18.472656 45.5 -15.625 52.6875 -15.625 C 56.664062 -15.625 60.078125 -16.535156 62.921875 -18.359375 C 65.765625 -20.179688 68.0625 -22.59375 69.8125 -25.59375 C 71.5625 -28.601562 72.769531 -31.90625 73.4375 -35.5 L 95.15625 -35.5 C 94.539062 -30.625 93.359375 -25.972656 91.609375 -21.546875 C 89.859375 -17.117188 87.375 -13.175781 84.15625 -9.71875 C 80.9375 -6.269531 76.789062 -3.550781 71.71875 -1.5625 C 66.65625 0.425781 60.523438 1.421875 53.328125 1.421875 C 43.765625 1.421875 35.503906 -0.800781 28.546875 -5.25 C 21.585938 -9.707031 16.222656 -15.957031 12.453125 -24 C 8.691406 -32.050781 6.8125 -41.453125 6.8125 -52.203125 C 6.8125 -62.992188 8.679688 -72.257812 12.421875 -80 C 16.160156 -87.738281 21.507812 -93.691406 28.46875 -97.859375 C 35.4375 -102.023438 43.722656 -104.109375 53.328125 -104.109375 Z M 53.328125 -104.109375 "/></g></g></g><g fill="#332f2f" fill-opacity="1"><g transform="translate(311.772265, 283.211385)"><g><path d="M 11.5 0 L 11.5 -102.6875 L 82.015625 -102.6875 L 81.953125 -85.21875 L 32.3125 -85.21875 L 32.3125 -60.296875 L 75.421875 -60.296875 L 75.421875 -43.171875 L 32.171875 -43.171875 L 32.171875 -17.6875 L 82.734375 -17.609375 L 82.734375 0 Z M 56.359375 -111.015625 L 46.984375 -120.96875 L 36.625 -111.015625 L 21.203125 -111.015625 L 39.953125 -129.421875 L 54.296875 -129.421875 L 72.546875 -111.015625 Z M 56.359375 -111.015625 "/></g></g></g><g fill="#332f2f" fill-opacity="1"><g transform="translate(77.077689, 353.608156)"><g><path d="M 27.265625 0.734375 C 22.421875 0.734375 18.21875 -0.363281 14.65625 -2.5625 C 11.09375 -4.769531 8.34375 -7.894531 6.40625 -11.9375 C 4.46875 -15.976562 3.5 -20.75 3.5 -26.25 C 3.5 -31.84375 4.515625 -36.675781 6.546875 -40.75 C 8.578125 -44.820312 11.414062 -47.96875 15.0625 -50.1875 C 18.71875 -52.40625 22.976562 -53.515625 27.84375 -53.515625 C 30.988281 -53.515625 33.847656 -53.015625 36.421875 -52.015625 C 39.003906 -51.015625 41.25 -49.648438 43.15625 -47.921875 C 45.070312 -46.191406 46.570312 -44.238281 47.65625 -42.0625 C 48.738281 -39.882812 49.328125 -37.628906 49.421875 -35.296875 L 38.171875 -35.296875 C 37.859375 -36.972656 37.234375 -38.503906 36.296875 -39.890625 C 35.359375 -41.273438 34.160156 -42.390625 32.703125 -43.234375 C 31.242188 -44.078125 29.539062 -44.5 27.59375 -44.5 C 25.257812 -44.5 23.140625 -43.894531 21.234375 -42.6875 C 19.335938 -41.476562 17.84375 -39.5625 16.75 -36.9375 C 15.65625 -34.3125 15.109375 -30.84375 15.109375 -26.53125 C 15.109375 -23.050781 15.46875 -20.15625 16.1875 -17.84375 C 16.90625 -15.53125 17.875 -13.695312 19.09375 -12.34375 C 20.3125 -11 21.695312 -10.046875 23.25 -9.484375 C 24.8125 -8.929688 26.40625 -8.65625 28.03125 -8.65625 C 29.59375 -8.65625 30.984375 -8.914062 32.203125 -9.4375 C 33.429688 -9.957031 34.484375 -10.628906 35.359375 -11.453125 C 36.242188 -12.285156 36.941406 -13.191406 37.453125 -14.171875 C 37.960938 -15.160156 38.289062 -16.128906 38.4375 -17.078125 L 38.84375 -20.296875 L 27.921875 -20.296875 L 27.921875 -27.671875 L 50 -27.5625 L 50 0 L 42.734375 0 L 42.734375 -6.90625 C 41.835938 -5.707031 40.722656 -4.515625 39.390625 -3.328125 C 38.066406 -2.148438 36.425781 -1.175781 34.46875 -0.40625 C 32.507812 0.351562 30.109375 0.734375 27.265625 0.734375 Z M 27.265625 0.734375 "/></g></g></g><g fill="#332f2f" fill-opacity="1"><g transform="translate(132.484605, 353.608156)"><g><path d="M 27.84375 0.734375 C 22.851562 0.734375 18.539062 -0.351562 14.90625 -2.53125 C 11.269531 -4.707031 8.457031 -7.8125 6.46875 -11.84375 C 4.488281 -15.875 3.5 -20.6875 3.5 -26.28125 C 3.5 -31.90625 4.503906 -36.75 6.515625 -40.8125 C 8.523438 -44.875 11.351562 -48.003906 15 -50.203125 C 18.644531 -52.410156 22.925781 -53.515625 27.84375 -53.515625 C 32.738281 -53.515625 37 -52.414062 40.625 -50.21875 C 44.25 -48.03125 47.050781 -44.90625 49.03125 -40.84375 C 51.019531 -36.78125 52.015625 -31.925781 52.015625 -26.28125 C 52.015625 -20.707031 51.035156 -15.898438 49.078125 -11.859375 C 47.117188 -7.816406 44.328125 -4.707031 40.703125 -2.53125 C 37.078125 -0.351562 32.789062 0.734375 27.84375 0.734375 Z M 27.84375 -8.03125 C 30.425781 -8.03125 32.660156 -8.644531 34.546875 -9.875 C 36.429688 -11.101562 37.882812 -13.046875 38.90625 -15.703125 C 39.925781 -18.367188 40.4375 -21.847656 40.4375 -26.140625 C 40.4375 -30.535156 39.921875 -34.097656 38.890625 -36.828125 C 37.859375 -39.554688 36.398438 -41.554688 34.515625 -42.828125 C 32.628906 -44.109375 30.40625 -44.75 27.84375 -44.75 C 25.289062 -44.75 23.066406 -44.109375 21.171875 -42.828125 C 19.273438 -41.554688 17.800781 -39.550781 16.75 -36.8125 C 15.707031 -34.070312 15.1875 -30.515625 15.1875 -26.140625 C 15.1875 -21.828125 15.707031 -18.34375 16.75 -15.6875 C 17.800781 -13.039062 19.273438 -11.101562 21.171875 -9.875 C 23.066406 -8.644531 25.289062 -8.03125 27.84375 -8.03125 Z M 27.84375 -8.03125 "/></g></g></g><g fill="#332f2f" fill-opacity="1"><g transform="translate(188.001014, 353.608156)"><g><path d="M 25.734375 0.734375 C 23.128906 0.734375 20.570312 0.40625 18.0625 -0.25 C 15.5625 -0.90625 13.273438 -1.890625 11.203125 -3.203125 C 9.140625 -4.523438 7.429688 -6.171875 6.078125 -8.140625 C 4.722656 -10.109375 3.914062 -12.421875 3.65625 -15.078125 L 14.5625 -15.078125 C 14.925781 -13.472656 15.617188 -12.117188 16.640625 -11.015625 C 17.660156 -9.921875 18.945312 -9.082031 20.5 -8.5 C 22.0625 -7.914062 23.796875 -7.625 25.703125 -7.625 C 27.640625 -7.625 29.410156 -7.867188 31.015625 -8.359375 C 32.628906 -8.847656 33.921875 -9.582031 34.890625 -10.5625 C 35.867188 -11.550781 36.359375 -12.785156 36.359375 -14.265625 C 36.359375 -15.609375 35.960938 -16.703125 35.171875 -17.546875 C 34.378906 -18.398438 33.3125 -19.09375 31.96875 -19.625 C 30.632812 -20.164062 29.113281 -20.609375 27.40625 -20.953125 L 18.28125 -22.8125 C 14.289062 -23.5625 11.128906 -25.144531 8.796875 -27.5625 C 6.460938 -29.988281 5.257812 -33.222656 5.1875 -37.265625 C 5.15625 -40.578125 6.035156 -43.441406 7.828125 -45.859375 C 9.617188 -48.285156 12.050781 -50.15625 15.125 -51.46875 C 18.207031 -52.78125 21.660156 -53.4375 25.484375 -53.4375 C 30.023438 -53.4375 33.847656 -52.722656 36.953125 -51.296875 C 40.054688 -49.878906 42.414062 -47.957031 44.03125 -45.53125 C 45.65625 -43.113281 46.488281 -40.421875 46.53125 -37.453125 L 35.84375 -37.453125 C 35.644531 -39.296875 35.082031 -40.765625 34.15625 -41.859375 C 33.238281 -42.960938 32.054688 -43.753906 30.609375 -44.234375 C 29.160156 -44.722656 27.507812 -44.96875 25.65625 -44.96875 C 24.25 -44.96875 22.96875 -44.804688 21.8125 -44.484375 C 20.65625 -44.171875 19.675781 -43.726562 18.875 -43.15625 C 18.070312 -42.582031 17.453125 -41.90625 17.015625 -41.125 C 16.578125 -40.351562 16.359375 -39.476562 16.359375 -38.5 C 16.359375 -36.96875 16.867188 -35.726562 17.890625 -34.78125 C 18.910156 -33.832031 20.816406 -33.054688 23.609375 -32.453125 L 32.671875 -30.59375 C 35.898438 -29.957031 38.46875 -29.019531 40.375 -27.78125 C 42.289062 -26.539062 43.726562 -25.140625 44.6875 -23.578125 C 45.65625 -22.023438 46.289062 -20.4375 46.59375 -18.8125 C 46.894531 -17.195312 47.046875 -15.707031 47.046875 -14.34375 C 47.046875 -11.5 46.148438 -8.9375 44.359375 -6.65625 C 42.578125 -4.382812 40.09375 -2.582031 36.90625 -1.25 C 33.71875 0.0703125 29.992188 0.734375 25.734375 0.734375 Z M 25.734375 0.734375 "/></g></g></g><g fill="#332f2f" fill-opacity="1"><g transform="translate(238.626431, 353.608156)"><g><path d="M 1.390625 -43.28125 L 1.390625 -52.78125 L 43.625 -52.78125 L 43.625 -43.28125 L 28.03125 -43.28125 L 28.03125 0 L 17.34375 0 L 17.34375 -43.28125 Z M 1.390625 -43.28125 "/></g></g></g><g fill="#332f2f" fill-opacity="1"><g transform="translate(283.594364, 353.608156)"><g><path d="M 2 0 L 20.921875 -52.78125 L 32.15625 -52.78125 L 51.03125 0 L 40.40625 0 L 36.09375 -12.234375 L 17.125 -12.234375 L 12.703125 0 Z M 19.484375 -21.53125 L 33.546875 -21.53125 L 26.578125 -42.484375 Z M 19.484375 -21.53125 "/></g></g></g><g fill="#332f2f" fill-opacity="1"><g transform="translate(336.628785, 353.608156)"><g><path d="M 15.734375 -11.390625 L 15.734375 0 L 4.09375 0 L 4.09375 -11.390625 Z M 16.171875 -52.78125 L 13.359375 -16.28125 L 6.671875 -16.28125 L 3.6875 -52.78125 Z M 16.171875 -52.78125 "/></g></g></g></svg>