<svg xmlns="http://www.w3.org/2000/svg" xmlns:xlink="http://www.w3.org/1999/xlink" width="529" zoomAndPan="magnify" viewBox="0 0 396.75 396.749984" height="529" preserveAspectRatio="xMidYMid meet" version="1.0"><defs><clipPath id="id1"><path d="M 4 110 L 291 110 L 291 396.5 L 4 396.5 Z M 4 110 " clip-rule="nonzero"/></clipPath></defs><g clip-path="url(#id1)"><path fill="#ffffff" d="M 200.472656 172.160156 C 203.246094 173.949219 206.792969 173.570312 209.101562 171.246094 L 231.984375 148.378906 L 253.164062 169.558594 L 230.296875 192.445312 C 227.972656 194.769531 227.59375 198.316406 229.386719 201.070312 C 235.757812 210.921875 240.234375 221.769531 242.714844 233.308594 C 243.386719 236.492188 246.207031 238.800781 249.445312 238.800781 L 281.855469 238.800781 L 281.855469 268.765625 L 249.445312 268.765625 C 246.207031 268.765625 243.386719 271.070312 242.714844 274.238281 C 240.234375 285.777344 235.757812 296.644531 229.386719 306.476562 C 227.609375 309.230469 227.972656 312.777344 230.296875 315.121094 L 253.164062 338.007812 L 231.984375 359.1875 L 209.101562 336.300781 C 206.792969 333.992188 203.226562 333.613281 200.472656 335.40625 C 190.621094 341.777344 179.773438 346.253906 168.238281 348.71875 C 165.050781 349.386719 162.742188 352.230469 162.742188 355.46875 L 162.742188 387.859375 L 132.78125 387.859375 L 132.78125 355.46875 C 132.78125 352.230469 130.472656 349.386719 127.304688 348.734375 C 115.75 346.253906 104.902344 341.777344 95.070312 335.40625 C 92.296875 333.613281 88.730469 333.976562 86.425781 336.300781 L 63.539062 359.1875 L 42.359375 338.007812 L 65.242188 315.121094 C 67.550781 312.796875 67.914062 309.25 66.140625 306.476562 C 59.765625 296.644531 55.289062 285.777344 52.808594 274.222656 C 52.121094 271.003906 49.347656 268.765625 46.078125 268.765625 L 13.6875 268.765625 L 13.6875 238.800781 L 46.078125 238.800781 C 49.347656 238.800781 52.121094 236.546875 52.808594 233.324219 C 55.289062 221.769531 59.765625 210.921875 66.140625 201.070312 C 67.929688 198.300781 67.550781 194.753906 65.242188 192.445312 L 42.359375 169.558594 L 63.539062 148.378906 L 86.40625 171.246094 C 88.730469 173.570312 92.277344 173.949219 95.050781 172.160156 C 104.902344 165.789062 115.75 161.3125 127.320312 158.832031 C 130.523438 158.140625 132.78125 155.371094 132.78125 152.097656 L 132.78125 119.691406 L 162.742188 119.691406 L 162.742188 152.097656 C 162.742188 155.371094 165 158.140625 168.21875 158.832031 C 179.773438 161.3125 190.621094 165.789062 200.472656 172.160156 Z M 164.621094 110.875 L 130.902344 110.875 C 127.082031 110.875 123.964844 113.992188 123.964844 117.8125 L 123.964844 150.546875 C 112.425781 153.183594 101.542969 157.675781 91.554688 163.929688 L 68.445312 140.820312 C 67.136719 139.492188 65.398438 138.789062 63.539062 138.789062 C 61.695312 138.789062 59.941406 139.511719 58.648438 140.820312 L 34.796875 164.667969 C 32.09375 167.355469 32.09375 171.761719 34.796875 174.46875 L 57.90625 197.578125 C 51.65625 207.5625 47.179688 218.445312 44.527344 229.984375 L 11.792969 229.984375 C 7.96875 229.984375 4.871094 233.101562 4.871094 236.90625 L 4.871094 270.640625 C 4.871094 274.464844 7.96875 277.582031 11.792969 277.582031 L 44.527344 277.582031 C 47.179688 289.117188 51.675781 300 57.90625 309.988281 L 34.796875 333.097656 C 33.488281 334.40625 32.765625 336.144531 32.765625 337.988281 C 32.765625 339.847656 33.472656 341.585938 34.796875 342.894531 L 58.648438 366.746094 C 59.941406 368.054688 61.695312 368.777344 63.539062 368.777344 C 65.398438 368.777344 67.136719 368.054688 68.445312 366.746094 L 91.554688 343.636719 C 101.542969 349.871094 112.425781 354.363281 123.964844 357.015625 L 123.964844 389.753906 C 123.964844 393.574219 127.082031 396.675781 130.902344 396.675781 L 164.621094 396.675781 C 168.441406 396.675781 171.558594 393.574219 171.558594 389.753906 L 171.558594 357.015625 C 183.097656 354.363281 193.980469 349.886719 203.96875 343.636719 L 227.078125 366.746094 C 228.386719 368.054688 230.125 368.777344 231.96875 368.777344 C 231.96875 368.777344 231.984375 368.777344 231.984375 368.777344 C 233.828125 368.777344 235.566406 368.054688 236.875 366.746094 L 260.726562 342.894531 C 262.050781 341.585938 262.757812 339.847656 262.757812 337.988281 C 262.757812 336.144531 262.035156 334.40625 260.726562 333.097656 L 237.617188 309.988281 C 243.867188 300 248.34375 289.117188 250.996094 277.582031 L 283.730469 277.582031 C 287.554688 277.582031 290.671875 274.464844 290.671875 270.640625 L 290.671875 236.90625 C 290.671875 233.101562 287.554688 229.984375 283.730469 229.984375 L 250.996094 229.984375 C 248.363281 218.445312 243.867188 207.5625 237.617188 197.578125 L 260.726562 174.46875 C 263.445312 171.761719 263.445312 167.355469 260.726562 164.667969 L 236.875 140.820312 C 235.566406 139.492188 233.828125 138.789062 231.984375 138.789062 C 231.984375 138.789062 231.96875 138.789062 231.96875 138.789062 C 230.125 138.789062 228.386719 139.511719 227.078125 140.820312 L 203.96875 163.929688 C 193.980469 157.675781 183.097656 153.183594 171.558594 150.546875 L 171.558594 117.8125 C 171.558594 113.992188 168.441406 110.875 164.621094 110.875 " fill-opacity="1" fill-rule="nonzero"/></g><path fill="#ffffff" d="M 258.089844 111.492188 C 260.191406 110.289062 261.15625 107.757812 260.382812 105.484375 C 258.417969 99.628906 257.417969 93.617188 257.417969 87.59375 C 257.417969 81.582031 258.417969 75.554688 260.382812 69.71875 C 261.15625 67.425781 260.191406 64.894531 258.089844 63.691406 L 242.195312 54.511719 L 249.429688 41.992188 L 265.304688 51.171875 C 267.390625 52.378906 270.074219 51.964844 271.675781 50.15625 C 279.734375 41.046875 290.222656 34.898438 301.984375 32.367188 C 304.773438 31.765625 306.71875 29.355469 306.71875 26.511719 L 306.71875 8.894531 L 321.167969 8.894531 L 321.167969 27.269531 C 321.167969 29.699219 322.855469 31.730469 325.25 32.230469 C 337.285156 34.675781 347.996094 40.855469 356.226562 50.15625 C 357.828125 51.964844 360.515625 52.378906 362.566406 51.1875 L 378.476562 41.992188 L 385.707031 54.511719 L 369.78125 63.691406 C 367.695312 64.914062 366.765625 67.445312 367.523438 69.699219 C 369.488281 75.554688 370.46875 81.582031 370.46875 87.59375 C 370.46875 93.617188 369.488281 99.628906 367.523438 105.464844 C 366.765625 107.738281 367.695312 110.269531 369.796875 111.492188 L 385.707031 120.671875 L 378.476562 133.191406 L 362.597656 124.011719 C 360.5 122.808594 357.847656 123.21875 356.226562 125.046875 C 347.996094 134.308594 337.285156 140.527344 325.25 142.953125 C 322.890625 143.4375 321.167969 145.539062 321.167969 147.949219 L 321.167969 166.269531 L 306.71875 166.269531 L 306.71875 147.949219 C 306.71875 145.539062 305.015625 143.4375 302.65625 142.953125 C 290.621094 140.527344 279.910156 134.308594 271.675781 125.027344 C 270.058594 123.21875 267.390625 122.808594 265.339844 124.011719 L 249.429688 133.191406 L 242.195312 120.671875 Z M 232.207031 118.003906 C 231.847656 119.328125 232.035156 120.722656 232.726562 121.894531 L 243.625 140.800781 C 245.054688 143.246094 248.222656 144.074219 250.632812 142.660156 L 267.164062 133.121094 C 275.585938 141.75 286.3125 147.964844 297.902344 150.925781 L 297.902344 169.957031 C 297.902344 172.78125 300.210938 175.085938 303.050781 175.085938 L 324.851562 175.085938 C 327.675781 175.085938 329.984375 172.78125 329.984375 169.957031 L 329.984375 150.925781 C 341.589844 147.964844 352.335938 141.75 360.738281 133.121094 L 377.253906 142.660156 C 379.699219 144.074219 382.851562 143.246094 384.277344 140.785156 L 395.179688 121.910156 C 395.867188 120.722656 396.039062 119.328125 395.695312 118.003906 C 395.335938 116.675781 394.492188 115.574219 393.300781 114.886719 L 376.789062 105.347656 C 378.457031 99.527344 379.285156 93.566406 379.285156 87.59375 C 379.285156 81.617188 378.457031 75.675781 376.789062 69.839844 L 393.300781 60.296875 C 394.492188 59.609375 395.335938 58.507812 395.695312 57.179688 C 396.039062 55.855469 395.867188 54.460938 395.179688 53.273438 L 384.277344 34.398438 C 382.851562 31.9375 379.699219 31.128906 377.253906 32.523438 L 360.738281 42.0625 C 352.320312 33.417969 341.589844 27.21875 329.984375 24.273438 L 329.984375 5.226562 C 329.984375 2.386719 327.675781 0.078125 324.851562 0.078125 L 303.050781 0.078125 C 300.210938 0.078125 297.902344 2.40625 297.902344 5.226562 L 297.902344 24.257812 C 286.175781 27.21875 275.621094 33.332031 267.164062 42.0625 L 250.652344 32.523438 C 248.207031 31.109375 245.054688 31.9375 243.625 34.398438 L 232.726562 53.273438 C 232.035156 54.460938 231.847656 55.855469 232.207031 57.179688 C 232.570312 58.507812 233.414062 59.609375 234.601562 60.316406 L 251.097656 69.839844 C 249.445312 75.660156 248.601562 81.617188 248.601562 87.59375 C 248.601562 93.550781 249.445312 99.507812 251.097656 105.347656 L 234.585938 114.886719 C 233.414062 115.574219 232.570312 116.675781 232.207031 118.003906 " fill-opacity="1" fill-rule="nonzero"/><path fill="#ffffff" d="M 313.953125 59.59375 C 329.382812 59.59375 341.953125 72.164062 341.953125 87.59375 C 341.953125 103.039062 329.382812 115.589844 313.953125 115.589844 C 298.507812 115.589844 285.953125 103.039062 285.953125 87.59375 C 285.953125 72.164062 298.507812 59.59375 313.953125 59.59375 Z M 313.953125 124.410156 C 334.253906 124.410156 350.769531 107.894531 350.769531 87.59375 C 350.769531 67.289062 334.253906 50.777344 313.953125 50.777344 C 293.648438 50.777344 277.136719 67.289062 277.136719 87.59375 C 277.136719 107.894531 293.648438 124.410156 313.953125 124.410156 " fill-opacity="1" fill-rule="nonzero"/><path fill="#ffffff" d="M 49.640625 29.90625 C 51.726562 28.855469 52.792969 26.476562 52.171875 24.238281 L 48.902344 11.996094 L 57.234375 9.757812 L 60.523438 22.050781 C 61.164062 24.292969 63.109375 25.738281 65.570312 25.652344 C 74.578125 25.101562 83.339844 27.425781 90.832031 32.382812 C 92.777344 33.660156 95.378906 33.402344 97.015625 31.765625 L 105.953125 22.828125 L 112.066406 28.921875 L 103.160156 37.824219 C 101.472656 39.460938 101.199219 42.078125 102.507812 44.058594 C 107.449219 51.53125 109.773438 60.265625 109.242188 69.269531 C 109.085938 71.628906 110.617188 73.765625 112.875 74.351562 L 125.117188 77.640625 L 122.878906 85.972656 L 110.601562 82.683594 C 108.363281 82.117188 106.054688 83.148438 104.96875 85.25 C 102.957031 89.296875 100.371094 92.914062 97.253906 96.011719 C 94.15625 99.128906 90.539062 101.710938 86.527344 103.710938 C 84.445312 104.742188 83.339844 107.121094 83.945312 109.410156 L 87.214844 121.636719 L 78.882812 123.875 L 75.59375 111.597656 C 74.988281 109.425781 73.078125 107.980469 70.839844 107.980469 C 70.738281 107.980469 70.652344 107.996094 70.5625 107.996094 C 61.523438 108.53125 52.777344 106.207031 45.285156 101.246094 C 43.355469 99.972656 40.757812 100.230469 39.121094 101.882812 L 30.167969 110.820312 L 24.054688 104.726562 L 33.042969 95.738281 C 34.660156 94.066406 34.902344 91.484375 33.628906 89.589844 C 28.667969 82.097656 26.34375 73.367188 26.894531 64.292969 C 27.015625 61.96875 25.464844 59.832031 23.242188 59.28125 L 11 55.992188 L 13.238281 47.660156 L 25.464844 50.929688 C 27.703125 51.550781 30.097656 50.484375 31.148438 48.382812 C 33.164062 44.351562 35.761719 40.734375 38.863281 37.621094 C 41.960938 34.503906 45.59375 31.917969 49.640625 29.90625 Z M 24.777344 41.632812 L 11.792969 38.136719 C 9.125 37.429688 6.453125 39.015625 5.730469 41.648438 L 1.496094 57.457031 C 0.804688 60.074219 2.355469 62.777344 4.992188 63.519531 L 17.992188 66.996094 C 18.042969 75.660156 20.316406 84.234375 24.605469 91.726562 L 15.097656 101.214844 C 13.167969 103.140625 13.167969 106.292969 15.097656 108.222656 L 26.6875 119.8125 C 28.597656 121.703125 31.714844 121.703125 33.679688 119.792969 L 43.167969 110.289062 C 50.640625 114.558594 59.234375 116.847656 67.878906 116.882812 L 71.355469 129.867188 C 71.667969 131.003906 72.664062 132.3125 73.679688 132.898438 C 74.386719 133.3125 75.367188 133.535156 76.296875 133.535156 C 76.695312 133.535156 77.089844 133.484375 77.433594 133.378906 L 93.207031 129.160156 C 95.859375 128.457031 97.425781 125.734375 96.738281 123.082031 L 93.261719 110.097656 C 97.03125 107.929688 100.457031 105.277344 103.488281 102.246094 C 106.535156 99.214844 109.171875 95.773438 111.339844 92.015625 L 124.34375 95.496094 C 126.960938 96.183594 129.699219 94.617188 130.402344 91.984375 L 134.640625 76.175781 C 134.933594 75.054688 134.726562 73.4375 134.140625 72.4375 C 133.554688 71.421875 132.265625 70.421875 131.128906 70.113281 L 118.125 66.636719 C 118.089844 57.972656 115.800781 49.378906 111.53125 41.925781 L 121.035156 32.4375 C 122.964844 30.492188 122.964844 27.339844 121.035156 25.410156 L 109.464844 13.855469 C 108.636719 13.027344 107.140625 12.410156 105.953125 12.410156 C 104.78125 12.410156 103.28125 13.027344 102.457031 13.855469 L 92.949219 23.34375 C 85.492188 19.074219 76.902344 16.78125 68.238281 16.75 L 64.761719 3.765625 C 64.46875 2.628906 63.453125 1.320312 62.417969 0.734375 C 61.421875 0.148438 59.800781 -0.0585938 58.683594 0.25 L 42.910156 4.472656 C 41.632812 4.816406 40.53125 5.660156 39.878906 6.796875 C 39.292969 7.8125 39.085938 9.429688 39.394531 10.550781 L 42.855469 23.535156 C 39.101562 25.71875 35.660156 28.355469 32.628906 31.386719 C 29.597656 34.433594 26.964844 37.859375 24.777344 41.632812 " fill-opacity="1" fill-rule="nonzero"/><path fill="#ffffff" d="M 54 52.738281 C 57.875 48.863281 62.96875 46.933594 68.066406 46.933594 C 73.148438 46.933594 78.261719 48.863281 82.136719 52.738281 C 89.886719 60.503906 89.886719 73.128906 82.136719 80.894531 C 78.363281 84.648438 73.371094 86.714844 68.066406 86.714844 C 62.746094 86.714844 57.753906 84.648438 54 80.894531 C 46.230469 73.128906 46.230469 60.503906 54 52.738281 Z M 68.066406 95.53125 C 75.730469 95.53125 82.945312 92.550781 88.371094 87.128906 C 99.5625 75.917969 99.5625 57.714844 88.371094 46.523438 C 77.160156 35.3125 58.957031 35.3125 47.765625 46.523438 C 36.554688 57.714844 36.554688 75.917969 47.765625 87.128906 C 53.1875 92.550781 60.386719 95.53125 68.066406 95.53125 " fill-opacity="1" fill-rule="nonzero"/><path fill="#ffffff" d="M 214.300781 253.78125 C 214.300781 290.460938 184.441406 320.304688 147.761719 320.304688 C 111.082031 320.304688 81.222656 290.460938 81.222656 253.78125 C 81.222656 217.085938 111.082031 187.246094 147.761719 187.246094 C 184.441406 187.246094 214.300781 217.085938 214.300781 253.78125 Z M 72.40625 253.78125 C 72.40625 295.335938 106.210938 329.121094 147.761719 329.121094 C 189.3125 329.121094 223.117188 295.335938 223.117188 253.78125 C 223.117188 212.230469 189.3125 178.429688 147.761719 178.429688 C 106.210938 178.429688 72.40625 212.230469 72.40625 253.78125 " fill-opacity="1" fill-rule="nonzero"/><path fill="#ffffff" d="M 186.746094 253.78125 C 186.746094 275.273438 169.253906 292.75 147.761719 292.75 C 126.269531 292.75 108.777344 275.273438 108.777344 253.78125 C 108.777344 232.292969 126.269531 214.796875 147.761719 214.796875 C 169.253906 214.796875 186.746094 232.292969 186.746094 253.78125 Z M 99.957031 253.78125 C 99.957031 280.128906 121.398438 301.566406 147.761719 301.566406 C 174.125 301.566406 195.566406 280.128906 195.566406 253.78125 C 195.566406 227.417969 174.125 205.980469 147.761719 205.980469 C 121.398438 205.980469 99.957031 227.417969 99.957031 253.78125 " fill-opacity="1" fill-rule="nonzero"/></svg>