<svg xmlns="http://www.w3.org/2000/svg" xmlns:xlink="http://www.w3.org/1999/xlink" width="529" zoomAndPan="magnify" viewBox="0 0 396.75 396.749984" height="529" preserveAspectRatio="xMidYMid meet" version="1.0"><defs><clipPath id="id1"><path d="M 0 1.226562 L 396 1.226562 L 396 396.5 L 0 396.5 Z M 0 1.226562 " clip-rule="nonzero"/></clipPath></defs><g clip-path="url(#id1)"><path fill="#332f2f" d="M 197.601562 1.019531 C 88.53125 1.019531 -0.207031 89.753906 -0.207031 198.828125 C -0.207031 307.898438 88.53125 396.636719 197.601562 396.636719 C 306.671875 396.636719 395.410156 307.898438 395.410156 198.828125 C 395.410156 89.753906 306.671875 1.019531 197.601562 1.019531 Z M 246.792969 205.789062 L 214.613281 205.789062 C 214.613281 257.207031 214.613281 320.511719 214.613281 320.511719 L 166.925781 320.511719 C 166.925781 320.511719 166.925781 257.820312 166.925781 205.789062 L 144.257812 205.789062 L 144.257812 165.25 L 166.925781 165.25 L 166.925781 139.027344 C 166.925781 120.25 175.847656 90.902344 215.050781 90.902344 L 250.371094 91.039062 L 250.371094 130.390625 C 250.371094 130.390625 228.898438 130.390625 224.722656 130.390625 C 220.550781 130.390625 214.621094 132.480469 214.621094 141.433594 L 214.621094 165.257812 L 250.953125 165.257812 Z M 246.792969 205.789062 " fill-opacity="1" fill-rule="nonzero"/></g></svg>