<svg xmlns="http://www.w3.org/2000/svg" xmlns:xlink="http://www.w3.org/1999/xlink" width="529" zoomAndPan="magnify" viewBox="0 0 396.75 396.749984" height="529" preserveAspectRatio="xMidYMid meet" version="1.0"><defs><clipPath id="id1"><path d="M 1.238281 0 L 395.738281 0 L 395.738281 396.5 L 1.238281 396.5 Z M 1.238281 0 " clip-rule="nonzero"/></clipPath></defs><g clip-path="url(#id1)"><path fill="#ffffff" d="M 394.9375 302.0625 L 370.003906 246.636719 C 348.484375 198.875 352.488281 143.945312 380.59375 99.769531 L 381.429688 98.519531 C 381.929688 97.6875 382.097656 96.605469 381.761719 95.6875 C 381.429688 94.769531 380.679688 93.9375 379.761719 93.601562 L 348.070312 81.683594 C 336.390625 77.351562 328.554688 66.015625 328.554688 53.59375 L 328.554688 50.011719 C 328.554688 48.175781 327.050781 46.675781 325.21875 46.675781 L 308.535156 46.675781 L 308.535156 33.007812 C 316.125 31.421875 321.878906 24.753906 321.878906 16.671875 C 321.878906 7.5 314.375 0 305.199219 0 C 296.027344 0 288.519531 7.5 288.519531 16.671875 C 288.519531 24.753906 294.273438 31.421875 301.863281 33.007812 L 301.863281 46.675781 L 285.183594 46.675781 C 283.351562 46.675781 281.847656 48.175781 281.847656 50.011719 L 281.847656 53.59375 C 281.847656 66.015625 274.007812 77.351562 262.332031 81.683594 L 251.824219 85.601562 L 241.316406 81.683594 C 229.640625 77.351562 221.800781 66.015625 221.800781 53.59375 L 221.800781 50.011719 C 221.800781 48.175781 220.300781 46.675781 218.464844 46.675781 L 201.785156 46.675781 L 201.785156 33.007812 C 209.375 31.421875 215.128906 24.753906 215.128906 16.671875 C 215.128906 7.5 207.621094 0 198.449219 0 C 189.273438 0 181.769531 7.5 181.769531 16.671875 C 181.769531 24.753906 187.523438 31.421875 195.113281 33.007812 L 195.113281 46.675781 L 178.433594 46.675781 C 176.597656 46.675781 175.097656 48.175781 175.097656 50.011719 L 175.097656 53.59375 C 175.097656 66.015625 167.257812 77.351562 155.582031 81.683594 L 145.074219 85.601562 L 134.5625 81.683594 C 122.886719 77.351562 115.046875 66.015625 115.046875 53.59375 L 115.046875 50.011719 C 115.046875 48.175781 113.546875 46.675781 111.710938 46.675781 L 95.03125 46.675781 L 95.03125 33.007812 C 102.621094 31.421875 108.375 24.753906 108.375 16.671875 C 108.375 7.5 100.871094 0 91.695312 0 C 82.523438 0 75.015625 7.5 75.015625 16.671875 C 75.015625 24.753906 80.769531 31.421875 88.359375 33.007812 L 88.359375 46.675781 L 71.679688 46.675781 C 69.84375 46.675781 68.34375 48.175781 68.34375 50.011719 L 68.34375 53.59375 C 68.34375 66.015625 60.503906 77.351562 48.828125 81.683594 L 17.136719 93.601562 C 16.21875 93.9375 15.46875 94.6875 15.132812 95.6875 C 14.800781 96.605469 14.96875 97.6875 15.46875 98.519531 L 16.300781 99.769531 C 44.40625 143.945312 48.410156 198.875 26.894531 246.636719 L 1.957031 302.0625 C 1.289062 303.5625 1.789062 305.398438 3.292969 306.230469 C 26.144531 320.234375 51.832031 328.652344 78.433594 330.734375 L 78.433594 396.75 L 105.125 396.75 L 105.125 330.734375 C 118.800781 329.652344 132.230469 326.902344 145.15625 322.652344 C 157.164062 326.652344 169.507812 329.320312 181.851562 330.484375 L 181.851562 396.75 L 188.523438 396.75 L 188.523438 330.984375 C 191.859375 331.152344 195.277344 331.320312 198.617188 331.320312 C 201.953125 331.320312 205.203125 331.234375 208.539062 330.984375 L 208.539062 396.75 L 215.210938 396.75 L 215.210938 330.484375 C 227.636719 329.234375 239.980469 326.652344 251.992188 322.652344 C 265.085938 326.984375 278.511719 329.734375 291.941406 330.820312 L 291.941406 396.75 L 318.628906 396.75 L 318.628906 330.820312 C 344.898438 328.734375 370.671875 320.484375 393.773438 306.230469 C 395.105469 305.398438 395.691406 303.5625 394.9375 302.0625 Z M 91.695312 324.566406 C 62.671875 324.566406 34.234375 316.816406 9.214844 302.0625 L 32.980469 249.300781 C 55 200.292969 51.414062 144.113281 23.308594 98.355469 L 48.910156 88.769531 L 68.34375 263.722656 L 75.015625 262.972656 L 55.332031 86.101562 C 58.253906 84.519531 61.003906 82.601562 63.339844 80.351562 L 63.757812 82.683594 C 66.925781 101.605469 75.765625 118.859375 89.359375 132.445312 C 90.027344 133.113281 90.863281 133.445312 91.695312 133.445312 C 92.53125 133.445312 93.363281 133.113281 94.03125 132.445312 C 107.625 118.859375 116.464844 101.6875 119.636719 82.683594 L 120.050781 80.351562 C 120.636719 80.851562 121.21875 81.433594 121.804688 81.933594 L 115.046875 169.785156 L 121.71875 170.285156 L 128.226562 86.101562 C 129.476562 86.769531 130.8125 87.351562 132.230469 87.851562 L 149.324219 94.269531 L 147.40625 123.609375 C 131.476562 163.785156 132.230469 208.960938 150.410156 249.21875 L 174.179688 301.980469 C 149.160156 316.816406 120.71875 324.566406 91.695312 324.566406 Z M 145.074219 209.210938 C 142.070312 191.789062 142.070312 174.035156 145.074219 156.699219 C 147.992188 174.035156 147.992188 191.875 145.074219 209.210938 Z M 198.449219 117.523438 C 194.527344 100.9375 187.273438 85.183594 177.097656 71.515625 C 180.101562 66.179688 181.769531 60.011719 181.769531 53.679688 L 181.769531 53.34375 L 215.128906 53.34375 L 215.128906 53.59375 C 215.128906 60.011719 216.796875 66.097656 219.800781 71.433594 C 209.625 85.183594 202.367188 100.9375 198.449219 117.523438 Z M 312.625 107.273438 C 320.796875 99.105469 327.386719 89.433594 331.972656 78.851562 C 334.558594 81.515625 337.558594 83.851562 340.8125 85.683594 L 318.878906 151.449219 L 308.785156 111.023438 Z M 278.347656 78.851562 C 282.933594 89.433594 289.605469 99.105469 297.695312 107.273438 L 301.449219 111.023438 L 291.355469 151.449219 L 269.421875 85.683594 C 272.839844 83.851562 275.761719 81.601562 278.347656 78.851562 Z M 251.824219 209.128906 C 248.820312 191.707031 248.820312 174.035156 251.824219 156.78125 C 254.742188 174.121094 254.742188 191.789062 251.824219 209.128906 Z M 262.167969 318.816406 C 270.671875 315.316406 278.929688 311.148438 286.9375 306.230469 C 288.355469 305.3125 288.9375 303.5625 288.269531 302.0625 L 263.332031 246.636719 C 260.082031 239.46875 257.414062 232.046875 255.328125 224.546875 C 262.582031 197.375 262.582031 168.617188 255.328125 141.445312 C 258.664062 129.527344 263.417969 118.023438 269.589844 107.023438 L 288.769531 164.453125 C 289.1875 165.785156 290.523438 166.703125 291.941406 166.703125 C 292.023438 166.703125 292.023438 166.703125 292.105469 166.703125 C 293.609375 166.617188 294.859375 165.617188 295.191406 164.203125 L 305.285156 123.777344 L 315.375 164.203125 C 315.710938 165.617188 317.042969 166.703125 318.460938 166.703125 C 318.542969 166.703125 318.542969 166.703125 318.628906 166.703125 C 320.046875 166.703125 321.296875 165.785156 321.796875 164.453125 L 347.152344 88.433594 L 373.589844 98.355469 C 345.484375 144.03125 341.898438 200.292969 363.914062 249.300781 L 387.683594 302.0625 C 349.652344 324.566406 304.535156 330.484375 262.167969 318.816406 Z M 262.167969 318.816406 " fill-opacity="1" fill-rule="nonzero"/></g></svg>