<svg xmlns="http://www.w3.org/2000/svg" xmlns:xlink="http://www.w3.org/1999/xlink" width="529" zoomAndPan="magnify" viewBox="0 0 396.75 396.749984" height="529" preserveAspectRatio="xMidYMid meet" version="1.0"><defs><clipPath id="b42e16cb57"><path d="M 0 1 L 396.5 1 L 396.5 396.5 L 0 396.5 Z M 0 1 " clip-rule="nonzero"/></clipPath></defs><g clip-path="url(#b42e16cb57)"><path fill="#332f2f" d="M 381.089844 218.664062 L 374.144531 218.664062 L 374.144531 167.855469 C 374.144531 166.824219 374.046875 165.804688 373.84375 164.796875 C 373.644531 163.789062 373.347656 162.808594 372.953125 161.859375 C 372.558594 160.90625 372.078125 160.003906 371.507812 159.148438 C 370.933594 158.292969 370.285156 157.503906 369.558594 156.777344 C 368.832031 156.046875 368.039062 155.398438 367.183594 154.828125 C 366.332031 154.257812 365.429688 153.773438 364.476562 153.378906 C 363.527344 152.988281 362.546875 152.6875 361.539062 152.488281 C 360.53125 152.289062 359.511719 152.1875 358.484375 152.1875 L 344.546875 152.1875 L 344.546875 91.613281 C 344.558594 90.753906 344.40625 89.929688 344.089844 89.132812 C 343.773438 88.335938 343.316406 87.628906 342.71875 87.015625 L 260.707031 3.460938 C 260.085938 2.757812 259.347656 2.210938 258.492188 1.816406 C 257.636719 1.425781 256.738281 1.226562 255.800781 1.21875 L 54.710938 1.21875 C 54.28125 1.21875 53.855469 1.257812 53.4375 1.34375 C 53.015625 1.425781 52.609375 1.550781 52.210938 1.714844 C 51.816406 1.878906 51.441406 2.078125 51.085938 2.316406 C 50.726562 2.554688 50.398438 2.824219 50.09375 3.128906 C 49.792969 3.433594 49.523438 3.761719 49.285156 4.117188 C 49.046875 4.476562 48.84375 4.851562 48.679688 5.246094 C 48.515625 5.644531 48.394531 6.050781 48.308594 6.472656 C 48.226562 6.890625 48.183594 7.316406 48.183594 7.746094 L 48.183594 152.292969 L 34.035156 152.292969 C 33.007812 152.292969 31.988281 152.390625 30.980469 152.59375 C 29.972656 152.792969 28.992188 153.089844 28.042969 153.484375 C 27.09375 153.878906 26.191406 154.359375 25.335938 154.933594 C 24.480469 155.503906 23.691406 156.152344 22.960938 156.878906 C 22.234375 157.609375 21.585938 158.398438 21.015625 159.253906 C 20.445312 160.109375 19.960938 161.011719 19.566406 161.964844 C 19.175781 162.914062 18.878906 163.894531 18.675781 164.902344 C 18.476562 165.910156 18.375 166.929688 18.375 167.957031 L 18.375 239.8125 L 15.871094 239.8125 C 14.839844 239.8125 13.824219 239.914062 12.816406 240.113281 C 11.804688 240.316406 10.828125 240.613281 9.875 241.007812 C 8.925781 241.398438 8.023438 241.882812 7.167969 242.453125 C 6.3125 243.027344 5.523438 243.675781 4.796875 244.402344 C 4.070312 245.128906 3.417969 245.921875 2.847656 246.777344 C 2.277344 247.632812 1.792969 248.535156 1.402344 249.484375 C 1.007812 250.433594 0.710938 251.414062 0.507812 252.425781 C 0.308594 253.433594 0.207031 254.453125 0.207031 255.480469 C 0.207031 255.480469 0.207031 256.054688 0.207031 256.367188 L 18.269531 390.679688 C 18.308594 391.683594 18.441406 392.675781 18.667969 393.65625 C 18.894531 394.632812 19.214844 395.582031 19.625 396.5 C 20.035156 397.417969 20.527344 398.285156 21.105469 399.109375 C 21.683594 399.929688 22.332031 400.691406 23.054688 401.386719 C 23.78125 402.085938 24.5625 402.707031 25.40625 403.253906 C 26.25 403.800781 27.136719 404.261719 28.070312 404.636719 C 29 405.011719 29.960938 405.296875 30.945312 405.484375 C 31.933594 405.675781 32.929688 405.773438 33.933594 405.773438 L 358.589844 405.773438 C 359.589844 405.773438 360.585938 405.679688 361.570312 405.488281 C 362.554688 405.296875 363.511719 405.015625 364.441406 404.640625 C 365.371094 404.269531 366.257812 403.808594 367.097656 403.265625 C 367.941406 402.71875 368.722656 402.101562 369.449219 401.40625 C 370.171875 400.710938 370.820312 399.957031 371.398438 399.136719 C 371.976562 398.316406 372.472656 397.449219 372.882812 396.535156 C 373.292969 395.621094 373.613281 394.675781 373.84375 393.699219 C 374.074219 392.722656 374.210938 391.734375 374.25 390.730469 L 396.75 235.167969 C 396.777344 234.851562 396.777344 234.539062 396.75 234.226562 C 396.742188 233.203125 396.636719 232.1875 396.429688 231.183594 C 396.226562 230.179688 395.925781 229.207031 395.527344 228.261719 C 395.132812 227.320312 394.648438 226.421875 394.074219 225.574219 C 393.503906 224.722656 392.851562 223.9375 392.125 223.214844 C 391.398438 222.496094 390.609375 221.851562 389.757812 221.28125 C 388.90625 220.714844 388.003906 220.238281 387.058594 219.847656 C 386.113281 219.457031 385.136719 219.160156 384.132812 218.964844 C 383.128906 218.765625 382.113281 218.664062 381.089844 218.664062 Z M 31.324219 239.8125 L 31.324219 167.855469 C 31.328125 167.523438 31.398438 167.207031 31.527344 166.902344 C 31.65625 166.597656 31.835938 166.328125 32.070312 166.097656 C 32.304688 165.863281 32.574219 165.679688 32.878906 165.550781 C 33.179688 165.421875 33.496094 165.355469 33.828125 165.347656 L 47.976562 165.347656 L 47.976562 239.8125 Z M 222.492188 221.746094 L 211.375 239.8125 L 61.234375 239.8125 L 61.234375 14.273438 L 249.429688 14.273438 L 249.429688 91.613281 C 249.445312 92.023438 249.496094 92.433594 249.585938 92.835938 C 249.675781 93.238281 249.804688 93.632812 249.96875 94.011719 C 250.132812 94.390625 250.332031 94.75 250.566406 95.089844 C 250.800781 95.433594 251.0625 95.746094 251.359375 96.039062 C 251.652344 96.332031 251.96875 96.589844 252.3125 96.820312 C 252.65625 97.050781 253.015625 97.25 253.398438 97.410156 C 253.777344 97.574219 254.167969 97.695312 254.574219 97.785156 C 254.976562 97.871094 255.386719 97.921875 255.800781 97.929688 L 331.390625 97.929688 L 331.390625 218.664062 L 228.289062 218.664062 C 227.730469 218.660156 227.179688 218.726562 226.636719 218.863281 C 226.097656 219.003906 225.582031 219.207031 225.09375 219.476562 C 224.605469 219.746094 224.15625 220.074219 223.75 220.457031 C 223.347656 220.839844 222.996094 221.269531 222.703125 221.746094 Z M 344.546875 218.664062 L 344.546875 165.347656 L 358.691406 165.347656 C 359.023438 165.355469 359.339844 165.421875 359.644531 165.550781 C 359.949219 165.679688 360.21875 165.863281 360.449219 166.097656 C 360.683594 166.328125 360.867188 166.597656 360.996094 166.902344 C 361.125 167.207031 361.191406 167.523438 361.199219 167.855469 L 361.199219 218.664062 Z M 344.546875 218.664062 " fill-opacity="1" fill-rule="nonzero"/></g><path fill="#332f2f" d="M 102.789062 70.722656 L 204.902344 70.722656 C 205.328125 70.722656 205.753906 70.679688 206.171875 70.597656 C 206.59375 70.515625 207 70.390625 207.398438 70.226562 C 207.792969 70.0625 208.167969 69.859375 208.527344 69.621094 C 208.882812 69.386719 209.210938 69.113281 209.515625 68.8125 C 209.816406 68.507812 210.089844 68.179688 210.328125 67.820312 C 210.5625 67.464844 210.765625 67.089844 210.929688 66.695312 C 211.09375 66.296875 211.21875 65.890625 211.300781 65.46875 C 211.382812 65.046875 211.425781 64.625 211.425781 64.195312 C 211.425781 63.765625 211.382812 63.34375 211.300781 62.921875 C 211.21875 62.5 211.09375 62.09375 210.929688 61.699219 C 210.765625 61.300781 210.5625 60.925781 210.328125 60.570312 C 210.089844 60.210938 209.816406 59.882812 209.515625 59.578125 C 209.210938 59.277344 208.882812 59.007812 208.527344 58.769531 C 208.167969 58.53125 207.792969 58.328125 207.398438 58.164062 C 207 58 206.59375 57.878906 206.171875 57.792969 C 205.753906 57.710938 205.328125 57.667969 204.902344 57.667969 L 102.789062 57.667969 C 102.359375 57.667969 101.9375 57.710938 101.515625 57.792969 C 101.097656 57.878906 100.6875 58 100.292969 58.164062 C 99.898438 58.328125 99.519531 58.53125 99.164062 58.769531 C 98.808594 59.007812 98.476562 59.277344 98.175781 59.578125 C 97.871094 59.882812 97.601562 60.210938 97.363281 60.570312 C 97.125 60.925781 96.925781 61.300781 96.761719 61.699219 C 96.597656 62.09375 96.472656 62.5 96.390625 62.921875 C 96.304688 63.34375 96.265625 63.765625 96.265625 64.195312 C 96.265625 64.625 96.304688 65.046875 96.390625 65.46875 C 96.472656 65.890625 96.597656 66.296875 96.761719 66.695312 C 96.925781 67.089844 97.125 67.464844 97.363281 67.820312 C 97.601562 68.179688 97.871094 68.507812 98.175781 68.8125 C 98.476562 69.113281 98.808594 69.386719 99.164062 69.621094 C 99.519531 69.859375 99.898438 70.0625 100.292969 70.226562 C 100.6875 70.390625 101.097656 70.515625 101.515625 70.597656 C 101.9375 70.679688 102.359375 70.722656 102.789062 70.722656 Z M 102.789062 70.722656 " fill-opacity="1" fill-rule="nonzero"/><path fill="#332f2f" d="M 138.914062 187.382812 L 102.789062 187.382812 C 102.359375 187.382812 101.9375 187.425781 101.515625 187.511719 C 101.097656 187.59375 100.6875 187.71875 100.292969 187.882812 C 99.898438 188.046875 99.519531 188.246094 99.164062 188.484375 C 98.808594 188.722656 98.476562 188.992188 98.175781 189.296875 C 97.871094 189.597656 97.601562 189.929688 97.363281 190.285156 C 97.125 190.640625 96.925781 191.019531 96.761719 191.414062 C 96.597656 191.808594 96.472656 192.21875 96.390625 192.636719 C 96.304688 193.058594 96.265625 193.484375 96.265625 193.910156 C 96.265625 194.339844 96.304688 194.765625 96.390625 195.183594 C 96.472656 195.605469 96.597656 196.015625 96.761719 196.410156 C 96.925781 196.804688 97.125 197.183594 97.363281 197.539062 C 97.601562 197.894531 97.871094 198.222656 98.175781 198.527344 C 98.476562 198.832031 98.808594 199.101562 99.164062 199.339844 C 99.519531 199.578125 99.898438 199.777344 100.292969 199.941406 C 100.6875 200.105469 101.097656 200.230469 101.515625 200.3125 C 101.9375 200.398438 102.359375 200.441406 102.789062 200.441406 L 138.914062 200.441406 C 139.34375 200.441406 139.765625 200.398438 140.1875 200.3125 C 140.609375 200.230469 141.015625 200.105469 141.410156 199.941406 C 141.808594 199.777344 142.183594 199.578125 142.539062 199.339844 C 142.894531 199.101562 143.226562 198.832031 143.527344 198.527344 C 143.832031 198.222656 144.101562 197.894531 144.339844 197.539062 C 144.578125 197.183594 144.78125 196.804688 144.945312 196.410156 C 145.109375 196.015625 145.230469 195.605469 145.316406 195.183594 C 145.398438 194.765625 145.441406 194.339844 145.441406 193.910156 C 145.441406 193.484375 145.398438 193.058594 145.316406 192.636719 C 145.230469 192.21875 145.109375 191.808594 144.945312 191.414062 C 144.78125 191.019531 144.578125 190.640625 144.339844 190.285156 C 144.101562 189.929688 143.832031 189.597656 143.527344 189.296875 C 143.226562 188.992188 142.894531 188.722656 142.539062 188.484375 C 142.183594 188.246094 141.808594 188.046875 141.410156 187.882812 C 141.015625 187.71875 140.609375 187.59375 140.1875 187.511719 C 139.765625 187.425781 139.34375 187.382812 138.914062 187.382812 Z M 138.914062 187.382812 " fill-opacity="1" fill-rule="nonzero"/><path fill="#332f2f" d="M 218.628906 187.382812 L 170.027344 187.382812 C 169.601562 187.382812 169.175781 187.425781 168.753906 187.511719 C 168.335938 187.59375 167.925781 187.71875 167.53125 187.882812 C 167.136719 188.046875 166.757812 188.246094 166.402344 188.484375 C 166.046875 188.722656 165.71875 188.992188 165.414062 189.296875 C 165.109375 189.597656 164.839844 189.929688 164.601562 190.285156 C 164.363281 190.640625 164.164062 191.019531 164 191.414062 C 163.835938 191.808594 163.710938 192.21875 163.628906 192.636719 C 163.542969 193.058594 163.503906 193.484375 163.503906 193.910156 C 163.503906 194.339844 163.542969 194.765625 163.628906 195.183594 C 163.710938 195.605469 163.835938 196.015625 164 196.410156 C 164.164062 196.804688 164.363281 197.183594 164.601562 197.539062 C 164.839844 197.894531 165.109375 198.222656 165.414062 198.527344 C 165.71875 198.832031 166.046875 199.101562 166.402344 199.339844 C 166.757812 199.578125 167.136719 199.777344 167.53125 199.941406 C 167.925781 200.105469 168.335938 200.230469 168.753906 200.3125 C 169.175781 200.398438 169.601562 200.441406 170.027344 200.441406 L 218.628906 200.441406 C 219.058594 200.441406 219.484375 200.398438 219.902344 200.3125 C 220.324219 200.230469 220.730469 200.105469 221.128906 199.941406 C 221.523438 199.777344 221.898438 199.578125 222.253906 199.339844 C 222.613281 199.101562 222.941406 198.832031 223.246094 198.527344 C 223.546875 198.222656 223.816406 197.894531 224.054688 197.539062 C 224.292969 197.183594 224.496094 196.804688 224.660156 196.410156 C 224.824219 196.015625 224.945312 195.605469 225.03125 195.183594 C 225.113281 194.765625 225.15625 194.339844 225.15625 193.910156 C 225.15625 193.484375 225.113281 193.058594 225.03125 192.636719 C 224.945312 192.21875 224.824219 191.808594 224.660156 191.414062 C 224.496094 191.019531 224.292969 190.640625 224.054688 190.285156 C 223.816406 189.929688 223.546875 189.597656 223.246094 189.296875 C 222.941406 188.992188 222.613281 188.722656 222.253906 188.484375 C 221.898438 188.246094 221.523438 188.046875 221.128906 187.882812 C 220.730469 187.71875 220.324219 187.59375 219.902344 187.511719 C 219.484375 187.425781 219.058594 187.382812 218.628906 187.382812 Z M 218.628906 187.382812 " fill-opacity="1" fill-rule="nonzero"/><path fill="#332f2f" d="M 102.789062 100.070312 L 218.265625 100.070312 C 218.691406 100.070312 219.117188 100.03125 219.539062 99.945312 C 219.957031 99.863281 220.367188 99.738281 220.761719 99.574219 C 221.15625 99.410156 221.535156 99.210938 221.890625 98.972656 C 222.246094 98.734375 222.574219 98.460938 222.878906 98.160156 C 223.183594 97.855469 223.453125 97.527344 223.691406 97.171875 C 223.929688 96.8125 224.128906 96.4375 224.292969 96.042969 C 224.457031 95.644531 224.582031 95.238281 224.664062 94.816406 C 224.75 94.398438 224.789062 93.972656 224.789062 93.542969 C 224.789062 93.113281 224.75 92.691406 224.664062 92.269531 C 224.582031 91.851562 224.457031 91.441406 224.292969 91.046875 C 224.128906 90.648438 223.929688 90.273438 223.691406 89.917969 C 223.453125 89.5625 223.183594 89.230469 222.878906 88.929688 C 222.574219 88.625 222.246094 88.355469 221.890625 88.117188 C 221.535156 87.878906 221.15625 87.675781 220.761719 87.511719 C 220.367188 87.347656 219.957031 87.226562 219.539062 87.140625 C 219.117188 87.058594 218.691406 87.015625 218.265625 87.015625 L 102.789062 87.015625 C 102.359375 87.015625 101.9375 87.058594 101.515625 87.140625 C 101.097656 87.226562 100.6875 87.347656 100.292969 87.511719 C 99.898438 87.675781 99.519531 87.878906 99.164062 88.117188 C 98.808594 88.355469 98.476562 88.625 98.175781 88.929688 C 97.871094 89.230469 97.601562 89.5625 97.363281 89.917969 C 97.125 90.273438 96.925781 90.648438 96.761719 91.046875 C 96.597656 91.441406 96.472656 91.851562 96.390625 92.269531 C 96.304688 92.691406 96.265625 93.113281 96.265625 93.542969 C 96.265625 93.972656 96.304688 94.398438 96.390625 94.816406 C 96.472656 95.238281 96.597656 95.644531 96.761719 96.042969 C 96.925781 96.4375 97.125 96.8125 97.363281 97.171875 C 97.601562 97.527344 97.871094 97.855469 98.175781 98.160156 C 98.476562 98.460938 98.808594 98.734375 99.164062 98.972656 C 99.519531 99.210938 99.898438 99.410156 100.292969 99.574219 C 100.6875 99.738281 101.097656 99.863281 101.515625 99.945312 C 101.9375 100.03125 102.359375 100.070312 102.789062 100.070312 Z M 102.789062 100.070312 " fill-opacity="1" fill-rule="nonzero"/><path fill="#332f2f" d="M 261.019531 154.695312 L 102.789062 154.695312 C 102.359375 154.695312 101.9375 154.734375 101.515625 154.820312 C 101.097656 154.902344 100.6875 155.027344 100.292969 155.191406 C 99.898438 155.355469 99.519531 155.554688 99.164062 155.792969 C 98.808594 156.03125 98.476562 156.304688 98.175781 156.605469 C 97.871094 156.910156 97.601562 157.238281 97.363281 157.59375 C 97.125 157.953125 96.925781 158.328125 96.761719 158.722656 C 96.597656 159.121094 96.472656 159.527344 96.390625 159.949219 C 96.304688 160.367188 96.265625 160.792969 96.265625 161.222656 C 96.265625 161.648438 96.304688 162.074219 96.390625 162.496094 C 96.472656 162.914062 96.597656 163.324219 96.761719 163.71875 C 96.925781 164.117188 97.125 164.492188 97.363281 164.847656 C 97.601562 165.203125 97.871094 165.535156 98.175781 165.835938 C 98.476562 166.140625 98.808594 166.410156 99.164062 166.648438 C 99.519531 166.886719 99.898438 167.089844 100.292969 167.253906 C 100.6875 167.417969 101.097656 167.539062 101.515625 167.625 C 101.9375 167.707031 102.359375 167.75 102.789062 167.75 L 261.019531 167.75 C 261.449219 167.75 261.871094 167.707031 262.292969 167.625 C 262.714844 167.539062 263.121094 167.417969 263.515625 167.253906 C 263.914062 167.089844 264.289062 166.886719 264.644531 166.648438 C 265 166.410156 265.332031 166.140625 265.632812 165.835938 C 265.9375 165.535156 266.207031 165.203125 266.445312 164.847656 C 266.683594 164.492188 266.882812 164.117188 267.046875 163.71875 C 267.210938 163.324219 267.335938 162.914062 267.417969 162.496094 C 267.503906 162.074219 267.546875 161.648438 267.546875 161.222656 C 267.546875 160.792969 267.503906 160.367188 267.417969 159.949219 C 267.335938 159.527344 267.210938 159.121094 267.046875 158.722656 C 266.882812 158.328125 266.683594 157.953125 266.445312 157.59375 C 266.207031 157.238281 265.9375 156.910156 265.632812 156.605469 C 265.332031 156.304688 265 156.03125 264.644531 155.792969 C 264.289062 155.554688 263.914062 155.355469 263.515625 155.191406 C 263.121094 155.027344 262.714844 154.902344 262.292969 154.820312 C 261.871094 154.734375 261.449219 154.695312 261.019531 154.695312 Z M 261.019531 154.695312 " fill-opacity="1" fill-rule="nonzero"/><path fill="#332f2f" d="M 295.734375 121.21875 L 102.582031 121.21875 C 102.152344 121.21875 101.726562 121.261719 101.304688 121.34375 C 100.886719 121.425781 100.476562 121.550781 100.082031 121.714844 C 99.683594 121.878906 99.308594 122.078125 98.949219 122.316406 C 98.59375 122.554688 98.265625 122.828125 97.960938 123.128906 C 97.65625 123.433594 97.386719 123.761719 97.148438 124.117188 C 96.910156 124.476562 96.707031 124.851562 96.542969 125.25 C 96.378906 125.644531 96.253906 126.054688 96.171875 126.472656 C 96.089844 126.894531 96.046875 127.320312 96.046875 127.75 C 96.046875 128.175781 96.089844 128.601562 96.171875 129.023438 C 96.253906 129.445312 96.378906 129.851562 96.542969 130.25 C 96.707031 130.644531 96.910156 131.019531 97.148438 131.378906 C 97.386719 131.734375 97.65625 132.0625 97.960938 132.367188 C 98.265625 132.671875 98.59375 132.941406 98.949219 133.179688 C 99.308594 133.417969 99.683594 133.617188 100.082031 133.78125 C 100.476562 133.945312 100.886719 134.070312 101.304688 134.152344 C 101.726562 134.234375 102.152344 134.277344 102.582031 134.277344 L 295.734375 134.277344 C 296.164062 134.277344 296.589844 134.234375 297.007812 134.148438 C 297.429688 134.066406 297.835938 133.941406 298.234375 133.777344 C 298.628906 133.613281 299.003906 133.414062 299.359375 133.175781 C 299.71875 132.9375 300.046875 132.667969 300.347656 132.363281 C 300.652344 132.0625 300.921875 131.730469 301.160156 131.375 C 301.398438 131.019531 301.601562 130.640625 301.765625 130.246094 C 301.929688 129.851562 302.050781 129.441406 302.136719 129.023438 C 302.21875 128.601562 302.261719 128.175781 302.261719 127.75 C 302.261719 127.320312 302.21875 126.894531 302.136719 126.476562 C 302.050781 126.054688 301.929688 125.644531 301.765625 125.25 C 301.601562 124.855469 301.398438 124.476562 301.160156 124.121094 C 300.921875 123.765625 300.652344 123.4375 300.347656 123.132812 C 300.046875 122.828125 299.71875 122.558594 299.359375 122.320312 C 299.003906 122.082031 298.628906 121.882812 298.234375 121.71875 C 297.835938 121.554688 297.429688 121.429688 297.007812 121.347656 C 296.589844 121.261719 296.164062 121.21875 295.734375 121.21875 Z M 295.734375 121.21875 " fill-opacity="1" fill-rule="nonzero"/></svg>