<svg xmlns="http://www.w3.org/2000/svg" xmlns:xlink="http://www.w3.org/1999/xlink" width="529" zoomAndPan="magnify" viewBox="0 0 396.75 396.749984" height="529" preserveAspectRatio="xMidYMid meet" version="1.0"><defs><clipPath id="id1"><path d="M 7.039062 1.625 L 389.539062 1.625 L 389.539062 395.375 L 7.039062 395.375 Z M 7.039062 1.625 " clip-rule="nonzero"/></clipPath></defs><g clip-path="url(#id1)"><path fill="#ffffff" d="M 67.609375 318.714844 L 64.691406 318.304688 C 64.914062 318.292969 65.136719 318.292969 65.359375 318.304688 C 66.136719 318.292969 66.886719 318.429688 67.609375 318.714844 Z M 389.539062 112.585938 L 389.539062 160.082031 C 389.535156 160.871094 389.496094 161.65625 389.417969 162.441406 C 389.339844 163.226562 389.226562 164.003906 389.070312 164.777344 C 388.917969 165.550781 388.722656 166.316406 388.496094 167.070312 C 388.265625 167.824219 388 168.566406 387.699219 169.292969 C 387.398438 170.019531 387.058594 170.734375 386.6875 171.429688 C 386.316406 172.121094 385.914062 172.796875 385.476562 173.453125 C 385.035156 174.109375 384.566406 174.742188 384.070312 175.351562 C 383.570312 175.960938 383.039062 176.542969 382.484375 177.101562 C 381.925781 177.65625 381.34375 178.1875 380.734375 178.6875 C 380.128906 179.1875 379.496094 179.65625 378.839844 180.09375 C 378.1875 180.53125 377.511719 180.9375 376.816406 181.308594 C 376.125 181.683594 375.414062 182.019531 374.683594 182.320312 C 373.957031 182.625 373.21875 182.890625 372.464844 183.117188 C 371.710938 183.347656 370.949219 183.539062 370.175781 183.695312 C 369.402344 183.847656 368.625 183.964844 367.84375 184.042969 C 367.058594 184.121094 366.273438 184.160156 365.484375 184.164062 L 351.328125 184.164062 C 349.210938 184.167969 347.132812 183.894531 345.089844 183.34375 C 343.046875 182.792969 341.113281 181.984375 339.285156 180.917969 L 339.285156 338.738281 C 339.285156 339.132812 339.246094 339.523438 339.167969 339.910156 C 339.09375 340.296875 338.980469 340.675781 338.828125 341.039062 C 338.679688 341.402344 338.492188 341.75 338.273438 342.078125 C 338.054688 342.40625 337.804688 342.710938 337.527344 342.988281 C 337.25 343.269531 336.945312 343.519531 336.617188 343.738281 C 336.289062 343.957031 335.945312 344.144531 335.582031 344.292969 C 335.21875 344.445312 334.839844 344.558594 334.453125 344.636719 C 334.070312 344.714844 333.679688 344.753906 333.285156 344.753906 L 256.648438 344.753906 C 256.253906 344.753906 255.863281 344.714844 255.476562 344.640625 C 255.089844 344.5625 254.714844 344.449219 254.351562 344.296875 C 253.988281 344.144531 253.640625 343.960938 253.3125 343.742188 C 252.984375 343.519531 252.683594 343.269531 252.402344 342.992188 C 252.125 342.710938 251.875 342.410156 251.65625 342.082031 C 251.4375 341.75 251.253906 341.40625 251.101562 341.039062 C 250.953125 340.675781 250.839844 340.300781 250.761719 339.910156 C 250.6875 339.523438 250.648438 339.132812 250.648438 338.738281 L 250.648438 305.46875 L 222.003906 322.660156 L 222.003906 355.574219 C 223.226562 355.78125 224.421875 356.101562 225.585938 356.53125 C 226.75 356.964844 227.867188 357.5 228.933594 358.136719 C 230 358.777344 230.996094 359.507812 231.925781 360.335938 C 232.855469 361.160156 233.699219 362.0625 234.460938 363.046875 C 235.222656 364.027344 235.886719 365.074219 236.453125 366.179688 C 237.019531 367.285156 237.480469 368.433594 237.832031 369.628906 C 238.1875 370.820312 238.425781 372.035156 238.554688 373.269531 C 238.679688 374.507812 238.691406 375.746094 238.589844 376.984375 C 238.484375 378.222656 238.269531 379.445312 237.941406 380.640625 C 237.609375 381.839844 237.171875 383 236.625 384.117188 C 236.082031 385.234375 235.4375 386.289062 234.695312 387.289062 C 233.953125 388.285156 233.125 389.207031 232.214844 390.046875 C 231.300781 390.890625 230.316406 391.644531 229.265625 392.300781 C 228.210938 392.960938 227.105469 393.519531 225.949219 393.972656 C 224.792969 394.425781 223.605469 394.769531 222.382812 395 C 221.164062 395.234375 219.933594 395.351562 218.691406 395.355469 L 62.671875 395.355469 C 61.429688 395.351562 60.195312 395.234375 58.976562 395.003906 C 57.753906 394.773438 56.566406 394.433594 55.40625 393.980469 C 54.25 393.527344 53.144531 392.972656 52.089844 392.3125 C 51.035156 391.652344 50.054688 390.902344 49.136719 390.058594 C 48.222656 389.21875 47.394531 388.296875 46.652344 387.300781 C 45.910156 386.304688 45.265625 385.246094 44.71875 384.128906 C 44.171875 383.011719 43.734375 381.855469 43.402344 380.65625 C 43.070312 379.457031 42.855469 378.238281 42.75 376.996094 C 42.648438 375.757812 42.65625 374.519531 42.785156 373.28125 C 42.910156 372.042969 43.152344 370.828125 43.503906 369.636719 C 43.855469 368.441406 44.316406 367.292969 44.882812 366.1875 C 45.449219 365.078125 46.113281 364.035156 46.875 363.050781 C 47.636719 362.066406 48.480469 361.164062 49.410156 360.335938 C 50.339844 359.511719 51.335938 358.78125 52.402344 358.140625 C 53.46875 357.5 54.585938 356.964844 55.75 356.535156 C 56.914062 356.101562 58.109375 355.78125 59.335938 355.574219 L 59.335938 329.707031 L 12.457031 323.25 C 12.035156 323.191406 11.628906 323.089844 11.226562 322.941406 C 10.828125 322.796875 10.449219 322.613281 10.089844 322.386719 C 9.730469 322.160156 9.398438 321.898438 9.09375 321.601562 C 8.792969 321.304688 8.519531 320.980469 8.285156 320.625 C 8.050781 320.273438 7.855469 319.898438 7.699219 319.503906 C 7.542969 319.109375 7.429688 318.699219 7.359375 318.28125 C 7.289062 317.863281 7.261719 317.441406 7.28125 317.015625 C 7.300781 316.589844 7.363281 316.171875 7.46875 315.761719 L 14.0625 290.722656 C 14.839844 287.742188 15.78125 284.820312 16.886719 281.945312 C 17.992188 279.070312 19.253906 276.269531 20.671875 273.539062 C 22.089844 270.804688 23.65625 268.160156 25.371094 265.605469 C 27.082031 263.046875 28.933594 260.59375 30.917969 258.246094 C 32.90625 255.894531 35.015625 253.664062 37.253906 251.546875 C 39.488281 249.433594 41.835938 247.453125 44.292969 245.601562 C 46.75 243.75 49.300781 242.039062 51.949219 240.472656 C 54.597656 238.910156 57.324219 237.496094 60.128906 236.234375 L 94.582031 220.660156 L 100.496094 206.777344 L 95.203125 207.5625 C 93.8125 207.777344 92.410156 207.882812 91.003906 207.878906 C 89.71875 207.878906 88.441406 207.789062 87.171875 207.613281 C 85.902344 207.4375 84.648438 207.175781 83.414062 206.828125 C 82.179688 206.480469 80.972656 206.050781 79.796875 205.535156 C 78.621094 205.023438 77.484375 204.429688 76.390625 203.761719 C 75.296875 203.089844 74.253906 202.351562 73.257812 201.539062 C 72.265625 200.722656 71.332031 199.847656 70.460938 198.90625 C 69.585938 197.964844 68.78125 196.96875 68.046875 195.917969 C 67.308594 194.867188 66.648438 193.769531 66.0625 192.625 L 56.230469 173.46875 C 55.496094 172.042969 54.964844 170.542969 54.632812 168.972656 C 54.304688 167.402344 54.1875 165.816406 54.285156 164.214844 C 54.386719 162.609375 54.695312 161.050781 55.214844 159.53125 C 55.730469 158.011719 56.441406 156.589844 57.347656 155.265625 L 48.765625 154.585938 C 48.101562 154.535156 47.445312 154.441406 46.796875 154.304688 C 46.144531 154.167969 45.507812 153.988281 44.878906 153.769531 C 44.25 153.550781 43.640625 153.292969 43.046875 152.996094 C 42.449219 152.699219 41.878906 152.367188 41.328125 151.996094 C 40.773438 151.625 40.25 151.21875 39.75 150.78125 C 39.25 150.34375 38.78125 149.875 38.339844 149.375 C 37.898438 148.878906 37.492188 148.351562 37.121094 147.800781 C 36.75 147.25 36.414062 146.679688 36.113281 146.085938 C 35.816406 145.492188 35.554688 144.878906 35.332031 144.253906 C 35.113281 143.625 34.933594 142.984375 34.792969 142.335938 C 34.65625 141.683594 34.558594 141.027344 34.503906 140.367188 C 34.449219 139.703125 34.4375 139.039062 34.46875 138.375 C 34.496094 137.710938 34.570312 137.050781 34.683594 136.394531 C 34.800781 135.738281 34.957031 135.09375 35.152344 134.460938 C 35.351562 133.824219 35.589844 133.203125 35.867188 132.601562 C 36.140625 131.996094 36.457031 131.410156 36.808594 130.847656 L 54.6875 102.144531 C 55.265625 101.210938 55.667969 100.207031 55.894531 99.136719 C 56.125 98.0625 56.167969 96.980469 56.023438 95.894531 L 52.242188 68.167969 C 46.796875 65.789062 41.890625 62.585938 37.515625 58.5625 C 37.246094 58.308594 37 58.03125 36.78125 57.730469 C 36.558594 57.429688 36.371094 57.109375 36.210938 56.777344 C 36.046875 56.441406 35.921875 56.09375 35.824219 55.730469 C 35.726562 55.371094 35.664062 55.007812 35.636719 54.636719 C 35.609375 54.265625 35.613281 53.894531 35.652344 53.523438 C 35.695312 53.152344 35.769531 52.789062 35.875 52.433594 C 35.984375 52.078125 36.125 51.734375 36.292969 51.402344 C 36.464844 51.074219 36.667969 50.761719 36.894531 50.46875 C 40.601562 45.804688 44.960938 41.867188 49.976562 38.65625 C 47.695312 32.121094 46.757812 25.402344 47.167969 18.492188 C 47.191406 18.117188 47.246094 17.75 47.339844 17.386719 C 47.429688 17.023438 47.554688 16.671875 47.710938 16.335938 C 47.867188 15.996094 48.054688 15.671875 48.273438 15.367188 C 48.488281 15.0625 48.730469 14.78125 49 14.523438 C 49.269531 14.261719 49.5625 14.03125 49.875 13.828125 C 50.1875 13.621094 50.515625 13.449219 50.859375 13.304688 C 51.207031 13.160156 51.5625 13.050781 51.925781 12.972656 C 52.292969 12.894531 52.660156 12.851562 53.035156 12.84375 C 56.96875 12.765625 67.265625 13.144531 76.820312 18.269531 C 76.972656 18.347656 77.125 18.429688 77.269531 18.523438 C 92.277344 7.949219 110.832031 1.648438 127.703125 1.648438 L 146.636719 1.648438 C 192.253906 1.648438 229.417969 37.40625 229.417969 81.359375 C 229.417969 83.753906 229.269531 86.140625 228.972656 88.515625 L 365.507812 88.515625 C 366.296875 88.515625 367.082031 88.558594 367.863281 88.636719 C 368.648438 88.714844 369.421875 88.832031 370.195312 88.984375 C 370.96875 89.140625 371.730469 89.332031 372.480469 89.5625 C 373.234375 89.792969 373.972656 90.058594 374.699219 90.359375 C 375.425781 90.664062 376.136719 91 376.832031 91.371094 C 377.523438 91.742188 378.199219 92.148438 378.851562 92.585938 C 379.507812 93.027344 380.136719 93.496094 380.746094 93.996094 C 381.351562 94.496094 381.933594 95.023438 382.492188 95.582031 C 383.046875 96.136719 383.574219 96.722656 384.074219 97.328125 C 384.574219 97.9375 385.042969 98.570312 385.480469 99.226562 C 385.917969 99.878906 386.320312 100.554688 386.691406 101.25 C 387.0625 101.945312 387.398438 102.65625 387.699219 103.382812 C 388.003906 104.109375 388.265625 104.851562 388.496094 105.605469 C 388.726562 106.359375 388.917969 107.121094 389.070312 107.894531 C 389.226562 108.667969 389.339844 109.445312 389.417969 110.230469 C 389.496094 111.011719 389.535156 111.800781 389.539062 112.585938 Z M 59.265625 25.269531 C 59.507812 28.226562 60.09375 31.113281 61.027344 33.933594 C 63.144531 33.386719 65.292969 33.054688 67.476562 32.941406 C 70.867188 32.761719 74.199219 33.125 77.472656 34.027344 C 72.433594 28.058594 64.769531 25.964844 59.265625 25.269531 Z M 69.207031 59.285156 C 74.59375 58.742188 79.613281 55.925781 84.152344 50.902344 C 78.867188 46.648438 73.46875 44.601562 68.066406 44.917969 C 65.394531 45.078125 62.828125 45.695312 60.375 46.765625 L 59.941406 46.964844 C 56.410156 48.621094 53.234375 50.796875 50.417969 53.492188 C 54.859375 56.515625 61.78125 60.027344 69.207031 59.261719 Z M 105.859375 260.941406 L 111.972656 263.800781 C 113.007812 264.28125 114.085938 264.621094 115.207031 264.824219 C 116.332031 265.023438 117.460938 265.078125 118.597656 264.988281 C 119.734375 264.898438 120.839844 264.664062 121.917969 264.285156 C 122.992188 263.90625 124.003906 263.398438 124.949219 262.761719 L 180.316406 225.011719 L 180.316406 141.320312 C 180.304688 141.117188 180.304688 140.914062 180.316406 140.714844 C 180.328125 140.566406 180.347656 140.417969 180.378906 140.273438 C 180.386719 140.1875 180.402344 140.101562 180.425781 140.019531 C 180.457031 139.839844 180.503906 139.667969 180.574219 139.5 C 180.617188 139.355469 180.667969 139.214844 180.722656 139.074219 C 180.789062 138.898438 180.867188 138.726562 180.960938 138.5625 C 180.996094 138.492188 181.035156 138.425781 181.078125 138.359375 C 181.148438 138.234375 181.226562 138.097656 181.304688 137.980469 C 181.398438 137.839844 181.503906 137.703125 181.613281 137.570312 L 181.667969 137.507812 C 181.777344 137.363281 181.898438 137.230469 182.03125 137.105469 C 182.144531 136.984375 182.265625 136.871094 182.398438 136.769531 C 182.574219 136.617188 182.757812 136.472656 182.949219 136.34375 C 200.136719 124.53125 211.800781 109.058594 215.820312 93.34375 C 216.839844 89.421875 217.367188 85.433594 217.394531 81.382812 C 217.394531 44.058594 185.648438 13.664062 146.605469 13.664062 L 127.703125 13.664062 C 114.238281 13.664062 99.441406 18.390625 86.960938 26.484375 C 89.640625 29.707031 91.609375 33.316406 92.867188 37.316406 C 92.90625 36.167969 92.976562 35.214844 93.039062 34.507812 C 93.074219 34.136719 93.140625 33.773438 93.242188 33.417969 C 93.34375 33.058594 93.480469 32.714844 93.644531 32.382812 C 93.808594 32.050781 94.003906 31.738281 94.226562 31.441406 C 94.449219 31.144531 94.699219 30.871094 94.972656 30.621094 C 95.246094 30.371094 95.542969 30.148438 95.859375 29.953125 C 96.171875 29.757812 96.503906 29.59375 96.847656 29.457031 C 97.195312 29.324219 97.550781 29.222656 97.914062 29.152344 C 98.277344 29.085938 98.648438 29.050781 99.015625 29.050781 L 99.089844 29.050781 C 104.058594 29.113281 121.113281 30.269531 131.644531 42.609375 C 132.25 43.324219 132.832031 44.058594 133.367188 44.820312 C 134.617188 40.527344 136.371094 36.449219 138.628906 32.585938 C 138.820312 32.265625 139.039062 31.960938 139.285156 31.683594 C 139.535156 31.402344 139.804688 31.144531 140.101562 30.914062 C 140.394531 30.6875 140.710938 30.484375 141.042969 30.3125 C 141.375 30.140625 141.722656 30.003906 142.078125 29.898438 C 142.4375 29.789062 142.804688 29.71875 143.175781 29.679688 C 143.546875 29.640625 143.921875 29.636719 144.292969 29.667969 C 144.667969 29.699219 145.035156 29.765625 145.394531 29.867188 C 145.753906 29.964844 146.101562 30.097656 146.4375 30.261719 C 149.921875 31.964844 159.753906 37.429688 165.921875 47.207031 C 166.855469 45.183594 167.738281 43.601562 168.320312 42.609375 C 168.511719 42.285156 168.726562 41.984375 168.976562 41.699219 C 169.222656 41.417969 169.492188 41.160156 169.785156 40.929688 C 170.082031 40.695312 170.394531 40.492188 170.726562 40.320312 C 171.058594 40.148438 171.40625 40.007812 171.765625 39.898438 C 172.121094 39.789062 172.488281 39.714844 172.859375 39.675781 C 173.234375 39.636719 173.605469 39.628906 173.980469 39.660156 C 174.355469 39.691406 174.722656 39.753906 175.082031 39.851562 C 175.445312 39.953125 175.792969 40.082031 176.128906 40.246094 C 180.582031 42.4375 195.480469 50.789062 199.726562 66.46875 C 202.433594 76.46875 200.183594 87.019531 193.027344 97.816406 C 192.46875 98.652344 191.746094 99.308594 190.859375 99.785156 C 189.976562 100.261719 189.027344 100.5 188.023438 100.5 C 187.203125 100.496094 186.417969 100.332031 185.664062 100.003906 C 176.460938 96.066406 169.792969 90.609375 165.773438 83.773438 C 165.046875 85.105469 164.199219 86.445312 163.339844 87.785156 C 162.785156 88.625 162.066406 89.28125 161.179688 89.757812 C 160.292969 90.238281 159.34375 90.476562 158.339844 90.476562 C 157.515625 90.476562 156.730469 90.3125 155.980469 89.980469 C 148.042969 86.570312 142.003906 82.058594 137.890625 76.5 C 137.34375 77.226562 136.667969 77.804688 135.863281 78.230469 C 135.058594 78.652344 134.203125 78.886719 133.296875 78.925781 C 132.507812 78.925781 131.769531 78.925781 131.015625 78.925781 C 119.167969 78.925781 109.777344 75.34375 103.082031 68.253906 C 99.738281 64.683594 97.25 60.59375 95.613281 55.980469 C 88.445312 65.136719 79.984375 70.269531 70.441406 71.246094 C 69.339844 71.363281 68.238281 71.421875 67.128906 71.421875 C 66.34375 71.421875 65.558594 71.421875 64.769531 71.335938 L 67.917969 94.304688 C 68.253906 96.78125 68.160156 99.238281 67.636719 101.683594 C 67.113281 104.128906 66.191406 106.410156 64.875 108.53125 L 47.003906 137.207031 C 46.84375 137.46875 46.714844 137.742188 46.625 138.03125 C 46.535156 138.324219 46.484375 138.621094 46.472656 138.925781 C 46.460938 139.226562 46.484375 139.527344 46.550781 139.828125 C 46.613281 140.125 46.714844 140.40625 46.855469 140.679688 C 46.992188 140.949219 47.164062 141.199219 47.363281 141.425781 C 47.566406 141.652344 47.796875 141.851562 48.050781 142.019531 C 48.300781 142.1875 48.574219 142.320312 48.859375 142.417969 C 49.148438 142.515625 49.445312 142.574219 49.746094 142.59375 L 68.710938 144.097656 C 69.242188 144.140625 69.753906 144.246094 70.253906 144.425781 C 70.753906 144.601562 71.222656 144.839844 71.660156 145.140625 C 72.097656 145.441406 72.488281 145.792969 72.832031 146.199219 C 73.175781 146.601562 73.460938 147.042969 73.6875 147.523438 C 73.914062 148.003906 74.074219 148.503906 74.167969 149.027344 C 74.265625 149.550781 74.289062 150.074219 74.246094 150.605469 C 74.199219 151.132812 74.085938 151.648438 73.90625 152.148438 C 73.726562 152.644531 73.484375 153.113281 73.179688 153.546875 L 67.335938 161.996094 C 67.03125 162.433594 66.792969 162.898438 66.617188 163.402344 C 66.441406 163.902344 66.335938 164.417969 66.304688 164.945312 C 66.269531 165.476562 66.304688 166 66.414062 166.519531 C 66.523438 167.039062 66.699219 167.535156 66.941406 168.003906 L 76.78125 187.171875 C 77.164062 187.914062 77.597656 188.621094 78.089844 189.296875 C 78.582031 189.972656 79.125 190.605469 79.714844 191.199219 C 80.304688 191.789062 80.9375 192.328125 81.613281 192.820312 C 82.289062 193.3125 82.996094 193.75 83.742188 194.132812 C 84.484375 194.511719 85.25 194.832031 86.042969 195.09375 C 86.835938 195.355469 87.644531 195.554688 88.46875 195.6875 C 89.292969 195.824219 90.121094 195.894531 90.957031 195.898438 C 91.792969 195.90625 92.621094 195.84375 93.449219 195.722656 L 106.898438 193.691406 C 109.984375 193.214844 112.992188 192.445312 115.925781 191.378906 C 118.859375 190.308594 121.660156 188.964844 124.324219 187.34375 C 126.992188 185.722656 129.476562 183.855469 131.777344 181.742188 C 134.078125 179.628906 136.148438 177.3125 137.992188 174.792969 L 142.496094 168.59375 C 142.730469 168.277344 142.992188 167.980469 143.28125 167.714844 C 143.570312 167.445312 143.886719 167.210938 144.222656 167.003906 C 144.558594 166.796875 144.910156 166.625 145.28125 166.492188 C 145.652344 166.355469 146.03125 166.253906 146.421875 166.195312 C 146.8125 166.132812 147.203125 166.109375 147.597656 166.125 C 147.992188 166.144531 148.382812 166.195312 148.765625 166.289062 C 149.148438 166.382812 149.519531 166.511719 149.878906 166.679688 C 150.234375 166.84375 150.574219 167.042969 150.894531 167.277344 C 151.210938 167.507812 151.503906 167.769531 151.773438 168.0625 C 152.039062 168.351562 152.277344 168.664062 152.480469 169.003906 C 152.6875 169.339844 152.859375 169.695312 152.992188 170.066406 C 153.128906 170.4375 153.226562 170.816406 153.289062 171.207031 C 153.347656 171.597656 153.371094 171.988281 153.355469 172.382812 C 153.339844 172.78125 153.285156 173.167969 153.191406 173.550781 C 153.097656 173.9375 152.96875 174.308594 152.800781 174.664062 C 152.636719 175.023438 152.4375 175.363281 152.203125 175.683594 L 147.695312 181.886719 C 145.6875 184.636719 143.460938 187.195312 141.011719 189.5625 C 138.566406 191.933594 135.933594 194.074219 133.121094 195.992188 C 130.304688 197.90625 127.347656 199.570312 124.25 200.976562 C 121.152344 202.386719 117.953125 203.523438 114.660156 204.382812 L 98.65625 241.925781 C 98.285156 242.789062 98 243.679688 97.800781 244.597656 C 97.601562 245.515625 97.492188 246.441406 97.472656 247.382812 C 97.453125 248.320312 97.523438 249.253906 97.679688 250.175781 C 97.839844 251.101562 98.085938 252.003906 98.417969 252.882812 C 98.753906 253.761719 99.167969 254.597656 99.660156 255.394531 C 100.15625 256.195312 100.722656 256.9375 101.359375 257.625 C 101.996094 258.3125 102.695312 258.9375 103.449219 259.488281 C 104.207031 260.042969 105.011719 260.519531 105.859375 260.917969 Z M 111.816406 60.074219 C 115.535156 64.011719 120.828125 66.269531 127.585938 66.839844 C 127.734375 60.050781 126.011719 54.546875 122.511719 50.429688 C 117.660156 44.75 110.234375 42.515625 104.925781 41.640625 C 105.238281 47.019531 106.679688 54.640625 111.816406 60.074219 Z M 144.636719 63.742188 C 146.304688 68.894531 150.144531 73.191406 155.980469 76.617188 C 159.03125 70.554688 159.847656 64.855469 158.433594 59.625 C 156.484375 52.414062 150.734375 47.199219 146.3125 44.128906 C 144.292969 49.113281 142.324219 56.625 144.636719 63.742188 Z M 174.328125 73.757812 C 175.996094 78.917969 179.835938 83.207031 185.671875 86.648438 C 188.722656 80.578125 189.542969 74.839844 188.125 69.648438 C 186.175781 62.429688 180.425781 57.214844 176.003906 54.152344 C 174.023438 59.128906 172.007812 66.648438 174.328125 73.757812 Z M 218.691406 367.304688 L 62.671875 367.304688 C 62.15625 367.320312 61.648438 367.386719 61.144531 367.5 C 60.640625 367.617188 60.15625 367.777344 59.683594 367.984375 C 59.214844 368.195312 58.765625 368.445312 58.34375 368.742188 C 57.921875 369.035156 57.53125 369.367188 57.171875 369.738281 C 56.8125 370.109375 56.492188 370.511719 56.210938 370.941406 C 55.929688 371.375 55.695312 371.832031 55.5 372.308594 C 55.308594 372.785156 55.160156 373.277344 55.0625 373.785156 C 54.964844 374.292969 54.914062 374.800781 54.914062 375.316406 C 54.914062 375.832031 54.964844 376.34375 55.0625 376.851562 C 55.160156 377.355469 55.308594 377.847656 55.5 378.328125 C 55.695312 378.804688 55.929688 379.261719 56.210938 379.691406 C 56.492188 380.125 56.8125 380.527344 57.171875 380.898438 C 57.53125 381.265625 57.921875 381.597656 58.34375 381.894531 C 58.765625 382.1875 59.214844 382.441406 59.683594 382.648438 C 60.15625 382.859375 60.640625 383.019531 61.144531 383.132812 C 61.648438 383.25 62.15625 383.3125 62.671875 383.328125 L 218.691406 383.328125 C 219.226562 383.347656 219.757812 383.308594 220.289062 383.21875 C 220.816406 383.128906 221.332031 382.988281 221.832031 382.792969 C 222.332031 382.601562 222.808594 382.359375 223.257812 382.070312 C 223.710938 381.777344 224.128906 381.449219 224.515625 381.074219 C 224.898438 380.699219 225.242188 380.292969 225.546875 379.847656 C 225.851562 379.40625 226.105469 378.9375 226.316406 378.441406 C 226.523438 377.949219 226.683594 377.4375 226.789062 376.914062 C 226.894531 376.386719 226.949219 375.855469 226.949219 375.316406 C 226.949219 374.78125 226.894531 374.25 226.789062 373.722656 C 226.683594 373.195312 226.523438 372.6875 226.316406 372.191406 C 226.105469 371.699219 225.851562 371.230469 225.546875 370.785156 C 225.242188 370.34375 224.898438 369.933594 224.515625 369.5625 C 224.128906 369.1875 223.710938 368.855469 223.257812 368.566406 C 222.808594 368.277344 222.332031 368.035156 221.832031 367.84375 C 221.332031 367.648438 220.816406 367.507812 220.289062 367.417969 C 219.757812 367.324219 219.226562 367.289062 218.691406 367.304688 Z M 210.039062 355.28125 L 210.039062 329.871094 L 183.941406 345.542969 C 182.992188 346.117188 181.960938 346.402344 180.851562 346.398438 C 180.585938 346.398438 180.324219 346.382812 180.0625 346.34375 L 71.394531 331.382812 L 71.394531 355.296875 Z M 246.269531 266.816406 C 246.265625 265.960938 246.226562 265.105469 246.148438 264.253906 C 246.070312 263.402344 245.953125 262.554688 245.796875 261.714844 C 245.644531 260.871094 245.449219 260.039062 245.21875 259.214844 C 244.992188 258.390625 244.722656 257.578125 244.421875 256.777344 C 244.117188 255.976562 243.777344 255.191406 243.40625 254.421875 C 243.03125 253.652344 242.621094 252.902344 242.179688 252.171875 C 241.738281 251.4375 241.265625 250.726562 240.757812 250.035156 C 240.253906 249.347656 239.714844 248.679688 239.152344 248.039062 C 238.585938 247.398438 237.992188 246.785156 237.367188 246.195312 C 236.746094 245.609375 236.101562 245.050781 235.429688 244.519531 C 234.757812 243.992188 234.0625 243.496094 233.347656 243.027344 C 232.628906 242.5625 231.894531 242.128906 231.136719 241.730469 C 230.378906 241.328125 229.609375 240.964844 228.820312 240.632812 C 228.03125 240.304688 227.230469 240.011719 226.414062 239.753906 C 225.597656 239.496094 224.773438 239.277344 223.9375 239.09375 C 223.101562 238.910156 222.261719 238.765625 221.414062 238.660156 L 187.835938 234.460938 L 131.707031 272.675781 C 130.804688 273.285156 129.871094 273.832031 128.902344 274.320312 C 127.929688 274.808594 126.933594 275.234375 125.90625 275.59375 C 124.882812 275.953125 123.835938 276.246094 122.773438 276.472656 C 121.710938 276.695312 120.640625 276.851562 119.554688 276.941406 C 118.472656 277.027344 117.390625 277.042969 116.304688 276.992188 C 115.21875 276.9375 114.140625 276.816406 113.074219 276.625 C 112.003906 276.433594 110.949219 276.171875 109.914062 275.84375 C 108.878906 275.519531 107.867188 275.125 106.882812 274.667969 L 100.777344 271.808594 C 100.003906 271.449219 99.246094 271.054688 98.507812 270.621094 C 97.773438 270.1875 97.058594 269.71875 96.363281 269.21875 C 95.671875 268.714844 95.007812 268.179688 94.363281 267.613281 C 93.722656 267.046875 93.113281 266.453125 92.527344 265.828125 C 91.945312 265.203125 91.394531 264.550781 90.875 263.871094 C 90.351562 263.191406 89.867188 262.488281 89.414062 261.761719 C 88.960938 261.035156 88.542969 260.289062 88.164062 259.523438 C 87.785156 258.757812 87.441406 257.976562 87.136719 257.175781 C 86.832031 256.375 86.566406 255.5625 86.339844 254.738281 C 86.109375 253.914062 85.925781 253.078125 85.777344 252.234375 C 85.632812 251.394531 85.527344 250.542969 85.460938 249.691406 C 85.398438 248.839844 85.375 247.984375 85.394531 247.128906 C 85.410156 246.273438 85.46875 245.417969 85.570312 244.570312 C 85.671875 243.71875 85.8125 242.875 85.992188 242.039062 C 86.175781 241.203125 86.394531 240.378906 86.65625 239.5625 C 86.917969 238.75 87.21875 237.949219 87.558594 237.164062 L 87.628906 236.996094 L 65.070312 247.1875 C 62.671875 248.265625 60.339844 249.472656 58.074219 250.8125 C 55.808594 252.148438 53.625 253.609375 51.523438 255.195312 C 49.421875 256.777344 47.417969 258.472656 45.503906 260.277344 C 43.59375 262.085938 41.785156 263.996094 40.085938 266.003906 C 38.386719 268.015625 36.804688 270.113281 35.339844 272.296875 C 33.875 274.484375 32.535156 276.746094 31.324219 279.082031 C 30.113281 281.417969 29.03125 283.816406 28.085938 286.273438 C 27.144531 288.730469 26.335938 291.230469 25.671875 293.777344 L 20.808594 312.25 L 64.691406 318.304688 L 67.632812 318.714844 L 179.527344 334.148438 L 246.21875 294.09375 Z M 276.195312 151.160156 L 262.660156 151.160156 L 262.660156 332.730469 L 276.195312 332.730469 Z M 301.742188 151.160156 L 288.207031 151.160156 L 288.207031 332.730469 L 301.742188 332.730469 Z M 327.28125 151.160156 L 313.746094 151.160156 L 313.746094 332.730469 L 327.28125 332.730469 Z M 377.550781 112.578125 C 377.550781 111.789062 377.472656 111.003906 377.316406 110.230469 C 377.160156 109.453125 376.929688 108.699219 376.628906 107.96875 C 376.324219 107.238281 375.953125 106.546875 375.515625 105.890625 C 375.074219 105.230469 374.574219 104.625 374.015625 104.0625 C 373.457031 103.503906 372.851562 103.003906 372.191406 102.566406 C 371.535156 102.125 370.84375 101.753906 370.113281 101.453125 C 369.382812 101.148438 368.628906 100.921875 367.855469 100.765625 C 367.082031 100.609375 366.300781 100.53125 365.507812 100.53125 L 226.242188 100.53125 C 220.910156 116.746094 209.070312 132.257812 192.339844 144.4375 L 192.339844 222.910156 L 222.898438 226.746094 C 225.65625 227.09375 228.347656 227.71875 230.976562 228.621094 C 233.601562 229.527344 236.109375 230.691406 238.5 232.113281 C 240.886719 233.535156 243.101562 235.1875 245.148438 237.070312 C 247.195312 238.949219 249.03125 241.019531 250.648438 243.28125 L 250.648438 151.160156 L 237.105469 151.160156 L 237.105469 216.101562 C 237.089844 216.484375 237.039062 216.867188 236.953125 217.242188 C 236.867188 217.617188 236.742188 217.980469 236.585938 218.335938 C 236.429688 218.6875 236.238281 219.019531 236.019531 219.335938 C 235.796875 219.652344 235.546875 219.945312 235.269531 220.210938 C 234.992188 220.480469 234.691406 220.71875 234.371094 220.929688 C 234.046875 221.136719 233.707031 221.316406 233.347656 221.460938 C 232.992188 221.605469 232.621094 221.714844 232.246094 221.789062 C 231.867188 221.859375 231.484375 221.898438 231.097656 221.898438 C 230.714844 221.898438 230.332031 221.859375 229.953125 221.789062 C 229.574219 221.714844 229.207031 221.605469 228.851562 221.460938 C 228.492188 221.316406 228.152344 221.136719 227.828125 220.929688 C 227.503906 220.71875 227.203125 220.480469 226.925781 220.210938 C 226.648438 219.945312 226.402344 219.652344 226.179688 219.335938 C 225.957031 219.019531 225.769531 218.6875 225.613281 218.335938 C 225.453125 217.980469 225.332031 217.617188 225.246094 217.242188 C 225.15625 216.867188 225.109375 216.484375 225.09375 216.101562 L 225.09375 151.160156 L 220.113281 151.160156 C 219.730469 151.148438 219.347656 151.097656 218.972656 151.011719 C 218.597656 150.921875 218.234375 150.800781 217.882812 150.644531 C 217.53125 150.484375 217.195312 150.296875 216.882812 150.074219 C 216.566406 149.855469 216.273438 149.605469 216.007812 149.328125 C 215.738281 149.046875 215.5 148.746094 215.289062 148.425781 C 215.082031 148.101562 214.902344 147.757812 214.757812 147.402344 C 214.617188 147.042969 214.507812 146.675781 214.433594 146.296875 C 214.359375 145.917969 214.324219 145.535156 214.324219 145.148438 C 214.324219 144.765625 214.359375 144.382812 214.433594 144.003906 C 214.507812 143.625 214.617188 143.257812 214.757812 142.898438 C 214.902344 142.539062 215.082031 142.199219 215.289062 141.875 C 215.5 141.550781 215.738281 141.25 216.007812 140.972656 C 216.273438 140.695312 216.566406 140.445312 216.882812 140.226562 C 217.195312 140.003906 217.53125 139.8125 217.882812 139.65625 C 218.234375 139.5 218.597656 139.378906 218.972656 139.289062 C 219.347656 139.203125 219.730469 139.152344 220.113281 139.136719 L 327.28125 139.136719 L 327.28125 129.476562 C 327.269531 129.074219 327.292969 128.671875 327.359375 128.273438 C 327.425781 127.875 327.53125 127.484375 327.675781 127.109375 C 327.820312 126.730469 328 126.371094 328.21875 126.03125 C 328.433594 125.691406 328.683594 125.375 328.960938 125.082031 C 329.242188 124.792969 329.550781 124.53125 329.882812 124.300781 C 330.214844 124.074219 330.566406 123.878906 330.9375 123.722656 C 331.308594 123.5625 331.691406 123.445312 332.089844 123.363281 C 332.484375 123.285156 332.882812 123.242188 333.289062 123.242188 C 333.691406 123.242188 334.089844 123.285156 334.488281 123.363281 C 334.882812 123.445312 335.265625 123.5625 335.636719 123.722656 C 336.007812 123.878906 336.359375 124.074219 336.695312 124.300781 C 337.027344 124.53125 337.332031 124.792969 337.613281 125.082031 C 337.894531 125.375 338.140625 125.691406 338.359375 126.03125 C 338.574219 126.371094 338.753906 126.730469 338.898438 127.109375 C 339.042969 127.484375 339.148438 127.875 339.214844 128.273438 C 339.28125 128.671875 339.308594 129.074219 339.292969 129.476562 L 339.292969 160.082031 C 339.292969 160.875 339.371094 161.65625 339.527344 162.433594 C 339.683594 163.210938 339.910156 163.964844 340.214844 164.695312 C 340.515625 165.425781 340.886719 166.121094 341.328125 166.777344 C 341.765625 167.433594 342.265625 168.042969 342.824219 168.601562 C 343.382812 169.164062 343.992188 169.664062 344.648438 170.101562 C 345.304688 170.542969 346 170.914062 346.730469 171.214844 C 347.460938 171.519531 348.210938 171.75 348.988281 171.902344 C 349.761719 172.058594 350.542969 172.136719 351.335938 172.136719 L 365.492188 172.136719 C 366.285156 172.136719 367.066406 172.058594 367.839844 171.902344 C 368.617188 171.75 369.367188 171.519531 370.097656 171.214844 C 370.828125 170.914062 371.523438 170.542969 372.179688 170.101562 C 372.835938 169.664062 373.445312 169.164062 374.003906 168.601562 C 374.5625 168.042969 375.0625 167.433594 375.5 166.777344 C 375.941406 166.121094 376.3125 165.425781 376.613281 164.695312 C 376.917969 163.964844 377.144531 163.210938 377.300781 162.433594 C 377.457031 161.65625 377.535156 160.875 377.535156 160.082031 Z M 377.550781 112.578125 " fill-opacity="1" fill-rule="nonzero"/></g></svg>