<svg xmlns="http://www.w3.org/2000/svg" xmlns:xlink="http://www.w3.org/1999/xlink" width="529" zoomAndPan="magnify" viewBox="0 0 396.75 396.749984" height="529" preserveAspectRatio="xMidYMid meet" version="1.0"><defs><clipPath id="id1"><path d="M 7.6875 0 L 389.4375 0 L 389.4375 396.5 L 7.6875 396.5 Z M 7.6875 0 " clip-rule="nonzero"/></clipPath></defs><path fill="#ffffff" d="M 123.117188 324.566406 C 124.230469 325.121094 125.40625 325.382812 126.570312 325.382812 C 129.414062 325.382812 132.148438 323.8125 133.503906 321.101562 C 135.410156 317.277344 133.859375 312.632812 130.03125 310.726562 C 83.589844 287.574219 64.46875 236.910156 64.175781 236.113281 C 62.714844 232.101562 58.269531 230.03125 54.257812 231.488281 C 50.238281 232.945312 48.164062 237.386719 49.625 241.398438 C 50.46875 243.71875 70.890625 298.53125 123.117188 324.566406 Z M 123.117188 324.566406 " fill-opacity="1" fill-rule="nonzero"/><g clip-path="url(#id1)"><path fill="#ffffff" d="M 382.578125 6.742188 C 378.222656 2.390625 372.460938 0.0078125 366.316406 0.0078125 C 366.1875 0.0078125 366.058594 0.0078125 365.929688 0.0078125 C 359.640625 0.113281 353.804688 2.695312 349.503906 7.28125 L 269.867188 100.085938 C 233.570312 87.136719 167.6875 130.828125 145.347656 153.144531 C 134.722656 163.761719 127.15625 176.007812 123.382812 188.636719 L 15.75 188.636719 C 11.304688 188.636719 7.6875 192.25 7.6875 196.707031 C 7.75 230.28125 17.34375 262.898438 35.421875 291.03125 C 52.472656 317.5625 76.261719 338.980469 104.355469 353.125 L 104.355469 387.21875 C 104.355469 392.472656 108.632812 396.746094 113.890625 396.746094 L 252.734375 396.746094 C 257.992188 396.746094 262.269531 392.472656 262.269531 387.21875 L 262.269531 353.125 C 290.363281 338.976562 314.152344 317.5625 331.203125 291.03125 C 349.28125 262.898438 358.875 230.28125 358.9375 196.707031 L 358.9375 196.691406 C 358.9375 192.25 355.320312 188.636719 350.875 188.636719 L 274.734375 188.636719 C 285.371094 168.136719 296.390625 139.636719 289.148438 119.34375 L 381.785156 40.011719 L 382.042969 39.78125 C 386.632812 35.488281 389.214844 29.660156 389.320312 23.375 C 389.421875 17.09375 387.027344 11.183594 382.578125 6.742188 Z M 267.167969 121.964844 C 265.257812 126.132812 261.679688 132.675781 254.976562 142.515625 C 245.316406 156.6875 232.167969 173.136719 218.902344 187.640625 C 218.617188 187.953125 218.386719 188.292969 218.160156 188.636719 L 182.691406 188.636719 C 184.613281 186.617188 186.582031 184.585938 188.632812 182.535156 C 219.253906 151.941406 252.425781 128.835938 267.167969 121.964844 Z M 156.296875 164.082031 C 167.589844 152.800781 191.324219 135.371094 216.75 123.765625 C 229.722656 117.84375 241.140625 114.402344 250.367188 113.507812 C 246.277344 115.921875 241.660156 118.878906 236.398438 122.507812 C 217.054688 135.839844 195.105469 154.191406 177.6875 171.597656 C 172.105469 177.171875 166.949219 182.683594 162.367188 187.96875 C 162.183594 188.179688 162.050781 188.414062 161.894531 188.636719 L 139.773438 188.636719 C 143.152344 180.003906 148.769531 171.605469 156.296875 164.082031 Z M 343.265625 204.105469 C 341.925781 232.089844 333.316406 259.109375 318.175781 282.675781 C 302.121094 307.65625 279.515625 327.664062 252.808594 340.539062 C 249.148438 342.304688 246.785156 346.0625 246.785156 350.113281 L 246.785156 381.277344 L 119.839844 381.277344 L 119.839844 350.113281 C 119.839844 346.0625 117.476562 342.304688 113.816406 340.539062 C 87.109375 327.664062 64.503906 307.65625 48.449219 282.675781 C 33.304688 259.105469 24.695312 232.082031 23.359375 204.105469 Z M 257.136719 188.636719 L 238.722656 188.636719 C 251.027344 174.417969 262.4375 159.515625 270.890625 146.546875 C 272.667969 143.816406 274.269531 141.261719 275.703125 138.859375 C 274.433594 151.890625 268.097656 169.179688 257.136719 188.636719 Z M 371.558594 28.398438 L 296.957031 92.28125 L 360.902344 17.753906 C 362.300781 16.316406 364.171875 15.507812 366.179688 15.476562 C 366.226562 15.476562 366.265625 15.476562 366.308594 15.476562 C 368.320312 15.476562 370.207031 16.253906 371.632812 17.679688 C 373.085938 19.132812 373.871094 21.066406 373.835938 23.125 C 373.804688 25.132812 372.996094 27 371.558594 28.398438 Z M 371.558594 28.398438 " fill-opacity="1" fill-rule="nonzero"/></g></svg>