<svg xmlns="http://www.w3.org/2000/svg" xmlns:xlink="http://www.w3.org/1999/xlink" width="529" zoomAndPan="magnify" viewBox="0 0 396.75 396.749984" height="529" preserveAspectRatio="xMidYMid meet" version="1.0"><defs><clipPath id="id1"><path d="M 23 0 L 376.84375 0 L 376.84375 396.5 L 23 396.5 Z M 23 0 " clip-rule="nonzero"/></clipPath></defs><g clip-path="url(#id1)"><path fill="#ffffff" d="M 218.457031 331.402344 C 215.933594 327.347656 214.277344 322.90625 213.46875 318.332031 L 328.765625 318.332031 C 329.347656 322.800781 330.503906 327.203125 332.277344 331.402344 Z M 354.898438 357.539062 L 239.601562 357.539062 C 240.410156 352.964844 242.066406 348.523438 244.589844 344.46875 L 358.410156 344.46875 C 356.640625 348.667969 355.480469 353.070312 354.898438 357.539062 Z M 244.589844 383.679688 C 242.066406 379.628906 240.410156 375.183594 239.601562 370.609375 L 354.898438 370.609375 C 355.480469 375.078125 356.640625 379.480469 358.410156 383.679688 Z M 68.1875 344.46875 L 92.722656 344.46875 C 87.453125 356.960938 87.453125 371.191406 92.722656 383.679688 L 68.1875 383.679688 C 60.761719 371.746094 60.761719 356.40625 68.1875 344.46875 Z M 42.054688 292.191406 L 66.585938 292.191406 C 61.320312 304.679688 61.320312 318.910156 66.585938 331.402344 L 42.054688 331.402344 C 34.628906 319.464844 34.628906 304.125 42.054688 292.191406 Z M 172.722656 292.191406 L 203.789062 292.191406 C 198.523438 304.679688 198.523438 318.910156 203.789062 331.402344 L 172.722656 331.402344 C 165.300781 319.464844 165.300781 304.125 172.722656 292.191406 Z M 160.570312 266.050781 L 238.972656 266.050781 C 247.492188 266.050781 254.757812 271.515625 257.453125 279.121094 L 142.089844 279.121094 C 144.785156 271.515625 152.054688 266.050781 160.570312 266.050781 Z M 193.238281 239.855469 C 197.597656 239.855469 201.960938 239.625 206.304688 239.191406 L 206.304688 252.980469 L 193.238281 252.980469 Z M 105.59375 30.785156 L 114.886719 40.082031 C 98.601562 58.523438 88.703125 82.730469 88.703125 109.210938 C 88.703125 166.867188 135.597656 213.769531 193.238281 213.769531 C 219.714844 213.769531 243.914062 203.871094 262.355469 187.582031 L 271.648438 196.878906 C 225.53125 238.195312 154.390625 236.699219 110.082031 192.386719 C 65.777344 148.070312 64.285156 76.914062 105.59375 30.785156 Z M 147.503906 30.003906 L 147.503906 50.398438 C 147.503906 54.007812 150.429688 56.933594 154.039062 56.933594 L 176.128906 56.933594 L 182.664062 70.003906 L 167.105469 70.003906 C 164.914062 70.003906 162.882812 71.09375 161.664062 72.914062 L 148.597656 92.515625 C 147.886719 93.59375 147.503906 94.851562 147.503906 96.140625 L 147.503906 109.210938 L 133.007812 109.210938 L 127.707031 88.023438 C 126.980469 85.113281 124.367188 83.074219 121.371094 83.074219 L 105.574219 83.074219 C 112.3125 60.519531 127.527344 41.589844 147.503906 30.003906 Z M 199.773438 154.953125 L 205.78125 154.953125 L 190.101562 174.558594 L 173.636719 174.558594 L 173.636719 161.488281 C 173.636719 160.195312 173.253906 158.9375 172.542969 157.859375 L 160.570312 139.90625 L 160.570312 122.277344 L 193.238281 122.277344 L 193.238281 148.417969 C 193.238281 152.027344 196.160156 154.953125 199.773438 154.953125 Z M 219.371094 21.527344 L 219.371094 56.925781 C 219.371094 58.109375 219.691406 59.269531 220.304688 60.289062 L 238.972656 91.40625 L 238.972656 115.738281 C 238.972656 117.929688 240.066406 119.964844 241.878906 121.179688 L 261.480469 134.25 C 262.558594 134.960938 263.816406 135.34375 265.105469 135.34375 L 280.902344 135.34375 C 269.621094 173.089844 234.59375 200.695312 193.238281 200.695312 C 142.800781 200.695312 101.769531 159.65625 101.769531 109.203125 C 101.769531 104.769531 102.089844 100.40625 102.710938 96.136719 L 116.265625 96.136719 L 121.566406 117.324219 C 122.292969 120.234375 124.90625 122.273438 127.902344 122.273438 L 147.503906 122.273438 L 147.503906 141.878906 C 147.503906 143.171875 147.886719 144.429688 148.597656 145.507812 L 160.570312 163.460938 L 160.570312 181.089844 C 160.570312 184.699219 163.496094 187.625 167.105469 187.625 L 193.238281 187.625 C 195.222656 187.625 197.101562 186.71875 198.34375 185.171875 L 224.476562 152.5 C 226.042969 150.539062 226.347656 147.84375 225.261719 145.589844 C 224.175781 143.316406 221.878906 141.878906 219.371094 141.878906 L 206.304688 141.878906 L 206.304688 115.738281 C 206.304688 112.128906 203.382812 109.203125 199.773438 109.203125 L 160.570312 109.203125 L 160.570312 98.113281 L 170.601562 83.066406 L 193.238281 83.066406 C 195.5 83.066406 197.609375 81.890625 198.792969 79.96875 C 199.984375 78.042969 200.089844 75.632812 199.085938 73.605469 L 186.019531 47.46875 C 184.90625 45.253906 182.644531 43.855469 180.171875 43.855469 L 160.570312 43.855469 L 160.570312 23.753906 C 170.722656 19.859375 181.730469 17.714844 193.238281 17.714844 C 202.320312 17.714844 211.089844 19.054688 219.371094 21.527344 Z M 284.707031 109.207031 C 284.707031 113.644531 284.386719 118.007812 283.765625 122.277344 L 267.082031 122.277344 L 252.039062 112.246094 L 252.039062 89.605469 C 252.039062 88.417969 251.71875 87.257812 251.109375 86.238281 L 232.4375 55.121094 L 232.4375 26.558594 C 263.308594 41.269531 284.707031 72.785156 284.707031 109.207031 Z M 107.390625 344.464844 L 184.1875 344.464844 C 178.921875 356.953125 178.921875 371.183594 184.1875 383.675781 L 107.390625 383.675781 C 99.964844 371.738281 99.964844 356.398438 107.390625 344.464844 Z M 229.921875 383.675781 L 198.855469 383.675781 C 191.433594 371.738281 191.433594 356.398438 198.855469 344.464844 L 229.921875 344.464844 C 224.65625 356.953125 224.65625 371.183594 229.921875 383.675781 Z M 332.277344 292.183594 C 330.503906 296.382812 329.347656 300.785156 328.765625 305.253906 L 213.46875 305.253906 C 214.277344 300.679688 215.933594 296.238281 218.457031 292.183594 Z M 348.734375 289.570312 C 350.21875 287.59375 350.457031 284.941406 349.355469 282.726562 C 348.242188 280.511719 345.980469 279.117188 343.507812 279.117188 L 270.984375 279.117188 C 267.949219 264.222656 254.75 252.976562 238.972656 252.976562 L 219.371094 252.976562 L 219.371094 237.21875 C 241.667969 232.703125 263.007812 222.34375 280.902344 206.128906 L 293.152344 218.390625 L 302.394531 209.144531 L 290.136719 196.890625 C 293.601562 193.066406 296.835938 189.046875 299.796875 184.882812 L 289.15625 177.300781 C 286.609375 180.878906 283.839844 184.335938 280.882812 187.636719 L 271.589844 178.339844 C 287.875 159.894531 297.773438 135.691406 297.773438 109.207031 C 297.773438 51.554688 250.878906 4.648438 193.238281 4.648438 C 166.761719 4.648438 142.5625 14.550781 124.121094 30.835938 L 114.828125 21.542969 C 118.128906 18.585938 121.582031 15.816406 125.160156 13.273438 L 117.582031 2.621094 C 113.425781 5.585938 109.40625 8.828125 105.574219 12.289062 L 93.324219 0.03125 L 84.082031 9.269531 L 96.339844 21.527344 C 49.941406 72.765625 51.441406 152.214844 100.839844 201.628906 C 122.996094 223.78125 151.1875 236.304688 180.171875 239.1875 L 180.171875 252.976562 L 160.570312 252.976562 C 142.5625 252.976562 127.902344 267.640625 127.902344 285.652344 C 127.902344 289.261719 130.828125 292.183594 134.4375 292.183594 L 158.054688 292.183594 C 152.789062 304.675781 152.789062 318.90625 158.054688 331.394531 L 81.253906 331.394531 C 73.832031 319.460938 73.832031 304.121094 81.253906 292.183594 L 114.835938 292.183594 L 114.835938 279.117188 L 38.613281 279.117188 C 36.554688 279.117188 34.621094 280.085938 33.386719 281.730469 C 20.113281 299.429688 20.113281 324.148438 33.386719 341.851562 C 34.621094 343.492188 36.554688 344.464844 38.613281 344.464844 L 53.519531 344.464844 C 46.703125 360.613281 48.703125 379.703125 59.519531 394.128906 C 60.753906 395.773438 62.691406 396.742188 64.75 396.742188 L 369.640625 396.742188 C 372.113281 396.742188 374.375 395.347656 375.488281 393.132812 C 376.589844 390.917969 376.351562 388.265625 374.867188 386.289062 C 365.058594 373.203125 365.058594 354.9375 374.867188 341.851562 C 376.351562 339.875 376.589844 337.21875 375.488281 335.003906 C 374.375 332.792969 372.113281 331.394531 369.640625 331.394531 L 346.945312 331.394531 C 338.964844 318.570312 339.5625 301.800781 348.730469 289.570312 " fill-opacity="1" fill-rule="nonzero"/></g></svg>