<svg xmlns="http://www.w3.org/2000/svg" xmlns:xlink="http://www.w3.org/1999/xlink" width="529" zoomAndPan="magnify" viewBox="0 0 396.75 396.749984" height="529" preserveAspectRatio="xMidYMid meet" version="1.0"><defs><clipPath id="id1"><path d="M 260 68 L 396.5 68 L 396.5 205 L 260 205 Z M 260 68 " clip-rule="nonzero"/></clipPath><clipPath id="id2"><path d="M 99 148 L 298 148 L 298 396.5 L 99 396.5 Z M 99 148 " clip-rule="nonzero"/></clipPath></defs><path fill="#ffffff" d="M 198.375 136.382812 C 235.972656 136.382812 266.566406 105.789062 266.566406 68.191406 C 266.566406 30.59375 235.972656 0 198.375 0 C 160.777344 0 130.183594 30.59375 130.183594 68.191406 C 130.183594 105.789062 160.777344 136.382812 198.375 136.382812 Z M 198.375 12.398438 C 229.140625 12.398438 254.167969 37.429688 254.167969 68.191406 C 254.167969 98.953125 229.140625 123.984375 198.375 123.984375 C 167.609375 123.984375 142.582031 98.953125 142.582031 68.191406 C 142.582031 37.429688 167.609375 12.398438 198.375 12.398438 Z M 198.375 12.398438 " fill-opacity="1" fill-rule="nonzero"/><g clip-path="url(#id1)"><path fill="#ffffff" d="M 328.558594 204.613281 C 366.15625 204.613281 396.75 174.019531 396.75 136.421875 C 396.75 98.820312 366.15625 68.230469 328.558594 68.230469 C 290.960938 68.230469 260.367188 98.820312 260.367188 136.421875 C 260.367188 174.019531 290.960938 204.613281 328.558594 204.613281 Z M 328.558594 80.628906 C 359.324219 80.628906 384.351562 105.660156 384.351562 136.421875 C 384.351562 167.179688 359.324219 192.214844 328.558594 192.214844 C 297.792969 192.214844 272.765625 167.179688 272.765625 136.421875 C 272.765625 105.660156 297.792969 80.628906 328.558594 80.628906 Z M 328.558594 80.628906 " fill-opacity="1" fill-rule="nonzero"/></g><path fill="#ffffff" d="M 68.191406 204.613281 C 105.789062 204.613281 136.382812 174.019531 136.382812 136.421875 C 136.382812 98.820312 105.789062 68.230469 68.191406 68.230469 C 30.59375 68.230469 0 98.820312 0 136.421875 C 0 174.019531 30.59375 204.613281 68.191406 204.613281 Z M 68.191406 80.628906 C 98.957031 80.628906 123.984375 105.660156 123.984375 136.421875 C 123.984375 167.179688 98.957031 192.214844 68.191406 192.214844 C 37.425781 192.214844 12.398438 167.179688 12.398438 136.421875 C 12.398438 105.660156 37.425781 80.628906 68.191406 80.628906 Z M 68.191406 80.628906 " fill-opacity="1" fill-rule="nonzero"/><g clip-path="url(#id2)"><path fill="#ffffff" d="M 291.363281 396.75 C 294.792969 396.75 297.5625 393.980469 297.5625 390.550781 L 297.5625 384.359375 C 297.5625 360.433594 278.089844 340.964844 254.167969 340.964844 C 254.167969 340.964844 254.167969 340.964844 254.160156 340.964844 L 235.570312 340.96875 L 235.570312 324.695312 C 257.761719 311.808594 272.757812 287.84375 272.765625 260.386719 C 272.765625 260.378906 272.765625 260.378906 272.765625 260.378906 L 272.765625 223.171875 C 272.765625 182.152344 239.394531 148.78125 198.375 148.78125 C 157.355469 148.78125 123.984375 182.152344 123.984375 223.171875 L 123.984375 260.378906 C 123.984375 260.378906 123.984375 260.378906 123.984375 260.386719 C 123.992188 287.84375 138.988281 311.808594 161.179688 324.695312 L 161.179688 340.96875 L 142.589844 340.964844 C 142.582031 340.964844 142.582031 340.964844 142.582031 340.964844 C 118.660156 340.964844 99.1875 360.433594 99.1875 384.359375 L 99.1875 390.550781 C 99.1875 393.980469 101.957031 396.75 105.386719 396.75 C 108.816406 396.75 111.585938 393.980469 111.585938 390.550781 L 111.585938 384.359375 C 111.585938 367.265625 125.492188 353.363281 142.582031 353.363281 L 164.8125 353.375 L 175.394531 363.945312 C 175.492188 364.042969 175.625 364.074219 175.730469 364.160156 C 176.132812 364.527344 176.578125 364.804688 177.066406 365.054688 C 177.261719 365.152344 177.445312 365.269531 177.65625 365.351562 C 178.332031 365.597656 179.046875 365.761719 179.785156 365.761719 C 180.429688 365.761719 181.089844 365.65625 181.742188 365.4375 L 198.375 359.894531 L 215.015625 365.445312 C 215.664062 365.660156 216.328125 365.765625 216.972656 365.765625 C 217.710938 365.765625 218.417969 365.605469 219.097656 365.355469 C 219.308594 365.277344 219.488281 365.160156 219.6875 365.058594 C 220.171875 364.816406 220.617188 364.53125 221.03125 364.167969 C 221.132812 364.074219 221.261719 364.042969 221.363281 363.949219 L 231.945312 353.378906 L 254.167969 353.363281 C 271.257812 353.363281 285.164062 367.265625 285.164062 384.359375 L 285.164062 390.550781 C 285.164062 393.980469 287.933594 396.75 291.363281 396.75 Z M 198.375 161.179688 C 231.640625 161.179688 258.796875 187.546875 260.230469 220.460938 L 252.351562 212.582031 C 252.265625 212.496094 252.160156 212.472656 252.074219 212.402344 C 251.742188 212.105469 251.382812 211.90625 251.007812 211.695312 C 250.671875 211.503906 250.363281 211.292969 250.003906 211.164062 C 249.628906 211.035156 249.257812 211.007812 248.875 210.945312 C 248.472656 210.886719 248.082031 210.8125 247.675781 210.824219 C 247.300781 210.839844 246.953125 210.953125 246.582031 211.035156 C 246.164062 211.140625 245.75 211.21875 245.351562 211.410156 C 245.246094 211.460938 245.136719 211.457031 245.03125 211.511719 C 244.8125 211.636719 223.089844 223.171875 198.375 223.171875 C 173.777344 223.171875 151.929688 211.628906 151.714844 211.511719 C 151.613281 211.457031 151.503906 211.460938 151.398438 211.410156 C 151.007812 211.226562 150.597656 211.140625 150.175781 211.039062 C 149.792969 210.945312 149.433594 210.835938 149.046875 210.824219 C 148.664062 210.804688 148.304688 210.886719 147.917969 210.941406 C 147.515625 210.996094 147.113281 211.035156 146.734375 211.171875 C 146.375 211.292969 146.078125 211.503906 145.742188 211.691406 C 145.367188 211.90625 145.007812 212.105469 144.675781 212.398438 C 144.589844 212.476562 144.484375 212.503906 144.398438 212.582031 L 136.519531 220.460938 C 137.953125 187.546875 165.109375 161.179688 198.375 161.179688 Z M 136.382812 260.367188 L 136.382812 238.136719 L 150.046875 224.472656 C 158.160156 228.167969 177.050781 235.570312 198.375 235.570312 C 219.699219 235.570312 238.589844 228.167969 246.703125 224.472656 L 260.367188 238.136719 L 260.367188 260.367188 C 260.367188 294.550781 232.558594 322.359375 198.375 322.359375 C 164.191406 322.359375 136.382812 294.550781 136.382812 260.367188 Z M 198.375 334.757812 C 207.078125 334.757812 215.398438 333.175781 223.171875 330.417969 L 223.171875 344.609375 L 215.300781 352.476562 L 200.332031 347.484375 C 200.109375 347.410156 199.886719 347.449219 199.660156 347.398438 C 199.238281 347.304688 198.816406 347.242188 198.375 347.242188 C 197.933594 347.242188 197.511719 347.3125 197.089844 347.398438 C 196.863281 347.449219 196.640625 347.410156 196.414062 347.484375 L 181.449219 352.476562 L 173.578125 344.609375 L 173.578125 330.417969 C 181.351562 333.175781 189.671875 334.757812 198.375 334.757812 Z M 198.375 334.757812 " fill-opacity="1" fill-rule="nonzero"/></g><path fill="#ffffff" d="M 204.574219 263.464844 L 204.574219 266.566406 C 204.574219 269.996094 207.34375 272.765625 210.773438 272.765625 L 241.769531 272.765625 C 245.199219 272.765625 247.96875 269.996094 247.96875 266.566406 L 247.96875 247.96875 C 247.96875 244.539062 245.199219 241.769531 241.769531 241.769531 L 210.773438 241.769531 C 207.34375 241.769531 204.574219 244.539062 204.574219 247.96875 L 204.574219 251.066406 L 192.167969 251.066406 L 192.167969 247.96875 C 192.167969 244.539062 189.398438 241.769531 185.96875 241.769531 L 155.234375 241.769531 C 151.804688 241.769531 149.035156 244.539062 149.035156 247.96875 L 149.035156 266.566406 C 149.035156 269.996094 151.804688 272.765625 155.234375 272.765625 L 185.96875 272.765625 C 189.398438 272.765625 192.167969 269.996094 192.167969 266.566406 L 192.167969 263.464844 Z M 216.972656 254.167969 L 235.570312 254.167969 L 235.570312 260.367188 L 216.972656 260.367188 Z M 179.769531 260.367188 L 161.433594 260.367188 L 161.433594 254.167969 L 179.769531 254.167969 Z M 179.769531 260.367188 " fill-opacity="1" fill-rule="nonzero"/><path fill="#ffffff" d="M 37.847656 157.75 C 38.019531 158.105469 38.269531 158.394531 38.496094 158.699219 C 38.597656 158.824219 38.652344 158.960938 38.765625 159.085938 C 39.246094 159.636719 39.828125 160.070312 40.457031 160.410156 C 40.519531 160.441406 40.554688 160.503906 40.609375 160.535156 C 40.851562 160.660156 41.113281 160.722656 41.359375 160.808594 C 41.515625 160.863281 41.664062 160.933594 41.824219 160.976562 C 42.351562 161.097656 42.875 161.179688 43.386719 161.179688 L 43.402344 161.179688 C 43.914062 161.179688 44.4375 161.097656 44.949219 160.960938 C 45.113281 160.917969 45.261719 160.84375 45.414062 160.796875 C 45.667969 160.707031 45.921875 160.648438 46.164062 160.527344 C 46.226562 160.496094 46.265625 160.441406 46.3125 160.40625 C 46.953125 160.0625 47.523438 159.628906 48.011719 159.085938 C 48.125 158.960938 48.179688 158.824219 48.285156 158.695312 C 48.507812 158.390625 48.757812 158.105469 48.929688 157.757812 L 65.828125 123.984375 L 99.195312 123.984375 C 102.621094 123.984375 105.394531 121.207031 105.394531 117.785156 C 105.394531 114.363281 102.621094 111.585938 99.195312 111.585938 L 62 111.585938 C 61.675781 111.585938 61.402344 111.714844 61.097656 111.765625 C 60.664062 111.828125 60.230469 111.871094 59.828125 112.027344 C 59.4375 112.167969 59.121094 112.402344 58.773438 112.621094 C 58.441406 112.824219 58.113281 113 57.820312 113.265625 C 57.484375 113.570312 57.257812 113.949219 56.996094 114.320312 C 56.828125 114.566406 56.59375 114.742188 56.449219 115.015625 L 43.394531 141.113281 L 42.75 139.8125 C 41.226562 136.742188 37.5 135.503906 34.429688 137.035156 C 31.367188 138.566406 30.128906 142.285156 31.660156 145.347656 Z M 37.847656 157.75 " fill-opacity="1" fill-rule="nonzero"/><path fill="#ffffff" d="M 89.34375 148.8125 L 91.148438 147.007812 C 93.570312 144.585938 93.570312 140.667969 91.148438 138.242188 C 88.722656 135.820312 84.804688 135.820312 82.382812 138.242188 L 80.578125 140.046875 L 78.78125 138.242188 C 76.355469 135.820312 72.4375 135.820312 70.015625 138.242188 C 67.589844 140.667969 67.589844 144.585938 70.015625 147.007812 L 71.8125 148.8125 L 70.007812 150.621094 C 67.582031 153.046875 67.582031 156.964844 70.007812 159.386719 C 71.214844 160.597656 72.804688 161.203125 74.390625 161.203125 C 75.976562 161.203125 77.566406 160.597656 78.773438 159.386719 L 80.578125 157.578125 L 82.386719 159.386719 C 83.597656 160.597656 85.183594 161.203125 86.769531 161.203125 C 88.359375 161.203125 89.945312 160.597656 91.152344 159.386719 C 93.578125 156.964844 93.578125 153.046875 91.152344 150.621094 Z M 89.34375 148.8125 " fill-opacity="1" fill-rule="nonzero"/><path fill="#ffffff" d="M 299.378906 159.363281 C 300.585938 160.570312 302.175781 161.179688 303.761719 161.179688 C 305.347656 161.179688 306.9375 160.570312 308.144531 159.363281 L 319.257812 148.25 L 330.375 159.363281 C 331.582031 160.570312 333.171875 161.179688 334.757812 161.179688 C 336.34375 161.179688 337.933594 160.570312 339.140625 159.363281 C 341.566406 156.9375 341.566406 153.023438 339.140625 150.597656 L 328.027344 139.480469 L 339.140625 128.367188 C 341.566406 125.941406 341.566406 122.027344 339.140625 119.601562 C 336.714844 117.175781 332.800781 117.175781 330.375 119.601562 L 319.257812 130.714844 L 308.144531 119.601562 C 305.71875 117.175781 301.804688 117.175781 299.378906 119.601562 C 296.953125 122.027344 296.953125 125.941406 299.378906 128.367188 L 310.492188 139.480469 L 299.378906 150.597656 C 296.953125 153.023438 296.953125 156.9375 299.378906 159.363281 Z M 299.378906 159.363281 " fill-opacity="1" fill-rule="nonzero"/><path fill="#ffffff" d="M 347.34375 124.847656 C 347.410156 125.296875 347.449219 125.738281 347.601562 126.160156 C 347.746094 126.539062 347.972656 126.84375 348.183594 127.175781 C 348.390625 127.519531 348.574219 127.863281 348.84375 128.164062 C 349.144531 128.492188 349.511719 128.71875 349.882812 128.976562 C 350.132812 129.148438 350.3125 129.390625 350.589844 129.527344 C 350.671875 129.5625 350.75 129.574219 350.832031 129.613281 C 350.949219 129.664062 351.0625 129.695312 351.1875 129.738281 C 351.90625 130.015625 352.628906 130.183594 353.363281 130.183594 L 359.566406 130.183594 C 362.996094 130.183594 365.765625 127.40625 365.765625 123.984375 C 365.765625 121.796875 364.570312 119.96875 362.859375 118.863281 L 365.109375 114.355469 C 365.140625 114.296875 365.132812 114.226562 365.160156 114.171875 C 365.332031 113.804688 365.382812 113.394531 365.480469 112.992188 C 365.582031 112.585938 365.714844 112.1875 365.730469 111.777344 C 365.730469 111.710938 365.765625 111.652344 365.765625 111.59375 C 365.765625 111.289062 365.636719 111.023438 365.59375 110.722656 C 365.523438 110.277344 365.488281 109.835938 365.332031 109.417969 C 365.191406 109.039062 364.960938 108.734375 364.75 108.394531 C 364.546875 108.050781 364.359375 107.707031 364.09375 107.40625 C 363.789062 107.078125 363.417969 106.851562 363.050781 106.59375 C 362.804688 106.421875 362.625 106.1875 362.34375 106.042969 C 362.28125 106.011719 362.214844 106.019531 362.160156 105.996094 C 361.796875 105.828125 361.402344 105.777344 361.003906 105.683594 C 360.582031 105.578125 360.175781 105.441406 359.753906 105.429688 C 359.683594 105.429688 359.636719 105.394531 359.574219 105.394531 L 353.375 105.394531 C 349.945312 105.394531 347.175781 108.171875 347.175781 111.59375 C 347.175781 113.78125 348.371094 115.609375 350.082031 116.710938 L 347.832031 121.21875 C 347.800781 121.28125 347.808594 121.351562 347.78125 121.40625 C 347.613281 121.769531 347.558594 122.179688 347.460938 122.582031 C 347.359375 122.992188 347.222656 123.390625 347.210938 123.804688 C 347.210938 123.871094 347.175781 123.929688 347.175781 123.992188 C 347.167969 124.289062 347.296875 124.554688 347.34375 124.847656 Z M 347.34375 124.847656 " fill-opacity="1" fill-rule="nonzero"/><path fill="#ffffff" d="M 174.515625 89.914062 C 174.304688 90.277344 174.109375 90.640625 173.976562 91.054688 C 173.839844 91.464844 173.769531 91.871094 173.71875 92.292969 C 173.703125 92.53125 173.585938 92.742188 173.585938 92.988281 C 173.585938 93.136719 173.660156 93.261719 173.671875 93.402344 C 173.703125 93.835938 173.800781 94.242188 173.925781 94.65625 C 174.03125 95.027344 174.125 95.386719 174.296875 95.726562 C 174.464844 96.070312 174.695312 96.355469 174.929688 96.664062 C 175.195312 97.019531 175.460938 97.339844 175.796875 97.625 C 175.910156 97.722656 175.957031 97.855469 176.078125 97.941406 C 176.335938 98.132812 176.628906 98.226562 176.90625 98.375 C 177.136719 98.503906 177.351562 98.640625 177.601562 98.742188 C 178.300781 99.015625 179.039062 99.1875 179.777344 99.1875 C 179.785156 99.1875 179.785156 99.1875 179.785156 99.1875 L 216.984375 99.1875 C 220.414062 99.1875 223.183594 96.410156 223.183594 92.988281 C 223.183594 89.566406 220.414062 86.789062 216.984375 86.789062 L 192.183594 86.789062 L 203.339844 71.910156 C 203.414062 71.8125 203.425781 71.6875 203.496094 71.589844 C 203.738281 71.222656 203.886719 70.832031 204.042969 70.433594 C 204.183594 70.074219 204.34375 69.734375 204.417969 69.371094 C 204.492188 68.980469 204.480469 68.59375 204.480469 68.199219 C 204.480469 67.800781 204.492188 67.417969 204.417969 67.027344 C 204.34375 66.652344 204.191406 66.320312 204.042969 65.960938 C 203.886719 65.5625 203.738281 65.171875 203.496094 64.804688 C 203.421875 64.703125 203.410156 64.582031 203.339844 64.484375 L 192.183594 49.605469 L 216.984375 49.605469 C 220.414062 49.605469 223.183594 46.828125 223.183594 43.40625 C 223.183594 39.984375 220.414062 37.207031 216.984375 37.207031 L 179.785156 37.207031 C 179.542969 37.207031 179.34375 37.320312 179.109375 37.34375 C 178.675781 37.394531 178.257812 37.460938 177.84375 37.605469 C 177.433594 37.742188 177.074219 37.933594 176.703125 38.144531 C 176.496094 38.269531 176.269531 38.296875 176.0625 38.449219 C 175.945312 38.535156 175.898438 38.664062 175.785156 38.765625 C 175.449219 39.050781 175.183594 39.378906 174.917969 39.722656 C 174.6875 40.035156 174.457031 40.320312 174.285156 40.660156 C 174.117188 41 174.019531 41.359375 173.914062 41.734375 C 173.789062 42.148438 173.691406 42.550781 173.660156 42.984375 C 173.660156 43.121094 173.585938 43.246094 173.585938 43.394531 C 173.585938 43.640625 173.703125 43.851562 173.71875 44.089844 C 173.769531 44.511719 173.839844 44.917969 173.976562 45.328125 C 174.105469 45.738281 174.304688 46.105469 174.515625 46.46875 C 174.644531 46.679688 174.667969 46.914062 174.824219 47.113281 L 190.632812 68.191406 L 174.824219 89.269531 C 174.675781 89.46875 174.644531 89.703125 174.515625 89.914062 Z M 174.515625 89.914062 " fill-opacity="1" fill-rule="nonzero"/></svg>