<svg xmlns="http://www.w3.org/2000/svg" xmlns:xlink="http://www.w3.org/1999/xlink" width="529" zoomAndPan="magnify" viewBox="0 0 396.75 396.749984" height="529" preserveAspectRatio="xMidYMid meet" version="1.0"><path fill="#ffffff" d="M 116.0625 299.902344 C 115.992188 299.832031 112.585938 299.554688 112.585938 299.554688 C 49.96875 297.054688 0 252.113281 0 196.886719 C 0 139.929688 52.957031 94.222656 117.867188 94.222656 C 182.78125 94.222656 235.738281 139.929688 235.738281 196.886719 C 235.738281 237.316406 208.773438 273.226562 167.558594 290.109375 L 166.238281 290.59375 L 171.800781 326.644531 C 172.773438 332.480469 166.101562 336.578125 161.304688 333.105469 Z M 13.34375 196.886719 C 13.34375 244.46875 57.195312 283.996094 113.003906 286.21875 L 115.226562 286.21875 C 118.148438 286.21875 121.691406 287.46875 123.984375 289.136719 L 156.09375 312.824219 L 152.617188 290.039062 C 151.921875 285.316406 154.5625 280.660156 159.082031 279.0625 L 162.695312 277.605469 C 198.972656 262.878906 222.394531 231.621094 222.394531 196.886719 C 222.394531 147.847656 175.828125 107.558594 117.867188 107.558594 C 59.976562 107.558594 13.34375 147.847656 13.34375 196.886719 Z M 13.34375 196.886719 " fill-opacity="1" fill-rule="nonzero"/><path fill="#ffffff" d="M 171.171875 119.992188 C 175.203125 122.007812 179.027344 124.296875 182.710938 126.800781 C 199.113281 95.886719 235.460938 74.144531 277.992188 74.144531 C 335.953125 74.144531 382.515625 114.433594 382.515625 163.476562 C 382.515625 211.128906 338.664062 250.652344 282.855469 252.804688 L 280.632812 252.875 C 277.714844 252.875 274.167969 254.054688 271.875 255.792969 L 239.769531 279.339844 L 243.242188 256.558594 C 243.9375 251.902344 241.367188 247.320312 236.78125 245.652344 L 233.164062 244.261719 C 225.9375 241.273438 219.265625 237.734375 213.148438 233.566406 C 211.136719 237.59375 208.703125 241.273438 206.0625 244.957031 C 212.871094 249.402344 220.308594 253.429688 228.300781 256.695312 L 229.621094 257.25 L 224.0625 293.234375 C 223.15625 299.136719 229.761719 303.238281 234.554688 299.695312 L 279.800781 266.492188 C 279.867188 266.492188 283.273438 266.144531 283.273438 266.144531 C 345.960938 263.710938 395.859375 218.769531 395.859375 163.476562 C 395.859375 106.585938 342.902344 60.808594 277.992188 60.808594 C 230.871094 60.808594 190.007812 84.914062 171.171875 119.992188 Z M 171.171875 119.992188 " fill-opacity="1" fill-rule="nonzero"/><path fill="#ffffff" d="M 106.609375 184.523438 C 105.21875 184.941406 103.828125 185.289062 102.441406 185.703125 C 102.507812 181.398438 102.855469 176.882812 103.550781 172.226562 C 112.238281 171.601562 121.34375 170.214844 130.515625 168.269531 C 134.824219 167.296875 138.925781 166.394531 142.609375 165.28125 C 144.832031 164.796875 146.5 164.238281 147.40625 163.960938 C 150.878906 162.851562 152.824219 159.101562 151.785156 155.695312 C 150.671875 152.152344 146.917969 150.140625 143.375 151.320312 C 142.679688 151.527344 141.21875 151.875 139.136719 152.429688 C 135.660156 153.472656 131.835938 154.375 127.738281 155.277344 C 120.371094 156.808594 113.144531 157.988281 106.191406 158.613281 C 106.75 156.460938 107.304688 154.445312 108 152.292969 C 109.042969 148.679688 107.027344 144.929688 103.484375 143.886719 C 100.007812 142.84375 96.253906 144.859375 95.210938 148.332031 C 94.101562 152.015625 93.128906 155.695312 92.363281 159.167969 C 85.898438 159.03125 80.269531 158.265625 75.683594 156.808594 C 72.140625 155.695312 68.386719 157.570312 67.273438 161.113281 C 66.160156 164.65625 68.109375 168.339844 71.582031 169.449219 C 77.074219 171.257812 83.257812 172.226562 90 172.4375 C 89.234375 178.898438 88.957031 184.941406 89.164062 190.84375 C 84.996094 192.789062 81.105469 194.875 77.769531 197.234375 C 64.425781 206.195312 58.863281 217.867188 66.023438 230.300781 C 73.738281 243.984375 89.511719 243.707031 104.457031 232.59375 C 115.089844 224.671875 124.75 211.960938 131.769531 196.539062 C 141.289062 198.625 147.890625 204.667969 147.890625 213.835938 C 147.890625 220.785156 143.722656 225.921875 135.9375 229.746094 C 132.949219 231.34375 129.683594 232.382812 126.417969 233.21875 C 124.472656 233.773438 123.011719 233.980469 122.316406 234.050781 C 118.632812 234.605469 116.0625 237.871094 116.546875 241.554688 C 117.035156 245.164062 120.371094 247.804688 124.054688 247.25 C 128.640625 246.691406 135.171875 245.027344 141.84375 241.761719 C 153.730469 235.855469 161.234375 226.6875 161.234375 213.835938 C 161.234375 197.582031 150.8125 187.511719 136.632812 183.898438 C 136.910156 182.925781 137.1875 182.023438 137.46875 181.121094 C 138.578125 177.578125 136.5625 173.824219 133.019531 172.714844 C 129.476562 171.671875 125.792969 173.757812 124.75 177.230469 C 124.191406 178.964844 123.636719 180.5625 123.082031 182.230469 C 119.050781 182.230469 114.878906 182.71875 110.710938 183.550781 C 109.390625 183.898438 108 184.246094 106.609375 184.523438 Z M 108.417969 197.859375 C 106.679688 198.347656 104.941406 198.972656 103.136719 199.527344 C 103.761719 204.25 104.59375 208.628906 105.777344 212.796875 C 105.84375 212.863281 105.84375 212.863281 105.84375 213.074219 C 109.945312 208.210938 113.835938 202.445312 117.171875 196.054688 C 115.921875 196.125 114.671875 196.332031 113.488281 196.679688 C 111.820312 196.957031 110.152344 197.445312 108.417969 197.859375 Z M 90.488281 205.015625 C 91.113281 208.90625 91.945312 212.796875 92.917969 216.335938 C 93.683594 218.976562 94.378906 221.128906 95.074219 222.867188 C 86.523438 228.839844 80.410156 228.703125 77.558594 223.699219 C 74.710938 218.628906 77.003906 213.835938 85.273438 208.140625 C 86.804688 207.167969 88.609375 206.125 90.488281 205.015625 Z M 90.488281 205.015625 " fill-opacity="1" fill-rule="evenodd"/><path fill="#ffffff" d="M 282.023438 141.386719 L 302.316406 202.304688 C 303.496094 205.777344 307.25 207.65625 310.726562 206.472656 C 314.269531 205.433594 316.144531 201.542969 314.964844 198.070312 L 288.277344 118.117188 C 286.261719 112.003906 277.644531 112.003906 275.628906 118.117188 L 248.941406 198.070312 C 247.761719 201.542969 249.636719 205.433594 253.179688 206.472656 C 256.65625 207.65625 260.410156 205.777344 261.589844 202.304688 Z M 282.023438 141.386719 " fill-opacity="1" fill-rule="nonzero"/><path fill="#ffffff" d="M 261.9375 166.878906 L 301.96875 166.878906 L 301.96875 180.214844 L 261.9375 180.214844 Z M 261.9375 166.878906 " fill-opacity="1" fill-rule="evenodd"/></svg>