<svg xmlns="http://www.w3.org/2000/svg" xmlns:xlink="http://www.w3.org/1999/xlink" width="529" zoomAndPan="magnify" viewBox="0 0 396.75 396.749984" height="529" preserveAspectRatio="xMidYMid meet" version="1.0"><defs><clipPath id="id1"><path d="M 0 0 L 396.5 0 L 396.5 396.5 L 0 396.5 Z M 0 0 " clip-rule="nonzero"/></clipPath></defs><path fill="#332f2f" d="M 198.375 154.40625 C 174.15625 154.40625 154.40625 174.15625 154.40625 198.375 C 154.40625 222.59375 174.15625 242.34375 198.375 242.34375 C 222.59375 242.34375 242.34375 222.59375 242.34375 198.375 C 242.34375 174.15625 222.59375 154.40625 198.375 154.40625 Z M 198.375 154.40625 " fill-opacity="1" fill-rule="nonzero"/><path fill="#332f2f" d="M 257.457031 90.515625 L 139.292969 90.515625 C 112.5 90.515625 90.515625 112.328125 90.515625 139.292969 L 90.515625 257.457031 C 90.515625 284.25 112.328125 306.234375 139.292969 306.234375 L 257.457031 306.234375 C 284.25 306.234375 306.234375 284.421875 306.234375 257.457031 L 306.234375 139.292969 C 306.0625 112.328125 284.25 90.515625 257.457031 90.515625 Z M 198.375 264.5 C 161.792969 264.5 132.078125 234.785156 132.078125 198.203125 C 132.078125 161.621094 161.792969 131.90625 198.375 131.90625 C 234.957031 131.90625 264.671875 161.621094 264.671875 198.203125 C 264.5 234.785156 234.785156 264.5 198.375 264.5 Z M 269.308594 143.070312 C 260.550781 143.070312 253.335938 135.855469 253.335938 127.097656 C 253.335938 118.339844 260.550781 111.125 269.308594 111.125 C 278.070312 111.125 285.28125 118.339844 285.28125 127.097656 C 285.28125 136.027344 278.242188 143.070312 269.308594 143.070312 Z M 269.308594 143.070312 " fill-opacity="1" fill-rule="nonzero"/><g clip-path="url(#id1)"><path fill="#332f2f" d="M 198.375 0 C 88.796875 0 0 88.796875 0 198.375 C 0 307.953125 88.796875 396.75 198.375 396.75 C 307.953125 396.75 396.75 307.953125 396.75 198.375 C 396.578125 88.796875 307.78125 0 198.375 0 Z M 328.390625 257.457031 C 328.390625 296.617188 296.445312 328.5625 257.285156 328.5625 L 139.292969 328.5625 C 100.132812 328.5625 68.1875 296.617188 68.1875 257.457031 L 68.1875 139.292969 C 68.1875 100.132812 100.132812 68.1875 139.292969 68.1875 L 257.457031 68.1875 C 296.617188 68.1875 328.5625 100.132812 328.5625 139.292969 L 328.5625 257.457031 Z M 328.390625 257.457031 " fill-opacity="1" fill-rule="nonzero"/></g></svg>