<svg xmlns="http://www.w3.org/2000/svg" xmlns:xlink="http://www.w3.org/1999/xlink" width="529" zoomAndPan="magnify" viewBox="0 0 396.75 396.749984" height="529" preserveAspectRatio="xMidYMid meet" version="1.0"><defs><clipPath id="id1"><path d="M 0 0 L 396.5 0 L 396.5 396.5 L 0 396.5 Z M 0 0 " clip-rule="nonzero"/></clipPath></defs><g clip-path="url(#id1)"><path fill="#332f2f" d="M 297.011719 0.15625 L 99.421875 0.15625 C 44.675781 0.15625 0 44.835938 0 99.582031 L 0 297.484375 C 0 351.914062 44.675781 396.59375 99.421875 396.59375 L 297.328125 396.59375 C 352.074219 396.59375 396.75 351.914062 396.75 297.167969 L 396.75 99.582031 C 396.433594 44.835938 351.757812 0.15625 297.011719 0.15625 Z M 132.144531 321.082031 L 75.511719 321.082031 L 75.511719 157.472656 L 132.144531 157.472656 Z M 103.515625 132.300781 C 87.46875 132.300781 74.566406 119.402344 74.566406 103.355469 C 74.566406 87.308594 87.46875 74.410156 103.515625 74.410156 C 119.558594 74.410156 132.460938 87.308594 132.460938 103.355469 C 132.144531 119.402344 119.246094 132.300781 103.515625 132.300781 Z M 320.925781 321.082031 L 273.730469 321.082031 L 273.730469 241.792969 C 273.730469 222.601562 271.210938 198.058594 245.097656 198.058594 C 218.355469 198.058594 213.949219 218.824219 213.949219 240.535156 L 213.949219 321.082031 L 166.753906 321.082031 L 166.753906 157.472656 L 210.804688 157.472656 L 210.804688 179.496094 L 212.0625 179.496094 C 218.984375 166.910156 235.03125 157.160156 260.199219 157.160156 C 312.113281 157.160156 321.238281 187.046875 321.238281 231.410156 L 321.238281 321.082031 Z M 320.925781 321.082031 " fill-opacity="1" fill-rule="nonzero"/></g></svg>