<svg xmlns="http://www.w3.org/2000/svg" xmlns:xlink="http://www.w3.org/1999/xlink" width="529" zoomAndPan="magnify" viewBox="0 0 396.75 396.749984" height="529" preserveAspectRatio="xMidYMid meet" version="1.0"><defs><g/><clipPath id="id1"><path d="M 0 0 L 396.5 0 L 396.5 396.5 L 0 396.5 Z M 0 0 " clip-rule="nonzero"/></clipPath><clipPath id="id2"><path d="M 0 27 L 396.5 27 L 396.5 369.71875 L 0 369.71875 Z M 0 27 " clip-rule="nonzero"/></clipPath><clipPath id="id3"><path d="M 0 27 L 396.5 27 L 396.5 369.71875 L 0 369.71875 Z M 0 27 " clip-rule="nonzero"/></clipPath><clipPath id="id4"><path d="M 0 27 L 396.5 27 L 396.5 369.71875 L 0 369.71875 Z M 0 27 " clip-rule="nonzero"/></clipPath><clipPath id="id5"><path d="M 0 28 L 396.5 28 L 396.5 369.914062 L 0 369.914062 Z M 0 28 " clip-rule="nonzero"/></clipPath><clipPath id="id6"><path d="M 0 27 L 396.5 27 L 396.5 369.71875 L 0 369.71875 Z M 0 27 " clip-rule="nonzero"/></clipPath><clipPath id="id7"><path d="M 0 27 L 396.5 27 L 396.5 369.71875 L 0 369.71875 Z M 0 27 " clip-rule="nonzero"/></clipPath><clipPath id="id8"><path d="M 0 27 L 396.5 27 L 396.5 369.71875 L 0 369.71875 Z M 0 27 " clip-rule="nonzero"/></clipPath><clipPath id="id9"><path d="M 0 27 L 396.5 27 L 396.5 369.71875 L 0 369.71875 Z M 0 27 " clip-rule="nonzero"/></clipPath></defs><g clip-path="url(#id1)"><path fill="#ffffff" d="M 0 0 L 396.75 0 L 396.75 396.75 L 0 396.75 Z M 0 0 " fill-opacity="1" fill-rule="nonzero"/><path fill="#ffffff" d="M 0 0 L 396.75 0 L 396.75 396.75 L 0 396.75 Z M 0 0 " fill-opacity="1" fill-rule="nonzero"/><path fill="#ffffff" d="M 0 0 L 396.75 0 L 396.75 396.75 L 0 396.75 Z M 0 0 " fill-opacity="1" fill-rule="nonzero"/></g><g clip-path="url(#id2)"><path fill="#ffbd59" d="M 168.816406 28.46875 C 149.894531 43.324219 130.96875 58.175781 112.039062 73.027344 C 81.925781 96.664062 51.808594 120.296875 21.691406 143.933594 C 14.847656 149.304688 8 154.675781 1.15625 160.050781 C 0.28125 160.738281 0.550781 162.074219 1.15625 162.800781 C 6.875 169.636719 12.585938 176.476562 18.304688 183.316406 C 32.03125 199.738281 45.757812 216.164062 59.488281 232.582031 C 76.019531 252.363281 92.554688 272.140625 109.085938 291.921875 C 123.445312 309.101562 137.804688 326.28125 152.167969 343.457031 C 156.886719 349.105469 161.605469 354.753906 166.324219 360.398438 C 168.539062 363.046875 170.617188 366.136719 173.117188 368.523438 C 173.226562 368.625 173.316406 368.757812 173.414062 368.878906 C 174.097656 369.695312 175.457031 369.554688 176.160156 368.878906 C 183.441406 361.902344 190.722656 354.925781 198.003906 347.953125 C 215.484375 331.207031 232.964844 314.460938 250.449219 297.710938 C 271.515625 277.53125 292.582031 257.347656 313.65625 237.164062 C 331.941406 219.644531 350.234375 202.125 368.519531 184.605469 C 374.535156 178.84375 380.546875 173.082031 386.566406 167.320312 C 389.410156 164.59375 392.589844 161.992188 395.210938 159.039062 C 395.324219 158.910156 395.460938 158.796875 395.585938 158.675781 C 396.484375 157.816406 396.265625 156.234375 395.195312 155.625 C 387.769531 151.402344 380.351562 147.179688 372.933594 142.960938 C 355.109375 132.816406 337.28125 122.675781 319.460938 112.535156 C 297.890625 100.265625 276.324219 87.992188 254.757812 75.722656 C 236.105469 65.109375 217.453125 54.496094 198.800781 43.886719 C 192.667969 40.394531 186.535156 36.90625 180.402344 33.417969 C 177.492188 31.761719 174.605469 29.804688 171.566406 28.386719 C 171.429688 28.324219 171.300781 28.238281 171.175781 28.164062 C 168.996094 26.925781 167.039062 30.285156 169.210938 31.523438 C 176.632812 35.746094 184.054688 39.964844 191.476562 44.1875 C 209.300781 54.328125 227.121094 64.46875 244.945312 74.613281 C 266.511719 86.882812 288.082031 99.152344 309.648438 111.425781 C 328.300781 122.035156 346.953125 132.648438 365.605469 143.265625 C 371.738281 146.75 377.871094 150.238281 384.003906 153.730469 C 385.949219 154.835938 387.890625 155.941406 389.835938 157.050781 C 390.726562 157.554688 391.847656 158.496094 392.84375 158.757812 C 392.972656 158.792969 393.113281 158.914062 393.234375 158.980469 C 393.101562 157.960938 392.972656 156.945312 392.839844 155.929688 C 385.558594 162.90625 378.28125 169.875 371 176.851562 C 353.515625 193.601562 336.035156 210.34375 318.550781 227.09375 C 297.480469 247.273438 276.414062 267.457031 255.347656 287.640625 C 237.054688 305.160156 218.769531 322.679688 200.476562 340.203125 C 194.464844 345.960938 188.449219 351.722656 182.4375 357.484375 C 180.523438 359.316406 178.613281 361.148438 176.703125 362.976562 C 175.816406 363.828125 174.464844 364.734375 173.789062 365.765625 C 173.703125 365.898438 173.53125 366.019531 173.414062 366.128906 C 174.328125 366.128906 175.242188 366.128906 176.160156 366.128906 C 170.445312 359.289062 164.726562 352.449219 159.007812 345.609375 C 145.28125 329.191406 131.558594 312.765625 117.832031 296.347656 C 101.296875 276.566406 84.761719 256.785156 68.226562 237.007812 C 53.867188 219.824219 39.507812 202.648438 25.152344 185.46875 C 20.429688 179.824219 15.707031 174.175781 10.992188 168.527344 C 9.503906 166.75 8.015625 164.972656 6.53125 163.195312 C 5.835938 162.367188 5.085938 161.042969 4.199219 160.40625 C 4.085938 160.324219 3.996094 160.160156 3.902344 160.050781 C 3.902344 160.964844 3.902344 161.882812 3.902344 162.800781 C 22.828125 147.945312 41.757812 133.089844 60.679688 118.238281 C 90.796875 94.605469 120.914062 70.96875 151.027344 47.335938 C 157.875 41.964844 164.722656 36.589844 171.566406 31.214844 C 173.53125 29.675781 170.765625 26.941406 168.816406 28.46875 " fill-opacity="1" fill-rule="nonzero"/></g><path fill="#ffbd59" d="M 43.140625 40.742188 C 43.839844 49.132812 44.535156 57.523438 45.226562 65.917969 C 46.910156 86.179688 48.589844 106.441406 50.269531 126.703125 C 52.296875 151.113281 54.320312 175.527344 56.347656 199.9375 C 58.097656 221.046875 59.847656 242.160156 61.597656 263.269531 C 62.175781 270.238281 62.75 277.203125 63.332031 284.171875 C 63.597656 287.402344 63.496094 290.957031 64.160156 294.136719 C 64.1875 294.28125 64.179688 294.441406 64.195312 294.589844 C 64.230469 295.023438 64.472656 295.402344 64.910156 295.527344 C 87.863281 302.019531 110.820312 308.515625 133.78125 315.011719 C 170.222656 325.316406 206.667969 335.628906 243.113281 345.9375 C 251.464844 348.300781 259.820312 350.664062 268.171875 353.023438 C 268.710938 353.179688 269.183594 352.839844 269.367188 352.347656 C 272.578125 343.664062 275.789062 334.984375 279 326.304688 C 286.667969 305.566406 294.339844 284.824219 302.011719 264.085938 C 311.289062 239.007812 320.5625 213.933594 329.835938 188.855469 C 337.886719 167.09375 345.933594 145.332031 353.984375 123.566406 C 356.617188 116.449219 359.25 109.332031 361.882812 102.214844 C 363.078125 98.980469 365.039062 95.386719 365.664062 91.980469 C 365.695312 91.828125 365.777344 91.675781 365.832031 91.535156 C 366 91.078125 365.640625 90.417969 365.152344 90.335938 C 354.515625 88.660156 343.886719 86.988281 333.25 85.3125 C 307.714844 81.289062 282.175781 77.265625 256.636719 73.242188 C 225.742188 68.375 194.84375 63.507812 163.949219 58.640625 C 137.242188 54.433594 110.535156 50.226562 83.828125 46.019531 C 75.03125 44.636719 66.230469 43.25 57.429688 41.863281 C 53.308594 41.210938 49.078125 40.199219 44.910156 39.890625 C 44.734375 39.878906 44.550781 39.835938 44.371094 39.804688 C 43.148438 39.613281 42.621094 41.484375 43.855469 41.679688 C 54.488281 43.355469 65.121094 45.03125 75.757812 46.707031 C 101.292969 50.726562 126.832031 54.75 152.371094 58.773438 C 183.265625 63.640625 214.164062 68.507812 245.058594 73.375 C 271.765625 77.582031 298.472656 81.789062 325.179688 85.996094 C 333.976562 87.382812 342.777344 88.769531 351.578125 90.152344 C 354.300781 90.582031 357.027344 91.011719 359.753906 91.441406 C 360.902344 91.625 362.941406 92.378906 364.09375 92.128906 C 364.238281 92.09375 364.480469 92.1875 364.636719 92.210938 C 364.410156 91.8125 364.1875 91.417969 363.957031 91.015625 C 360.746094 99.695312 357.535156 108.382812 354.324219 117.0625 C 346.652344 137.800781 338.984375 158.542969 331.3125 179.28125 C 322.039062 204.355469 312.761719 229.433594 303.488281 254.511719 C 295.4375 276.273438 287.390625 298.035156 279.339844 319.796875 C 276.710938 326.917969 274.078125 334.035156 271.445312 341.148438 C 270.613281 343.390625 269.789062 345.628906 268.957031 347.867188 C 268.625 348.773438 267.621094 350.40625 267.65625 351.386719 C 267.664062 351.511719 267.539062 351.707031 267.492188 351.832031 C 267.890625 351.605469 268.289062 351.378906 268.691406 351.152344 C 245.730469 344.660156 222.773438 338.164062 199.820312 331.667969 C 163.371094 321.359375 126.929688 311.050781 90.480469 300.742188 C 82.132812 298.375 73.777344 296.015625 65.425781 293.652344 C 65.664062 293.964844 65.898438 294.277344 66.136719 294.589844 C 65.441406 286.199219 64.746094 277.808594 64.050781 269.417969 C 62.367188 249.15625 60.691406 228.894531 59.007812 208.628906 C 56.984375 184.21875 54.957031 159.804688 52.933594 135.394531 C 51.183594 114.285156 49.429688 93.175781 47.679688 72.0625 C 47.105469 65.097656 46.527344 58.128906 45.945312 51.160156 C 45.679688 47.953125 45.824219 44.347656 45.121094 41.195312 C 45.089844 41.050781 45.097656 40.890625 45.085938 40.742188 C 44.984375 39.507812 43.039062 39.492188 43.140625 40.742188 " fill-opacity="1" fill-rule="nonzero"/><g clip-path="url(#id3)"><path fill="#ffbd59" d="M 168.816406 28.46875 C 149.894531 43.324219 130.96875 58.175781 112.039062 73.027344 C 81.925781 96.664062 51.808594 120.296875 21.691406 143.933594 C 14.847656 149.304688 8 154.675781 1.15625 160.050781 C 0.28125 160.738281 0.550781 162.074219 1.15625 162.800781 C 6.875 169.636719 12.585938 176.476562 18.304688 183.316406 C 32.03125 199.738281 45.757812 216.164062 59.488281 232.582031 C 76.019531 252.363281 92.554688 272.140625 109.085938 291.921875 C 123.445312 309.101562 137.804688 326.28125 152.167969 343.457031 C 156.886719 349.105469 161.605469 354.753906 166.324219 360.398438 C 168.539062 363.046875 170.617188 366.136719 173.117188 368.523438 C 173.226562 368.625 173.316406 368.757812 173.414062 368.878906 C 174.097656 369.695312 175.457031 369.554688 176.160156 368.878906 C 183.441406 361.902344 190.722656 354.925781 198.003906 347.953125 C 215.484375 331.207031 232.964844 314.460938 250.449219 297.710938 C 271.515625 277.53125 292.582031 257.347656 313.65625 237.164062 C 331.941406 219.644531 350.234375 202.125 368.519531 184.605469 C 374.535156 178.84375 380.546875 173.082031 386.566406 167.320312 C 389.410156 164.59375 392.589844 161.992188 395.210938 159.039062 C 395.324219 158.910156 395.460938 158.796875 395.585938 158.675781 C 396.484375 157.816406 396.265625 156.234375 395.195312 155.625 C 387.769531 151.402344 380.351562 147.179688 372.933594 142.960938 C 355.109375 132.816406 337.28125 122.675781 319.460938 112.535156 C 297.890625 100.265625 276.324219 87.992188 254.757812 75.722656 C 236.105469 65.109375 217.453125 54.496094 198.800781 43.886719 C 192.667969 40.394531 186.535156 36.90625 180.402344 33.417969 C 177.492188 31.761719 174.605469 29.804688 171.566406 28.386719 C 171.429688 28.324219 171.300781 28.238281 171.175781 28.164062 C 168.996094 26.925781 167.039062 30.285156 169.210938 31.523438 C 176.632812 35.746094 184.054688 39.964844 191.476562 44.1875 C 209.300781 54.328125 227.121094 64.46875 244.945312 74.613281 C 266.511719 86.882812 288.082031 99.152344 309.648438 111.425781 C 328.300781 122.035156 346.953125 132.648438 365.605469 143.265625 C 371.738281 146.75 377.871094 150.238281 384.003906 153.730469 C 385.949219 154.835938 387.890625 155.941406 389.835938 157.050781 C 390.726562 157.554688 391.847656 158.496094 392.84375 158.757812 C 392.972656 158.792969 393.113281 158.914062 393.234375 158.980469 C 393.101562 157.960938 392.972656 156.945312 392.839844 155.929688 C 385.558594 162.90625 378.28125 169.875 371 176.851562 C 353.515625 193.601562 336.035156 210.34375 318.550781 227.09375 C 297.480469 247.273438 276.414062 267.457031 255.347656 287.640625 C 237.054688 305.160156 218.769531 322.679688 200.476562 340.203125 C 194.464844 345.960938 188.449219 351.722656 182.4375 357.484375 C 180.523438 359.316406 178.613281 361.148438 176.703125 362.976562 C 175.816406 363.828125 174.464844 364.734375 173.789062 365.765625 C 173.703125 365.898438 173.53125 366.019531 173.414062 366.128906 C 174.328125 366.128906 175.242188 366.128906 176.160156 366.128906 C 170.445312 359.289062 164.726562 352.449219 159.007812 345.609375 C 145.28125 329.191406 131.558594 312.765625 117.832031 296.347656 C 101.296875 276.566406 84.761719 256.785156 68.226562 237.007812 C 53.867188 219.824219 39.507812 202.648438 25.152344 185.46875 C 20.429688 179.824219 15.707031 174.175781 10.992188 168.527344 C 9.503906 166.75 8.015625 164.972656 6.53125 163.195312 C 5.835938 162.367188 5.085938 161.042969 4.199219 160.40625 C 4.085938 160.324219 3.996094 160.160156 3.902344 160.050781 C 3.902344 160.964844 3.902344 161.882812 3.902344 162.800781 C 22.828125 147.945312 41.757812 133.089844 60.679688 118.238281 C 90.796875 94.605469 120.914062 70.96875 151.027344 47.335938 C 157.875 41.964844 164.722656 36.589844 171.566406 31.214844 C 173.53125 29.675781 170.765625 26.941406 168.816406 28.46875 " fill-opacity="1" fill-rule="nonzero"/></g><path fill="#ffbd59" d="M 43.140625 40.742188 C 43.839844 49.132812 44.535156 57.523438 45.226562 65.917969 C 46.910156 86.179688 48.589844 106.441406 50.269531 126.703125 C 52.296875 151.113281 54.320312 175.527344 56.347656 199.9375 C 58.097656 221.046875 59.847656 242.160156 61.597656 263.269531 C 62.175781 270.238281 62.75 277.203125 63.332031 284.171875 C 63.597656 287.402344 63.496094 290.957031 64.160156 294.136719 C 64.1875 294.28125 64.179688 294.441406 64.195312 294.589844 C 64.230469 295.023438 64.472656 295.402344 64.910156 295.527344 C 87.863281 302.019531 110.820312 308.515625 133.78125 315.011719 C 170.222656 325.316406 206.667969 335.628906 243.113281 345.9375 C 251.464844 348.300781 259.820312 350.664062 268.171875 353.023438 C 268.710938 353.179688 269.183594 352.839844 269.367188 352.347656 C 272.578125 343.664062 275.789062 334.984375 279 326.304688 C 286.667969 305.566406 294.339844 284.824219 302.011719 264.085938 C 311.289062 239.007812 320.5625 213.933594 329.835938 188.855469 C 337.886719 167.09375 345.933594 145.332031 353.984375 123.566406 C 356.617188 116.449219 359.25 109.332031 361.882812 102.214844 C 363.078125 98.980469 365.039062 95.386719 365.664062 91.980469 C 365.695312 91.828125 365.777344 91.675781 365.832031 91.535156 C 366 91.078125 365.640625 90.417969 365.152344 90.335938 C 354.515625 88.660156 343.886719 86.988281 333.25 85.3125 C 307.714844 81.289062 282.175781 77.265625 256.636719 73.242188 C 225.742188 68.375 194.84375 63.507812 163.949219 58.640625 C 137.242188 54.433594 110.535156 50.226562 83.828125 46.019531 C 75.03125 44.636719 66.230469 43.25 57.429688 41.863281 C 53.308594 41.210938 49.078125 40.199219 44.910156 39.890625 C 44.734375 39.878906 44.550781 39.835938 44.371094 39.804688 C 43.148438 39.613281 42.621094 41.484375 43.855469 41.679688 C 54.488281 43.355469 65.121094 45.03125 75.757812 46.707031 C 101.292969 50.726562 126.832031 54.75 152.371094 58.773438 C 183.265625 63.640625 214.164062 68.507812 245.058594 73.375 C 271.765625 77.582031 298.472656 81.789062 325.179688 85.996094 C 333.976562 87.382812 342.777344 88.769531 351.578125 90.152344 C 354.300781 90.582031 357.027344 91.011719 359.753906 91.441406 C 360.902344 91.625 362.941406 92.378906 364.09375 92.128906 C 364.238281 92.09375 364.480469 92.1875 364.636719 92.210938 C 364.410156 91.8125 364.1875 91.417969 363.957031 91.015625 C 360.746094 99.695312 357.535156 108.382812 354.324219 117.0625 C 346.652344 137.800781 338.984375 158.542969 331.3125 179.28125 C 322.039062 204.355469 312.761719 229.433594 303.488281 254.511719 C 295.4375 276.273438 287.390625 298.035156 279.339844 319.796875 C 276.710938 326.917969 274.078125 334.035156 271.445312 341.148438 C 270.613281 343.390625 269.789062 345.628906 268.957031 347.867188 C 268.625 348.773438 267.621094 350.40625 267.65625 351.386719 C 267.664062 351.511719 267.539062 351.707031 267.492188 351.832031 C 267.890625 351.605469 268.289062 351.378906 268.691406 351.152344 C 245.730469 344.660156 222.773438 338.164062 199.820312 331.667969 C 163.371094 321.359375 126.929688 311.050781 90.480469 300.742188 C 82.132812 298.375 73.777344 296.015625 65.425781 293.652344 C 65.664062 293.964844 65.898438 294.277344 66.136719 294.589844 C 65.441406 286.199219 64.746094 277.808594 64.050781 269.417969 C 62.367188 249.15625 60.691406 228.894531 59.007812 208.628906 C 56.984375 184.21875 54.957031 159.804688 52.933594 135.394531 C 51.183594 114.285156 49.429688 93.175781 47.679688 72.0625 C 47.105469 65.097656 46.527344 58.128906 45.945312 51.160156 C 45.679688 47.953125 45.824219 44.347656 45.121094 41.195312 C 45.089844 41.050781 45.097656 40.890625 45.085938 40.742188 C 44.984375 39.507812 43.039062 39.492188 43.140625 40.742188 " fill-opacity="1" fill-rule="nonzero"/><g clip-path="url(#id4)"><path fill="#ffbd59" d="M 168.816406 28.46875 C 149.894531 43.324219 130.96875 58.175781 112.039062 73.027344 C 81.925781 96.664062 51.808594 120.296875 21.691406 143.933594 C 14.847656 149.304688 8 154.675781 1.15625 160.050781 C 0.28125 160.738281 0.550781 162.074219 1.15625 162.800781 C 6.875 169.636719 12.585938 176.476562 18.304688 183.316406 C 32.03125 199.738281 45.757812 216.164062 59.488281 232.582031 C 76.019531 252.363281 92.554688 272.140625 109.085938 291.921875 C 123.445312 309.101562 137.804688 326.28125 152.167969 343.457031 C 156.886719 349.105469 161.605469 354.753906 166.324219 360.398438 C 168.539062 363.046875 170.617188 366.136719 173.117188 368.523438 C 173.226562 368.625 173.316406 368.757812 173.414062 368.878906 C 174.097656 369.695312 175.457031 369.554688 176.160156 368.878906 C 183.441406 361.902344 190.722656 354.925781 198.003906 347.953125 C 215.484375 331.207031 232.964844 314.460938 250.449219 297.710938 C 271.515625 277.53125 292.582031 257.347656 313.65625 237.164062 C 331.941406 219.644531 350.234375 202.125 368.519531 184.605469 C 374.535156 178.84375 380.546875 173.082031 386.566406 167.320312 C 389.410156 164.59375 392.589844 161.992188 395.210938 159.039062 C 395.324219 158.910156 395.460938 158.796875 395.585938 158.675781 C 396.484375 157.816406 396.265625 156.234375 395.195312 155.625 C 387.769531 151.402344 380.351562 147.179688 372.933594 142.960938 C 355.109375 132.816406 337.28125 122.675781 319.460938 112.535156 C 297.890625 100.265625 276.324219 87.992188 254.757812 75.722656 C 236.105469 65.109375 217.453125 54.496094 198.800781 43.886719 C 192.667969 40.394531 186.535156 36.90625 180.402344 33.417969 C 177.492188 31.761719 174.605469 29.804688 171.566406 28.386719 C 171.429688 28.324219 171.300781 28.238281 171.175781 28.164062 C 168.996094 26.925781 167.039062 30.285156 169.210938 31.523438 C 176.632812 35.746094 184.054688 39.964844 191.476562 44.1875 C 209.300781 54.328125 227.121094 64.46875 244.945312 74.613281 C 266.511719 86.882812 288.082031 99.152344 309.648438 111.425781 C 328.300781 122.035156 346.953125 132.648438 365.605469 143.265625 C 371.738281 146.75 377.871094 150.238281 384.003906 153.730469 C 385.949219 154.835938 387.890625 155.941406 389.835938 157.050781 C 390.726562 157.554688 391.847656 158.496094 392.84375 158.757812 C 392.972656 158.792969 393.113281 158.914062 393.234375 158.980469 C 393.101562 157.960938 392.972656 156.945312 392.839844 155.929688 C 385.558594 162.90625 378.28125 169.875 371 176.851562 C 353.515625 193.601562 336.035156 210.34375 318.550781 227.09375 C 297.480469 247.273438 276.414062 267.457031 255.347656 287.640625 C 237.054688 305.160156 218.769531 322.679688 200.476562 340.203125 C 194.464844 345.960938 188.449219 351.722656 182.4375 357.484375 C 180.523438 359.316406 178.613281 361.148438 176.703125 362.976562 C 175.816406 363.828125 174.464844 364.734375 173.789062 365.765625 C 173.703125 365.898438 173.53125 366.019531 173.414062 366.128906 C 174.328125 366.128906 175.242188 366.128906 176.160156 366.128906 C 170.445312 359.289062 164.726562 352.449219 159.007812 345.609375 C 145.28125 329.191406 131.558594 312.765625 117.832031 296.347656 C 101.296875 276.566406 84.761719 256.785156 68.226562 237.007812 C 53.867188 219.824219 39.507812 202.648438 25.152344 185.46875 C 20.429688 179.824219 15.707031 174.175781 10.992188 168.527344 C 9.503906 166.75 8.015625 164.972656 6.53125 163.195312 C 5.835938 162.367188 5.085938 161.042969 4.199219 160.40625 C 4.085938 160.324219 3.996094 160.160156 3.902344 160.050781 C 3.902344 160.964844 3.902344 161.882812 3.902344 162.800781 C 22.828125 147.945312 41.757812 133.089844 60.679688 118.238281 C 90.796875 94.605469 120.914062 70.96875 151.027344 47.335938 C 157.875 41.964844 164.722656 36.589844 171.566406 31.214844 C 173.53125 29.675781 170.765625 26.941406 168.816406 28.46875 " fill-opacity="1" fill-rule="nonzero"/></g><path fill="#ffbd59" d="M 43.140625 40.742188 C 43.839844 49.132812 44.535156 57.523438 45.226562 65.917969 C 46.910156 86.179688 48.589844 106.441406 50.269531 126.703125 C 52.296875 151.113281 54.320312 175.527344 56.347656 199.9375 C 58.097656 221.046875 59.847656 242.160156 61.597656 263.269531 C 62.175781 270.238281 62.75 277.203125 63.332031 284.171875 C 63.597656 287.402344 63.496094 290.957031 64.160156 294.136719 C 64.1875 294.28125 64.179688 294.441406 64.195312 294.589844 C 64.230469 295.023438 64.472656 295.402344 64.910156 295.527344 C 87.863281 302.019531 110.820312 308.515625 133.78125 315.011719 C 170.222656 325.316406 206.667969 335.628906 243.113281 345.9375 C 251.464844 348.300781 259.820312 350.664062 268.171875 353.023438 C 268.710938 353.179688 269.183594 352.839844 269.367188 352.347656 C 272.578125 343.664062 275.789062 334.984375 279 326.304688 C 286.667969 305.566406 294.339844 284.824219 302.011719 264.085938 C 311.289062 239.007812 320.5625 213.933594 329.835938 188.855469 C 337.886719 167.09375 345.933594 145.332031 353.984375 123.566406 C 356.617188 116.449219 359.25 109.332031 361.882812 102.214844 C 363.078125 98.980469 365.039062 95.386719 365.664062 91.980469 C 365.695312 91.828125 365.777344 91.675781 365.832031 91.535156 C 366 91.078125 365.640625 90.417969 365.152344 90.335938 C 354.515625 88.660156 343.886719 86.988281 333.25 85.3125 C 307.714844 81.289062 282.175781 77.265625 256.636719 73.242188 C 225.742188 68.375 194.84375 63.507812 163.949219 58.640625 C 137.242188 54.433594 110.535156 50.226562 83.828125 46.019531 C 75.03125 44.636719 66.230469 43.25 57.429688 41.863281 C 53.308594 41.210938 49.078125 40.199219 44.910156 39.890625 C 44.734375 39.878906 44.550781 39.835938 44.371094 39.804688 C 43.148438 39.613281 42.621094 41.484375 43.855469 41.679688 C 54.488281 43.355469 65.121094 45.03125 75.757812 46.707031 C 101.292969 50.726562 126.832031 54.75 152.371094 58.773438 C 183.265625 63.640625 214.164062 68.507812 245.058594 73.375 C 271.765625 77.582031 298.472656 81.789062 325.179688 85.996094 C 333.976562 87.382812 342.777344 88.769531 351.578125 90.152344 C 354.300781 90.582031 357.027344 91.011719 359.753906 91.441406 C 360.902344 91.625 362.941406 92.378906 364.09375 92.128906 C 364.238281 92.09375 364.480469 92.1875 364.636719 92.210938 C 364.410156 91.8125 364.1875 91.417969 363.957031 91.015625 C 360.746094 99.695312 357.535156 108.382812 354.324219 117.0625 C 346.652344 137.800781 338.984375 158.542969 331.3125 179.28125 C 322.039062 204.355469 312.761719 229.433594 303.488281 254.511719 C 295.4375 276.273438 287.390625 298.035156 279.339844 319.796875 C 276.710938 326.917969 274.078125 334.035156 271.445312 341.148438 C 270.613281 343.390625 269.789062 345.628906 268.957031 347.867188 C 268.625 348.773438 267.621094 350.40625 267.65625 351.386719 C 267.664062 351.511719 267.539062 351.707031 267.492188 351.832031 C 267.890625 351.605469 268.289062 351.378906 268.691406 351.152344 C 245.730469 344.660156 222.773438 338.164062 199.820312 331.667969 C 163.371094 321.359375 126.929688 311.050781 90.480469 300.742188 C 82.132812 298.375 73.777344 296.015625 65.425781 293.652344 C 65.664062 293.964844 65.898438 294.277344 66.136719 294.589844 C 65.441406 286.199219 64.746094 277.808594 64.050781 269.417969 C 62.367188 249.15625 60.691406 228.894531 59.007812 208.628906 C 56.984375 184.21875 54.957031 159.804688 52.933594 135.394531 C 51.183594 114.285156 49.429688 93.175781 47.679688 72.0625 C 47.105469 65.097656 46.527344 58.128906 45.945312 51.160156 C 45.679688 47.953125 45.824219 44.347656 45.121094 41.195312 C 45.089844 41.050781 45.097656 40.890625 45.085938 40.742188 C 44.984375 39.507812 43.039062 39.492188 43.140625 40.742188 " fill-opacity="1" fill-rule="nonzero"/><g clip-path="url(#id5)"><path fill="#ffbd59" d="M 168.816406 28.664062 C 149.894531 43.519531 130.96875 58.371094 112.039062 73.222656 C 81.925781 96.859375 51.808594 120.492188 21.691406 144.128906 C 14.847656 149.5 8 154.871094 1.15625 160.246094 C 0.28125 160.933594 0.550781 162.269531 1.15625 162.996094 C 6.875 169.832031 12.585938 176.671875 18.304688 183.511719 C 32.03125 199.933594 45.757812 216.359375 59.488281 232.777344 C 76.019531 252.558594 92.554688 272.335938 109.085938 292.117188 C 123.445312 309.296875 137.804688 326.476562 152.167969 343.65625 C 156.886719 349.300781 161.605469 354.949219 166.324219 360.59375 C 168.539062 363.242188 170.617188 366.332031 173.117188 368.71875 C 173.226562 368.820312 173.316406 368.953125 173.414062 369.074219 C 174.097656 369.890625 175.457031 369.75 176.160156 369.074219 C 183.441406 362.097656 190.722656 355.121094 198.003906 348.148438 C 215.484375 331.402344 232.964844 314.65625 250.449219 297.90625 C 271.515625 277.726562 292.582031 257.542969 313.65625 237.359375 C 331.941406 219.839844 350.234375 202.320312 368.519531 184.800781 C 374.535156 179.039062 380.546875 173.28125 386.566406 167.515625 C 389.410156 164.789062 392.589844 162.1875 395.210938 159.234375 C 395.324219 159.105469 395.460938 158.992188 395.585938 158.871094 C 396.484375 158.015625 396.265625 156.429688 395.195312 155.820312 C 387.769531 151.597656 380.351562 147.375 372.933594 143.15625 C 355.109375 133.011719 337.28125 122.871094 319.460938 112.730469 C 297.890625 100.460938 276.324219 88.1875 254.757812 75.917969 C 236.105469 65.304688 217.453125 54.691406 198.800781 44.082031 C 192.667969 40.589844 186.535156 37.101562 180.402344 33.613281 C 177.492188 31.957031 174.605469 30 171.566406 28.582031 C 171.429688 28.519531 171.300781 28.433594 171.175781 28.359375 C 168.996094 27.121094 167.039062 30.480469 169.210938 31.71875 C 176.632812 35.941406 184.054688 40.160156 191.476562 44.382812 C 209.300781 54.523438 227.121094 64.664062 244.945312 74.808594 C 266.511719 87.078125 288.082031 99.347656 309.648438 111.621094 C 328.300781 122.230469 346.953125 132.84375 365.605469 143.460938 C 371.738281 146.945312 377.871094 150.433594 384.003906 153.925781 C 385.949219 155.03125 387.890625 156.136719 389.835938 157.246094 C 390.726562 157.75 391.847656 158.691406 392.84375 158.953125 C 392.972656 158.988281 393.113281 159.109375 393.234375 159.179688 C 393.101562 158.15625 392.972656 157.140625 392.839844 156.125 C 385.558594 163.101562 378.28125 170.070312 371 177.046875 C 353.515625 193.796875 336.035156 210.539062 318.550781 227.289062 C 297.480469 247.46875 276.414062 267.652344 255.347656 287.835938 C 237.054688 305.359375 218.769531 322.875 200.476562 340.398438 C 194.464844 346.15625 188.449219 351.917969 182.4375 357.679688 C 180.523438 359.511719 178.613281 361.34375 176.703125 363.171875 C 175.816406 364.023438 174.464844 364.929688 173.789062 365.960938 C 173.703125 366.09375 173.53125 366.214844 173.414062 366.324219 C 174.328125 366.324219 175.242188 366.324219 176.160156 366.324219 C 170.445312 359.484375 164.726562 352.648438 159.007812 345.804688 C 145.28125 329.386719 131.558594 312.960938 117.832031 296.542969 C 101.296875 276.761719 84.761719 256.980469 68.226562 237.203125 C 53.867188 220.019531 39.507812 202.84375 25.152344 185.664062 C 20.429688 180.019531 15.707031 174.371094 10.992188 168.722656 C 9.503906 166.945312 8.015625 165.167969 6.53125 163.390625 C 5.835938 162.5625 5.085938 161.238281 4.199219 160.601562 C 4.085938 160.519531 3.996094 160.355469 3.902344 160.246094 C 3.902344 161.160156 3.902344 162.078125 3.902344 162.996094 C 22.828125 148.144531 41.757812 133.285156 60.679688 118.433594 C 90.796875 94.800781 120.914062 71.164062 151.027344 47.53125 C 157.875 42.160156 164.722656 36.785156 171.566406 31.410156 C 173.53125 29.871094 170.765625 27.136719 168.816406 28.664062 " fill-opacity="1" fill-rule="nonzero"/></g><path fill="#ffbd59" d="M 43.140625 40.9375 C 43.839844 49.328125 44.535156 57.71875 45.226562 66.113281 C 46.910156 86.375 48.589844 106.636719 50.269531 126.898438 C 52.296875 151.3125 54.320312 175.722656 56.347656 200.132812 C 58.097656 221.242188 59.847656 242.355469 61.597656 263.464844 C 62.175781 270.433594 62.75 277.402344 63.332031 284.367188 C 63.597656 287.597656 63.496094 291.152344 64.160156 294.332031 C 64.1875 294.476562 64.179688 294.636719 64.195312 294.785156 C 64.230469 295.21875 64.472656 295.597656 64.910156 295.722656 C 87.863281 302.214844 110.820312 308.710938 133.78125 315.207031 C 170.222656 325.511719 206.667969 335.824219 243.113281 346.132812 C 251.464844 348.496094 259.820312 350.859375 268.171875 353.21875 C 268.710938 353.375 269.183594 353.035156 269.367188 352.542969 C 272.578125 343.859375 275.789062 335.179688 279 326.5 C 286.667969 305.761719 294.339844 285.019531 302.011719 264.28125 C 311.289062 239.203125 320.5625 214.128906 329.835938 189.050781 C 337.886719 167.289062 345.933594 145.527344 353.984375 123.761719 C 356.617188 116.644531 359.25 109.527344 361.882812 102.410156 C 363.078125 99.175781 365.039062 95.582031 365.664062 92.175781 C 365.695312 92.027344 365.777344 91.871094 365.832031 91.730469 C 366 91.273438 365.640625 90.613281 365.152344 90.535156 C 354.515625 88.859375 343.886719 87.183594 333.25 85.507812 C 307.714844 81.484375 282.175781 77.460938 256.636719 73.4375 C 225.742188 68.570312 194.84375 63.703125 163.949219 58.835938 C 137.242188 54.628906 110.535156 50.421875 83.828125 46.214844 C 75.03125 44.832031 66.230469 43.445312 57.429688 42.058594 C 53.308594 41.40625 49.078125 40.394531 44.910156 40.085938 C 44.734375 40.074219 44.550781 40.03125 44.371094 40 C 43.148438 39.808594 42.621094 41.679688 43.855469 41.875 C 54.488281 43.550781 65.121094 45.226562 75.757812 46.902344 C 101.292969 50.921875 126.832031 54.945312 152.371094 58.96875 C 183.265625 63.835938 214.164062 68.703125 245.058594 73.570312 C 271.765625 77.777344 298.472656 81.984375 325.179688 86.191406 C 333.976562 87.578125 342.777344 88.964844 351.578125 90.351562 C 354.300781 90.777344 357.027344 91.207031 359.753906 91.636719 C 360.902344 91.820312 362.941406 92.574219 364.09375 92.324219 C 364.238281 92.292969 364.480469 92.382812 364.636719 92.40625 C 364.410156 92.007812 364.1875 91.613281 363.957031 91.210938 C 360.746094 99.894531 357.535156 108.578125 354.324219 117.257812 C 346.652344 137.996094 338.984375 158.738281 331.3125 179.476562 C 322.039062 204.550781 312.761719 229.628906 303.488281 254.707031 C 295.4375 276.46875 287.390625 298.230469 279.339844 319.992188 C 276.710938 327.113281 274.078125 334.230469 271.445312 341.347656 C 270.613281 343.585938 269.789062 345.824219 268.957031 348.0625 C 268.625 348.96875 267.621094 350.601562 267.65625 351.582031 C 267.664062 351.707031 267.539062 351.902344 267.492188 352.027344 C 267.890625 351.800781 268.289062 351.574219 268.691406 351.347656 C 245.730469 344.855469 222.773438 338.359375 199.820312 331.863281 C 163.371094 321.554688 126.929688 311.246094 90.480469 300.9375 C 82.132812 298.574219 73.777344 296.210938 65.425781 293.847656 C 65.664062 294.160156 65.898438 294.472656 66.136719 294.785156 C 65.441406 286.394531 64.746094 278.003906 64.050781 269.613281 C 62.367188 249.351562 60.691406 229.089844 59.007812 208.824219 C 56.984375 184.414062 54.957031 160 52.933594 135.589844 C 51.183594 114.480469 49.429688 93.371094 47.679688 72.257812 C 47.105469 65.292969 46.527344 58.324219 45.945312 51.359375 C 45.679688 48.148438 45.824219 44.542969 45.121094 41.390625 C 45.089844 41.246094 45.097656 41.085938 45.085938 40.9375 C 44.984375 39.703125 43.039062 39.6875 43.140625 40.9375 " fill-opacity="1" fill-rule="nonzero"/><g clip-path="url(#id6)"><path fill="#ffbd59" d="M 168.816406 28.46875 C 149.894531 43.324219 130.96875 58.175781 112.039062 73.027344 C 81.925781 96.664062 51.808594 120.296875 21.691406 143.933594 C 14.847656 149.304688 8 154.675781 1.15625 160.050781 C 0.28125 160.738281 0.550781 162.074219 1.15625 162.800781 C 6.875 169.636719 12.585938 176.476562 18.304688 183.316406 C 32.03125 199.738281 45.757812 216.164062 59.488281 232.582031 C 76.019531 252.363281 92.554688 272.140625 109.085938 291.921875 C 123.445312 309.101562 137.804688 326.28125 152.167969 343.457031 C 156.886719 349.105469 161.605469 354.753906 166.324219 360.398438 C 168.539062 363.046875 170.617188 366.136719 173.117188 368.523438 C 173.226562 368.625 173.316406 368.757812 173.414062 368.878906 C 174.097656 369.695312 175.457031 369.554688 176.160156 368.878906 C 183.441406 361.902344 190.722656 354.925781 198.003906 347.953125 C 215.484375 331.207031 232.964844 314.460938 250.449219 297.710938 C 271.515625 277.53125 292.582031 257.347656 313.65625 237.164062 C 331.941406 219.644531 350.234375 202.125 368.519531 184.605469 C 374.535156 178.84375 380.546875 173.082031 386.566406 167.320312 C 389.410156 164.59375 392.589844 161.992188 395.210938 159.039062 C 395.324219 158.910156 395.460938 158.796875 395.585938 158.675781 C 396.484375 157.816406 396.265625 156.234375 395.195312 155.625 C 387.769531 151.402344 380.351562 147.179688 372.933594 142.960938 C 355.109375 132.816406 337.28125 122.675781 319.460938 112.535156 C 297.890625 100.265625 276.324219 87.992188 254.757812 75.722656 C 236.105469 65.109375 217.453125 54.496094 198.800781 43.886719 C 192.667969 40.394531 186.535156 36.90625 180.402344 33.417969 C 177.492188 31.761719 174.605469 29.804688 171.566406 28.386719 C 171.429688 28.324219 171.300781 28.238281 171.175781 28.164062 C 168.996094 26.925781 167.039062 30.285156 169.210938 31.523438 C 176.632812 35.746094 184.054688 39.964844 191.476562 44.1875 C 209.300781 54.328125 227.121094 64.46875 244.945312 74.613281 C 266.511719 86.882812 288.082031 99.152344 309.648438 111.425781 C 328.300781 122.035156 346.953125 132.648438 365.605469 143.265625 C 371.738281 146.75 377.871094 150.238281 384.003906 153.730469 C 385.949219 154.835938 387.890625 155.941406 389.835938 157.050781 C 390.726562 157.554688 391.847656 158.496094 392.84375 158.757812 C 392.972656 158.792969 393.113281 158.914062 393.234375 158.980469 C 393.101562 157.960938 392.972656 156.945312 392.839844 155.929688 C 385.558594 162.90625 378.28125 169.875 371 176.851562 C 353.515625 193.601562 336.035156 210.34375 318.550781 227.09375 C 297.480469 247.273438 276.414062 267.457031 255.347656 287.640625 C 237.054688 305.160156 218.769531 322.679688 200.476562 340.203125 C 194.464844 345.960938 188.449219 351.722656 182.4375 357.484375 C 180.523438 359.316406 178.613281 361.148438 176.703125 362.976562 C 175.816406 363.828125 174.464844 364.734375 173.789062 365.765625 C 173.703125 365.898438 173.53125 366.019531 173.414062 366.128906 C 174.328125 366.128906 175.242188 366.128906 176.160156 366.128906 C 170.445312 359.289062 164.726562 352.449219 159.007812 345.609375 C 145.28125 329.191406 131.558594 312.765625 117.832031 296.347656 C 101.296875 276.566406 84.761719 256.785156 68.226562 237.007812 C 53.867188 219.824219 39.507812 202.648438 25.152344 185.46875 C 20.429688 179.824219 15.707031 174.175781 10.992188 168.527344 C 9.503906 166.75 8.015625 164.972656 6.53125 163.195312 C 5.835938 162.367188 5.085938 161.042969 4.199219 160.40625 C 4.085938 160.324219 3.996094 160.160156 3.902344 160.050781 C 3.902344 160.964844 3.902344 161.882812 3.902344 162.800781 C 22.828125 147.945312 41.757812 133.089844 60.679688 118.238281 C 90.796875 94.605469 120.914062 70.96875 151.027344 47.335938 C 157.875 41.964844 164.722656 36.589844 171.566406 31.214844 C 173.53125 29.675781 170.765625 26.941406 168.816406 28.46875 " fill-opacity="1" fill-rule="nonzero"/></g><path fill="#ffbd59" d="M 43.140625 40.742188 C 43.839844 49.132812 44.535156 57.523438 45.226562 65.917969 C 46.910156 86.179688 48.589844 106.441406 50.269531 126.703125 C 52.296875 151.113281 54.320312 175.527344 56.347656 199.9375 C 58.097656 221.046875 59.847656 242.160156 61.597656 263.269531 C 62.175781 270.238281 62.75 277.203125 63.332031 284.171875 C 63.597656 287.402344 63.496094 290.957031 64.160156 294.136719 C 64.1875 294.28125 64.179688 294.441406 64.195312 294.589844 C 64.230469 295.023438 64.472656 295.402344 64.910156 295.527344 C 87.863281 302.019531 110.820312 308.515625 133.78125 315.011719 C 170.222656 325.316406 206.667969 335.628906 243.113281 345.9375 C 251.464844 348.300781 259.820312 350.664062 268.171875 353.023438 C 268.710938 353.179688 269.183594 352.839844 269.367188 352.347656 C 272.578125 343.664062 275.789062 334.984375 279 326.304688 C 286.667969 305.566406 294.339844 284.824219 302.011719 264.085938 C 311.289062 239.007812 320.5625 213.933594 329.835938 188.855469 C 337.886719 167.09375 345.933594 145.332031 353.984375 123.566406 C 356.617188 116.449219 359.25 109.332031 361.882812 102.214844 C 363.078125 98.980469 365.039062 95.386719 365.664062 91.980469 C 365.695312 91.828125 365.777344 91.675781 365.832031 91.535156 C 366 91.078125 365.640625 90.417969 365.152344 90.335938 C 354.515625 88.660156 343.886719 86.988281 333.25 85.3125 C 307.714844 81.289062 282.175781 77.265625 256.636719 73.242188 C 225.742188 68.375 194.84375 63.507812 163.949219 58.640625 C 137.242188 54.433594 110.535156 50.226562 83.828125 46.019531 C 75.03125 44.636719 66.230469 43.25 57.429688 41.863281 C 53.308594 41.210938 49.078125 40.199219 44.910156 39.890625 C 44.734375 39.878906 44.550781 39.835938 44.371094 39.804688 C 43.148438 39.613281 42.621094 41.484375 43.855469 41.679688 C 54.488281 43.355469 65.121094 45.03125 75.757812 46.707031 C 101.292969 50.726562 126.832031 54.75 152.371094 58.773438 C 183.265625 63.640625 214.164062 68.507812 245.058594 73.375 C 271.765625 77.582031 298.472656 81.789062 325.179688 85.996094 C 333.976562 87.382812 342.777344 88.769531 351.578125 90.152344 C 354.300781 90.582031 357.027344 91.011719 359.753906 91.441406 C 360.902344 91.625 362.941406 92.378906 364.09375 92.128906 C 364.238281 92.09375 364.480469 92.1875 364.636719 92.210938 C 364.410156 91.8125 364.1875 91.417969 363.957031 91.015625 C 360.746094 99.695312 357.535156 108.382812 354.324219 117.0625 C 346.652344 137.800781 338.984375 158.542969 331.3125 179.28125 C 322.039062 204.355469 312.761719 229.433594 303.488281 254.511719 C 295.4375 276.273438 287.390625 298.035156 279.339844 319.796875 C 276.710938 326.917969 274.078125 334.035156 271.445312 341.148438 C 270.613281 343.390625 269.789062 345.628906 268.957031 347.867188 C 268.625 348.773438 267.621094 350.40625 267.65625 351.386719 C 267.664062 351.511719 267.539062 351.707031 267.492188 351.832031 C 267.890625 351.605469 268.289062 351.378906 268.691406 351.152344 C 245.730469 344.660156 222.773438 338.164062 199.820312 331.667969 C 163.371094 321.359375 126.929688 311.050781 90.480469 300.742188 C 82.132812 298.375 73.777344 296.015625 65.425781 293.652344 C 65.664062 293.964844 65.898438 294.277344 66.136719 294.589844 C 65.441406 286.199219 64.746094 277.808594 64.050781 269.417969 C 62.367188 249.15625 60.691406 228.894531 59.007812 208.628906 C 56.984375 184.21875 54.957031 159.804688 52.933594 135.394531 C 51.183594 114.285156 49.429688 93.175781 47.679688 72.0625 C 47.105469 65.097656 46.527344 58.128906 45.945312 51.160156 C 45.679688 47.953125 45.824219 44.347656 45.121094 41.195312 C 45.089844 41.050781 45.097656 40.890625 45.085938 40.742188 C 44.984375 39.507812 43.039062 39.492188 43.140625 40.742188 " fill-opacity="1" fill-rule="nonzero"/><g clip-path="url(#id7)"><path fill="#ffbd59" d="M 168.816406 28.46875 C 149.894531 43.324219 130.96875 58.175781 112.039062 73.027344 C 81.925781 96.664062 51.808594 120.296875 21.691406 143.933594 C 14.847656 149.304688 8 154.675781 1.15625 160.050781 C 0.28125 160.738281 0.550781 162.074219 1.15625 162.800781 C 6.875 169.636719 12.585938 176.476562 18.304688 183.316406 C 32.03125 199.738281 45.757812 216.164062 59.488281 232.582031 C 76.019531 252.363281 92.554688 272.140625 109.085938 291.921875 C 123.445312 309.101562 137.804688 326.28125 152.167969 343.457031 C 156.886719 349.105469 161.605469 354.753906 166.324219 360.398438 C 168.539062 363.046875 170.617188 366.136719 173.117188 368.523438 C 173.226562 368.625 173.316406 368.757812 173.414062 368.878906 C 174.097656 369.695312 175.457031 369.554688 176.160156 368.878906 C 183.441406 361.902344 190.722656 354.925781 198.003906 347.953125 C 215.484375 331.207031 232.964844 314.460938 250.449219 297.710938 C 271.515625 277.53125 292.582031 257.347656 313.65625 237.164062 C 331.941406 219.644531 350.234375 202.125 368.519531 184.605469 C 374.535156 178.84375 380.546875 173.082031 386.566406 167.320312 C 389.410156 164.59375 392.589844 161.992188 395.210938 159.039062 C 395.324219 158.910156 395.460938 158.796875 395.585938 158.675781 C 396.484375 157.816406 396.265625 156.234375 395.195312 155.625 C 387.769531 151.402344 380.351562 147.179688 372.933594 142.960938 C 355.109375 132.816406 337.28125 122.675781 319.460938 112.535156 C 297.890625 100.265625 276.324219 87.992188 254.757812 75.722656 C 236.105469 65.109375 217.453125 54.496094 198.800781 43.886719 C 192.667969 40.394531 186.535156 36.90625 180.402344 33.417969 C 177.492188 31.761719 174.605469 29.804688 171.566406 28.386719 C 171.429688 28.324219 171.300781 28.238281 171.175781 28.164062 C 168.996094 26.925781 167.039062 30.285156 169.210938 31.523438 C 176.632812 35.746094 184.054688 39.964844 191.476562 44.1875 C 209.300781 54.328125 227.121094 64.46875 244.945312 74.613281 C 266.511719 86.882812 288.082031 99.152344 309.648438 111.425781 C 328.300781 122.035156 346.953125 132.648438 365.605469 143.265625 C 371.738281 146.75 377.871094 150.238281 384.003906 153.730469 C 385.949219 154.835938 387.890625 155.941406 389.835938 157.050781 C 390.726562 157.554688 391.847656 158.496094 392.84375 158.757812 C 392.972656 158.792969 393.113281 158.914062 393.234375 158.980469 C 393.101562 157.960938 392.972656 156.945312 392.839844 155.929688 C 385.558594 162.90625 378.28125 169.875 371 176.851562 C 353.515625 193.601562 336.035156 210.34375 318.550781 227.09375 C 297.480469 247.273438 276.414062 267.457031 255.347656 287.640625 C 237.054688 305.160156 218.769531 322.679688 200.476562 340.203125 C 194.464844 345.960938 188.449219 351.722656 182.4375 357.484375 C 180.523438 359.316406 178.613281 361.148438 176.703125 362.976562 C 175.816406 363.828125 174.464844 364.734375 173.789062 365.765625 C 173.703125 365.898438 173.53125 366.019531 173.414062 366.128906 C 174.328125 366.128906 175.242188 366.128906 176.160156 366.128906 C 170.445312 359.289062 164.726562 352.449219 159.007812 345.609375 C 145.28125 329.191406 131.558594 312.765625 117.832031 296.347656 C 101.296875 276.566406 84.761719 256.785156 68.226562 237.007812 C 53.867188 219.824219 39.507812 202.648438 25.152344 185.46875 C 20.429688 179.824219 15.707031 174.175781 10.992188 168.527344 C 9.503906 166.75 8.015625 164.972656 6.53125 163.195312 C 5.835938 162.367188 5.085938 161.042969 4.199219 160.40625 C 4.085938 160.324219 3.996094 160.160156 3.902344 160.050781 C 3.902344 160.964844 3.902344 161.882812 3.902344 162.800781 C 22.828125 147.945312 41.757812 133.089844 60.679688 118.238281 C 90.796875 94.605469 120.914062 70.96875 151.027344 47.335938 C 157.875 41.964844 164.722656 36.589844 171.566406 31.214844 C 173.53125 29.675781 170.765625 26.941406 168.816406 28.46875 " fill-opacity="1" fill-rule="nonzero"/></g><path fill="#ffbd59" d="M 43.140625 40.742188 C 43.839844 49.132812 44.535156 57.523438 45.226562 65.917969 C 46.910156 86.179688 48.589844 106.441406 50.269531 126.703125 C 52.296875 151.113281 54.320312 175.527344 56.347656 199.9375 C 58.097656 221.046875 59.847656 242.160156 61.597656 263.269531 C 62.175781 270.238281 62.75 277.203125 63.332031 284.171875 C 63.597656 287.402344 63.496094 290.957031 64.160156 294.136719 C 64.1875 294.28125 64.179688 294.441406 64.195312 294.589844 C 64.230469 295.023438 64.472656 295.402344 64.910156 295.527344 C 87.863281 302.019531 110.820312 308.515625 133.78125 315.011719 C 170.222656 325.316406 206.667969 335.628906 243.113281 345.9375 C 251.464844 348.300781 259.820312 350.664062 268.171875 353.023438 C 268.710938 353.179688 269.183594 352.839844 269.367188 352.347656 C 272.578125 343.664062 275.789062 334.984375 279 326.304688 C 286.667969 305.566406 294.339844 284.824219 302.011719 264.085938 C 311.289062 239.007812 320.5625 213.933594 329.835938 188.855469 C 337.886719 167.09375 345.933594 145.332031 353.984375 123.566406 C 356.617188 116.449219 359.25 109.332031 361.882812 102.214844 C 363.078125 98.980469 365.039062 95.386719 365.664062 91.980469 C 365.695312 91.828125 365.777344 91.675781 365.832031 91.535156 C 366 91.078125 365.640625 90.417969 365.152344 90.335938 C 354.515625 88.660156 343.886719 86.988281 333.25 85.3125 C 307.714844 81.289062 282.175781 77.265625 256.636719 73.242188 C 225.742188 68.375 194.84375 63.507812 163.949219 58.640625 C 137.242188 54.433594 110.535156 50.226562 83.828125 46.019531 C 75.03125 44.636719 66.230469 43.25 57.429688 41.863281 C 53.308594 41.210938 49.078125 40.199219 44.910156 39.890625 C 44.734375 39.878906 44.550781 39.835938 44.371094 39.804688 C 43.148438 39.613281 42.621094 41.484375 43.855469 41.679688 C 54.488281 43.355469 65.121094 45.03125 75.757812 46.707031 C 101.292969 50.726562 126.832031 54.75 152.371094 58.773438 C 183.265625 63.640625 214.164062 68.507812 245.058594 73.375 C 271.765625 77.582031 298.472656 81.789062 325.179688 85.996094 C 333.976562 87.382812 342.777344 88.769531 351.578125 90.152344 C 354.300781 90.582031 357.027344 91.011719 359.753906 91.441406 C 360.902344 91.625 362.941406 92.378906 364.09375 92.128906 C 364.238281 92.09375 364.480469 92.1875 364.636719 92.210938 C 364.410156 91.8125 364.1875 91.417969 363.957031 91.015625 C 360.746094 99.695312 357.535156 108.382812 354.324219 117.0625 C 346.652344 137.800781 338.984375 158.542969 331.3125 179.28125 C 322.039062 204.355469 312.761719 229.433594 303.488281 254.511719 C 295.4375 276.273438 287.390625 298.035156 279.339844 319.796875 C 276.710938 326.917969 274.078125 334.035156 271.445312 341.148438 C 270.613281 343.390625 269.789062 345.628906 268.957031 347.867188 C 268.625 348.773438 267.621094 350.40625 267.65625 351.386719 C 267.664062 351.511719 267.539062 351.707031 267.492188 351.832031 C 267.890625 351.605469 268.289062 351.378906 268.691406 351.152344 C 245.730469 344.660156 222.773438 338.164062 199.820312 331.667969 C 163.371094 321.359375 126.929688 311.050781 90.480469 300.742188 C 82.132812 298.375 73.777344 296.015625 65.425781 293.652344 C 65.664062 293.964844 65.898438 294.277344 66.136719 294.589844 C 65.441406 286.199219 64.746094 277.808594 64.050781 269.417969 C 62.367188 249.15625 60.691406 228.894531 59.007812 208.628906 C 56.984375 184.21875 54.957031 159.804688 52.933594 135.394531 C 51.183594 114.285156 49.429688 93.175781 47.679688 72.0625 C 47.105469 65.097656 46.527344 58.128906 45.945312 51.160156 C 45.679688 47.953125 45.824219 44.347656 45.121094 41.195312 C 45.089844 41.050781 45.097656 40.890625 45.085938 40.742188 C 44.984375 39.507812 43.039062 39.492188 43.140625 40.742188 " fill-opacity="1" fill-rule="nonzero"/><g clip-path="url(#id8)"><path fill="#ffbd59" d="M 168.816406 28.46875 C 149.894531 43.324219 130.96875 58.175781 112.039062 73.027344 C 81.925781 96.664062 51.808594 120.296875 21.691406 143.933594 C 14.847656 149.304688 8 154.675781 1.15625 160.050781 C 0.28125 160.738281 0.550781 162.074219 1.15625 162.800781 C 6.875 169.636719 12.585938 176.476562 18.304688 183.316406 C 32.03125 199.738281 45.757812 216.164062 59.488281 232.582031 C 76.019531 252.363281 92.554688 272.140625 109.085938 291.921875 C 123.445312 309.101562 137.804688 326.28125 152.167969 343.457031 C 156.886719 349.105469 161.605469 354.753906 166.324219 360.398438 C 168.539062 363.046875 170.617188 366.136719 173.117188 368.523438 C 173.226562 368.625 173.316406 368.757812 173.414062 368.878906 C 174.097656 369.695312 175.457031 369.554688 176.160156 368.878906 C 183.441406 361.902344 190.722656 354.925781 198.003906 347.953125 C 215.484375 331.207031 232.964844 314.460938 250.449219 297.710938 C 271.515625 277.53125 292.582031 257.347656 313.65625 237.164062 C 331.941406 219.644531 350.234375 202.125 368.519531 184.605469 C 374.535156 178.84375 380.546875 173.082031 386.566406 167.320312 C 389.410156 164.59375 392.589844 161.992188 395.210938 159.039062 C 395.324219 158.910156 395.460938 158.796875 395.585938 158.675781 C 396.484375 157.816406 396.265625 156.234375 395.195312 155.625 C 387.769531 151.402344 380.351562 147.179688 372.933594 142.960938 C 355.109375 132.816406 337.28125 122.675781 319.460938 112.535156 C 297.890625 100.265625 276.324219 87.992188 254.757812 75.722656 C 236.105469 65.109375 217.453125 54.496094 198.800781 43.886719 C 192.667969 40.394531 186.535156 36.90625 180.402344 33.417969 C 177.492188 31.761719 174.605469 29.804688 171.566406 28.386719 C 171.429688 28.324219 171.300781 28.238281 171.175781 28.164062 C 168.996094 26.925781 167.039062 30.285156 169.210938 31.523438 C 176.632812 35.746094 184.054688 39.964844 191.476562 44.1875 C 209.300781 54.328125 227.121094 64.46875 244.945312 74.613281 C 266.511719 86.882812 288.082031 99.152344 309.648438 111.425781 C 328.300781 122.035156 346.953125 132.648438 365.605469 143.265625 C 371.738281 146.75 377.871094 150.238281 384.003906 153.730469 C 385.949219 154.835938 387.890625 155.941406 389.835938 157.050781 C 390.726562 157.554688 391.847656 158.496094 392.84375 158.757812 C 392.972656 158.792969 393.113281 158.914062 393.234375 158.980469 C 393.101562 157.960938 392.972656 156.945312 392.839844 155.929688 C 385.558594 162.90625 378.28125 169.875 371 176.851562 C 353.515625 193.601562 336.035156 210.34375 318.550781 227.09375 C 297.480469 247.273438 276.414062 267.457031 255.347656 287.640625 C 237.054688 305.160156 218.769531 322.679688 200.476562 340.203125 C 194.464844 345.960938 188.449219 351.722656 182.4375 357.484375 C 180.523438 359.316406 178.613281 361.148438 176.703125 362.976562 C 175.816406 363.828125 174.464844 364.734375 173.789062 365.765625 C 173.703125 365.898438 173.53125 366.019531 173.414062 366.128906 C 174.328125 366.128906 175.242188 366.128906 176.160156 366.128906 C 170.445312 359.289062 164.726562 352.449219 159.007812 345.609375 C 145.28125 329.191406 131.558594 312.765625 117.832031 296.347656 C 101.296875 276.566406 84.761719 256.785156 68.226562 237.007812 C 53.867188 219.824219 39.507812 202.648438 25.152344 185.46875 C 20.429688 179.824219 15.707031 174.175781 10.992188 168.527344 C 9.503906 166.75 8.015625 164.972656 6.53125 163.195312 C 5.835938 162.367188 5.085938 161.042969 4.199219 160.40625 C 4.085938 160.324219 3.996094 160.160156 3.902344 160.050781 C 3.902344 160.964844 3.902344 161.882812 3.902344 162.800781 C 22.828125 147.945312 41.757812 133.089844 60.679688 118.238281 C 90.796875 94.605469 120.914062 70.96875 151.027344 47.335938 C 157.875 41.964844 164.722656 36.589844 171.566406 31.214844 C 173.53125 29.675781 170.765625 26.941406 168.816406 28.46875 " fill-opacity="1" fill-rule="nonzero"/></g><path fill="#ffbd59" d="M 43.140625 40.742188 C 43.839844 49.132812 44.535156 57.523438 45.226562 65.917969 C 46.910156 86.179688 48.589844 106.441406 50.269531 126.703125 C 52.296875 151.113281 54.320312 175.527344 56.347656 199.9375 C 58.097656 221.046875 59.847656 242.160156 61.597656 263.269531 C 62.175781 270.238281 62.75 277.203125 63.332031 284.171875 C 63.597656 287.402344 63.496094 290.957031 64.160156 294.136719 C 64.1875 294.28125 64.179688 294.441406 64.195312 294.589844 C 64.230469 295.023438 64.472656 295.402344 64.910156 295.527344 C 87.863281 302.019531 110.820312 308.515625 133.78125 315.011719 C 170.222656 325.316406 206.667969 335.628906 243.113281 345.9375 C 251.464844 348.300781 259.820312 350.664062 268.171875 353.023438 C 268.710938 353.179688 269.183594 352.839844 269.367188 352.347656 C 272.578125 343.664062 275.789062 334.984375 279 326.304688 C 286.667969 305.566406 294.339844 284.824219 302.011719 264.085938 C 311.289062 239.007812 320.5625 213.933594 329.835938 188.855469 C 337.886719 167.09375 345.933594 145.332031 353.984375 123.566406 C 356.617188 116.449219 359.25 109.332031 361.882812 102.214844 C 363.078125 98.980469 365.039062 95.386719 365.664062 91.980469 C 365.695312 91.828125 365.777344 91.675781 365.832031 91.535156 C 366 91.078125 365.640625 90.417969 365.152344 90.335938 C 354.515625 88.660156 343.886719 86.988281 333.25 85.3125 C 307.714844 81.289062 282.175781 77.265625 256.636719 73.242188 C 225.742188 68.375 194.84375 63.507812 163.949219 58.640625 C 137.242188 54.433594 110.535156 50.226562 83.828125 46.019531 C 75.03125 44.636719 66.230469 43.25 57.429688 41.863281 C 53.308594 41.210938 49.078125 40.199219 44.910156 39.890625 C 44.734375 39.878906 44.550781 39.835938 44.371094 39.804688 C 43.148438 39.613281 42.621094 41.484375 43.855469 41.679688 C 54.488281 43.355469 65.121094 45.03125 75.757812 46.707031 C 101.292969 50.726562 126.832031 54.75 152.371094 58.773438 C 183.265625 63.640625 214.164062 68.507812 245.058594 73.375 C 271.765625 77.582031 298.472656 81.789062 325.179688 85.996094 C 333.976562 87.382812 342.777344 88.769531 351.578125 90.152344 C 354.300781 90.582031 357.027344 91.011719 359.753906 91.441406 C 360.902344 91.625 362.941406 92.378906 364.09375 92.128906 C 364.238281 92.09375 364.480469 92.1875 364.636719 92.210938 C 364.410156 91.8125 364.1875 91.417969 363.957031 91.015625 C 360.746094 99.695312 357.535156 108.382812 354.324219 117.0625 C 346.652344 137.800781 338.984375 158.542969 331.3125 179.28125 C 322.039062 204.355469 312.761719 229.433594 303.488281 254.511719 C 295.4375 276.273438 287.390625 298.035156 279.339844 319.796875 C 276.710938 326.917969 274.078125 334.035156 271.445312 341.148438 C 270.613281 343.390625 269.789062 345.628906 268.957031 347.867188 C 268.625 348.773438 267.621094 350.40625 267.65625 351.386719 C 267.664062 351.511719 267.539062 351.707031 267.492188 351.832031 C 267.890625 351.605469 268.289062 351.378906 268.691406 351.152344 C 245.730469 344.660156 222.773438 338.164062 199.820312 331.667969 C 163.371094 321.359375 126.929688 311.050781 90.480469 300.742188 C 82.132812 298.375 73.777344 296.015625 65.425781 293.652344 C 65.664062 293.964844 65.898438 294.277344 66.136719 294.589844 C 65.441406 286.199219 64.746094 277.808594 64.050781 269.417969 C 62.367188 249.15625 60.691406 228.894531 59.007812 208.628906 C 56.984375 184.21875 54.957031 159.804688 52.933594 135.394531 C 51.183594 114.285156 49.429688 93.175781 47.679688 72.0625 C 47.105469 65.097656 46.527344 58.128906 45.945312 51.160156 C 45.679688 47.953125 45.824219 44.347656 45.121094 41.195312 C 45.089844 41.050781 45.097656 40.890625 45.085938 40.742188 C 44.984375 39.507812 43.039062 39.492188 43.140625 40.742188 " fill-opacity="1" fill-rule="nonzero"/><g clip-path="url(#id9)"><path fill="#ffbd59" d="M 168.816406 28.46875 C 149.894531 43.324219 130.96875 58.175781 112.039062 73.027344 C 81.925781 96.664062 51.808594 120.296875 21.691406 143.933594 C 14.847656 149.304688 8 154.675781 1.15625 160.050781 C 0.28125 160.738281 0.550781 162.074219 1.15625 162.800781 C 6.875 169.636719 12.585938 176.476562 18.304688 183.316406 C 32.03125 199.738281 45.757812 216.164062 59.488281 232.582031 C 76.019531 252.363281 92.554688 272.140625 109.085938 291.921875 C 123.445312 309.101562 137.804688 326.28125 152.167969 343.457031 C 156.886719 349.105469 161.605469 354.753906 166.324219 360.398438 C 168.539062 363.046875 170.617188 366.136719 173.117188 368.523438 C 173.226562 368.625 173.316406 368.757812 173.414062 368.878906 C 174.097656 369.695312 175.457031 369.554688 176.160156 368.878906 C 183.441406 361.902344 190.722656 354.925781 198.003906 347.953125 C 215.484375 331.207031 232.964844 314.460938 250.449219 297.710938 C 271.515625 277.53125 292.582031 257.347656 313.65625 237.164062 C 331.941406 219.644531 350.234375 202.125 368.519531 184.605469 C 374.535156 178.84375 380.546875 173.082031 386.566406 167.320312 C 389.410156 164.59375 392.589844 161.992188 395.210938 159.039062 C 395.324219 158.910156 395.460938 158.796875 395.585938 158.675781 C 396.484375 157.816406 396.265625 156.234375 395.195312 155.625 C 387.769531 151.402344 380.351562 147.179688 372.933594 142.960938 C 355.109375 132.816406 337.28125 122.675781 319.460938 112.535156 C 297.890625 100.265625 276.324219 87.992188 254.757812 75.722656 C 236.105469 65.109375 217.453125 54.496094 198.800781 43.886719 C 192.667969 40.394531 186.535156 36.90625 180.402344 33.417969 C 177.492188 31.761719 174.605469 29.804688 171.566406 28.386719 C 171.429688 28.324219 171.300781 28.238281 171.175781 28.164062 C 168.996094 26.925781 167.039062 30.285156 169.210938 31.523438 C 176.632812 35.746094 184.054688 39.964844 191.476562 44.1875 C 209.300781 54.328125 227.121094 64.46875 244.945312 74.613281 C 266.511719 86.882812 288.082031 99.152344 309.648438 111.425781 C 328.300781 122.035156 346.953125 132.648438 365.605469 143.265625 C 371.738281 146.75 377.871094 150.238281 384.003906 153.730469 C 385.949219 154.835938 387.890625 155.941406 389.835938 157.050781 C 390.726562 157.554688 391.847656 158.496094 392.84375 158.757812 C 392.972656 158.792969 393.113281 158.914062 393.234375 158.980469 C 393.101562 157.960938 392.972656 156.945312 392.839844 155.929688 C 385.558594 162.90625 378.28125 169.875 371 176.851562 C 353.515625 193.601562 336.035156 210.34375 318.550781 227.09375 C 297.480469 247.273438 276.414062 267.457031 255.347656 287.640625 C 237.054688 305.160156 218.769531 322.679688 200.476562 340.203125 C 194.464844 345.960938 188.449219 351.722656 182.4375 357.484375 C 180.523438 359.316406 178.613281 361.148438 176.703125 362.976562 C 175.816406 363.828125 174.464844 364.734375 173.789062 365.765625 C 173.703125 365.898438 173.53125 366.019531 173.414062 366.128906 C 174.328125 366.128906 175.242188 366.128906 176.160156 366.128906 C 170.445312 359.289062 164.726562 352.449219 159.007812 345.609375 C 145.28125 329.191406 131.558594 312.765625 117.832031 296.347656 C 101.296875 276.566406 84.761719 256.785156 68.226562 237.007812 C 53.867188 219.824219 39.507812 202.648438 25.152344 185.46875 C 20.429688 179.824219 15.707031 174.175781 10.992188 168.527344 C 9.503906 166.75 8.015625 164.972656 6.53125 163.195312 C 5.835938 162.367188 5.085938 161.042969 4.199219 160.40625 C 4.085938 160.324219 3.996094 160.160156 3.902344 160.050781 C 3.902344 160.964844 3.902344 161.882812 3.902344 162.800781 C 22.828125 147.945312 41.757812 133.089844 60.679688 118.238281 C 90.796875 94.605469 120.914062 70.96875 151.027344 47.335938 C 157.875 41.964844 164.722656 36.589844 171.566406 31.214844 C 173.53125 29.675781 170.765625 26.941406 168.816406 28.46875 " fill-opacity="1" fill-rule="nonzero"/></g><path fill="#ffbd59" d="M 43.140625 40.742188 C 43.839844 49.132812 44.535156 57.523438 45.226562 65.917969 C 46.910156 86.179688 48.589844 106.441406 50.269531 126.703125 C 52.296875 151.113281 54.320312 175.527344 56.347656 199.9375 C 58.097656 221.046875 59.847656 242.160156 61.597656 263.269531 C 62.175781 270.238281 62.75 277.203125 63.332031 284.171875 C 63.597656 287.402344 63.496094 290.957031 64.160156 294.136719 C 64.1875 294.28125 64.179688 294.441406 64.195312 294.589844 C 64.230469 295.023438 64.472656 295.402344 64.910156 295.527344 C 87.863281 302.019531 110.820312 308.515625 133.78125 315.011719 C 170.222656 325.316406 206.667969 335.628906 243.113281 345.9375 C 251.464844 348.300781 259.820312 350.664062 268.171875 353.023438 C 268.710938 353.179688 269.183594 352.839844 269.367188 352.347656 C 272.578125 343.664062 275.789062 334.984375 279 326.304688 C 286.667969 305.566406 294.339844 284.824219 302.011719 264.085938 C 311.289062 239.007812 320.5625 213.933594 329.835938 188.855469 C 337.886719 167.09375 345.933594 145.332031 353.984375 123.566406 C 356.617188 116.449219 359.25 109.332031 361.882812 102.214844 C 363.078125 98.980469 365.039062 95.386719 365.664062 91.980469 C 365.695312 91.828125 365.777344 91.675781 365.832031 91.535156 C 366 91.078125 365.640625 90.417969 365.152344 90.335938 C 354.515625 88.660156 343.886719 86.988281 333.25 85.3125 C 307.714844 81.289062 282.175781 77.265625 256.636719 73.242188 C 225.742188 68.375 194.84375 63.507812 163.949219 58.640625 C 137.242188 54.433594 110.535156 50.226562 83.828125 46.019531 C 75.03125 44.636719 66.230469 43.25 57.429688 41.863281 C 53.308594 41.210938 49.078125 40.199219 44.910156 39.890625 C 44.734375 39.878906 44.550781 39.835938 44.371094 39.804688 C 43.148438 39.613281 42.621094 41.484375 43.855469 41.679688 C 54.488281 43.355469 65.121094 45.03125 75.757812 46.707031 C 101.292969 50.726562 126.832031 54.75 152.371094 58.773438 C 183.265625 63.640625 214.164062 68.507812 245.058594 73.375 C 271.765625 77.582031 298.472656 81.789062 325.179688 85.996094 C 333.976562 87.382812 342.777344 88.769531 351.578125 90.152344 C 354.300781 90.582031 357.027344 91.011719 359.753906 91.441406 C 360.902344 91.625 362.941406 92.378906 364.09375 92.128906 C 364.238281 92.09375 364.480469 92.1875 364.636719 92.210938 C 364.410156 91.8125 364.1875 91.417969 363.957031 91.015625 C 360.746094 99.695312 357.535156 108.382812 354.324219 117.0625 C 346.652344 137.800781 338.984375 158.542969 331.3125 179.28125 C 322.039062 204.355469 312.761719 229.433594 303.488281 254.511719 C 295.4375 276.273438 287.390625 298.035156 279.339844 319.796875 C 276.710938 326.917969 274.078125 334.035156 271.445312 341.148438 C 270.613281 343.390625 269.789062 345.628906 268.957031 347.867188 C 268.625 348.773438 267.621094 350.40625 267.65625 351.386719 C 267.664062 351.511719 267.539062 351.707031 267.492188 351.832031 C 267.890625 351.605469 268.289062 351.378906 268.691406 351.152344 C 245.730469 344.660156 222.773438 338.164062 199.820312 331.667969 C 163.371094 321.359375 126.929688 311.050781 90.480469 300.742188 C 82.132812 298.375 73.777344 296.015625 65.425781 293.652344 C 65.664062 293.964844 65.898438 294.277344 66.136719 294.589844 C 65.441406 286.199219 64.746094 277.808594 64.050781 269.417969 C 62.367188 249.15625 60.691406 228.894531 59.007812 208.628906 C 56.984375 184.21875 54.957031 159.804688 52.933594 135.394531 C 51.183594 114.285156 49.429688 93.175781 47.679688 72.0625 C 47.105469 65.097656 46.527344 58.128906 45.945312 51.160156 C 45.679688 47.953125 45.824219 44.347656 45.121094 41.195312 C 45.089844 41.050781 45.097656 40.890625 45.085938 40.742188 C 44.984375 39.507812 43.039062 39.492188 43.140625 40.742188 " fill-opacity="1" fill-rule="nonzero"/><g fill="#332f2f" fill-opacity="1"><g transform="translate(25.505887, 236.414018)"><g><path d="M 6.5625 0 L 6.5625 -9.109375 C 6.5625 -13.023438 7.296875 -16.410156 8.765625 -19.265625 C 10.234375 -22.128906 12.175781 -24.628906 14.59375 -26.765625 C 17.007812 -28.898438 19.65625 -30.816406 22.53125 -32.515625 C 25.40625 -34.210938 28.28125 -35.84375 31.15625 -37.40625 C 34.039062 -38.976562 36.679688 -40.617188 39.078125 -42.328125 C 41.484375 -44.046875 43.414062 -45.988281 44.875 -48.15625 C 46.34375 -50.332031 47.078125 -52.898438 47.078125 -55.859375 C 47.078125 -59.742188 45.707031 -62.90625 42.96875 -65.34375 C 40.238281 -67.78125 36.539062 -69 31.875 -69 C 26.863281 -69 22.835938 -67.585938 19.796875 -64.765625 C 16.765625 -61.941406 15.054688 -58.179688 14.671875 -53.484375 L 4.921875 -53.484375 C 5.023438 -57.898438 6.117188 -61.929688 8.203125 -65.578125 C 10.285156 -69.234375 13.335938 -72.15625 17.359375 -74.34375 C 21.390625 -76.53125 26.351562 -77.625 32.25 -77.625 C 37.363281 -77.625 41.8125 -76.710938 45.59375 -74.890625 C 49.375 -73.078125 52.296875 -70.535156 54.359375 -67.265625 C 56.421875 -64.003906 57.453125 -60.203125 57.453125 -55.859375 C 57.453125 -51.910156 56.726562 -48.523438 55.28125 -45.703125 C 53.832031 -42.878906 51.914062 -40.429688 49.53125 -38.359375 C 47.15625 -36.296875 44.550781 -34.453125 41.71875 -32.828125 C 38.894531 -31.203125 36.050781 -29.640625 33.1875 -28.140625 C 30.332031 -26.640625 27.722656 -25.066406 25.359375 -23.421875 C 22.992188 -21.785156 21.085938 -19.90625 19.640625 -17.78125 C 18.191406 -15.664062 17.46875 -13.144531 17.46875 -10.21875 L 17.46875 -8.6875 L 57.875 -8.6875 L 57.875 0 Z M 6.5625 0 "/></g></g></g><g fill="#332f2f" fill-opacity="1"><g transform="translate(88.624366, 236.414018)"><g><path d="M 10.171875 -76.578125 L 20.171875 -76.578125 L 20.171875 -8.796875 L 56.34375 -8.796875 L 56.34375 0 L 10.109375 0 Z M 10.171875 -76.578125 "/></g></g></g><g fill="#332f2f" fill-opacity="1"><g transform="translate(149.783637, 236.414018)"><g><path d="M 15.09375 -25.09375 C 15.09375 -21.632812 15.664062 -18.5 16.8125 -15.6875 C 17.957031 -12.882812 19.703125 -10.65625 22.046875 -9 C 24.398438 -7.34375 27.34375 -6.515625 30.875 -6.515625 C 34.363281 -6.515625 37.367188 -7.328125 39.890625 -8.953125 C 42.421875 -10.578125 44.039062 -12.921875 44.75 -15.984375 L 54.015625 -15.984375 C 53.335938 -12.285156 51.851562 -9.164062 49.5625 -6.625 C 47.269531 -4.082031 44.5 -2.164062 41.25 -0.875 C 38 0.414062 34.609375 1.0625 31.078125 1.0625 C 25.960938 1.0625 21.460938 -0.046875 17.578125 -2.265625 C 13.691406 -4.492188 10.65625 -7.691406 8.46875 -11.859375 C 6.28125 -16.023438 5.1875 -21.019531 5.1875 -26.84375 C 5.1875 -32.601562 6.175781 -37.648438 8.15625 -41.984375 C 10.132812 -46.328125 13.003906 -49.71875 16.765625 -52.15625 C 20.523438 -54.59375 25.050781 -55.8125 30.34375 -55.8125 C 35.5 -55.8125 39.859375 -54.695312 43.421875 -52.46875 C 46.984375 -50.25 49.691406 -47.117188 51.546875 -43.078125 C 53.398438 -39.035156 54.328125 -34.242188 54.328125 -28.703125 L 54.328125 -25.09375 Z M 15.140625 -31.71875 L 44.90625 -31.71875 C 44.90625 -34.863281 44.375 -37.695312 43.3125 -40.21875 C 42.257812 -42.738281 40.644531 -44.734375 38.46875 -46.203125 C 36.300781 -47.671875 33.578125 -48.40625 30.296875 -48.40625 C 26.867188 -48.40625 24.03125 -47.582031 21.78125 -45.9375 C 19.539062 -44.289062 17.863281 -42.1875 16.75 -39.625 C 15.644531 -37.070312 15.109375 -34.4375 15.140625 -31.71875 Z M 15.140625 -31.71875 "/></g></g></g><g fill="#332f2f" fill-opacity="1"><g transform="translate(209.407302, 236.414018)"><g><path d="M 23.25 1.0625 C 19.71875 1.0625 16.59375 0.4375 13.875 -0.8125 C 11.15625 -2.070312 9.023438 -3.882812 7.484375 -6.25 C 5.953125 -8.613281 5.1875 -11.472656 5.1875 -14.828125 C 5.1875 -20.898438 7.300781 -25.414062 11.53125 -28.375 C 15.769531 -31.34375 22.570312 -32.9375 31.9375 -33.15625 L 41.734375 -33.40625 L 41.734375 -37.703125 C 41.734375 -41.054688 40.722656 -43.710938 38.703125 -45.671875 C 36.691406 -47.628906 33.570312 -48.609375 29.34375 -48.609375 C 26.195312 -48.578125 23.429688 -47.835938 21.046875 -46.390625 C 18.660156 -44.941406 17.117188 -42.578125 16.421875 -39.296875 L 7.78125 -39.296875 C 8 -42.859375 9.003906 -45.863281 10.796875 -48.3125 C 12.597656 -50.769531 15.113281 -52.632812 18.34375 -53.90625 C 21.570312 -55.175781 25.394531 -55.8125 29.8125 -55.8125 C 34.582031 -55.8125 38.546875 -55.140625 41.703125 -53.796875 C 44.859375 -52.453125 47.222656 -50.472656 48.796875 -47.859375 C 50.367188 -45.253906 51.15625 -42.046875 51.15625 -38.234375 L 51.15625 0 L 42.78125 0 L 42.09375 -10.265625 C 39.976562 -5.992188 37.285156 -3.035156 34.015625 -1.390625 C 30.753906 0.242188 27.164062 1.0625 23.25 1.0625 Z M 26.21875 -5.984375 C 28.050781 -5.984375 29.875 -6.316406 31.6875 -6.984375 C 33.507812 -7.660156 35.175781 -8.570312 36.6875 -9.71875 C 38.207031 -10.863281 39.414062 -12.148438 40.3125 -13.578125 C 41.21875 -15.015625 41.691406 -16.488281 41.734375 -18 L 41.734375 -27.375 L 33.578125 -27.21875 C 29.410156 -27.144531 25.921875 -26.71875 23.109375 -25.9375 C 20.304688 -25.164062 18.207031 -23.945312 16.8125 -22.28125 C 15.414062 -20.625 14.71875 -18.457031 14.71875 -15.78125 C 14.71875 -12.707031 15.785156 -10.304688 17.921875 -8.578125 C 20.054688 -6.847656 22.820312 -5.984375 26.21875 -5.984375 Z M 26.21875 -5.984375 "/></g></g></g><g fill="#332f2f" fill-opacity="1"><g transform="translate(269.189827, 236.414018)"><g><path d="M 8.109375 0 L 8.109375 -54.75 L 17.421875 -54.75 L 17.421875 -44.21875 C 18.335938 -46.832031 19.625 -48.992188 21.28125 -50.703125 C 22.945312 -52.410156 24.847656 -53.6875 26.984375 -54.53125 C 29.117188 -55.382812 31.332031 -55.8125 33.625 -55.8125 C 34.4375 -55.8125 35.226562 -55.757812 36 -55.65625 C 36.78125 -55.550781 37.382812 -55.375 37.8125 -55.125 L 37.8125 -45.640625 C 37.28125 -45.890625 36.597656 -46.054688 35.765625 -46.140625 C 34.941406 -46.234375 34.242188 -46.28125 33.671875 -46.28125 C 31.484375 -46.425781 29.4375 -46.296875 27.53125 -45.890625 C 25.625 -45.484375 23.945312 -44.785156 22.5 -43.796875 C 21.050781 -42.804688 19.910156 -41.503906 19.078125 -39.890625 C 18.253906 -38.285156 17.84375 -36.335938 17.84375 -34.046875 L 17.84375 0 Z M 8.109375 0 "/></g></g></g><g fill="#332f2f" fill-opacity="1"><g transform="translate(310.227447, 236.414018)"><g><path d="M 8.109375 0 L 8.109375 -54.75 L 17.578125 -54.75 L 17.578125 -46.8125 C 18.460938 -48.332031 19.6875 -49.757812 21.25 -51.09375 C 22.820312 -52.4375 24.726562 -53.515625 26.96875 -54.328125 C 29.21875 -55.140625 31.804688 -55.546875 34.734375 -55.546875 C 38.191406 -55.546875 41.375 -54.859375 44.28125 -53.484375 C 47.195312 -52.109375 49.53125 -49.960938 51.28125 -47.046875 C 53.03125 -44.140625 53.90625 -40.390625 53.90625 -35.796875 L 53.90625 0 L 44.109375 0 L 44.109375 -34.84375 C 44.109375 -39.113281 42.988281 -42.28125 40.75 -44.34375 C 38.507812 -46.414062 35.601562 -47.453125 32.03125 -47.453125 C 29.5625 -47.453125 27.25 -47.050781 25.09375 -46.25 C 22.945312 -45.457031 21.203125 -44.257812 19.859375 -42.65625 C 18.515625 -41.050781 17.84375 -39.03125 17.84375 -36.59375 L 17.84375 0 Z M 8.109375 0 "/></g></g></g></svg>