<svg xmlns="http://www.w3.org/2000/svg" xmlns:xlink="http://www.w3.org/1999/xlink" width="529" zoomAndPan="magnify" viewBox="0 0 396.75 396.749984" height="529" preserveAspectRatio="xMidYMid meet" version="1.0"><defs><clipPath id="id1"><path d="M 0 0 L 396.5 0 L 396.5 396.5 L 0 396.5 Z M 0 0 " clip-rule="nonzero"/></clipPath></defs><g clip-path="url(#id1)"><path fill="#332f2f" d="M 198.375 396.75 C 195.128906 396.75 191.882812 396.671875 188.640625 396.511719 C 185.398438 396.351562 182.160156 396.113281 178.929688 395.792969 C 175.699219 395.476562 172.480469 395.078125 169.265625 394.601562 C 166.054688 394.125 162.859375 393.570312 159.675781 392.9375 C 156.488281 392.304688 153.324219 391.59375 150.171875 390.804688 C 147.023438 390.015625 143.898438 389.148438 140.789062 388.207031 C 137.683594 387.265625 134.601562 386.246094 131.542969 385.152344 C 128.488281 384.058594 125.460938 382.890625 122.460938 381.648438 C 119.460938 380.40625 116.492188 379.09375 113.558594 377.703125 C 110.625 376.316406 107.726562 374.855469 104.863281 373.324219 C 102 371.796875 99.175781 370.195312 96.390625 368.527344 C 93.605469 366.859375 90.863281 365.121094 88.164062 363.316406 C 85.464844 361.515625 82.8125 359.644531 80.203125 357.710938 C 77.59375 355.777344 75.035156 353.78125 72.527344 351.722656 C 70.019531 349.660156 67.558594 347.542969 65.15625 345.359375 C 62.75 343.179688 60.398438 340.941406 58.101562 338.648438 C 55.808594 336.351562 53.570312 334 51.390625 331.59375 C 49.207031 329.191406 47.089844 326.730469 45.027344 324.222656 C 42.96875 321.714844 40.972656 319.15625 39.039062 316.546875 C 37.105469 313.9375 35.234375 311.285156 33.433594 308.585938 C 31.628906 305.886719 29.890625 303.144531 28.222656 300.359375 C 26.554688 297.574219 24.953125 294.75 23.425781 291.886719 C 21.894531 289.023438 20.433594 286.125 19.046875 283.191406 C 17.65625 280.257812 16.34375 277.289062 15.101562 274.289062 C 13.859375 271.289062 12.691406 268.261719 11.597656 265.207031 C 10.503906 262.148438 9.484375 259.066406 8.542969 255.960938 C 7.597656 252.851562 6.734375 249.726562 5.945312 246.574219 C 5.15625 243.425781 4.445312 240.261719 3.8125 237.074219 C 3.179688 233.890625 2.625 230.695312 2.148438 227.484375 C 1.671875 224.269531 1.273438 221.050781 0.957031 217.820312 C 0.636719 214.589844 0.398438 211.351562 0.238281 208.109375 C 0.078125 204.867188 0 201.621094 0 198.375 C 0 195.128906 0.078125 191.882812 0.238281 188.640625 C 0.398438 185.398438 0.636719 182.160156 0.957031 178.929688 C 1.273438 175.699219 1.671875 172.480469 2.148438 169.265625 C 2.625 166.054688 3.179688 162.859375 3.8125 159.675781 C 4.445312 156.488281 5.15625 153.324219 5.945312 150.171875 C 6.734375 147.023438 7.597656 143.898438 8.542969 140.789062 C 9.484375 137.683594 10.503906 134.601562 11.597656 131.542969 C 12.691406 128.488281 13.859375 125.460938 15.101562 122.460938 C 16.34375 119.460938 17.65625 116.492188 19.046875 113.558594 C 20.433594 110.625 21.894531 107.726562 23.425781 104.863281 C 24.953125 102 26.554688 99.175781 28.222656 96.390625 C 29.890625 93.605469 31.628906 90.863281 33.433594 88.164062 C 35.234375 85.464844 37.105469 82.8125 39.039062 80.203125 C 40.972656 77.59375 42.96875 75.035156 45.027344 72.527344 C 47.089844 70.019531 49.207031 67.558594 51.390625 65.15625 C 53.570312 62.75 55.808594 60.398438 58.101562 58.101562 C 60.398438 55.808594 62.75 53.570312 65.15625 51.390625 C 67.558594 49.207031 70.019531 47.089844 72.527344 45.027344 C 75.035156 42.96875 77.59375 40.972656 80.203125 39.039062 C 82.8125 37.105469 85.464844 35.234375 88.164062 33.433594 C 90.863281 31.628906 93.605469 29.890625 96.390625 28.222656 C 99.175781 26.554688 102 24.953125 104.863281 23.425781 C 107.726562 21.894531 110.625 20.433594 113.558594 19.046875 C 116.492188 17.65625 119.460938 16.34375 122.460938 15.101562 C 125.460938 13.859375 128.488281 12.691406 131.542969 11.597656 C 134.601562 10.503906 137.683594 9.484375 140.789062 8.542969 C 143.898438 7.597656 147.023438 6.734375 150.171875 5.945312 C 153.324219 5.15625 156.488281 4.445312 159.675781 3.8125 C 162.859375 3.179688 166.054688 2.625 169.265625 2.148438 C 172.480469 1.671875 175.699219 1.273438 178.929688 0.957031 C 182.160156 0.636719 185.398438 0.398438 188.640625 0.238281 C 191.882812 0.078125 195.128906 0 198.375 0 C 201.621094 0 204.867188 0.078125 208.109375 0.238281 C 211.351562 0.398438 214.589844 0.636719 217.820312 0.957031 C 221.050781 1.273438 224.269531 1.671875 227.484375 2.148438 C 230.695312 2.625 233.890625 3.179688 237.074219 3.8125 C 240.261719 4.445312 243.425781 5.15625 246.574219 5.945312 C 249.726562 6.734375 252.851562 7.597656 255.960938 8.542969 C 259.066406 9.484375 262.148438 10.503906 265.207031 11.597656 C 268.261719 12.691406 271.289062 13.859375 274.289062 15.101562 C 277.289062 16.34375 280.257812 17.65625 283.191406 19.046875 C 286.125 20.433594 289.023438 21.894531 291.886719 23.425781 C 294.75 24.953125 297.574219 26.554688 300.359375 28.222656 C 303.144531 29.890625 305.886719 31.628906 308.585938 33.433594 C 311.285156 35.234375 313.9375 37.105469 316.546875 39.039062 C 319.15625 40.972656 321.714844 42.96875 324.222656 45.027344 C 326.730469 47.089844 329.191406 49.207031 331.59375 51.390625 C 334 53.570312 336.351562 55.808594 338.648438 58.101562 C 340.941406 60.398438 343.179688 62.75 345.359375 65.15625 C 347.542969 67.558594 349.660156 70.019531 351.722656 72.527344 C 353.78125 75.035156 355.777344 77.59375 357.710938 80.203125 C 359.644531 82.8125 361.515625 85.464844 363.316406 88.164062 C 365.121094 90.863281 366.859375 93.605469 368.527344 96.390625 C 370.195312 99.175781 371.796875 102 373.324219 104.863281 C 374.855469 107.726562 376.316406 110.625 377.703125 113.558594 C 379.09375 116.492188 380.40625 119.460938 381.648438 122.460938 C 382.890625 125.460938 384.058594 128.488281 385.152344 131.542969 C 386.246094 134.601562 387.265625 137.683594 388.207031 140.789062 C 389.148438 143.898438 390.015625 147.023438 390.804688 150.171875 C 391.59375 153.324219 392.304688 156.488281 392.9375 159.675781 C 393.570312 162.859375 394.125 166.054688 394.601562 169.265625 C 395.078125 172.480469 395.476562 175.699219 395.792969 178.929688 C 396.113281 182.160156 396.351562 185.398438 396.511719 188.640625 C 396.671875 191.882812 396.75 195.128906 396.75 198.375 C 396.746094 201.621094 396.664062 204.863281 396.5 208.105469 C 396.335938 211.347656 396.09375 214.582031 395.773438 217.8125 C 395.453125 221.042969 395.050781 224.261719 394.574219 227.472656 C 394.09375 230.679688 393.535156 233.878906 392.898438 237.058594 C 392.265625 240.242188 391.550781 243.40625 390.757812 246.554688 C 389.96875 249.703125 389.101562 252.828125 388.15625 255.933594 C 387.210938 259.039062 386.191406 262.121094 385.097656 265.175781 C 384 268.230469 382.832031 271.257812 381.589844 274.253906 C 380.34375 277.25 379.027344 280.21875 377.640625 283.152344 C 376.25 286.082031 374.789062 288.980469 373.257812 291.84375 C 371.726562 294.703125 370.125 297.527344 368.457031 300.308594 C 366.789062 303.09375 365.050781 305.832031 363.246094 308.53125 C 361.441406 311.230469 359.574219 313.882812 357.640625 316.488281 C 355.707031 319.09375 353.710938 321.652344 351.652344 324.160156 C 349.589844 326.667969 347.472656 329.125 345.292969 331.53125 C 343.113281 333.933594 340.875 336.285156 338.582031 338.582031 C 336.285156 340.875 333.933594 343.113281 331.53125 345.292969 C 329.125 347.472656 326.667969 349.589844 324.160156 351.652344 C 321.652344 353.710938 319.09375 355.707031 316.488281 357.640625 C 313.882812 359.574219 311.230469 361.445312 308.53125 363.246094 C 305.832031 365.050781 303.09375 366.789062 300.308594 368.457031 C 297.527344 370.125 294.703125 371.726562 291.84375 373.257812 C 288.980469 374.789062 286.082031 376.25 283.152344 377.640625 C 280.21875 379.027344 277.25 380.34375 274.253906 381.589844 C 271.257812 382.832031 268.230469 384 265.175781 385.097656 C 262.121094 386.191406 259.039062 387.210938 255.933594 388.15625 C 252.828125 389.101562 249.703125 389.96875 246.554688 390.757812 C 243.40625 391.550781 240.242188 392.265625 237.058594 392.898438 C 233.878906 393.535156 230.679688 394.09375 227.472656 394.574219 C 224.261719 395.050781 221.042969 395.453125 217.8125 395.773438 C 214.582031 396.09375 211.347656 396.335938 208.105469 396.5 C 204.863281 396.664062 201.621094 396.746094 198.375 396.75 Z M 105.035156 349.308594 C 108.519531 351.464844 112.070312 353.5 115.695312 355.410156 C 119.320312 357.320312 123.007812 359.101562 126.757812 360.757812 C 130.503906 362.414062 134.304688 363.9375 138.160156 365.328125 C 142.011719 366.722656 145.910156 367.976562 149.851562 369.097656 C 153.792969 370.21875 157.769531 371.203125 161.777344 372.050781 C 165.785156 372.894531 169.820312 373.601562 173.878906 374.167969 C 177.9375 374.734375 182.007812 375.160156 186.097656 375.441406 C 190.183594 375.726562 194.277344 375.867188 198.375 375.867188 C 202.472656 375.867188 206.566406 375.726562 210.652344 375.441406 C 214.742188 375.160156 218.8125 374.734375 222.871094 374.167969 C 226.929688 373.601562 230.964844 372.894531 234.972656 372.050781 C 238.980469 371.203125 242.957031 370.21875 246.898438 369.097656 C 250.839844 367.976562 254.738281 366.722656 258.589844 365.328125 C 262.445312 363.9375 266.246094 362.414062 269.992188 360.757812 C 273.742188 359.101562 277.429688 357.320312 281.054688 355.410156 C 284.679688 353.5 288.230469 351.464844 291.714844 349.308594 C 286.601562 323.351562 263.109375 226.984375 198.375 226.984375 C 133.640625 226.984375 110.148438 323.351562 105.035156 349.308594 Z M 236.109375 215.082031 C 283.132812 238.988281 303.222656 304.871094 310.300781 336.089844 C 312.652344 334.175781 314.957031 332.207031 317.207031 330.175781 C 319.460938 328.144531 321.660156 326.058594 323.804688 323.917969 C 325.949219 321.773438 328.039062 319.578125 330.070312 317.328125 C 332.105469 315.078125 334.078125 312.777344 335.992188 310.429688 C 337.90625 308.078125 339.761719 305.679688 341.550781 303.234375 C 343.34375 300.789062 345.074219 298.296875 346.738281 295.761719 C 348.402344 293.230469 350 290.652344 351.53125 288.039062 C 353.0625 285.421875 354.527344 282.769531 355.925781 280.078125 C 357.320312 277.386719 358.648438 274.660156 359.90625 271.902344 C 361.160156 269.140625 362.347656 266.351562 363.460938 263.53125 C 364.574219 260.710938 365.613281 257.863281 366.582031 254.992188 C 367.550781 252.117188 368.445312 249.222656 369.261719 246.304688 C 370.082031 243.382812 370.828125 240.445312 371.496094 237.488281 C 372.164062 234.53125 372.757812 231.558594 373.273438 228.570312 C 373.789062 225.582031 374.230469 222.585938 374.59375 219.574219 C 374.957031 216.5625 375.242188 213.546875 375.449219 210.523438 C 375.65625 207.496094 375.789062 204.46875 375.839844 201.4375 C 375.894531 198.40625 375.871094 195.375 375.765625 192.34375 C 375.664062 189.316406 375.484375 186.289062 375.226562 183.269531 C 374.96875 180.246094 374.636719 177.234375 374.222656 174.230469 C 373.8125 171.226562 373.324219 168.234375 372.757812 165.257812 C 372.195312 162.277344 371.554688 159.316406 370.835938 156.371094 C 370.121094 153.421875 369.328125 150.496094 368.460938 147.59375 C 367.59375 144.6875 366.652344 141.804688 365.640625 138.949219 C 364.625 136.089844 363.539062 133.261719 362.378906 130.460938 C 361.21875 127.660156 359.988281 124.886719 358.6875 122.148438 C 357.386719 119.410156 356.015625 116.707031 354.574219 114.039062 C 353.136719 111.371094 351.628906 108.742188 350.054688 106.152344 C 348.480469 103.558594 346.839844 101.011719 345.132812 98.503906 C 343.429688 95.996094 341.660156 93.535156 339.828125 91.121094 C 337.996094 88.703125 336.105469 86.335938 334.152344 84.015625 C 332.199219 81.695312 330.1875 79.429688 328.121094 77.210938 C 326.050781 74.996094 323.925781 72.835938 321.746094 70.726562 C 319.566406 68.621094 317.335938 66.570312 315.050781 64.574219 C 312.765625 62.582031 310.429688 60.648438 308.046875 58.777344 C 305.664062 56.902344 303.230469 55.09375 300.753906 53.34375 C 298.277344 51.59375 295.757812 49.910156 293.195312 48.289062 C 290.632812 46.671875 288.03125 45.117188 285.386719 43.632812 C 282.746094 42.144531 280.066406 40.726562 277.351562 39.378906 C 274.636719 38.027344 271.886719 36.75 269.105469 35.542969 C 266.324219 34.332031 263.515625 33.199219 260.675781 32.132812 C 257.835938 31.070312 254.972656 30.078125 252.082031 29.160156 C 249.191406 28.242188 246.28125 27.398438 243.347656 26.632812 C 240.414062 25.863281 237.464844 25.171875 234.496094 24.554688 C 231.527344 23.9375 228.546875 23.398438 225.550781 22.933594 C 222.554688 22.46875 219.546875 22.082031 216.53125 21.769531 C 213.515625 21.460938 210.492188 21.226562 207.464844 21.074219 C 204.4375 20.917969 201.40625 20.839844 198.375 20.839844 C 195.34375 20.839844 192.3125 20.917969 189.285156 21.074219 C 186.257812 21.226562 183.234375 21.460938 180.21875 21.769531 C 177.203125 22.082031 174.195312 22.46875 171.199219 22.933594 C 168.203125 23.398438 165.222656 23.9375 162.253906 24.554688 C 159.285156 25.171875 156.335938 25.863281 153.402344 26.632812 C 150.46875 27.398438 147.558594 28.242188 144.667969 29.160156 C 141.777344 30.078125 138.914062 31.070312 136.074219 32.132812 C 133.234375 33.199219 130.425781 34.332031 127.644531 35.542969 C 124.863281 36.75 122.113281 38.027344 119.398438 39.378906 C 116.683594 40.726562 114.003906 42.144531 111.363281 43.632812 C 108.71875 45.117188 106.117188 46.671875 103.554688 48.289062 C 100.992188 49.910156 98.472656 51.59375 95.996094 53.34375 C 93.519531 55.09375 91.085938 56.902344 88.703125 58.777344 C 86.320312 60.648438 83.984375 62.582031 81.699219 64.574219 C 79.414062 66.570312 77.183594 68.621094 75.003906 70.726562 C 72.824219 72.835938 70.699219 74.996094 68.628906 77.210938 C 66.5625 79.429688 64.550781 81.695312 62.597656 84.015625 C 60.644531 86.335938 58.753906 88.703125 56.921875 91.121094 C 55.089844 93.535156 53.320312 95.996094 51.617188 98.503906 C 49.910156 101.011719 48.269531 103.558594 46.695312 106.152344 C 45.121094 108.742188 43.613281 111.371094 42.175781 114.039062 C 40.734375 116.707031 39.363281 119.410156 38.0625 122.148438 C 36.761719 124.886719 35.53125 127.660156 34.371094 130.460938 C 33.210938 133.261719 32.125 136.089844 31.109375 138.949219 C 30.097656 141.804688 29.15625 144.6875 28.289062 147.59375 C 27.421875 150.496094 26.628906 153.421875 25.914062 156.371094 C 25.195312 159.316406 24.554688 162.277344 23.992188 165.257812 C 23.425781 168.234375 22.9375 171.226562 22.527344 174.230469 C 22.113281 177.234375 21.78125 180.246094 21.523438 183.269531 C 21.265625 186.289062 21.085938 189.316406 20.984375 192.34375 C 20.878906 195.375 20.855469 198.40625 20.910156 201.4375 C 20.960938 204.46875 21.09375 207.496094 21.300781 210.523438 C 21.507812 213.546875 21.792969 216.5625 22.15625 219.574219 C 22.519531 222.585938 22.960938 225.582031 23.476562 228.570312 C 23.992188 231.558594 24.585938 234.53125 25.253906 237.488281 C 25.921875 240.445312 26.667969 243.382812 27.488281 246.304688 C 28.304688 249.222656 29.199219 252.117188 30.167969 254.992188 C 31.136719 257.863281 32.175781 260.710938 33.289062 263.53125 C 34.402344 266.351562 35.589844 269.140625 36.84375 271.902344 C 38.101562 274.660156 39.429688 277.386719 40.824219 280.078125 C 42.222656 282.769531 43.6875 285.421875 45.21875 288.039062 C 46.75 290.652344 48.347656 293.230469 50.011719 295.761719 C 51.675781 298.296875 53.40625 300.789062 55.199219 303.234375 C 56.988281 305.679688 58.84375 308.078125 60.757812 310.429688 C 62.671875 312.78125 64.644531 315.078125 66.679688 317.328125 C 68.710938 319.578125 70.800781 321.773438 72.945312 323.917969 C 75.089844 326.058594 77.289062 328.144531 79.542969 330.175781 C 81.792969 332.207031 84.097656 334.175781 86.449219 336.089844 C 93.527344 304.933594 113.597656 238.988281 160.640625 215.082031 C 159.699219 214.417969 158.777344 213.730469 157.871094 213.019531 C 156.964844 212.308594 156.078125 211.574219 155.210938 210.816406 C 154.34375 210.058594 153.5 209.277344 152.671875 208.472656 C 151.847656 207.671875 151.042969 206.847656 150.261719 206.003906 C 149.480469 205.15625 148.71875 204.292969 147.984375 203.40625 C 147.246094 202.523438 146.535156 201.617188 145.84375 200.695312 C 145.15625 199.773438 144.492188 198.832031 143.851562 197.875 C 143.210938 196.917969 142.597656 195.945312 142.007812 194.953125 C 141.421875 193.964844 140.859375 192.960938 140.324219 191.941406 C 139.789062 190.921875 139.28125 189.886719 138.800781 188.84375 C 138.316406 187.796875 137.867188 186.738281 137.441406 185.667969 C 137.015625 184.597656 136.617188 183.515625 136.25 182.425781 C 135.882812 181.335938 135.542969 180.234375 135.230469 179.125 C 134.921875 178.015625 134.640625 176.898438 134.390625 175.777344 C 134.136719 174.652344 133.917969 173.523438 133.722656 172.386719 C 133.53125 171.253906 133.371094 170.113281 133.238281 168.96875 C 133.105469 167.824219 133.003906 166.679688 132.933594 165.527344 C 132.863281 164.378906 132.820312 163.230469 132.808594 162.078125 C 132.800781 160.925781 132.816406 159.773438 132.867188 158.625 C 132.917969 157.472656 132.996094 156.324219 133.109375 155.179688 C 133.21875 154.035156 133.359375 152.890625 133.527344 151.75 C 133.699219 150.613281 133.898438 149.480469 134.128906 148.351562 C 134.359375 147.222656 134.621094 146.101562 134.910156 144.988281 C 135.199219 143.871094 135.515625 142.765625 135.863281 141.667969 C 136.210938 140.570312 136.589844 139.480469 136.992188 138.40625 C 137.398438 137.328125 137.832031 136.257812 138.292969 135.203125 C 138.753906 134.148438 139.242188 133.105469 139.757812 132.078125 C 140.273438 131.046875 140.816406 130.03125 141.386719 129.03125 C 141.957031 128.03125 142.550781 127.046875 143.171875 126.078125 C 143.792969 125.105469 144.441406 124.15625 145.113281 123.21875 C 145.78125 122.285156 146.480469 121.367188 147.199219 120.46875 C 147.917969 119.570312 148.660156 118.691406 149.425781 117.832031 C 150.195312 116.96875 150.980469 116.132812 151.792969 115.3125 C 152.601562 114.496094 153.433594 113.699219 154.285156 112.925781 C 155.140625 112.152344 156.011719 111.398438 156.902344 110.671875 C 157.796875 109.941406 158.707031 109.238281 159.632812 108.558594 C 160.5625 107.878906 161.511719 107.222656 162.472656 106.589844 C 163.4375 105.960938 164.417969 105.355469 165.410156 104.777344 C 166.40625 104.199219 167.417969 103.644531 168.441406 103.121094 C 169.464844 102.59375 170.503906 102.097656 171.554688 101.625 C 172.605469 101.15625 173.667969 100.710938 174.742188 100.296875 C 175.816406 99.882812 176.902344 99.496094 177.996094 99.136719 C 179.089844 98.777344 180.191406 98.449219 181.304688 98.148438 C 182.417969 97.851562 183.535156 97.582031 184.660156 97.339844 C 185.789062 97.097656 186.917969 96.886719 188.058594 96.707031 C 189.195312 96.523438 190.335938 96.375 191.480469 96.253906 C 192.625 96.132812 193.773438 96.039062 194.921875 95.980469 C 196.074219 95.917969 197.222656 95.890625 198.375 95.890625 C 199.527344 95.890625 200.675781 95.917969 201.828125 95.980469 C 202.976562 96.039062 204.125 96.132812 205.269531 96.253906 C 206.414062 96.375 207.554688 96.523438 208.695312 96.707031 C 209.832031 96.886719 210.960938 97.097656 212.089844 97.339844 C 213.214844 97.582031 214.332031 97.851562 215.445312 98.148438 C 216.558594 98.449219 217.660156 98.777344 218.753906 99.136719 C 219.847656 99.496094 220.933594 99.882812 222.007812 100.296875 C 223.082031 100.710938 224.144531 101.15625 225.195312 101.625 C 226.246094 102.097656 227.285156 102.59375 228.308594 103.121094 C 229.332031 103.644531 230.34375 104.199219 231.335938 104.777344 C 232.332031 105.355469 233.3125 105.960938 234.277344 106.589844 C 235.238281 107.222656 236.1875 107.878906 237.117188 108.558594 C 238.042969 109.238281 238.953125 109.941406 239.847656 110.671875 C 240.738281 111.398438 241.609375 112.152344 242.464844 112.925781 C 243.316406 113.699219 244.148438 114.496094 244.957031 115.3125 C 245.769531 116.132812 246.554688 116.96875 247.320312 117.832031 C 248.089844 118.691406 248.832031 119.570312 249.550781 120.46875 C 250.269531 121.367188 250.96875 122.285156 251.636719 123.21875 C 252.308594 124.15625 252.957031 125.105469 253.578125 126.078125 C 254.199219 127.046875 254.792969 128.03125 255.363281 129.03125 C 255.933594 130.03125 256.476562 131.046875 256.992188 132.078125 C 257.507812 133.105469 257.996094 134.148438 258.457031 135.203125 C 258.917969 136.257812 259.351562 137.328125 259.757812 138.40625 C 260.160156 139.480469 260.539062 140.570312 260.886719 141.667969 C 261.234375 142.765625 261.550781 143.871094 261.839844 144.988281 C 262.128906 146.101562 262.390625 147.222656 262.621094 148.351562 C 262.851562 149.480469 263.050781 150.613281 263.222656 151.75 C 263.390625 152.890625 263.53125 154.035156 263.640625 155.179688 C 263.753906 156.324219 263.832031 157.472656 263.882812 158.625 C 263.933594 159.773438 263.949219 160.925781 263.941406 162.078125 C 263.929688 163.230469 263.886719 164.378906 263.816406 165.527344 C 263.746094 166.679688 263.644531 167.824219 263.511719 168.96875 C 263.378906 170.113281 263.21875 171.253906 263.027344 172.386719 C 262.832031 173.523438 262.613281 174.652344 262.359375 175.777344 C 262.109375 176.898438 261.828125 178.015625 261.519531 179.125 C 261.207031 180.234375 260.867188 181.335938 260.5 182.425781 C 260.132812 183.515625 259.734375 184.597656 259.308594 185.667969 C 258.886719 186.738281 258.433594 187.796875 257.949219 188.84375 C 257.46875 189.886719 256.960938 190.921875 256.425781 191.941406 C 255.890625 192.960938 255.328125 193.964844 254.742188 194.953125 C 254.152344 195.945312 253.539062 196.917969 252.898438 197.875 C 252.257812 198.832031 251.59375 199.773438 250.90625 200.695312 C 250.214844 201.617188 249.503906 202.523438 248.765625 203.40625 C 248.03125 204.292969 247.269531 205.15625 246.488281 206.003906 C 245.707031 206.847656 244.902344 207.671875 244.078125 208.472656 C 243.25 209.277344 242.40625 210.058594 241.539062 210.816406 C 240.671875 211.574219 239.785156 212.308594 238.878906 213.019531 C 237.972656 213.730469 237.050781 214.417969 236.109375 215.082031 Z M 198.375 116.726562 C 196.910156 116.726562 195.453125 116.800781 193.996094 116.941406 C 192.539062 117.085938 191.09375 117.300781 189.65625 117.585938 C 188.222656 117.871094 186.804688 118.226562 185.402344 118.652344 C 184.003906 119.078125 182.625 119.570312 181.273438 120.128906 C 179.921875 120.691406 178.601562 121.316406 177.308594 122.003906 C 176.019531 122.695312 174.765625 123.445312 173.546875 124.257812 C 172.332031 125.070312 171.15625 125.941406 170.027344 126.871094 C 168.894531 127.800781 167.8125 128.78125 166.777344 129.816406 C 165.742188 130.851562 164.761719 131.933594 163.832031 133.066406 C 162.902344 134.195312 162.03125 135.371094 161.21875 136.589844 C 160.40625 137.804688 159.65625 139.058594 158.964844 140.347656 C 158.273438 141.640625 157.648438 142.960938 157.089844 144.3125 C 156.53125 145.664062 156.039062 147.042969 155.613281 148.441406 C 155.1875 149.84375 154.832031 151.261719 154.546875 152.695312 C 154.261719 154.132812 154.046875 155.578125 153.902344 157.035156 C 153.761719 158.492188 153.6875 159.949219 153.6875 161.414062 C 153.6875 162.878906 153.761719 164.339844 153.902344 165.792969 C 154.046875 167.25 154.261719 168.695312 154.546875 170.132812 C 154.832031 171.566406 155.1875 172.984375 155.613281 174.386719 C 156.039062 175.785156 156.53125 177.164062 157.089844 178.515625 C 157.648438 179.867188 158.273438 181.1875 158.964844 182.480469 C 159.65625 183.769531 160.40625 185.023438 161.21875 186.242188 C 162.03125 187.457031 162.902344 188.632812 163.832031 189.761719 C 164.761719 190.894531 165.742188 191.976562 166.777344 193.011719 C 167.8125 194.046875 168.894531 195.03125 170.027344 195.957031 C 171.15625 196.886719 172.332031 197.757812 173.546875 198.570312 C 174.765625 199.382812 176.019531 200.132812 177.308594 200.824219 C 178.601562 201.515625 179.921875 202.140625 181.273438 202.699219 C 182.625 203.257812 184.003906 203.753906 185.402344 204.175781 C 186.804688 204.601562 188.222656 204.957031 189.65625 205.242188 C 191.09375 205.527344 192.539062 205.742188 193.996094 205.886719 C 195.453125 206.03125 196.910156 206.101562 198.375 206.101562 C 199.839844 206.101562 201.296875 206.03125 202.753906 205.886719 C 204.210938 205.742188 205.65625 205.527344 207.09375 205.242188 C 208.527344 204.957031 209.945312 204.601562 211.347656 204.175781 C 212.746094 203.753906 214.125 203.257812 215.476562 202.699219 C 216.828125 202.140625 218.148438 201.515625 219.441406 200.824219 C 220.730469 200.132812 221.984375 199.382812 223.203125 198.570312 C 224.417969 197.757812 225.59375 196.886719 226.722656 195.957031 C 227.855469 195.03125 228.9375 194.046875 229.972656 193.011719 C 231.007812 191.976562 231.988281 190.894531 232.917969 189.761719 C 233.847656 188.632812 234.71875 187.457031 235.53125 186.242188 C 236.34375 185.023438 237.09375 183.769531 237.785156 182.480469 C 238.476562 181.1875 239.101562 179.867188 239.660156 178.515625 C 240.21875 177.164062 240.710938 175.785156 241.136719 174.386719 C 241.5625 172.984375 241.917969 171.566406 242.203125 170.132812 C 242.488281 168.695312 242.703125 167.25 242.847656 165.792969 C 242.988281 164.339844 243.0625 162.878906 243.0625 161.414062 C 243.058594 159.953125 242.988281 158.492188 242.84375 157.035156 C 242.699219 155.578125 242.484375 154.132812 242.195312 152.699219 C 241.910156 151.265625 241.554688 149.847656 241.128906 148.449219 C 240.703125 147.046875 240.210938 145.671875 239.648438 144.320312 C 239.089844 142.96875 238.464844 141.648438 237.773438 140.359375 C 237.082031 139.066406 236.332031 137.8125 235.519531 136.597656 C 234.703125 135.382812 233.832031 134.207031 232.90625 133.078125 C 231.976562 131.945312 230.996094 130.863281 229.960938 129.828125 C 228.925781 128.792969 227.84375 127.8125 226.710938 126.882812 C 225.582031 125.957031 224.40625 125.085938 223.191406 124.273438 C 221.976562 123.457031 220.722656 122.707031 219.433594 122.015625 C 218.140625 121.328125 216.820312 120.703125 215.46875 120.140625 C 214.117188 119.582031 212.742188 119.085938 211.34375 118.660156 C 209.941406 118.234375 208.523438 117.878906 207.089844 117.59375 C 205.65625 117.308594 204.210938 117.089844 202.753906 116.945312 C 201.296875 116.800781 199.839844 116.730469 198.375 116.726562 Z M 198.375 116.726562 " fill-opacity="1" fill-rule="nonzero"/></g></svg>