<svg xmlns="http://www.w3.org/2000/svg" xmlns:xlink="http://www.w3.org/1999/xlink" width="529" zoomAndPan="magnify" viewBox="0 0 396.75 396.749984" height="529" preserveAspectRatio="xMidYMid meet" version="1.0"><defs><clipPath id="id1"><path d="M 26 6.492188 L 120 6.492188 L 120 126 L 26 126 Z M 26 6.492188 " clip-rule="nonzero"/></clipPath><clipPath id="id2"><path d="M 132 6.492188 L 225 6.492188 L 225 126 L 132 126 Z M 132 6.492188 " clip-rule="nonzero"/></clipPath><clipPath id="id3"><path d="M 39 309 L 112 309 L 112 390.492188 L 39 390.492188 Z M 39 309 " clip-rule="nonzero"/></clipPath><clipPath id="id4"><path d="M 139 309 L 212 309 L 212 390.492188 L 139 390.492188 Z M 139 309 " clip-rule="nonzero"/></clipPath><clipPath id="id5"><path d="M 108 337 L 144 337 L 144 390.492188 L 108 390.492188 Z M 108 337 " clip-rule="nonzero"/></clipPath><clipPath id="id6"><path d="M 186 59 L 396.5 59 L 396.5 338 L 186 338 Z M 186 59 " clip-rule="nonzero"/></clipPath></defs><path fill="#ffffff" d="M 13.226562 166.078125 C 15.359375 165.644531 17.574219 165.410156 19.835938 165.410156 L 26.449219 165.410156 L 26.449219 138.945312 L 13.226562 138.945312 Z M 13.226562 166.078125 " fill-opacity="1" fill-rule="nonzero"/><path fill="#ffffff" d="M 0 198.492188 C 0 209.4375 8.902344 218.34375 19.835938 218.34375 L 26.449219 218.34375 L 26.449219 208.648438 L 9.554688 197.382812 L 16.886719 186.371094 L 26.449219 192.75 L 26.449219 178.644531 L 19.835938 178.644531 C 8.902344 178.644531 0 187.550781 0 198.492188 Z M 0 198.492188 " fill-opacity="1" fill-rule="nonzero"/><g clip-path="url(#id1)"><path fill="#ffffff" d="M 79.726562 121.972656 C 70.992188 112.082031 66.125 99.4375 66.125 86.011719 L 79.351562 86.011719 C 79.351562 94.078125 81.671875 101.789062 85.957031 108.402344 C 90.808594 102.839844 97.859375 99.246094 105.800781 99.246094 L 105.800781 112.480469 C 98.507812 112.480469 92.574219 118.414062 92.574219 125.710938 L 119.023438 125.710938 L 119.023438 10.226562 C 115.019531 7.898438 110.519531 6.617188 105.800781 6.617188 C 91.210938 6.617188 79.351562 18.484375 79.351562 33.082031 C 79.351562 36.765625 80.089844 40.328125 81.550781 43.667969 L 69.429688 48.960938 C 67.335938 44.164062 66.265625 39.070312 66.164062 33.816406 C 63.984375 33.371094 61.765625 33.082031 59.511719 33.082031 C 41.28125 33.082031 26.449219 47.921875 26.449219 66.164062 C 26.449219 71.160156 27.628906 75.929688 29.722656 80.324219 C 36.25 75.597656 44.246094 72.78125 52.898438 72.78125 L 52.898438 86.011719 C 38.3125 86.011719 26.449219 97.882812 26.449219 112.480469 L 26.449219 125.710938 L 79.351562 125.710938 C 79.351562 124.4375 79.546875 123.203125 79.726562 121.972656 Z M 79.726562 121.972656 " fill-opacity="1" fill-rule="nonzero"/></g><path fill="#ffffff" d="M 231.4375 178.644531 L 224.824219 178.644531 L 224.824219 192.75 L 234.378906 186.371094 L 241.714844 197.382812 L 224.824219 208.648438 L 224.824219 218.34375 L 231.4375 218.34375 C 242.375 218.34375 251.273438 209.4375 251.273438 198.492188 C 251.273438 187.550781 242.375 178.644531 231.4375 178.644531 Z M 231.4375 178.644531 " fill-opacity="1" fill-rule="nonzero"/><path fill="#ffffff" d="M 99.1875 297.742188 L 152.085938 297.742188 C 184.898438 297.742188 211.601562 271.03125 211.601562 238.191406 L 211.601562 138.945312 L 39.675781 138.945312 L 39.675781 238.191406 C 39.675781 271.03125 66.375 297.742188 99.1875 297.742188 Z M 158.699219 178.644531 C 158.699219 185.941406 164.632812 191.878906 171.925781 191.878906 C 179.21875 191.878906 185.148438 185.941406 185.148438 178.644531 L 198.375 178.644531 C 198.375 193.242188 186.511719 205.109375 171.925781 205.109375 C 157.335938 205.109375 145.476562 193.242188 145.476562 178.644531 Z M 158.699219 231.578125 L 171.925781 231.578125 C 171.925781 246.171875 160.0625 258.042969 145.476562 258.042969 L 92.574219 258.042969 L 92.574219 244.808594 L 145.476562 244.808594 C 152.769531 244.808594 158.699219 238.875 158.699219 231.578125 Z M 66.125 178.644531 C 66.125 185.941406 72.054688 191.878906 79.351562 191.878906 C 86.644531 191.878906 92.574219 185.941406 92.574219 178.644531 L 105.800781 178.644531 C 105.800781 193.242188 93.9375 205.109375 79.351562 205.109375 C 64.761719 205.109375 52.898438 193.242188 52.898438 178.644531 Z M 66.125 178.644531 " fill-opacity="1" fill-rule="nonzero"/><g clip-path="url(#id2)"><path fill="#ffffff" d="M 224.824219 112.480469 C 224.824219 97.882812 212.960938 86.011719 198.375 86.011719 C 183.789062 86.011719 171.925781 97.882812 171.925781 112.480469 L 158.699219 112.480469 C 158.699219 101.628906 163.085938 91.785156 170.160156 84.609375 C 167.84375 79.121094 163.367188 74.691406 157.628906 72.789062 L 156.589844 72.4375 L 160.808594 59.890625 L 161.828125 60.234375 C 170.21875 63.035156 177.148438 69.054688 181.207031 76.742188 C 186.414062 74.230469 192.21875 72.78125 198.375 72.78125 C 207.03125 72.78125 215.023438 75.597656 221.550781 80.332031 C 223.65625 75.9375 224.824219 71.160156 224.824219 66.164062 C 224.824219 47.921875 209.992188 33.082031 191.761719 33.082031 C 189.507812 33.082031 187.292969 33.371094 185.109375 33.824219 C 185.019531 39.082031 183.933594 44.175781 181.835938 48.972656 L 169.722656 43.660156 C 171.191406 40.328125 171.925781 36.765625 171.925781 33.082031 C 171.925781 18.484375 160.0625 6.617188 145.476562 6.617188 C 140.753906 6.617188 136.257812 7.898438 132.25 10.234375 L 132.25 89.699219 C 136.15625 87.417969 140.632812 86.011719 145.476562 86.011719 L 145.476562 99.246094 C 138.179688 99.246094 132.25 105.179688 132.25 112.480469 L 132.25 125.710938 L 224.824219 125.710938 Z M 224.824219 112.480469 " fill-opacity="1" fill-rule="nonzero"/></g><path fill="#ffffff" d="M 224.824219 165.410156 L 231.4375 165.410156 C 233.699219 165.410156 235.914062 165.644531 238.050781 166.078125 L 238.050781 138.945312 L 224.824219 138.945312 Z M 224.824219 165.410156 " fill-opacity="1" fill-rule="nonzero"/><path fill="#ffffff" d="M 312.878906 175.726562 C 309.644531 167.933594 310.371094 159.277344 314.554688 152.269531 L 304.070312 141.777344 C 297.019531 145.984375 288.390625 146.6875 280.640625 143.472656 C 272.878906 140.25 267.285156 133.621094 265.292969 125.710938 L 251.273438 125.710938 L 251.273438 159.363281 C 253.429688 159 255.632812 158.796875 257.886719 158.796875 C 279.773438 158.796875 297.5625 176.59375 297.5625 198.492188 C 297.5625 220.394531 279.773438 238.191406 257.886719 238.191406 C 249.554688 238.191406 241.839844 235.574219 235.453125 231.171875 C 234.121094 231.332031 232.8125 231.578125 231.4375 231.578125 L 224.824219 231.578125 L 224.824219 238.191406 C 224.824219 242.777344 224.347656 247.246094 223.535156 251.597656 C 227.429688 251.367188 231.390625 251.96875 235.132812 253.523438 C 242.902344 256.746094 248.496094 263.375 250.480469 271.28125 L 265.320312 271.28125 C 267.332031 263.335938 272.910156 256.738281 280.660156 253.515625 C 288.449219 250.289062 297.085938 251.015625 304.082031 255.203125 L 314.5625 244.714844 C 310.371094 237.683594 309.648438 229.042969 312.878906 221.269531 C 316.105469 213.492188 322.730469 207.894531 330.625 205.910156 L 330.625 191.0625 C 322.683594 189.046875 316.089844 183.46875 312.878906 175.726562 Z M 312.878906 175.726562 " fill-opacity="1" fill-rule="nonzero"/><path fill="#ffffff" d="M 97.851562 310.90625 L 101.421875 319.230469 L 109.675781 310.972656 L 99.1875 310.972656 C 98.738281 310.972656 98.300781 310.914062 97.851562 310.90625 Z M 97.851562 310.90625 " fill-opacity="1" fill-rule="nonzero"/><g clip-path="url(#id3)"><path fill="#ffffff" d="M 110.066406 329.300781 L 96.960938 342.414062 L 82.753906 309.246094 C 56.132812 324.617188 39.679688 352.894531 39.679688 383.753906 L 39.679688 390.371094 L 66.125 390.371094 L 66.125 350.671875 L 79.351562 350.671875 L 79.351562 390.371094 L 94.269531 390.371094 L 111.796875 331.902344 Z M 110.066406 329.300781 " fill-opacity="1" fill-rule="nonzero"/></g><g clip-path="url(#id4)"><path fill="#ffffff" d="M 168.519531 309.246094 L 154.316406 342.414062 L 141.210938 329.300781 L 139.476562 331.902344 L 157.007812 390.371094 L 171.925781 390.371094 L 171.925781 350.671875 L 185.148438 350.671875 L 185.148438 390.371094 L 211.605469 390.371094 L 211.605469 383.753906 C 211.605469 352.890625 195.148438 324.609375 168.519531 309.246094 Z M 168.519531 309.246094 " fill-opacity="1" fill-rule="nonzero"/></g><path fill="#ffffff" d="M 122.5625 324.207031 L 128.710938 324.207031 L 131.675781 319.761719 L 125.636719 313.714844 L 119.601562 319.761719 Z M 122.5625 324.207031 " fill-opacity="1" fill-rule="nonzero"/><g clip-path="url(#id5)"><path fill="#ffffff" d="M 123.945312 337.441406 L 108.074219 390.371094 L 143.199219 390.371094 L 127.332031 337.441406 Z M 123.945312 337.441406 " fill-opacity="1" fill-rule="nonzero"/></g><path fill="#ffffff" d="M 141.601562 310.972656 L 149.851562 319.230469 L 153.421875 310.90625 C 152.972656 310.914062 152.539062 310.972656 152.085938 310.972656 Z M 141.601562 310.972656 " fill-opacity="1" fill-rule="nonzero"/><g clip-path="url(#id6)"><path fill="#ffffff" d="M 396.75 198.492188 C 396.75 189.324219 390.46875 181.65625 382.003906 179.390625 C 378.949219 159.402344 371.132812 140.519531 359.144531 124.191406 C 363.527344 116.601562 362.558594 106.730469 356.070312 100.246094 C 349.582031 93.753906 339.722656 92.789062 332.140625 97.175781 C 315.820312 85.179688 296.949219 77.359375 276.972656 74.300781 C 274.714844 65.832031 267.050781 59.546875 257.886719 59.546875 C 248.714844 59.546875 241.058594 65.832031 238.796875 74.308594 C 238.269531 74.394531 237.738281 74.453125 237.203125 74.546875 C 236.464844 78.464844 235.265625 82.308594 233.492188 86.035156 L 232.039062 89.078125 C 234.617188 88.46875 237.222656 87.964844 239.828125 87.523438 C 242.9375 94.417969 249.847656 99.246094 257.886719 99.246094 C 265.929688 99.246094 272.832031 94.417969 275.945312 87.515625 C 293.132812 90.292969 309.386719 97.035156 323.535156 107.253906 C 320.871094 114.332031 322.339844 122.628906 328.019531 128.3125 C 331.769531 132.058594 336.75 134.128906 342.050781 134.128906 C 344.496094 134.128906 346.859375 133.640625 349.082031 132.796875 C 359.289062 146.957031 366.023438 163.222656 368.800781 180.417969 C 361.902344 183.535156 357.074219 190.449219 357.074219 198.492188 C 357.074219 206.539062 361.902344 213.453125 368.800781 216.5625 C 366.015625 233.804688 359.25 250.101562 349 264.289062 C 341.925781 261.765625 333.5 263.195312 328.019531 268.675781 C 322.339844 274.359375 320.871094 282.65625 323.542969 289.734375 C 309.390625 299.957031 293.140625 306.691406 275.945312 309.472656 C 272.839844 302.570312 265.929688 297.742188 257.886719 297.742188 C 249.894531 297.742188 243.023438 302.523438 239.886719 309.359375 C 225.269531 306.984375 211.214844 301.863281 198.640625 294.050781 C 194.988281 297.097656 191.046875 299.8125 186.84375 302.109375 C 202.394531 312.800781 220.175781 319.847656 238.804688 322.710938 C 241.078125 331.167969 248.730469 337.441406 257.886719 337.441406 C 267.050781 337.441406 274.714844 331.15625 276.976562 322.691406 C 296.949219 319.636719 315.820312 311.8125 332.140625 299.820312 C 335.199219 301.59375 338.613281 302.550781 342.042969 302.550781 C 347.125 302.550781 352.203125 300.621094 356.070312 296.75 C 362.558594 290.257812 363.527344 280.386719 359.144531 272.796875 C 371.132812 256.46875 378.949219 237.585938 382.003906 217.59375 C 390.46875 215.332031 396.75 207.664062 396.75 198.492188 Z M 396.75 198.492188 " fill-opacity="1" fill-rule="nonzero"/></g></svg>