<svg xmlns="http://www.w3.org/2000/svg" xmlns:xlink="http://www.w3.org/1999/xlink" width="529" zoomAndPan="magnify" viewBox="0 0 396.75 396.749984" height="529" preserveAspectRatio="xMidYMid meet" version="1.0"><defs><g/><clipPath id="id1"><path d="M 15 0.992188 L 380 0.992188 L 380 395.492188 L 15 395.492188 Z M 15 0.992188 " clip-rule="nonzero"/></clipPath></defs><g fill="#000000" fill-opacity="1"><g transform="translate(200.645081, 82.13943)"><g/></g></g><g clip-path="url(#id1)"><path fill="#ffffff" d="M 375.152344 305.222656 C 365.90625 280.273438 342.15625 257.15625 311.621094 243.382812 C 305.742188 240.734375 299.78125 238.535156 293.824219 236.738281 C 332.71875 217.371094 358.296875 173.242188 358.296875 123.976562 C 358.296875 56.160156 310.148438 0.992188 250.964844 0.992188 C 191.769531 0.992188 143.605469 56.160156 143.605469 123.976562 C 143.605469 162.703125 159.175781 198.332031 185.683594 221.566406 C 174.179688 220.320312 162.308594 219.6875 150.246094 219.6875 C 74.898438 219.6875 15.878906 243.4375 15.878906 273.757812 L 15.878906 300.71875 C 15.878906 331.039062 74.898438 354.789062 150.246094 354.789062 C 165.976562 354.789062 181.34375 353.707031 195.996094 351.613281 C 207.714844 364.324219 222.933594 375.144531 240.1875 382.941406 C 259.046875 391.4375 278.40625 395.542969 296.160156 395.542969 C 323.179688 395.542969 346.453125 386.007812 358.574219 367.933594 C 365.660156 362.605469 371.058594 356.074219 374.605469 348.503906 C 380.664062 335.566406 380.851562 320.597656 375.152344 305.222656 Z M 149.871094 123.976562 C 149.871094 59.613281 195.21875 7.253906 250.964844 7.253906 C 306.691406 7.253906 352.03125 59.613281 352.03125 123.976562 C 352.03125 173.730469 324.785156 217.882812 284.164062 234.1875 C 268.042969 230.46875 251.945312 229.855469 237.457031 232.417969 C 225.488281 228.375 212.09375 225.242188 197.597656 223.105469 C 167.703125 201.558594 149.871094 164.566406 149.871094 123.976562 Z M 193.242188 258.398438 C 186.179688 263.683594 180.769531 270.199219 177.199219 277.820312 C 172.863281 287.097656 171.566406 297.644531 173.335938 308.507812 C 165.957031 309.203125 158.222656 309.578125 150.246094 309.578125 C 97.550781 309.578125 53.035156 293.175781 53.035156 273.761719 C 53.035156 254.347656 97.550781 237.945312 150.246094 237.945312 C 170.378906 237.945312 190.074219 240.355469 206.546875 244.773438 C 201.167969 248.628906 196.722656 253.203125 193.242188 258.398438 Z M 22.144531 300.71875 L 22.144531 290.398438 C 39.207031 312.328125 89.390625 327.828125 150.246094 327.828125 C 159.851562 327.828125 169.519531 327.398438 179.027344 326.585938 C 182.078125 333.222656 186.128906 339.699219 191.132812 345.925781 C 177.96875 347.617188 164.265625 348.527344 150.246094 348.527344 C 80.808594 348.527344 22.144531 326.636719 22.144531 300.71875 Z M 368.929688 345.851562 C 365.757812 352.621094 360.882812 358.464844 354.429688 363.226562 C 331.296875 380.285156 291.355469 380.757812 255.042969 364.394531 C 226.015625 351.320312 203.503906 329.535156 194.820312 306.121094 C 189.707031 292.339844 189.824219 279.03125 195.15625 267.636719 C 196.027344 265.777344 197.03125 263.980469 198.136719 262.289062 C 202.308594 255.910156 208.179688 250.574219 215.582031 246.4375 C 222.011719 242.855469 229.480469 240.253906 237.78125 238.707031 C 243.527344 237.632812 249.5625 237.101562 255.773438 237.101562 C 264.867188 237.101562 274.335938 238.246094 283.816406 240.519531 C 283.824219 240.519531 283.832031 240.519531 283.84375 240.523438 C 292.234375 242.460938 300.710938 245.34375 309.042969 249.089844 C 338.082031 262.191406 360.597656 283.984375 369.269531 307.394531 C 374.382812 321.167969 374.261719 334.464844 368.929688 345.851562 Z M 368.929688 345.851562 " fill-opacity="1" fill-rule="nonzero"/></g><path fill="#ffffff" d="M 331.992188 315.90625 C 326.382812 318.625 320.503906 320.546875 314.511719 321.617188 C 306.746094 322.992188 298.898438 322.992188 291.179688 321.617188 C 289.464844 321.304688 287.847656 322.445312 287.542969 324.148438 C 287.238281 325.847656 288.371094 327.476562 290.074219 327.78125 C 294.300781 328.535156 298.558594 328.914062 302.828125 328.914062 C 307.089844 328.914062 311.363281 328.535156 315.613281 327.78125 C 322.167969 326.609375 328.601562 324.507812 334.726562 321.539062 C 336.28125 320.785156 336.929688 318.90625 336.175781 317.355469 C 335.421875 315.796875 333.542969 315.152344 331.992188 315.90625 Z M 331.992188 315.90625 " fill-opacity="1" fill-rule="nonzero"/><path fill="#ffffff" d="M 325.453125 330.878906 C 321.707031 332.734375 317.710938 334.042969 313.570312 334.765625 C 308.351562 335.707031 303.011719 335.707031 297.691406 334.765625 C 295.984375 334.457031 294.363281 335.601562 294.0625 337.300781 C 293.761719 339.003906 294.898438 340.628906 296.601562 340.929688 C 299.628906 341.46875 302.664062 341.734375 305.683594 341.734375 C 308.703125 341.734375 311.707031 341.46875 314.671875 340.933594 C 319.390625 340.105469 323.953125 338.609375 328.242188 336.492188 C 329.792969 335.722656 330.425781 333.84375 329.65625 332.292969 C 328.882812 330.746094 327.003906 330.113281 325.453125 330.878906 Z M 325.453125 330.878906 " fill-opacity="1" fill-rule="nonzero"/><path fill="#ffffff" d="M 248.875 315.652344 C 243.019531 313.730469 237.480469 311.003906 232.398438 307.550781 C 226.027344 303.21875 220.484375 297.78125 215.925781 291.386719 C 214.921875 289.976562 212.964844 289.652344 211.554688 290.652344 C 210.144531 291.65625 209.816406 293.613281 210.820312 295.023438 C 215.8125 302.023438 221.882812 307.984375 228.875 312.734375 C 234.4375 316.511719 240.507812 319.496094 246.917969 321.605469 C 247.246094 321.710938 247.574219 321.761719 247.898438 321.761719 C 249.214844 321.761719 250.441406 320.925781 250.875 319.605469 C 251.414062 317.960938 250.519531 316.191406 248.875 315.652344 Z M 248.875 315.652344 " fill-opacity="1" fill-rule="nonzero"/><path fill="#ffffff" d="M 233.496094 321.726562 C 229.476562 320.402344 225.703125 318.546875 222.273438 316.222656 C 216.753906 312.476562 213.144531 308.171875 211.089844 305.21875 C 210.097656 303.800781 208.148438 303.453125 206.726562 304.441406 C 205.304688 305.425781 204.957031 307.375 205.945312 308.796875 C 209.328125 313.652344 213.757812 318.007812 218.753906 321.398438 C 222.667969 324.054688 226.964844 326.164062 231.53125 327.667969 C 231.855469 327.777344 232.1875 327.828125 232.511719 327.828125 C 233.828125 327.828125 235.050781 326.992188 235.488281 325.675781 C 236.027344 324.039062 235.140625 322.265625 233.496094 321.726562 Z M 233.496094 321.726562 " fill-opacity="1" fill-rule="nonzero"/><path fill="#ffffff" d="M 188.195312 196.378906 C 196.574219 205.863281 206.292969 213.238281 217.070312 218.289062 C 217.082031 218.292969 217.09375 218.296875 217.101562 218.304688 C 217.15625 218.328125 217.207031 218.355469 217.261719 218.371094 C 227.917969 223.394531 239.253906 225.945312 250.964844 225.945312 C 300.09375 225.945312 340.0625 180.203125 340.0625 123.976562 C 340.0625 118.710938 339.699219 113.335938 338.96875 107.992188 C 338.96875 107.992188 338.96875 107.992188 338.96875 107.988281 C 337.160156 94.75 333.144531 82.25 327.039062 70.84375 C 321.628906 60.71875 314.777344 51.800781 306.660156 44.335938 C 299.300781 37.574219 291.070312 32.21875 282.191406 28.410156 C 282.171875 28.402344 282.15625 28.394531 282.136719 28.386719 C 282.117188 28.378906 282.101562 28.367188 282.085938 28.363281 C 272.167969 24.121094 261.699219 21.96875 250.964844 21.96875 C 201.816406 21.96875 161.835938 67.726562 161.835938 123.976562 C 161.835938 128.171875 162.070312 132.261719 162.507812 136.128906 C 162.507812 136.160156 162.515625 136.1875 162.515625 136.21875 C 162.527344 136.324219 162.53125 136.4375 162.542969 136.539062 C 163.644531 147.253906 166.273438 157.671875 170.355469 167.476562 C 170.375 167.527344 170.394531 167.574219 170.417969 167.625 C 174.824219 178.34375 180.789062 188.003906 188.148438 196.335938 C 188.160156 196.347656 188.171875 196.355469 188.179688 196.367188 C 188.179688 196.367188 188.183594 196.371094 188.183594 196.375 C 188.183594 196.378906 188.195312 196.378906 188.195312 196.378906 Z M 304.4375 50.96875 C 310.582031 56.992188 315.898438 63.941406 320.289062 71.710938 L 190.847656 189.714844 C 185.316406 182.988281 180.6875 175.417969 177.070312 167.109375 Z M 250.964844 219.6875 C 241.703125 219.6875 232.691406 217.941406 224.105469 214.515625 L 333.382812 114.917969 C 333.628906 117.957031 333.796875 120.988281 333.796875 123.976562 C 333.796875 176.753906 296.640625 219.6875 250.964844 219.6875 Z M 250.964844 28.230469 C 259.191406 28.230469 267.25 29.625 274.992188 32.339844 L 168.257812 129.613281 C 168.164062 127.761719 168.101562 125.882812 168.101562 123.976562 C 168.101562 71.179688 205.277344 28.230469 250.964844 28.230469 Z M 250.964844 28.230469 " fill-opacity="1" fill-rule="nonzero"/></svg>