<svg xmlns="http://www.w3.org/2000/svg" xmlns:xlink="http://www.w3.org/1999/xlink" width="529" zoomAndPan="magnify" viewBox="0 0 396.75 396.749984" height="529" preserveAspectRatio="xMidYMid meet" version="1.0"><defs><clipPath id="id1"><path d="M 19.097656 0 L 377.597656 0 L 377.597656 396.5 L 19.097656 396.5 Z M 19.097656 0 " clip-rule="nonzero"/></clipPath></defs><path fill="#ffffff" d="M 326.308594 255.96875 L 326.308594 243.167969 L 287.921875 243.167969 L 287.921875 255.96875 L 326.308594 255.96875 " fill-opacity="1" fill-rule="nonzero"/><path fill="#ffffff" d="M 223.941406 268.765625 L 236.738281 268.765625 L 236.738281 255.96875 L 249.53125 255.96875 L 249.53125 243.167969 L 236.738281 243.167969 L 236.738281 230.371094 L 223.941406 230.371094 L 223.941406 243.167969 L 211.144531 243.167969 L 211.144531 255.96875 L 223.941406 255.96875 L 223.941406 268.765625 " fill-opacity="1" fill-rule="nonzero"/><path fill="#ffffff" d="M 254.054688 311.6875 L 245.007812 302.636719 L 230.339844 317.308594 L 215.667969 302.636719 L 206.621094 311.6875 L 221.292969 326.359375 L 206.621094 341.03125 L 215.667969 350.082031 L 230.339844 335.40625 L 245.007812 350.082031 L 254.054688 341.03125 L 239.386719 326.359375 L 254.054688 311.6875 " fill-opacity="1" fill-rule="nonzero"/><path fill="#ffffff" d="M 283.398438 341.03125 L 292.445312 350.082031 L 330.832031 311.6875 L 321.785156 302.636719 L 283.398438 341.03125 " fill-opacity="1" fill-rule="nonzero"/><path fill="#ffffff" d="M 294.316406 319.960938 C 297.84375 319.960938 300.714844 317.085938 300.714844 313.558594 C 300.714844 310.035156 297.84375 307.160156 294.316406 307.160156 C 290.792969 307.160156 287.921875 310.035156 287.921875 313.558594 C 287.921875 317.085938 290.792969 319.960938 294.316406 319.960938 " fill-opacity="1" fill-rule="nonzero"/><path fill="#ffffff" d="M 319.910156 332.757812 C 316.386719 332.757812 313.511719 335.632812 313.511719 339.15625 C 313.511719 342.683594 316.386719 345.554688 319.910156 345.554688 C 323.433594 345.554688 326.308594 342.683594 326.308594 339.15625 C 326.308594 335.632812 323.433594 332.757812 319.910156 332.757812 " fill-opacity="1" fill-rule="nonzero"/><path fill="#ffffff" d="M 332.707031 358.355469 L 275.125 358.355469 L 275.125 294.363281 L 339.105469 294.363281 L 339.105469 351.957031 C 339.105469 355.480469 336.230469 358.355469 332.707031 358.355469 Z M 198.347656 351.957031 L 198.347656 294.363281 L 262.328125 294.363281 L 262.328125 358.355469 L 204.746094 358.355469 C 201.222656 358.355469 198.347656 355.480469 198.347656 351.957031 Z M 204.746094 217.574219 L 262.328125 217.574219 L 262.328125 281.566406 L 198.347656 281.566406 L 198.347656 223.972656 C 198.347656 220.445312 201.222656 217.574219 204.746094 217.574219 Z M 339.105469 223.972656 L 339.105469 281.566406 L 275.125 281.566406 L 275.125 217.574219 L 332.707031 217.574219 C 336.230469 217.574219 339.105469 220.445312 339.105469 223.972656 Z M 332.707031 204.773438 L 204.746094 204.773438 C 194.148438 204.773438 185.550781 213.375 185.550781 223.972656 L 185.550781 351.957031 C 185.550781 362.554688 194.148438 371.152344 204.746094 371.152344 L 332.707031 371.152344 C 343.304688 371.152344 351.898438 362.554688 351.898438 351.957031 L 351.898438 223.972656 C 351.898438 213.375 343.304688 204.773438 332.707031 204.773438 " fill-opacity="1" fill-rule="nonzero"/><path fill="#ffffff" d="M 339.105469 172.777344 C 339.105469 176.304688 336.230469 179.175781 332.707031 179.175781 L 204.746094 179.175781 C 201.222656 179.175781 198.347656 176.304688 198.347656 172.777344 L 198.347656 159.980469 C 198.347656 156.457031 201.222656 153.582031 204.746094 153.582031 L 332.707031 153.582031 C 336.230469 153.582031 339.105469 156.457031 339.105469 159.980469 Z M 332.707031 140.78125 L 204.746094 140.78125 C 194.148438 140.78125 185.550781 149.382812 185.550781 159.980469 L 185.550781 172.777344 C 185.550781 183.375 194.148438 191.976562 204.746094 191.976562 L 332.707031 191.976562 C 343.304688 191.976562 351.898438 183.375 351.898438 172.777344 L 351.898438 159.980469 C 351.898438 149.382812 343.304688 140.78125 332.707031 140.78125 " fill-opacity="1" fill-rule="nonzero"/><g clip-path="url(#id1)"><path fill="#ffffff" d="M 364.695312 358.355469 C 364.695312 372.476562 353.226562 383.953125 339.105469 383.953125 L 198.347656 383.953125 C 184.226562 383.953125 172.757812 372.476562 172.757812 358.355469 L 172.757812 153.582031 C 172.757812 139.457031 184.226562 127.984375 198.347656 127.984375 L 339.105469 127.984375 C 353.226562 127.984375 364.695312 139.457031 364.695312 153.582031 Z M 111.425781 326.359375 L 70.390625 285.3125 L 70.390625 259.46875 L 132.492188 326.359375 Z M 70.390625 303.410156 L 93.332031 326.359375 L 70.390625 326.359375 Z M 159.960938 153.582031 L 159.960938 337.132812 L 57.59375 226.871094 L 57.59375 339.15625 L 159.960938 339.15625 L 159.960938 358.355469 C 159.960938 360.53125 160.183594 362.679688 160.535156 364.753906 L 32 364.753906 L 32 12.796875 L 255.929688 12.796875 L 255.929688 115.183594 L 198.347656 115.183594 C 197.148438 115.183594 195.949219 115.261719 194.773438 115.359375 L 175.40625 95.988281 L 196.472656 74.914062 L 187.425781 65.867188 L 166.359375 86.9375 L 145.289062 65.867188 L 136.242188 74.914062 L 157.3125 95.988281 L 136.242188 117.058594 L 145.289062 126.109375 L 166.359375 105.035156 L 180.804688 119.484375 C 168.433594 125.859375 159.960938 138.734375 159.960938 153.582031 Z M 339.105469 115.183594 L 268.726562 115.183594 L 268.726562 0 L 19.203125 0 L 19.203125 377.550781 L 165.160156 377.550781 C 171.808594 389 184.179688 396.75 198.347656 396.75 L 339.105469 396.75 C 360.273438 396.75 377.492188 379.527344 377.492188 358.355469 L 377.492188 153.582031 C 377.492188 132.410156 360.273438 115.183594 339.105469 115.183594 " fill-opacity="1" fill-rule="nonzero"/></g><path fill="#ffffff" d="M 127.96875 217.574219 C 124.445312 217.574219 121.574219 220.445312 121.574219 223.972656 C 121.574219 227.496094 124.445312 230.371094 127.96875 230.371094 C 131.496094 230.371094 134.367188 227.496094 134.367188 223.972656 C 134.367188 220.445312 131.496094 217.574219 127.96875 217.574219 " fill-opacity="1" fill-rule="nonzero"/><path fill="#ffffff" d="M 102.378906 217.574219 C 98.855469 217.574219 95.980469 220.445312 95.980469 223.972656 C 95.980469 227.496094 98.855469 230.371094 102.378906 230.371094 C 105.902344 230.371094 108.777344 227.496094 108.777344 223.972656 C 108.777344 220.445312 105.902344 217.574219 102.378906 217.574219 " fill-opacity="1" fill-rule="nonzero"/><path fill="#ffffff" d="M 57.59375 204.773438 L 147.164062 204.773438 L 147.164062 191.976562 L 57.59375 191.976562 L 57.59375 204.773438 " fill-opacity="1" fill-rule="nonzero"/><path fill="#ffffff" d="M 57.59375 179.175781 L 147.164062 179.175781 L 147.164062 166.378906 L 57.59375 166.378906 L 57.59375 179.175781 " fill-opacity="1" fill-rule="nonzero"/><path fill="#ffffff" d="M 102.976562 147.804688 L 132.695312 51.195312 L 230.339844 51.195312 L 230.339844 38.394531 L 123.246094 38.394531 L 101.777344 108.160156 L 87.632812 70.390625 L 51.195312 70.390625 L 51.195312 83.191406 L 78.734375 83.191406 L 102.976562 147.804688 " fill-opacity="1" fill-rule="nonzero"/></svg>