<svg xmlns="http://www.w3.org/2000/svg" xmlns:xlink="http://www.w3.org/1999/xlink" width="529" zoomAndPan="magnify" viewBox="0 0 396.75 396.749984" height="529" preserveAspectRatio="xMidYMid meet" version="1.0"><defs><clipPath id="id1"><path d="M 0 0 L 396.5 0 L 396.5 396.5 L 0 396.5 Z M 0 0 " clip-rule="nonzero"/></clipPath><clipPath id="id2"><path d="M 107 200 L 392.808594 200 L 392.808594 357.601562 L 107 357.601562 Z M 107 200 " clip-rule="nonzero"/></clipPath><clipPath id="id3"><path d="M 5 138 L 224 138 L 224 357.601562 L 5 357.601562 Z M 5 138 " clip-rule="nonzero"/></clipPath></defs><g clip-path="url(#id1)"><path fill="#ffffff" d="M 0 0 L 396.75 0 L 396.75 396.75 L 0 396.75 Z M 0 0 " fill-opacity="1" fill-rule="nonzero"/><path fill="#ffffff" d="M 0 0 L 396.75 0 L 396.75 396.75 L 0 396.75 Z M 0 0 " fill-opacity="1" fill-rule="nonzero"/><path fill="#ffffff" d="M 0 0 L 396.75 0 L 396.75 396.75 L 0 396.75 Z M 0 0 " fill-opacity="1" fill-rule="nonzero"/></g><path fill="#3ca645" d="M 382.375 162.566406 C 384.492188 165.726562 383.878906 169.878906 381.011719 171.808594 L 154.890625 323.515625 C 152.023438 325.425781 147.960938 324.417969 145.84375 321.261719 L 66.226562 202.480469 C 64.109375 199.335938 64.722656 195.1875 67.59375 193.273438 L 293.695312 41.550781 C 296.5625 39.621094 300.625 40.644531 302.742188 43.789062 L 382.375 162.566406 " fill-opacity="1" fill-rule="nonzero"/><path fill="#5bbc4f" d="M 300.625 79.480469 C 294.292969 83.734375 285.722656 82.042969 281.488281 75.707031 C 280.773438 74.648438 280.242188 73.539062 279.851562 72.394531 L 101.632812 191.976562 C 102.554688 192.761719 103.371094 193.683594 104.074219 194.742188 C 108.324219 201.0625 106.632812 209.652344 100.300781 213.886719 C 99.378906 214.519531 98.386719 215.015625 97.382812 215.375 L 144.546875 285.738281 C 145.484375 284.40625 146.679688 283.242188 148.097656 282.289062 C 154.429688 278.035156 163 279.726562 167.25 286.0625 C 168.515625 287.941406 169.25 290.039062 169.488281 292.160156 L 346.75 173.222656 C 344.890625 172.199219 343.214844 170.730469 341.953125 168.835938 C 337.703125 162.5 339.410156 153.925781 345.726562 149.671875 C 347.058594 148.785156 348.472656 148.171875 349.925781 147.777344 L 302.878906 77.601562 C 302.210938 78.285156 301.460938 78.917969 300.625 79.480469 " fill-opacity="1" fill-rule="nonzero"/><path fill="#3ca645" d="M 250.574219 199.628906 C 250.25 202.71875 248.96875 205.570312 246.9375 207.84375 L 231.128906 184.273438 C 236.832031 182.257812 243.421875 183.914062 247.398438 188.886719 C 249.875 191.925781 250.984375 195.734375 250.574219 199.628906 Z M 200.402344 175.136719 C 196.613281 169.484375 197.3125 162.089844 201.648438 157.222656 L 217.457031 180.789062 C 211.292969 182.960938 204.210938 180.808594 200.402344 175.136719 Z M 254.960938 182.769531 C 247.773438 173.875 235.550781 171.378906 225.632812 176.058594 L 209.894531 152.59375 C 215.460938 151.570312 221.382812 153.839844 224.730469 158.828125 L 232.785156 153.414062 C 226.417969 143.933594 214.503906 140.367188 204.210938 144.105469 L 201.800781 140.503906 L 193.96875 145.761719 L 196.152344 149.007812 C 187.410156 157 185.566406 170.421875 192.34375 180.550781 C 199.140625 190.679688 212.25 194.058594 222.953125 189.003906 L 238.691406 212.488281 C 237.308594 212.726562 235.894531 212.796875 234.476562 212.640625 C 230.582031 212.230469 227.085938 210.320312 224.625 207.277344 L 217.082031 213.375 C 221.160156 218.429688 226.980469 221.609375 233.453125 222.289062 C 237.207031 222.699219 240.929688 222.222656 244.378906 220.957031 L 246.800781 224.5625 L 254.621094 219.320312 L 252.433594 216.058594 C 256.839844 212.027344 259.585938 206.628906 260.21875 200.652344 C 260.917969 194.179688 259.039062 187.84375 254.960938 182.769531 " fill-opacity="1" fill-rule="nonzero"/><g clip-path="url(#id2)"><path fill="#3ca645" d="M 392.105469 350.753906 C 392.105469 354.546875 389.308594 357.652344 385.84375 357.652344 L 113.597656 357.652344 C 110.148438 357.652344 107.332031 354.546875 107.332031 350.753906 L 107.332031 207.722656 C 107.332031 203.929688 110.148438 200.824219 113.597656 200.824219 L 385.84375 200.824219 C 389.308594 200.824219 392.105469 203.929688 392.105469 207.722656 L 392.105469 350.753906 " fill-opacity="1" fill-rule="nonzero"/></g><path fill="#5bbc4f" d="M 370.496094 236.191406 C 362.863281 236.191406 356.683594 230.011719 356.683594 222.375 C 356.683594 221.113281 356.875 219.898438 357.179688 218.738281 L 142.585938 218.738281 C 142.910156 219.898438 143.078125 221.113281 143.078125 222.375 C 143.078125 230.011719 136.898438 236.191406 129.285156 236.191406 C 128.160156 236.191406 127.082031 236.054688 126.027344 235.800781 L 126.027344 320.507812 C 127.542969 319.929688 129.183594 319.621094 130.90625 319.621094 C 138.519531 319.621094 144.699219 325.804688 144.699219 333.417969 C 144.699219 335.707031 144.15625 337.859375 143.183594 339.757812 L 356.601562 339.757812 C 355.628906 337.859375 355.0625 335.707031 355.0625 333.417969 C 355.0625 325.804688 361.242188 319.621094 368.875 319.621094 C 370.460938 319.621094 371.996094 319.894531 373.414062 320.390625 L 373.414062 235.867188 C 372.476562 236.074219 371.484375 236.191406 370.496094 236.191406 " fill-opacity="1" fill-rule="nonzero"/><path fill="#3ca645" d="M 262.027344 308.074219 C 260.03125 310.464844 257.402344 312.125 254.433594 312.875 L 254.433594 284.492188 C 260.269531 285.992188 264.828125 291.046875 265.390625 297.382812 C 265.734375 301.277344 264.539062 305.085938 262.027344 308.074219 Z M 233.996094 259.792969 C 233.996094 252.980469 238.691406 247.226562 245.007812 245.601562 L 245.007812 273.96875 C 238.691406 272.347656 233.996094 266.609375 233.996094 259.792969 Z M 275.054688 296.53125 C 274.046875 285.121094 265.289062 276.242188 254.433594 274.601562 L 254.433594 246.355469 C 259.636719 248.589844 263.273438 253.785156 263.273438 259.792969 L 272.988281 259.792969 C 272.988281 248.371094 265.066406 238.753906 254.433594 236.140625 L 254.433594 231.785156 L 245.007812 231.785156 L 245.007812 235.714844 C 233.296875 237.472656 224.300781 247.601562 224.300781 259.792969 C 224.300781 271.988281 233.296875 282.117188 245.007812 283.875 L 245.007812 312.140625 C 243.726562 311.578125 242.515625 310.84375 241.40625 309.921875 C 238.417969 307.410156 236.574219 303.875 236.21875 299.980469 L 226.554688 300.835938 C 227.136719 307.308594 230.191406 313.183594 235.175781 317.367188 C 238.078125 319.792969 241.441406 321.464844 245.007812 322.335938 L 245.007812 326.691406 L 254.433594 326.691406 L 254.433594 322.761719 C 260.320312 321.875 265.613281 318.921875 269.472656 314.308594 C 273.652344 309.320312 275.632812 303.003906 275.054688 296.53125 " fill-opacity="1" fill-rule="nonzero"/><g clip-path="url(#id3)"><path fill="#f9af23" d="M 223.824219 248.199219 C 223.824219 308.640625 174.832031 357.652344 114.417969 357.652344 C 53.988281 357.652344 5.003906 308.640625 5.003906 248.199219 C 5.003906 187.742188 53.988281 138.726562 114.417969 138.726562 C 174.832031 138.726562 223.824219 187.742188 223.824219 248.199219 " fill-opacity="1" fill-rule="nonzero"/><path fill="#f79326" d="M 114.417969 138.726562 L 114.417969 148.972656 C 118.667969 148.972656 122.9375 149.246094 127.117188 149.777344 L 128.414062 139.632812 C 126.792969 139.410156 125.171875 139.238281 123.515625 139.101562 C 123.464844 139.101562 123.414062 139.101562 123.34375 139.085938 C 123.261719 139.085938 123.175781 139.085938 123.089844 139.066406 C 123.039062 139.066406 122.96875 139.066406 122.917969 139.050781 L 122.695312 139.050781 C 122.679688 139.050781 122.679688 139.050781 122.664062 139.035156 L 122.527344 139.035156 C 122.507812 139.035156 122.507812 139.015625 122.492188 139.015625 L 122.21875 139.015625 L 122.21875 139 L 122.046875 139 C 122.03125 139 122.03125 138.980469 121.996094 138.980469 L 121.773438 138.980469 C 121.742188 138.980469 121.707031 138.964844 121.65625 138.964844 L 121.433594 138.964844 C 121.417969 138.949219 121.417969 138.949219 121.398438 138.949219 L 121.210938 138.949219 C 121.210938 138.929688 121.195312 138.929688 121.175781 138.929688 L 120.902344 138.929688 C 120.886719 138.929688 120.871094 138.914062 120.835938 138.914062 L 120.683594 138.914062 C 120.664062 138.914062 120.648438 138.914062 120.613281 138.898438 L 120.253906 138.898438 C 120.253906 138.878906 120.238281 138.878906 120.222656 138.878906 L 120.050781 138.878906 C 120.035156 138.878906 120.015625 138.863281 120 138.863281 L 119.605469 138.863281 C 119.589844 138.847656 119.574219 138.847656 119.554688 138.847656 L 119.316406 138.847656 C 119.316406 138.847656 119.300781 138.847656 119.28125 138.828125 L 118.820312 138.828125 C 118.820312 138.828125 118.804688 138.828125 118.804688 138.8125 L 118.34375 138.8125 C 118.328125 138.8125 118.308594 138.8125 118.292969 138.792969 L 117.898438 138.792969 C 117.882812 138.777344 117.867188 138.777344 117.847656 138.777344 L 117.164062 138.777344 C 117.164062 138.777344 117.148438 138.761719 117.132812 138.761719 L 116.570312 138.761719 C 116.550781 138.761719 116.535156 138.761719 116.535156 138.742188 L 114.929688 138.742188 C 114.929688 138.726562 114.914062 138.726562 114.914062 138.726562 Z M 168.121094 152.796875 L 163.085938 161.730469 C 174.234375 168.015625 183.945312 176.316406 191.953125 186.339844 L 199.957031 179.953125 C 199.277344 179.097656 198.578125 178.246094 197.875 177.410156 L 197.824219 177.355469 C 197.808594 177.324219 197.789062 177.304688 197.773438 177.289062 L 197.722656 177.238281 L 197.722656 177.222656 C 197.707031 177.203125 197.6875 177.1875 197.65625 177.167969 C 197.636719 177.136719 197.621094 177.117188 197.621094 177.101562 L 197.601562 177.101562 C 197.585938 177.085938 197.570312 177.066406 197.570312 177.050781 L 197.5 176.980469 C 197.484375 176.949219 197.464844 176.929688 197.449219 176.914062 L 197.398438 176.863281 L 197.398438 176.84375 L 197.347656 176.792969 C 197.328125 176.777344 197.3125 176.742188 197.296875 176.726562 C 197.261719 176.707031 197.261719 176.691406 197.226562 176.675781 L 197.226562 176.65625 C 197.210938 176.640625 197.195312 176.625 197.195312 176.605469 L 197.175781 176.605469 C 197.160156 176.589844 197.140625 176.554688 197.140625 176.554688 L 197.074219 176.488281 L 197.074219 176.46875 L 196.972656 176.367188 L 196.953125 176.351562 C 196.953125 176.332031 196.9375 176.316406 196.921875 176.296875 L 196.902344 176.28125 C 196.886719 176.265625 196.886719 176.246094 196.871094 176.230469 L 196.851562 176.230469 C 196.835938 176.214844 196.835938 176.195312 196.800781 176.179688 L 196.800781 176.160156 L 196.75 176.109375 L 196.75 176.09375 C 196.734375 176.078125 196.714844 176.078125 196.699219 176.058594 C 196.699219 176.042969 196.699219 176.042969 196.679688 176.042969 C 196.679688 176.027344 196.664062 176.007812 196.648438 175.992188 C 196.648438 175.992188 196.648438 175.972656 196.628906 175.972656 L 196.597656 175.941406 C 196.597656 175.921875 196.578125 175.921875 196.578125 175.921875 C 196.5625 175.90625 196.5625 175.890625 196.542969 175.871094 C 196.527344 175.871094 196.527344 175.855469 196.527344 175.855469 C 196.511719 175.835938 196.492188 175.820312 196.492188 175.804688 C 196.476562 175.804688 196.476562 175.804688 196.476562 175.785156 C 196.460938 175.769531 196.441406 175.769531 196.441406 175.753906 L 196.425781 175.734375 L 196.375 175.683594 L 196.355469 175.667969 C 196.339844 175.648438 196.339844 175.648438 196.324219 175.617188 L 196.304688 175.617188 C 196.289062 175.597656 196.289062 175.582031 196.273438 175.5625 C 196.273438 175.546875 196.253906 175.546875 196.253906 175.546875 C 196.238281 175.53125 196.21875 175.511719 196.21875 175.496094 C 196.203125 175.496094 196.203125 175.496094 196.203125 175.480469 C 196.1875 175.460938 196.167969 175.460938 196.167969 175.445312 C 196.152344 175.429688 196.152344 175.429688 196.136719 175.429688 C 196.136719 175.410156 196.117188 175.394531 196.101562 175.375 L 196.082031 175.359375 C 196.066406 175.34375 196.066406 175.34375 196.050781 175.308594 L 196.03125 175.308594 C 196.015625 175.292969 196.015625 175.273438 196 175.257812 C 196 175.238281 195.980469 175.238281 195.980469 175.238281 C 195.964844 175.222656 195.949219 175.207031 195.949219 175.1875 C 195.929688 175.1875 195.929688 175.1875 195.929688 175.171875 C 195.914062 175.15625 195.894531 175.15625 195.894531 175.136719 C 195.878906 175.121094 195.878906 175.121094 195.863281 175.121094 C 195.863281 175.101562 195.84375 175.085938 195.828125 175.070312 L 195.8125 175.050781 L 195.777344 175.019531 C 195.777344 175 195.757812 175 195.757812 175 C 195.742188 174.984375 195.742188 174.964844 195.726562 174.949219 L 195.707031 174.933594 C 195.691406 174.914062 195.675781 174.914062 195.675781 174.898438 L 195.640625 174.863281 C 195.640625 174.847656 195.621094 174.847656 195.621094 174.828125 C 195.605469 174.828125 195.605469 174.8125 195.589844 174.8125 C 195.589844 174.796875 195.570312 174.777344 195.554688 174.777344 C 195.554688 174.761719 195.554688 174.761719 195.539062 174.746094 L 195.503906 174.710938 C 195.503906 174.695312 195.488281 174.695312 195.488281 174.695312 C 195.46875 174.675781 195.46875 174.660156 195.453125 174.640625 C 195.433594 174.640625 195.433594 174.640625 195.433594 174.625 C 195.417969 174.609375 195.402344 174.609375 195.402344 174.589844 C 195.382812 174.574219 195.382812 174.574219 195.367188 174.574219 C 195.367188 174.558594 195.351562 174.539062 195.332031 174.523438 L 195.316406 174.503906 C 195.316406 174.488281 195.296875 174.488281 195.28125 174.472656 C 195.28125 174.453125 195.265625 174.453125 195.265625 174.4375 C 195.246094 174.4375 195.246094 174.421875 195.230469 174.402344 C 195.214844 174.402344 195.214844 174.386719 195.214844 174.386719 C 195.195312 174.367188 195.179688 174.367188 195.179688 174.351562 C 195.164062 174.335938 195.164062 174.335938 195.164062 174.316406 C 195.144531 174.300781 195.128906 174.300781 195.128906 174.285156 C 195.109375 174.265625 195.09375 174.265625 195.09375 174.25 C 195.078125 174.25 195.078125 174.230469 195.058594 174.230469 C 195.058594 174.214844 195.042969 174.214844 195.042969 174.199219 C 195.027344 174.179688 195.007812 174.179688 195.007812 174.164062 C 195.007812 174.148438 194.992188 174.148438 194.972656 174.128906 L 194.957031 174.113281 C 194.941406 174.09375 194.941406 174.078125 194.921875 174.0625 C 194.90625 174.0625 194.90625 174.0625 194.90625 174.042969 L 194.855469 173.992188 C 194.820312 173.976562 194.820312 173.960938 194.804688 173.941406 C 194.785156 173.941406 194.785156 173.941406 194.785156 173.925781 C 194.769531 173.90625 194.769531 173.90625 194.753906 173.875 L 194.734375 173.875 C 194.71875 173.855469 194.703125 173.839844 194.703125 173.824219 C 194.683594 173.824219 194.683594 173.824219 194.667969 173.804688 C 194.667969 173.789062 194.648438 173.769531 194.632812 173.753906 L 194.617188 173.753906 C 194.617188 173.71875 194.597656 173.71875 194.582031 173.703125 C 194.582031 173.6875 194.566406 173.6875 194.566406 173.6875 C 194.546875 173.667969 194.546875 173.667969 194.53125 173.632812 L 194.511719 173.632812 C 194.496094 173.601562 194.480469 173.601562 194.460938 173.566406 C 194.429688 173.550781 194.429688 173.53125 194.394531 173.515625 C 194.375 173.480469 194.359375 173.480469 194.34375 173.445312 L 194.292969 173.394531 C 194.273438 173.363281 194.257812 173.363281 194.242188 173.328125 C 194.207031 173.308594 194.1875 173.292969 194.171875 173.277344 L 194.171875 173.257812 C 190.996094 169.878906 187.601562 166.683594 183.996094 163.730469 C 183.671875 163.4375 183.332031 163.164062 182.992188 162.890625 L 182.480469 162.484375 L 182.222656 162.277344 C 182.207031 162.261719 182.171875 162.261719 182.152344 162.226562 C 182.136719 162.210938 182.121094 162.191406 182.085938 162.191406 L 182.085938 162.175781 C 182.070312 162.15625 182.050781 162.140625 182.019531 162.140625 L 182.019531 162.125 C 182 162.105469 181.984375 162.105469 181.964844 162.089844 L 181.964844 162.074219 C 181.933594 162.054688 181.914062 162.039062 181.898438 162.039062 L 181.898438 162.019531 C 181.882812 162.019531 181.863281 161.988281 181.828125 161.988281 C 181.8125 161.953125 181.796875 161.953125 181.777344 161.917969 L 181.761719 161.917969 C 181.746094 161.917969 181.726562 161.902344 181.710938 161.882812 L 181.695312 161.867188 C 181.675781 161.867188 181.660156 161.851562 181.640625 161.832031 C 181.625 161.800781 181.589844 161.800781 181.574219 161.78125 L 181.574219 161.765625 C 181.558594 161.765625 181.523438 161.75 181.503906 161.730469 L 181.453125 161.679688 L 181.4375 161.679688 L 181.386719 161.628906 C 181.351562 161.613281 181.335938 161.59375 181.316406 161.578125 C 181.285156 161.558594 181.265625 161.542969 181.25 161.527344 L 181.199219 161.476562 L 181.179688 161.476562 L 181.128906 161.421875 L 181.113281 161.421875 L 181.0625 161.371094 L 181.042969 161.371094 L 180.992188 161.320312 L 180.976562 161.320312 C 180.960938 161.304688 180.960938 161.285156 180.925781 161.285156 L 180.925781 161.269531 C 180.910156 161.253906 180.890625 161.253906 180.855469 161.234375 L 180.855469 161.21875 C 180.839844 161.203125 180.824219 161.183594 180.804688 161.183594 L 180.789062 161.167969 C 180.773438 161.148438 180.753906 161.148438 180.738281 161.132812 C 180.738281 161.132812 180.71875 161.132812 180.71875 161.117188 C 180.703125 161.097656 180.6875 161.097656 180.667969 161.082031 C 180.667969 161.082031 180.667969 161.066406 180.652344 161.066406 C 180.636719 161.066406 180.617188 161.046875 180.601562 161.03125 L 180.585938 161.015625 C 180.566406 161.015625 180.550781 160.996094 180.550781 160.980469 L 180.53125 160.980469 L 180.480469 160.929688 C 180.464844 160.929688 180.464844 160.929688 180.464844 160.910156 C 180.449219 160.910156 180.429688 160.894531 180.414062 160.878906 L 180.394531 160.878906 L 180.34375 160.824219 L 180.328125 160.824219 C 180.3125 160.808594 180.292969 160.792969 180.277344 160.792969 C 180.277344 160.773438 180.277344 160.773438 180.257812 160.773438 L 180.207031 160.722656 L 180.191406 160.722656 C 180.191406 160.707031 180.15625 160.707031 180.15625 160.6875 C 180.140625 160.6875 180.140625 160.671875 180.125 160.671875 C 180.125 160.65625 180.105469 160.636719 180.089844 160.636719 C 180.070312 160.636719 180.070312 160.621094 180.070312 160.621094 C 180.054688 160.605469 180.039062 160.605469 180.019531 160.585938 C 180.003906 160.585938 180.003906 160.585938 180.003906 160.570312 C 179.988281 160.550781 179.96875 160.550781 179.953125 160.535156 C 179.953125 160.535156 179.933594 160.535156 179.933594 160.519531 C 179.917969 160.519531 179.902344 160.5 179.882812 160.484375 L 179.867188 160.46875 C 179.851562 160.46875 179.832031 160.449219 179.816406 160.433594 L 179.796875 160.433594 C 179.796875 160.417969 179.765625 160.398438 179.765625 160.398438 C 179.746094 160.382812 179.746094 160.382812 179.730469 160.382812 C 179.730469 160.363281 179.695312 160.347656 179.695312 160.332031 L 179.679688 160.332031 C 179.664062 160.3125 179.644531 160.3125 179.628906 160.296875 L 179.609375 160.28125 C 179.59375 160.261719 179.578125 160.246094 179.558594 160.246094 C 179.542969 160.246094 179.542969 160.226562 179.542969 160.226562 C 179.527344 160.210938 179.507812 160.210938 179.492188 160.195312 L 179.472656 160.175781 C 179.457031 160.175781 179.441406 160.160156 179.421875 160.144531 C 179.421875 160.144531 179.40625 160.144531 179.40625 160.125 C 179.390625 160.125 179.371094 160.109375 179.371094 160.089844 C 179.355469 160.089844 179.355469 160.089844 179.339844 160.074219 C 179.320312 160.074219 179.304688 160.058594 179.304688 160.058594 L 179.269531 160.023438 C 179.253906 160.023438 179.253906 160.007812 179.234375 160.007812 L 179.21875 159.988281 C 179.203125 159.972656 179.183594 159.953125 179.167969 159.953125 L 179.148438 159.9375 C 179.132812 159.921875 179.117188 159.902344 179.097656 159.902344 L 179.082031 159.886719 C 179.066406 159.871094 179.046875 159.871094 179.03125 159.851562 C 179.03125 159.851562 179.011719 159.851562 179.011719 159.835938 C 178.996094 159.816406 178.980469 159.816406 178.960938 159.800781 L 178.945312 159.785156 C 178.929688 159.785156 178.910156 159.765625 178.894531 159.75 C 178.894531 159.75 178.878906 159.75 178.878906 159.734375 C 178.859375 159.734375 178.84375 159.714844 178.84375 159.714844 C 178.824219 159.699219 178.824219 159.699219 178.808594 159.699219 C 178.792969 159.683594 178.792969 159.664062 178.773438 159.664062 C 178.757812 159.648438 178.757812 159.648438 178.742188 159.648438 L 178.707031 159.613281 C 178.6875 159.597656 178.6875 159.597656 178.671875 159.597656 C 178.671875 159.578125 178.636719 159.578125 178.636719 159.5625 C 178.621094 159.5625 178.621094 159.546875 178.605469 159.546875 L 178.570312 159.511719 C 178.550781 159.511719 178.550781 159.511719 178.550781 159.492188 C 178.535156 159.476562 178.519531 159.476562 178.5 159.476562 L 178.484375 159.460938 C 178.46875 159.441406 178.449219 159.425781 178.433594 159.425781 L 178.417969 159.410156 C 178.398438 159.390625 178.382812 159.390625 178.363281 159.375 C 178.363281 159.355469 178.347656 159.355469 178.347656 159.355469 C 178.332031 159.339844 178.3125 159.339844 178.296875 159.324219 L 178.28125 159.304688 C 178.261719 159.289062 178.246094 159.289062 178.246094 159.273438 C 178.226562 159.273438 178.210938 159.273438 178.210938 159.253906 C 178.195312 159.238281 178.175781 159.238281 178.175781 159.238281 C 178.160156 159.21875 178.144531 159.21875 178.144531 159.203125 C 178.125 159.203125 178.109375 159.1875 178.109375 159.167969 C 178.089844 159.167969 178.089844 159.167969 178.074219 159.152344 C 178.058594 159.152344 178.058594 159.152344 178.039062 159.136719 C 178.023438 159.117188 178.023438 159.117188 178.007812 159.117188 C 177.988281 159.101562 177.988281 159.085938 177.972656 159.085938 C 177.957031 159.085938 177.957031 159.066406 177.9375 159.066406 C 177.9375 159.050781 177.921875 159.050781 177.902344 159.03125 C 177.886719 159.03125 177.886719 159.015625 177.871094 159.015625 C 177.851562 159 177.851562 159 177.835938 159 L 177.800781 158.964844 C 177.785156 158.964844 177.785156 158.949219 177.765625 158.949219 L 177.734375 158.914062 C 177.714844 158.914062 177.714844 158.894531 177.699219 158.894531 C 177.699219 158.894531 177.683594 158.878906 177.664062 158.878906 C 177.664062 158.863281 177.648438 158.863281 177.628906 158.84375 C 177.628906 158.84375 177.613281 158.828125 177.597656 158.828125 C 177.597656 158.8125 177.578125 158.8125 177.5625 158.792969 L 177.546875 158.777344 C 177.527344 158.777344 177.511719 158.757812 177.511719 158.757812 C 177.496094 158.742188 177.476562 158.742188 177.476562 158.726562 C 177.460938 158.726562 177.441406 158.707031 177.441406 158.707031 C 177.425781 158.691406 177.410156 158.691406 177.410156 158.691406 L 177.375 158.65625 C 177.359375 158.65625 177.359375 158.640625 177.339844 158.640625 C 177.324219 158.621094 177.304688 158.621094 177.289062 158.605469 L 177.273438 158.589844 C 177.253906 158.570312 177.238281 158.570312 177.238281 158.570312 C 177.222656 158.554688 177.203125 158.554688 177.203125 158.539062 C 177.1875 158.539062 177.167969 158.519531 177.167969 158.519531 C 177.152344 158.503906 177.136719 158.503906 177.136719 158.488281 C 177.117188 158.488281 177.117188 158.46875 177.101562 158.46875 C 177.085938 158.46875 177.085938 158.453125 177.066406 158.453125 L 177.03125 158.417969 C 177.015625 158.417969 177.015625 158.402344 177 158.402344 C 176.980469 158.382812 176.980469 158.382812 176.964844 158.382812 C 176.949219 158.367188 176.949219 158.351562 176.929688 158.351562 C 176.914062 158.351562 176.914062 158.332031 176.898438 158.332031 C 176.878906 158.316406 176.863281 158.316406 176.863281 158.296875 C 176.84375 158.296875 176.84375 158.296875 176.828125 158.28125 C 176.8125 158.265625 176.8125 158.265625 176.792969 158.265625 L 176.761719 158.230469 C 176.742188 158.230469 176.742188 158.214844 176.726562 158.214844 C 176.707031 158.195312 176.707031 158.195312 176.691406 158.195312 C 176.691406 158.179688 176.675781 158.160156 176.65625 158.160156 C 176.65625 158.160156 176.640625 158.144531 176.625 158.144531 C 176.625 158.128906 176.605469 158.128906 176.589844 158.109375 C 176.589844 158.109375 176.570312 158.109375 176.554688 158.09375 C 176.554688 158.078125 176.539062 158.078125 176.519531 158.078125 C 176.519531 158.058594 176.503906 158.058594 176.503906 158.042969 C 176.46875 158.042969 176.46875 158.023438 176.453125 158.023438 C 176.4375 158.023438 176.4375 158.007812 176.4375 158.007812 C 176.417969 157.992188 176.402344 157.992188 176.382812 157.972656 C 176.382812 157.972656 176.367188 157.957031 176.351562 157.957031 C 176.351562 157.941406 176.332031 157.941406 176.316406 157.921875 C 176.316406 157.921875 176.300781 157.921875 176.28125 157.90625 L 176.246094 157.871094 L 176.230469 157.871094 C 176.214844 157.855469 176.195312 157.835938 176.179688 157.835938 L 176.164062 157.820312 C 176.144531 157.804688 176.128906 157.804688 176.109375 157.785156 L 176.09375 157.769531 C 176.078125 157.769531 176.058594 157.753906 176.042969 157.753906 C 176.042969 157.734375 176.027344 157.734375 176.027344 157.71875 C 176.007812 157.71875 175.992188 157.699219 175.976562 157.699219 C 175.976562 157.683594 175.957031 157.683594 175.957031 157.683594 C 175.941406 157.667969 175.921875 157.648438 175.90625 157.648438 L 175.890625 157.632812 C 175.871094 157.617188 175.855469 157.617188 175.839844 157.597656 C 175.839844 157.597656 175.820312 157.597656 175.820312 157.582031 C 175.804688 157.582031 175.785156 157.5625 175.769531 157.5625 C 175.769531 157.546875 175.753906 157.546875 175.753906 157.546875 C 175.734375 157.53125 175.71875 157.511719 175.703125 157.511719 C 175.703125 157.496094 175.683594 157.496094 175.683594 157.496094 C 175.667969 157.480469 175.652344 157.460938 175.632812 157.460938 L 175.617188 157.445312 C 175.597656 157.445312 175.582031 157.425781 175.566406 157.410156 L 175.546875 157.410156 C 175.53125 157.394531 175.515625 157.375 175.496094 157.375 C 175.496094 157.359375 175.480469 157.359375 175.480469 157.359375 C 175.460938 157.34375 175.445312 157.34375 175.429688 157.324219 C 175.429688 157.308594 175.410156 157.308594 175.410156 157.308594 C 175.394531 157.289062 175.378906 157.289062 175.359375 157.273438 C 175.359375 157.273438 175.34375 157.273438 175.34375 157.257812 C 175.324219 157.257812 175.308594 157.238281 175.292969 157.222656 L 175.273438 157.222656 C 175.257812 157.207031 175.242188 157.1875 175.222656 157.1875 L 175.207031 157.171875 C 175.191406 157.171875 175.171875 157.15625 175.15625 157.136719 C 175.15625 157.136719 175.136719 157.136719 175.136719 157.121094 C 175.121094 157.121094 175.105469 157.101562 175.085938 157.101562 C 175.085938 157.085938 175.070312 157.085938 175.070312 157.085938 C 175.054688 157.070312 175.035156 157.050781 175.019531 157.050781 L 175 157.035156 C 174.984375 157.019531 174.96875 157.019531 174.949219 157 C 174.949219 157 174.933594 157 174.933594 156.984375 C 174.917969 156.984375 174.898438 156.964844 174.882812 156.949219 L 174.867188 156.949219 C 174.847656 156.933594 174.832031 156.914062 174.8125 156.914062 L 174.796875 156.898438 C 174.78125 156.882812 174.761719 156.882812 174.746094 156.863281 C 174.730469 156.863281 174.730469 156.863281 174.730469 156.847656 C 174.710938 156.847656 174.695312 156.828125 174.675781 156.828125 C 174.675781 156.8125 174.660156 156.8125 174.660156 156.8125 C 174.644531 156.796875 174.625 156.777344 174.609375 156.777344 L 174.59375 156.761719 C 174.574219 156.746094 174.558594 156.746094 174.542969 156.726562 C 174.523438 156.726562 174.523438 156.726562 174.523438 156.710938 C 174.507812 156.710938 174.488281 156.691406 174.472656 156.675781 L 174.457031 156.675781 C 174.4375 156.660156 174.421875 156.640625 174.40625 156.640625 C 174.386719 156.640625 174.386719 156.625 174.386719 156.625 C 174.371094 156.609375 174.351562 156.609375 174.335938 156.589844 C 174.320312 156.589844 174.320312 156.589844 174.300781 156.574219 C 174.300781 156.574219 174.285156 156.558594 174.269531 156.558594 L 174.25 156.539062 C 174.234375 156.523438 174.214844 156.523438 174.199219 156.503906 L 174.183594 156.488281 C 174.148438 156.488281 174.148438 156.472656 174.132812 156.453125 C 174.113281 156.453125 174.113281 156.453125 174.097656 156.4375 C 174.097656 156.4375 174.082031 156.421875 174.0625 156.421875 C 174.046875 156.402344 174.046875 156.402344 174.027344 156.402344 C 174.027344 156.386719 173.996094 156.367188 173.976562 156.367188 L 173.976562 156.351562 L 173.910156 156.316406 C 173.875 156.300781 173.875 156.285156 173.839844 156.285156 C 173.839844 156.265625 173.839844 156.265625 173.824219 156.265625 C 173.824219 156.25 173.789062 156.25 173.789062 156.230469 C 173.773438 156.230469 173.773438 156.214844 173.753906 156.214844 C 173.738281 156.214844 173.722656 156.199219 173.703125 156.179688 L 173.6875 156.179688 C 173.671875 156.164062 173.652344 156.164062 173.636719 156.148438 C 173.636719 156.128906 173.636719 156.128906 173.621094 156.128906 C 173.601562 156.128906 173.585938 156.113281 173.566406 156.09375 L 173.550781 156.09375 C 173.535156 156.078125 173.515625 156.0625 173.5 156.0625 C 173.5 156.042969 173.484375 156.042969 173.484375 156.042969 C 173.464844 156.027344 173.449219 156.027344 173.429688 156.011719 L 173.414062 156.011719 L 173.363281 155.957031 L 173.347656 155.957031 C 173.328125 155.941406 173.3125 155.925781 173.296875 155.925781 C 173.296875 155.90625 173.277344 155.90625 173.277344 155.90625 C 173.261719 155.90625 173.242188 155.890625 173.226562 155.875 C 173.210938 155.875 173.210938 155.875 173.210938 155.855469 C 173.191406 155.855469 173.175781 155.839844 173.160156 155.824219 L 173.140625 155.824219 C 173.125 155.804688 173.105469 155.789062 173.089844 155.789062 C 173.089844 155.789062 173.074219 155.789062 173.074219 155.769531 C 173.054688 155.769531 173.023438 155.753906 173.023438 155.738281 L 173.003906 155.738281 C 172.988281 155.71875 172.96875 155.703125 172.953125 155.703125 C 172.9375 155.703125 172.9375 155.703125 172.9375 155.6875 L 172.867188 155.652344 L 172.867188 155.632812 C 172.851562 155.632812 172.816406 155.617188 172.816406 155.601562 L 172.78125 155.601562 C 172.765625 155.582031 172.75 155.582031 172.730469 155.566406 L 172.714844 155.550781 C 172.699219 155.550781 172.679688 155.53125 172.664062 155.515625 L 172.644531 155.515625 C 172.628906 155.496094 172.613281 155.480469 172.59375 155.480469 L 172.578125 155.464844 C 172.5625 155.464844 172.542969 155.445312 172.527344 155.429688 L 172.511719 155.429688 C 172.492188 155.414062 172.476562 155.394531 172.457031 155.394531 L 172.441406 155.378906 C 172.425781 155.359375 172.40625 155.359375 172.390625 155.34375 C 172.390625 155.34375 172.375 155.34375 172.375 155.328125 C 172.355469 155.328125 172.339844 155.308594 172.320312 155.308594 L 172.304688 155.292969 C 172.289062 155.277344 172.269531 155.277344 172.253906 155.257812 C 172.238281 155.257812 172.238281 155.242188 172.238281 155.242188 C 172.21875 155.242188 172.203125 155.222656 172.167969 155.207031 C 172.132812 155.191406 172.117188 155.191406 172.117188 155.171875 C 172.101562 155.171875 172.101562 155.171875 172.082031 155.15625 C 172.082031 155.15625 172.050781 155.140625 172.03125 155.121094 L 172.015625 155.121094 C 171.996094 155.105469 171.980469 155.089844 171.964844 155.089844 C 171.964844 155.089844 171.964844 155.070312 171.945312 155.070312 C 171.929688 155.054688 171.914062 155.054688 171.894531 155.035156 L 171.878906 155.035156 C 171.859375 155.019531 171.84375 155.003906 171.828125 155.003906 L 171.808594 154.984375 C 171.792969 154.96875 171.777344 154.96875 171.757812 154.953125 C 171.757812 154.953125 171.742188 154.953125 171.742188 154.933594 C 171.726562 154.933594 171.707031 154.917969 171.691406 154.898438 L 171.671875 154.898438 C 171.65625 154.882812 171.640625 154.882812 171.621094 154.867188 L 171.605469 154.867188 L 171.554688 154.816406 L 171.535156 154.816406 L 171.46875 154.78125 C 171.433594 154.761719 171.417969 154.746094 171.402344 154.730469 L 171.382812 154.730469 C 171.367188 154.710938 171.347656 154.710938 171.332031 154.695312 L 171.316406 154.695312 L 171.265625 154.644531 L 171.246094 154.644531 C 171.230469 154.625 171.210938 154.625 171.195312 154.609375 L 171.179688 154.609375 C 171.160156 154.59375 171.144531 154.574219 171.128906 154.574219 L 171.109375 154.558594 C 171.09375 154.542969 171.074219 154.542969 171.042969 154.523438 L 171.042969 154.507812 C 171.023438 154.507812 171.007812 154.488281 170.992188 154.472656 L 170.972656 154.472656 C 170.957031 154.457031 170.921875 154.457031 170.90625 154.4375 L 170.886719 154.421875 C 170.871094 154.421875 170.855469 154.40625 170.835938 154.386719 C 170.804688 154.371094 170.785156 154.351562 170.769531 154.351562 L 170.75 154.351562 L 170.699219 154.300781 L 170.683594 154.300781 C 170.667969 154.285156 170.648438 154.285156 170.632812 154.269531 L 170.617188 154.269531 L 170.5625 154.21875 L 170.546875 154.21875 C 170.53125 154.199219 170.496094 154.199219 170.480469 154.183594 C 170.460938 154.164062 170.425781 154.148438 170.410156 154.148438 L 170.410156 154.132812 C 170.375 154.113281 170.359375 154.113281 170.34375 154.097656 C 170.34375 154.097656 170.34375 154.082031 170.324219 154.082031 C 170.308594 154.082031 170.289062 154.0625 170.273438 154.046875 L 170.257812 154.046875 C 170.238281 154.027344 170.222656 154.027344 170.207031 154.011719 L 170.1875 154.011719 L 170.136719 153.960938 L 170.121094 153.960938 C 170.101562 153.945312 170.070312 153.945312 170.050781 153.925781 C 170.035156 153.910156 170.019531 153.890625 169.984375 153.890625 L 169.984375 153.875 C 169.949219 153.875 169.933594 153.859375 169.914062 153.839844 L 169.898438 153.839844 C 169.882812 153.824219 169.863281 153.808594 169.847656 153.808594 L 169.832031 153.789062 C 169.8125 153.773438 169.796875 153.773438 169.777344 153.753906 L 169.761719 153.753906 C 169.746094 153.738281 169.726562 153.722656 169.710938 153.722656 L 169.695312 153.722656 C 169.675781 153.703125 169.640625 153.6875 169.640625 153.671875 L 169.625 153.671875 C 169.609375 153.652344 169.574219 153.652344 169.558594 153.636719 L 169.558594 153.617188 C 169.523438 153.617188 169.507812 153.601562 169.488281 153.601562 C 169.488281 153.601562 169.488281 153.585938 169.472656 153.585938 C 169.453125 153.566406 169.4375 153.566406 169.421875 153.550781 C 169.421875 153.550781 169.402344 153.550781 169.402344 153.535156 C 169.386719 153.535156 169.371094 153.515625 169.351562 153.5 L 169.335938 153.5 C 169.316406 153.5 169.300781 153.484375 169.285156 153.464844 L 169.265625 153.464844 C 169.25 153.449219 169.214844 153.449219 169.199219 153.429688 C 169.199219 153.429688 169.199219 153.414062 169.179688 153.414062 C 169.164062 153.414062 169.164062 153.398438 169.128906 153.378906 C 169.097656 153.363281 169.078125 153.347656 169.0625 153.347656 L 169.046875 153.347656 L 168.992188 153.292969 L 168.976562 153.292969 C 168.960938 153.292969 168.941406 153.277344 168.910156 153.261719 C 168.890625 153.242188 168.875 153.226562 168.839844 153.226562 L 168.839844 153.210938 C 168.824219 153.191406 168.789062 153.191406 168.773438 153.175781 L 168.753906 153.175781 C 168.738281 153.15625 168.722656 153.140625 168.703125 153.140625 L 168.6875 153.140625 L 168.636719 153.089844 L 168.617188 153.089844 C 168.601562 153.074219 168.585938 153.074219 168.566406 153.054688 C 168.550781 153.054688 168.550781 153.054688 168.550781 153.039062 C 168.53125 153.039062 168.515625 153.019531 168.480469 153.019531 L 168.480469 153.003906 C 168.449219 153.003906 168.429688 152.988281 168.414062 152.96875 L 168.398438 152.96875 C 168.378906 152.953125 168.363281 152.953125 168.34375 152.9375 L 168.328125 152.917969 C 168.3125 152.917969 168.292969 152.902344 168.277344 152.902344 C 168.277344 152.882812 168.261719 152.882812 168.261719 152.882812 C 168.242188 152.867188 168.226562 152.867188 168.207031 152.851562 L 168.191406 152.851562 C 168.175781 152.832031 168.15625 152.816406 168.125 152.816406 L 168.125 152.800781 Z M 219.335938 217.046875 L 209.519531 219.949219 C 212.214844 229.070312 213.582031 238.582031 213.582031 248.199219 C 213.582031 251.375 213.429688 254.601562 213.136719 257.746094 L 223.328125 258.71875 C 223.347656 258.496094 223.363281 258.292969 223.378906 258.070312 L 223.378906 257.984375 L 223.398438 257.984375 L 223.398438 257.847656 C 223.398438 257.847656 223.398438 257.832031 223.414062 257.832031 L 223.414062 257.609375 C 223.414062 257.589844 223.429688 257.589844 223.429688 257.574219 C 223.636719 255.0625 223.773438 252.519531 223.808594 249.957031 L 223.808594 249.242188 L 223.824219 249.222656 L 223.824219 247.175781 C 223.824219 247.15625 223.808594 247.140625 223.808594 247.121094 L 223.808594 245.859375 C 223.808594 245.84375 223.808594 245.824219 223.789062 245.789062 L 223.789062 245.089844 C 223.789062 245.074219 223.789062 245.058594 223.773438 245.039062 L 223.773438 244.648438 C 223.773438 244.628906 223.773438 244.613281 223.753906 244.59375 L 223.753906 244.015625 C 223.738281 243.980469 223.738281 243.945312 223.738281 243.914062 L 223.738281 243.707031 C 223.738281 243.691406 223.738281 243.671875 223.722656 243.65625 L 223.722656 243.28125 C 223.722656 243.230469 223.722656 243.195312 223.703125 243.160156 L 223.703125 242.957031 C 223.703125 242.9375 223.6875 242.921875 223.6875 242.90625 L 223.6875 242.582031 C 223.6875 242.546875 223.671875 242.496094 223.671875 242.460938 L 223.671875 242.273438 C 223.652344 242.222656 223.652344 242.1875 223.652344 242.152344 L 223.652344 241.964844 C 223.652344 241.914062 223.636719 241.878906 223.636719 241.828125 L 223.636719 241.589844 C 223.617188 241.523438 223.617188 241.453125 223.617188 241.402344 C 223.617188 241.351562 223.601562 241.316406 223.601562 241.28125 C 223.089844 232.914062 221.621094 224.800781 219.335938 217.046875 Z M 202.347656 294.089844 C 196.425781 305.445312 188.46875 315.417969 178.6875 323.753906 L 185.328125 331.542969 C 196 322.457031 204.890625 311.355469 211.429688 298.835938 Z M 145.675781 342.386719 C 135.621094 345.714844 125.105469 347.40625 114.417969 347.40625 C 112.285156 347.40625 110.148438 347.339844 108.03125 347.203125 L 107.402344 357.433594 C 109.007812 357.535156 110.644531 357.601562 112.285156 357.636719 L 112.914062 357.636719 C 112.914062 357.636719 112.933594 357.652344 112.949219 357.652344 L 115.902344 357.652344 C 115.917969 357.636719 115.9375 357.636719 115.953125 357.636719 L 116.601562 357.636719 C 116.617188 357.636719 116.636719 357.621094 116.652344 357.621094 L 117.4375 357.621094 C 117.457031 357.621094 117.488281 357.621094 117.507812 357.601562 L 117.933594 357.601562 C 117.949219 357.585938 117.96875 357.585938 118 357.585938 L 118.410156 357.585938 C 118.429688 357.585938 118.410156 357.585938 118.410156 357.585938 L 118.496094 357.585938 C 118.515625 357.585938 118.53125 357.585938 118.546875 357.570312 C 118.566406 357.570312 118.546875 357.570312 118.546875 357.570312 L 118.972656 357.570312 C 119.007812 357.570312 119.027344 357.550781 119.042969 357.550781 L 119.332031 357.550781 C 119.351562 357.535156 119.367188 357.535156 119.402344 357.535156 L 119.742188 357.535156 C 119.777344 357.535156 119.792969 357.515625 119.8125 357.515625 L 120.03125 357.515625 C 120.101562 357.5 120.167969 357.5 120.21875 357.5 L 120.375 357.5 C 120.410156 357.5 120.460938 357.484375 120.511719 357.484375 L 120.578125 357.484375 C 120.628906 357.484375 120.679688 357.464844 120.714844 357.464844 L 120.921875 357.464844 C 120.9375 357.464844 120.921875 357.464844 120.921875 357.464844 C 120.972656 357.464844 121.023438 357.449219 121.058594 357.449219 L 121.210938 357.449219 C 121.226562 357.449219 121.261719 357.433594 121.277344 357.433594 L 121.550781 357.433594 C 121.585938 357.414062 121.601562 357.414062 121.621094 357.414062 L 121.757812 357.414062 C 121.808594 357.414062 121.859375 357.398438 121.910156 357.398438 L 121.960938 357.398438 C 122.011719 357.398438 122.0625 357.378906 122.117188 357.378906 L 122.25 357.378906 C 122.320312 357.378906 122.386719 357.363281 122.457031 357.363281 C 122.609375 357.347656 122.78125 357.347656 122.933594 357.328125 C 131.929688 356.628906 140.636719 354.851562 148.882812 352.101562 Z M 40.996094 314.890625 L 33.417969 321.789062 C 40.058594 329.097656 47.6875 335.519531 56.085938 340.816406 C 56.105469 340.832031 56.085938 340.816406 56.085938 340.832031 C 56.121094 340.847656 56.136719 340.847656 56.171875 340.867188 C 56.1875 340.882812 56.207031 340.898438 56.242188 340.917969 C 56.273438 340.933594 56.324219 340.96875 56.375 341.003906 C 56.394531 341.019531 56.429688 341.035156 56.445312 341.035156 L 56.445312 341.054688 C 56.460938 341.054688 56.460938 341.054688 56.480469 341.070312 C 56.496094 341.070312 56.496094 341.089844 56.511719 341.089844 C 56.546875 341.105469 56.566406 341.121094 56.582031 341.121094 L 56.582031 341.140625 C 56.597656 341.140625 56.617188 341.15625 56.617188 341.15625 C 56.632812 341.15625 56.632812 341.15625 56.648438 341.171875 L 56.667969 341.171875 C 56.667969 341.191406 56.667969 341.191406 56.683594 341.191406 L 56.683594 341.207031 L 56.71875 341.207031 L 56.734375 341.226562 L 56.753906 341.242188 L 56.769531 341.242188 L 56.804688 341.277344 L 56.820312 341.277344 L 56.820312 341.292969 C 56.835938 341.292969 56.855469 341.292969 56.855469 341.308594 L 56.890625 341.308594 C 56.890625 341.328125 56.890625 341.328125 56.90625 341.328125 C 56.90625 341.34375 56.90625 341.34375 56.921875 341.34375 L 56.941406 341.363281 L 56.957031 341.363281 C 56.957031 341.363281 56.972656 341.363281 56.972656 341.378906 L 56.992188 341.378906 C 56.992188 341.394531 57.007812 341.394531 57.007812 341.394531 L 57.027344 341.394531 C 57.027344 341.414062 57.042969 341.414062 57.042969 341.414062 C 57.042969 341.429688 57.042969 341.429688 57.058594 341.429688 C 57.058594 341.429688 57.078125 341.429688 57.078125 341.445312 L 57.09375 341.445312 C 57.09375 341.445312 57.09375 341.464844 57.109375 341.464844 L 57.128906 341.464844 C 57.128906 341.480469 57.144531 341.480469 57.144531 341.480469 L 57.160156 341.480469 L 57.195312 341.515625 L 57.214844 341.515625 C 57.214844 341.53125 57.230469 341.53125 57.230469 341.53125 C 57.246094 341.53125 57.246094 341.550781 57.246094 341.550781 L 57.265625 341.550781 L 57.28125 341.566406 L 57.296875 341.566406 C 57.316406 341.582031 57.316406 341.582031 57.332031 341.582031 L 57.332031 341.601562 C 57.351562 341.601562 57.351562 341.617188 57.367188 341.617188 C 57.382812 341.617188 57.382812 341.636719 57.402344 341.636719 C 57.417969 341.652344 57.417969 341.652344 57.433594 341.652344 L 57.433594 341.667969 L 57.46875 341.667969 L 57.46875 341.6875 C 57.484375 341.6875 57.484375 341.703125 57.503906 341.703125 C 57.519531 341.703125 57.519531 341.71875 57.539062 341.71875 C 57.554688 341.738281 57.554688 341.738281 57.570312 341.738281 C 57.589844 341.753906 57.589844 341.753906 57.605469 341.753906 C 57.640625 341.773438 57.65625 341.789062 57.675781 341.804688 L 57.691406 341.804688 C 57.691406 341.824219 57.707031 341.824219 57.707031 341.824219 C 57.726562 341.839844 57.742188 341.839844 57.742188 341.855469 L 57.757812 341.855469 C 57.777344 341.855469 57.792969 341.875 57.828125 341.890625 C 57.863281 341.925781 57.914062 341.941406 57.964844 341.976562 C 60.867188 343.734375 63.855469 345.359375 66.925781 346.828125 L 71.382812 337.605469 C 59.859375 332.054688 49.632812 324.402344 40.996094 314.890625 Z M 5.054688 244.679688 C 5.027344 245.585938 5.007812 246.492188 5.003906 247.394531 L 5.003906 249.121094 C 5.007812 249.136719 5.007812 249.15625 5.007812 249.171875 L 5.007812 249.769531 C 5.007812 249.785156 5.015625 249.785156 5.015625 249.785156 L 5.015625 250.195312 L 5.023438 250.214844 L 5.023438 250.519531 C 5.023438 250.539062 5.023438 250.539062 5.027344 250.539062 L 5.027344 250.84375 C 5.035156 250.84375 5.035156 250.84375 5.035156 250.863281 L 5.035156 251.035156 C 5.035156 251.066406 5.035156 251.101562 5.042969 251.117188 L 5.042969 251.359375 C 5.046875 251.359375 5.046875 251.375 5.046875 251.375 L 5.046875 251.578125 C 5.054688 251.578125 5.054688 251.597656 5.054688 251.597656 L 5.054688 251.785156 L 5.0625 251.800781 L 5.0625 251.972656 C 5.070312 251.972656 5.070312 251.972656 5.070312 251.988281 L 5.070312 252.160156 C 5.070312 252.160156 5.074219 252.160156 5.074219 252.175781 L 5.074219 252.3125 C 5.082031 252.363281 5.082031 252.398438 5.082031 252.449219 L 5.082031 252.5 C 5.082031 252.5 5.082031 252.519531 5.089844 252.519531 L 5.089844 252.65625 C 5.089844 252.691406 5.097656 252.722656 5.097656 252.757812 L 5.097656 252.84375 C 5.101562 252.859375 5.101562 252.859375 5.101562 252.878906 L 5.101562 252.960938 C 5.101562 252.996094 5.109375 253.03125 5.109375 253.066406 L 5.109375 253.152344 C 5.113281 253.167969 5.113281 253.167969 5.113281 253.183594 L 5.113281 253.269531 C 5.113281 253.304688 5.121094 253.339844 5.121094 253.390625 L 5.121094 253.457031 C 5.128906 253.476562 5.128906 253.476562 5.128906 253.492188 L 5.128906 253.578125 C 5.136719 253.628906 5.136719 253.679688 5.136719 253.730469 C 5.136719 253.75 5.140625 253.75 5.140625 253.765625 L 5.140625 253.832031 C 5.148438 253.917969 5.148438 253.988281 5.15625 254.074219 L 5.15625 254.105469 C 5.15625 254.125 5.164062 254.140625 5.164062 254.140625 L 5.164062 254.191406 C 5.164062 254.242188 5.167969 254.292969 5.167969 254.347656 C 5.167969 254.363281 5.175781 254.363281 5.175781 254.378906 L 5.175781 254.464844 C 5.175781 254.484375 5.183594 254.484375 5.183594 254.5 C 5.183594 254.566406 5.1875 254.652344 5.195312 254.722656 L 5.195312 254.808594 C 5.203125 254.875 5.203125 254.925781 5.210938 254.996094 C 5.210938 255.027344 5.214844 255.046875 5.214844 255.0625 C 5.222656 255.183594 5.230469 255.269531 5.234375 255.371094 C 5.242188 255.472656 5.25 255.574219 5.253906 255.679688 C 5.761719 263.210938 7.023438 270.535156 8.988281 277.574219 C 9.003906 277.65625 9.039062 277.761719 9.058594 277.847656 C 9.089844 277.929688 9.109375 278.015625 9.140625 278.101562 L 9.140625 278.136719 C 9.140625 278.152344 9.140625 278.171875 9.160156 278.171875 C 9.175781 278.238281 9.191406 278.289062 9.210938 278.339844 L 9.210938 278.390625 C 9.226562 278.390625 9.226562 278.410156 9.226562 278.425781 C 9.226562 278.445312 9.246094 278.445312 9.246094 278.445312 L 9.246094 278.496094 C 9.261719 278.527344 9.261719 278.5625 9.277344 278.597656 L 9.277344 278.632812 L 9.296875 278.632812 L 9.296875 278.699219 C 9.3125 278.699219 9.3125 278.699219 9.3125 278.714844 L 9.3125 278.734375 L 9.328125 278.75 L 9.328125 278.785156 C 9.328125 278.800781 9.328125 278.800781 9.347656 278.820312 L 9.347656 278.851562 C 9.363281 278.871094 9.363281 278.886719 9.363281 278.90625 L 9.363281 278.921875 L 9.382812 278.9375 L 9.382812 278.957031 C 9.382812 278.972656 9.382812 278.972656 9.398438 278.972656 L 9.398438 279.042969 C 9.414062 279.042969 9.414062 279.058594 9.414062 279.058594 L 9.414062 279.09375 C 9.414062 279.109375 9.414062 279.109375 9.433594 279.125 C 9.433594 279.144531 9.449219 279.160156 9.449219 279.179688 L 9.449219 279.210938 C 9.464844 279.230469 9.464844 279.246094 9.464844 279.246094 L 9.464844 279.261719 L 9.484375 279.28125 L 9.484375 279.332031 L 9.5 279.332031 L 9.5 279.382812 C 9.519531 279.382812 9.519531 279.398438 9.519531 279.398438 L 9.519531 279.453125 C 9.535156 279.453125 9.535156 279.453125 9.535156 279.46875 L 9.535156 279.484375 L 9.550781 279.503906 L 9.550781 279.554688 C 9.550781 279.554688 9.570312 279.554688 9.570312 279.570312 L 9.570312 279.621094 C 9.585938 279.621094 9.585938 279.640625 9.585938 279.640625 L 9.585938 279.65625 C 9.585938 279.671875 9.601562 279.671875 9.601562 279.691406 L 9.601562 279.707031 C 9.601562 279.726562 9.621094 279.742188 9.621094 279.777344 L 9.636719 279.792969 L 9.636719 279.828125 C 9.636719 279.828125 9.636719 279.84375 9.652344 279.863281 L 9.652344 279.894531 C 9.671875 279.894531 9.671875 279.894531 9.671875 279.914062 L 9.671875 279.945312 C 9.671875 279.964844 9.6875 279.964844 9.6875 279.980469 C 9.6875 280.015625 9.707031 280.066406 9.722656 280.101562 C 9.722656 280.117188 9.722656 280.132812 9.738281 280.132812 L 9.738281 280.167969 C 9.738281 280.1875 9.738281 280.1875 9.757812 280.1875 L 9.757812 280.21875 C 9.757812 280.238281 9.773438 280.253906 9.773438 280.253906 C 9.789062 280.304688 9.808594 280.375 9.824219 280.425781 C 9.824219 280.425781 9.824219 280.441406 9.84375 280.460938 L 9.84375 280.511719 C 9.875 280.578125 9.894531 280.664062 9.910156 280.730469 C 9.925781 280.730469 9.925781 280.75 9.925781 280.75 L 9.925781 280.785156 C 10.492188 282.542969 11.070312 284.285156 11.703125 286.007812 L 21.3125 282.457031 C 17.285156 271.511719 15.238281 259.980469 15.238281 248.199219 C 15.238281 247.121094 15.253906 246.0625 15.289062 245.003906 Z M 38.300781 169.570312 C 32.886719 174.8125 28.003906 180.621094 23.753906 186.886719 C 23.753906 186.902344 23.738281 186.902344 23.738281 186.921875 C 23.71875 186.9375 23.71875 186.9375 23.71875 186.957031 L 23.6875 186.988281 C 23.464844 187.332031 23.242188 187.65625 23.019531 187.980469 L 23.019531 188.015625 C 23.003906 188.015625 23.003906 188.015625 23.003906 188.03125 L 22.988281 188.03125 L 22.988281 188.046875 L 22.96875 188.066406 C 22.96875 188.082031 22.953125 188.082031 22.953125 188.082031 C 22.953125 188.101562 22.953125 188.117188 22.933594 188.117188 C 22.832031 188.289062 22.714844 188.441406 22.628906 188.613281 L 22.609375 188.613281 C 22.609375 188.628906 22.59375 188.628906 22.59375 188.644531 C 22.527344 188.730469 22.472656 188.816406 22.40625 188.917969 L 22.40625 188.9375 L 22.390625 188.953125 L 22.390625 188.96875 C 22.371094 188.96875 22.371094 188.96875 22.371094 188.988281 C 22.371094 188.988281 22.371094 189.003906 22.355469 189.003906 L 22.355469 189.023438 C 22.355469 189.023438 22.355469 189.039062 22.335938 189.039062 L 22.320312 189.054688 L 22.320312 189.074219 L 22.304688 189.089844 C 22.304688 189.089844 22.285156 189.105469 22.285156 189.125 C 22.285156 189.140625 22.269531 189.140625 22.253906 189.160156 C 22.253906 189.175781 22.253906 189.175781 22.234375 189.191406 C 22.234375 189.210938 22.21875 189.210938 22.21875 189.226562 C 22.21875 189.242188 22.203125 189.242188 22.203125 189.261719 C 22.183594 189.277344 22.183594 189.277344 22.183594 189.296875 L 22.167969 189.296875 L 22.167969 189.3125 L 22.148438 189.328125 C 22.148438 189.347656 22.148438 189.347656 22.132812 189.347656 L 22.132812 189.363281 L 22.117188 189.378906 C 22.117188 189.398438 22.097656 189.398438 22.097656 189.398438 L 22.097656 189.433594 L 22.082031 189.433594 C 22.082031 189.449219 22.066406 189.449219 22.066406 189.464844 C 22.066406 189.484375 22.046875 189.484375 22.046875 189.484375 L 22.046875 189.5 L 22.011719 189.535156 L 22.011719 189.550781 C 21.996094 189.566406 21.996094 189.566406 21.996094 189.585938 L 21.980469 189.585938 L 21.980469 189.621094 L 21.960938 189.621094 C 21.960938 189.636719 21.945312 189.636719 21.945312 189.636719 L 21.945312 189.652344 C 21.945312 189.671875 21.929688 189.671875 21.929688 189.671875 C 21.929688 189.6875 21.929688 189.6875 21.910156 189.703125 L 21.910156 189.722656 C 21.910156 189.722656 21.894531 189.722656 21.894531 189.738281 L 21.894531 189.757812 C 21.875 189.757812 21.875 189.757812 21.875 189.773438 C 21.875 189.773438 21.859375 189.773438 21.859375 189.789062 C 21.859375 189.808594 21.84375 189.808594 21.84375 189.824219 L 21.824219 189.824219 L 21.824219 189.859375 L 21.808594 189.859375 C 21.808594 189.875 21.792969 189.875 21.792969 189.894531 C 21.792969 189.910156 21.773438 189.910156 21.773438 189.925781 L 21.773438 189.945312 C 21.757812 189.945312 21.757812 189.945312 21.757812 189.960938 C 21.738281 189.960938 21.738281 189.976562 21.738281 189.976562 L 21.738281 189.996094 C 21.722656 189.996094 21.722656 190.011719 21.722656 190.011719 C 21.707031 190.011719 21.707031 190.03125 21.707031 190.03125 C 21.707031 190.046875 21.707031 190.046875 21.6875 190.046875 L 21.6875 190.0625 C 21.671875 190.0625 21.671875 190.082031 21.671875 190.082031 L 21.671875 190.097656 C 21.65625 190.097656 21.65625 190.113281 21.636719 190.132812 C 21.636719 190.132812 21.636719 190.148438 21.621094 190.164062 C 21.621094 190.164062 21.621094 190.183594 21.605469 190.199219 L 21.585938 190.21875 L 21.585938 190.234375 L 21.550781 190.269531 C 21.550781 190.285156 21.535156 190.285156 21.535156 190.300781 C 21.519531 190.320312 21.519531 190.320312 21.519531 190.335938 C 21.5 190.355469 21.5 190.355469 21.5 190.371094 L 21.46875 190.40625 C 21.46875 190.421875 21.46875 190.421875 21.449219 190.4375 C 21.449219 190.457031 21.433594 190.472656 21.433594 190.472656 L 21.433594 190.492188 C 21.414062 190.492188 21.414062 190.492188 21.414062 190.507812 C 21.398438 190.507812 21.398438 190.507812 21.398438 190.523438 L 21.398438 190.542969 C 21.382812 190.542969 21.382812 190.542969 21.382812 190.558594 L 21.363281 190.574219 L 21.363281 190.59375 C 21.347656 190.59375 21.347656 190.609375 21.347656 190.609375 L 21.347656 190.628906 C 21.332031 190.628906 21.332031 190.644531 21.332031 190.644531 C 21.3125 190.644531 21.3125 190.644531 21.3125 190.660156 L 21.3125 190.679688 C 21.296875 190.679688 21.296875 190.679688 21.296875 190.695312 L 21.277344 190.710938 L 21.277344 190.730469 C 21.261719 190.730469 21.261719 190.746094 21.261719 190.746094 C 21.246094 190.746094 21.246094 190.761719 21.246094 190.761719 L 21.246094 190.78125 C 21.246094 190.796875 21.226562 190.796875 21.226562 190.796875 L 21.210938 190.816406 L 21.210938 190.832031 C 21.195312 190.847656 21.195312 190.847656 21.195312 190.867188 L 21.160156 190.898438 L 21.160156 190.933594 L 21.144531 190.933594 C 21.144531 190.953125 21.125 190.953125 21.125 190.96875 C 21.125 190.984375 21.109375 190.984375 21.109375 191.003906 L 21.089844 191.003906 L 21.089844 191.035156 L 21.074219 191.035156 C 21.074219 191.054688 21.074219 191.054688 21.058594 191.070312 C 21.058594 191.089844 21.039062 191.105469 21.039062 191.105469 C 21.039062 191.121094 21.023438 191.140625 21.023438 191.140625 C 21.007812 191.15625 21.007812 191.171875 21.007812 191.171875 L 20.988281 191.171875 C 20.988281 191.191406 20.972656 191.207031 20.972656 191.207031 L 20.972656 191.226562 L 20.953125 191.242188 L 20.953125 191.257812 C 20.9375 191.257812 20.9375 191.277344 20.9375 191.292969 C 20.886719 191.363281 20.835938 191.445312 20.785156 191.53125 C 20.765625 191.550781 20.765625 191.550781 20.765625 191.566406 C 20.75 191.582031 20.75 191.601562 20.734375 191.601562 C 20.699219 191.652344 20.664062 191.71875 20.628906 191.769531 C 20.628906 191.789062 20.613281 191.804688 20.613281 191.804688 C 20.613281 191.824219 20.597656 191.839844 20.597656 191.839844 L 20.597656 191.855469 C 20.546875 191.925781 20.492188 192.011719 20.441406 192.097656 C 20.425781 192.113281 20.425781 192.113281 20.425781 192.128906 L 20.390625 192.164062 C 20.390625 192.179688 20.390625 192.199219 20.375 192.199219 C 20.375 192.214844 20.355469 192.230469 20.355469 192.230469 C 20.339844 192.25 20.339844 192.265625 20.339844 192.265625 C 20.324219 192.285156 20.324219 192.300781 20.304688 192.300781 L 20.304688 192.335938 L 20.289062 192.351562 C 20.289062 192.351562 20.273438 192.367188 20.273438 192.386719 C 20.273438 192.386719 20.253906 192.402344 20.253906 192.421875 C 20.238281 192.421875 20.238281 192.4375 20.238281 192.453125 C 20.1875 192.523438 20.152344 192.589844 20.101562 192.660156 C 20.101562 192.675781 20.085938 192.695312 20.085938 192.695312 C 20.066406 192.726562 20.050781 192.746094 20.03125 192.777344 C 20 192.847656 19.964844 192.914062 19.914062 192.984375 C 19.878906 193.050781 19.828125 193.121094 19.792969 193.207031 C 19.777344 193.222656 19.761719 193.238281 19.761719 193.273438 C 19.539062 193.648438 19.316406 194.027344 19.09375 194.417969 C 17.371094 197.476562 15.78125 200.636719 14.347656 203.878906 L 23.703125 208.03125 C 28.875 196.332031 36.183594 185.863281 45.417969 176.914062 Z M 114.417969 138.726562 L 113.921875 138.726562 C 113.90625 138.726562 113.90625 138.742188 113.886719 138.742188 L 112.300781 138.742188 L 112.285156 138.761719 L 111.6875 138.761719 C 111.6875 138.761719 111.667969 138.761719 111.667969 138.777344 L 110.96875 138.777344 C 110.953125 138.777344 110.9375 138.777344 110.9375 138.792969 L 110.527344 138.792969 C 110.527344 138.8125 110.507812 138.8125 110.507812 138.8125 L 110.132812 138.8125 C 110.082031 138.8125 110.015625 138.8125 109.960938 138.828125 L 109.535156 138.828125 C 109.535156 138.84375 109.519531 138.84375 109.519531 138.84375 L 109.230469 138.84375 C 109.230469 138.863281 109.230469 138.863281 109.210938 138.863281 L 108.820312 138.863281 C 108.800781 138.878906 108.800781 138.878906 108.785156 138.878906 L 108.597656 138.878906 C 108.578125 138.878906 108.578125 138.878906 108.5625 138.898438 L 108.203125 138.898438 L 108.1875 138.914062 L 107.964844 138.914062 L 107.949219 138.929688 L 107.640625 138.929688 C 107.640625 138.929688 107.605469 138.929688 107.605469 138.949219 L 107.402344 138.949219 C 107.386719 138.964844 107.386719 138.964844 107.367188 138.964844 L 107.128906 138.964844 C 107.113281 138.964844 107.09375 138.980469 107.09375 138.980469 L 106.875 138.980469 C 106.804688 138.980469 106.753906 139 106.683594 139 L 106.601562 139 L 106.601562 139.015625 L 106.328125 139.015625 L 106.308594 139.035156 L 106.15625 139.035156 C 106.15625 139.050781 106.140625 139.050781 106.140625 139.050781 L 105.898438 139.050781 C 105.898438 139.050781 105.882812 139.066406 105.867188 139.066406 L 105.78125 139.066406 C 105.695312 139.085938 105.609375 139.085938 105.523438 139.085938 L 105.472656 139.085938 C 105.457031 139.085938 105.4375 139.101562 105.4375 139.101562 L 105.25 139.101562 C 105.234375 139.101562 105.234375 139.101562 105.21875 139.117188 L 105.082031 139.117188 C 105.0625 139.117188 105.0625 139.136719 105.046875 139.136719 L 104.824219 139.136719 L 104.824219 139.152344 L 104.6875 139.152344 C 104.636719 139.167969 104.585938 139.167969 104.515625 139.167969 C 104.5 139.167969 104.464844 139.167969 104.433594 139.1875 L 104.347656 139.1875 C 104.328125 139.1875 104.3125 139.1875 104.3125 139.203125 L 104.089844 139.203125 L 104.089844 139.222656 L 103.953125 139.222656 C 103.953125 139.222656 103.9375 139.238281 103.921875 139.238281 L 103.75 139.238281 L 103.75 139.253906 C 103.578125 139.253906 103.425781 139.273438 103.269531 139.289062 L 103.21875 139.289062 C 103.203125 139.289062 103.203125 139.289062 103.1875 139.304688 L 103.101562 139.304688 C 103.082031 139.304688 103.066406 139.324219 103.066406 139.324219 L 102.878906 139.324219 L 102.878906 139.339844 L 102.757812 139.339844 L 102.757812 139.359375 L 102.707031 139.359375 L 102.195312 139.410156 L 102.109375 139.410156 C 102.09375 139.410156 102.078125 139.410156 102.058594 139.425781 L 101.972656 139.425781 C 101.972656 139.425781 101.957031 139.441406 101.941406 139.441406 L 101.804688 139.441406 C 101.785156 139.441406 101.785156 139.441406 101.769531 139.460938 L 101.71875 139.460938 C 101.425781 139.496094 101.121094 139.527344 100.8125 139.5625 C 100.472656 139.613281 100.148438 139.664062 99.789062 139.699219 C 90.570312 140.929688 81.695312 143.320312 73.347656 146.703125 L 77.1875 156.195312 C 89.015625 151.398438 101.53125 148.972656 114.417969 148.972656 L 114.417969 138.726562 " fill-opacity="1" fill-rule="nonzero"/></g><path fill="#f79326" d="M 198.234375 248.199219 C 198.234375 294.5 160.695312 332.035156 114.417969 332.035156 C 68.121094 332.035156 30.601562 294.5 30.601562 248.199219 C 30.601562 201.882812 68.121094 164.34375 114.417969 164.34375 C 160.695312 164.34375 198.234375 201.882812 198.234375 248.199219 " fill-opacity="1" fill-rule="nonzero"/><path fill="#f9af23" d="M 130.121094 285.003906 C 127.578125 288.058594 124.199219 290.160156 120.425781 291.117188 L 120.425781 254.910156 C 127.886719 256.824219 133.691406 263.261719 134.40625 271.355469 C 134.851562 276.328125 133.332031 281.175781 130.121094 285.003906 Z M 94.34375 223.367188 C 94.34375 214.65625 100.316406 207.328125 108.390625 205.261719 L 108.390625 241.46875 C 100.335938 239.402344 94.34375 232.078125 94.34375 223.367188 Z M 146.75 270.265625 C 145.453125 255.695312 134.269531 244.375 120.425781 242.273438 L 120.425781 206.203125 C 127.066406 209.089844 131.710938 215.699219 131.710938 223.367188 L 144.101562 223.367188 C 144.101562 208.78125 133.996094 196.519531 120.425781 193.1875 L 120.425781 187.636719 L 108.390625 187.636719 L 108.390625 192.625 C 93.453125 194.878906 81.964844 207.808594 81.964844 223.367188 C 81.964844 238.941406 93.453125 251.851562 108.390625 254.109375 L 108.390625 290.175781 C 106.753906 289.476562 105.199219 288.519531 103.800781 287.34375 C 99.976562 284.148438 97.621094 279.640625 97.175781 274.671875 L 84.832031 275.761719 C 85.566406 284.027344 89.492188 291.507812 95.84375 296.839844 C 99.566406 299.945312 103.832031 302.097656 108.390625 303.207031 L 108.390625 308.757812 L 120.425781 308.757812 L 120.425781 303.738281 C 127.9375 302.609375 134.699219 298.835938 139.613281 292.960938 C 144.957031 286.589844 147.484375 278.53125 146.75 270.265625 " fill-opacity="1" fill-rule="nonzero"/></svg>