<svg xmlns="http://www.w3.org/2000/svg" xmlns:xlink="http://www.w3.org/1999/xlink" width="529" zoomAndPan="magnify" viewBox="0 0 396.75 396.749984" height="529" preserveAspectRatio="xMidYMid meet" version="1.0"><path fill="#ffffff" d="M 121.277344 25.988281 C 121.277344 11.636719 132.914062 0 147.265625 0 L 216.566406 0 C 230.917969 0 242.554688 11.636719 242.554688 25.988281 L 242.554688 121.277344 L 337.84375 121.277344 C 352.195312 121.277344 363.832031 132.914062 363.832031 147.265625 L 363.832031 173.253906 C 363.832031 178.035156 359.953125 181.914062 355.167969 181.914062 C 350.386719 181.914062 346.507812 178.035156 346.507812 173.253906 L 346.507812 147.265625 C 346.507812 142.480469 342.628906 138.601562 337.84375 138.601562 L 233.890625 138.601562 C 229.109375 138.601562 225.230469 134.722656 225.230469 129.941406 L 225.230469 25.988281 C 225.230469 21.203125 221.351562 17.324219 216.566406 17.324219 L 147.265625 17.324219 C 142.480469 17.324219 138.601562 21.203125 138.601562 25.988281 L 138.601562 129.941406 C 138.601562 132.238281 137.691406 134.441406 136.066406 136.066406 C 134.441406 137.691406 132.238281 138.601562 129.941406 138.601562 L 25.988281 138.601562 C 21.203125 138.601562 17.324219 142.480469 17.324219 147.265625 L 17.324219 216.566406 C 17.324219 221.351562 21.203125 225.230469 25.988281 225.230469 L 129.941406 225.230469 C 134.722656 225.230469 138.601562 229.109375 138.601562 233.890625 L 138.601562 337.84375 C 138.601562 342.628906 142.480469 346.507812 147.265625 346.507812 L 164.589844 346.507812 C 169.375 346.507812 173.253906 350.386719 173.253906 355.167969 C 173.253906 359.953125 169.375 363.832031 164.589844 363.832031 L 147.265625 363.832031 C 132.914062 363.832031 121.277344 352.195312 121.277344 337.84375 L 121.277344 242.554688 L 25.988281 242.554688 C 11.636719 242.554688 0 230.917969 0 216.566406 L 0 147.265625 C 0 132.914062 11.636719 121.277344 25.988281 121.277344 L 121.277344 121.277344 Z M 121.277344 25.988281 " fill-opacity="1" fill-rule="nonzero"/><path fill="#ffffff" d="M 315.453125 320.082031 C 310.652344 318.140625 305.1875 320.460938 303.246094 325.257812 C 301.449219 329.695312 296.398438 331.835938 291.964844 330.039062 C 287.53125 328.246094 285.390625 323.195312 287.183594 318.761719 C 292.714844 305.089844 308.28125 298.492188 321.953125 304.023438 C 326.386719 305.816406 328.527344 310.867188 326.734375 315.300781 C 324.941406 319.738281 319.890625 321.878906 315.453125 320.082031 Z M 315.453125 320.082031 " fill-opacity="1" fill-rule="nonzero"/><path fill="#ffffff" d="M 265.050781 193.519531 C 277.804688 189.910156 288.402344 200.335938 288.402344 211.859375 C 288.402344 214.570312 290.601562 216.769531 293.316406 216.769531 C 296.03125 216.769531 298.230469 214.570312 298.230469 211.859375 C 298.230469 200.335938 308.828125 189.910156 321.585938 193.519531 C 329.789062 195.839844 337.582031 199.140625 344.820312 203.292969 C 355.777344 209.574219 355.941406 223.746094 348.128906 231.558594 C 346.207031 233.476562 346.207031 236.589844 348.128906 238.507812 C 350.046875 240.429688 353.15625 240.429688 355.078125 238.507812 C 362.890625 230.695312 377.066406 230.859375 383.34375 241.816406 C 387.496094 249.054688 390.796875 256.847656 393.117188 265.054688 C 396.722656 277.808594 386.300781 288.40625 374.78125 288.40625 C 372.066406 288.40625 369.863281 290.605469 369.863281 293.320312 C 369.863281 296.03125 372.066406 298.234375 374.78125 298.234375 C 386.300781 298.234375 396.722656 308.828125 393.117188 321.585938 C 390.796875 329.792969 387.496094 337.582031 383.34375 344.824219 C 377.066406 355.777344 362.890625 355.941406 355.078125 348.128906 C 353.15625 346.210938 350.046875 346.210938 348.128906 348.128906 C 346.207031 350.046875 346.207031 353.160156 348.128906 355.078125 C 355.941406 362.890625 355.777344 377.066406 344.820312 383.34375 C 337.582031 387.496094 329.789062 390.796875 321.585938 393.117188 C 308.828125 396.726562 298.230469 386.300781 298.230469 374.78125 C 298.230469 372.066406 296.03125 369.867188 293.316406 369.867188 C 290.601562 369.867188 288.402344 372.066406 288.402344 374.78125 C 288.402344 386.300781 277.808594 396.726562 265.050781 393.117188 C 257.460938 390.972656 250.222656 387.984375 243.449219 384.261719 C 233.128906 378.59375 232.910156 365.234375 240.464844 358.125 C 242.730469 355.992188 242.785156 352.40625 240.582031 350.203125 C 238.425781 348.046875 234.933594 348.046875 232.777344 350.203125 C 225.085938 357.894531 211.222656 357.878906 204.761719 347.308594 C 199.917969 339.378906 196.105469 330.738281 193.515625 321.582031 C 189.910156 308.828125 200.335938 298.234375 211.855469 298.234375 C 214.570312 298.234375 216.769531 296.03125 216.769531 293.320312 C 216.769531 290.605469 214.570312 288.402344 211.855469 288.402344 C 200.335938 288.402344 189.910156 277.808594 193.515625 265.054688 C 195.835938 256.847656 199.140625 249.054688 203.292969 241.816406 C 209.570312 230.859375 223.746094 230.695312 231.558594 238.507812 C 233.476562 240.429688 236.589844 240.429688 238.507812 238.507812 C 240.425781 236.589844 240.425781 233.476562 238.507812 231.558594 C 230.695312 223.746094 230.859375 209.570312 241.816406 203.292969 C 249.054688 199.140625 256.847656 195.839844 265.050781 193.519531 Z M 270.109375 210.160156 C 270.0625 210.152344 269.964844 210.132812 269.765625 210.191406 C 262.941406 212.121094 256.460938 214.867188 250.429688 218.324219 L 250.390625 218.347656 L 250.382812 218.382812 L 250.378906 218.425781 C 250.359375 218.621094 250.421875 218.972656 250.757812 219.308594 C 259.441406 227.992188 259.441406 242.074219 250.757812 250.761719 C 242.074219 259.445312 227.992188 259.445312 219.308594 250.761719 C 218.972656 250.425781 218.621094 250.359375 218.421875 250.378906 C 218.386719 250.378906 218.347656 250.390625 218.347656 250.390625 L 218.320312 250.429688 C 214.867188 256.460938 212.121094 262.941406 210.1875 269.765625 C 210.132812 269.964844 210.148438 270.0625 210.160156 270.109375 C 210.175781 270.175781 210.21875 270.296875 210.34375 270.445312 C 210.605469 270.757812 211.121094 271.078125 211.855469 271.078125 C 224.136719 271.078125 234.09375 281.035156 234.09375 293.320312 C 234.09375 305.601562 224.136719 315.558594 211.855469 315.558594 C 211.121094 315.558594 210.605469 315.878906 210.34375 316.191406 C 210.21875 316.339844 210.175781 316.460938 210.160156 316.527344 C 210.148438 316.574219 210.132812 316.671875 210.1875 316.871094 C 212.339844 324.484375 215.511719 331.671875 219.546875 338.277344 L 219.574219 338.316406 C 219.574219 338.316406 219.617188 338.328125 219.65625 338.332031 C 219.851562 338.347656 220.199219 338.277344 220.527344 337.953125 C 229.449219 329.03125 243.914062 329.03125 252.832031 337.953125 C 261.648438 346.765625 261.726562 360.941406 253.230469 369.851562 C 258.453125 372.59375 263.988281 374.8125 269.765625 376.449219 C 269.964844 376.503906 270.0625 376.484375 270.109375 376.476562 C 270.175781 376.460938 270.292969 376.417969 270.441406 376.292969 C 270.757812 376.03125 271.078125 375.515625 271.078125 374.78125 C 271.078125 362.496094 281.035156 352.539062 293.316406 352.539062 C 305.601562 352.539062 315.554688 362.496094 315.554688 374.78125 C 315.554688 375.515625 315.878906 376.03125 316.191406 376.292969 C 316.339844 376.417969 316.460938 376.460938 316.527344 376.476562 C 316.574219 376.484375 316.671875 376.503906 316.871094 376.445312 C 323.695312 374.519531 330.175781 371.769531 336.203125 368.3125 L 336.246094 368.289062 C 336.246094 368.289062 336.253906 368.25 336.257812 368.214844 C 336.277344 368.019531 336.210938 367.664062 335.875 367.328125 C 327.191406 358.644531 327.191406 344.5625 335.875 335.878906 C 344.5625 327.191406 358.644531 327.191406 367.328125 335.878906 C 367.664062 336.214844 368.015625 336.277344 368.210938 336.261719 C 368.246094 336.257812 368.289062 336.246094 368.289062 336.246094 L 368.3125 336.207031 C 371.769531 330.175781 374.515625 323.695312 376.445312 316.871094 C 376.5 316.671875 376.484375 316.574219 376.472656 316.527344 C 376.457031 316.460938 376.414062 316.339844 376.292969 316.191406 C 376.03125 315.878906 375.515625 315.558594 374.78125 315.558594 C 362.496094 315.558594 352.539062 305.601562 352.539062 293.320312 C 352.539062 281.035156 362.496094 271.078125 374.78125 271.078125 C 375.515625 271.078125 376.03125 270.757812 376.292969 270.445312 C 376.414062 270.296875 376.457031 270.175781 376.472656 270.109375 C 376.484375 270.0625 376.5 269.964844 376.445312 269.765625 C 374.515625 262.941406 371.769531 256.460938 368.3125 250.429688 L 368.289062 250.390625 L 368.253906 250.382812 L 368.210938 250.378906 C 368.015625 250.359375 367.664062 250.425781 367.328125 250.761719 C 358.644531 259.445312 344.5625 259.445312 335.875 250.761719 C 327.191406 242.074219 327.191406 227.992188 335.875 219.308594 C 336.210938 218.972656 336.277344 218.621094 336.257812 218.425781 C 336.253906 218.386719 336.246094 218.347656 336.246094 218.347656 L 336.203125 218.324219 C 330.175781 214.867188 323.695312 212.121094 316.871094 210.191406 C 316.671875 210.132812 316.574219 210.152344 316.527344 210.160156 C 316.460938 210.175781 316.339844 210.21875 316.191406 210.34375 C 315.878906 210.605469 315.554688 211.121094 315.554688 211.859375 C 315.554688 224.140625 305.601562 234.097656 293.316406 234.097656 C 281.035156 234.097656 271.078125 224.140625 271.078125 211.859375 C 271.078125 211.121094 270.757812 210.605469 270.441406 210.34375 C 270.292969 210.21875 270.175781 210.175781 270.109375 210.160156 Z M 270.109375 210.160156 " fill-opacity="1" fill-rule="evenodd"/></svg>