<?xml version="1.0" encoding="UTF-8"?>
<svg xmlns="http://www.w3.org/2000/svg" xmlns:xlink="http://www.w3.org/1999/xlink" width="529" zoomAndPan="magnify" viewBox="0 0 396.75 396.749984" height="529" preserveAspectRatio="xMidYMid meet" version="1.0"><defs><clipPath id="id1"><path d="M 0 0 L 396.5 0 L 396.5 396.5 L 0 396.5 Z M 0 0 " clip-rule="nonzero"/></clipPath><clipPath id="id2"><path d="M 24.4375 66.679688 L 358.453125 66.679688 L 358.453125 332.964844 L 24.4375 332.964844 Z M 24.4375 66.679688 " clip-rule="nonzero"/></clipPath><clipPath id="id3"><path d="M 81 63.757812 L 280 63.757812 L 280 323 L 81 323 Z M 81 63.757812 " clip-rule="nonzero"/></clipPath><clipPath id="id4"><path d="M 78.574219 94 L 396.460938 94 L 396.460938 277.792969 L 78.574219 277.792969 Z M 78.574219 94 " clip-rule="nonzero"/></clipPath></defs><g clip-path="url(#id1)"><path fill="#ffffff" d="M 0 0 L 396.75 0 L 396.75 4035 L 0 4035 Z M 0 0 " fill-opacity="1" fill-rule="nonzero"/><path fill="#ffffff" d="M 0 0 L 396.75 0 L 396.75 396.75 L 0 396.75 Z M 0 0 " fill-opacity="1" fill-rule="nonzero"/><path fill="#ffffff" d="M 0 0 L 396.75 0 L 396.75 396.75 L 0 396.75 Z M 0 0 " fill-opacity="1" fill-rule="nonzero"/><path fill="#ffffff" d="M 0 0 L 396.75 0 L 396.75 396.75 L 0 396.75 Z M 0 0 " fill-opacity="1" fill-rule="nonzero"/></g><g clip-path="url(#id2)"><path fill="#ffffff" d="M 59.75 202.417969 C 103.113281 148.449219 81.082031 112.238281 116.59375 84.359375 C 151.132812 57.238281 200.71875 69.417969 208.460938 71.261719 C 244.242188 79.703125 266.113281 101.847656 271.851562 107.851562 C 287.117188 123.765625 282.789062 127.773438 299.785156 148.234375 C 327.503906 181.578125 346.234375 179.683594 354.949219 201.878906 C 365.183594 227.96875 349.375 256.335938 346.179688 262.019531 C 327.234375 296.066406 290.53125 307 253.988281 317.285156 C 218.910156 327.191406 129.910156 352.253906 63.054688 305.757812 C 53.148438 298.828125 24.402344 278.851562 24.777344 252.707031 C 25.050781 233.492188 40.855469 225.964844 59.75 202.417969 " fill-opacity="1" fill-rule="nonzero"/></g><g clip-path="url(#id3)"><path fill="#ffffff" d="M 108.6875 139.410156 L 105.605469 179.144531 L 100.246094 216.0625 L 93.367188 216.0625 L 93.367188 191.375 L 90.011719 216.0625 L 81.945312 216.0625 L 81.945312 180.929688 L 81.1875 143.957031 Z M 279.703125 315.445312 L 279.703125 126.3125 C 279.703125 122.519531 276.617188 119.4375 272.828125 119.4375 L 172.136719 119.4375 C 168.347656 119.4375 165.261719 122.519531 165.261719 126.3125 L 165.261719 315.445312 C 165.261719 319.234375 168.347656 322.320312 172.136719 322.320312 L 272.882812 322.320312 C 276.671875 322.320312 279.703125 319.289062 279.703125 315.445312 Z M 199.257812 104.386719 L 114.753906 114.941406 C 112.695312 115.214844 110.800781 113.753906 110.53125 111.640625 L 106.414062 78.78125 C 106.144531 76.726562 107.605469 74.832031 109.71875 74.558594 L 194.222656 64.003906 C 196.28125 63.734375 198.175781 65.195312 198.445312 67.308594 L 202.558594 100.164062 C 202.832031 102.222656 201.316406 104.117188 199.257812 104.386719 " fill-opacity="1" fill-rule="nonzero"/></g><path fill="#ffbd59" d="M 15.253906 299.855469 L 19.421875 320.15625 L 40.207031 320.15625 L 43.835938 299.855469 Z M 10.542969 290.761719 L 47.734375 290.761719 L 47.734375 299.855469 L 10.542969 299.855469 Z M 29.164062 187.207031 C 34.308594 191.375 56.015625 209.890625 56.609375 237.335938 C 56.773438 244.316406 57.042969 258.714844 46.597656 268.242188 C 40.476562 273.820312 33.226562 275.335938 29.164062 275.820312 C 24.996094 275.171875 15.847656 273.0625 9.242188 265.429688 C 0.3125 255.089844 2.042969 241.503906 3.179688 233.003906 C 6.265625 209.023438 22.234375 193.269531 29.164062 187.207031 " fill-opacity="1" fill-rule="nonzero"/><g clip-path="url(#id4)"><path fill="#ffbd59" d="M 368.972656 189.050781 C 374.113281 193.21875 395.820312 211.730469 396.417969 239.175781 C 396.582031 246.15625 396.851562 260.558594 386.402344 270.082031 C 380.285156 275.660156 373.03125 277.175781 368.972656 277.664062 C 364.804688 277.011719 355.652344 274.902344 349.050781 267.269531 C 340.117188 256.929688 341.847656 243.34375 342.984375 234.84375 C 346.125 210.808594 362.097656 195.058594 368.972656 189.050781 Z M 248.519531 178.492188 C 248.414062 182.011719 248.574219 184.828125 248.792969 186.828125 C 249.0625 189.375 249.386719 191.324219 248.25 193.324219 C 247.601562 194.460938 246.789062 195.164062 246.136719 195.597656 L 246.136719 208.429688 L 258.210938 208.429688 L 258.210938 188.074219 L 267.738281 188.074219 L 267.738281 157.542969 L 248.683594 157.542969 Z M 94.886719 96.808594 C 96.617188 96.863281 98.1875 95.835938 98.890625 94.265625 C 105.65625 94.480469 108.308594 97.132812 109.121094 98.164062 C 109.933594 99.136719 110.746094 100.597656 111.613281 102.058594 C 112.859375 104.167969 113.722656 106.0625 114.265625 107.308594 L 108.203125 110.882812 L 99.054688 104.222656 C 97.210938 106.445312 95.425781 108.71875 93.585938 110.9375 C 95.695312 112.558594 98.296875 114.402344 101.433594 116.078125 C 104.792969 117.863281 107.878906 119.109375 110.53125 119.976562 C 110.855469 126.253906 111.234375 132.480469 111.558594 138.757812 C 106.035156 140.273438 99.863281 141.683594 93.097656 142.710938 C 88.0625 143.46875 83.355469 143.957031 78.914062 144.28125 C 80.59375 132.207031 80.214844 122.519531 79.457031 115.539062 C 78.699219 108.878906 77.398438 102.65625 81.082031 98.378906 C 83.734375 95.292969 87.902344 94.425781 91.042969 94.265625 C 91.746094 95.78125 93.207031 96.808594 94.886719 96.808594 " fill-opacity="1" fill-rule="nonzero"/></g><path fill="#0f0e0c" d="M 133.210938 82.519531 L 111.558594 85.335938 L 114.753906 109.855469 L 136.40625 107.039062 Z M 143.714844 171.945312 L 140.359375 154.242188 L 99.8125 154.242188 L 103.328125 171.78125 L 103.328125 171.890625 Z M 104.683594 189.863281 L 101.382812 173.242188 L 101.382812 173.136719 L 83.027344 173.136719 L 79.996094 189.917969 L 104.683594 189.917969 Z M 87.144531 150.507812 L 96.832031 150.507812 L 93.421875 133.402344 L 91.746094 125.066406 Z M 83.40625 170.917969 L 100.894531 170.917969 L 97.375 153.378906 L 97.210938 152.671875 L 86.710938 152.671875 Z M 95.804688 134.269531 L 99.214844 151.375 L 99.378906 152.078125 L 139.980469 152.078125 L 136.570312 134.269531 Z M 147.667969 192.730469 L 123.25 192.785156 C 122.65625 192.785156 122.167969 192.296875 122.167969 191.703125 C 122.167969 191.105469 122.65625 190.621094 123.25 190.621094 L 147.289062 190.566406 L 144.148438 174.109375 L 103.761719 174.109375 L 107.066406 190.621094 L 115.183594 190.621094 C 115.78125 190.621094 116.269531 191.105469 116.269531 191.703125 C 116.269531 192.296875 115.78125 192.785156 115.183594 192.785156 L 107.5 192.785156 L 107.824219 194.300781 C 107.929688 194.894531 107.550781 195.4375 106.957031 195.601562 C 106.363281 195.707031 105.820312 195.328125 105.65625 194.734375 L 105.117188 192.027344 L 79.566406 192.027344 L 76.316406 209.945312 L 106.742188 209.945312 C 107.335938 209.945312 107.824219 210.433594 107.824219 211.027344 C 107.824219 211.621094 107.335938 212.109375 106.742188 212.109375 L 75.9375 212.109375 L 72.90625 228.78125 L 105.222656 228.78125 C 105.820312 228.78125 106.308594 229.269531 106.308594 229.863281 C 106.308594 230.460938 105.820312 230.949219 105.222656 230.949219 L 72.527344 230.949219 L 69.277344 248.757812 L 107.550781 248.757812 C 108.148438 248.757812 108.636719 249.246094 108.636719 249.839844 C 108.636719 250.433594 108.148438 250.921875 107.550781 250.921875 L 68.847656 250.921875 L 65.597656 268.785156 L 109.445312 268.785156 C 110.042969 268.785156 110.53125 269.273438 110.53125 269.867188 C 110.53125 270.464844 110.042969 270.949219 109.445312 270.949219 L 65.21875 270.949219 L 62.1875 287.675781 L 105.441406 287.675781 C 106.035156 287.675781 106.523438 288.164062 106.523438 288.761719 C 106.523438 289.355469 106.035156 289.84375 105.441406 289.84375 L 61.808594 289.84375 L 56.394531 319.722656 C 56.285156 320.265625 55.855469 320.589844 55.3125 320.589844 L 55.09375 320.589844 C 54.5 320.480469 54.121094 319.941406 54.230469 319.34375 L 63.269531 269.707031 L 73.988281 210.863281 L 90.664062 119.113281 C 90.769531 118.625 91.203125 118.246094 91.746094 118.246094 C 92.285156 118.246094 92.71875 118.625 92.828125 119.113281 L 95.425781 132.15625 L 136.191406 132.15625 L 133.808594 119.546875 C 133.699219 118.949219 134.078125 118.410156 134.675781 118.300781 C 135.269531 118.191406 135.8125 118.570312 135.917969 119.167969 L 150.914062 197.925781 C 151.023438 198.523438 150.644531 199.0625 150.046875 199.171875 L 149.832031 199.171875 C 149.34375 199.171875 148.859375 198.792969 148.75 198.304688 Z M 165.261719 287.675781 L 130.832031 287.675781 C 130.234375 287.675781 129.746094 288.164062 129.746094 288.761719 C 129.746094 289.355469 130.234375 289.84375 130.832031 289.84375 L 165.261719 289.84375 C 165.855469 289.84375 166.34375 289.355469 166.34375 288.761719 C 166.34375 288.164062 165.855469 287.675781 165.261719 287.675781 Z M 162.5 270.519531 L 128.070312 270.519531 C 127.472656 270.519531 126.988281 270.03125 126.988281 269.433594 C 126.988281 268.839844 127.472656 268.351562 128.070312 268.351562 L 162.066406 268.351562 L 158.765625 250.976562 L 129.585938 250.976562 C 128.988281 250.976562 128.503906 250.488281 128.503906 249.894531 C 128.503906 249.296875 128.988281 248.8125 129.585938 248.8125 L 158.386719 248.8125 L 155.027344 231.273438 L 133.753906 231.273438 C 133.160156 231.273438 132.671875 230.785156 132.671875 230.191406 C 132.671875 229.59375 133.160156 229.105469 133.753906 229.105469 L 154.597656 229.105469 L 150.535156 207.941406 C 150.425781 207.347656 150.804688 206.804688 151.402344 206.695312 C 151.996094 206.589844 152.539062 206.96875 152.648438 207.5625 L 166.289062 278.910156 C 166.398438 279.503906 166.019531 280.046875 165.421875 280.152344 L 165.207031 280.152344 C 164.71875 280.152344 164.230469 279.773438 164.125 279.289062 L 162.5 270.519531 " fill-opacity="1" fill-rule="nonzero"/><path fill="#ffffff" d="M 300.707031 191.917969 C 299.730469 191.972656 298.378906 192.132812 297.132812 192.945312 C 295.402344 194.082031 295.023438 195.707031 293.074219 199.605469 C 292.53125 200.742188 291.71875 202.257812 290.746094 204.042969 C 288.417969 204.042969 285.765625 203.828125 282.894531 203.339844 C 276.617188 202.203125 271.582031 199.984375 268.117188 197.980469 C 268.171875 196.628906 268.007812 194.785156 266.816406 193.21875 C 266.710938 193.054688 265.628906 191.703125 265.140625 191.917969 C 264.542969 192.1875 264.976562 194.246094 265.140625 195.058594 C 262.59375 194.785156 261.945312 194.894531 261.890625 195.058594 C 261.835938 195.273438 262.8125 195.542969 263.785156 196.355469 C 264.921875 197.277344 265.519531 198.523438 265.84375 199.550781 C 270.554688 203.988281 274.992188 206.859375 278.1875 208.644531 C 283.4375 211.621094 285.875 211.945312 287.496094 211.945312 C 291.613281 212.054688 294.859375 210.324219 296.539062 209.1875 M 310.882812 195.164062 C 311.046875 196.789062 311.480469 199.117188 312.617188 201.609375 C 313.484375 203.609375 314.511719 205.179688 315.429688 206.316406 C 316.839844 209.996094 318.246094 213.679688 319.601562 217.304688 C 321.007812 222.449219 322.308594 227.753906 323.605469 233.328125 C 324.796875 238.472656 325.824219 243.449219 326.746094 248.324219 C 325.824219 251.734375 325.554688 253.464844 325.878906 253.628906 C 326.097656 253.683594 326.53125 253.140625 327.289062 251.894531 C 327.449219 254.65625 327.882812 255.414062 328.261719 255.46875 C 329.019531 255.578125 330.371094 253.195312 330.265625 250.757812 C 330.15625 248.972656 329.234375 247.621094 328.695312 247.023438 C 328.804688 242.640625 328.855469 237.929688 328.695312 233.058594 C 328.53125 228.078125 328.261719 223.3125 327.828125 218.820312 C 325.121094 212.597656 323.550781 207.453125 322.632812 203.828125 C 321.386719 198.902344 320.738281 194.785156 317.433594 192.890625 C 315.757812 191.917969 313.914062 191.917969 312.726562 192.027344 C 312.019531 193.109375 311.480469 194.136719 310.882812 195.164062 Z M 121.140625 201.066406 C 120.597656 201.988281 119.894531 203.125 118.867188 204.261719 C 117.1875 206.046875 115.457031 207.183594 114.210938 207.832031 C 116.703125 209.238281 119.894531 210.753906 123.792969 211.890625 C 126.664062 212.757812 129.316406 213.246094 131.589844 213.515625 C 133.589844 213.734375 135.160156 214.003906 136.730469 214.003906 C 141.65625 214.003906 145.394531 211.785156 147.667969 210.484375 C 153.785156 206.914062 157.195312 201.878906 158.871094 199.007812 C 166.125 196.679688 169.699219 195.21875 169.539062 194.625 C 169.429688 194.136719 166.9375 194.246094 162.121094 194.839844 C 162.933594 193 163.148438 191.972656 162.769531 191.703125 C 162.121094 191.214844 159.738281 193.109375 155.625 197.386719 L 139.222656 206.371094 L 131.535156 204.691406 C 128.070312 203.449219 124.605469 202.257812 121.140625 201.066406 Z M 120.273438 179.195312 C 118.597656 178.710938 117.40625 177.953125 116.703125 177.355469 C 116.753906 177.574219 117.082031 178.65625 116.59375 179.738281 C 115.996094 181.039062 114.753906 181.417969 114.589844 181.46875 C 114.375 181.417969 113.128906 181.253906 112.640625 181.847656 C 112.101562 182.554688 112.53125 184.175781 114.210938 185.476562 C 114.589844 186.179688 115.132812 187.316406 115.292969 188.941406 C 115.457031 190.402344 115.238281 191.59375 115.023438 192.296875 C 115.78125 193.976562 117.460938 194.949219 119.191406 194.785156 C 120.597656 194.625 121.84375 193.648438 122.441406 192.296875 C 123.035156 191.808594 123.957031 190.945312 124.605469 189.644531 C 124.984375 188.886719 125.253906 187.859375 125.199219 183.582031 C 125.199219 182.5 125.144531 181.089844 124.984375 179.359375 C 124.007812 179.574219 122.277344 179.738281 120.273438 179.195312 Z M 300.109375 177.25 C 299.785156 179.304688 299.839844 180.929688 300.003906 182.066406 C 300.21875 184.121094 300.4375 186.449219 302.222656 188.183594 C 302.816406 188.722656 303.414062 189.101562 303.792969 189.265625 L 303.792969 192.027344 L 301.195312 192.027344 C 302.058594 193.8125 303.738281 195.003906 305.6875 195.113281 C 307.851562 195.21875 309.855469 194.027344 310.828125 192.027344 C 310.398438 191.539062 309.800781 190.726562 309.3125 189.589844 C 308.882812 188.453125 308.828125 187.480469 308.773438 186.882812 C 309.746094 185.640625 310.722656 184.394531 311.695312 183.203125 C 312.507812 182.878906 312.886719 181.847656 312.453125 181.144531 C 312.074219 180.386719 311.046875 180.117188 310.289062 180.605469 C 309.367188 180.820312 307.3125 181.199219 304.820312 180.386719 C 302.222656 179.574219 300.707031 177.953125 300.113281 177.25 Z M 108.203125 110.882812 C 110.097656 111.910156 112.640625 113.15625 115.890625 113.914062 C 118.21875 114.507812 120.328125 114.726562 122.113281 114.835938 C 122.546875 114.347656 123.199219 113.589844 123.847656 112.613281 C 126.335938 108.933594 127.042969 105.199219 127.691406 98.8125 C 128.125 94.695312 128.449219 89.664062 128.503906 83.980469 C 128.828125 83.167969 129.316406 81.921875 129.855469 80.40625 C 130.9375 77.320312 130.992188 76.671875 130.722656 76.453125 C 130.503906 76.292969 129.964844 76.183594 128.339844 77.320312 C 128.882812 74.667969 128.71875 72.71875 127.90625 72.394531 C 127.042969 72.070312 125.578125 73.585938 124.875 74.722656 C 122.765625 78.1875 124.550781 82.679688 125.09375 83.925781 C 122.167969 92.800781 119.246094 101.734375 116.269531 110.613281 L 114.265625 107.148438 C 112.261719 108.390625 110.257812 109.636719 108.203125 110.882812 Z M 99.054688 104.222656 C 97.210938 106.445312 95.425781 108.71875 93.585938 110.9375 C 95.695312 112.558594 98.296875 114.402344 101.433594 116.078125 C 104.792969 117.863281 107.878906 119.109375 110.53125 119.976562 C 112.910156 120.515625 115.671875 120.949219 118.703125 121.164062 C 126.554688 121.597656 133.644531 119.757812 138.464844 118.1875 C 140.304688 118.460938 143.28125 118.566406 146.636719 117.433594 C 147.9375 117 150.699219 115.808594 150.535156 115.105469 C 150.425781 114.617188 149.074219 114.132812 142.847656 114.453125 C 143.335938 111.75 143.121094 111.046875 142.847656 110.9375 C 142.46875 110.777344 141.875 111.75 140.628906 112.886719 C 139.4375 113.96875 138.246094 114.671875 137.382812 115.105469 C 135.378906 115.214844 132.453125 115.265625 128.9375 115.214844 C 123.683594 115.160156 120.976562 115.105469 117.730469 114.453125 C 115.402344 113.96875 112.046875 113.046875 108.09375 110.9375 Z M 97.917969 80.570312 C 96.183594 79.972656 95.101562 78.945312 94.613281 78.402344 C 94.832031 80.40625 94.019531 82.136719 92.664062 82.679688 C 92.394531 82.789062 91.800781 82.949219 91.042969 82.84375 C 90.933594 82.898438 89.851562 83.328125 89.632812 84.25 C 89.363281 85.277344 90.175781 86.632812 91.691406 87.011719 C 91.851562 88.039062 91.90625 89.339844 91.746094 90.855469 C 91.582031 92.207031 91.3125 93.34375 91.042969 94.210938 C 92.015625 96.050781 93.964844 97.078125 95.804688 96.703125 C 97.863281 96.320312 98.78125 94.425781 98.890625 94.210938 L 98.890625 91.503906 C 99.59375 91.289062 100.675781 90.800781 101.542969 89.714844 C 102.570312 88.417969 102.679688 86.957031 102.734375 84.953125 C 102.789062 83.925781 102.789062 82.464844 102.464844 80.675781 C 101.761719 80.894531 99.972656 81.273438 97.917969 80.570312 Z M 248.683594 192.621094 L 248.683594 155.976562 C 248.683594 153.863281 247.003906 152.183594 244.894531 152.183594 L 159.683594 152.183594 C 157.574219 152.183594 155.894531 153.863281 155.894531 155.976562 L 155.894531 192.621094 C 155.894531 194.734375 157.574219 196.410156 159.683594 196.410156 L 244.839844 196.410156 C 246.949219 196.410156 248.683594 194.734375 248.683594 192.621094 Z M 140.738281 205.289062 L 136.242188 203.230469 L 132.726562 204.800781 L 139.167969 206.371094 Z M 154.757812 197.816406 L 155.894531 191.160156 L 157.789062 183.851562 L 157.898438 182.011719 L 157.300781 182.121094 L 155.679688 184.230469 L 156.164062 178.492188 L 155.300781 177.679688 L 153.621094 180.820312 L 152.59375 184.71875 L 152.808594 190.402344 L 150.425781 196.300781 L 148.53125 200.957031 Z M 104.035156 240.09375 L 111.722656 261.585938 L 101.003906 309.273438 L 109.175781 310.683594 L 118.648438 283.5625 L 125.632812 310.683594 L 133.808594 309.980469 L 126.335938 258.988281 L 132.671875 237.550781 Z M 106.089844 310.140625 L 102.03125 309.4375 L 98.457031 319.507812 L 104.035156 319.507812 L 106.46875 310.195312 M 126.554688 310.628906 L 127.960938 319.125 L 133.863281 319.125 L 131.96875 310.195312 Z M 295.078125 235.925781 L 297.132812 277.121094 L 304.007812 309.113281 L 312.453125 308.355469 L 311.75 279.664062 L 331.835938 307.597656 L 338.492188 303.429688 L 325.339844 280.640625 L 319.816406 259.257812 L 319.222656 239.878906 Z M 94.558594 216.167969 L 94.558594 224.125 L 98.726562 224.125 L 99.484375 216.167969 Z M 88.820312 216.167969 L 87.957031 224.125 L 83.136719 224.125 L 83.136719 216.167969 L 88.820312 216.167969 " fill-opacity="1" fill-rule="nonzero"/><path fill="#0f0e0c" d="M 98.402344 223.800781 L 94.9375 223.800781 L 94.9375 216.601562 L 99.105469 216.601562 Z M 87.628906 223.800781 L 83.460938 223.800781 L 83.460938 216.601562 L 88.386719 216.601562 Z M 108.742188 139.195312 C 108.527344 139.195312 108.363281 139.300781 108.363281 139.519531 L 105.277344 179.25 L 99.972656 215.898438 L 93.746094 215.898438 L 93.746094 191.539062 L 95.96875 175.40625 L 96.832031 158.734375 C 96.832031 158.519531 96.671875 158.355469 96.507812 158.355469 C 96.292969 158.355469 96.128906 158.519531 96.128906 158.679688 L 95.265625 175.300781 L 89.6875 215.898438 L 82.324219 215.898438 L 82.324219 181.144531 L 81.566406 144.175781 C 81.566406 143.957031 81.40625 143.847656 81.1875 143.796875 C 80.972656 143.796875 80.808594 143.957031 80.808594 144.175781 L 81.566406 181.144531 L 81.566406 216.277344 C 81.566406 216.492188 81.730469 216.65625 81.945312 216.65625 L 82.757812 216.65625 L 82.757812 224.234375 C 82.757812 224.449219 82.921875 224.613281 83.136719 224.613281 L 87.957031 224.613281 C 88.117188 224.613281 88.28125 224.449219 88.335938 224.289062 L 89.199219 216.65625 L 90.066406 216.65625 C 90.230469 216.65625 90.390625 216.546875 90.445312 216.332031 L 93.097656 196.898438 L 93.097656 216.277344 C 93.097656 216.492188 93.261719 216.65625 93.476562 216.65625 L 94.289062 216.65625 L 94.289062 224.234375 C 94.289062 224.449219 94.453125 224.613281 94.667969 224.613281 L 98.835938 224.613281 C 99 224.613281 99.160156 224.449219 99.214844 224.289062 L 99.972656 216.65625 L 100.40625 216.65625 C 100.570312 216.65625 100.730469 216.546875 100.785156 216.332031 L 106.144531 179.359375 L 109.230469 139.628906 C 109.066406 139.410156 108.90625 139.195312 108.742188 139.195312 " fill-opacity="1" fill-rule="nonzero"/><path fill="#ffbd59" d="M 261.835938 276.851562 L 181.554688 276.851562 L 181.554688 289.84375 L 261.835938 289.84375 Z M 249.65625 296.878906 L 239.261719 296.878906 L 239.261719 325.675781 L 248.953125 325.675781 L 297.675781 324.757812 L 297.675781 296.878906 Z M 238.34375 290.925781 L 299.515625 290.925781 L 299.515625 295.417969 L 238.34375 295.417969 L 238.34375 290.925781 " fill-opacity="1" fill-rule="nonzero"/><path fill="#0f0e0c" d="M 200.015625 102.277344 L 196.117188 71.261719 C 195.792969 68.769531 193.519531 67.039062 191.082031 67.363281 L 128.988281 75.160156 C 128.988281 75.644531 128.9375 76.132812 128.828125 76.675781 C 129.855469 76.078125 130.558594 75.914062 130.9375 76.292969 C 131.425781 76.675781 131.371094 77.269531 130.179688 80.625 C 129.746094 81.816406 129.316406 83.007812 128.882812 84.144531 C 128.828125 89.070312 128.558594 94.050781 128.070312 98.921875 C 127.421875 105.417969 126.664062 109.152344 124.171875 112.886719 C 123.792969 113.484375 123.359375 114.023438 122.871094 114.621094 C 124.550781 114.726562 126.445312 114.726562 129.097656 114.78125 C 131.914062 114.835938 134.726562 114.78125 137.433594 114.675781 C 138.570312 114.132812 139.601562 113.375 140.519531 112.5625 C 140.953125 112.128906 141.332031 111.75 141.65625 111.425781 C 142.253906 110.777344 142.632812 110.34375 143.121094 110.558594 C 143.605469 110.722656 143.824219 111.425781 143.445312 113.96875 L 196.171875 107.3125 C 197.363281 107.148438 198.445312 106.554688 199.148438 105.578125 C 199.851562 104.660156 200.175781 103.46875 200.015625 102.277344 Z M 199.691406 106.066406 C 198.824219 107.148438 197.578125 107.851562 196.226562 108.070312 L 148.75 114.078125 C 150.644531 114.242188 150.96875 114.621094 151.023438 115.054688 C 151.238281 116.136719 148.53125 117.21875 146.910156 117.816406 C 144.308594 118.730469 141.496094 119.003906 138.625 118.625 C 132.347656 120.679688 126.664062 121.65625 121.195312 121.65625 C 120.382812 121.65625 119.570312 121.65625 118.757812 121.601562 C 115.996094 121.4375 113.238281 121.058594 110.476562 120.410156 C 107.28125 119.382812 104.195312 118.03125 101.273438 116.460938 C 98.511719 114.945312 95.859375 113.214844 93.367188 111.265625 C 93.207031 111.15625 93.207031 110.9375 93.316406 110.777344 C 93.421875 110.613281 93.640625 110.613281 93.800781 110.722656 C 96.238281 112.617188 98.890625 114.347656 101.597656 115.808594 C 104.464844 117.382812 107.550781 118.679688 110.636719 119.707031 C 113.289062 120.300781 115.996094 120.679688 118.757812 120.84375 C 124.820312 121.167969 131.261719 120.195312 138.410156 117.867188 L 138.570312 117.867188 C 141.386719 118.246094 144.09375 117.976562 146.582031 117.109375 C 148.695312 116.351562 150.210938 115.488281 150.265625 115.160156 C 150.210938 115.054688 149.507812 114.511719 142.957031 114.835938 C 142.847656 114.835938 142.742188 114.78125 142.6875 114.726562 C 142.632812 114.675781 142.632812 114.621094 142.632812 114.511719 L 142.632812 114.402344 C 143.011719 112.183594 142.902344 111.535156 142.847656 111.320312 C 142.6875 111.425781 142.414062 111.699219 142.199219 111.96875 C 141.875 112.292969 141.496094 112.726562 141.007812 113.160156 C 140.035156 114.078125 138.898438 114.835938 137.652344 115.429688 C 137.597656 115.429688 137.542969 115.488281 137.488281 115.488281 C 134.675781 115.59375 131.859375 115.648438 128.988281 115.59375 C 123.902344 115.539062 121.085938 115.488281 117.730469 114.78125 C 114.425781 114.078125 111.125 112.886719 107.984375 111.210938 L 98.78125 104.550781 C 98.621094 104.441406 98.566406 104.226562 98.726562 104.0625 C 98.835938 103.902344 99.054688 103.847656 99.214844 104.011719 L 108.363281 110.667969 C 111.394531 112.292969 114.589844 113.429688 117.839844 114.132812 C 119.191406 114.402344 120.4375 114.566406 121.84375 114.675781 C 122.441406 114.027344 122.925781 113.320312 123.414062 112.617188 C 125.851562 108.992188 126.554688 105.308594 127.203125 98.976562 C 127.691406 94.105469 127.960938 89.125 128.015625 84.199219 L 128.015625 84.089844 C 128.503906 82.953125 128.9375 81.761719 129.367188 80.570312 C 129.695312 79.703125 130.503906 77.324219 130.34375 76.996094 C 130.34375 76.996094 129.964844 76.835938 128.394531 77.917969 C 128.285156 78.027344 128.125 78.027344 128.015625 77.917969 C 127.90625 77.808594 127.851562 77.703125 127.851562 77.539062 C 128.394531 74.886719 128.125 73.207031 127.636719 72.992188 C 127.148438 72.777344 125.851562 73.859375 125.039062 75.210938 C 123.089844 78.296875 124.550781 82.464844 125.253906 84.089844 C 125.308594 84.199219 125.308594 84.253906 125.253906 84.359375 L 116.648438 110.886719 C 116.59375 110.992188 116.484375 111.101562 116.320312 111.15625 C 116.160156 111.15625 116.050781 111.101562 115.996094 110.992188 L 113.996094 107.53125 C 113.886719 107.367188 113.941406 107.148438 114.101562 107.039062 C 114.265625 106.933594 114.480469 106.988281 114.589844 107.148438 L 116.214844 109.910156 L 124.714844 84.089844 C 124.007812 82.464844 122.820312 78.949219 124.007812 75.863281 L 107.28125 77.917969 C 106.578125 78.027344 105.875 78.296875 105.277344 78.675781 C 105.222656 78.730469 105.171875 78.730469 105.0625 78.730469 C 104.953125 78.730469 104.84375 78.675781 104.792969 78.570312 C 104.683594 78.40625 104.738281 78.1875 104.898438 78.082031 C 105.601562 77.59375 106.414062 77.269531 107.226562 77.160156 L 123.957031 75.050781 C 124.117188 75.050781 124.226562 75.101562 124.28125 75.210938 C 124.386719 74.996094 124.496094 74.832031 124.605469 74.617188 C 125.363281 73.425781 126.933594 71.691406 128.070312 72.125 C 128.664062 72.34375 128.988281 73.15625 129.042969 74.398438 L 190.976562 66.660156 C 193.84375 66.28125 196.441406 68.335938 196.820312 71.207031 L 200.71875 102.222656 C 200.933594 103.578125 200.554688 104.929688 199.691406 106.066406 Z M 89.957031 84.359375 C 89.742188 85.226562 90.445312 86.363281 91.800781 86.6875 C 91.960938 86.742188 92.015625 86.851562 92.070312 87.011719 C 92.230469 88.3125 92.285156 89.667969 92.125 90.964844 C 92.015625 92.15625 91.746094 93.292969 91.421875 94.375 C 91.367188 94.539062 91.203125 94.644531 91.09375 94.644531 L 90.988281 94.644531 C 90.769531 94.589844 90.714844 94.375 90.769531 94.210938 C 91.09375 93.128906 91.367188 92.046875 91.472656 90.910156 C 91.582031 89.71875 91.582031 88.527344 91.421875 87.390625 C 89.851562 86.851562 89.039062 85.335938 89.308594 84.253906 C 89.578125 83.171875 90.714844 82.683594 90.988281 82.574219 C 91.042969 82.574219 91.09375 82.519531 91.203125 82.574219 C 91.746094 82.683594 92.230469 82.628906 92.664062 82.464844 C 93.855469 81.976562 94.558594 80.355469 94.398438 78.570312 C 94.398438 78.40625 94.453125 78.242188 94.613281 78.1875 C 94.777344 78.136719 94.9375 78.136719 95.046875 78.296875 C 95.644531 78.949219 96.671875 79.8125 98.1875 80.355469 C 100.082031 81.003906 101.707031 80.734375 102.570312 80.515625 C 102.679688 80.515625 102.789062 80.515625 102.84375 80.570312 C 102.949219 80.625 103.003906 80.734375 103.003906 80.789062 C 103.222656 81.976562 103.328125 83.117188 103.328125 84.304688 C 103.546875 84.304688 103.707031 84.414062 103.707031 84.632812 L 105.0625 95.351562 C 105.0625 95.566406 104.953125 95.726562 104.738281 95.726562 L 104.683594 95.726562 C 104.519531 95.726562 104.359375 95.621094 104.304688 95.402344 L 103.167969 86.472656 C 103.058594 87.878906 102.789062 89.070312 101.976562 90.152344 C 101.328125 90.964844 100.460938 91.5625 99.433594 91.992188 L 99.433594 94.429688 C 99.433594 94.644531 99.269531 94.808594 99.054688 94.808594 C 98.835938 94.808594 98.675781 94.644531 98.675781 94.429688 L 98.675781 91.722656 C 98.675781 91.5625 98.78125 91.449219 98.945312 91.398438 C 99.972656 91.070312 100.839844 90.476562 101.433594 89.71875 C 102.410156 88.472656 102.464844 87.066406 102.570312 85.117188 C 102.625 83.871094 102.570312 82.574219 102.355469 81.277344 C 101.382812 81.492188 99.757812 81.65625 97.96875 81.058594 C 96.78125 80.679688 95.859375 80.03125 95.210938 79.433594 C 95.15625 81.167969 94.34375 82.628906 93.042969 83.171875 C 92.503906 83.386719 91.90625 83.441406 91.3125 83.332031 C 90.824219 83.332031 90.121094 83.65625 89.957031 84.359375 " fill-opacity="1" fill-rule="nonzero"/><path fill="#0f0e0c" d="M 328.425781 253.140625 C 331.507812 253.574219 334.054688 256.117188 334.59375 259.421875 L 320.195312 259.421875 C 320.953125 255.46875 324.632812 252.652344 328.425781 253.140625 Z M 336.761719 259.421875 L 335.300781 259.421875 L 335.300781 259.367188 C 334.703125 255.738281 331.886719 252.871094 328.476562 252.4375 C 324.308594 251.894531 320.25 254.980469 319.4375 259.367188 L 319.4375 259.421875 L 318.136719 259.421875 L 318.136719 262.398438 L 319.761719 262.398438 L 319.761719 280.585938 L 334.921875 280.585938 L 334.921875 262.398438 L 336.761719 262.398438 L 336.761719 259.421875 " fill-opacity="1" fill-rule="nonzero"/><path fill="#0f0e0c" d="M 253.933594 173.839844 L 253.933594 174.324219 C 253.933594 174.757812 253.878906 175.191406 253.824219 175.570312 L 253.824219 175.679688 C 253.664062 175.082031 253.609375 174.433594 253.554688 173.785156 L 253.933594 173.785156 Z M 253.554688 172.972656 C 253.609375 172.375 253.664062 171.726562 253.824219 171.132812 L 253.824219 171.238281 C 253.878906 171.726562 253.933594 172.269531 253.933594 172.753906 L 253.933594 173.082031 L 253.554688 173.082031 Z M 274.179688 173.1875 C 274.179688 171.996094 274.070312 170.753906 273.855469 169.617188 C 273.800781 169.453125 273.691406 169.34375 273.476562 169.34375 L 253.824219 169.34375 C 253.773438 169.34375 253.773438 169.398438 253.71875 169.453125 L 253.664062 169.507812 C 253.175781 170.589844 252.90625 171.78125 252.851562 172.972656 L 252.851562 173.132812 L 252.363281 173.132812 C 252.148438 173.132812 251.984375 173.296875 251.984375 173.511719 C 251.984375 173.730469 252.148438 173.890625 252.363281 173.890625 L 252.851562 173.890625 C 252.90625 175.082031 253.175781 176.328125 253.664062 177.464844 C 253.664062 177.464844 253.664062 177.519531 253.71875 177.519531 L 253.773438 177.574219 L 253.824219 177.628906 C 253.878906 177.679688 253.933594 177.679688 253.988281 177.679688 L 273.476562 177.679688 C 273.640625 177.679688 273.800781 177.574219 273.855469 177.410156 C 274.019531 176.382812 274.179688 175.355469 274.179688 174.324219 C 274.832031 175.191406 275.804688 176.816406 275.371094 178.765625 C 275.261719 179.359375 274.992188 179.953125 274.613281 180.550781 C 274.179688 181.199219 273.421875 181.632812 272.554688 181.632812 L 265.300781 181.6875 C 264.113281 181.6875 263.191406 182.605469 263.136719 183.796875 L 263.082031 188.128906 L 262.324219 188.128906 L 262.324219 195.113281 L 265.03125 195.113281 L 265.03125 188.128906 L 263.785156 188.128906 L 263.839844 183.796875 C 263.839844 182.984375 264.492188 182.390625 265.25 182.390625 L 272.503906 182.335938 C 273.585938 182.335938 274.558594 181.796875 275.15625 180.929688 C 275.589844 180.28125 275.859375 179.628906 276.019531 178.925781 C 276.671875 175.894531 274.667969 173.675781 274.179688 173.1875 " fill-opacity="1" fill-rule="nonzero"/><path fill="#0f0e0c" d="M 297.296875 290.222656 L 247.492188 290.222656 L 247.492188 294.011719 L 297.296875 294.011719 Z M 295.511719 294.714844 L 247.492188 294.714844 L 247.492188 322.753906 L 295.511719 321.832031 Z M 246.734375 290.222656 L 236.882812 290.222656 L 236.882812 294.011719 L 246.734375 294.011719 Z M 246.734375 294.714844 L 237.746094 294.714844 L 237.746094 322.808594 L 246.734375 322.808594 Z M 298.054688 289.84375 L 298.054688 294.335938 C 298.054688 294.550781 297.890625 294.714844 297.675781 294.714844 L 296.214844 294.714844 L 296.214844 322.210938 C 296.214844 322.429688 296.050781 322.589844 295.835938 322.589844 L 247.113281 323.511719 L 237.367188 323.511719 C 237.152344 323.511719 236.988281 323.347656 236.988281 323.132812 L 236.988281 322.105469 L 174.03125 322.105469 C 168.78125 322.105469 164.503906 317.828125 164.503906 312.578125 L 164.503906 197.386719 C 164.503906 197.167969 164.664062 197.007812 164.882812 197.007812 C 165.097656 197.007812 165.261719 197.167969 165.261719 197.386719 L 165.261719 312.632812 C 165.261719 317.503906 169.210938 321.453125 174.085938 321.453125 L 237.042969 321.453125 L 237.042969 300.289062 L 172.515625 300.289062 C 172.296875 300.289062 172.136719 300.125 172.136719 299.910156 L 172.136719 196.410156 C 172.136719 196.195312 172.296875 196.03125 172.515625 196.03125 C 172.730469 196.03125 172.894531 196.195312 172.894531 196.410156 L 172.894531 299.585938 L 237.042969 299.585938 L 237.042969 294.769531 L 236.554688 294.769531 C 236.339844 294.769531 236.175781 294.605469 236.175781 294.390625 L 236.175781 289.894531 C 236.175781 289.679688 236.339844 289.515625 236.554688 289.515625 L 271.417969 289.515625 L 271.417969 204.53125 C 271.582031 204.691406 271.796875 204.746094 272.070312 204.746094 L 272.125 204.746094 L 272.125 289.515625 L 297.730469 289.515625 C 297.890625 289.515625 298.054688 289.679688 298.054688 289.839844 Z M 164.503906 128.097656 L 164.503906 151.804688 C 164.503906 152.023438 164.664062 152.183594 164.882812 152.183594 C 165.097656 152.183594 165.261719 152.023438 165.261719 151.804688 L 165.261719 128.097656 C 165.261719 123.226562 169.210938 119.273438 174.085938 119.273438 L 270.230469 119.273438 C 275.101562 119.273438 279.050781 123.226562 279.050781 128.097656 L 279.050781 201.066406 C 279.050781 201.28125 279.214844 201.445312 279.429688 201.445312 C 279.648438 201.445312 279.8125 201.28125 279.8125 201.066406 L 279.8125 128.097656 C 279.8125 122.847656 275.535156 118.570312 270.28125 118.570312 L 174.03125 118.570312 C 168.78125 118.570312 164.503906 122.847656 164.503906 128.097656 Z M 279.703125 209.671875 L 279.703125 288.757812 C 279.703125 288.976562 279.539062 289.136719 279.324219 289.136719 C 279.105469 289.136719 278.945312 288.976562 278.945312 288.757812 L 278.945312 209.671875 C 278.945312 209.457031 279.105469 209.292969 279.324219 209.292969 C 279.539062 209.292969 279.703125 209.457031 279.703125 209.671875 " fill-opacity="1" fill-rule="nonzero"/><path fill="#0f0e0c" d="M 233.578125 176.816406 C 233.578125 177.410156 233.09375 177.898438 232.496094 177.898438 L 191.894531 177.898438 C 191.300781 177.898438 190.8125 177.410156 190.8125 176.816406 C 190.8125 176.21875 191.300781 175.734375 191.894531 175.734375 L 232.496094 175.734375 C 233.09375 175.734375 233.578125 176.21875 233.578125 176.816406 Z M 229.300781 311.277344 C 229.300781 314.957031 226.324219 317.9375 222.644531 317.9375 C 218.960938 317.9375 215.984375 314.957031 215.984375 311.277344 C 215.984375 307.597656 218.960938 304.621094 222.644531 304.621094 C 226.324219 304.621094 229.300781 307.597656 229.300781 311.277344 Z M 233.578125 184.554688 L 233.578125 184.882812 C 233.578125 185.367188 233.144531 185.800781 232.660156 185.800781 L 191.734375 185.800781 C 191.246094 185.800781 190.8125 185.367188 190.8125 184.882812 L 190.8125 184.554688 C 190.8125 184.070312 191.246094 183.636719 191.734375 183.636719 L 232.660156 183.636719 C 233.144531 183.636719 233.578125 184.070312 233.578125 184.554688 Z M 233.578125 169.617188 C 233.578125 170.210938 233.09375 170.699219 232.496094 170.699219 L 191.894531 170.699219 C 191.300781 170.699219 190.8125 170.210938 190.8125 169.617188 C 190.8125 169.019531 191.300781 168.53125 191.894531 168.53125 L 232.496094 168.53125 C 233.09375 168.53125 233.578125 169.019531 233.578125 169.617188 Z M 306.609375 308.894531 L 311.804688 308.410156 L 311.804688 321.832031 L 297.835938 321.832031 C 297.730469 321.5625 297.621094 321.128906 297.785156 320.75 C 298.214844 319.558594 300.273438 319.558594 303.035156 318.855469 C 304.117188 318.585938 305.578125 318.152344 307.3125 317.449219 C 307.09375 314.527344 306.824219 311.710938 306.609375 308.894531 Z M 344.609375 314.199219 L 338.492188 322.265625 L 331.996094 322.265625 C 332.105469 321.886719 332.265625 321.347656 332.648438 320.75 C 333.621094 319.125 334.921875 318.746094 335.839844 317.828125 C 336.652344 317.070312 337.519531 315.769531 337.625 313.0625 C 336.058594 311.007812 334.488281 308.949219 332.917969 306.839844 C 334.488281 305.863281 336.058594 304.835938 337.625 303.863281 C 339.953125 307.328125 342.28125 310.738281 344.609375 314.199219 Z M 162.230469 161.117188 L 183.558594 161.117188 L 183.558594 186.34375 L 162.230469 186.34375 Z M 272.125 133.183594 L 272.125 200.09375 C 271.960938 199.875 271.746094 199.710938 271.417969 199.710938 L 271.417969 142.605469 L 172.894531 142.605469 L 172.894531 152.132812 C 172.894531 152.347656 172.730469 152.511719 172.515625 152.511719 C 172.296875 152.511719 172.136719 152.347656 172.136719 152.132812 L 172.136719 133.132812 C 172.136719 132.914062 172.296875 132.753906 172.515625 132.753906 L 271.746094 132.753906 C 271.960938 132.804688 272.125 132.96875 272.125 133.183594 Z M 330.96875 212.703125 C 330.265625 213.734375 329.074219 215.355469 327.015625 216.386719 C 324.90625 211.242188 323.605469 206.914062 322.792969 203.773438 C 321.546875 198.847656 320.898438 194.734375 317.597656 192.839844 C 315.863281 191.863281 314.078125 191.863281 312.886719 191.972656 L 311.046875 191.972656 C 310.613281 191.484375 310.019531 190.671875 309.53125 189.535156 C 309.097656 188.398438 309.042969 187.425781 308.988281 186.828125 C 309.964844 185.585938 310.9375 184.339844 311.914062 183.148438 C 312.726562 182.824219 313.105469 181.796875 312.671875 181.089844 C 312.292969 180.332031 311.261719 180.0625 310.503906 180.550781 C 309.585938 180.765625 307.527344 181.144531 305.039062 180.332031 C 302.4375 179.523438 300.871094 177.898438 300.273438 177.195312 C 299.949219 179.25 300.003906 180.875 300.164062 182.011719 C 300.382812 184.070312 300.597656 186.398438 302.386719 188.128906 C 302.980469 188.671875 303.574219 189.050781 303.953125 189.210938 L 303.953125 191.972656 L 301.355469 191.972656 C 301.140625 191.972656 300.871094 191.917969 300.652344 191.917969 C 300.382812 192.296875 300.109375 192.730469 299.839844 193.21875 C 299.679688 192.945312 299.515625 192.675781 299.351562 192.40625 L 299.191406 192.082031 C 298.757812 190.945312 298.269531 189.480469 298.054688 187.804688 C 297.621094 184.554688 298.269531 181.902344 298.757812 180.28125 C 297.132812 178.167969 296.59375 175.679688 297.566406 173.730469 C 297.730469 173.460938 298.378906 172.105469 299.730469 171.617188 C 301.03125 171.1875 302.007812 171.835938 303.902344 172.429688 C 308.230469 173.839844 309.640625 172.648438 311.261719 174.054688 C 311.96875 174.703125 312.886719 175.949219 312.886719 178.816406 C 314.402344 179.414062 316.570312 180.550781 318.410156 182.605469 C 321.117188 185.691406 320.359375 187.859375 322.308594 190.945312 C 325.664062 196.140625 330.535156 194.027344 333.078125 198.46875 C 335.785156 203.125 333.132812 209.566406 330.96875 212.703125 Z M 191.679688 163.28125 C 191.191406 163.28125 190.8125 162.902344 190.8125 162.417969 C 190.8125 161.929688 191.191406 161.550781 191.679688 161.550781 L 217.285156 161.550781 C 217.773438 161.550781 218.152344 161.929688 218.152344 162.417969 C 218.152344 162.902344 217.773438 163.28125 217.285156 163.28125 Z M 140.035156 81.921875 C 139.980469 81.433594 140.304688 81.003906 140.792969 80.949219 L 166.179688 77.753906 C 166.667969 77.699219 167.101562 78.027344 167.15625 78.511719 C 167.210938 79 166.882812 79.433594 166.398438 79.488281 L 141.007812 82.679688 C 140.574219 82.734375 140.140625 82.355469 140.035156 81.921875 Z M 141.875 87.878906 L 182.152344 82.84375 C 182.746094 82.789062 183.289062 83.167969 183.339844 83.761719 C 183.394531 84.359375 183.015625 84.898438 182.421875 84.953125 L 142.144531 89.988281 C 141.550781 90.042969 141.007812 89.664062 140.953125 89.066406 C 140.898438 88.472656 141.332031 87.929688 141.875 87.878906 Z M 143.929688 323.242188 L 127.960938 323.242188 L 127.960938 319.074219 L 133.863281 319.074219 C 136.460938 319.722656 138.519531 320.261719 140.195312 320.640625 C 140.683594 320.75 141.550781 320.914062 142.46875 321.617188 C 143.171875 322.160156 143.660156 322.808594 143.929688 323.242188 Z M 184.261719 90.910156 C 184.316406 91.503906 183.9375 92.046875 183.339844 92.101562 L 143.066406 97.132812 C 142.46875 97.1875 141.929688 96.808594 141.875 96.214844 C 141.820312 95.621094 142.199219 95.078125 142.792969 95.023438 L 183.070312 89.988281 C 183.667969 89.878906 184.207031 90.3125 184.261719 90.910156 Z M 184.207031 97.785156 C 184.695312 97.730469 185.183594 98.054688 185.238281 98.597656 L 185.289062 98.921875 C 185.34375 99.410156 185.019531 99.894531 184.476562 99.949219 L 143.878906 105.039062 C 143.390625 105.09375 142.902344 104.765625 142.847656 104.226562 L 142.792969 103.898438 C 142.742188 103.414062 143.066406 102.925781 143.605469 102.871094 Z M 113.996094 323.242188 L 97.96875 323.242188 L 98.511719 319.507812 L 104.035156 319.507812 C 105.550781 320.046875 106.847656 320.320312 107.714844 320.480469 C 109.824219 320.804688 110.910156 320.644531 112.207031 321.457031 C 113.128906 321.996094 113.667969 322.753906 113.996094 323.242188 Z M 128.449219 179.902344 C 127.257812 181.039062 125.472656 180.769531 125.199219 180.714844 C 125.199219 180.28125 125.144531 179.847656 125.09375 179.414062 C 124.171875 179.578125 122.441406 179.738281 120.382812 179.144531 C 118.703125 178.65625 117.511719 177.898438 116.808594 177.304688 C 116.863281 177.519531 117.1875 178.550781 116.703125 179.6875 C 116.105469 180.984375 114.859375 181.363281 114.699219 181.417969 C 114.480469 181.363281 113.238281 181.203125 112.75 181.796875 C 112.207031 182.5 112.640625 184.125 114.320312 185.421875 C 114.589844 185.910156 114.96875 186.667969 115.183594 187.644531 C 114.480469 187.265625 112.207031 185.964844 111.125 183.257812 C 109.988281 180.445312 110.257812 176.601562 112.371094 174.8125 C 114.210938 173.246094 115.726562 174.761719 120.542969 172.867188 C 122.007812 172.269531 122.65625 171.835938 123.902344 171.890625 C 124.0625 171.890625 127.09375 172.054688 128.503906 174.597656 C 129.261719 176.003906 129.910156 178.496094 128.449219 179.902344 Z M 88.496094 87.609375 C 86.007812 84.683594 84.976562 79.433594 87.359375 77.375 C 87.738281 77.050781 88.820312 76.242188 91.3125 76.511719 C 92.609375 73.804688 95.265625 72.074219 97.96875 72.125 C 101.003906 72.179688 103.871094 74.5625 104.738281 77.863281 C 104.898438 78.40625 105.007812 79 105.007812 79.597656 C 104.25 80.515625 103.492188 81.4375 102.789062 82.304688 C 102.734375 81.761719 102.679688 81.21875 102.570312 80.570312 C 101.867188 80.785156 100.082031 81.113281 98.023438 80.40625 C 96.292969 79.8125 95.210938 78.785156 94.722656 78.242188 C 94.9375 80.246094 94.125 81.976562 92.773438 82.519531 C 92.503906 82.628906 91.90625 82.789062 91.148438 82.679688 C 91.042969 82.738281 89.957031 83.171875 89.742188 84.089844 C 89.472656 85.117188 90.285156 86.46875 91.800781 86.847656 C 91.90625 87.660156 92.015625 88.691406 91.90625 89.882812 C 91.042969 89.71875 89.632812 89.015625 88.496094 87.609375 Z M 107.550781 226.402344 C 106.632812 225.589844 105.496094 225.644531 104.085938 225.480469 C 102.734375 225.371094 100.839844 225.046875 98.457031 224.183594 L 94.179688 224.183594 L 94.179688 225.644531 C 93.695312 225.589844 93.207031 225.535156 92.609375 225.480469 C 91.257812 225.371094 89.363281 225.046875 87.035156 224.183594 L 82.757812 224.183594 L 82.757812 229.109375 L 108.6875 229.109375 C 108.636719 228.296875 108.417969 227.160156 107.550781 226.402344 Z M 315.703125 206.210938 C 317.054688 209.835938 318.464844 213.464844 319.816406 217.089844 C 318.515625 216.984375 316.839844 216.710938 314.945312 216.171875 C 314.671875 214.816406 314.511719 213.140625 314.671875 211.136719 C 314.835938 209.132812 315.269531 207.457031 315.703125 206.210938 " fill-opacity="1" fill-rule="nonzero"/><path fill="#0f0e0c" d="M 248.304688 190.996094 C 248.304688 193.757812 246.03125 196.03125 243.269531 196.03125 L 168.128906 196.03125 C 169.96875 195.164062 169.863281 194.839844 169.808594 194.570312 C 169.699219 194.136719 169.589844 193.542969 162.609375 194.40625 C 163.3125 192.675781 163.417969 191.753906 162.878906 191.375 C 162.335938 190.996094 161.308594 191.214844 157.734375 194.570312 C 156.761719 193.597656 156.164062 192.351562 156.164062 190.945312 C 156.164062 190.78125 156.058594 190.671875 155.949219 190.617188 C 156.328125 189.429688 156.707031 188.238281 157.085938 187.046875 C 158.277344 182.878906 158.492188 181.796875 157.84375 181.46875 C 157.519531 181.308594 157.140625 181.363281 155.894531 183.039062 C 156.273438 179.847656 156.273438 178.4375 156.113281 177.789062 C 156.164062 177.734375 156.164062 177.679688 156.164062 177.574219 L 156.164062 157.382812 C 156.164062 154.621094 158.441406 152.347656 161.199219 152.347656 L 243.160156 152.347656 C 245.921875 152.347656 248.195312 154.621094 248.195312 157.382812 L 248.195312 190.996094 Z M 155.355469 197.113281 L 155.027344 197.277344 L 155.734375 192.40625 C 156.003906 193.433594 156.542969 194.40625 157.300781 195.164062 C 156.707031 195.707031 156.058594 196.355469 155.355469 197.113281 Z M 149.183594 200.472656 L 153.1875 190.617188 C 153.1875 190.566406 153.242188 190.457031 153.1875 190.402344 C 152.699219 188.128906 152.699219 185.855469 153.1875 183.636719 C 153.785156 180.929688 154.976562 178.546875 155.515625 178.113281 C 155.625 178.4375 155.734375 179.738281 155.082031 184.554688 C 155.082031 184.71875 155.136719 184.882812 155.300781 184.933594 C 155.460938 184.988281 155.625 184.933594 155.734375 184.773438 C 156.761719 183.203125 157.300781 182.554688 157.574219 182.335938 C 157.519531 183.148438 156.921875 185.367188 156.492188 186.882812 C 156.113281 188.183594 155.679688 189.480469 155.246094 190.835938 L 154.269531 197.65625 Z M 243.269531 151.804688 L 161.308594 151.804688 C 158.113281 151.804688 155.570312 154.40625 155.570312 157.542969 L 155.570312 177.355469 C 155.460938 177.355469 155.355469 177.410156 155.246094 177.464844 C 154.378906 178.007812 153.082031 180.875 152.539062 183.472656 C 152.050781 185.691406 152.050781 188.019531 152.539062 190.402344 L 148.261719 200.957031 L 140.792969 205.019531 L 136.675781 203.175781 C 136.515625 203.125 136.296875 203.175781 136.191406 203.339844 C 136.082031 203.503906 136.191406 203.71875 136.351562 203.828125 L 139.980469 205.449219 L 139.167969 205.882812 L 131.644531 204.261719 L 121.304688 200.6875 C 121.085938 200.632812 120.921875 200.742188 120.871094 200.902344 C 120.816406 201.066406 120.921875 201.28125 121.085938 201.335938 L 131.480469 204.910156 L 139.167969 206.585938 C 139.277344 206.585938 139.328125 206.585938 139.4375 206.535156 L 155.839844 197.546875 C 155.894531 197.546875 155.894531 197.492188 155.949219 197.492188 C 161.472656 191.808594 162.5 191.808594 162.609375 191.863281 C 162.609375 191.863281 162.878906 192.242188 161.851562 194.625 C 161.796875 194.734375 161.796875 194.894531 161.902344 195.003906 C 161.957031 195.113281 162.121094 195.164062 162.230469 195.164062 C 167.101562 194.515625 168.671875 194.625 169.105469 194.679688 C 168.832031 194.894531 168.128906 195.273438 166.34375 195.976562 C 164.773438 196.574219 162.445312 197.4375 158.820312 198.574219 C 158.710938 198.628906 158.65625 198.683594 158.601562 198.738281 C 156.707031 202.09375 153.242188 206.804688 147.558594 210.105469 C 145.339844 211.40625 141.65625 213.570312 136.839844 213.570312 C 135.59375 213.570312 134.402344 213.40625 132.941406 213.246094 C 132.5625 213.191406 132.128906 213.136719 131.695312 213.082031 C 129.097656 212.757812 126.5 212.21875 123.957031 211.460938 C 120.652344 210.484375 117.460938 209.132812 114.425781 207.453125 C 114.265625 207.34375 114.046875 207.398438 113.941406 207.617188 C 113.832031 207.777344 113.886719 207.996094 114.101562 208.101562 C 117.1875 209.835938 120.4375 211.1875 123.738281 212.21875 C 126.285156 212.976562 128.9375 213.515625 131.589844 213.839844 C 132.023438 213.894531 132.402344 213.949219 132.78125 214.003906 C 134.1875 214.164062 135.433594 214.328125 136.675781 214.328125 L 136.730469 214.328125 C 141.765625 214.328125 145.554688 212.109375 147.828125 210.753906 C 153.566406 207.398438 157.140625 202.691406 159.089844 199.28125 C 162.5 198.195312 164.882812 197.332031 166.453125 196.734375 L 243.269531 196.734375 C 246.464844 196.734375 249.007812 194.136719 249.007812 190.996094 L 249.007812 157.542969 C 249.007812 154.40625 246.464844 151.804688 243.269531 151.804688 Z M 112.316406 181.6875 C 112.859375 180.984375 113.996094 181.089844 114.535156 181.144531 C 114.914062 181.039062 115.78125 180.605469 116.269531 179.628906 C 116.703125 178.710938 116.484375 177.84375 116.375 177.464844 C 116.324219 177.300781 116.375 177.140625 116.484375 177.03125 C 116.59375 176.921875 116.808594 176.921875 116.917969 177.03125 C 117.945312 177.84375 119.136719 178.4375 120.382812 178.765625 C 121.84375 179.195312 123.414062 179.25 124.929688 179.035156 C 125.039062 179.035156 125.144531 179.035156 125.199219 179.089844 C 125.253906 179.144531 125.308594 179.25 125.363281 179.359375 C 125.472656 180.765625 125.523438 182.226562 125.578125 183.636719 C 125.632812 187.964844 125.308594 189.050781 124.929688 189.859375 C 124.441406 190.945312 123.683594 191.863281 122.710938 192.675781 C 122.546875 192.785156 122.332031 192.785156 122.222656 192.621094 C 122.113281 192.460938 122.113281 192.242188 122.277344 192.132812 C 123.199219 191.429688 123.847656 190.566406 124.335938 189.589844 C 124.660156 188.886719 124.929688 187.914062 124.875 183.691406 C 124.875 182.445312 124.820312 181.144531 124.714844 179.847656 C 123.25 180.0625 121.683594 179.953125 120.273438 179.523438 C 119.246094 179.195312 118.21875 178.765625 117.296875 178.167969 C 117.351562 178.65625 117.296875 179.25 116.972656 179.902344 C 116.324219 181.253906 115.078125 181.742188 114.753906 181.847656 L 114.589844 181.847656 C 113.996094 181.742188 113.238281 181.742188 112.964844 182.121094 C 112.585938 182.605469 112.964844 184.070312 114.480469 185.261719 L 114.589844 185.367188 C 115.183594 186.503906 115.617188 187.695312 115.726562 188.941406 C 115.835938 190.132812 115.78125 191.324219 115.457031 192.460938 C 115.402344 192.621094 115.238281 192.730469 115.132812 192.730469 L 115.023438 192.730469 C 114.804688 192.675781 114.699219 192.460938 114.753906 192.296875 C 115.023438 191.214844 115.132812 190.132812 115.023438 189.050781 C 114.914062 187.914062 114.535156 186.828125 113.996094 185.800781 C 112.101562 184.339844 111.667969 182.554688 112.316406 181.6875 Z M 133.429688 318.746094 L 128.285156 318.746094 L 126.988281 310.953125 L 131.644531 310.574219 Z M 108.960938 310.25 L 106.144531 309.761719 L 102.085938 309.058594 L 101.488281 308.949219 L 111.503906 261.910156 L 115.835938 273.765625 L 118.324219 283.453125 Z M 103.761719 319.179688 L 99 319.179688 L 102.300781 309.871094 L 106.089844 310.519531 Z M 134.132812 310.195312 C 134.1875 310.140625 134.242188 310.03125 134.1875 309.925781 L 127.746094 264.832031 L 126.714844 258.988281 L 133.050781 237.605469 C 133.105469 237.386719 132.996094 237.226562 132.78125 237.171875 C 132.5625 237.117188 132.402344 237.226562 132.347656 237.441406 L 126.445312 257.417969 L 123.414062 240.039062 C 123.359375 239.824219 123.199219 239.714844 122.980469 239.769531 C 122.765625 239.824219 122.65625 239.988281 122.710938 240.203125 L 127.042969 264.996094 L 133.429688 309.707031 L 131.914062 309.816406 L 127.203125 310.195312 L 126.011719 310.304688 L 116.484375 273.601562 L 104.359375 240.148438 C 104.304688 239.988281 104.085938 239.878906 103.871094 239.933594 C 103.707031 239.988281 103.601562 240.203125 103.65625 240.417969 L 111.015625 260.664062 L 100.675781 309.222656 C 100.675781 309.328125 100.675781 309.4375 100.730469 309.492188 C 100.785156 309.546875 100.894531 309.652344 100.949219 309.652344 L 101.488281 309.761719 L 98.078125 319.398438 C 98.023438 319.507812 98.078125 319.613281 98.132812 319.722656 C 98.1875 319.832031 98.296875 319.886719 98.402344 319.886719 L 104.035156 319.886719 C 104.195312 319.886719 104.359375 319.777344 104.359375 319.613281 L 106.742188 310.628906 L 109.175781 311.0625 L 109.230469 311.0625 C 109.394531 311.0625 109.5 310.953125 109.554688 310.84375 L 118.648438 284.808594 L 125.363281 310.789062 C 125.417969 310.953125 125.523438 311.0625 125.6875 311.0625 L 125.742188 311.0625 L 126.285156 311.007812 L 127.636719 319.179688 C 127.691406 319.34375 127.800781 319.503906 128.015625 319.503906 L 133.917969 319.503906 C 134.023438 319.503906 134.132812 319.453125 134.1875 319.398438 C 134.242188 319.289062 134.296875 319.179688 134.242188 319.074219 L 132.402344 310.519531 L 133.917969 310.410156 C 133.96875 310.359375 134.078125 310.304688 134.132812 310.195312 " fill-opacity="1" fill-rule="nonzero"/><path fill="#0f0e0c" d="M 387.863281 250.703125 C 387.703125 250.542969 387.484375 250.542969 387.378906 250.703125 L 369.402344 267.429688 L 369.402344 251.082031 L 386.835938 233.597656 C 387 233.4375 387 233.21875 386.835938 233.113281 C 386.671875 232.949219 386.457031 232.949219 386.347656 233.113281 L 369.402344 250.109375 L 369.402344 232.789062 C 369.457031 232.789062 369.566406 232.734375 369.621094 232.679688 L 383.75 218.28125 C 383.914062 218.117188 383.914062 217.902344 383.75 217.792969 C 383.585938 217.628906 383.371094 217.628906 383.261719 217.792969 L 369.457031 231.867188 L 369.457031 214.21875 C 369.511719 214.21875 369.621094 214.164062 369.675781 214.113281 L 376.332031 207.019531 C 376.496094 206.859375 376.441406 206.640625 376.332031 206.535156 C 376.226562 206.425781 375.953125 206.425781 375.847656 206.535156 L 369.511719 213.300781 L 369.511719 191.160156 C 369.511719 190.945312 369.351562 190.78125 369.132812 190.78125 C 368.917969 190.78125 368.753906 190.945312 368.753906 191.160156 L 368.753906 212.8125 L 361.769531 206.535156 C 361.609375 206.425781 361.390625 206.425781 361.285156 206.535156 C 361.175781 206.695312 361.175781 206.914062 361.285156 207.019531 L 368.753906 213.734375 L 368.753906 231.273438 L 354.679688 217.738281 C 354.515625 217.578125 354.300781 217.628906 354.191406 217.738281 C 354.03125 217.902344 354.082031 218.117188 354.191406 218.226562 L 368.753906 232.246094 L 368.753906 250.109375 L 351.863281 234.355469 C 351.703125 234.195312 351.484375 234.25 351.378906 234.355469 C 351.214844 234.519531 351.269531 234.734375 351.378906 234.84375 L 368.753906 251.03125 L 368.753906 266.726562 L 351.863281 250.597656 C 351.703125 250.433594 351.484375 250.488281 351.378906 250.597656 C 351.214844 250.757812 351.269531 250.976562 351.378906 251.082031 L 368.753906 267.703125 L 368.753906 292.441406 C 368.753906 292.65625 368.917969 292.820312 369.132812 292.820312 C 369.351562 292.820312 369.511719 292.65625 369.511719 292.441406 L 369.511719 268.136719 C 369.566406 268.136719 369.621094 268.082031 369.675781 268.027344 L 387.972656 251.03125 C 387.972656 251.082031 387.972656 250.8125 387.863281 250.703125 Z M 329.019531 246.96875 C 329.183594 242.367188 329.128906 237.714844 329.019531 233.113281 C 328.855469 228.402344 328.585938 223.585938 328.152344 218.875 C 328.152344 218.820312 328.152344 218.820312 328.097656 218.765625 C 325.933594 213.785156 324.203125 208.753906 322.902344 203.828125 C 322.738281 203.230469 322.632812 202.636719 322.46875 202.09375 C 321.441406 197.980469 320.574219 194.40625 317.542969 192.675781 C 316.136719 191.917969 314.511719 191.59375 312.617188 191.753906 C 312.398438 191.753906 312.292969 191.972656 312.292969 192.132812 C 312.292969 192.351562 312.507812 192.460938 312.671875 192.460938 C 314.402344 192.296875 315.917969 192.566406 317.21875 193.269531 C 320.03125 194.839844 320.789062 198.089844 321.820312 202.203125 C 321.980469 202.796875 322.089844 203.339844 322.253906 203.933594 C 323.496094 208.914062 325.285156 213.949219 327.449219 218.929688 C 327.882812 223.640625 328.152344 228.347656 328.316406 233.058594 C 328.476562 237.714844 328.476562 242.367188 328.316406 247.023438 C 328.316406 247.132812 328.371094 247.1875 328.425781 247.242188 C 329.074219 248 329.832031 249.1875 329.886719 250.757812 C 329.992188 252.382812 329.289062 254.113281 328.640625 254.820312 C 328.476562 254.980469 328.371094 255.035156 328.316406 255.035156 C 328.316406 255.035156 327.828125 254.820312 327.667969 251.789062 C 327.667969 251.625 327.558594 251.515625 327.394531 251.460938 C 327.234375 251.410156 327.070312 251.515625 327.015625 251.625 C 326.582031 252.328125 326.367188 252.707031 326.148438 252.925781 C 326.203125 252.382812 326.367188 251.191406 327.125 248.324219 L 327.125 248.160156 C 326.203125 243.179688 325.121094 238.09375 323.984375 233.167969 C 322.792969 227.859375 321.441406 222.449219 319.980469 217.089844 L 315.808594 206.101562 C 315.757812 205.9375 315.539062 205.828125 315.324219 205.882812 C 315.160156 205.9375 315.050781 206.15625 315.105469 206.371094 L 319.273438 217.359375 C 320.683594 222.664062 322.035156 228.023438 323.28125 233.328125 C 324.417969 238.253906 325.445312 243.289062 326.367188 248.214844 C 325.066406 253.140625 325.285156 253.683594 325.71875 253.84375 C 326.042969 253.953125 326.367188 253.84375 326.960938 252.925781 C 327.179688 254.765625 327.503906 255.628906 328.152344 255.683594 L 328.261719 255.683594 C 328.476562 255.683594 328.75 255.578125 328.964844 255.359375 C 329.832031 254.601562 330.644531 252.546875 330.535156 250.652344 C 330.480469 249.082031 329.667969 247.78125 329.019531 246.96875 Z M 311.914062 183.527344 L 309.097656 187.046875 C 309.097656 187.914062 309.3125 188.722656 309.585938 189.535156 C 309.910156 190.402344 310.398438 191.160156 310.992188 191.863281 C 311.101562 192.027344 311.101562 192.242188 310.9375 192.351562 C 310.882812 192.40625 310.777344 192.460938 310.722656 192.460938 C 310.613281 192.460938 310.503906 192.40625 310.449219 192.351562 C 309.800781 191.59375 309.261719 190.726562 308.882812 189.808594 C 308.554688 188.886719 308.339844 187.914062 308.339844 186.9375 C 308.339844 186.828125 308.339844 186.777344 308.394531 186.722656 L 311.316406 183.039062 C 311.371094 182.984375 311.425781 182.933594 311.480469 182.933594 C 311.804688 182.824219 312.019531 182.554688 312.128906 182.226562 C 312.238281 181.902344 312.238281 181.578125 312.074219 181.363281 C 311.914062 181.089844 311.695312 180.875 311.371094 180.820312 C 311.046875 180.710938 310.722656 180.820312 310.449219 180.984375 C 310.398438 180.984375 310.398438 181.039062 310.34375 181.039062 C 309.042969 181.363281 306.988281 181.578125 304.710938 180.820312 C 302.710938 180.171875 301.300781 179.089844 300.328125 178.167969 C 300.164062 179.523438 300.164062 180.820312 300.328125 182.175781 C 300.542969 184.175781 300.761719 186.449219 302.4375 188.074219 C 302.871094 188.507812 303.359375 188.832031 303.902344 189.101562 C 304.007812 189.15625 304.117188 189.265625 304.117188 189.429688 L 304.117188 192.1875 C 304.117188 192.40625 303.953125 192.566406 303.738281 192.566406 L 301.140625 192.566406 C 300.976562 192.566406 300.871094 192.460938 300.816406 192.351562 C 300.761719 192.351562 300.761719 192.351562 300.707031 192.40625 C 299.40625 192.460938 298.269531 192.785156 297.351562 193.378906 C 296.105469 194.191406 295.5625 195.328125 294.480469 197.601562 C 294.15625 198.25 293.832031 199.007812 293.398438 199.875 C 292.640625 201.335938 291.882812 202.851562 291.070312 204.3125 C 291.015625 204.421875 290.910156 204.476562 290.746094 204.476562 C 288.09375 204.476562 285.441406 204.207031 282.789062 203.773438 C 277.589844 202.851562 272.609375 201.011719 267.902344 198.414062 C 267.792969 198.359375 267.738281 198.195312 267.738281 198.089844 C 267.792969 196.25 267.414062 194.734375 266.492188 193.597656 C 265.953125 192.890625 265.410156 192.40625 265.195312 192.40625 C 265.140625 192.460938 264.976562 193.164062 265.410156 195.113281 C 265.410156 195.21875 265.410156 195.328125 265.300781 195.4375 C 265.25 195.542969 265.085938 195.542969 264.976562 195.542969 C 263.734375 195.382812 263.027344 195.382812 262.59375 195.382812 C 262.972656 195.597656 263.40625 195.816406 263.894531 196.195312 C 264.871094 197.007812 265.574219 198.089844 266.058594 199.441406 C 269.796875 202.960938 273.910156 205.992188 278.292969 208.429688 C 283.328125 211.242188 285.710938 211.675781 287.445312 211.675781 C 290.421875 211.730469 293.453125 210.808594 296.269531 208.96875 C 296.429688 208.859375 296.648438 208.914062 296.753906 209.078125 C 296.863281 209.238281 296.808594 209.457031 296.648438 209.566406 C 293.832031 211.40625 290.746094 212.378906 287.714844 212.378906 L 287.390625 212.378906 C 285.601562 212.324219 283.058594 211.890625 277.914062 209.023438 C 273.476562 206.535156 269.308594 203.449219 265.464844 199.875 C 265.410156 199.820312 265.410156 199.765625 265.355469 199.714844 C 264.921875 198.414062 264.273438 197.4375 263.40625 196.679688 C 262.972656 196.300781 262.488281 196.085938 262.164062 195.871094 C 261.675781 195.597656 261.296875 195.382812 261.40625 195.003906 C 261.511719 194.625 261.785156 194.40625 264.542969 194.679688 C 264.113281 192.296875 264.492188 191.808594 264.871094 191.648438 C 265.519531 191.375 266.386719 192.242188 266.980469 193.054688 C 267.902344 194.300781 268.386719 195.921875 268.332031 197.816406 C 272.882812 200.363281 277.753906 202.09375 282.789062 203.015625 C 285.277344 203.449219 287.824219 203.71875 290.367188 203.71875 C 291.125 202.3125 291.882812 200.902344 292.585938 199.496094 C 293.019531 198.628906 293.34375 197.871094 293.667969 197.222656 C 294.804688 194.839844 295.347656 193.648438 296.753906 192.675781 C 297.785156 191.972656 299.082031 191.59375 300.492188 191.59375 C 300.652344 191.59375 300.761719 191.703125 300.816406 191.808594 L 303.144531 191.808594 L 303.144531 189.589844 C 302.601562 189.320312 302.113281 188.941406 301.679688 188.507812 C 299.839844 186.722656 299.570312 184.285156 299.351562 182.175781 C 299.191406 180.550781 299.246094 178.871094 299.460938 177.25 C 299.460938 177.085938 299.570312 176.976562 299.730469 176.976562 C 299.894531 176.921875 300.003906 176.976562 300.113281 177.085938 C 300.976562 178.058594 302.4375 179.414062 304.710938 180.117188 C 306.824219 180.765625 308.71875 180.605469 309.910156 180.332031 C 310.34375 180.0625 310.882812 180.007812 311.371094 180.117188 C 311.859375 180.226562 312.292969 180.550781 312.507812 181.039062 C 312.726562 181.46875 312.777344 182.011719 312.617188 182.5 C 312.726562 182.933594 312.347656 183.3125 311.914062 183.527344 Z M 319.816406 259.800781 C 320.03125 259.800781 320.195312 259.636719 320.195312 259.421875 L 319.601562 239.878906 C 319.601562 239.660156 319.4375 239.554688 319.222656 239.554688 C 319.003906 239.554688 318.84375 239.714844 318.894531 239.933594 L 319.492188 259.472656 C 319.4375 259.636719 319.601562 259.800781 319.816406 259.800781 Z M 338.65625 303.699219 L 331.996094 307.867188 C 331.941406 307.921875 331.886719 307.921875 331.78125 307.921875 C 331.671875 307.921875 331.5625 307.867188 331.507812 307.757812 L 312.074219 280.800781 L 312.777344 308.300781 C 312.777344 308.515625 312.617188 308.625 312.453125 308.679688 L 304.007812 309.4375 L 303.953125 309.4375 C 303.792969 309.4375 303.628906 309.328125 303.574219 309.167969 L 296.753906 277.175781 L 294.699219 235.925781 C 294.699219 235.710938 294.859375 235.546875 295.023438 235.546875 C 295.238281 235.546875 295.402344 235.710938 295.402344 235.871094 L 297.457031 277.066406 L 304.28125 308.679688 L 312.074219 307.976562 L 311.371094 279.773438 L 306.28125 272.734375 C 306.230469 272.683594 306.230469 272.628906 306.230469 272.574219 L 300.761719 238.144531 C 300.707031 237.929688 300.871094 237.765625 301.085938 237.714844 C 301.300781 237.660156 301.464844 237.820312 301.519531 238.039062 L 306.988281 272.410156 L 331.996094 307.109375 L 338.058594 303.320312 L 325.121094 280.855469 C 325.011719 280.695312 325.066406 280.476562 325.230469 280.367188 C 325.390625 280.261719 325.609375 280.316406 325.71875 280.476562 L 338.871094 303.265625 C 338.871094 303.375 338.816406 303.589844 338.65625 303.699219 Z M 48.003906 249.40625 L 29.707031 266.402344 C 29.652344 266.457031 29.597656 266.457031 29.542969 266.511719 L 29.542969 290.816406 C 29.542969 291.03125 29.378906 291.195312 29.164062 291.195312 C 28.945312 291.195312 28.785156 291.03125 28.785156 290.816406 L 28.785156 266.078125 L 11.40625 249.460938 C 11.246094 249.296875 11.246094 249.082031 11.40625 248.972656 C 11.570312 248.808594 11.785156 248.808594 11.894531 248.972656 L 28.785156 264.996094 L 28.785156 249.296875 L 11.40625 233.113281 C 11.246094 232.949219 11.246094 232.734375 11.40625 232.625 C 11.570312 232.460938 11.785156 232.460938 11.894531 232.625 L 28.785156 248.324219 L 28.785156 230.460938 L 14.222656 216.441406 C 14.058594 216.277344 14.058594 216.0625 14.222656 215.953125 C 14.386719 215.789062 14.601562 215.789062 14.710938 215.953125 L 28.785156 229.484375 L 28.785156 211.945312 L 21.316406 205.234375 C 21.152344 205.125 21.152344 204.855469 21.316406 204.746094 C 21.421875 204.585938 21.695312 204.585938 21.800781 204.746094 L 28.785156 210.972656 L 28.785156 189.320312 C 28.785156 189.101562 28.945312 188.941406 29.164062 188.941406 C 29.378906 188.941406 29.542969 189.101562 29.542969 189.320312 L 29.542969 211.460938 L 35.875 204.691406 C 36.039062 204.53125 36.253906 204.53125 36.363281 204.691406 C 36.527344 204.855469 36.527344 205.070312 36.363281 205.179688 L 29.707031 212.269531 C 29.652344 212.324219 29.597656 212.378906 29.488281 212.378906 L 29.488281 230.027344 L 43.292969 215.953125 C 43.457031 215.789062 43.671875 215.789062 43.78125 215.953125 C 43.945312 216.113281 43.945312 216.332031 43.78125 216.441406 L 29.652344 230.839844 C 29.597656 230.894531 29.542969 230.945312 29.433594 230.945312 L 29.433594 248.269531 L 46.378906 231.273438 C 46.539062 231.109375 46.757812 231.109375 46.867188 231.273438 C 47.027344 231.433594 47.027344 231.652344 46.867188 231.757812 L 29.433594 249.242188 L 29.433594 265.535156 L 47.40625 248.808594 C 47.570312 248.648438 47.785156 248.703125 47.894531 248.808594 C 48.164062 249.027344 48.164062 249.296875 48.003906 249.40625 " fill-opacity="1" fill-rule="nonzero"/><path fill="#ffbd59" d="M 387.59375 292.546875 L 387.59375 301.640625 L 383.695312 301.640625 L 380.070312 321.941406 L 359.28125 321.941406 L 355.113281 301.640625 L 350.402344 301.640625 L 350.402344 292.546875 Z M 328.695312 262.398438 L 328.695312 269.054688 C 328.804688 269.652344 329.34375 270.03125 329.886719 269.976562 C 330.320312 269.921875 330.699219 269.542969 330.804688 269.054688 C 330.589844 270.570312 331.726562 271.761719 332.863281 271.816406 C 334 271.871094 335.246094 270.625 335.027344 269.054688 L 335.027344 262.398438 Z M 301.140625 192.082031 C 300.921875 192.082031 300.652344 192.027344 300.4375 192.027344 C 299.191406 193.867188 297.027344 197.546875 296.320312 202.746094 C 295.5625 208.15625 296.808594 212.433594 297.511719 214.542969 C 297.621094 217.25 297.457031 220.824219 296.539062 224.882812 C 295.617188 229.105469 294.210938 232.515625 292.964844 235.007812 C 295.726562 236.359375 299.246094 237.714844 303.414062 238.6875 C 310.179688 240.3125 316.136719 240.203125 320.304688 239.824219 C 318.789062 235.546875 317.378906 230.675781 316.296875 225.261719 C 315.757812 222.554688 315.324219 219.902344 315 217.414062 C 314.621094 215.953125 314.292969 213.839844 314.457031 211.296875 C 314.621094 209.292969 315.050781 207.617188 315.484375 206.371094 C 314.671875 205.289062 313.699219 203.882812 312.886719 202.148438 C 311.640625 199.441406 311.15625 196.953125 310.9375 195.164062 C 311.535156 194.136719 312.074219 193.109375 312.671875 192.082031 L 310.828125 192.082031 C 310.722656 192.242188 309.421875 194.785156 306.660156 195.113281 C 304.386719 195.382812 302.167969 194.191406 301.140625 192.082031 Z M 118.8125 194.839844 C 117.082031 194.949219 115.457031 193.976562 114.699219 192.351562 C 112.152344 192.132812 108.742188 192.296875 106.6875 194.515625 C 103.65625 197.710938 105.0625 203.503906 105.496094 205.722656 C 106.902344 212.488281 107.335938 223.152344 102.898438 240.148438 C 106.253906 240.746094 110.3125 241.175781 114.914062 241.015625 C 123.25 240.746094 129.964844 238.6875 134.566406 236.847656 C 133.539062 229.105469 132.507812 221.367188 131.535156 213.570312 C 129.097656 213.300781 126.230469 212.757812 123.035156 211.730469 C 119.460938 210.59375 116.484375 209.1875 114.210938 207.886719 C 115.292969 207.34375 116.703125 206.480469 118.109375 205.070312 C 119.625 203.609375 120.542969 202.203125 121.140625 201.121094 C 124.605469 202.3125 128.015625 203.503906 131.480469 204.691406 C 132.074219 204.800781 133.375 204.964844 134.835938 204.421875 C 135.863281 204.042969 136.570312 203.503906 137 203.125 C 135.054688 200.796875 133.644531 198.738281 132.671875 197.277344 C 130.777344 194.460938 130.289062 193.21875 128.773438 192.40625 C 126.664062 191.269531 124.171875 191.808594 122.441406 192.40625 C 121.734375 193.8125 120.382812 194.734375 118.8125 194.839844 Z M 262.378906 257.253906 L 181.554688 257.253906 L 181.554688 270.246094 L 262.378906 270.246094 Z M 262.378906 238.09375 L 181.554688 238.09375 L 181.554688 250.488281 L 262.378906 250.488281 Z M 262.378906 231.597656 L 181.554688 231.597656 L 181.554688 217.089844 L 262.378906 217.089844 L 262.378906 231.597656 " fill-opacity="1" fill-rule="nonzero"/></svg>