<svg xmlns="http://www.w3.org/2000/svg" xmlns:xlink="http://www.w3.org/1999/xlink" width="529" zoomAndPan="magnify" viewBox="0 0 396.75 396.749984" height="529" preserveAspectRatio="xMidYMid meet" version="1.0"><defs><clipPath id="id1"><path d="M 0 0 L 396.5 0 L 396.5 396.5 L 0 396.5 Z M 0 0 " clip-rule="nonzero"/></clipPath></defs><g clip-path="url(#id1)"><path fill="#ffffff" d="M 396.75 198.375 C 396.75 176.058594 381.378906 154.433594 353.464844 137.265625 C 363.582031 106.441406 363.699219 80.699219 353.820312 62.492188 C 356.238281 59.3125 357.609375 55.496094 357.609375 51.449219 C 357.609375 41.289062 349.359375 33.027344 339.222656 33.027344 C 333.96875 33.027344 329.007812 35.285156 325.519531 39.152344 C 308.160156 33.34375 285.4375 34.757812 259.480469 43.277344 C 242.308594 15.371094 220.691406 0 198.375 0 C 176.054688 0 154.429688 15.375 137.261719 43.292969 C 99.371094 30.839844 68.871094 33.609375 51.234375 51.242188 C 44.101562 58.402344 39.394531 67.675781 37.148438 78.785156 C 27.042969 78.824219 18.828125 87.070312 18.828125 97.203125 C 18.828125 107.34375 27.078125 115.59375 37.21875 115.59375 C 37.375 115.59375 37.519531 115.574219 37.671875 115.570312 C 38.945312 122.507812 40.816406 129.773438 43.265625 137.261719 C 15.363281 154.441406 0 176.066406 0 198.375 C 0 220.695312 15.375 242.316406 43.292969 259.484375 C 30.839844 297.375 33.609375 327.875 51.242188 345.507812 C 61.636719 355.902344 76.492188 361.144531 94.710938 361.144531 C 107.390625 361.144531 121.714844 358.570312 137.265625 353.460938 C 154.4375 381.378906 176.058594 396.75 198.375 396.75 C 220.695312 396.75 242.320312 381.375 259.480469 353.464844 C 275.039062 358.574219 289.355469 361.148438 302.035156 361.148438 C 320.25 361.148438 335.113281 355.90625 345.507812 345.507812 C 363.136719 327.878906 365.90625 297.375 353.453125 259.488281 C 381.378906 242.316406 396.75 220.695312 396.75 198.375 Z M 274.175781 305.269531 C 272.515625 304.796875 270.796875 304.519531 269.066406 304.519531 C 258.90625 304.519531 250.644531 312.769531 250.644531 322.910156 C 250.644531 329.757812 254.539062 335.960938 260.378906 339.097656 C 259.132812 341.511719 257.917969 343.746094 256.710938 345.855469 C 239.890625 339.886719 222.238281 331.125 204.148438 319.769531 C 215.738281 312.011719 227.238281 303.421875 238.410156 294.101562 C 252.582031 292.667969 266.257812 290.476562 279.226562 287.636719 C 277.707031 293.683594 276.015625 299.582031 274.175781 305.269531 Z M 140.078125 345.835938 C 130.878906 329.785156 123.15625 309.816406 117.554688 287.640625 C 130.515625 290.476562 144.179688 292.664062 158.335938 294.097656 C 169.507812 303.417969 181.007812 312.007812 192.601562 319.765625 C 174.523438 331.117188 156.890625 339.871094 140.078125 345.835938 Z M 140.078125 50.910156 C 156.949219 56.898438 174.59375 65.664062 192.628906 77.007812 C 181.203125 84.621094 169.699219 93.199219 158.339844 102.652344 C 144.191406 104.082031 130.519531 106.269531 117.554688 109.109375 C 123.15625 86.933594 130.878906 66.972656 140.078125 50.910156 Z M 256.671875 50.910156 C 265.871094 66.96875 273.59375 86.933594 279.195312 109.109375 C 266.230469 106.269531 252.5625 104.082031 238.410156 102.652344 C 227.136719 93.242188 215.644531 84.660156 204.179688 77.011719 C 222.246094 65.644531 239.871094 56.875 256.671875 50.910156 Z M 246.929688 286.789062 C 253.921875 280.617188 260.804688 274.15625 267.480469 267.484375 C 274.195312 260.773438 280.648438 253.882812 286.773438 246.929688 C 285.3125 258.65625 283.328125 270.011719 280.839844 280.839844 C 270.03125 283.316406 258.679688 285.308594 246.929688 286.789062 Z M 115.910156 280.839844 C 113.402344 269.898438 111.40625 258.527344 109.949219 246.875 C 116.132812 253.90625 122.597656 260.808594 129.269531 267.480469 C 135.945312 274.152344 142.828125 280.617188 149.820312 286.785156 C 138.074219 285.308594 126.71875 283.316406 115.910156 280.839844 Z M 149.828125 109.960938 C 142.9375 116.050781 136.046875 122.507812 129.265625 129.269531 C 122.59375 135.941406 116.132812 142.828125 109.960938 149.824219 C 111.4375 138.085938 113.429688 126.726562 115.910156 115.910156 C 126.730469 113.429688 138.089844 111.4375 149.828125 109.960938 Z M 160.894531 288.023438 C 151.632812 280.199219 142.492188 271.800781 133.71875 263.03125 C 124.972656 254.277344 116.574219 245.117188 108.726562 235.792969 C 107.5625 223.652344 106.964844 211.074219 106.964844 198.375 C 106.964844 185.667969 107.5625 173.066406 108.726562 160.894531 C 116.558594 151.628906 124.957031 142.488281 133.71875 133.726562 C 142.667969 124.804688 151.8125 116.402344 160.894531 108.726562 C 173.066406 107.5625 185.667969 106.964844 198.375 106.964844 C 211.082031 106.964844 223.683594 107.5625 235.855469 108.726562 C 245.121094 116.558594 254.261719 124.957031 263.03125 133.71875 C 271.796875 142.488281 280.195312 151.632812 288.023438 160.898438 C 289.1875 173.066406 289.785156 185.667969 289.785156 198.375 C 289.785156 211.179688 289.175781 223.773438 287.996094 235.851562 C 280.253906 245.050781 271.867188 254.191406 263.03125 263.03125 C 254.257812 271.800781 245.113281 280.199219 235.851562 288.023438 C 211.476562 290.34375 185.269531 290.34375 160.894531 288.023438 Z M 101.6875 227.207031 C 94.046875 217.652344 87.023438 207.984375 80.714844 198.347656 C 87.039062 188.710938 94.0625 179.050781 101.6875 169.496094 C 101.015625 178.972656 100.667969 188.640625 100.667969 198.375 C 100.667969 208.097656 101.015625 217.757812 101.6875 227.207031 Z M 295.0625 169.5 C 302.628906 178.984375 309.660156 188.65625 316.058594 198.371094 C 309.636719 208.125 302.601562 217.796875 295.046875 227.242188 C 295.726562 217.828125 296.078125 208.160156 296.078125 198.371094 C 296.082031 188.644531 295.734375 178.976562 295.0625 169.5 Z M 267.480469 129.269531 C 260.808594 122.597656 253.921875 116.136719 246.925781 109.964844 C 258.664062 111.441406 270.023438 113.433594 280.839844 115.914062 C 283.320312 126.730469 285.308594 138.085938 286.789062 149.828125 C 280.617188 142.828125 274.152344 135.941406 267.480469 129.269531 Z M 227.257812 101.691406 C 208.285156 100.347656 188.492188 100.347656 169.515625 101.691406 C 179.125 94.035156 188.800781 87.011719 198.402344 80.71875 C 208.039062 87.039062 217.703125 94.0625 227.257812 101.691406 Z M 102.652344 158.335938 C 93.242188 169.617188 84.660156 181.105469 77.007812 192.578125 C 65.703125 174.640625 56.929688 157.015625 50.882812 140.082031 C 66.988281 130.867188 86.964844 123.144531 109.113281 117.558594 C 106.269531 130.519531 104.082031 144.1875 102.652344 158.335938 Z M 77.007812 204.125 C 84.640625 215.589844 93.21875 227.078125 102.652344 238.347656 C 104.042969 252.375 106.230469 266.066406 109.113281 279.195312 C 86.945312 273.597656 66.976562 265.875 50.914062 256.667969 C 56.898438 239.800781 65.664062 222.15625 77.007812 204.125 Z M 169.5 295.0625 C 178.980469 295.734375 188.652344 296.082031 198.375 296.082031 C 208.097656 296.082031 217.769531 295.734375 227.25 295.0625 C 217.769531 302.625 208.097656 309.65625 198.375 316.0625 C 188.648438 309.65625 178.976562 302.621094 169.5 295.0625 Z M 294.070312 238.410156 C 303.378906 227.289062 311.976562 215.78125 319.765625 204.148438 C 331.113281 222.226562 339.867188 239.855469 345.839844 256.671875 C 329.777344 265.875 309.8125 273.601562 287.640625 279.195312 C 290.492188 266.203125 292.667969 252.539062 294.070312 238.410156 Z M 319.765625 192.601562 C 312.011719 181.019531 303.417969 169.515625 294.097656 158.339844 C 292.667969 144.191406 290.480469 130.523438 287.640625 117.554688 C 309.816406 123.152344 329.78125 130.875 345.839844 140.078125 C 339.871094 156.890625 331.113281 174.527344 319.765625 192.601562 Z M 322.148438 44.664062 C 321.292969 46.816406 320.800781 49.101562 320.800781 51.453125 C 320.800781 61.589844 329.066406 69.839844 339.222656 69.839844 C 342.769531 69.839844 346.15625 68.824219 349.078125 66.953125 C 357.050781 83.136719 356.632812 106.667969 347.894531 134.011719 C 330.773438 124.367188 309.550781 116.335938 286.078125 110.667969 C 280.40625 87.191406 272.375 65.964844 262.730469 48.839844 C 286.144531 41.34375 306.535156 39.902344 322.148438 44.664062 Z M 198.375 6.296875 C 218.113281 6.296875 237.539062 20.167969 253.386719 45.402344 C 235.75 51.785156 217.285156 61.113281 198.402344 73.207031 C 179.554688 61.132812 161.066406 51.808594 143.363281 45.402344 C 159.207031 20.171875 178.636719 6.296875 198.375 6.296875 Z M 55.691406 55.691406 C 71.367188 40.023438 99.097656 37.660156 134.011719 48.859375 C 124.367188 65.984375 116.339844 87.199219 110.671875 110.671875 C 87.230469 116.328125 66.003906 124.355469 48.835938 134.011719 C 46.667969 127.214844 45 120.632812 43.851562 114.347656 C 50.816406 111.667969 55.609375 104.890625 55.609375 97.207031 C 55.609375 89.230469 50.613281 82.378906 43.355469 79.851562 C 45.363281 70.046875 49.492188 61.917969 55.691406 55.691406 Z M 6.296875 198.375 C 6.296875 178.640625 20.160156 159.210938 45.378906 143.359375 C 51.839844 161.136719 61.179688 179.605469 73.203125 198.347656 C 61.132812 217.195312 51.804688 235.683594 45.402344 253.382812 C 20.171875 237.542969 6.296875 218.117188 6.296875 198.375 Z M 55.691406 341.058594 C 40.019531 325.386719 37.660156 297.652344 48.855469 262.738281 C 65.984375 272.386719 87.203125 280.414062 110.667969 286.082031 C 116.339844 309.554688 124.367188 330.773438 134.007812 347.890625 C 99.097656 359.089844 71.363281 356.726562 55.691406 341.058594 Z M 198.375 390.453125 C 178.636719 390.453125 159.207031 376.582031 143.363281 351.347656 C 161 344.96875 179.472656 335.652344 198.375 323.574219 C 217.277344 335.652344 235.75 344.964844 253.386719 351.347656 C 237.542969 376.582031 218.117188 390.453125 198.375 390.453125 Z M 341.058594 341.058594 C 325.390625 356.722656 297.683594 359.085938 262.785156 347.910156 C 263.976562 345.792969 265.179688 343.542969 266.40625 341.136719 C 267.277344 341.265625 268.164062 341.335938 269.066406 341.335938 C 279.203125 341.335938 287.453125 333.070312 287.453125 322.910156 C 287.453125 316.960938 284.613281 311.480469 279.898438 308.046875 C 282.199219 301 284.277344 293.636719 286.089844 286.082031 C 309.554688 280.410156 330.769531 272.386719 347.890625 262.742188 C 359.089844 297.652344 356.730469 325.386719 341.058594 341.058594 Z M 351.347656 253.386719 C 344.964844 235.75 335.648438 217.277344 323.574219 198.375 C 335.648438 179.476562 344.964844 161 351.347656 143.363281 C 376.582031 159.207031 390.453125 178.636719 390.453125 198.375 C 390.453125 218.113281 376.582031 237.539062 351.347656 253.386719 Z M 351.347656 253.386719 " fill-opacity="1" fill-rule="nonzero"/></g><path fill="#ffffff" d="M 241.167969 189.210938 C 241.167969 165.613281 221.972656 146.417969 198.375 146.417969 C 174.777344 146.417969 155.582031 165.613281 155.582031 189.210938 C 155.582031 212.824219 174.777344 232.039062 198.375 232.039062 C 221.972656 232.039062 241.167969 212.824219 241.167969 189.210938 Z M 241.167969 189.210938 " fill-opacity="1" fill-rule="nonzero"/></svg>