<svg xmlns="http://www.w3.org/2000/svg" xmlns:xlink="http://www.w3.org/1999/xlink" width="529" zoomAndPan="magnify" viewBox="0 0 396.75 396.749984" height="529" preserveAspectRatio="xMidYMid meet" version="1.0"><defs><clipPath id="id1"><path d="M 1.734375 143 L 395.484375 143 L 395.484375 396.5 L 1.734375 396.5 Z M 1.734375 143 " clip-rule="nonzero"/></clipPath></defs><path fill="#ffffff" d="M 68.332031 201.011719 C 68.839844 200.972656 120.714844 196.238281 162.453125 214.042969 C 163.09375 214.316406 163.75 214.441406 164.402344 214.441406 C 166.324219 214.441406 168.148438 213.320312 168.949219 211.4375 C 170.027344 208.925781 168.859375 206.023438 166.347656 204.957031 C 122.203125 186.140625 69.589844 190.953125 67.378906 191.175781 C 64.660156 191.433594 62.667969 193.855469 62.933594 196.570312 C 63.195312 199.289062 65.683594 201.277344 68.332031 201.011719 " fill-opacity="1" fill-rule="nonzero"/><path fill="#ffffff" d="M 68.332031 235.707031 C 68.839844 235.660156 120.714844 230.9375 162.453125 248.742188 C 163.09375 249.011719 163.75 249.140625 164.402344 249.140625 C 166.324219 249.140625 168.148438 248.015625 168.949219 246.136719 C 170.027344 243.625 168.859375 240.722656 166.347656 239.65625 C 122.203125 220.835938 69.589844 225.648438 67.378906 225.875 C 64.660156 226.132812 62.667969 228.550781 62.933594 231.265625 C 63.195312 233.984375 65.683594 235.980469 68.332031 235.707031 " fill-opacity="1" fill-rule="nonzero"/><path fill="#ffffff" d="M 68.332031 270.40625 C 68.839844 270.367188 120.714844 265.640625 162.453125 283.4375 C 163.09375 283.710938 163.75 283.835938 164.402344 283.835938 C 166.324219 283.835938 168.148438 282.710938 168.949219 280.832031 C 170.027344 278.320312 168.859375 275.417969 166.347656 274.347656 C 122.203125 255.527344 69.589844 260.34375 67.378906 260.570312 C 64.660156 260.828125 62.667969 263.25 62.933594 265.964844 C 63.195312 268.683594 65.683594 270.675781 68.332031 270.40625 " fill-opacity="1" fill-rule="nonzero"/><path fill="#ffffff" d="M 162.460938 318.136719 C 163.09375 318.402344 163.75 318.535156 164.402344 318.535156 C 166.324219 318.535156 168.148438 317.40625 168.949219 315.53125 C 170.027344 313.019531 168.859375 310.117188 166.339844 309.046875 C 122.207031 290.226562 69.589844 295.039062 67.378906 295.277344 C 64.660156 295.53125 62.667969 297.949219 62.933594 300.667969 C 63.195312 303.382812 65.683594 305.371094 68.332031 305.105469 C 68.847656 305.070312 120.617188 300.300781 162.460938 318.136719 " fill-opacity="1" fill-rule="nonzero"/><g clip-path="url(#id1)"><path fill="#ffffff" d="M 385.46875 383.929688 C 316.453125 355.152344 235.59375 383.082031 225.757812 386.699219 L 207.800781 386.699219 C 219.742188 372.574219 258.632812 342.394531 366.953125 356.460938 C 368.359375 356.628906 369.78125 356.210938 370.859375 355.269531 C 371.925781 354.328125 372.539062 352.980469 372.539062 351.558594 L 372.539062 168.476562 L 385.46875 187.847656 Z M 11.753906 383.929688 L 11.753906 187.847656 L 24.675781 168.480469 L 24.675781 351.558594 C 24.675781 352.980469 25.289062 354.328125 26.359375 355.269531 C 27.425781 356.210938 28.839844 356.628906 30.265625 356.460938 C 138.617188 342.355469 177.507812 372.59375 189.425781 386.699219 L 171.457031 386.699219 C 161.617188 383.097656 80.78125 355.148438 11.753906 383.929688 Z M 34.574219 156.503906 C 160.539062 141.207031 190.136719 186.816406 193.660156 193.296875 L 193.660156 376.425781 C 180.148438 362.5625 149.324219 342.886719 83.121094 342.886719 C 68.691406 342.886719 52.550781 343.828125 34.574219 345.960938 Z M 362.640625 156.503906 L 362.640625 345.957031 C 262.203125 334.046875 220.011719 359.539062 203.5625 376.425781 L 203.5625 193.296875 C 207.078125 186.816406 236.59375 141.234375 362.640625 156.503906 Z M 394.53125 183.617188 L 371.710938 149.398438 L 371.707031 149.402344 C 370.933594 148.25 369.695312 147.429688 368.230469 147.238281 C 251.164062 132.074219 210.753906 166.679688 198.609375 182.738281 C 186.472656 166.683594 146.078125 132.082031 28.988281 147.238281 C 27.519531 147.429688 26.28125 148.25 25.507812 149.402344 L 25.507812 149.398438 L 2.691406 183.617188 C 2.148438 184.425781 1.859375 185.378906 1.859375 186.355469 L 1.859375 391.5625 C 1.859375 393.261719 2.734375 394.847656 4.175781 395.746094 C 5.628906 396.660156 7.4375 396.75 8.953125 396.015625 C 78.464844 362.582031 167.90625 395.914062 168.796875 396.261719 C 169.363281 396.476562 169.964844 396.585938 170.5625 396.585938 L 226.65625 396.585938 C 227.253906 396.585938 227.851562 396.476562 228.421875 396.261719 C 229.304688 395.910156 318.753906 362.5625 388.269531 396.015625 C 389.785156 396.75 391.59375 396.660156 393.046875 395.746094 C 394.484375 394.847656 395.363281 393.261719 395.363281 391.5625 L 395.363281 186.355469 C 395.363281 185.378906 395.074219 184.425781 394.53125 183.617188 " fill-opacity="1" fill-rule="nonzero"/></g><path fill="#ffffff" d="M 232.8125 214.441406 C 233.464844 214.441406 234.125 214.316406 234.753906 214.042969 C 276.53125 196.25 328.382812 200.988281 328.890625 201.011719 C 331.570312 201.25 334.03125 199.289062 334.289062 196.570312 C 334.554688 193.855469 332.5625 191.433594 329.84375 191.175781 C 327.628906 190.964844 275.003906 186.148438 230.875 204.957031 C 228.355469 206.023438 227.191406 208.925781 228.265625 211.4375 C 229.066406 213.320312 230.894531 214.441406 232.8125 214.441406 " fill-opacity="1" fill-rule="nonzero"/><path fill="#ffffff" d="M 232.8125 249.140625 C 233.464844 249.140625 234.125 249.011719 234.753906 248.742188 C 276.53125 230.953125 328.382812 235.667969 328.890625 235.707031 C 331.570312 235.953125 334.03125 233.984375 334.289062 231.265625 C 334.554688 228.550781 332.5625 226.132812 329.84375 225.875 C 327.628906 225.660156 275.003906 220.835938 230.875 239.65625 C 228.355469 240.722656 227.191406 243.625 228.265625 246.136719 C 229.066406 248.015625 230.894531 249.140625 232.8125 249.140625 " fill-opacity="1" fill-rule="nonzero"/><path fill="#ffffff" d="M 232.8125 283.835938 C 233.464844 283.835938 234.125 283.710938 234.753906 283.4375 C 276.53125 265.640625 328.382812 270.378906 328.890625 270.40625 C 331.570312 270.652344 334.03125 268.683594 334.289062 265.964844 C 334.554688 263.25 332.5625 260.828125 329.84375 260.570312 C 327.628906 260.351562 275.003906 255.53125 230.875 274.347656 C 228.355469 275.417969 227.191406 278.320312 228.265625 280.832031 C 229.066406 282.710938 230.894531 283.835938 232.8125 283.835938 " fill-opacity="1" fill-rule="nonzero"/><path fill="#ffffff" d="M 232.8125 318.535156 C 233.464844 318.535156 234.125 318.402344 234.753906 318.136719 C 276.5 300.339844 328.375 305.070312 328.890625 305.105469 C 331.570312 305.34375 334.03125 303.382812 334.289062 300.667969 C 334.554688 297.949219 332.5625 295.53125 329.84375 295.277344 C 327.605469 295.046875 275.003906 290.226562 230.875 309.046875 C 228.355469 310.117188 227.191406 313.019531 228.265625 315.53125 C 229.066406 317.40625 230.894531 318.535156 232.8125 318.535156 " fill-opacity="1" fill-rule="nonzero"/><path fill="#ffffff" d="M 198.609375 29.074219 C 201.34375 29.074219 203.5625 26.859375 203.5625 24.128906 L 203.5625 4.925781 C 203.5625 2.195312 201.34375 -0.0195312 198.609375 -0.0195312 C 195.878906 -0.0195312 193.660156 2.195312 193.660156 4.925781 L 193.660156 24.128906 C 193.660156 26.859375 195.878906 29.074219 198.609375 29.074219 " fill-opacity="1" fill-rule="nonzero"/><path fill="#ffffff" d="M 246.464844 78.757812 C 246.464844 81.488281 248.679688 83.703125 251.410156 83.703125 L 270.640625 83.695312 C 273.371094 83.695312 275.589844 81.480469 275.589844 78.75 C 275.589844 76.023438 273.371094 73.8125 270.640625 73.8125 L 251.410156 73.816406 C 248.679688 73.816406 246.464844 76.03125 246.464844 78.757812 " fill-opacity="1" fill-rule="nonzero"/><path fill="#ffffff" d="M 236.339844 45.464844 C 237.609375 45.464844 238.871094 44.984375 239.835938 44.019531 L 253.4375 30.4375 C 255.367188 28.503906 255.367188 25.378906 253.4375 23.445312 C 251.5 21.515625 248.371094 21.515625 246.4375 23.445312 L 232.839844 37.027344 C 230.90625 38.957031 230.90625 42.089844 232.839844 44.019531 C 233.804688 44.984375 235.070312 45.464844 236.339844 45.464844 " fill-opacity="1" fill-rule="nonzero"/><path fill="#ffffff" d="M 126.582031 83.695312 L 145.804688 83.703125 C 148.539062 83.703125 150.753906 81.488281 150.753906 78.757812 C 150.753906 76.03125 148.539062 73.816406 145.804688 73.816406 L 126.582031 73.8125 C 123.851562 73.8125 121.632812 76.023438 121.632812 78.75 C 121.632812 81.480469 123.851562 83.695312 126.582031 83.695312 " fill-opacity="1" fill-rule="nonzero"/><path fill="#ffffff" d="M 157.378906 44.019531 C 158.34375 44.984375 159.605469 45.464844 160.875 45.464844 C 162.140625 45.464844 163.410156 44.984375 164.375 44.019531 C 166.308594 42.089844 166.308594 38.957031 164.375 37.027344 L 150.785156 23.445312 C 148.859375 21.523438 145.730469 21.507812 143.789062 23.445312 C 141.855469 25.378906 141.855469 28.503906 143.789062 30.4375 L 157.378906 44.019531 " fill-opacity="1" fill-rule="nonzero"/><path fill="#ffffff" d="M 198.460938 45.289062 C 215.074219 45.289062 228.59375 58.792969 228.59375 75.386719 C 228.59375 85.253906 223.726562 94.507812 215.582031 100.132812 C 214.25 101.058594 213.449219 102.582031 213.449219 104.199219 L 213.449219 115.671875 L 183.476562 115.671875 L 183.476562 104.199219 C 183.476562 102.582031 182.675781 101.058594 181.34375 100.132812 C 173.199219 94.507812 168.332031 85.253906 168.332031 75.386719 C 168.332031 58.792969 181.851562 45.289062 198.460938 45.289062 Z M 173.578125 106.6875 L 173.578125 120.613281 C 173.578125 123.339844 175.792969 125.554688 178.523438 125.554688 L 218.402344 125.554688 C 221.132812 125.554688 223.347656 123.339844 223.347656 120.613281 L 223.347656 106.6875 C 232.878906 99.121094 238.492188 87.609375 238.492188 75.386719 C 238.492188 53.34375 220.53125 35.40625 198.460938 35.40625 C 176.394531 35.40625 158.433594 53.34375 158.433594 75.386719 C 158.433594 87.609375 164.046875 99.121094 173.578125 106.6875 " fill-opacity="1" fill-rule="nonzero"/><path fill="#ffffff" d="M 218.402344 135.671875 L 178.523438 135.671875 C 175.792969 135.671875 173.578125 137.886719 173.578125 140.617188 C 173.578125 143.347656 175.792969 145.558594 178.523438 145.558594 L 218.402344 145.558594 C 221.132812 145.558594 223.347656 143.347656 223.347656 140.617188 C 223.347656 137.886719 221.132812 135.671875 218.402344 135.671875 " fill-opacity="1" fill-rule="nonzero"/></svg>