<svg xmlns="http://www.w3.org/2000/svg" xmlns:xlink="http://www.w3.org/1999/xlink" width="529" zoomAndPan="magnify" viewBox="0 0 396.75 396.749984" height="529" preserveAspectRatio="xMidYMid meet" version="1.0"><defs><clipPath id="id1"><path d="M 0 14.386719 L 396 14.386719 L 396 382 L 0 382 Z M 0 14.386719 " clip-rule="nonzero"/></clipPath></defs><g clip-path="url(#id1)"><path fill="#ffffff" d="M 113.726562 14.191406 C 112.339844 14.203125 110.984375 14.417969 109.660156 14.828125 C 108.335938 15.242188 107.101562 15.835938 105.953125 16.613281 C 104.804688 17.390625 103.792969 18.316406 102.914062 19.390625 C 102.039062 20.464844 101.339844 21.644531 100.808594 22.929688 L 60.632812 116.789062 L 57.382812 117.863281 L 57.382812 42.605469 C 57.398438 41.660156 57.316406 40.726562 57.140625 39.796875 C 56.964844 38.871094 56.703125 37.96875 56.347656 37.09375 C 55.992188 36.21875 55.550781 35.390625 55.03125 34.601562 C 54.507812 33.816406 53.914062 33.089844 53.246094 32.421875 C 52.578125 31.757812 51.851562 31.164062 51.0625 30.640625 C 50.277344 30.121094 49.445312 29.683594 48.574219 29.332031 C 47.699219 28.976562 46.796875 28.710938 45.871094 28.539062 C 44.941406 28.367188 44.007812 28.289062 43.0625 28.300781 C 42.140625 28.316406 41.226562 28.421875 40.320312 28.617188 C 39.417969 28.808594 38.539062 29.089844 37.691406 29.457031 C 36.84375 29.824219 36.039062 30.269531 35.277344 30.796875 C 34.515625 31.320312 33.8125 31.917969 33.167969 32.582031 C 32.523438 33.246094 31.953125 33.964844 31.449219 34.742188 C 30.945312 35.519531 30.523438 36.335938 30.183594 37.195312 C 29.839844 38.054688 29.585938 38.941406 29.417969 39.851562 C 29.25 40.761719 29.171875 41.679688 29.183594 42.605469 L 29.183594 127.257812 L 15.085938 141.367188 L 0.988281 141.367188 L 0.988281 226.023438 L 74.429688 251.898438 C 77.984375 253.449219 81.703125 254.230469 85.582031 254.242188 C 87.597656 254.234375 89.589844 254.015625 91.558594 253.582031 L 147.570312 241.925781 C 153.082031 240.78125 158.046875 237.769531 161.613281 233.410156 L 193.667969 194.25 L 194.246094 193.671875 C 194.886719 193.03125 195.464844 192.332031 195.972656 191.578125 C 196.484375 190.828125 196.917969 190.03125 197.273438 189.195312 C 197.628906 188.359375 197.898438 187.496094 198.089844 186.605469 C 198.277344 185.714844 198.378906 184.816406 198.394531 183.90625 C 198.410156 182.996094 198.339844 182.09375 198.179688 181.199219 C 198.019531 180.304688 197.777344 179.433594 197.449219 178.585938 C 197.121094 177.734375 196.714844 176.925781 196.230469 176.15625 C 195.75 175.386719 195.195312 174.671875 194.574219 174.007812 C 193.949219 173.34375 193.269531 172.75 192.53125 172.21875 C 191.796875 171.6875 191.011719 171.230469 190.1875 170.851562 C 189.363281 170.472656 188.507812 170.171875 187.625 169.957031 C 186.742188 169.746094 185.847656 169.617188 184.9375 169.574219 C 184.03125 169.535156 183.125 169.578125 182.226562 169.714844 C 181.328125 169.847656 180.449219 170.066406 179.59375 170.367188 C 178.738281 170.671875 177.917969 171.054688 177.136719 171.515625 C 176.351562 171.976562 175.621094 172.511719 174.941406 173.113281 L 141.976562 197.804688 L 127.878906 197.804688 C 112.136719 197.804688 99.679688 185.34375 99.679688 169.585938 C 99.679688 153.832031 112.136719 141.367188 127.878906 141.367188 L 158.171875 141.367188 L 189.5625 166.5 C 190.285156 167.078125 191.058594 167.582031 191.882812 168.007812 C 192.703125 168.4375 193.558594 168.777344 194.449219 169.035156 C 195.339844 169.292969 196.246094 169.460938 197.167969 169.542969 C 198.089844 169.621094 199.011719 169.609375 199.933594 169.507812 C 200.851562 169.40625 201.753906 169.214844 202.636719 168.933594 C 203.519531 168.652344 204.367188 168.289062 205.179688 167.84375 C 205.992188 167.394531 206.75 166.875 207.460938 166.277344 C 208.167969 165.679688 208.8125 165.019531 209.390625 164.296875 C 209.96875 163.570312 210.472656 162.800781 210.898438 161.976562 C 211.324219 161.152344 211.664062 160.296875 211.921875 159.40625 C 212.179688 158.515625 212.351562 157.609375 212.429688 156.6875 C 212.507812 155.761719 212.496094 154.839844 212.394531 153.917969 C 212.292969 152.996094 212.101562 152.09375 211.820312 151.210938 C 211.542969 150.328125 211.179688 149.480469 210.730469 148.667969 C 210.285156 147.855469 209.761719 147.097656 209.167969 146.386719 C 208.570312 145.679688 207.910156 145.035156 207.1875 144.453125 L 171.9375 116.238281 C 170.6875 115.238281 169.308594 114.472656 167.796875 113.941406 C 166.285156 113.414062 164.726562 113.148438 163.128906 113.148438 L 129.613281 113.148438 L 192.480469 68.203125 C 193.089844 67.785156 193.65625 67.320312 194.191406 66.8125 C 194.726562 66.304688 195.214844 65.757812 195.664062 65.171875 C 196.113281 64.585938 196.511719 63.96875 196.863281 63.320312 C 197.214844 62.671875 197.511719 62 197.757812 61.304688 C 198.003906 60.609375 198.195312 59.898438 198.328125 59.175781 C 198.460938 58.449219 198.539062 57.71875 198.558594 56.980469 C 198.582031 56.246094 198.542969 55.511719 198.449219 54.777344 C 198.351562 54.046875 198.203125 53.328125 197.996094 52.621094 C 197.785156 51.914062 197.523438 51.226562 197.210938 50.558594 C 196.894531 49.894531 196.53125 49.253906 196.113281 48.644531 C 195.699219 48.035156 195.238281 47.464844 194.734375 46.925781 C 194.230469 46.390625 193.683594 45.894531 193.101562 45.445312 C 192.519531 44.992188 191.90625 44.589844 191.261719 44.234375 C 190.613281 43.878906 189.945312 43.574219 189.253906 43.324219 C 188.558594 43.074219 187.851562 42.878906 187.128906 42.738281 C 186.402344 42.601562 185.671875 42.519531 184.9375 42.492188 C 183.347656 42.433594 181.792969 42.640625 180.273438 43.105469 C 178.753906 43.574219 177.351562 44.28125 176.070312 45.222656 L 98.113281 100.941406 L 126.75 34.0625 C 126.992188 33.523438 127.195312 32.972656 127.367188 32.410156 C 127.539062 31.84375 127.675781 31.273438 127.773438 30.691406 C 127.875 30.109375 127.9375 29.527344 127.964844 28.9375 C 127.992188 28.347656 127.980469 27.761719 127.933594 27.171875 C 127.886719 26.585938 127.800781 26.003906 127.683594 25.425781 C 127.5625 24.851562 127.40625 24.28125 127.214844 23.726562 C 127.023438 23.167969 126.800781 22.625 126.539062 22.09375 C 126.28125 21.566406 125.992188 21.054688 125.667969 20.5625 C 125.34375 20.070312 124.992188 19.597656 124.609375 19.152344 C 124.226562 18.703125 123.820312 18.277344 123.386719 17.882812 C 122.949219 17.484375 122.492188 17.117188 122.011719 16.777344 C 121.53125 16.4375 121.03125 16.128906 120.511719 15.851562 C 119.988281 15.574219 119.457031 15.328125 118.90625 15.121094 C 118.355469 14.910156 117.792969 14.734375 117.222656 14.59375 C 116.648438 14.453125 116.070312 14.351562 115.484375 14.285156 C 114.902344 14.21875 114.3125 14.1875 113.726562 14.191406 Z M 311.167969 141.367188 C 309.152344 141.375 307.160156 141.597656 305.191406 142.03125 C 305.128906 142.039062 305.0625 142.046875 305 142.058594 L 249.179688 153.6875 C 243.667969 154.828125 238.703125 157.84375 235.136719 162.203125 L 203.082031 201.359375 L 202.503906 201.9375 C 201.863281 202.582031 201.285156 203.277344 200.777344 204.03125 C 200.265625 204.785156 199.832031 205.578125 199.476562 206.414062 C 199.121094 207.253906 198.851562 208.117188 198.660156 209.003906 C 198.472656 209.894531 198.371094 210.792969 198.355469 211.703125 C 198.339844 212.613281 198.410156 213.515625 198.570312 214.410156 C 198.730469 215.304688 198.972656 216.179688 199.300781 217.027344 C 199.628906 217.875 200.035156 218.683594 200.519531 219.453125 C 201.003906 220.222656 201.554688 220.941406 202.175781 221.601562 C 202.800781 222.265625 203.480469 222.863281 204.21875 223.394531 C 204.953125 223.925781 205.738281 224.378906 206.5625 224.761719 C 207.386719 225.140625 208.242188 225.4375 209.125 225.652344 C 210.007812 225.867188 210.902344 225.996094 211.8125 226.035156 C 212.71875 226.078125 213.625 226.03125 214.523438 225.898438 C 215.421875 225.765625 216.300781 225.546875 217.15625 225.242188 C 218.011719 224.9375 218.832031 224.554688 219.613281 224.09375 C 220.398438 223.632812 221.128906 223.101562 221.808594 222.496094 L 254.773438 197.804688 L 268.871094 197.804688 C 284.613281 197.804688 297.070312 210.269531 297.070312 226.023438 C 297.070312 241.777344 284.613281 254.242188 268.871094 254.242188 L 238.578125 254.242188 L 207.1875 229.109375 C 206.464844 228.53125 205.691406 228.027344 204.867188 227.601562 C 204.046875 227.175781 203.191406 226.832031 202.300781 226.574219 C 201.410156 226.316406 200.503906 226.148438 199.582031 226.070312 C 198.660156 225.988281 197.738281 226 196.816406 226.101562 C 195.898438 226.207031 194.996094 226.398438 194.113281 226.675781 C 193.230469 226.957031 192.382812 227.320312 191.570312 227.769531 C 190.757812 228.214844 190 228.738281 189.289062 229.332031 C 188.582031 229.929688 187.9375 230.589844 187.359375 231.316406 C 186.78125 232.039062 186.277344 232.8125 185.851562 233.632812 C 185.425781 234.457031 185.085938 235.3125 184.828125 236.203125 C 184.570312 237.09375 184.398438 238 184.320312 238.925781 C 184.242188 239.847656 184.253906 240.769531 184.355469 241.691406 C 184.457031 242.613281 184.648438 243.515625 184.929688 244.398438 C 185.207031 245.28125 185.570312 246.128906 186.019531 246.941406 C 186.464844 247.753906 186.988281 248.515625 187.582031 249.222656 C 188.179688 249.933594 188.839844 250.578125 189.5625 251.15625 L 224.8125 279.375 C 226.0625 280.375 227.441406 281.140625 228.953125 281.667969 C 230.464844 282.199219 232.023438 282.460938 233.621094 282.460938 L 267.136719 282.460938 L 204.269531 327.40625 C 203.515625 327.945312 202.820312 328.554688 202.1875 329.230469 C 201.550781 329.90625 200.992188 330.636719 200.5 331.421875 C 200.011719 332.210938 199.601562 333.039062 199.273438 333.90625 C 198.945312 334.773438 198.707031 335.664062 198.554688 336.578125 C 198.402344 337.492188 198.34375 338.414062 198.371094 339.339844 C 198.402344 340.265625 198.519531 341.183594 198.730469 342.085938 C 198.9375 342.988281 199.234375 343.863281 199.613281 344.707031 C 199.996094 345.550781 200.457031 346.351562 200.996094 347.105469 C 201.535156 347.859375 202.140625 348.554688 202.816406 349.191406 C 203.492188 349.824219 204.222656 350.386719 205.007812 350.878906 C 205.792969 351.367188 206.621094 351.777344 207.488281 352.105469 C 208.355469 352.433594 209.246094 352.675781 210.160156 352.828125 C 211.074219 352.980469 211.992188 353.039062 212.917969 353.011719 C 213.84375 352.984375 214.757812 352.863281 215.660156 352.65625 C 216.5625 352.445312 217.4375 352.148438 218.28125 351.769531 C 219.128906 351.386719 219.925781 350.925781 220.679688 350.386719 L 298.636719 294.667969 L 270 361.550781 C 269.632812 362.402344 269.355469 363.28125 269.164062 364.1875 C 268.972656 365.09375 268.871094 366.011719 268.859375 366.941406 C 268.847656 367.867188 268.925781 368.785156 269.09375 369.699219 C 269.265625 370.609375 269.519531 371.496094 269.863281 372.355469 C 270.210938 373.21875 270.632812 374.039062 271.140625 374.816406 C 271.644531 375.59375 272.21875 376.3125 272.867188 376.976562 C 273.515625 377.640625 274.21875 378.234375 274.984375 378.757812 C 275.746094 379.285156 276.554688 379.730469 277.40625 380.09375 C 278.257812 380.460938 279.136719 380.738281 280.042969 380.929688 C 280.949219 381.125 281.867188 381.226562 282.792969 381.238281 C 283.71875 381.25 284.640625 381.167969 285.550781 381 C 286.460938 380.832031 287.347656 380.574219 288.207031 380.230469 C 289.066406 379.886719 289.886719 379.460938 290.664062 378.953125 C 291.441406 378.449219 292.160156 377.871094 292.824219 377.226562 C 293.488281 376.578125 294.082031 375.871094 294.605469 375.105469 C 295.128906 374.34375 295.574219 373.535156 295.941406 372.683594 L 336.144531 278.824219 L 339.367188 277.75 L 339.367188 353.007812 C 339.351562 353.941406 339.433594 354.867188 339.601562 355.789062 C 339.773438 356.707031 340.035156 357.601562 340.382812 358.46875 C 340.730469 359.335938 341.160156 360.160156 341.671875 360.941406 C 342.183594 361.722656 342.769531 362.445312 343.425781 363.113281 C 344.082031 363.777344 344.796875 364.375 345.570312 364.898438 C 346.34375 365.421875 347.160156 365.863281 348.023438 366.222656 C 348.886719 366.585938 349.773438 366.855469 350.691406 367.039062 C 351.605469 367.226562 352.53125 367.316406 353.464844 367.316406 C 354.398438 367.316406 355.324219 367.226562 356.242188 367.039062 C 357.15625 366.855469 358.046875 366.585938 358.90625 366.222656 C 359.769531 365.863281 360.585938 365.421875 361.359375 364.898438 C 362.136719 364.375 362.851562 363.777344 363.507812 363.113281 C 364.164062 362.445312 364.746094 361.722656 365.257812 360.941406 C 365.769531 360.160156 366.199219 359.335938 366.550781 358.46875 C 366.898438 357.601562 367.15625 356.707031 367.328125 355.789062 C 367.5 354.867188 367.578125 353.941406 367.566406 353.007812 L 367.566406 268.351562 L 381.664062 254.242188 L 395.761719 254.242188 L 395.761719 169.585938 L 322.320312 143.710938 C 318.765625 142.164062 315.046875 141.382812 311.167969 141.367188 Z M 311.167969 141.367188 " fill-opacity="1" fill-rule="nonzero"/></g></svg>