<svg xmlns="http://www.w3.org/2000/svg" xmlns:xlink="http://www.w3.org/1999/xlink" width="529" zoomAndPan="magnify" viewBox="0 0 396.75 396.749984" height="529" preserveAspectRatio="xMidYMid meet" version="1.0"><defs><clipPath id="id1"><path d="M 164 9.378906 L 171 9.378906 L 171 33 L 164 33 Z M 164 9.378906 " clip-rule="nonzero"/></clipPath><clipPath id="id2"><path d="M 344 9.378906 L 352 9.378906 L 352 33 L 344 33 Z M 344 9.378906 " clip-rule="nonzero"/></clipPath><clipPath id="id3"><path d="M 57 75 L 396.5 75 L 396.5 321 L 57 321 Z M 57 75 " clip-rule="nonzero"/></clipPath></defs><path fill="#ffffff" d="M 165.898438 125.652344 L 104.558594 160.976562 C 103.054688 161.84375 102.539062 163.761719 103.402344 165.265625 C 103.984375 166.273438 105.039062 166.839844 106.128906 166.839844 C 106.660156 166.839844 107.199219 166.707031 107.695312 166.421875 L 169.035156 131.101562 C 170.539062 130.234375 171.054688 128.3125 170.191406 126.808594 C 169.320312 125.308594 167.40625 124.789062 165.898438 125.652344 Z M 165.898438 125.652344 " fill-opacity="1" fill-rule="nonzero"/><path fill="#ffffff" d="M 54.226562 130.484375 L 38.683594 121.535156 C 37.183594 120.675781 35.265625 121.191406 34.394531 122.691406 C 33.53125 124.195312 34.046875 126.117188 35.550781 126.980469 L 51.089844 135.933594 C 51.582031 136.214844 52.125 136.351562 52.65625 136.351562 C 53.742188 136.351562 54.800781 135.785156 55.382812 134.777344 C 56.246094 133.269531 55.730469 131.351562 54.226562 130.484375 Z M 54.226562 130.484375 " fill-opacity="1" fill-rule="nonzero"/><path fill="#ffffff" d="M 21.425781 111.597656 L 5.023438 102.148438 C 3.519531 101.289062 1.597656 101.800781 0.730469 103.304688 C -0.132812 104.808594 0.382812 106.730469 1.886719 107.597656 L 18.289062 117.042969 C 18.78125 117.324219 19.324219 117.460938 19.851562 117.460938 C 20.941406 117.460938 22 116.894531 22.578125 115.886719 C 23.445312 114.382812 22.929688 112.460938 21.425781 111.597656 Z M 21.425781 111.597656 " fill-opacity="1" fill-rule="nonzero"/><path fill="#ffffff" d="M 51.089844 262.058594 L 35.550781 271.007812 C 34.046875 271.875 33.53125 273.796875 34.394531 275.300781 C 34.976562 276.308594 36.03125 276.875 37.121094 276.875 C 37.652344 276.875 38.191406 276.738281 38.683594 276.457031 L 54.226562 267.507812 C 55.730469 266.640625 56.246094 264.71875 55.382812 263.214844 C 54.515625 261.710938 52.59375 261.199219 51.089844 262.058594 Z M 51.089844 262.058594 " fill-opacity="1" fill-rule="nonzero"/><path fill="#ffffff" d="M 18.289062 280.949219 L 1.886719 290.390625 C 0.382812 291.257812 -0.132812 293.175781 0.730469 294.683594 C 1.3125 295.691406 2.367188 296.257812 3.457031 296.257812 C 3.988281 296.257812 4.53125 296.121094 5.023438 295.839844 L 21.425781 286.394531 C 22.929688 285.527344 23.445312 283.609375 22.578125 282.105469 C 21.710938 280.597656 19.789062 280.085938 18.289062 280.949219 Z M 18.289062 280.949219 " fill-opacity="1" fill-rule="nonzero"/><path fill="#ffffff" d="M 167.46875 331.160156 C 165.734375 331.160156 164.324219 332.566406 164.324219 334.300781 L 164.324219 350.773438 C 164.324219 352.507812 165.734375 353.917969 167.46875 353.917969 C 169.203125 353.917969 170.609375 352.507812 170.609375 350.773438 L 170.609375 334.300781 C 170.609375 332.5625 169.203125 331.160156 167.46875 331.160156 Z M 167.46875 331.160156 " fill-opacity="1" fill-rule="nonzero"/><path fill="#ffffff" d="M 167.46875 364.105469 C 165.734375 364.105469 164.324219 365.515625 164.324219 367.25 L 164.324219 383.722656 C 164.324219 385.457031 165.734375 386.863281 167.46875 386.863281 C 169.203125 386.863281 170.609375 385.457031 170.609375 383.722656 L 170.609375 367.25 C 170.609375 365.515625 169.203125 364.105469 167.46875 364.105469 Z M 167.46875 364.105469 " fill-opacity="1" fill-rule="nonzero"/><path fill="#ffffff" d="M 347.878906 331.160156 C 346.144531 331.160156 344.734375 332.566406 344.734375 334.300781 L 344.734375 350.773438 C 344.734375 352.507812 346.144531 353.917969 347.878906 353.917969 C 349.609375 353.917969 351.019531 352.507812 351.019531 350.773438 L 351.019531 334.300781 C 351.019531 332.5625 349.609375 331.160156 347.878906 331.160156 Z M 347.878906 331.160156 " fill-opacity="1" fill-rule="nonzero"/><path fill="#ffffff" d="M 347.878906 364.105469 C 346.144531 364.105469 344.734375 365.515625 344.734375 367.25 L 344.734375 383.722656 C 344.734375 385.457031 346.144531 386.863281 347.878906 386.863281 C 349.609375 386.863281 351.019531 385.457031 351.019531 383.722656 L 351.019531 367.25 C 351.019531 365.515625 349.609375 364.105469 347.878906 364.105469 Z M 347.878906 364.105469 " fill-opacity="1" fill-rule="nonzero"/><g clip-path="url(#id1)"><path fill="#ffffff" d="M 167.46875 32.652344 C 169.203125 32.652344 170.609375 31.246094 170.609375 29.511719 L 170.609375 13.039062 C 170.609375 11.304688 169.203125 9.894531 167.46875 9.894531 C 165.734375 9.894531 164.324219 11.304688 164.324219 13.039062 L 164.324219 29.511719 C 164.324219 31.246094 165.730469 32.652344 167.46875 32.652344 Z M 167.46875 32.652344 " fill-opacity="1" fill-rule="nonzero"/></g><path fill="#ffffff" d="M 167.46875 65.621094 C 169.203125 65.621094 170.609375 64.214844 170.609375 62.480469 L 170.609375 45.984375 C 170.609375 44.25 169.203125 42.84375 167.46875 42.84375 C 165.734375 42.84375 164.324219 44.25 164.324219 45.984375 L 164.324219 62.480469 C 164.324219 64.21875 165.730469 65.621094 167.46875 65.621094 Z M 167.46875 65.621094 " fill-opacity="1" fill-rule="nonzero"/><g clip-path="url(#id2)"><path fill="#ffffff" d="M 347.878906 32.652344 C 349.609375 32.652344 351.019531 31.246094 351.019531 29.511719 L 351.019531 13.039062 C 351.019531 11.304688 349.609375 9.894531 347.878906 9.894531 C 346.144531 9.894531 344.734375 11.304688 344.734375 13.039062 L 344.734375 29.511719 C 344.734375 31.246094 346.144531 32.652344 347.878906 32.652344 Z M 347.878906 32.652344 " fill-opacity="1" fill-rule="nonzero"/></g><path fill="#ffffff" d="M 347.878906 65.621094 C 349.609375 65.621094 351.019531 64.214844 351.019531 62.480469 L 351.019531 45.984375 C 351.019531 44.25 349.609375 42.84375 347.878906 42.84375 C 346.144531 42.84375 344.734375 44.25 344.734375 45.984375 L 344.734375 62.480469 C 344.734375 64.21875 346.144531 65.621094 347.878906 65.621094 Z M 347.878906 65.621094 " fill-opacity="1" fill-rule="nonzero"/><g clip-path="url(#id3)"><path fill="#ffffff" d="M 391.414062 272.65625 L 363.039062 288.996094 C 359.449219 284.570312 353.988281 281.738281 347.878906 281.738281 C 341.765625 281.738281 336.304688 284.574219 332.71875 288.996094 L 275.410156 255.996094 C 276.554688 253.5 277.214844 250.734375 277.214844 247.8125 C 277.214844 238.074219 270.097656 229.992188 260.816406 228.472656 L 260.816406 168.308594 C 270.097656 166.789062 277.214844 158.710938 277.214844 148.96875 C 277.214844 146.042969 276.554688 143.28125 275.410156 140.785156 L 332.71875 107.785156 C 336.304688 112.210938 341.765625 115.046875 347.878906 115.046875 C 353.988281 115.046875 359.449219 112.207031 363.039062 107.785156 L 391.414062 124.125 C 391.90625 124.40625 392.445312 124.542969 392.976562 124.542969 C 394.0625 124.542969 395.121094 123.976562 395.703125 122.96875 C 396.566406 121.464844 396.050781 119.542969 394.546875 118.675781 L 366.148438 102.324219 C 366.957031 100.175781 367.421875 97.859375 367.421875 95.429688 C 367.421875 84.613281 358.65625 75.816406 347.878906 75.816406 C 337.105469 75.816406 328.339844 84.613281 328.339844 95.429688 C 328.339844 97.859375 328.800781 100.175781 329.609375 102.324219 L 271.894531 135.558594 C 268.324219 131.75 263.277344 129.355469 257.675781 129.355469 C 252.070312 129.355469 247.019531 131.75 243.453125 135.558594 L 185.738281 102.324219 C 186.542969 100.175781 187.007812 97.859375 187.007812 95.425781 C 187.007812 84.609375 178.242188 75.8125 167.46875 75.8125 C 156.691406 75.8125 147.925781 84.609375 147.925781 95.425781 C 147.925781 97.855469 148.386719 100.171875 149.199219 102.324219 L 91.480469 135.558594 C 87.914062 131.746094 82.863281 129.355469 77.257812 129.355469 C 66.484375 129.355469 57.714844 138.152344 57.714844 148.96875 C 57.714844 158.707031 64.832031 166.789062 74.117188 168.308594 L 74.117188 228.472656 C 64.832031 229.992188 57.714844 238.070312 57.714844 247.8125 C 57.714844 258.628906 66.484375 267.425781 77.257812 267.425781 C 82.863281 267.425781 87.914062 265.03125 91.480469 261.222656 L 149.191406 294.457031 C 148.382812 296.605469 147.917969 298.921875 147.917969 301.355469 C 147.917969 312.171875 156.6875 320.96875 167.460938 320.96875 C 178.234375 320.96875 187.003906 312.171875 187.003906 301.355469 C 187.003906 298.925781 186.542969 296.609375 185.730469 294.460938 L 243.445312 261.226562 C 247.011719 265.035156 252.058594 267.429688 257.667969 267.429688 C 263.273438 267.429688 268.324219 265.035156 271.890625 261.226562 L 329.605469 294.460938 C 328.796875 296.609375 328.332031 298.925781 328.332031 301.355469 C 328.332031 312.171875 337.097656 320.96875 347.875 320.96875 C 358.648438 320.96875 367.417969 312.171875 367.417969 301.355469 C 367.417969 298.925781 366.953125 296.609375 366.144531 294.460938 L 394.542969 278.105469 C 396.046875 277.238281 396.5625 275.320312 395.699219 273.8125 C 394.835938 272.3125 392.917969 271.792969 391.414062 272.65625 Z M 347.878906 82.09375 C 355.191406 82.09375 361.136719 88.078125 361.136719 95.425781 C 361.136719 102.777344 355.1875 108.757812 347.878906 108.757812 C 340.566406 108.757812 334.617188 102.777344 334.617188 95.425781 C 334.617188 88.078125 340.566406 82.09375 347.878906 82.09375 Z M 257.671875 135.636719 C 264.984375 135.636719 270.929688 141.617188 270.929688 148.96875 C 270.929688 156.320312 264.980469 162.300781 257.671875 162.300781 C 250.359375 162.300781 244.410156 156.320312 244.410156 148.96875 C 244.410156 141.617188 250.359375 135.636719 257.671875 135.636719 Z M 167.46875 82.09375 C 174.78125 82.09375 180.726562 88.078125 180.726562 95.425781 C 180.726562 102.777344 174.777344 108.757812 167.46875 108.757812 C 160.15625 108.757812 154.207031 102.777344 154.207031 95.425781 C 154.207031 88.078125 160.15625 82.09375 167.46875 82.09375 Z M 64 148.96875 C 64 141.617188 69.949219 135.636719 77.261719 135.636719 C 84.570312 135.636719 90.519531 141.617188 90.519531 148.96875 C 90.519531 156.320312 84.570312 162.300781 77.261719 162.300781 C 69.949219 162.300781 64 156.320312 64 148.96875 Z M 77.261719 261.144531 C 69.949219 261.144531 64 255.164062 64 247.8125 C 64 240.460938 69.949219 234.480469 77.261719 234.480469 C 84.570312 234.480469 90.519531 240.460938 90.519531 247.8125 C 90.519531 255.164062 84.570312 261.144531 77.261719 261.144531 Z M 167.46875 314.683594 C 160.15625 314.683594 154.207031 308.703125 154.207031 301.351562 C 154.207031 294 160.15625 288.019531 167.46875 288.019531 C 174.777344 288.019531 180.726562 294 180.726562 301.351562 C 180.726562 308.703125 174.777344 314.683594 167.46875 314.683594 Z M 182.628906 288.996094 C 179.039062 284.570312 173.582031 281.738281 167.46875 281.738281 C 161.355469 281.738281 155.894531 284.574219 152.308594 288.996094 L 94.996094 255.996094 C 96.144531 253.5 96.804688 250.734375 96.804688 247.8125 C 96.804688 238.074219 89.683594 229.992188 80.402344 228.472656 L 80.402344 168.308594 C 89.683594 166.789062 96.804688 158.710938 96.804688 148.96875 C 96.804688 146.042969 96.148438 143.28125 94.996094 140.785156 L 152.308594 107.785156 C 155.894531 112.207031 161.355469 115.046875 167.46875 115.046875 C 173.582031 115.046875 179.039062 112.207031 182.628906 107.785156 L 239.933594 140.785156 C 238.789062 143.28125 238.128906 146.046875 238.128906 148.96875 C 238.128906 158.707031 245.246094 166.789062 254.53125 168.308594 L 254.53125 228.472656 C 245.246094 229.992188 238.128906 238.070312 238.128906 247.8125 C 238.128906 250.738281 238.785156 253.5 239.933594 255.996094 Z M 257.671875 261.144531 C 250.359375 261.144531 244.410156 255.164062 244.410156 247.8125 C 244.410156 240.460938 250.359375 234.480469 257.671875 234.480469 C 264.980469 234.480469 270.929688 240.460938 270.929688 247.8125 C 270.929688 255.164062 264.984375 261.144531 257.671875 261.144531 Z M 347.878906 314.683594 C 340.5625 314.683594 334.617188 308.703125 334.617188 301.351562 C 334.617188 294 340.566406 288.019531 347.878906 288.019531 C 355.1875 288.019531 361.136719 294 361.136719 301.351562 C 361.136719 308.703125 355.191406 314.683594 347.878906 314.683594 Z M 347.878906 314.683594 " fill-opacity="1" fill-rule="nonzero"/></g><path fill="#ffffff" d="M 287.941406 232.628906 C 286.4375 231.761719 284.519531 232.28125 283.648438 233.785156 C 282.785156 235.289062 283.300781 237.207031 284.804688 238.074219 L 342.210938 271.128906 C 342.703125 271.410156 343.242188 271.546875 343.773438 271.546875 C 344.863281 271.546875 345.921875 270.980469 346.5 269.972656 C 347.363281 268.46875 346.851562 266.546875 345.34375 265.679688 Z M 287.941406 232.628906 " fill-opacity="1" fill-rule="nonzero"/></svg>