<svg xmlns="http://www.w3.org/2000/svg" xmlns:xlink="http://www.w3.org/1999/xlink" width="529" zoomAndPan="magnify" viewBox="0 0 396.75 396.749984" height="529" preserveAspectRatio="xMidYMid meet" version="1.0"><defs><clipPath id="id1"><path d="M 97 104 L 393.75 104 L 393.75 396.5 L 97 396.5 Z M 97 104 " clip-rule="nonzero"/></clipPath></defs><path fill="#ffffff" d="M 123.300781 154.375 C 130.71875 161.917969 139.097656 164.226562 146.605469 160.96875 L 159.183594 173.710938 C 159.78125 174.316406 160.589844 174.648438 161.421875 174.648438 C 161.632812 174.648438 161.84375 174.625 162.050781 174.582031 L 179.238281 171.089844 C 180.367188 170.863281 181.285156 170.03125 181.625 168.925781 C 181.957031 167.816406 181.664062 166.621094 180.847656 165.792969 C 180.847656 165.792969 167.363281 152.148438 161.355469 146.078125 C 164.683594 138.363281 162.566406 129.679688 155.492188 122.355469 C 155.488281 122.351562 155.480469 122.34375 155.472656 122.335938 C 155.398438 122.257812 155.339844 122.171875 155.261719 122.09375 L 85.265625 51.1875 L 89.96875 46.441406 C 91.183594 45.214844 91.1875 43.238281 89.972656 42.011719 L 74.484375 26.332031 C 73.890625 25.738281 73.089844 25.398438 72.246094 25.398438 C 72.242188 25.398438 72.242188 25.398438 72.238281 25.398438 C 71.394531 25.398438 70.589844 25.738281 69.996094 26.34375 L 67.105469 29.285156 L 44.488281 6.371094 C 40.433594 2.265625 35.046875 0 29.3125 0 C 23.574219 0 18.183594 2.265625 14.128906 6.371094 L 9.0625 11.503906 C 0.726562 19.949219 0.726562 33.703125 9.066406 42.15625 L 31.746094 65.097656 L 28.769531 68.113281 C 27.558594 69.339844 27.5625 71.316406 28.773438 72.539062 L 44.261719 88.21875 C 44.851562 88.816406 45.65625 89.15625 46.5 89.15625 C 47.34375 89.15625 48.148438 88.820312 48.738281 88.21875 L 53.359375 83.527344 Z M 80.839844 55.667969 L 147.015625 122.703125 L 110.808594 132.765625 L 57.785156 79.050781 Z M 13.546875 15.925781 L 18.609375 10.792969 C 21.46875 7.894531 25.269531 6.296875 29.3125 6.296875 C 33.351562 6.296875 37.148438 7.894531 40.007812 10.792969 L 62.691406 33.773438 L 36.171875 60.621094 L 13.542969 37.730469 C 7.613281 31.71875 7.613281 21.9375 13.546875 15.925781 Z M 13.546875 15.925781 " fill-opacity="1" fill-rule="nonzero"/><g clip-path="url(#id1)"><path fill="#ffffff" d="M 385.773438 121.453125 C 380.988281 116.628906 374.664062 113.972656 367.957031 113.972656 L 231.78125 113.972656 C 229.945312 108.039062 224.527344 103.820312 218.789062 104.386719 C 214.441406 104.851562 210.5 108.167969 208.75 112.835938 C 208.621094 113.1875 208.554688 113.5625 208.554688 113.941406 L 208.554688 162.429688 C 204.433594 165.535156 200.851562 169.222656 197.941406 173.5 C 195.164062 177.648438 193.125 182.21875 191.765625 187.085938 L 162.121094 187.085938 C 156.136719 187.085938 151.261719 192.003906 151.261719 198.042969 C 151.261719 204.101562 156.136719 209.03125 162.121094 209.03125 L 162.84375 209.03125 L 162.84375 286.90625 L 101.757812 364.265625 C 101.691406 364.351562 101.625 364.445312 101.566406 364.539062 C 99.820312 367.304688 97.652344 371.835938 97.21875 377.695312 C 96.589844 385.910156 99.667969 392.222656 101.558594 395.25 C 102.136719 396.171875 103.144531 396.730469 104.230469 396.730469 L 289.484375 396.730469 C 290.570312 396.730469 291.578125 396.171875 292.15625 395.25 C 294.046875 392.222656 297.125 385.910156 296.496094 377.703125 C 296.0625 371.839844 293.894531 367.304688 292.148438 364.539062 C 292.089844 364.445312 292.027344 364.351562 291.957031 364.265625 L 230.867188 286.910156 L 230.867188 209.035156 L 231.589844 209.035156 C 237.578125 209.035156 242.449219 204.105469 242.449219 198.046875 C 242.449219 192.003906 237.578125 187.089844 231.589844 187.089844 L 218.558594 187.089844 L 218.558594 174.59375 C 218.640625 174.605469 218.71875 174.625 218.800781 174.636719 C 219.15625 174.675781 219.519531 174.691406 219.871094 174.691406 C 225.183594 174.691406 230.0625 170.644531 231.785156 165.046875 L 367.957031 165.046875 C 381.839844 165.046875 393.136719 153.589844 393.136719 139.511719 C 393.140625 132.695312 390.527344 126.285156 385.773438 121.453125 Z M 231.589844 193.382812 C 234.109375 193.382812 236.152344 195.476562 236.152344 198.042969 C 236.152344 200.675781 234.148438 202.734375 231.589844 202.734375 L 227.722656 202.734375 C 225.980469 202.734375 224.574219 204.140625 224.574219 205.882812 L 224.574219 288.003906 C 224.574219 288.710938 224.8125 289.398438 225.25 289.957031 L 286.90625 368.035156 C 288.253906 370.207031 289.886719 373.691406 290.214844 378.175781 C 290.621094 383.476562 289.054688 387.761719 287.65625 390.4375 L 106.054688 390.4375 C 104.660156 387.761719 103.09375 383.476562 103.496094 378.167969 C 103.824219 373.695312 105.457031 370.210938 106.804688 368.039062 L 168.460938 289.957031 C 168.898438 289.402344 169.140625 288.710938 169.140625 288.007812 L 169.140625 205.886719 C 169.140625 204.144531 167.730469 202.738281 165.992188 202.738281 L 162.121094 202.738281 C 159.5625 202.738281 157.558594 200.675781 157.558594 198.046875 C 157.558594 195.476562 159.605469 193.386719 162.121094 193.386719 L 190.414062 193.386719 C 190.210938 194.855469 190.058594 196.339844 189.980469 197.859375 L 189.980469 241.125 C 189.980469 245.964844 193.894531 249.910156 198.703125 249.910156 C 200.042969 249.910156 201.128906 251.023438 201.128906 252.394531 L 201.128906 274.972656 C 201.128906 279.835938 205.039062 283.789062 209.847656 283.789062 C 214.65625 283.789062 218.570312 279.835938 218.570312 274.972656 L 218.570312 193.386719 L 231.589844 193.386719 Z M 229.230469 158.746094 C 227.613281 158.746094 226.265625 159.964844 226.097656 161.570312 C 225.644531 165.933594 222.210938 168.636719 219.421875 168.363281 C 218.683594 168.292969 217.953125 168 217.226562 167.476562 C 216.265625 166.800781 215.417969 165.726562 214.847656 164.476562 L 214.847656 114.558594 C 215.820312 112.394531 217.621094 110.84375 219.425781 110.652344 C 222.195312 110.371094 225.648438 113.109375 226.101562 117.449219 C 226.265625 119.054688 227.617188 120.269531 229.230469 120.269531 L 338.851562 120.269531 C 328.734375 127.351562 318.320312 133.625 307.769531 138.898438 C 289.402344 148.125 270.214844 154.800781 250.734375 158.746094 Z M 229.230469 158.746094 " fill-opacity="1" fill-rule="nonzero"/></g><path fill="#ffffff" d="M 185.726562 276.261719 C 191.542969 276.261719 196.273438 271.472656 196.273438 265.582031 C 196.273438 259.695312 191.542969 254.910156 185.726562 254.910156 C 179.894531 254.910156 175.152344 259.699219 175.152344 265.582031 C 175.152344 271.46875 179.894531 276.261719 185.726562 276.261719 Z M 185.726562 276.261719 " fill-opacity="1" fill-rule="nonzero"/><path fill="#ffffff" d="M 201.121094 299.4375 C 201.121094 305.320312 205.867188 310.113281 211.699219 310.113281 C 217.527344 310.113281 222.273438 305.324219 222.273438 299.4375 C 222.273438 293.546875 217.527344 288.761719 211.699219 288.761719 C 205.867188 288.761719 201.121094 293.550781 201.121094 299.4375 Z M 201.121094 299.4375 " fill-opacity="1" fill-rule="nonzero"/><path fill="#ffffff" d="M 222.273438 325.792969 C 222.273438 319.90625 217.527344 315.117188 211.699219 315.117188 C 208.882812 315.117188 206.226562 316.230469 204.21875 318.242188 C 202.21875 320.234375 201.121094 322.914062 201.121094 325.789062 C 201.121094 326.980469 200.675781 328.082031 199.871094 328.882812 C 199.285156 329.46875 198.285156 330.164062 196.839844 330.164062 C 195.714844 330.164062 194.660156 329.71875 193.839844 328.878906 C 193.035156 328.078125 192.59375 326.980469 192.59375 325.789062 L 192.59375 303.210938 C 192.59375 297.328125 187.847656 292.539062 182.015625 292.539062 C 179.195312 292.539062 176.460938 293.6875 174.535156 295.664062 C 172.539062 297.660156 171.445312 300.335938 171.445312 303.207031 L 171.445312 325.785156 C 171.445312 328.199219 169.523438 330.164062 167.164062 330.164062 L 154.445312 330.164062 C 151.347656 330.164062 148.402344 331.535156 146.359375 333.945312 L 126.75 357.492188 C 126.679688 357.578125 126.613281 357.671875 126.550781 357.761719 C 125.214844 359.765625 123.550781 363.0625 123.203125 367.398438 C 122.777344 373.03125 124.777344 377.449219 126.527344 380.175781 C 127.109375 381.070312 128.105469 381.617188 129.175781 381.617188 L 264.566406 381.617188 C 265.636719 381.617188 266.632812 381.070312 267.214844 380.175781 C 268.964844 377.453125 270.960938 373.03125 270.539062 367.382812 C 270.1875 363.066406 268.523438 359.769531 267.1875 357.765625 C 267.125 357.671875 267.058594 357.582031 266.992188 357.496094 L 250.527344 337.722656 C 248.507812 335.300781 245.550781 333.914062 242.410156 333.914062 L 226.578125 333.914062 C 224.21875 333.914062 222.296875 331.949219 222.296875 329.535156 L 222.296875 325.792969 Z M 226.554688 340.214844 L 242.390625 340.214844 C 243.652344 340.214844 244.847656 340.777344 245.667969 341.757812 L 262.015625 361.390625 C 262.921875 362.789062 264.011719 365.011719 264.242188 367.875 C 264.46875 370.902344 263.671875 373.445312 262.726562 375.324219 L 130.980469 375.324219 C 130.03125 373.441406 129.238281 370.90625 129.464844 367.894531 C 129.695312 365.015625 130.785156 362.789062 131.691406 361.394531 L 151.171875 338.003906 C 152 337.027344 153.1875 336.46875 154.433594 336.46875 L 167.152344 336.46875 C 172.984375 336.46875 177.730469 331.679688 177.730469 325.792969 L 177.730469 303.214844 C 177.730469 302.023438 178.171875 300.925781 179.003906 300.09375 C 179.78125 299.296875 180.878906 298.839844 182.007812 298.839844 C 184.367188 298.839844 186.289062 300.804688 186.289062 303.21875 L 186.289062 325.792969 C 186.289062 328.667969 187.390625 331.355469 189.359375 333.320312 C 191.316406 335.324219 194.042969 336.472656 196.835938 336.472656 C 199.644531 336.472656 202.296875 335.359375 204.3125 333.347656 C 206.3125 331.355469 207.410156 328.671875 207.410156 325.796875 C 207.410156 324.609375 207.855469 323.507812 208.664062 322.703125 C 209.488281 321.878906 210.566406 321.425781 211.691406 321.425781 C 214.054688 321.425781 215.96875 323.386719 215.96875 325.800781 L 215.96875 329.546875 C 215.976562 335.425781 220.722656 340.214844 226.554688 340.214844 Z M 226.554688 340.214844 " fill-opacity="1" fill-rule="nonzero"/><path fill="#ffffff" d="M 182.011719 348.96875 C 171.746094 348.96875 164.003906 353.554688 164.003906 359.640625 C 164.003906 365.726562 171.746094 370.320312 182.011719 370.320312 C 192.257812 370.320312 199.984375 365.726562 199.984375 359.640625 C 199.984375 353.554688 192.257812 348.96875 182.011719 348.96875 Z M 182.011719 348.96875 " fill-opacity="1" fill-rule="nonzero"/><path fill="#ffffff" d="M 208.550781 355.894531 C 208.550781 361.980469 216.292969 366.570312 226.554688 366.570312 C 236.820312 366.570312 244.5625 361.980469 244.5625 355.894531 C 244.5625 349.808594 236.820312 345.21875 226.554688 345.21875 C 216.292969 345.21875 208.550781 349.8125 208.550781 355.894531 Z M 208.550781 355.894531 " fill-opacity="1" fill-rule="nonzero"/></svg>