<svg xmlns="http://www.w3.org/2000/svg" xmlns:xlink="http://www.w3.org/1999/xlink" width="529" zoomAndPan="magnify" viewBox="0 0 396.75 396.749984" height="529" preserveAspectRatio="xMidYMid meet" version="1.0"><defs><clipPath id="id1"><path d="M 0 0 L 300 0 L 300 396.5 L 0 396.5 Z M 0 0 " clip-rule="nonzero"/></clipPath><clipPath id="id2"><path d="M 132 41 L 396.5 41 L 396.5 286 L 132 286 Z M 132 41 " clip-rule="nonzero"/></clipPath></defs><g clip-path="url(#id1)"><path fill="#ffffff" d="M 47.386719 396.59375 L 252.421875 396.59375 C 278.4375 396.59375 299.808594 373.054688 299.808594 343.941406 C 299.808594 332.171875 296.402344 321.023438 289.898438 311.730469 C 289.898438 311.730469 289.585938 311.421875 289.585938 311.421875 C 289.585938 311.113281 289.277344 311.113281 288.96875 310.804688 C 288.96875 310.804688 288.65625 310.492188 288.347656 310.492188 C 288.347656 310.492188 288.039062 310.183594 287.730469 310.183594 C 287.417969 310.183594 287.417969 309.875 287.109375 309.875 C 286.800781 309.875 286.800781 309.5625 286.488281 309.5625 C 286.179688 309.5625 286.179688 309.5625 285.871094 309.253906 C 285.5625 309.253906 285.5625 309.253906 285.25 308.945312 C 284.941406 308.945312 284.632812 308.945312 284.632812 308.945312 C 284.632812 308.945312 284.320312 308.945312 284.320312 308.945312 L 79.289062 308.945312 C 78.976562 308.945312 78.667969 308.945312 78.359375 308.945312 C 78.359375 308.945312 78.050781 308.945312 78.050781 308.945312 C 78.050781 308.945312 77.738281 308.945312 77.738281 308.945312 C 77.429688 308.945312 77.121094 308.945312 76.808594 309.253906 C 76.5 309.253906 76.191406 309.5625 75.882812 309.875 C 75.882812 309.875 75.570312 310.183594 75.570312 310.183594 C 75.261719 310.183594 75.261719 310.492188 74.953125 310.804688 C 74.953125 310.804688 74.640625 311.113281 74.640625 311.421875 C 74.640625 311.421875 74.332031 311.730469 74.332031 311.730469 C 74.332031 312.042969 74.023438 312.042969 74.023438 312.351562 C 74.023438 312.660156 73.714844 312.660156 73.714844 312.972656 C 73.714844 313.28125 73.714844 313.28125 73.402344 313.589844 C 73.402344 313.898438 73.402344 313.898438 73.09375 314.210938 C 73.09375 314.519531 73.09375 314.828125 73.09375 315.140625 C 73.09375 315.140625 73.09375 315.449219 73.09375 315.449219 C 73.09375 315.757812 73.09375 316.066406 73.09375 316.6875 C 73.09375 316.996094 73.09375 316.996094 73.402344 317.308594 C 73.402344 317.617188 73.402344 317.617188 73.714844 317.925781 C 73.714844 318.234375 74.023438 318.546875 74.332031 318.855469 C 79.289062 325.980469 82.074219 334.960938 82.074219 344.253906 C 82.074219 366.550781 66.589844 384.515625 47.386719 384.515625 C 28.183594 384.515625 12.699219 366.550781 12.699219 344.253906 L 12.699219 42.894531 C 68.449219 44.136719 96.632812 59.621094 126.367188 76.035156 C 148.976562 88.734375 172.511719 101.433594 208.132812 107.316406 C 211.539062 103.601562 215.253906 99.882812 218.972656 96.476562 C 180.566406 91.523438 157.027344 78.824219 132.558594 65.195312 C 102.515625 48.78125 71.546875 31.4375 12.699219 30.507812 L 12.699219 18.738281 C 12.699219 15.332031 15.484375 12.542969 18.894531 12.542969 L 239.722656 12.542969 C 243.128906 12.542969 245.917969 15.332031 245.917969 18.738281 L 245.917969 74.179688 C 250.253906 71.082031 254.277344 68.292969 258.617188 65.816406 L 258.617188 18.738281 C 258.617188 8.515625 250.253906 0.15625 239.722656 0.15625 L 18.894531 0.15625 C 8.363281 0.15625 0 8.515625 0 18.738281 L 0 343.941406 C 0 373.054688 21.371094 396.59375 47.386719 396.59375 Z M 94.773438 343.941406 C 94.773438 335.890625 93.226562 328.148438 90.128906 321.332031 L 281.226562 321.332031 C 285.25 328.148438 287.417969 335.890625 287.417969 343.941406 C 287.417969 366.242188 271.933594 384.207031 252.730469 384.207031 L 77.738281 384.207031 C 87.960938 374.605469 94.773438 360.046875 94.773438 343.941406 Z M 94.773438 343.941406 " fill-opacity="1" fill-rule="nonzero"/></g><path fill="#ffffff" d="M 252.421875 297.484375 C 255.828125 297.484375 258.617188 294.699219 258.617188 291.289062 L 258.617188 238.949219 C 254.277344 240.804688 250.253906 242.046875 245.917969 242.976562 L 245.917969 291.289062 C 245.917969 294.699219 249.015625 297.484375 252.421875 297.484375 Z M 252.421875 297.484375 " fill-opacity="1" fill-rule="nonzero"/><path fill="#ffffff" d="M 139.683594 244.832031 L 31.589844 244.832031 C 28.183594 244.832031 25.398438 247.621094 25.398438 251.027344 C 25.398438 254.433594 28.183594 257.222656 31.589844 257.222656 L 130.082031 257.222656 C 132.558594 253.503906 135.964844 249.167969 139.683594 244.832031 Z M 139.683594 244.832031 " fill-opacity="1" fill-rule="nonzero"/><path fill="#ffffff" d="M 31.589844 275.804688 C 28.183594 275.804688 25.398438 278.59375 25.398438 282 C 25.398438 285.40625 28.183594 288.195312 31.589844 288.195312 L 122.339844 288.195312 C 120.171875 284.476562 119.242188 280.140625 120.171875 275.804688 Z M 31.589844 275.804688 " fill-opacity="1" fill-rule="nonzero"/><path fill="#ffffff" d="M 215.5625 246.382812 C 211.226562 246.382812 207.203125 246.691406 203.175781 247 C 194.8125 247.621094 186.761719 251.957031 180.257812 257.222656 L 227.332031 257.222656 C 230.742188 257.222656 233.527344 254.433594 233.527344 251.027344 C 233.527344 248.859375 232.289062 246.691406 230.429688 245.761719 C 225.476562 246.070312 220.519531 246.382812 215.5625 246.382812 Z M 215.5625 246.382812 " fill-opacity="1" fill-rule="nonzero"/><path fill="#ffffff" d="M 31.589844 226.25 L 144.949219 226.25 C 144.640625 223.773438 144.949219 221.292969 145.566406 219.125 C 146.1875 217.269531 146.808594 215.71875 147.117188 213.859375 L 31.589844 213.859375 C 28.183594 213.859375 25.398438 216.648438 25.398438 220.054688 C 25.398438 223.460938 28.183594 226.25 31.589844 226.25 Z M 31.589844 226.25 " fill-opacity="1" fill-rule="nonzero"/><path fill="#ffffff" d="M 31.589844 164.304688 L 168.175781 164.304688 C 170.34375 159.96875 172.824219 155.945312 174.992188 151.917969 L 31.589844 151.917969 C 28.183594 151.917969 25.398438 154.703125 25.398438 158.113281 C 25.398438 161.519531 28.183594 164.304688 31.589844 164.304688 Z M 31.589844 164.304688 " fill-opacity="1" fill-rule="nonzero"/><path fill="#ffffff" d="M 31.589844 133.335938 L 187.070312 133.335938 C 190.167969 129 193.265625 124.972656 196.363281 120.945312 L 31.589844 120.945312 C 28.183594 120.945312 25.398438 123.734375 25.398438 127.140625 C 25.398438 130.546875 28.183594 133.335938 31.589844 133.335938 Z M 31.589844 133.335938 " fill-opacity="1" fill-rule="nonzero"/><path fill="#ffffff" d="M 31.589844 195.277344 L 153.929688 195.277344 C 155.480469 190.941406 157.335938 186.914062 159.195312 182.890625 L 31.589844 182.890625 C 28.183594 182.890625 25.398438 185.675781 25.398438 189.082031 C 25.398438 192.492188 28.183594 195.277344 31.589844 195.277344 Z M 31.589844 195.277344 " fill-opacity="1" fill-rule="nonzero"/><g clip-path="url(#id2)"><path fill="#ffffff" d="M 396.441406 46.921875 C 395.820312 44.136719 393.652344 41.96875 390.554688 41.65625 C 388.699219 41.65625 346.265625 39.179688 296.089844 60.550781 C 249.941406 80.0625 188.308594 124.042969 157.648438 222.53125 C 156.71875 225.628906 158.265625 228.726562 161.054688 229.964844 C 163.839844 231.207031 167.25 230.277344 169.105469 227.488281 C 169.417969 226.871094 211.847656 161.207031 278.4375 151.609375 C 281.84375 150.988281 284.320312 147.890625 283.703125 144.484375 C 283.082031 141.078125 279.984375 138.910156 276.578125 139.21875 C 235.386719 145.722656 203.175781 170.5 183.042969 191.25 C 208.132812 134.574219 247.773438 94.621094 300.738281 72.011719 C 326.753906 60.859375 350.910156 56.523438 367.636719 54.976562 C 349.363281 71.082031 337.59375 94.621094 329.851562 110.105469 L 327.992188 114.132812 C 273.792969 220.363281 246.535156 220.984375 214.945312 221.605469 C 210.609375 221.605469 205.964844 221.914062 201.316406 222.222656 C 159.816406 225.628906 134.417969 273.945312 133.179688 276.113281 C 131.628906 279.210938 132.871094 282.929688 135.964844 284.476562 C 136.894531 284.785156 137.824219 285.097656 138.753906 285.097656 C 140.921875 285.097656 143.398438 283.859375 144.328125 281.691406 C 144.640625 281.378906 167.558594 237.398438 202.246094 234.613281 C 206.582031 234.300781 210.917969 234.300781 215.253906 233.992188 C 249.632812 233.375 281.84375 232.445312 338.832031 119.398438 L 341 115.371094 C 350.601562 96.167969 366.707031 63.957031 392.722656 53.425781 C 395.203125 52.496094 396.75 49.710938 396.441406 46.921875 Z M 396.441406 46.921875 " fill-opacity="1" fill-rule="nonzero"/></g></svg>