<svg xmlns="http://www.w3.org/2000/svg" xmlns:xlink="http://www.w3.org/1999/xlink" width="529" zoomAndPan="magnify" viewBox="0 0 396.75 396.749984" height="529" preserveAspectRatio="xMidYMid meet" version="1.0"><defs><clipPath id="id1"><path d="M 3 0 L 396.5 0 L 396.5 396.5 L 3 396.5 Z M 3 0 " clip-rule="nonzero"/></clipPath></defs><path fill="#ffffff" d="M 182.542969 108.785156 C 182.542969 109.414062 182.574219 110.042969 182.636719 110.667969 C 182.695312 111.292969 182.789062 111.914062 182.910156 112.53125 C 183.035156 113.148438 183.1875 113.757812 183.371094 114.359375 C 183.550781 114.960938 183.765625 115.550781 184.003906 116.132812 C 184.246094 116.714844 184.515625 117.28125 184.8125 117.835938 C 185.105469 118.390625 185.429688 118.929688 185.78125 119.453125 C 186.128906 119.976562 186.503906 120.480469 186.902344 120.964844 C 187.300781 121.453125 187.722656 121.917969 188.167969 122.359375 C 188.613281 122.804688 189.078125 123.226562 189.566406 123.625 C 190.050781 124.023438 190.554688 124.398438 191.078125 124.75 C 191.601562 125.097656 192.140625 125.421875 192.695312 125.71875 C 193.25 126.011719 193.820312 126.28125 194.398438 126.523438 C 194.980469 126.761719 195.574219 126.976562 196.175781 127.15625 C 196.777344 127.339844 197.386719 127.492188 198.003906 127.613281 C 198.621094 127.738281 199.242188 127.828125 199.867188 127.890625 C 200.492188 127.953125 201.121094 127.984375 201.75 127.984375 C 202.378906 127.984375 203.007812 127.953125 203.632812 127.890625 C 204.257812 127.828125 204.878906 127.738281 205.496094 127.613281 C 206.113281 127.492188 206.722656 127.339844 207.324219 127.15625 C 207.925781 126.976562 208.519531 126.761719 209.101562 126.523438 C 209.679688 126.28125 210.25 126.011719 210.804688 125.71875 C 211.359375 125.421875 211.898438 125.097656 212.421875 124.75 C 212.945312 124.398438 213.449219 124.023438 213.933594 123.625 C 214.421875 123.226562 214.886719 122.804688 215.332031 122.359375 C 215.777344 121.917969 216.199219 121.453125 216.597656 120.964844 C 216.996094 120.480469 217.371094 119.976562 217.71875 119.453125 C 218.070312 118.929688 218.394531 118.390625 218.6875 117.835938 C 218.984375 117.28125 219.253906 116.714844 219.496094 116.132812 C 219.734375 115.550781 219.949219 114.960938 220.128906 114.359375 C 220.3125 113.757812 220.464844 113.148438 220.589844 112.53125 C 220.710938 111.914062 220.804688 111.292969 220.863281 110.667969 C 220.925781 110.042969 220.957031 109.414062 220.957031 108.785156 C 220.957031 108.15625 220.925781 107.53125 220.863281 106.90625 C 220.804688 106.277344 220.710938 105.65625 220.589844 105.042969 C 220.464844 104.425781 220.3125 103.816406 220.128906 103.214844 C 219.949219 102.613281 219.734375 102.019531 219.496094 101.441406 C 219.253906 100.859375 218.984375 100.292969 218.6875 99.738281 C 218.394531 99.183594 218.070312 98.644531 217.71875 98.121094 C 217.371094 97.597656 216.996094 97.09375 216.597656 96.609375 C 216.199219 96.121094 215.777344 95.65625 215.332031 95.210938 C 214.886719 94.765625 214.421875 94.34375 213.933594 93.945312 C 213.449219 93.546875 212.945312 93.171875 212.421875 92.824219 C 211.898438 92.476562 211.359375 92.152344 210.804688 91.855469 C 210.25 91.558594 209.679688 91.289062 209.101562 91.050781 C 208.519531 90.808594 207.925781 90.597656 207.324219 90.414062 C 206.722656 90.234375 206.113281 90.082031 205.496094 89.957031 C 204.878906 89.835938 204.257812 89.742188 203.632812 89.679688 C 203.007812 89.621094 202.378906 89.589844 201.75 89.589844 C 201.121094 89.589844 200.492188 89.621094 199.867188 89.679688 C 199.242188 89.742188 198.621094 89.835938 198.003906 89.957031 C 197.386719 90.082031 196.777344 90.234375 196.175781 90.414062 C 195.574219 90.597656 194.980469 90.808594 194.398438 91.050781 C 193.820312 91.289062 193.25 91.558594 192.695312 91.855469 C 192.140625 92.152344 191.601562 92.476562 191.078125 92.824219 C 190.554688 93.171875 190.050781 93.546875 189.566406 93.945312 C 189.078125 94.34375 188.613281 94.765625 188.167969 95.210938 C 187.722656 95.65625 187.300781 96.121094 186.902344 96.609375 C 186.503906 97.09375 186.128906 97.597656 185.78125 98.121094 C 185.429688 98.644531 185.105469 99.183594 184.8125 99.738281 C 184.515625 100.292969 184.246094 100.859375 184.003906 101.441406 C 183.765625 102.019531 183.550781 102.613281 183.371094 103.214844 C 183.1875 103.816406 183.035156 104.425781 182.910156 105.042969 C 182.789062 105.65625 182.695312 106.277344 182.636719 106.90625 C 182.574219 107.53125 182.542969 108.15625 182.542969 108.785156 Z M 208.152344 108.785156 C 208.152344 109.207031 208.113281 109.621094 208.03125 110.035156 C 207.949219 110.445312 207.824219 110.847656 207.664062 111.234375 C 207.503906 111.625 207.308594 111.992188 207.074219 112.339844 C 206.839844 112.691406 206.574219 113.015625 206.277344 113.3125 C 205.980469 113.609375 205.65625 113.875 205.308594 114.105469 C 204.957031 114.339844 204.589844 114.539062 204.199219 114.699219 C 203.8125 114.859375 203.410156 114.980469 203 115.0625 C 202.585938 115.144531 202.171875 115.1875 201.75 115.1875 C 201.328125 115.1875 200.914062 115.144531 200.5 115.0625 C 200.089844 114.980469 199.6875 114.859375 199.300781 114.699219 C 198.910156 114.539062 198.542969 114.339844 198.191406 114.105469 C 197.84375 113.875 197.519531 113.609375 197.222656 113.3125 C 196.925781 113.015625 196.660156 112.691406 196.425781 112.339844 C 196.191406 111.992188 195.996094 111.625 195.835938 111.234375 C 195.675781 110.847656 195.550781 110.445312 195.46875 110.035156 C 195.386719 109.621094 195.347656 109.207031 195.347656 108.785156 C 195.347656 108.367188 195.386719 107.949219 195.46875 107.539062 C 195.550781 107.125 195.675781 106.726562 195.835938 106.335938 C 195.996094 105.949219 196.191406 105.582031 196.425781 105.230469 C 196.660156 104.882812 196.925781 104.558594 197.222656 104.261719 C 197.519531 103.964844 197.84375 103.699219 198.191406 103.464844 C 198.542969 103.230469 198.910156 103.035156 199.300781 102.875 C 199.6875 102.714844 200.089844 102.59375 200.5 102.511719 C 200.914062 102.429688 201.328125 102.386719 201.75 102.386719 C 202.171875 102.386719 202.585938 102.429688 203 102.511719 C 203.410156 102.59375 203.8125 102.714844 204.199219 102.875 C 204.589844 103.035156 204.957031 103.230469 205.308594 103.464844 C 205.65625 103.699219 205.980469 103.964844 206.277344 104.261719 C 206.574219 104.558594 206.839844 104.882812 207.074219 105.230469 C 207.308594 105.582031 207.503906 105.949219 207.664062 106.335938 C 207.824219 106.726562 207.949219 107.125 208.03125 107.539062 C 208.113281 107.949219 208.152344 108.367188 208.152344 108.785156 Z M 208.152344 108.785156 " fill-opacity="1" fill-rule="nonzero"/><path fill="#ffffff" d="M 150.53125 268.765625 C 151.160156 268.765625 151.789062 268.734375 152.414062 268.675781 C 153.039062 268.613281 153.660156 268.519531 154.277344 268.398438 C 154.894531 268.273438 155.503906 268.121094 156.105469 267.941406 C 156.707031 267.757812 157.300781 267.546875 157.882812 267.304688 C 158.460938 267.0625 159.03125 266.796875 159.585938 266.5 C 160.140625 266.203125 160.679688 265.878906 161.203125 265.53125 C 161.726562 265.179688 162.230469 264.808594 162.714844 264.410156 C 163.203125 264.011719 163.667969 263.589844 164.113281 263.144531 C 164.558594 262.699219 164.980469 262.234375 165.378906 261.746094 C 165.777344 261.261719 166.152344 260.757812 166.5 260.234375 C 166.851562 259.710938 167.171875 259.171875 167.46875 258.617188 C 167.765625 258.0625 168.035156 257.496094 168.277344 256.914062 C 168.515625 256.335938 168.726562 255.742188 168.910156 255.140625 C 169.09375 254.539062 169.246094 253.929688 169.367188 253.3125 C 169.492188 252.699219 169.582031 252.078125 169.644531 251.449219 C 169.707031 250.824219 169.738281 250.199219 169.738281 249.570312 C 169.738281 248.941406 169.707031 248.3125 169.644531 247.6875 C 169.582031 247.0625 169.492188 246.441406 169.367188 245.824219 C 169.246094 245.207031 169.09375 244.597656 168.910156 243.996094 C 168.726562 243.394531 168.515625 242.804688 168.277344 242.222656 C 168.035156 241.640625 167.765625 241.074219 167.46875 240.519531 C 167.171875 239.964844 166.851562 239.425781 166.5 238.902344 C 166.152344 238.378906 165.777344 237.875 165.378906 237.390625 C 164.980469 236.902344 164.558594 236.4375 164.113281 235.992188 C 163.667969 235.550781 163.203125 235.128906 162.714844 234.730469 C 162.230469 234.328125 161.726562 233.957031 161.203125 233.605469 C 160.679688 233.257812 160.140625 232.933594 159.585938 232.636719 C 159.03125 232.339844 158.460938 232.074219 157.882812 231.832031 C 157.300781 231.59375 156.707031 231.378906 156.105469 231.199219 C 155.503906 231.015625 154.894531 230.863281 154.277344 230.738281 C 153.660156 230.617188 153.039062 230.523438 152.414062 230.464844 C 151.789062 230.402344 151.160156 230.371094 150.53125 230.371094 C 149.902344 230.371094 149.273438 230.402344 148.648438 230.464844 C 148.023438 230.523438 147.402344 230.617188 146.785156 230.738281 C 146.167969 230.863281 145.558594 231.015625 144.957031 231.199219 C 144.351562 231.378906 143.761719 231.59375 143.179688 231.832031 C 142.597656 232.074219 142.03125 232.339844 141.476562 232.636719 C 140.921875 232.933594 140.382812 233.257812 139.859375 233.605469 C 139.335938 233.957031 138.832031 234.328125 138.347656 234.730469 C 137.859375 235.128906 137.394531 235.550781 136.949219 235.992188 C 136.503906 236.4375 136.082031 236.902344 135.683594 237.390625 C 135.285156 237.875 134.910156 238.378906 134.5625 238.902344 C 134.210938 239.425781 133.886719 239.964844 133.589844 240.519531 C 133.296875 241.074219 133.027344 241.640625 132.785156 242.222656 C 132.546875 242.804688 132.332031 243.394531 132.152344 243.996094 C 131.96875 244.597656 131.816406 245.207031 131.691406 245.824219 C 131.570312 246.441406 131.476562 247.0625 131.417969 247.6875 C 131.355469 248.3125 131.324219 248.941406 131.324219 249.570312 C 131.324219 250.199219 131.355469 250.824219 131.417969 251.449219 C 131.476562 252.078125 131.570312 252.699219 131.691406 253.3125 C 131.816406 253.929688 131.96875 254.539062 132.152344 255.140625 C 132.332031 255.742188 132.546875 256.335938 132.785156 256.914062 C 133.027344 257.496094 133.296875 258.0625 133.589844 258.617188 C 133.886719 259.171875 134.210938 259.710938 134.5625 260.234375 C 134.910156 260.757812 135.285156 261.261719 135.683594 261.746094 C 136.082031 262.234375 136.503906 262.699219 136.949219 263.144531 C 137.394531 263.589844 137.859375 264.011719 138.347656 264.410156 C 138.832031 264.808594 139.335938 265.179688 139.859375 265.53125 C 140.382812 265.878906 140.921875 266.203125 141.476562 266.5 C 142.03125 266.796875 142.597656 267.0625 143.179688 267.304688 C 143.761719 267.546875 144.351562 267.757812 144.957031 267.941406 C 145.558594 268.121094 146.167969 268.273438 146.785156 268.398438 C 147.402344 268.519531 148.023438 268.613281 148.648438 268.675781 C 149.273438 268.734375 149.902344 268.765625 150.53125 268.765625 Z M 150.53125 243.167969 C 150.953125 243.167969 151.367188 243.210938 151.78125 243.292969 C 152.191406 243.375 152.59375 243.496094 152.980469 243.65625 C 153.371094 243.816406 153.738281 244.015625 154.089844 244.246094 C 154.4375 244.480469 154.761719 244.746094 155.058594 245.042969 C 155.355469 245.339844 155.621094 245.664062 155.855469 246.011719 C 156.085938 246.363281 156.285156 246.730469 156.445312 247.121094 C 156.605469 247.507812 156.726562 247.90625 156.808594 248.320312 C 156.890625 248.730469 156.933594 249.148438 156.933594 249.570312 C 156.933594 249.988281 156.890625 250.40625 156.808594 250.816406 C 156.726562 251.230469 156.605469 251.628906 156.445312 252.019531 C 156.285156 252.40625 156.085938 252.773438 155.855469 253.125 C 155.621094 253.472656 155.355469 253.796875 155.058594 254.09375 C 154.761719 254.390625 154.4375 254.65625 154.089844 254.890625 C 153.738281 255.121094 153.371094 255.320312 152.980469 255.480469 C 152.59375 255.640625 152.191406 255.761719 151.78125 255.84375 C 151.367188 255.925781 150.953125 255.96875 150.53125 255.96875 C 150.109375 255.96875 149.695312 255.925781 149.28125 255.84375 C 148.871094 255.761719 148.46875 255.640625 148.082031 255.480469 C 147.691406 255.320312 147.324219 255.121094 146.972656 254.890625 C 146.625 254.65625 146.300781 254.390625 146.003906 254.09375 C 145.707031 253.796875 145.441406 253.472656 145.207031 253.125 C 144.972656 252.773438 144.777344 252.40625 144.617188 252.019531 C 144.453125 251.628906 144.332031 251.230469 144.25 250.816406 C 144.167969 250.40625 144.128906 249.988281 144.128906 249.570312 C 144.128906 249.148438 144.167969 248.730469 144.25 248.320312 C 144.332031 247.910156 144.453125 247.507812 144.617188 247.121094 C 144.777344 246.730469 144.972656 246.363281 145.207031 246.011719 C 145.441406 245.664062 145.707031 245.339844 146.003906 245.042969 C 146.300781 244.746094 146.625 244.480469 146.972656 244.246094 C 147.324219 244.015625 147.691406 243.816406 148.082031 243.65625 C 148.46875 243.496094 148.871094 243.375 149.28125 243.292969 C 149.695312 243.210938 150.109375 243.167969 150.53125 243.167969 Z M 150.53125 243.167969 " fill-opacity="1" fill-rule="nonzero"/><path fill="#ffffff" d="M 201.75 268.765625 C 202.378906 268.765625 203.007812 268.734375 203.632812 268.675781 C 204.257812 268.613281 204.878906 268.519531 205.496094 268.398438 C 206.113281 268.273438 206.722656 268.121094 207.324219 267.941406 C 207.925781 267.757812 208.519531 267.546875 209.101562 267.304688 C 209.679688 267.0625 210.25 266.796875 210.804688 266.5 C 211.359375 266.203125 211.898438 265.878906 212.421875 265.53125 C 212.945312 265.179688 213.449219 264.808594 213.933594 264.410156 C 214.421875 264.011719 214.886719 263.589844 215.332031 263.144531 C 215.777344 262.699219 216.199219 262.234375 216.597656 261.746094 C 216.996094 261.261719 217.371094 260.757812 217.71875 260.234375 C 218.070312 259.710938 218.394531 259.171875 218.6875 258.617188 C 218.984375 258.0625 219.253906 257.496094 219.496094 256.914062 C 219.734375 256.335938 219.949219 255.742188 220.128906 255.140625 C 220.3125 254.539062 220.464844 253.929688 220.589844 253.3125 C 220.710938 252.699219 220.804688 252.078125 220.863281 251.449219 C 220.925781 250.824219 220.957031 250.199219 220.957031 249.570312 C 220.957031 248.941406 220.925781 248.3125 220.863281 247.6875 C 220.804688 247.0625 220.710938 246.441406 220.589844 245.824219 C 220.464844 245.207031 220.3125 244.597656 220.128906 243.996094 C 219.949219 243.394531 219.734375 242.804688 219.496094 242.222656 C 219.253906 241.640625 218.984375 241.074219 218.6875 240.519531 C 218.394531 239.964844 218.070312 239.425781 217.71875 238.902344 C 217.371094 238.378906 216.996094 237.875 216.597656 237.390625 C 216.199219 236.902344 215.777344 236.4375 215.332031 235.992188 C 214.886719 235.550781 214.421875 235.128906 213.933594 234.730469 C 213.449219 234.328125 212.945312 233.957031 212.421875 233.605469 C 211.898438 233.257812 211.359375 232.933594 210.804688 232.636719 C 210.25 232.339844 209.679688 232.074219 209.101562 231.832031 C 208.519531 231.59375 207.925781 231.378906 207.324219 231.199219 C 206.722656 231.015625 206.113281 230.863281 205.496094 230.738281 C 204.878906 230.617188 204.257812 230.523438 203.632812 230.464844 C 203.007812 230.402344 202.378906 230.371094 201.75 230.371094 C 201.121094 230.371094 200.492188 230.402344 199.867188 230.464844 C 199.242188 230.523438 198.621094 230.617188 198.003906 230.738281 C 197.386719 230.863281 196.777344 231.015625 196.175781 231.199219 C 195.574219 231.378906 194.980469 231.59375 194.398438 231.832031 C 193.820312 232.074219 193.25 232.339844 192.695312 232.636719 C 192.140625 232.933594 191.601562 233.257812 191.078125 233.605469 C 190.554688 233.957031 190.050781 234.328125 189.566406 234.730469 C 189.078125 235.128906 188.613281 235.550781 188.167969 235.992188 C 187.722656 236.4375 187.300781 236.902344 186.902344 237.390625 C 186.503906 237.875 186.128906 238.378906 185.78125 238.902344 C 185.429688 239.425781 185.105469 239.964844 184.8125 240.519531 C 184.515625 241.074219 184.246094 241.640625 184.003906 242.222656 C 183.765625 242.804688 183.550781 243.394531 183.371094 243.996094 C 183.1875 244.597656 183.035156 245.207031 182.910156 245.824219 C 182.789062 246.441406 182.695312 247.0625 182.636719 247.6875 C 182.574219 248.3125 182.542969 248.941406 182.542969 249.570312 C 182.542969 250.199219 182.574219 250.824219 182.636719 251.449219 C 182.695312 252.078125 182.789062 252.699219 182.910156 253.3125 C 183.035156 253.929688 183.1875 254.539062 183.371094 255.140625 C 183.550781 255.742188 183.765625 256.335938 184.003906 256.914062 C 184.246094 257.496094 184.515625 258.0625 184.8125 258.617188 C 185.105469 259.171875 185.429688 259.710938 185.78125 260.234375 C 186.128906 260.757812 186.503906 261.261719 186.902344 261.746094 C 187.300781 262.234375 187.722656 262.699219 188.167969 263.144531 C 188.613281 263.589844 189.078125 264.011719 189.566406 264.410156 C 190.050781 264.808594 190.554688 265.179688 191.078125 265.53125 C 191.601562 265.878906 192.140625 266.203125 192.695312 266.5 C 193.25 266.796875 193.820312 267.0625 194.398438 267.304688 C 194.980469 267.546875 195.574219 267.757812 196.175781 267.941406 C 196.777344 268.121094 197.386719 268.273438 198.003906 268.398438 C 198.621094 268.519531 199.242188 268.613281 199.867188 268.675781 C 200.492188 268.734375 201.121094 268.765625 201.75 268.765625 Z M 201.75 243.167969 C 202.171875 243.167969 202.585938 243.210938 203 243.292969 C 203.410156 243.375 203.8125 243.496094 204.199219 243.65625 C 204.589844 243.816406 204.957031 244.015625 205.308594 244.246094 C 205.65625 244.480469 205.980469 244.746094 206.277344 245.042969 C 206.574219 245.339844 206.839844 245.664062 207.074219 246.011719 C 207.308594 246.363281 207.503906 246.730469 207.664062 247.121094 C 207.824219 247.507812 207.949219 247.90625 208.03125 248.320312 C 208.113281 248.730469 208.152344 249.148438 208.152344 249.570312 C 208.152344 249.988281 208.113281 250.40625 208.03125 250.816406 C 207.949219 251.230469 207.824219 251.628906 207.664062 252.019531 C 207.503906 252.40625 207.308594 252.773438 207.074219 253.125 C 206.839844 253.472656 206.574219 253.796875 206.277344 254.09375 C 205.980469 254.390625 205.65625 254.65625 205.308594 254.890625 C 204.957031 255.121094 204.589844 255.320312 204.199219 255.480469 C 203.8125 255.640625 203.410156 255.761719 203 255.84375 C 202.585938 255.925781 202.171875 255.96875 201.75 255.96875 C 201.328125 255.96875 200.914062 255.925781 200.5 255.84375 C 200.089844 255.761719 199.6875 255.640625 199.300781 255.480469 C 198.910156 255.320312 198.542969 255.121094 198.191406 254.890625 C 197.84375 254.65625 197.519531 254.390625 197.222656 254.09375 C 196.925781 253.796875 196.660156 253.472656 196.425781 253.125 C 196.191406 252.773438 195.996094 252.40625 195.835938 252.019531 C 195.675781 251.628906 195.550781 251.230469 195.46875 250.816406 C 195.386719 250.40625 195.347656 249.988281 195.347656 249.570312 C 195.347656 249.148438 195.386719 248.730469 195.46875 248.320312 C 195.550781 247.910156 195.675781 247.507812 195.835938 247.121094 C 195.996094 246.730469 196.191406 246.363281 196.425781 246.011719 C 196.660156 245.664062 196.925781 245.339844 197.222656 245.042969 C 197.519531 244.746094 197.84375 244.480469 198.191406 244.246094 C 198.542969 244.015625 198.910156 243.816406 199.300781 243.65625 C 199.6875 243.496094 200.089844 243.375 200.5 243.292969 C 200.914062 243.210938 201.328125 243.167969 201.75 243.167969 Z M 201.75 243.167969 " fill-opacity="1" fill-rule="nonzero"/><path fill="#ffffff" d="M 252.96875 268.765625 C 253.597656 268.765625 254.226562 268.734375 254.851562 268.675781 C 255.476562 268.613281 256.097656 268.519531 256.714844 268.398438 C 257.332031 268.273438 257.941406 268.121094 258.542969 267.941406 C 259.148438 267.757812 259.738281 267.546875 260.320312 267.304688 C 260.902344 267.0625 261.46875 266.796875 262.023438 266.5 C 262.578125 266.203125 263.117188 265.878906 263.640625 265.53125 C 264.164062 265.179688 264.667969 264.808594 265.152344 264.410156 C 265.640625 264.011719 266.105469 263.589844 266.550781 263.144531 C 266.996094 262.699219 267.417969 262.234375 267.816406 261.746094 C 268.214844 261.261719 268.589844 260.757812 268.9375 260.234375 C 269.289062 259.710938 269.613281 259.171875 269.90625 258.617188 C 270.203125 258.0625 270.472656 257.496094 270.714844 256.914062 C 270.953125 256.335938 271.167969 255.742188 271.347656 255.140625 C 271.53125 254.539062 271.683594 253.929688 271.808594 253.3125 C 271.929688 252.699219 272.023438 252.078125 272.082031 251.449219 C 272.144531 250.824219 272.175781 250.199219 272.175781 249.570312 C 272.175781 248.941406 272.144531 248.3125 272.082031 247.6875 C 272.023438 247.0625 271.929688 246.441406 271.808594 245.824219 C 271.683594 245.207031 271.53125 244.597656 271.347656 243.996094 C 271.167969 243.394531 270.953125 242.804688 270.714844 242.222656 C 270.472656 241.640625 270.203125 241.074219 269.90625 240.519531 C 269.613281 239.964844 269.289062 239.425781 268.9375 238.902344 C 268.589844 238.378906 268.214844 237.875 267.816406 237.390625 C 267.417969 236.902344 266.996094 236.4375 266.550781 235.992188 C 266.105469 235.550781 265.640625 235.128906 265.152344 234.730469 C 264.667969 234.328125 264.164062 233.957031 263.640625 233.605469 C 263.117188 233.257812 262.578125 232.933594 262.023438 232.636719 C 261.46875 232.339844 260.902344 232.074219 260.320312 231.832031 C 259.738281 231.59375 259.148438 231.378906 258.542969 231.199219 C 257.941406 231.015625 257.332031 230.863281 256.714844 230.738281 C 256.097656 230.617188 255.476562 230.523438 254.851562 230.464844 C 254.226562 230.402344 253.597656 230.371094 252.96875 230.371094 C 252.339844 230.371094 251.710938 230.402344 251.085938 230.464844 C 250.460938 230.523438 249.839844 230.617188 249.222656 230.738281 C 248.605469 230.863281 247.996094 231.015625 247.394531 231.199219 C 246.792969 231.378906 246.199219 231.59375 245.617188 231.832031 C 245.039062 232.074219 244.46875 232.339844 243.914062 232.636719 C 243.359375 232.933594 242.820312 233.257812 242.296875 233.605469 C 241.773438 233.957031 241.269531 234.328125 240.785156 234.730469 C 240.296875 235.128906 239.832031 235.550781 239.386719 235.992188 C 238.941406 236.4375 238.519531 236.902344 238.121094 237.390625 C 237.722656 237.875 237.347656 238.378906 237 238.902344 C 236.648438 239.425781 236.328125 239.964844 236.03125 240.519531 C 235.734375 241.074219 235.464844 241.640625 235.222656 242.222656 C 234.984375 242.804688 234.773438 243.394531 234.589844 243.996094 C 234.40625 244.597656 234.253906 245.207031 234.132812 245.824219 C 234.007812 246.441406 233.917969 247.0625 233.855469 247.6875 C 233.792969 248.3125 233.761719 248.941406 233.761719 249.570312 C 233.761719 250.199219 233.792969 250.824219 233.855469 251.449219 C 233.917969 252.078125 234.007812 252.699219 234.132812 253.3125 C 234.253906 253.929688 234.40625 254.539062 234.589844 255.140625 C 234.773438 255.742188 234.984375 256.335938 235.222656 256.914062 C 235.464844 257.496094 235.734375 258.0625 236.03125 258.617188 C 236.328125 259.171875 236.648438 259.710938 237 260.234375 C 237.347656 260.757812 237.722656 261.261719 238.121094 261.746094 C 238.519531 262.234375 238.941406 262.699219 239.386719 263.144531 C 239.832031 263.589844 240.296875 264.011719 240.785156 264.410156 C 241.269531 264.808594 241.773438 265.179688 242.296875 265.53125 C 242.820312 265.878906 243.359375 266.203125 243.914062 266.5 C 244.46875 266.796875 245.039062 267.0625 245.617188 267.304688 C 246.199219 267.546875 246.792969 267.757812 247.394531 267.941406 C 247.996094 268.121094 248.605469 268.273438 249.222656 268.398438 C 249.839844 268.519531 250.460938 268.613281 251.085938 268.675781 C 251.710938 268.734375 252.339844 268.765625 252.96875 268.765625 Z M 252.96875 243.167969 C 253.390625 243.167969 253.804688 243.210938 254.21875 243.292969 C 254.628906 243.375 255.03125 243.496094 255.417969 243.65625 C 255.808594 243.816406 256.175781 244.015625 256.527344 244.246094 C 256.875 244.480469 257.199219 244.746094 257.496094 245.042969 C 257.792969 245.339844 258.058594 245.664062 258.292969 246.011719 C 258.527344 246.363281 258.722656 246.730469 258.882812 247.121094 C 259.042969 247.507812 259.167969 247.90625 259.25 248.320312 C 259.332031 248.730469 259.371094 249.148438 259.371094 249.570312 C 259.371094 249.988281 259.332031 250.40625 259.25 250.816406 C 259.167969 251.230469 259.042969 251.628906 258.882812 252.019531 C 258.722656 252.40625 258.527344 252.773438 258.292969 253.125 C 258.058594 253.472656 257.792969 253.796875 257.496094 254.09375 C 257.199219 254.390625 256.875 254.65625 256.527344 254.890625 C 256.175781 255.121094 255.808594 255.320312 255.417969 255.480469 C 255.03125 255.640625 254.628906 255.761719 254.21875 255.84375 C 253.804688 255.925781 253.390625 255.96875 252.96875 255.96875 C 252.546875 255.96875 252.132812 255.925781 251.71875 255.84375 C 251.308594 255.761719 250.90625 255.640625 250.519531 255.480469 C 250.128906 255.320312 249.761719 255.121094 249.410156 254.890625 C 249.0625 254.65625 248.738281 254.390625 248.441406 254.09375 C 248.144531 253.796875 247.878906 253.472656 247.644531 253.125 C 247.410156 252.773438 247.214844 252.40625 247.054688 252.019531 C 246.894531 251.628906 246.773438 251.230469 246.691406 250.816406 C 246.609375 250.40625 246.566406 249.988281 246.566406 249.570312 C 246.566406 249.148438 246.609375 248.730469 246.691406 248.320312 C 246.773438 247.910156 246.894531 247.507812 247.054688 247.121094 C 247.214844 246.730469 247.410156 246.363281 247.644531 246.011719 C 247.878906 245.664062 248.144531 245.339844 248.441406 245.042969 C 248.738281 244.746094 249.0625 244.480469 249.410156 244.246094 C 249.761719 244.015625 250.128906 243.816406 250.519531 243.65625 C 250.90625 243.496094 251.308594 243.375 251.71875 243.292969 C 252.132812 243.210938 252.546875 243.167969 252.96875 243.167969 Z M 252.96875 243.167969 " fill-opacity="1" fill-rule="nonzero"/><g clip-path="url(#id1)"><path fill="#ffffff" d="M 374.613281 236.769531 L 374.101562 236.769531 L 342.089844 204.773438 L 348.109375 195.6875 C 348.414062 195.214844 348.652344 194.710938 348.824219 194.175781 C 349 193.640625 349.097656 193.09375 349.128906 192.53125 C 349.15625 191.96875 349.109375 191.414062 348.992188 190.863281 C 348.875 190.3125 348.683594 189.789062 348.429688 189.289062 C 348.171875 188.734375 347.839844 188.226562 347.4375 187.765625 C 347.035156 187.304688 346.574219 186.910156 346.058594 186.578125 C 345.542969 186.25 344.992188 186 344.402344 185.832031 C 343.816406 185.660156 343.214844 185.574219 342.601562 185.578125 L 254.121094 185.578125 C 250.84375 184.3125 247.832031 182.589844 245.078125 180.40625 C 242.328125 178.222656 239.964844 175.679688 237.988281 172.777344 L 291.382812 172.777344 C 291.804688 172.777344 292.21875 172.738281 292.632812 172.65625 C 293.042969 172.574219 293.445312 172.453125 293.832031 172.292969 C 294.222656 172.128906 294.589844 171.933594 294.941406 171.699219 C 295.289062 171.464844 295.613281 171.203125 295.910156 170.902344 C 296.207031 170.605469 296.472656 170.285156 296.707031 169.933594 C 296.941406 169.585938 297.136719 169.214844 297.296875 168.828125 C 297.460938 168.441406 297.582031 168.039062 297.664062 167.628906 C 297.746094 167.214844 297.785156 166.800781 297.785156 166.378906 L 297.785156 159.980469 L 316.992188 159.980469 C 317.414062 159.980469 317.828125 159.9375 318.242188 159.855469 C 318.652344 159.773438 319.054688 159.652344 319.441406 159.492188 C 319.832031 159.332031 320.199219 159.136719 320.550781 158.902344 C 320.898438 158.667969 321.222656 158.402344 321.519531 158.105469 C 321.816406 157.808594 322.082031 157.484375 322.316406 157.136719 C 322.550781 156.785156 322.746094 156.417969 322.90625 156.03125 C 323.070312 155.640625 323.191406 155.242188 323.273438 154.828125 C 323.355469 154.417969 323.394531 154 323.394531 153.582031 L 342.601562 153.582031 C 343.023438 153.582031 343.4375 153.539062 343.851562 153.457031 C 344.261719 153.375 344.664062 153.253906 345.050781 153.09375 C 345.441406 152.933594 345.808594 152.734375 346.160156 152.503906 C 346.507812 152.269531 346.832031 152.003906 347.128906 151.707031 C 347.425781 151.410156 347.691406 151.085938 347.925781 150.738281 C 348.160156 150.386719 348.355469 150.019531 348.515625 149.628906 C 348.679688 149.242188 348.800781 148.84375 348.882812 148.429688 C 348.964844 148.019531 349.003906 147.601562 349.003906 147.183594 L 349.003906 108.785156 C 349.003906 108.367188 348.964844 107.949219 348.882812 107.539062 C 348.800781 107.125 348.679688 106.726562 348.515625 106.335938 C 348.355469 105.949219 348.160156 105.582031 347.925781 105.230469 C 347.691406 104.882812 347.425781 104.558594 347.128906 104.261719 C 346.832031 103.964844 346.507812 103.699219 346.160156 103.464844 C 345.808594 103.230469 345.441406 103.035156 345.050781 102.875 C 344.664062 102.714844 344.261719 102.59375 343.851562 102.511719 C 343.4375 102.429688 343.023438 102.386719 342.601562 102.386719 L 323.394531 102.386719 C 323.394531 101.96875 323.355469 101.550781 323.273438 101.140625 C 323.191406 100.726562 323.070312 100.328125 322.90625 99.9375 C 322.746094 99.550781 322.550781 99.179688 322.316406 98.832031 C 322.082031 98.484375 321.816406 98.160156 321.519531 97.863281 C 321.222656 97.566406 320.898438 97.300781 320.550781 97.066406 C 320.199219 96.832031 319.832031 96.636719 319.441406 96.476562 C 319.054688 96.3125 318.652344 96.191406 318.242188 96.109375 C 317.828125 96.027344 317.414062 95.988281 316.992188 95.988281 L 286.644531 95.988281 C 283.421875 89.960938 279.601562 84.339844 275.191406 79.121094 C 270.777344 73.898438 265.867188 69.199219 260.460938 65.015625 C 262.707031 63.066406 265.089844 61.304688 267.609375 59.726562 C 270.125 58.148438 272.753906 56.769531 275.484375 55.597656 C 278.21875 54.425781 281.023438 53.46875 283.902344 52.730469 C 286.785156 51.992188 289.703125 51.480469 292.664062 51.195312 C 292.914062 51.898438 293.203125 52.585938 293.53125 53.257812 C 293.863281 53.929688 294.230469 54.578125 294.636719 55.207031 C 295.042969 55.835938 295.484375 56.4375 295.960938 57.015625 C 296.4375 57.59375 296.945312 58.140625 297.484375 58.65625 C 298.023438 59.175781 298.59375 59.660156 299.191406 60.109375 C 299.789062 60.558594 300.410156 60.976562 301.054688 61.351562 C 301.699219 61.730469 302.363281 62.070312 303.050781 62.371094 C 303.734375 62.671875 304.433594 62.933594 305.152344 63.152344 C 305.867188 63.371094 306.59375 63.546875 307.328125 63.679688 C 308.0625 63.816406 308.804688 63.90625 309.550781 63.953125 C 310.300781 64 311.046875 64.003906 311.792969 63.964844 C 312.539062 63.925781 313.28125 63.84375 314.019531 63.714844 C 314.757812 63.589844 315.484375 63.421875 316.203125 63.207031 C 316.921875 62.996094 317.625 62.746094 318.3125 62.453125 C 319 62.15625 319.667969 61.824219 320.316406 61.453125 C 320.96875 61.082031 321.59375 60.671875 322.195312 60.230469 C 322.796875 59.785156 323.371094 59.304688 323.914062 58.792969 C 324.460938 58.28125 324.976562 57.742188 325.457031 57.167969 C 325.941406 56.597656 326.386719 56 326.800781 55.375 C 327.210938 54.75 327.585938 54.105469 327.921875 53.4375 C 328.261719 52.769531 328.558594 52.082031 328.8125 51.382812 C 329.070312 50.679688 329.285156 49.964844 329.457031 49.234375 C 329.632812 48.507812 329.761719 47.773438 329.847656 47.03125 C 329.9375 46.289062 329.980469 45.542969 329.980469 44.792969 C 329.980469 44.046875 329.9375 43.300781 329.847656 42.558594 C 329.761719 41.816406 329.632812 41.082031 329.457031 40.351562 C 329.285156 39.625 329.070312 38.910156 328.8125 38.207031 C 328.558594 37.503906 328.261719 36.820312 327.921875 36.152344 C 327.585938 35.484375 327.210938 34.839844 326.800781 34.214844 C 326.386719 33.589844 325.941406 32.992188 325.457031 32.421875 C 324.976562 31.847656 324.460938 31.308594 323.914062 30.796875 C 323.371094 30.285156 322.796875 29.804688 322.195312 29.359375 C 321.59375 28.914062 320.96875 28.507812 320.320312 28.136719 C 319.667969 27.765625 319 27.429688 318.3125 27.136719 C 317.625 26.84375 316.921875 26.59375 316.203125 26.378906 C 315.484375 26.167969 314.757812 26 314.019531 25.875 C 313.28125 25.746094 312.539062 25.664062 311.792969 25.625 C 311.046875 25.585938 310.300781 25.589844 309.550781 25.636719 C 308.804688 25.683594 308.0625 25.773438 307.328125 25.90625 C 306.59375 26.042969 305.867188 26.21875 305.152344 26.4375 C 304.433594 26.65625 303.734375 26.917969 303.050781 27.21875 C 302.363281 27.519531 301.699219 27.855469 301.054688 28.234375 C 300.410156 28.613281 299.789062 29.027344 299.191406 29.480469 C 298.59375 29.929688 298.023438 30.414062 297.484375 30.933594 C 296.945312 31.449219 296.4375 31.996094 295.960938 32.574219 C 295.484375 33.152344 295.042969 33.753906 294.636719 34.382812 C 294.230469 35.007812 293.863281 35.660156 293.53125 36.332031 C 293.203125 37.003906 292.914062 37.691406 292.664062 38.394531 C 288.667969 38.714844 284.730469 39.371094 280.84375 40.363281 C 276.960938 41.351562 273.191406 42.667969 269.53125 44.300781 C 265.875 45.9375 262.378906 47.871094 259.050781 50.101562 C 255.722656 52.332031 252.605469 54.828125 249.703125 57.59375 C 240.714844 52.398438 231.132812 48.773438 220.957031 46.714844 L 220.957031 25.597656 C 220.957031 25.175781 220.917969 24.761719 220.835938 24.347656 C 220.753906 23.9375 220.628906 23.535156 220.46875 23.148438 C 220.308594 22.761719 220.113281 22.390625 219.878906 22.042969 C 219.644531 21.691406 219.378906 21.371094 219.082031 21.070312 C 218.785156 20.773438 218.460938 20.507812 218.113281 20.277344 C 217.761719 20.042969 217.394531 19.847656 217.003906 19.683594 C 216.617188 19.523438 216.214844 19.402344 215.804688 19.320312 C 215.390625 19.238281 214.976562 19.199219 214.554688 19.199219 L 208.152344 19.199219 L 208.152344 0 L 195.347656 0 L 195.347656 19.199219 L 188.945312 19.199219 C 188.523438 19.199219 188.109375 19.238281 187.695312 19.320312 C 187.285156 19.402344 186.882812 19.523438 186.496094 19.683594 C 186.105469 19.847656 185.738281 20.042969 185.386719 20.277344 C 185.039062 20.507812 184.714844 20.773438 184.417969 21.070312 C 184.121094 21.371094 183.855469 21.691406 183.621094 22.042969 C 183.386719 22.390625 183.191406 22.761719 183.03125 23.148438 C 182.871094 23.535156 182.746094 23.9375 182.664062 24.347656 C 182.582031 24.761719 182.542969 25.175781 182.542969 25.597656 L 182.542969 46.714844 C 172.433594 48.792969 162.914062 52.417969 153.988281 57.59375 C 151.085938 54.828125 147.96875 52.332031 144.640625 50.101562 C 141.3125 47.871094 137.820312 45.9375 134.160156 44.300781 C 130.5 42.667969 126.730469 41.351562 122.847656 40.363281 C 118.964844 39.371094 115.023438 38.714844 111.027344 38.394531 C 110.777344 37.691406 110.488281 37.003906 110.160156 36.332031 C 109.828125 35.660156 109.460938 35.007812 109.054688 34.382812 C 108.648438 33.753906 108.207031 33.152344 107.730469 32.574219 C 107.257812 31.996094 106.746094 31.449219 106.207031 30.933594 C 105.667969 30.414062 105.097656 29.929688 104.5 29.480469 C 103.90625 29.027344 103.285156 28.613281 102.636719 28.234375 C 101.992188 27.855469 101.328125 27.519531 100.640625 27.21875 C 99.957031 26.917969 99.257812 26.65625 98.542969 26.4375 C 97.824219 26.21875 97.101562 26.042969 96.363281 25.90625 C 95.628906 25.773438 94.886719 25.683594 94.140625 25.636719 C 93.394531 25.589844 92.644531 25.585938 91.898438 25.625 C 91.152344 25.664062 90.410156 25.746094 89.671875 25.875 C 88.933594 26 88.207031 26.167969 87.488281 26.378906 C 86.769531 26.59375 86.066406 26.84375 85.378906 27.136719 C 84.691406 27.429688 84.023438 27.765625 83.375 28.136719 C 82.722656 28.507812 82.097656 28.914062 81.496094 29.359375 C 80.894531 29.804688 80.320312 30.285156 79.777344 30.796875 C 79.230469 31.308594 78.71875 31.847656 78.234375 32.421875 C 77.753906 32.992188 77.304688 33.589844 76.894531 34.214844 C 76.480469 34.839844 76.105469 35.484375 75.769531 36.152344 C 75.433594 36.820312 75.136719 37.503906 74.878906 38.207031 C 74.621094 38.910156 74.40625 39.625 74.234375 40.351562 C 74.058594 41.082031 73.929688 41.816406 73.84375 42.558594 C 73.757812 43.300781 73.710938 44.046875 73.710938 44.792969 C 73.710938 45.542969 73.757812 46.289062 73.84375 47.03125 C 73.929688 47.773438 74.058594 48.507812 74.234375 49.234375 C 74.40625 49.964844 74.621094 50.679688 74.878906 51.382812 C 75.136719 52.082031 75.433594 52.769531 75.769531 53.4375 C 76.105469 54.105469 76.480469 54.75 76.894531 55.375 C 77.304688 56 77.753906 56.597656 78.234375 57.167969 C 78.71875 57.742188 79.230469 58.28125 79.777344 58.792969 C 80.320312 59.304688 80.894531 59.785156 81.496094 60.230469 C 82.097656 60.671875 82.722656 61.082031 83.375 61.453125 C 84.023438 61.824219 84.691406 62.15625 85.378906 62.453125 C 86.066406 62.746094 86.769531 62.996094 87.488281 63.207031 C 88.207031 63.421875 88.933594 63.589844 89.671875 63.714844 C 90.410156 63.84375 91.152344 63.925781 91.898438 63.964844 C 92.644531 64.003906 93.394531 64 94.140625 63.953125 C 94.886719 63.90625 95.628906 63.816406 96.363281 63.679688 C 97.101562 63.546875 97.824219 63.371094 98.542969 63.152344 C 99.257812 62.933594 99.957031 62.671875 100.640625 62.371094 C 101.328125 62.070312 101.992188 61.730469 102.636719 61.351562 C 103.285156 60.976562 103.90625 60.558594 104.5 60.109375 C 105.097656 59.660156 105.667969 59.175781 106.207031 58.65625 C 106.746094 58.140625 107.257812 57.59375 107.730469 57.015625 C 108.207031 56.4375 108.648438 55.835938 109.054688 55.207031 C 109.460938 54.578125 109.828125 53.929688 110.160156 53.257812 C 110.488281 52.585938 110.777344 51.898438 111.027344 51.195312 C 113.964844 51.472656 116.863281 51.972656 119.722656 52.695312 C 122.582031 53.417969 125.367188 54.355469 128.082031 55.507812 C 130.796875 56.65625 133.410156 58.007812 135.917969 59.558594 C 138.425781 61.109375 140.800781 62.84375 143.039062 64.761719 C 137.621094 68.980469 132.703125 73.722656 128.289062 78.984375 C 123.875 84.246094 120.0625 89.914062 116.855469 95.988281 L 86.507812 95.988281 C 86.085938 95.988281 85.671875 96.027344 85.257812 96.109375 C 84.847656 96.191406 84.445312 96.3125 84.058594 96.476562 C 83.667969 96.636719 83.300781 96.832031 82.949219 97.066406 C 82.601562 97.300781 82.277344 97.566406 81.980469 97.863281 C 81.683594 98.160156 81.417969 98.484375 81.183594 98.832031 C 80.949219 99.179688 80.753906 99.550781 80.59375 99.9375 C 80.429688 100.328125 80.308594 100.726562 80.226562 101.140625 C 80.144531 101.550781 80.105469 101.96875 80.105469 102.386719 L 60.898438 102.386719 C 60.476562 102.386719 60.0625 102.429688 59.648438 102.511719 C 59.234375 102.59375 58.835938 102.714844 58.449219 102.875 C 58.058594 103.035156 57.691406 103.230469 57.339844 103.464844 C 56.992188 103.699219 56.667969 103.964844 56.371094 104.261719 C 56.074219 104.558594 55.808594 104.882812 55.574219 105.230469 C 55.339844 105.582031 55.144531 105.949219 54.984375 106.335938 C 54.820312 106.726562 54.699219 107.125 54.617188 107.539062 C 54.535156 107.949219 54.496094 108.367188 54.496094 108.785156 L 54.496094 147.183594 C 54.496094 147.601562 54.535156 148.019531 54.617188 148.429688 C 54.699219 148.84375 54.820312 149.242188 54.984375 149.628906 C 55.144531 150.019531 55.339844 150.386719 55.574219 150.738281 C 55.808594 151.085938 56.074219 151.410156 56.371094 151.707031 C 56.667969 152.003906 56.992188 152.269531 57.339844 152.503906 C 57.691406 152.734375 58.058594 152.933594 58.449219 153.09375 C 58.835938 153.253906 59.234375 153.375 59.648438 153.457031 C 60.0625 153.539062 60.476562 153.582031 60.898438 153.582031 L 80.105469 153.582031 C 80.105469 154 80.144531 154.417969 80.226562 154.828125 C 80.308594 155.242188 80.429688 155.640625 80.59375 156.03125 C 80.753906 156.417969 80.949219 156.785156 81.183594 157.136719 C 81.417969 157.484375 81.683594 157.808594 81.980469 158.105469 C 82.277344 158.402344 82.601562 158.667969 82.949219 158.902344 C 83.300781 159.136719 83.667969 159.332031 84.058594 159.492188 C 84.445312 159.652344 84.847656 159.773438 85.257812 159.855469 C 85.671875 159.9375 86.085938 159.980469 86.507812 159.980469 L 105.714844 159.980469 L 105.714844 166.378906 C 105.714844 166.800781 105.753906 167.214844 105.835938 167.628906 C 105.917969 168.039062 106.039062 168.441406 106.203125 168.828125 C 106.363281 169.214844 106.558594 169.585938 106.792969 169.933594 C 107.027344 170.285156 107.292969 170.605469 107.589844 170.902344 C 107.886719 171.203125 108.210938 171.464844 108.558594 171.699219 C 108.910156 171.933594 109.277344 172.128906 109.667969 172.292969 C 110.054688 172.453125 110.457031 172.574219 110.867188 172.65625 C 111.28125 172.738281 111.695312 172.777344 112.117188 172.777344 L 165.511719 172.777344 C 163.550781 175.695312 161.191406 178.242188 158.4375 180.429688 C 155.683594 182.613281 152.664062 184.328125 149.378906 185.578125 L 60.898438 185.578125 C 60.320312 185.578125 59.75 185.65625 59.191406 185.8125 C 58.632812 185.96875 58.109375 186.195312 57.613281 186.496094 C 57.117188 186.792969 56.667969 187.152344 56.269531 187.570312 C 55.871094 187.992188 55.535156 188.457031 55.261719 188.96875 C 55.007812 189.46875 54.820312 189.992188 54.699219 190.542969 C 54.582031 191.09375 54.535156 191.648438 54.566406 192.210938 C 54.59375 192.773438 54.691406 193.320312 54.867188 193.855469 C 55.039062 194.390625 55.277344 194.894531 55.582031 195.367188 L 61.601562 204.773438 L 29.589844 236.769531 C 28.160156 236.742188 26.734375 236.832031 25.316406 237.042969 C 23.902344 237.253906 22.511719 237.582031 21.152344 238.023438 C 19.789062 238.46875 18.476562 239.019531 17.207031 239.683594 C 15.9375 240.347656 14.734375 241.113281 13.59375 241.980469 C 12.453125 242.84375 11.394531 243.796875 10.414062 244.84375 C 9.433594 245.886719 8.546875 247.003906 7.753906 248.195312 C 6.960938 249.386719 6.273438 250.636719 5.691406 251.945312 C 5.109375 253.25 4.636719 254.597656 4.28125 255.984375 C 3.925781 257.371094 3.6875 258.777344 3.566406 260.203125 C 3.445312 261.628906 3.441406 263.054688 3.5625 264.480469 C 3.679688 265.90625 3.917969 267.3125 4.269531 268.699219 C 4.625 270.085938 5.09375 271.433594 5.675781 272.742188 C 6.253906 274.050781 6.941406 275.300781 7.730469 276.496094 C 8.519531 277.6875 9.40625 278.804688 10.382812 279.851562 C 11.363281 280.898438 12.421875 281.851562 13.558594 282.71875 C 14.699219 283.585938 15.902344 284.355469 17.167969 285.019531 L 37.722656 320.601562 C 37.472656 321.203125 37.242188 321.816406 37.03125 322.433594 C 36.820312 323.050781 36.628906 323.675781 36.457031 324.304688 C 36.285156 324.9375 36.132812 325.570312 35.996094 326.210938 C 35.863281 326.851562 35.75 327.492188 35.65625 328.140625 C 35.5625 328.785156 35.484375 329.433594 35.429688 330.085938 C 35.378906 330.738281 35.34375 331.390625 35.328125 332.042969 C 35.3125 332.695312 35.320312 333.347656 35.34375 334 C 35.371094 334.65625 35.414062 335.304688 35.480469 335.957031 C 35.546875 336.605469 35.628906 337.253906 35.734375 337.898438 C 35.839844 338.542969 35.964844 339.183594 36.109375 339.820312 C 36.253906 340.457031 36.417969 341.089844 36.601562 341.71875 C 36.785156 342.34375 36.984375 342.964844 37.207031 343.582031 C 37.425781 344.195312 37.667969 344.804688 37.925781 345.402344 C 38.183594 346.003906 38.460938 346.59375 38.753906 347.179688 C 39.050781 347.761719 39.363281 348.335938 39.691406 348.898438 C 40.019531 349.464844 40.367188 350.015625 40.730469 350.558594 C 41.09375 351.101562 41.476562 351.632812 41.871094 352.152344 C 42.269531 352.671875 42.679688 353.179688 43.105469 353.675781 C 43.535156 354.167969 43.976562 354.648438 44.433594 355.117188 C 44.890625 355.585938 45.359375 356.039062 45.84375 356.476562 C 46.328125 356.914062 46.828125 357.335938 47.335938 357.746094 C 47.847656 358.152344 48.371094 358.546875 48.90625 358.921875 C 49.4375 359.296875 49.984375 359.65625 50.542969 360 C 51.097656 360.34375 51.664062 360.667969 52.242188 360.976562 C 52.816406 361.285156 53.402344 361.574219 53.996094 361.847656 C 54.589844 362.117188 55.191406 362.371094 55.804688 362.605469 C 56.414062 362.84375 57.027344 363.058594 57.652344 363.257812 C 58.273438 363.453125 58.902344 363.632812 59.539062 363.792969 C 60.171875 363.949219 60.808594 364.089844 61.453125 364.210938 C 62.09375 364.328125 62.742188 364.429688 63.390625 364.511719 C 64.039062 364.589844 64.6875 364.652344 65.339844 364.691406 C 65.992188 364.734375 66.644531 364.753906 67.300781 364.753906 L 67.300781 351.957031 C 66.671875 351.957031 66.042969 351.925781 65.417969 351.863281 C 64.792969 351.800781 64.167969 351.710938 63.554688 351.585938 C 62.9375 351.464844 62.328125 351.3125 61.722656 351.128906 C 61.121094 350.945312 60.53125 350.734375 59.949219 350.496094 C 59.367188 350.253906 58.800781 349.984375 58.246094 349.6875 C 57.691406 349.394531 57.152344 349.070312 56.628906 348.71875 C 56.105469 348.371094 55.601562 347.996094 55.113281 347.597656 C 54.628906 347.199219 54.164062 346.777344 53.71875 346.332031 C 53.273438 345.886719 52.851562 345.421875 52.453125 344.9375 C 52.054688 344.449219 51.679688 343.945312 51.328125 343.421875 C 50.980469 342.902344 50.65625 342.363281 50.359375 341.808594 C 50.0625 341.253906 49.796875 340.6875 49.554688 340.105469 C 49.3125 339.523438 49.101562 338.933594 48.921875 338.332031 C 48.738281 337.730469 48.585938 337.121094 48.460938 336.503906 C 48.339844 335.886719 48.246094 335.265625 48.183594 334.640625 C 48.125 334.015625 48.09375 333.386719 48.09375 332.757812 C 48.09375 332.128906 48.125 331.503906 48.183594 330.875 C 48.246094 330.25 48.339844 329.628906 48.460938 329.011719 C 48.585938 328.394531 48.738281 327.789062 48.921875 327.183594 C 49.101562 326.582031 49.3125 325.992188 49.554688 325.410156 C 49.796875 324.832031 50.0625 324.261719 50.359375 323.707031 C 50.65625 323.152344 50.980469 322.617188 51.328125 322.09375 C 51.679688 321.570312 52.054688 321.066406 52.453125 320.578125 C 52.851562 320.09375 53.273438 319.628906 53.71875 319.183594 C 54.164062 318.738281 54.628906 318.316406 55.113281 317.917969 C 55.601562 317.519531 56.105469 317.144531 56.628906 316.796875 C 57.152344 316.445312 57.691406 316.125 58.246094 315.828125 C 58.800781 315.53125 59.367188 315.261719 59.949219 315.023438 C 60.53125 314.78125 61.121094 314.570312 61.722656 314.386719 C 62.328125 314.203125 62.9375 314.050781 63.554688 313.929688 C 64.167969 313.808594 64.792969 313.714844 65.417969 313.652344 C 66.042969 313.589844 66.671875 313.5625 67.300781 313.5625 C 67.929688 313.5625 68.558594 313.589844 69.183594 313.652344 C 69.808594 313.714844 70.429688 313.808594 71.046875 313.929688 C 71.664062 314.050781 72.273438 314.203125 72.875 314.386719 C 73.476562 314.570312 74.070312 314.78125 74.648438 315.023438 C 75.230469 315.261719 75.800781 315.53125 76.355469 315.828125 C 76.910156 316.125 77.449219 316.445312 77.972656 316.796875 C 78.492188 317.144531 79 317.519531 79.484375 317.917969 C 79.972656 318.316406 80.4375 318.738281 80.882812 319.183594 C 81.328125 319.628906 81.75 320.09375 82.148438 320.578125 C 82.546875 321.066406 82.921875 321.570312 83.269531 322.09375 C 83.621094 322.617188 83.941406 323.152344 84.238281 323.707031 C 84.535156 324.261719 84.804688 324.832031 85.046875 325.410156 C 85.285156 325.992188 85.496094 326.582031 85.679688 327.183594 C 85.863281 327.789062 86.015625 328.394531 86.136719 329.011719 C 86.261719 329.628906 86.351562 330.25 86.414062 330.875 C 86.476562 331.503906 86.507812 332.128906 86.507812 332.757812 L 99.3125 332.757812 C 99.3125 331.710938 99.261719 330.664062 99.15625 329.621094 C 99.054688 328.578125 98.902344 327.542969 98.695312 326.515625 C 98.492188 325.488281 98.238281 324.472656 97.933594 323.46875 C 97.628906 322.46875 97.277344 321.480469 96.875 320.515625 C 96.472656 319.546875 96.027344 318.601562 95.53125 317.675781 C 95.039062 316.75 94.5 315.855469 93.917969 314.980469 C 93.335938 314.109375 92.710938 313.269531 92.046875 312.460938 C 91.378906 311.648438 90.675781 310.875 89.9375 310.132812 C 89.195312 309.394531 88.417969 308.691406 87.609375 308.023438 C 86.796875 307.359375 85.957031 306.738281 85.085938 306.15625 C 84.214844 305.574219 83.316406 305.035156 82.390625 304.539062 C 81.464844 304.046875 80.519531 303.597656 79.550781 303.199219 C 78.582031 302.796875 77.597656 302.445312 76.59375 302.140625 C 75.589844 301.835938 74.574219 301.582031 73.546875 301.378906 C 72.515625 301.171875 71.480469 301.019531 70.4375 300.917969 C 69.394531 300.8125 68.347656 300.761719 67.300781 300.761719 C 66.46875 300.761719 65.636719 300.761719 64.804688 300.761719 L 50.398438 276.253906 C 51.746094 274.1875 52.765625 271.976562 53.464844 269.609375 C 54.164062 267.246094 54.507812 264.832031 54.496094 262.367188 L 54.496094 261.855469 L 81.707031 234.59375 C 82.3125 235.285156 83.035156 235.820312 83.871094 236.199219 C 84.710938 236.578125 85.585938 236.769531 86.507812 236.769531 L 105.714844 236.769531 L 105.714844 281.566406 C 105.714844 282.613281 105.765625 283.65625 105.867188 284.699219 C 105.972656 285.742188 106.125 286.777344 106.328125 287.808594 C 106.535156 288.835938 106.789062 289.851562 107.09375 290.851562 C 107.398438 291.855469 107.75 292.839844 108.152344 293.808594 C 108.550781 294.777344 109 295.722656 109.496094 296.648438 C 109.988281 297.570312 110.527344 298.46875 111.109375 299.339844 C 111.691406 300.210938 112.316406 301.050781 112.980469 301.863281 C 113.644531 302.671875 114.347656 303.449219 115.089844 304.1875 C 115.832031 304.929688 116.609375 305.632812 117.417969 306.296875 C 118.230469 306.960938 119.070312 307.585938 119.941406 308.167969 C 120.8125 308.75 121.710938 309.289062 122.636719 309.78125 C 123.558594 310.277344 124.507812 310.722656 125.476562 311.125 C 126.445312 311.527344 127.429688 311.878906 128.433594 312.183594 C 129.4375 312.488281 130.453125 312.742188 131.480469 312.945312 C 132.507812 313.148438 133.546875 313.304688 134.589844 313.40625 C 135.632812 313.507812 136.679688 313.5625 137.726562 313.5625 L 161.222656 313.5625 L 164.679688 333.847656 C 164.804688 334.542969 165.042969 335.203125 165.386719 335.824219 C 165.730469 336.445312 166.167969 336.992188 166.695312 337.464844 C 167.222656 337.941406 167.8125 338.316406 168.464844 338.597656 C 169.117188 338.875 169.796875 339.039062 170.507812 339.09375 C 170.023438 341.222656 169.769531 343.375 169.738281 345.558594 C 169.738281 361.171875 181.839844 396.75 201.75 396.75 C 221.660156 396.75 233.761719 361.171875 233.761719 345.558594 C 233.726562 343.398438 233.46875 341.265625 232.992188 339.15625 C 233.703125 339.105469 234.382812 338.9375 235.035156 338.660156 C 235.6875 338.382812 236.277344 338.003906 236.804688 337.53125 C 237.332031 337.054688 237.769531 336.507812 238.113281 335.886719 C 238.457031 335.265625 238.695312 334.609375 238.820312 333.910156 L 242.277344 313.5625 L 265.773438 313.5625 C 266.820312 313.5625 267.867188 313.507812 268.910156 313.40625 C 269.953125 313.304688 270.992188 313.148438 272.019531 312.945312 C 273.046875 312.742188 274.0625 312.488281 275.066406 312.183594 C 276.070312 311.878906 277.054688 311.527344 278.023438 311.125 C 278.992188 310.722656 279.9375 310.277344 280.863281 309.78125 C 281.789062 309.289062 282.6875 308.75 283.558594 308.167969 C 284.429688 307.585938 285.269531 306.960938 286.082031 306.296875 C 286.890625 305.632812 287.667969 304.929688 288.410156 304.1875 C 289.152344 303.449219 289.855469 302.671875 290.519531 301.863281 C 291.183594 301.050781 291.808594 300.210938 292.390625 299.339844 C 292.972656 298.46875 293.511719 297.570312 294.003906 296.648438 C 294.5 295.722656 294.949219 294.777344 295.347656 293.808594 C 295.75 292.839844 296.101562 291.855469 296.40625 290.851562 C 296.710938 289.851562 296.964844 288.835938 297.171875 287.808594 C 297.375 286.777344 297.527344 285.742188 297.632812 284.699219 C 297.734375 283.65625 297.785156 282.613281 297.785156 281.566406 L 297.785156 236.769531 L 316.992188 236.769531 C 317.914062 236.769531 318.789062 236.578125 319.628906 236.199219 C 320.464844 235.820312 321.1875 235.285156 321.792969 234.59375 L 349.003906 261.855469 L 349.003906 262.367188 C 348.992188 264.832031 349.335938 267.246094 350.035156 269.609375 C 350.730469 271.976562 351.753906 274.1875 353.101562 276.253906 L 338.695312 300.761719 C 337.863281 300.761719 337.03125 300.761719 336.199219 300.761719 C 335.152344 300.761719 334.105469 300.8125 333.0625 300.917969 C 332.019531 301.019531 330.984375 301.171875 329.953125 301.378906 C 328.925781 301.582031 327.910156 301.835938 326.90625 302.140625 C 325.902344 302.445312 324.917969 302.796875 323.949219 303.199219 C 322.980469 303.597656 322.035156 304.046875 321.109375 304.539062 C 320.183594 305.035156 319.285156 305.574219 318.414062 306.15625 C 317.542969 306.738281 316.703125 307.359375 315.890625 308.023438 C 315.082031 308.691406 314.304688 309.394531 313.5625 310.132812 C 312.824219 310.875 312.121094 311.648438 311.453125 312.460938 C 310.789062 313.269531 310.164062 314.109375 309.582031 314.980469 C 309 315.855469 308.460938 316.75 307.96875 317.675781 C 307.472656 318.601562 307.027344 319.546875 306.625 320.515625 C 306.222656 321.480469 305.871094 322.46875 305.566406 323.46875 C 305.261719 324.472656 305.007812 325.488281 304.804688 326.515625 C 304.597656 327.542969 304.445312 328.578125 304.34375 329.621094 C 304.238281 330.664062 304.1875 331.710938 304.1875 332.757812 L 316.992188 332.757812 C 316.992188 332.128906 317.023438 331.503906 317.085938 330.875 C 317.148438 330.25 317.238281 329.628906 317.363281 329.011719 C 317.484375 328.394531 317.636719 327.789062 317.820312 327.183594 C 318.003906 326.582031 318.214844 325.992188 318.453125 325.410156 C 318.695312 324.832031 318.964844 324.261719 319.261719 323.707031 C 319.558594 323.152344 319.878906 322.617188 320.230469 322.09375 C 320.578125 321.570312 320.953125 321.066406 321.351562 320.578125 C 321.75 320.09375 322.171875 319.628906 322.617188 319.183594 C 323.0625 318.738281 323.527344 318.316406 324.015625 317.917969 C 324.5 317.519531 325.007812 317.144531 325.527344 316.796875 C 326.050781 316.445312 326.589844 316.125 327.144531 315.828125 C 327.699219 315.53125 328.269531 315.261719 328.851562 315.023438 C 329.429688 314.78125 330.023438 314.570312 330.625 314.386719 C 331.226562 314.203125 331.835938 314.050781 332.453125 313.929688 C 333.070312 313.808594 333.691406 313.714844 334.316406 313.652344 C 334.945312 313.589844 335.570312 313.5625 336.199219 313.5625 C 336.828125 313.5625 337.457031 313.589844 338.082031 313.652344 C 338.707031 313.714844 339.328125 313.808594 339.945312 313.929688 C 340.5625 314.050781 341.171875 314.203125 341.777344 314.386719 C 342.378906 314.570312 342.96875 314.78125 343.550781 315.023438 C 344.132812 315.261719 344.699219 315.53125 345.253906 315.828125 C 345.808594 316.125 346.347656 316.445312 346.871094 316.796875 C 347.394531 317.144531 347.898438 317.519531 348.386719 317.917969 C 348.871094 318.316406 349.335938 318.738281 349.78125 319.183594 C 350.226562 319.628906 350.648438 320.09375 351.046875 320.578125 C 351.445312 321.066406 351.820312 321.570312 352.171875 322.09375 C 352.519531 322.617188 352.84375 323.152344 353.140625 323.707031 C 353.4375 324.261719 353.703125 324.832031 353.945312 325.410156 C 354.1875 325.992188 354.398438 326.582031 354.578125 327.183594 C 354.761719 327.789062 354.914062 328.394531 355.039062 329.011719 C 355.160156 329.628906 355.253906 330.25 355.316406 330.875 C 355.375 331.503906 355.40625 332.128906 355.40625 332.757812 C 355.40625 333.386719 355.375 334.015625 355.316406 334.640625 C 355.253906 335.265625 355.160156 335.886719 355.039062 336.503906 C 354.914062 337.121094 354.761719 337.730469 354.578125 338.332031 C 354.398438 338.933594 354.1875 339.523438 353.945312 340.105469 C 353.703125 340.6875 353.4375 341.253906 353.140625 341.808594 C 352.84375 342.363281 352.519531 342.902344 352.171875 343.421875 C 351.820312 343.945312 351.445312 344.449219 351.046875 344.9375 C 350.648438 345.421875 350.226562 345.886719 349.78125 346.332031 C 349.335938 346.777344 348.871094 347.199219 348.386719 347.597656 C 347.898438 347.996094 347.394531 348.371094 346.871094 348.71875 C 346.347656 349.070312 345.808594 349.394531 345.253906 349.6875 C 344.699219 349.984375 344.132812 350.253906 343.550781 350.496094 C 342.96875 350.734375 342.378906 350.945312 341.777344 351.128906 C 341.171875 351.3125 340.5625 351.464844 339.945312 351.585938 C 339.328125 351.710938 338.707031 351.800781 338.082031 351.863281 C 337.457031 351.925781 336.828125 351.957031 336.199219 351.957031 L 336.199219 364.753906 C 336.855469 364.753906 337.507812 364.734375 338.160156 364.691406 C 338.8125 364.652344 339.460938 364.589844 340.109375 364.511719 C 340.757812 364.429688 341.40625 364.328125 342.046875 364.210938 C 342.691406 364.089844 343.328125 363.949219 343.960938 363.792969 C 344.597656 363.632812 345.226562 363.453125 345.847656 363.257812 C 346.472656 363.058594 347.085938 362.84375 347.695312 362.605469 C 348.308594 362.371094 348.910156 362.117188 349.503906 361.847656 C 350.097656 361.574219 350.683594 361.285156 351.257812 360.976562 C 351.835938 360.667969 352.402344 360.34375 352.957031 360 C 353.515625 359.65625 354.0625 359.296875 354.59375 358.921875 C 355.128906 358.546875 355.652344 358.152344 356.164062 357.746094 C 356.671875 357.335938 357.171875 356.914062 357.65625 356.476562 C 358.140625 356.039062 358.609375 355.585938 359.066406 355.117188 C 359.523438 354.648438 359.964844 354.167969 360.394531 353.675781 C 360.820312 353.179688 361.230469 352.671875 361.628906 352.152344 C 362.023438 351.632812 362.40625 351.101562 362.769531 350.558594 C 363.132812 350.015625 363.480469 349.464844 363.808594 348.898438 C 364.136719 348.335938 364.449219 347.761719 364.746094 347.179688 C 365.039062 346.59375 365.316406 346.003906 365.574219 345.402344 C 365.832031 344.804688 366.070312 344.195312 366.292969 343.582031 C 366.515625 342.964844 366.714844 342.34375 366.898438 341.71875 C 367.082031 341.089844 367.246094 340.457031 367.390625 339.820312 C 367.535156 339.183594 367.660156 338.542969 367.765625 337.898438 C 367.871094 337.253906 367.953125 336.605469 368.019531 335.957031 C 368.085938 335.304688 368.128906 334.65625 368.15625 334 C 368.179688 333.347656 368.1875 332.695312 368.171875 332.042969 C 368.15625 331.390625 368.121094 330.738281 368.070312 330.085938 C 368.015625 329.433594 367.9375 328.785156 367.84375 328.140625 C 367.75 327.492188 367.636719 326.851562 367.503906 326.210938 C 367.367188 325.570312 367.214844 324.9375 367.042969 324.304688 C 366.871094 323.675781 366.679688 323.050781 366.46875 322.433594 C 366.257812 321.816406 366.027344 321.203125 365.777344 320.601562 L 386.523438 285.019531 C 387.78125 284.359375 388.972656 283.597656 390.105469 282.738281 C 391.234375 281.878906 392.289062 280.933594 393.261719 279.898438 C 394.234375 278.863281 395.113281 277.753906 395.902344 276.574219 C 396.691406 275.390625 397.375 274.152344 397.957031 272.859375 C 398.539062 271.5625 399.011719 270.230469 399.371094 268.855469 C 399.730469 267.480469 399.976562 266.085938 400.105469 264.671875 C 400.230469 263.257812 400.242188 261.84375 400.136719 260.429688 C 400.027344 259.011719 399.804688 257.613281 399.464844 256.238281 C 399.121094 254.859375 398.671875 253.515625 398.109375 252.214844 C 397.542969 250.910156 396.875 249.660156 396.105469 248.46875 C 395.332031 247.277344 394.46875 246.15625 393.511719 245.109375 C 392.554688 244.058594 391.515625 243.097656 390.398438 242.222656 C 389.277344 241.34375 388.097656 240.566406 386.847656 239.886719 C 385.601562 239.207031 384.304688 238.636719 382.960938 238.171875 C 381.621094 237.710938 380.246094 237.359375 378.847656 237.125 C 377.445312 236.890625 376.035156 236.769531 374.613281 236.769531 Z M 323.394531 115.1875 L 336.199219 115.1875 L 336.199219 140.78125 L 323.394531 140.78125 Z M 310.589844 108.785156 L 310.589844 147.183594 L 297.785156 147.183594 L 297.785156 140.78125 C 297.765625 129.789062 295.886719 119.125 292.152344 108.785156 Z M 310.589844 38.394531 C 311.011719 38.394531 311.425781 38.4375 311.839844 38.519531 C 312.25 38.601562 312.652344 38.722656 313.039062 38.882812 C 313.429688 39.042969 313.796875 39.242188 314.148438 39.472656 C 314.496094 39.707031 314.820312 39.972656 315.117188 40.269531 C 315.414062 40.566406 315.679688 40.890625 315.914062 41.238281 C 316.148438 41.589844 316.34375 41.957031 316.503906 42.347656 C 316.667969 42.734375 316.789062 43.132812 316.871094 43.546875 C 316.953125 43.957031 316.992188 44.375 316.992188 44.792969 C 316.992188 45.214844 316.953125 45.632812 316.871094 46.042969 C 316.789062 46.457031 316.667969 46.855469 316.503906 47.242188 C 316.34375 47.632812 316.148438 48 315.914062 48.351562 C 315.679688 48.699219 315.414062 49.023438 315.117188 49.320312 C 314.820312 49.617188 314.496094 49.882812 314.148438 50.117188 C 313.796875 50.347656 313.429688 50.546875 313.039062 50.707031 C 312.652344 50.867188 312.25 50.988281 311.839844 51.070312 C 311.425781 51.152344 311.011719 51.195312 310.589844 51.195312 C 310.171875 51.195312 309.753906 51.152344 309.339844 51.070312 C 308.929688 50.988281 308.527344 50.867188 308.140625 50.707031 C 307.75 50.546875 307.382812 50.347656 307.035156 50.117188 C 306.683594 49.882812 306.359375 49.617188 306.0625 49.320312 C 305.765625 49.023438 305.5 48.699219 305.265625 48.351562 C 305.035156 48 304.835938 47.632812 304.675781 47.242188 C 304.515625 46.855469 304.394531 46.457031 304.3125 46.042969 C 304.230469 45.632812 304.1875 45.214844 304.1875 44.792969 C 304.1875 44.375 304.230469 43.957031 304.3125 43.546875 C 304.394531 43.132812 304.515625 42.734375 304.675781 42.347656 C 304.835938 41.957031 305.035156 41.589844 305.265625 41.238281 C 305.5 40.890625 305.765625 40.566406 306.0625 40.269531 C 306.359375 39.972656 306.683594 39.707031 307.035156 39.472656 C 307.382812 39.242188 307.753906 39.042969 308.140625 38.882812 C 308.527344 38.722656 308.929688 38.601562 309.339844 38.519531 C 309.753906 38.4375 310.171875 38.394531 310.589844 38.394531 Z M 92.910156 51.195312 C 92.488281 51.195312 92.074219 51.152344 91.660156 51.070312 C 91.25 50.988281 90.847656 50.867188 90.460938 50.707031 C 90.070312 50.546875 89.703125 50.347656 89.351562 50.117188 C 89.003906 49.882812 88.679688 49.617188 88.382812 49.320312 C 88.085938 49.023438 87.820312 48.699219 87.585938 48.351562 C 87.351562 48 87.15625 47.632812 86.996094 47.242188 C 86.832031 46.855469 86.710938 46.457031 86.628906 46.042969 C 86.546875 45.632812 86.507812 45.214844 86.507812 44.792969 C 86.507812 44.375 86.546875 43.957031 86.628906 43.546875 C 86.710938 43.132812 86.832031 42.734375 86.996094 42.347656 C 87.15625 41.957031 87.351562 41.589844 87.585938 41.238281 C 87.820312 40.890625 88.085938 40.566406 88.382812 40.269531 C 88.679688 39.972656 89.003906 39.707031 89.351562 39.472656 C 89.703125 39.242188 90.070312 39.042969 90.460938 38.882812 C 90.847656 38.722656 91.25 38.601562 91.660156 38.519531 C 92.074219 38.4375 92.488281 38.394531 92.910156 38.394531 C 93.328125 38.394531 93.746094 38.4375 94.160156 38.519531 C 94.570312 38.601562 94.972656 38.722656 95.359375 38.882812 C 95.746094 39.042969 96.117188 39.242188 96.464844 39.472656 C 96.816406 39.707031 97.140625 39.972656 97.4375 40.269531 C 97.734375 40.566406 98 40.890625 98.234375 41.238281 C 98.464844 41.589844 98.664062 41.957031 98.824219 42.347656 C 98.984375 42.734375 99.105469 43.132812 99.1875 43.546875 C 99.269531 43.957031 99.3125 44.375 99.3125 44.792969 C 99.3125 45.214844 99.269531 45.632812 99.1875 46.042969 C 99.105469 46.457031 98.984375 46.855469 98.824219 47.242188 C 98.664062 47.632812 98.464844 48 98.234375 48.351562 C 98 48.699219 97.734375 49.023438 97.4375 49.320312 C 97.140625 49.617188 96.816406 49.882812 96.464844 50.117188 C 96.117188 50.347656 95.746094 50.546875 95.359375 50.707031 C 94.972656 50.867188 94.570312 50.988281 94.160156 51.070312 C 93.746094 51.152344 93.328125 51.195312 92.910156 51.195312 Z M 80.105469 140.78125 L 67.300781 140.78125 L 67.300781 115.1875 L 80.105469 115.1875 Z M 105.714844 140.78125 L 105.714844 147.183594 L 92.910156 147.183594 L 92.910156 108.785156 L 111.347656 108.785156 C 107.613281 119.125 105.734375 129.789062 105.714844 140.78125 Z M 105.714844 223.972656 L 89.964844 223.972656 L 87.980469 221.027344 C 87.449219 220.234375 86.777344 219.589844 85.957031 219.097656 C 85.140625 218.605469 84.257812 218.308594 83.304688 218.210938 C 82.347656 218.140625 81.417969 218.269531 80.515625 218.589844 C 79.613281 218.914062 78.8125 219.40625 78.121094 220.070312 L 43.226562 254.945312 C 42.457031 255.714844 41.917969 256.621094 41.609375 257.667969 C 41.304688 258.710938 41.265625 259.765625 41.5 260.832031 C 41.621094 261.335938 41.6875 261.847656 41.691406 262.367188 C 41.691406 264.042969 41.375 265.652344 40.746094 267.203125 C 40.113281 268.753906 39.210938 270.128906 38.042969 271.324219 C 37.566406 271.828125 37.179688 272.390625 36.886719 273.015625 C 36.59375 273.640625 36.40625 274.296875 36.324219 274.984375 C 36.246094 275.671875 36.273438 276.351562 36.414062 277.027344 C 36.554688 277.707031 36.796875 278.34375 37.144531 278.941406 L 52.191406 304.539062 C 49.871094 305.742188 47.738281 307.214844 45.789062 308.953125 L 26.964844 276.957031 C 26.265625 275.691406 25.238281 274.796875 23.890625 274.269531 C 23.199219 273.996094 22.53125 273.664062 21.898438 273.273438 C 21.261719 272.886719 20.664062 272.441406 20.105469 271.949219 C 19.546875 271.457031 19.035156 270.917969 18.570312 270.332031 C 18.105469 269.75 17.695312 269.128906 17.339844 268.476562 C 16.984375 267.820312 16.6875 267.140625 16.449219 266.433594 C 16.210938 265.726562 16.039062 265.003906 15.925781 264.265625 C 15.816406 263.53125 15.769531 262.789062 15.789062 262.042969 C 15.808594 261.296875 15.890625 260.558594 16.039062 259.828125 C 16.1875 259.097656 16.394531 258.386719 16.667969 257.691406 C 16.941406 256.996094 17.273438 256.332031 17.660156 255.695312 C 18.046875 255.058594 18.488281 254.460938 18.984375 253.902344 C 19.476562 253.34375 20.015625 252.832031 20.597656 252.363281 C 21.179688 251.898438 21.796875 251.488281 22.453125 251.132812 C 23.105469 250.773438 23.789062 250.476562 24.496094 250.238281 C 25.203125 250 25.921875 249.824219 26.660156 249.710938 C 27.398438 249.597656 28.140625 249.550781 28.886719 249.570312 L 30.421875 249.570312 C 31.488281 249.800781 32.542969 249.761719 33.589844 249.457031 C 34.632812 249.148438 35.542969 248.609375 36.3125 247.839844 L 74.40625 209.765625 C 74.933594 209.238281 75.355469 208.640625 75.675781 207.964844 C 75.992188 207.289062 76.1875 206.582031 76.253906 205.839844 C 76.324219 205.097656 76.269531 204.367188 76.082031 203.644531 C 75.898438 202.921875 75.59375 202.253906 75.175781 201.640625 L 72.871094 198.375 L 105.714844 198.375 Z M 195.347656 31.996094 L 208.152344 31.996094 L 208.152344 45.113281 C 206.039062 44.792969 203.925781 44.792969 201.75 44.792969 C 199.574219 44.792969 197.460938 44.792969 195.347656 45.113281 Z M 201.75 57.59375 C 208.585938 57.589844 215.320312 58.425781 221.953125 60.09375 C 228.582031 61.761719 234.910156 64.210938 240.933594 67.449219 C 237.023438 72.792969 233.925781 78.574219 231.648438 84.789062 C 231.199219 84.234375 230.738281 83.691406 230.257812 83.160156 C 229.78125 82.632812 229.289062 82.117188 228.78125 81.613281 C 228.273438 81.113281 227.75 80.625 227.21875 80.152344 C 226.683594 79.679688 226.136719 79.21875 225.574219 78.777344 C 225.015625 78.335938 224.441406 77.90625 223.859375 77.496094 C 223.273438 77.085938 222.679688 76.691406 222.074219 76.316406 C 221.46875 75.9375 220.851562 75.578125 220.226562 75.234375 C 219.601562 74.890625 218.964844 74.566406 218.320312 74.257812 C 217.675781 73.949219 217.023438 73.660156 216.363281 73.386719 C 215.703125 73.117188 215.035156 72.863281 214.363281 72.628906 C 213.6875 72.394531 213.007812 72.179688 212.320312 71.984375 C 211.632812 71.785156 210.941406 71.609375 210.246094 71.453125 C 209.550781 71.292969 208.847656 71.15625 208.144531 71.035156 C 207.441406 70.917969 206.734375 70.820312 206.023438 70.738281 C 205.316406 70.660156 204.601562 70.601562 203.890625 70.558594 C 203.175781 70.519531 202.464844 70.5 201.75 70.5 C 201.035156 70.5 200.324219 70.519531 199.609375 70.558594 C 198.898438 70.601562 198.183594 70.660156 197.476562 70.738281 C 196.765625 70.820312 196.058594 70.917969 195.355469 71.035156 C 194.652344 71.15625 193.949219 71.292969 193.253906 71.453125 C 192.558594 71.609375 191.867188 71.785156 191.179688 71.984375 C 190.492188 72.179688 189.8125 72.394531 189.136719 72.628906 C 188.464844 72.863281 187.796875 73.117188 187.136719 73.386719 C 186.476562 73.660156 185.824219 73.949219 185.179688 74.257812 C 184.535156 74.566406 183.898438 74.890625 183.273438 75.234375 C 182.648438 75.578125 182.03125 75.9375 181.425781 76.316406 C 180.820312 76.691406 180.226562 77.085938 179.640625 77.496094 C 179.058594 77.90625 178.484375 78.335938 177.925781 78.777344 C 177.363281 79.21875 176.816406 79.679688 176.28125 80.152344 C 175.75 80.625 175.226562 81.113281 174.71875 81.613281 C 174.210938 82.117188 173.71875 82.632812 173.242188 83.160156 C 172.761719 83.691406 172.300781 84.234375 171.851562 84.789062 C 169.574219 78.574219 166.476562 72.792969 162.566406 67.449219 C 168.585938 64.214844 174.910156 61.761719 181.539062 60.09375 C 188.171875 58.425781 194.90625 57.59375 201.75 57.59375 Z M 227.359375 108.785156 C 227.359375 109.625 227.320312 110.460938 227.234375 111.296875 C 227.152344 112.128906 227.03125 112.957031 226.867188 113.78125 C 226.703125 114.601562 226.5 115.414062 226.257812 116.21875 C 226.011719 117.019531 225.730469 117.808594 225.410156 118.582031 C 225.089844 119.355469 224.730469 120.113281 224.335938 120.851562 C 223.941406 121.59375 223.507812 122.308594 223.042969 123.007812 C 222.578125 123.703125 222.078125 124.375 221.546875 125.023438 C 221.015625 125.671875 220.453125 126.292969 219.859375 126.886719 C 219.265625 127.480469 218.644531 128.042969 217.996094 128.574219 C 217.347656 129.105469 216.675781 129.605469 215.976562 130.070312 C 215.28125 130.535156 214.5625 130.964844 213.820312 131.359375 C 213.082031 131.757812 212.324219 132.113281 211.550781 132.433594 C 210.777344 132.753906 209.988281 133.039062 209.183594 133.28125 C 208.382812 133.523438 207.570312 133.726562 206.746094 133.890625 C 205.921875 134.054688 205.09375 134.179688 204.261719 134.261719 C 203.425781 134.34375 202.589844 134.382812 201.75 134.382812 C 200.910156 134.382812 200.074219 134.34375 199.238281 134.261719 C 198.40625 134.179688 197.578125 134.054688 196.753906 133.890625 C 195.929688 133.726562 195.117188 133.523438 194.316406 133.28125 C 193.511719 133.039062 192.722656 132.753906 191.949219 132.433594 C 191.175781 132.113281 190.417969 131.757812 189.675781 131.359375 C 188.9375 130.964844 188.21875 130.535156 187.523438 130.070312 C 186.824219 129.605469 186.152344 129.105469 185.503906 128.574219 C 184.855469 128.042969 184.234375 127.480469 183.640625 126.886719 C 183.046875 126.292969 182.484375 125.671875 181.953125 125.023438 C 181.421875 124.375 180.921875 123.703125 180.457031 123.007812 C 179.992188 122.308594 179.558594 121.59375 179.164062 120.851562 C 178.769531 120.113281 178.410156 119.355469 178.089844 118.582031 C 177.769531 117.808594 177.488281 117.019531 177.242188 116.21875 C 177 115.414062 176.796875 114.601562 176.632812 113.78125 C 176.46875 112.957031 176.347656 112.128906 176.265625 111.296875 C 176.179688 110.460938 176.140625 109.625 176.140625 108.785156 C 176.140625 107.949219 176.179688 107.113281 176.265625 106.277344 C 176.347656 105.441406 176.46875 104.613281 176.632812 103.792969 C 176.796875 102.96875 177 102.160156 177.242188 101.355469 C 177.488281 100.554688 177.769531 99.765625 178.089844 98.992188 C 178.410156 98.214844 178.769531 97.460938 179.164062 96.71875 C 179.558594 95.980469 179.992188 95.261719 180.457031 94.566406 C 180.921875 93.867188 181.421875 93.195312 181.953125 92.546875 C 182.484375 91.898438 183.046875 91.28125 183.640625 90.6875 C 184.234375 90.09375 184.855469 89.53125 185.503906 89 C 186.152344 88.46875 186.824219 87.96875 187.523438 87.503906 C 188.21875 87.039062 188.9375 86.605469 189.675781 86.210938 C 190.417969 85.816406 191.175781 85.460938 191.949219 85.136719 C 192.722656 84.816406 193.511719 84.535156 194.316406 84.292969 C 195.117188 84.046875 195.929688 83.84375 196.753906 83.679688 C 197.578125 83.519531 198.40625 83.394531 199.238281 83.3125 C 200.074219 83.230469 200.910156 83.191406 201.75 83.191406 C 202.589844 83.191406 203.425781 83.230469 204.261719 83.3125 C 205.09375 83.394531 205.921875 83.519531 206.746094 83.679688 C 207.570312 83.84375 208.382812 84.046875 209.183594 84.292969 C 209.988281 84.535156 210.777344 84.816406 211.550781 85.136719 C 212.324219 85.460938 213.082031 85.816406 213.820312 86.210938 C 214.5625 86.605469 215.28125 87.039062 215.976562 87.503906 C 216.675781 87.96875 217.347656 88.46875 217.996094 89 C 218.644531 89.53125 219.265625 90.09375 219.859375 90.6875 C 220.453125 91.28125 221.015625 91.898438 221.546875 92.546875 C 222.078125 93.195312 222.578125 93.867188 223.042969 94.566406 C 223.507812 95.261719 223.941406 95.980469 224.335938 96.71875 C 224.730469 97.460938 225.089844 98.214844 225.410156 98.992188 C 225.730469 99.765625 226.011719 100.554688 226.257812 101.355469 C 226.5 102.160156 226.703125 102.96875 226.867188 103.792969 C 227.03125 104.613281 227.152344 105.441406 227.234375 106.277344 C 227.320312 107.113281 227.359375 107.949219 227.359375 108.785156 Z M 118.519531 159.980469 L 118.519531 140.78125 C 118.523438 137.570312 118.714844 134.367188 119.089844 131.179688 C 119.464844 127.988281 120.027344 124.828125 120.769531 121.703125 C 121.507812 118.578125 122.429688 115.507812 123.527344 112.488281 C 124.625 109.46875 125.894531 106.523438 127.335938 103.648438 C 128.773438 100.777344 130.375 97.996094 132.136719 95.3125 C 133.898438 92.625 135.808594 90.046875 137.871094 87.582031 C 139.929688 85.117188 142.125 82.777344 144.457031 80.566406 C 146.789062 78.355469 149.238281 76.285156 151.8125 74.359375 C 153.671875 76.824219 155.316406 79.417969 156.757812 82.148438 C 158.195312 84.878906 159.402344 87.707031 160.382812 90.632812 C 161.359375 93.558594 162.097656 96.546875 162.59375 99.589844 C 163.089844 102.636719 163.335938 105.703125 163.335938 108.785156 C 163.335938 110.042969 163.398438 111.296875 163.519531 112.550781 C 163.644531 113.800781 163.828125 115.042969 164.074219 116.277344 C 164.320312 117.511719 164.625 118.730469 164.988281 119.933594 C 165.355469 121.136719 165.777344 122.316406 166.261719 123.480469 C 166.742188 124.640625 167.277344 125.777344 167.871094 126.886719 C 168.464844 127.996094 169.109375 129.070312 169.808594 130.117188 C 170.507812 131.164062 171.257812 132.171875 172.054688 133.144531 C 172.851562 134.117188 173.699219 135.046875 174.585938 135.9375 C 175.476562 136.824219 176.40625 137.667969 177.378906 138.464844 C 178.351562 139.265625 179.363281 140.011719 180.40625 140.710938 C 181.453125 141.410156 182.53125 142.054688 183.640625 142.648438 C 184.75 143.242188 185.886719 143.777344 187.050781 144.257812 C 188.210938 144.738281 189.394531 145.164062 190.597656 145.527344 C 191.804688 145.894531 193.023438 146.199219 194.253906 146.445312 C 195.488281 146.6875 196.734375 146.875 197.984375 146.996094 C 199.238281 147.121094 200.492188 147.183594 201.75 147.183594 C 203.007812 147.183594 204.261719 147.121094 205.515625 146.996094 C 206.765625 146.875 208.011719 146.6875 209.246094 146.445312 C 210.476562 146.199219 211.695312 145.894531 212.902344 145.527344 C 214.105469 145.164062 215.289062 144.738281 216.449219 144.257812 C 217.613281 143.777344 218.75 143.242188 219.859375 142.648438 C 220.96875 142.054688 222.046875 141.410156 223.089844 140.710938 C 224.136719 140.011719 225.148438 139.265625 226.121094 138.464844 C 227.09375 137.667969 228.023438 136.824219 228.914062 135.9375 C 229.800781 135.046875 230.648438 134.117188 231.445312 133.144531 C 232.242188 132.171875 232.992188 131.164062 233.691406 130.117188 C 234.390625 129.070312 235.035156 127.996094 235.628906 126.886719 C 236.222656 125.777344 236.757812 124.640625 237.238281 123.480469 C 237.722656 122.316406 238.144531 121.136719 238.511719 119.933594 C 238.875 118.730469 239.179688 117.511719 239.425781 116.277344 C 239.671875 115.042969 239.855469 113.800781 239.980469 112.550781 C 240.101562 111.296875 240.164062 110.042969 240.164062 108.785156 C 240.164062 105.703125 240.410156 102.636719 240.90625 99.589844 C 241.402344 96.546875 242.140625 93.558594 243.117188 90.632812 C 244.097656 87.707031 245.304688 84.878906 246.742188 82.148438 C 248.183594 79.417969 249.828125 76.824219 251.6875 74.359375 C 254.261719 76.285156 256.710938 78.355469 259.042969 80.566406 C 261.375 82.777344 263.570312 85.117188 265.628906 87.582031 C 267.691406 90.046875 269.601562 92.625 271.363281 95.3125 C 273.125 97.996094 274.726562 100.777344 276.164062 103.648438 C 277.605469 106.523438 278.875 109.46875 279.972656 112.488281 C 281.070312 115.507812 281.992188 118.578125 282.730469 121.703125 C 283.472656 124.828125 284.035156 127.988281 284.410156 131.179688 C 284.785156 134.367188 284.976562 137.570312 284.980469 140.78125 L 284.980469 159.980469 Z M 180.367188 172.777344 L 223.132812 172.777344 C 225.441406 177.464844 228.367188 181.730469 231.90625 185.578125 L 171.59375 185.578125 C 175.132812 181.730469 178.058594 177.464844 180.367188 172.777344 Z M 201.75 383.953125 C 193.617188 383.953125 182.542969 359.441406 182.542969 345.558594 C 182.578125 343.34375 183.003906 341.210938 183.824219 339.15625 L 195.347656 339.15625 L 195.347656 358.355469 L 208.152344 358.355469 L 208.152344 339.15625 L 219.675781 339.15625 C 220.496094 341.210938 220.921875 343.34375 220.957031 345.558594 C 220.957031 359.441406 209.882812 383.953125 201.75 383.953125 Z M 227.359375 326.359375 L 176.140625 326.359375 L 173.964844 313.5625 L 229.023438 313.5625 Z M 284.980469 281.566406 C 284.980469 282.195312 284.949219 282.820312 284.886719 283.445312 C 284.828125 284.070312 284.734375 284.691406 284.613281 285.308594 C 284.488281 285.925781 284.335938 286.535156 284.152344 287.136719 C 283.972656 287.738281 283.757812 288.332031 283.519531 288.910156 C 283.277344 289.492188 283.007812 290.058594 282.714844 290.613281 C 282.417969 291.167969 282.09375 291.707031 281.742188 292.230469 C 281.394531 292.753906 281.019531 293.257812 280.621094 293.742188 C 280.222656 294.230469 279.800781 294.695312 279.355469 295.140625 C 278.910156 295.585938 278.445312 296.003906 277.957031 296.40625 C 277.472656 296.804688 276.96875 297.175781 276.445312 297.527344 C 275.921875 297.875 275.382812 298.199219 274.828125 298.496094 C 274.273438 298.792969 273.707031 299.058594 273.125 299.300781 C 272.542969 299.542969 271.953125 299.753906 271.347656 299.9375 C 270.746094 300.117188 270.136719 300.269531 269.519531 300.394531 C 268.902344 300.515625 268.28125 300.609375 267.65625 300.667969 C 267.03125 300.730469 266.402344 300.761719 265.773438 300.761719 L 137.726562 300.761719 C 137.097656 300.761719 136.46875 300.730469 135.84375 300.667969 C 135.21875 300.609375 134.597656 300.515625 133.980469 300.394531 C 133.363281 300.269531 132.753906 300.117188 132.152344 299.9375 C 131.546875 299.753906 130.957031 299.542969 130.375 299.300781 C 129.792969 299.058594 129.226562 298.792969 128.671875 298.496094 C 128.117188 298.199219 127.578125 297.875 127.054688 297.527344 C 126.53125 297.175781 126.027344 296.804688 125.542969 296.40625 C 125.054688 296.003906 124.589844 295.585938 124.144531 295.140625 C 123.699219 294.695312 123.277344 294.230469 122.878906 293.742188 C 122.480469 293.257812 122.105469 292.753906 121.757812 292.230469 C 121.40625 291.707031 121.082031 291.167969 120.785156 290.613281 C 120.492188 290.058594 120.222656 289.492188 119.980469 288.910156 C 119.742188 288.332031 119.527344 287.738281 119.347656 287.136719 C 119.164062 286.535156 119.011719 285.925781 118.886719 285.308594 C 118.765625 284.691406 118.671875 284.070312 118.613281 283.445312 C 118.550781 282.820312 118.519531 282.195312 118.519531 281.566406 L 118.519531 198.375 L 284.980469 198.375 Z M 379.542969 274.207031 C 378.195312 274.730469 377.171875 275.628906 376.472656 276.894531 L 357.648438 308.890625 C 355.699219 307.148438 353.5625 305.679688 351.246094 304.472656 L 366.292969 278.878906 C 366.636719 278.277344 366.882812 277.640625 367.019531 276.964844 C 367.160156 276.289062 367.191406 275.605469 367.109375 274.921875 C 367.03125 274.234375 366.84375 273.578125 366.550781 272.953125 C 366.253906 272.328125 365.871094 271.761719 365.394531 271.261719 C 364.242188 270.066406 363.355469 268.703125 362.738281 267.164062 C 362.117188 265.625 361.808594 264.027344 361.808594 262.367188 C 361.75 261.855469 361.75 261.34375 361.808594 260.832031 C 362.042969 259.765625 362.003906 258.710938 361.695312 257.667969 C 361.390625 256.621094 360.851562 255.714844 360.082031 254.945312 L 325.1875 220.070312 C 324.492188 219.40625 323.695312 218.914062 322.792969 218.589844 C 321.886719 218.269531 320.957031 218.140625 320 218.210938 C 319.050781 218.308594 318.167969 218.605469 317.351562 219.097656 C 316.53125 219.589844 315.859375 220.234375 315.328125 221.027344 L 313.34375 223.972656 L 297.785156 223.972656 L 297.785156 198.375 L 330.628906 198.375 L 328.324219 201.832031 C 327.90625 202.445312 327.601562 203.117188 327.417969 203.835938 C 327.230469 204.558594 327.175781 205.289062 327.246094 206.03125 C 327.3125 206.773438 327.507812 207.480469 327.824219 208.15625 C 328.144531 208.832031 328.566406 209.429688 329.09375 209.957031 L 367.507812 248.03125 C 368.277344 248.804688 369.1875 249.339844 370.230469 249.648438 C 371.277344 249.957031 372.332031 249.992188 373.398438 249.761719 L 374.613281 249.570312 C 375.351562 249.566406 376.082031 249.625 376.8125 249.746094 C 377.539062 249.871094 378.25 250.054688 378.945312 250.300781 C 379.640625 250.542969 380.308594 250.847656 380.949219 251.207031 C 381.59375 251.570312 382.199219 251.984375 382.773438 252.449219 C 383.34375 252.914062 383.871094 253.425781 384.355469 253.984375 C 384.835938 254.539062 385.269531 255.132812 385.648438 255.765625 C 386.027344 256.394531 386.351562 257.054688 386.617188 257.742188 C 386.886719 258.429688 387.089844 259.132812 387.234375 259.855469 C 387.378906 260.578125 387.460938 261.308594 387.480469 262.046875 C 387.5 262.78125 387.453125 263.515625 387.34375 264.246094 C 387.238281 264.972656 387.066406 265.6875 386.835938 266.386719 C 386.605469 267.085938 386.3125 267.761719 385.964844 268.410156 C 385.617188 269.058594 385.214844 269.675781 384.761719 270.253906 C 384.308594 270.835938 383.808594 271.371094 383.257812 271.867188 C 382.710938 272.359375 382.125 272.804688 381.503906 273.195312 C 380.878906 273.589844 380.226562 273.925781 379.542969 274.207031 Z M 379.542969 274.207031 " fill-opacity="1" fill-rule="nonzero"/></g></svg>