<svg xmlns="http://www.w3.org/2000/svg" xmlns:xlink="http://www.w3.org/1999/xlink" width="529" zoomAndPan="magnify" viewBox="0 0 396.75 396.749984" height="529" preserveAspectRatio="xMidYMid meet" version="1.0"><defs><clipPath id="id1"><path d="M 295 366 L 308 366 L 308 396.5 L 295 396.5 Z M 295 366 " clip-rule="nonzero"/></clipPath><clipPath id="id2"><path d="M 242 366 L 254 366 L 254 396.5 L 242 396.5 Z M 242 366 " clip-rule="nonzero"/></clipPath><clipPath id="id3"><path d="M 188 366 L 201 366 L 201 396.5 L 188 396.5 Z M 188 366 " clip-rule="nonzero"/></clipPath><clipPath id="id4"><path d="M 135 366 L 147 366 L 147 396.5 L 135 396.5 Z M 135 366 " clip-rule="nonzero"/></clipPath><clipPath id="id5"><path d="M 81 366 L 94 366 L 94 396.5 L 81 396.5 Z M 81 366 " clip-rule="nonzero"/></clipPath><clipPath id="id6"><path d="M 29 0 L 396.5 0 L 396.5 367 L 29 367 Z M 29 0 " clip-rule="nonzero"/></clipPath></defs><path fill="#ffffff" d="M 24.269531 89.453125 L 5.703125 89.453125 C 2.574219 89.453125 0 91.996094 0 95.15625 C 0 98.320312 2.574219 100.859375 5.703125 100.859375 L 24.269531 100.859375 C 27.429688 100.859375 29.972656 98.320312 29.972656 95.15625 C 29.972656 91.996094 27.429688 89.453125 24.269531 89.453125 " fill-opacity="1" fill-rule="nonzero"/><path fill="#ffffff" d="M 24.269531 142.984375 L 5.703125 142.984375 C 2.574219 142.984375 0 145.527344 0 148.6875 C 0 151.851562 2.574219 154.390625 5.703125 154.390625 L 24.269531 154.390625 C 27.429688 154.390625 29.972656 151.851562 29.972656 148.6875 C 29.972656 145.527344 27.429688 142.984375 24.269531 142.984375 " fill-opacity="1" fill-rule="nonzero"/><path fill="#ffffff" d="M 24.269531 196.515625 L 5.703125 196.515625 C 2.574219 196.515625 0 199.085938 0 202.21875 C 0 205.378906 2.574219 207.953125 5.703125 207.953125 L 24.269531 207.953125 C 27.429688 207.953125 29.972656 205.378906 29.972656 202.21875 C 29.972656 199.085938 27.429688 196.515625 24.269531 196.515625 " fill-opacity="1" fill-rule="nonzero"/><path fill="#ffffff" d="M 24.269531 250.046875 L 5.703125 250.046875 C 2.574219 250.046875 0 252.617188 0 255.75 C 0 258.910156 2.574219 261.484375 5.703125 261.484375 L 24.269531 261.484375 C 27.429688 261.484375 29.972656 258.910156 29.972656 255.75 C 29.972656 252.617188 27.429688 250.046875 24.269531 250.046875 " fill-opacity="1" fill-rule="nonzero"/><path fill="#ffffff" d="M 24.269531 303.605469 L 5.703125 303.605469 C 2.574219 303.605469 0 306.148438 0 309.308594 C 0 312.472656 2.574219 315.011719 5.703125 315.011719 L 24.269531 315.011719 C 27.429688 315.011719 29.972656 312.472656 29.972656 309.308594 C 29.972656 306.148438 27.429688 303.605469 24.269531 303.605469 " fill-opacity="1" fill-rule="nonzero"/><g clip-path="url(#id1)"><path fill="#ffffff" d="M 301.59375 366.777344 C 298.429688 366.777344 295.890625 369.320312 295.890625 372.480469 L 295.890625 391.046875 C 295.890625 394.175781 298.429688 396.75 301.59375 396.75 C 304.753906 396.75 307.296875 394.175781 307.296875 391.046875 L 307.296875 372.480469 C 307.296875 369.320312 304.753906 366.777344 301.59375 366.777344 " fill-opacity="1" fill-rule="nonzero"/></g><g clip-path="url(#id2)"><path fill="#ffffff" d="M 248.0625 366.777344 C 244.898438 366.777344 242.359375 369.320312 242.359375 372.480469 L 242.359375 391.046875 C 242.359375 394.175781 244.898438 396.75 248.0625 396.75 C 251.222656 396.75 253.765625 394.175781 253.765625 391.046875 L 253.765625 372.480469 C 253.765625 369.320312 251.222656 366.777344 248.0625 366.777344 " fill-opacity="1" fill-rule="nonzero"/></g><g clip-path="url(#id3)"><path fill="#ffffff" d="M 194.53125 366.777344 C 191.371094 366.777344 188.796875 369.320312 188.796875 372.480469 L 188.796875 391.046875 C 188.796875 394.175781 191.371094 396.75 194.53125 396.75 C 197.660156 396.75 200.234375 394.175781 200.234375 391.046875 L 200.234375 372.480469 C 200.234375 369.320312 197.660156 366.777344 194.53125 366.777344 " fill-opacity="1" fill-rule="nonzero"/></g><g clip-path="url(#id4)"><path fill="#ffffff" d="M 141 366.777344 C 137.839844 366.777344 135.265625 369.320312 135.265625 372.480469 L 135.265625 391.046875 C 135.265625 394.175781 137.839844 396.75 141 396.75 C 144.132812 396.75 146.703125 394.175781 146.703125 391.046875 L 146.703125 372.480469 C 146.703125 369.320312 144.132812 366.777344 141 366.777344 " fill-opacity="1" fill-rule="nonzero"/></g><g clip-path="url(#id5)"><path fill="#ffffff" d="M 87.441406 366.777344 C 84.277344 366.777344 81.738281 369.320312 81.738281 372.480469 L 81.738281 391.046875 C 81.738281 394.175781 84.277344 396.75 87.441406 396.75 C 90.601562 396.75 93.144531 394.175781 93.144531 391.046875 L 93.144531 372.480469 C 93.144531 369.320312 90.601562 366.777344 87.441406 366.777344 " fill-opacity="1" fill-rule="nonzero"/></g><path fill="#ffffff" d="M 197.382812 112.359375 L 191.679688 112.359375 L 191.679688 123.859375 L 197.382812 123.859375 L 197.382812 112.359375 " fill-opacity="1" fill-rule="nonzero"/><path fill="#ffffff" d="M 191.648438 192.859375 L 197.351562 192.859375 L 197.351562 181.390625 L 191.648438 181.390625 L 191.648438 192.859375 " fill-opacity="1" fill-rule="nonzero"/><path fill="#ffffff" d="M 191.648438 169.859375 L 197.351562 169.859375 L 197.351562 158.359375 L 191.648438 158.359375 L 191.648438 169.859375 " fill-opacity="1" fill-rule="nonzero"/><path fill="#ffffff" d="M 197.351562 205.070312 L 205.597656 205.070312 L 205.597656 199.367188 L 194.160156 199.367188 L 194.160156 204.386719 L 191.648438 204.386719 L 191.648438 215.886719 L 197.351562 215.886719 L 197.351562 205.070312 " fill-opacity="1" fill-rule="nonzero"/><path fill="#ffffff" d="M 197.351562 273.386719 L 191.648438 273.386719 L 191.648438 284.855469 L 197.351562 284.855469 L 197.351562 273.386719 " fill-opacity="1" fill-rule="nonzero"/><path fill="#ffffff" d="M 197.351562 250.355469 L 191.648438 250.355469 L 191.648438 261.855469 L 197.351562 261.855469 L 197.351562 250.355469 " fill-opacity="1" fill-rule="nonzero"/><path fill="#ffffff" d="M 191.648438 330.882812 L 197.351562 330.882812 L 197.351562 319.351562 L 191.648438 319.351562 L 191.648438 330.882812 " fill-opacity="1" fill-rule="nonzero"/><path fill="#ffffff" d="M 197.351562 227.355469 L 191.648438 227.355469 L 191.648438 238.886719 L 197.351562 238.886719 L 197.351562 227.355469 " fill-opacity="1" fill-rule="nonzero"/><path fill="#ffffff" d="M 197.351562 296.382812 L 191.648438 296.382812 L 191.648438 307.882812 L 197.351562 307.882812 L 197.351562 296.382812 " fill-opacity="1" fill-rule="nonzero"/><path fill="#ffffff" d="M 191.648438 146.828125 L 197.351562 146.828125 L 197.351562 135.359375 L 191.648438 135.359375 L 191.648438 146.828125 " fill-opacity="1" fill-rule="nonzero"/><path fill="#ffffff" d="M 127.734375 92.304688 L 115.554688 92.304688 L 115.554688 98.007812 L 127.734375 98.007812 L 127.734375 92.304688 " fill-opacity="1" fill-rule="nonzero"/><path fill="#ffffff" d="M 103.339844 92.304688 L 91.160156 92.304688 L 91.160156 98.007812 L 103.339844 98.007812 L 103.339844 92.304688 " fill-opacity="1" fill-rule="nonzero"/><path fill="#ffffff" d="M 152.160156 92.304688 L 139.949219 92.304688 L 139.949219 98.007812 L 152.160156 98.007812 L 152.160156 92.304688 " fill-opacity="1" fill-rule="nonzero"/><path fill="#ffffff" d="M 176.585938 92.304688 L 164.371094 92.304688 L 164.371094 98.007812 L 176.585938 98.007812 L 176.585938 92.304688 " fill-opacity="1" fill-rule="nonzero"/><path fill="#ffffff" d="M 66.734375 98.007812 L 78.945312 98.007812 L 78.945312 92.304688 L 66.734375 92.304688 L 66.734375 98.007812 " fill-opacity="1" fill-rule="nonzero"/><path fill="#ffffff" d="M 298.742188 334.664062 L 304.445312 334.664062 L 304.445312 323.226562 L 298.742188 323.226562 L 298.742188 334.664062 " fill-opacity="1" fill-rule="nonzero"/><path fill="#ffffff" d="M 304.445312 209.039062 L 298.742188 209.039062 L 298.742188 220.445312 L 304.445312 220.445312 L 304.445312 209.039062 " fill-opacity="1" fill-rule="nonzero"/><path fill="#ffffff" d="M 304.445312 254.695312 L 298.742188 254.695312 L 298.742188 266.132812 L 304.445312 266.132812 L 304.445312 254.695312 " fill-opacity="1" fill-rule="nonzero"/><path fill="#ffffff" d="M 304.445312 277.539062 L 298.742188 277.539062 L 298.742188 288.976562 L 304.445312 288.976562 L 304.445312 277.539062 " fill-opacity="1" fill-rule="nonzero"/><path fill="#ffffff" d="M 304.445312 231.851562 L 298.742188 231.851562 L 298.742188 243.289062 L 304.445312 243.289062 L 304.445312 231.851562 " fill-opacity="1" fill-rule="nonzero"/><path fill="#ffffff" d="M 304.445312 300.382812 L 298.742188 300.382812 L 298.742188 311.820312 L 304.445312 311.820312 L 304.445312 300.382812 " fill-opacity="1" fill-rule="nonzero"/><path fill="#ffffff" d="M 274.097656 199.367188 L 262.691406 199.367188 L 262.691406 205.070312 L 274.097656 205.070312 L 274.097656 199.367188 " fill-opacity="1" fill-rule="nonzero"/><path fill="#ffffff" d="M 91.375 199.367188 L 79.9375 199.367188 L 79.9375 205.070312 L 91.375 205.070312 L 91.375 199.367188 " fill-opacity="1" fill-rule="nonzero"/><path fill="#ffffff" d="M 228.441406 205.070312 L 228.441406 199.367188 L 217.003906 199.367188 L 217.003906 205.070312 L 228.441406 205.070312 " fill-opacity="1" fill-rule="nonzero"/><path fill="#ffffff" d="M 171.316406 205.070312 L 182.753906 205.070312 L 182.753906 199.367188 L 171.316406 199.367188 L 171.316406 205.070312 " fill-opacity="1" fill-rule="nonzero"/><path fill="#ffffff" d="M 102.78125 205.070312 L 114.21875 205.070312 L 114.21875 199.367188 L 102.78125 199.367188 L 102.78125 205.070312 " fill-opacity="1" fill-rule="nonzero"/><path fill="#ffffff" d="M 125.628906 205.070312 L 137.066406 205.070312 L 137.066406 199.367188 L 125.628906 199.367188 L 125.628906 205.070312 " fill-opacity="1" fill-rule="nonzero"/><path fill="#ffffff" d="M 66.050781 205.070312 L 68.53125 205.070312 L 68.53125 199.367188 L 57.09375 199.367188 C 57.09375 199.398438 57.0625 201.660156 57.0625 207.332031 C 76.375 214.988281 131.578125 244.1875 138.148438 329.738281 C 138.242188 331.253906 139.511719 332.371094 141 332.371094 C 141.03125 332.371094 141.09375 332.371094 141.15625 332.371094 C 142.707031 332.277344 143.882812 330.976562 143.851562 329.425781 C 141.960938 279.210938 144.007812 237.058594 148.472656 203.085938 L 148.472656 205.070312 L 159.910156 205.070312 L 159.910156 199.367188 L 149 199.367188 C 156.746094 144.007812 171.097656 111.246094 185.667969 102.347656 C 190.625 99.3125 195.460938 99.15625 200.390625 101.945312 C 221.0625 113.539062 245.210938 180.085938 245.210938 329.550781 C 245.210938 329.550781 245.210938 329.550781 245.210938 329.582031 C 245.210938 329.613281 245.210938 329.644531 245.210938 329.707031 C 245.210938 329.707031 245.210938 329.738281 245.210938 329.738281 C 245.210938 329.738281 245.210938 329.738281 245.210938 329.765625 C 245.210938 329.796875 245.242188 329.859375 245.242188 329.890625 C 245.394531 331.285156 246.605469 332.371094 248.0625 332.371094 C 249.640625 332.371094 250.914062 331.101562 250.914062 329.550781 C 250.914062 328.339844 251.535156 210.433594 301.902344 205.070312 C 303.453125 204.914062 304.597656 203.488281 304.445312 201.941406 C 304.257812 200.359375 302.769531 199.242188 301.28125 199.398438 C 299.792969 199.554688 298.367188 199.863281 296.941406 200.171875 L 296.941406 199.367188 L 285.535156 199.367188 L 285.535156 204.792969 C 264.800781 217.46875 254.726562 249.519531 249.828125 277.972656 C 248.679688 251.191406 246.542969 226.828125 243.597656 205.070312 L 251.253906 205.070312 L 251.253906 199.367188 L 242.824219 199.367188 C 234.765625 143.761719 221.03125 106.96875 203.179688 96.957031 C 196.484375 93.207031 189.386719 93.359375 182.660156 97.484375 C 159.195312 111.804688 137.4375 177.203125 137.4375 292.449219 C 122.21875 238.792969 86.230469 214.710938 66.050781 205.070312 " fill-opacity="1" fill-rule="nonzero"/><g clip-path="url(#id6)"><path fill="#ffffff" d="M 396.75 348.085938 L 349.882812 329.519531 L 359.308594 345.574219 L 51.050781 345.574219 C 51.050781 261.421875 51.050781 129.59375 51.050781 37.441406 L 67.105469 46.867188 L 48.539062 0 L 29.972656 46.867188 L 46.027344 37.441406 L 46.027344 350.722656 L 51.050781 350.722656 L 51.050781 350.597656 L 359.308594 350.597656 L 349.882812 366.652344 L 396.75 348.085938 " fill-opacity="1" fill-rule="nonzero"/></g></svg>