<svg xmlns="http://www.w3.org/2000/svg" xmlns:xlink="http://www.w3.org/1999/xlink" width="529" zoomAndPan="magnify" viewBox="0 0 396.75 396.749984" height="529" preserveAspectRatio="xMidYMid meet" version="1.0"><defs><clipPath id="id1"><path d="M 0 0 L 396.5 0 L 396.5 396.5 L 0 396.5 Z M 0 0 " clip-rule="nonzero"/></clipPath><clipPath id="id2"><path d="M 0 40 L 396.5 40 L 396.5 356 L 0 356 Z M 0 40 " clip-rule="nonzero"/></clipPath></defs><g clip-path="url(#id1)"><path fill="#ffffff" d="M 0 0 L 396.75 0 L 396.75 396.75 L 0 396.75 Z M 0 0 " fill-opacity="1" fill-rule="nonzero"/><path fill="#ffffff" d="M 0 0 L 396.75 0 L 396.75 396.75 L 0 396.75 Z M 0 0 " fill-opacity="1" fill-rule="nonzero"/><path fill="#ffffff" d="M 0 0 L 396.75 0 L 396.75 396.75 L 0 396.75 Z M 0 0 " fill-opacity="1" fill-rule="nonzero"/></g><g clip-path="url(#id2)"><path fill="#d4dbfe" d="M 199.882812 301.382812 C 200.296875 300.570312 200.710938 299.746094 201.101562 298.925781 C 201.128906 298.871094 201.160156 298.8125 201.183594 298.757812 C 201.605469 297.871094 202.011719 296.972656 202.410156 296.070312 C 202.515625 295.839844 202.613281 295.605469 202.714844 295.375 C 203.011719 294.679688 203.304688 293.988281 203.585938 293.285156 C 203.6875 293.039062 203.785156 292.78125 203.886719 292.535156 C 210.46875 275.839844 212.625 257.152344 209.144531 238.179688 C 207.085938 226.953125 203.167969 216.5 197.785156 207.074219 C 199.292969 202.496094 200.386719 197.988281 200.648438 193.910156 C 201.277344 184.054688 198.136719 186.359375 198.136719 186.359375 C 198.136719 186.359375 196.972656 184.535156 195.527344 185.476562 C 195.398438 185.332031 195.222656 185.234375 195.015625 185.226562 C 194.679688 185.203125 194.433594 185.402344 194.332031 185.675781 C 193.582031 185.507812 192.3125 185.644531 191.21875 187.828125 C 191.21875 187.828125 188.707031 186.359375 187.023438 189.503906 C 186.824219 189.886719 186.574219 190.375 186.296875 190.941406 C 180.199219 183.976562 173.171875 177.902344 165.441406 172.882812 C 166.871094 172.574219 168.144531 171.949219 169.230469 170.945312 C 171.824219 168.550781 172.476562 164.519531 171.121094 159.285156 C 170.554688 157.109375 169.644531 154.738281 168.457031 152.25 C 169.734375 151.609375 170.953125 150.941406 172.070312 150.238281 C 172.246094 150.125 172.351562 149.949219 172.390625 149.765625 C 173.101562 150.476562 174.082031 150.917969 175.167969 150.917969 C 177.335938 150.917969 179.101562 149.152344 179.101562 146.984375 C 179.101562 144.8125 177.335938 143.046875 175.167969 143.046875 C 172.996094 143.046875 171.234375 144.8125 171.234375 146.984375 C 171.234375 147.699219 171.441406 148.355469 171.769531 148.9375 C 171.617188 148.921875 171.449219 148.945312 171.304688 149.035156 C 170.21875 149.710938 169.046875 150.359375 167.820312 150.980469 C 166.445312 148.300781 164.761719 145.507812 162.808594 142.683594 C 164.507812 137.957031 165.761719 133.195312 166.335938 128.84375 C 167.921875 129.101562 169.421875 129.460938 170.792969 129.921875 C 175.015625 131.34375 177.648438 133.632812 178.621094 136.730469 C 179.285156 138.84375 178.996094 140.964844 177.75 143.039062 C 177.550781 143.375 177.65625 143.816406 178 144.023438 C 178.109375 144.09375 178.238281 144.125 178.367188 144.125 C 178.605469 144.125 178.84375 144 178.980469 143.78125 C 180.441406 141.347656 180.785156 138.828125 179.984375 136.304688 C 178.867188 132.753906 175.933594 130.144531 171.25 128.574219 C 169.78125 128.078125 168.1875 127.703125 166.503906 127.425781 C 167.21875 120.15625 165.878906 114.257812 161.316406 112.066406 C 158.132812 110.53125 154.144531 111.410156 149.78125 114.585938 C 147.417969 116.300781 144.960938 118.671875 142.535156 121.535156 C 138.460938 118.609375 134.582031 116.628906 131.167969 115.792969 C 126.753906 114.707031 123.277344 115.535156 120.820312 118.265625 C 117.238281 122.238281 117.261719 128.527344 120.890625 136.449219 C 120.90625 136.488281 120.933594 136.53125 120.949219 136.570312 C 119.625 137.3125 118.386719 138.085938 117.277344 138.867188 C 116.957031 139.097656 116.878906 139.539062 117.109375 139.863281 C 117.339844 140.183594 117.78125 140.265625 118.109375 140.03125 C 119.152344 139.289062 120.316406 138.5625 121.570312 137.863281 C 123.109375 140.941406 125.160156 144.191406 127.578125 147.429688 C 126.207031 151.042969 125.214844 154.484375 124.585938 157.660156 C 122.449219 157.363281 120.285156 157.148438 118.117188 156.996094 C 117.765625 156.867188 117.40625 156.75 117.070312 156.613281 C 113.839844 155.257812 111.941406 153.367188 111.421875 150.988281 C 111.125 149.640625 111.277344 148.25 111.875 146.847656 C 111.949219 146.679688 111.941406 146.503906 111.894531 146.34375 C 112.570312 146.847656 113.402344 147.148438 114.308594 147.148438 C 116.566406 147.148438 118.394531 145.324219 118.394531 143.066406 C 118.394531 140.804688 116.566406 138.980469 114.308594 138.980469 C 112.050781 138.980469 110.226562 140.804688 110.226562 143.066406 C 110.226562 144.164062 110.664062 145.15625 111.367188 145.890625 C 111.039062 145.824219 110.703125 145.976562 110.566406 146.296875 C 109.859375 147.972656 109.675781 149.65625 110.035156 151.300781 C 110.519531 153.527344 111.972656 155.375 114.324219 156.8125 C 107.953125 156.621094 101.464844 157.035156 94.957031 158.128906 C 84.03125 159.964844 73.835938 163.53125 64.589844 168.472656 C 63.921875 168.4375 63.257812 168.398438 62.570312 168.382812 C 40.511719 167.800781 22.15625 177.511719 14.050781 190.988281 L 4.226562 191.769531 C 1.546875 191.988281 -0.03125 194.882812 1.238281 197.253906 L 10.402344 214.359375 C 11.242188 219.132812 12.40625 223.273438 12.40625 223.273438 C 12.40625 223.273438 10.042969 229.5625 10.363281 236.328125 C 10.507812 239.441406 11.25 242.917969 12.484375 246.445312 C 11.550781 256.003906 11.984375 265.875 13.984375 275.816406 C 17.964844 295.589844 27.683594 312.875 41.078125 326.246094 C 41.078125 326.246094 41.078125 326.246094 41.085938 326.246094 C 41.742188 326.902344 42.402344 327.539062 43.074219 328.171875 C 43.144531 328.242188 43.226562 328.3125 43.304688 328.386719 C 43.941406 328.984375 44.589844 329.574219 45.242188 330.15625 C 45.292969 330.199219 45.332031 330.238281 45.378906 330.277344 C 47.5 332.160156 49.703125 333.957031 51.976562 335.65625 C 52.066406 335.726562 52.160156 335.789062 52.25 335.863281 C 52.925781 336.367188 53.613281 336.859375 54.308594 337.347656 C 54.386719 337.402344 54.457031 337.457031 54.539062 337.507812 C 56.84375 339.117188 59.222656 340.632812 61.664062 342.046875 C 61.78125 342.117188 61.902344 342.183594 62.023438 342.253906 C 62.714844 342.652344 63.425781 343.050781 64.128906 343.433594 C 64.246094 343.5 64.367188 343.570312 64.488281 343.632812 C 66.144531 344.527344 67.828125 345.375 69.546875 346.179688 C 69.554688 346.1875 69.570312 346.1875 69.578125 346.195312 C 70.382812 346.570312 71.195312 346.9375 72.019531 347.296875 C 72.175781 347.367188 72.335938 347.433594 72.496094 347.503906 C 73.191406 347.800781 73.894531 348.09375 74.59375 348.375 C 74.769531 348.445312 74.9375 348.511719 75.113281 348.582031 C 75.902344 348.894531 76.691406 349.195312 77.484375 349.492188 C 77.546875 349.515625 77.601562 349.539062 77.667969 349.5625 C 78.558594 349.890625 79.460938 350.203125 80.371094 350.503906 C 80.410156 350.519531 80.441406 350.527344 80.484375 350.535156 C 81.304688 350.808594 82.125 351.0625 82.949219 351.320312 C 83.15625 351.382812 83.363281 351.4375 83.570312 351.503906 C 84.25 351.703125 84.925781 351.894531 85.613281 352.085938 C 85.84375 352.148438 86.066406 352.210938 86.300781 352.269531 C 87.03125 352.460938 87.773438 352.652344 88.515625 352.828125 C 88.660156 352.859375 88.8125 352.898438 88.957031 352.929688 C 89.863281 353.144531 90.78125 353.34375 91.699219 353.535156 C 91.773438 353.554688 91.835938 353.5625 91.90625 353.578125 C 92.730469 353.746094 93.542969 353.894531 94.371094 354.039062 C 94.621094 354.078125 94.867188 354.128906 95.121094 354.167969 C 95.785156 354.277344 96.445312 354.382812 97.109375 354.480469 C 97.378906 354.519531 97.660156 354.558594 97.929688 354.597656 C 98.625 354.695312 99.320312 354.78125 100.019531 354.863281 C 100.238281 354.886719 100.460938 354.917969 100.675781 354.941406 C 101.59375 355.046875 102.519531 355.132812 103.445312 355.210938 C 103.523438 355.222656 103.613281 355.222656 103.691406 355.230469 C 104.519531 355.292969 105.34375 355.347656 106.179688 355.394531 C 106.460938 355.414062 106.738281 355.421875 107.027344 355.4375 C 107.671875 355.46875 108.328125 355.492188 108.972656 355.507812 C 109.285156 355.515625 109.585938 355.523438 109.898438 355.523438 C 110.566406 355.53125 111.230469 355.539062 111.902344 355.53125 C 112.164062 355.53125 112.425781 355.53125 112.699219 355.53125 C 113.625 355.523438 114.558594 355.5 115.492188 355.460938 C 115.554688 355.460938 115.617188 355.453125 115.683594 355.453125 C 116.542969 355.414062 117.40625 355.363281 118.273438 355.308594 C 118.570312 355.285156 118.867188 355.261719 119.160156 355.238281 C 119.808594 355.1875 120.453125 355.132812 121.097656 355.070312 C 121.425781 355.039062 121.753906 355.003906 122.082031 354.964844 C 122.734375 354.894531 123.382812 354.8125 124.035156 354.734375 C 124.332031 354.695312 124.617188 354.664062 124.914062 354.621094 C 125.847656 354.496094 126.78125 354.359375 127.722656 354.199219 C 128.757812 354.023438 129.78125 353.832031 130.800781 353.632812 C 131.105469 353.578125 131.398438 353.511719 131.703125 353.449219 C 132.460938 353.289062 133.21875 353.121094 133.96875 352.945312 C 134.253906 352.882812 134.550781 352.8125 134.835938 352.746094 C 135.835938 352.507812 136.832031 352.253906 137.820312 351.980469 C 137.894531 351.964844 137.957031 351.941406 138.027344 351.925781 C 138.945312 351.667969 139.863281 351.398438 140.773438 351.121094 C 141.070312 351.03125 141.355469 350.9375 141.644531 350.847656 C 142.367188 350.617188 143.09375 350.378906 143.8125 350.128906 C 144.085938 350.035156 144.347656 349.945312 144.617188 349.851562 C 145.566406 349.515625 146.515625 349.164062 147.449219 348.804688 C 147.5625 348.765625 147.675781 348.71875 147.785156 348.667969 C 148.617188 348.34375 149.4375 348.007812 150.257812 347.664062 C 150.539062 347.542969 150.816406 347.425781 151.089844 347.304688 C 151.78125 347 152.476562 346.691406 153.164062 346.378906 C 153.402344 346.269531 153.648438 346.15625 153.890625 346.042969 C 154.789062 345.621094 155.683594 345.183594 156.5625 344.734375 C 156.699219 344.664062 156.832031 344.59375 156.976562 344.519531 C 157.726562 344.128906 158.476562 343.738281 159.210938 343.332031 C 159.472656 343.1875 159.738281 343.042969 160 342.890625 C 160.664062 342.515625 161.316406 342.140625 161.972656 341.757812 C 162.1875 341.632812 162.402344 341.503906 162.617188 341.375 C 163.464844 340.867188 164.300781 340.347656 165.121094 339.820312 C 165.273438 339.726562 165.425781 339.621094 165.570312 339.523438 C 166.253906 339.078125 166.925781 338.632812 167.59375 338.167969 C 167.84375 338 168.082031 337.832031 168.320312 337.664062 C 168.953125 337.226562 169.574219 336.78125 170.1875 336.324219 C 170.371094 336.191406 170.5625 336.054688 170.746094 335.917969 C 171.527344 335.335938 172.3125 334.738281 173.078125 334.132812 C 173.226562 334.011719 173.378906 333.882812 173.539062 333.757812 C 174.152344 333.261719 174.769531 332.757812 175.375 332.246094 C 175.414062 332.214844 175.453125 332.183594 175.484375 332.152344 C 175.5 332.144531 175.519531 332.128906 175.527344 332.121094 C 175.691406 331.976562 175.859375 331.824219 176.035156 331.679688 C 176.617188 331.179688 177.191406 330.675781 177.757812 330.164062 C 177.824219 330.109375 177.886719 330.054688 177.941406 330.003906 C 178.046875 329.910156 178.152344 329.820312 178.253906 329.726562 C 178.972656 329.070312 179.683594 328.402344 180.382812 327.722656 C 180.535156 327.570312 180.6875 327.421875 180.839844 327.277344 C 181.367188 326.765625 181.882812 326.246094 182.394531 325.722656 C 182.449219 325.664062 182.507812 325.609375 182.554688 325.554688 C 182.730469 325.371094 182.90625 325.195312 183.082031 325.011719 C 183.566406 324.5 184.046875 323.988281 184.523438 323.46875 C 184.605469 323.390625 184.675781 323.304688 184.757812 323.222656 C 184.867188 323.105469 184.980469 322.976562 185.089844 322.855469 C 185.746094 322.128906 186.382812 321.394531 187.023438 320.652344 C 187.164062 320.488281 187.308594 320.3125 187.453125 320.136719 C 187.890625 319.617188 188.324219 319.089844 188.746094 318.5625 C 188.800781 318.492188 188.855469 318.425781 188.914062 318.355469 C 189.089844 318.132812 189.265625 317.917969 189.441406 317.695312 C 189.839844 317.183594 190.230469 316.671875 190.621094 316.160156 C 190.691406 316.066406 190.765625 315.96875 190.84375 315.875 C 190.882812 315.828125 190.914062 315.777344 190.957031 315.722656 C 191.042969 315.601562 191.140625 315.484375 191.226562 315.371094 C 191.808594 314.589844 192.375 313.792969 192.933594 312.992188 C 193.070312 312.800781 193.195312 312.609375 193.332031 312.410156 C 193.683594 311.890625 194.035156 311.382812 194.378906 310.855469 C 194.410156 310.816406 194.433594 310.765625 194.457031 310.726562 C 194.503906 310.65625 194.546875 310.582031 194.59375 310.511719 C 194.746094 310.28125 194.898438 310.050781 195.046875 309.816406 C 195.367188 309.316406 195.6875 308.8125 195.996094 308.300781 C 196.0625 308.199219 196.125 308.101562 196.1875 308 C 196.269531 307.871094 196.347656 307.734375 196.429688 307.609375 C 196.484375 307.511719 196.539062 307.425781 196.597656 307.328125 C 197.097656 306.492188 197.59375 305.636719 198.070312 304.78125 C 198.191406 304.566406 198.304688 304.359375 198.421875 304.144531 C 198.703125 303.640625 198.972656 303.140625 199.246094 302.628906 C 199.332031 302.46875 199.414062 302.300781 199.5 302.140625 C 199.636719 301.871094 199.761719 301.632812 199.882812 301.382812 Z M 143.902344 162.304688 C 142.886719 161.488281 141.882812 160.652344 140.902344 159.78125 C 145.382812 159.292969 149.964844 158.464844 154.351562 157.339844 C 152.835938 159.902344 151.222656 162.296875 149.558594 164.464844 C 147.699219 163.699219 145.808594 162.972656 143.902344 162.304688 Z M 139.519531 158.535156 C 138.820312 157.890625 138.132812 157.226562 137.453125 156.566406 C 134.488281 153.636719 131.703125 150.484375 129.253906 147.277344 C 131.296875 142.003906 133.984375 136.59375 137.03125 131.652344 C 140.988281 130.527344 145.121094 129.628906 149.183594 129.054688 C 153.53125 133.1875 157.710938 137.996094 161.195312 142.914062 C 160.703125 144.253906 160.175781 145.585938 159.617188 146.894531 C 158.339844 149.894531 156.890625 152.847656 155.324219 155.640625 C 150.210938 157.050781 144.769531 158.042969 139.519531 158.535156 Z M 140.261719 161.105469 C 139.128906 160.753906 137.988281 160.429688 136.839844 160.125 C 137.558594 160.078125 138.269531 160.042969 138.984375 159.980469 C 139.402344 160.363281 139.832031 160.730469 140.261719 161.105469 Z M 169.734375 159.644531 C 170.960938 164.402344 170.46875 167.847656 168.257812 169.898438 C 166.996094 171.074219 165.386719 171.621094 163.550781 171.695312 C 159.503906 169.1875 155.277344 166.972656 150.90625 165.0625 C 152.773438 162.597656 154.589844 159.820312 156.289062 156.835938 C 160.191406 155.742188 163.886719 154.410156 167.171875 152.878906 C 168.304688 155.226562 169.183594 157.507812 169.734375 159.644531 Z M 166.550781 151.601562 C 163.71875 152.925781 160.574219 154.101562 157.257812 155.089844 C 158.582031 152.640625 159.816406 150.078125 160.941406 147.453125 C 161.378906 146.425781 161.804688 145.378906 162.203125 144.332031 C 163.855469 146.773438 165.320312 149.214844 166.550781 151.601562 Z M 161.804688 141.246094 C 159.792969 138.46875 157.550781 135.683594 155.101562 132.980469 C 153.769531 131.503906 152.429688 130.121094 151.089844 128.804688 C 155.988281 128.222656 160.742188 128.128906 164.921875 128.636719 C 164.394531 132.613281 163.28125 136.953125 161.804688 141.246094 Z M 150.625 115.734375 C 153.371094 113.742188 155.828125 112.742188 157.988281 112.742188 C 158.957031 112.742188 159.863281 112.941406 160.703125 113.347656 C 164.636719 115.242188 165.746094 120.59375 165.089844 127.210938 C 160.414062 126.621094 155.117188 126.769531 149.707031 127.488281 C 147.691406 125.589844 145.671875 123.882812 143.703125 122.390625 C 145.976562 119.710938 148.3125 117.417969 150.625 115.734375 Z M 142.742188 123.539062 C 144.425781 124.816406 146.117188 126.226562 147.800781 127.753906 C 144.585938 128.253906 141.363281 128.941406 138.21875 129.785156 C 139.671875 127.570312 141.1875 125.46875 142.742188 123.539062 Z M 121.890625 119.207031 C 123.363281 117.570312 125.304688 116.757812 127.6875 116.757812 C 128.664062 116.757812 129.714844 116.890625 130.832031 117.171875 C 134.0625 117.960938 137.765625 119.941406 141.585938 122.691406 C 139.71875 125 137.886719 127.585938 136.121094 130.378906 C 131.015625 131.878906 126.230469 133.769531 122.207031 135.882812 C 119.105469 129.125 118.457031 123.011719 121.890625 119.207031 Z M 122.832031 137.175781 C 126.355469 135.324219 130.519531 133.648438 134.964844 132.269531 C 133.65625 134.464844 132.394531 136.761719 131.214844 139.148438 C 130.089844 141.429688 129.085938 143.671875 128.207031 145.867188 C 126.078125 142.960938 124.25 140.023438 122.832031 137.175781 Z M 128.671875 148.839844 C 131 151.835938 133.625 154.792969 136.449219 157.578125 C 136.832031 157.953125 137.222656 158.328125 137.613281 158.695312 C 135.628906 158.839844 133.6875 158.910156 131.804688 158.902344 C 129.90625 158.496094 127.992188 158.152344 126.070312 157.859375 C 126.652344 155.019531 127.539062 151.96875 128.671875 148.839844 Z M 395.488281 228.003906 C 396.335938 230.558594 394.277344 233.136719 391.605469 232.886719 L 363.785156 230.289062 C 360.074219 229.945312 356.355469 230.902344 353.285156 233.015625 C 337.136719 244.109375 317.542969 250.546875 296.441406 250.410156 C 295.5625 250.402344 294.695312 250.386719 293.824219 250.355469 C 293.539062 250.347656 293.257812 250.332031 292.972656 250.316406 C 292.378906 250.292969 291.796875 250.269531 291.214844 250.234375 C 290.890625 250.21875 290.5625 250.1875 290.242188 250.164062 C 289.699219 250.125 289.15625 250.09375 288.625 250.042969 C 288.289062 250.011719 287.953125 249.980469 287.609375 249.949219 C 287.082031 249.902344 286.566406 249.84375 286.039062 249.789062 C 285.703125 249.75 285.359375 249.710938 285.023438 249.667969 C 284.507812 249.605469 283.988281 249.542969 283.46875 249.46875 C 283.132812 249.421875 282.808594 249.375 282.472656 249.328125 C 281.953125 249.246094 281.425781 249.167969 280.910156 249.078125 C 280.589844 249.023438 280.269531 248.96875 279.941406 248.910156 C 279.410156 248.816406 278.882812 248.71875 278.355469 248.617188 C 278.050781 248.558594 277.75 248.496094 277.445312 248.441406 C 276.902344 248.328125 276.351562 248.21875 275.808594 248.097656 C 275.53125 248.035156 275.25 247.96875 274.964844 247.90625 C 274.398438 247.777344 273.832031 247.644531 273.273438 247.5 C 273.019531 247.433594 272.769531 247.371094 272.515625 247.308594 C 271.917969 247.15625 271.320312 246.988281 270.726562 246.828125 C 270.511719 246.773438 270.304688 246.707031 270.089844 246.652344 C 269.4375 246.46875 268.789062 246.269531 268.136719 246.070312 C 267.984375 246.023438 267.832031 245.984375 267.679688 245.933594 C 266.921875 245.695312 266.171875 245.457031 265.421875 245.199219 C 265.382812 245.183594 265.34375 245.175781 265.304688 245.160156 C 264.761719 244.976562 264.21875 244.785156 263.675781 244.585938 C 263.523438 244.53125 263.371094 244.484375 263.222656 244.425781 C 262.089844 244.011719 260.964844 243.574219 259.847656 243.117188 C 259.695312 243.054688 259.550781 242.992188 259.398438 242.933594 C 257.0625 241.96875 254.765625 240.914062 252.523438 239.773438 C 252.457031 239.742188 252.394531 239.710938 252.332031 239.679688 C 251.199219 239.105469 250.074219 238.5 248.964844 237.882812 C 248.90625 237.851562 248.851562 237.820312 248.796875 237.789062 C 245.367188 235.863281 242.054688 233.734375 238.886719 231.429688 C 214.21875 213.476562 198.015625 184.484375 197.738281 151.890625 C 197.433594 116.070312 216.078125 84.582031 244.257812 66.84375 C 250.382812 54.949219 264.035156 43.011719 282.617188 40.617188 C 308.617188 37.265625 326.015625 51.308594 326.015625 51.308594 C 326.015625 51.308594 335.238281 39.355469 355.582031 49.417969 C 366.902344 55.019531 368.285156 67.777344 364.128906 77.800781 C 383.378906 95.445312 395.730469 120.523438 396.445312 148.417969 C 396.734375 159.734375 395.121094 170.632812 391.921875 180.824219 C 391.355469 182.625 390.742188 184.40625 390.082031 186.167969 C 390.0625 186.203125 390.054688 186.242188 390.039062 186.273438 C 389.738281 187.0625 389.425781 187.851562 389.105469 188.636719 C 389.066406 188.738281 389.027344 188.851562 388.980469 188.953125 C 388.621094 189.824219 388.253906 190.6875 387.871094 191.539062 C 386.242188 195.1875 386.011719 199.304688 387.265625 203.09375 Z M 154.40625 143.214844 C 154.40625 148.339844 150.25 152.496094 145.128906 152.496094 C 140.007812 152.496094 135.851562 148.339844 135.851562 143.214844 C 135.851562 138.09375 140.007812 133.9375 145.128906 133.9375 C 150.25 133.9375 154.40625 138.085938 154.40625 143.214844 Z M 154.40625 143.214844 " fill-opacity="1" fill-rule="nonzero"/></g><path fill="#ffffff" d="M 174.425781 286.375 C 184.238281 286.503906 194.96875 287.9375 204.925781 289.796875 C 193.132812 322.488281 164.507812 348.054688 127.714844 354.191406 C 95.019531 359.640625 63.089844 348.222656 41.085938 326.246094 L 56.285156 320.367188 C 56.285156 320.367188 61.421875 308.507812 62.605469 306.140625 C 63.792969 303.769531 101.328125 294.679688 105.667969 293.890625 C 110.019531 293.101562 120.285156 295.078125 120.285156 295.078125 C 120.285156 295.078125 144.792969 285.976562 174.425781 286.375 Z M 305.289062 216.027344 C 303.773438 216.027344 302.535156 217.257812 302.535156 218.78125 C 302.535156 220.296875 303.765625 221.535156 305.289062 221.535156 C 306.8125 221.535156 308.042969 220.304688 308.042969 218.78125 C 308.042969 217.265625 306.8125 216.027344 305.289062 216.027344 Z M 305.289062 216.027344 " fill-opacity="1" fill-rule="nonzero"/><path fill="#fbbe63" d="M 179.101562 146.992188 C 179.101562 149.160156 177.335938 150.925781 175.167969 150.925781 C 172.996094 150.925781 171.234375 149.160156 171.234375 146.992188 C 171.234375 144.820312 172.996094 143.058594 175.167969 143.058594 C 177.335938 143.058594 179.101562 144.8125 179.101562 146.992188 Z M 391.605469 232.886719 L 363.785156 230.289062 C 360.074219 229.945312 356.355469 230.902344 353.285156 233.015625 C 337.136719 244.109375 317.542969 250.546875 296.441406 250.410156 C 281.960938 250.316406 268.191406 247.074219 255.777344 241.347656 C 256.597656 238.847656 259.160156 232.234375 266.09375 220.777344 C 275.179688 205.757812 320.625 164.265625 320.625 164.265625 L 391.929688 180.832031 C 390.78125 184.492188 389.425781 188.078125 387.878906 191.539062 C 386.25 195.1875 386.019531 199.304688 387.273438 203.09375 L 395.496094 228.003906 C 396.335938 230.558594 394.277344 233.136719 391.605469 232.886719 Z M 308.042969 218.78125 C 308.042969 217.257812 306.8125 216.027344 305.289062 216.027344 C 303.773438 216.027344 302.535156 217.257812 302.535156 218.78125 C 302.535156 220.296875 303.765625 221.535156 305.289062 221.535156 C 306.8125 221.535156 308.042969 220.304688 308.042969 218.78125 Z M 111.414062 323.214844 C 109.761719 323.214844 108.421875 324.554688 108.421875 326.207031 C 108.421875 327.859375 109.761719 329.199219 111.414062 329.199219 C 113.066406 329.199219 114.40625 327.859375 114.40625 326.207031 C 114.40625 324.554688 113.066406 323.214844 111.414062 323.214844 Z M 126.773438 344.71875 C 125.121094 344.71875 123.78125 346.058594 123.78125 347.710938 C 123.78125 349.363281 125.121094 350.703125 126.773438 350.703125 C 128.421875 350.703125 129.761719 349.363281 129.761719 347.710938 C 129.761719 346.058594 128.421875 344.71875 126.773438 344.71875 Z M 126.773438 344.71875 " fill-opacity="1" fill-rule="nonzero"/><path fill="#ef7f59" d="M 339.019531 170.003906 L 303.167969 203.554688 L 296.035156 188.667969 L 292.261719 163.292969 C 292.261719 163.292969 268.78125 180.910156 254.101562 166.019531 C 239.421875 151.132812 238.800781 135.40625 240.890625 124.289062 C 242.988281 113.175781 237.875 94.582031 240.261719 81.925781 C 243.824219 63.054688 259.964844 51.101562 273.175781 47.328125 C 286.390625 43.554688 319.722656 39.148438 334.195312 67.875 C 348.65625 96.601562 323.183594 135.1875 325.488281 141.476562 C 327.804688 147.773438 339.019531 170.003906 339.019531 170.003906 Z M 106.5 203.972656 C 102.09375 192.019531 89.027344 176.882812 70.015625 175.246094 C 50.515625 173.570312 25.355469 182.585938 18.230469 215.085938 C 11.097656 247.585938 33.117188 261.429688 44.230469 269.816406 C 55.34375 278.203125 61.628906 277.367188 62.261719 281.769531 C 62.890625 286.175781 64.566406 309.875 64.566406 309.875 L 104.195312 313.441406 L 110.066406 297.503906 L 106.714844 284.714844 C 119.925781 284.921875 128.726562 275.273438 128.519531 267.726562 C 128.3125 260.179688 128.519531 258.917969 124.953125 239.207031 C 121.386719 219.5 110.902344 215.925781 106.5 203.972656 Z M 198.128906 186.359375 C 198.128906 186.359375 196.660156 184.054688 194.984375 185.9375 C 194.984375 185.9375 192.886719 184.46875 191.210938 187.828125 C 191.210938 187.828125 188.699219 186.359375 187.015625 189.503906 C 185.339844 192.648438 180.933594 202.925781 175.691406 207.960938 C 170.453125 212.996094 161.230469 221.175781 158.707031 236.273438 C 156.195312 251.367188 157.664062 267.519531 158.707031 276.742188 L 165.234375 339.714844 C 179.652344 330.414062 191.332031 317.566406 199.253906 302.605469 L 189.527344 270.878906 C 189.527344 270.878906 185.753906 256.410156 184.285156 248.648438 C 182.816406 240.890625 185.332031 235.855469 189.949219 226.003906 C 194.5625 216.148438 200.011719 203.773438 200.640625 193.917969 C 201.269531 184.054688 198.128906 186.359375 198.128906 186.359375 Z M 262.289062 198.3125 C 262.289062 198.3125 266.691406 191.8125 264.179688 187.199219 C 261.664062 182.585938 254.53125 178.183594 250.335938 178.8125 C 246.140625 179.441406 237.125 180.910156 237.125 180.910156 L 237.125 175.246094 C 237.125 175.246094 247.609375 164.554688 246.347656 162.871094 C 245.085938 161.195312 233.136719 169.789062 231.460938 173.5625 C 229.785156 177.335938 226.640625 188.242188 228.523438 193.902344 C 230.414062 199.566406 240.476562 225.988281 240.476562 225.988281 L 238.886719 231.421875 C 247.417969 237.628906 256.957031 242.519531 267.203125 245.773438 C 268.710938 237.285156 270.542969 225.253906 270.035156 219.484375 C 269.203125 210.050781 262.289062 198.3125 262.289062 198.3125 Z M 145.128906 133.9375 C 140.007812 133.9375 135.851562 138.09375 135.851562 143.214844 C 135.851562 148.339844 140.007812 152.496094 145.128906 152.496094 C 150.25 152.496094 154.40625 148.339844 154.40625 143.214844 C 154.40625 138.085938 150.257812 133.9375 145.128906 133.9375 Z M 145.128906 133.9375 " fill-opacity="1" fill-rule="nonzero"/><path fill="#000000" d="M 355.582031 49.425781 C 335.246094 39.363281 326.015625 51.316406 326.015625 51.316406 C 326.015625 51.316406 308.617188 37.265625 282.617188 40.625 C 256.613281 43.976562 240.261719 66 240.683594 80.464844 C 248.230469 67.675781 270.871094 60.964844 270.871094 60.964844 C 271.902344 84.480469 282.917969 98.769531 291.3125 106.320312 L 288.351562 108.554688 C 286.597656 100.628906 279.527344 94.6875 271.085938 94.6875 C 261.761719 94.6875 254.117188 101.9375 253.457031 111.097656 C 252.546875 110.898438 251.882812 110.949219 251.429688 111.089844 C 251.398438 102.011719 246.523438 94.636719 240.539062 94.636719 C 234.53125 94.636719 229.648438 102.058594 229.648438 111.1875 C 229.648438 120.316406 234.53125 127.734375 240.539062 127.734375 C 243.90625 127.734375 246.921875 125.398438 248.917969 121.742188 C 248.535156 125.207031 248.125 129.054688 248.046875 130.273438 C 248.007812 130.855469 248.207031 131.382812 248.628906 131.796875 C 249.640625 132.796875 251.851562 132.960938 253.257812 132.960938 C 253.878906 132.960938 254.339844 132.929688 254.476562 132.914062 C 254.867188 132.882812 255.164062 132.539062 255.132812 132.148438 C 255.097656 131.757812 254.757812 131.46875 254.363281 131.496094 C 252.824219 131.621094 250.34375 131.480469 249.632812 130.777344 C 249.507812 130.648438 249.457031 130.535156 249.476562 130.371094 C 249.625 128.054688 251.03125 115.742188 251.046875 115.617188 C 251.046875 115.589844 251.039062 115.566406 251.039062 115.535156 C 251.222656 114.507812 251.339844 113.4375 251.398438 112.34375 L 251.644531 112.558594 C 251.644531 112.550781 252.089844 112.191406 253.398438 112.550781 C 253.488281 122.238281 261.386719 130.089844 271.085938 130.089844 C 280.84375 130.089844 288.78125 122.152344 288.78125 112.390625 C 288.78125 111.625 288.71875 110.882812 288.625 110.140625 L 292.40625 107.277344 C 297.183594 111.363281 300.851562 113.175781 300.851562 113.175781 L 303.367188 99.753906 C 303.367188 99.753906 312.589844 91.160156 320.558594 99.753906 C 328.53125 108.355469 323.703125 122.398438 320.980469 127.855469 C 318.253906 133.304688 318.140625 134.328125 325.273438 141.875 C 342.042969 117.761719 345.929688 91.582031 345.929688 91.582031 C 364.183594 92.617188 375.925781 59.488281 355.582031 49.425781 Z M 240.539062 126.300781 C 235.320312 126.300781 231.078125 119.515625 231.078125 111.179688 C 231.078125 102.839844 235.320312 96.058594 240.539062 96.058594 C 245.757812 96.058594 250 102.839844 250 111.179688 C 250 119.515625 245.757812 126.300781 240.539062 126.300781 Z M 271.085938 128.660156 C 262.121094 128.660156 254.820312 121.359375 254.820312 112.390625 C 254.820312 103.421875 262.121094 96.121094 271.085938 96.121094 C 280.054688 96.121094 287.355469 103.421875 287.355469 112.390625 C 287.355469 121.359375 280.0625 128.660156 271.085938 128.660156 Z M 268.734375 116.238281 C 268.734375 117.234375 267.929688 118.050781 266.921875 118.050781 C 265.925781 118.050781 265.113281 117.242188 265.113281 116.238281 C 265.113281 115.234375 265.917969 114.425781 266.921875 114.425781 C 267.921875 114.433594 268.734375 115.242188 268.734375 116.238281 Z M 246.5625 116.398438 C 246.5625 117.394531 245.757812 118.207031 244.75 118.207031 C 243.746094 118.207031 242.941406 117.402344 242.941406 116.398438 C 242.941406 115.398438 243.746094 114.585938 244.75 114.585938 C 245.757812 114.585938 246.5625 115.398438 246.5625 116.398438 Z M 262.679688 137.78125 C 260.9375 137.78125 259.527344 139.195312 259.527344 140.933594 C 259.527344 142.671875 260.9375 144.085938 262.679688 144.085938 C 264.417969 144.085938 265.828125 142.671875 265.828125 140.933594 C 265.828125 139.195312 264.417969 137.78125 262.679688 137.78125 Z M 262.679688 142.65625 C 261.730469 142.65625 260.957031 141.882812 260.957031 140.933594 C 260.957031 139.984375 261.730469 139.210938 262.679688 139.210938 C 263.628906 139.210938 264.402344 139.984375 264.402344 140.933594 C 264.402344 141.882812 263.628906 142.65625 262.679688 142.65625 Z M 304.269531 157.992188 C 305.992188 159.933594 299.074219 171.550781 294.550781 178.667969 L 292.261719 163.292969 C 298.140625 158.625 301.753906 155.167969 304.269531 157.992188 Z M 262.910156 197.960938 C 263.101562 198.304688 262.980469 198.746094 262.628906 198.9375 C 262.519531 199 262.398438 199.023438 262.289062 199.023438 C 262.039062 199.023438 261.792969 198.886719 261.664062 198.65625 C 258.433594 192.855469 253.136719 186.34375 253.089844 186.28125 C 252.882812 186.027344 252.875 185.660156 253.074219 185.394531 C 253.957031 184.246094 254.957031 184.023438 255.671875 184.039062 C 258.339844 184.09375 260.859375 187.542969 261.136719 187.933594 C 261.371094 188.25 261.289062 188.699219 260.972656 188.929688 C 260.652344 189.160156 260.207031 189.082031 259.972656 188.761719 C 259.328125 187.859375 257.292969 185.5 255.640625 185.46875 C 255.289062 185.453125 254.898438 185.585938 254.582031 185.867188 C 255.882812 187.5 260.132812 192.984375 262.910156 197.960938 Z M 354.984375 173.304688 C 357.679688 191.683594 344.398438 205.847656 344.261719 205.988281 C 344.125 206.132812 343.933594 206.214844 343.742188 206.214844 C 343.65625 206.214844 343.566406 206.199219 343.488281 206.164062 L 318.484375 196.574219 C 318.117188 196.429688 317.933594 196.023438 318.070312 195.648438 C 318.214844 195.28125 318.628906 195.097656 318.996094 195.234375 L 343.535156 204.648438 C 345.507812 202.40625 355.925781 189.617188 353.566406 173.515625 C 353.507812 173.121094 353.78125 172.765625 354.171875 172.699219 C 354.554688 172.644531 354.929688 172.914062 354.984375 173.304688 Z M 297.421875 195.914062 C 297.679688 196.214844 297.636719 196.664062 297.335938 196.917969 L 284.125 208.082031 C 283.996094 208.191406 283.828125 208.25 283.660156 208.25 C 283.574219 208.25 283.484375 208.230469 283.40625 208.199219 C 283.167969 208.105469 282.992188 207.890625 282.957031 207.625 L 282.328125 202.910156 C 282.273438 202.519531 282.550781 202.160156 282.941406 202.105469 C 283.324219 202.046875 283.691406 202.328125 283.742188 202.71875 L 284.195312 206.140625 L 296.410156 195.816406 C 296.722656 195.570312 297.167969 195.609375 297.421875 195.914062 Z M 262.144531 93.570312 C 261.945312 93.234375 262.046875 92.792969 262.390625 92.585938 C 262.480469 92.53125 271.574219 87.21875 280.039062 94.222656 C 280.34375 94.476562 280.382812 94.925781 280.132812 95.226562 C 279.992188 95.394531 279.792969 95.484375 279.582031 95.484375 C 279.425781 95.484375 279.265625 95.429688 279.128906 95.316406 C 271.453125 88.964844 263.460938 93.609375 263.125 93.808594 C 262.78125 94.015625 262.34375 93.902344 262.144531 93.570312 Z M 240.179688 94.109375 C 239.933594 93.800781 239.988281 93.351562 240.292969 93.105469 C 240.347656 93.058594 246.234375 88.5 251.183594 94.300781 C 251.4375 94.605469 251.40625 95.050781 251.101562 95.308594 C 250.964844 95.417969 250.808594 95.476562 250.640625 95.476562 C 250.441406 95.476562 250.242188 95.386719 250.097656 95.226562 C 246.050781 90.480469 241.375 94.070312 241.175781 94.222656 C 240.875 94.476562 240.425781 94.421875 240.179688 94.109375 Z M 313.308594 101.261719 C 313.371094 101.652344 313.109375 102.019531 312.71875 102.082031 C 311.375 102.304688 310.132812 103.671875 309.46875 105.632812 C 308.726562 107.84375 308.933594 110.15625 309.972656 111.265625 C 312.78125 114.25 311.574219 117.117188 311.519531 117.234375 C 311.402344 117.507812 311.136719 117.667969 310.867188 117.667969 C 310.769531 117.667969 310.675781 117.648438 310.578125 117.601562 C 310.21875 117.441406 310.050781 117.027344 310.210938 116.667969 C 310.25 116.566406 311.066406 114.515625 308.933594 112.25 C 307.308594 110.515625 307.347656 107.453125 308.113281 105.179688 C 308.960938 102.671875 310.59375 100.988281 312.476562 100.679688 C 312.867188 100.605469 313.242188 100.871094 313.308594 101.261719 Z M 191.289062 188.570312 C 191.25 188.992188 190.300781 199 187.132812 205.640625 C 187.015625 205.894531 186.757812 206.046875 186.488281 206.046875 C 186.382812 206.046875 186.28125 206.023438 186.183594 205.972656 C 185.824219 205.804688 185.675781 205.375 185.847656 205.023438 C 188.90625 198.609375 189.863281 188.539062 189.871094 188.433594 C 189.910156 188.042969 190.261719 187.75 190.644531 187.789062 C 191.035156 187.835938 191.324219 188.179688 191.289062 188.570312 Z M 195.695312 185.96875 C 195.679688 186.441406 195.191406 197.667969 193.148438 204.441406 C 193.054688 204.753906 192.773438 204.953125 192.464844 204.953125 C 192.390625 204.953125 192.328125 204.945312 192.253906 204.921875 C 191.878906 204.808594 191.664062 204.410156 191.777344 204.027344 C 193.773438 197.429688 194.257812 186.027344 194.265625 185.90625 C 194.28125 185.515625 194.585938 185.1875 195.007812 185.21875 C 195.40625 185.242188 195.710938 185.578125 195.695312 185.96875 Z M 198.6875 187.222656 C 198.703125 187.695312 199.140625 198.90625 197.234375 204.464844 C 197.128906 204.761719 196.859375 204.945312 196.554688 204.945312 C 196.476562 204.945312 196.40625 204.929688 196.324219 204.90625 C 195.949219 204.777344 195.75 204.371094 195.878906 203.996094 C 197.695312 198.679688 197.257812 187.382812 197.257812 187.269531 C 197.242188 186.878906 197.546875 186.542969 197.945312 186.527344 C 198.328125 186.511719 198.671875 186.824219 198.6875 187.222656 Z M 129.5625 268.09375 C 130.511719 260.671875 129.875 255.351562 125.046875 239.757812 C 122.238281 239.34375 117.300781 239.015625 111.691406 240.492188 C 112.792969 238.921875 114.199219 236.089844 112.164062 233.796875 C 109.652344 230.964844 97.070312 219.890625 96.535156 219.417969 C 96.445312 219.347656 96.351562 219.300781 96.246094 219.277344 C 96.535156 219.164062 96.839844 219.058594 97.164062 218.996094 C 98.417969 220.585938 103.835938 226.703125 111.238281 224.085938 C 113.144531 223.417969 114.535156 222.164062 115.363281 220.359375 C 117.699219 215.285156 114.78125 207.59375 114.660156 207.273438 C 114.574219 207.042969 114.367188 206.867188 114.117188 206.828125 C 113.992188 206.8125 101.695312 204.855469 97.070312 217.558594 C 94.773438 217.941406 93.222656 219.460938 92.632812 220.136719 C 73.527344 217.433594 67.878906 232.425781 67.167969 234.597656 L 58.589844 240.429688 C 58.328125 239.289062 58.082031 238.125 57.863281 236.933594 C 55.824219 225.453125 53.148438 220.417969 53.148438 220.417969 L 57.554688 221.675781 C 76.421875 205.160156 82.085938 178.582031 82.085938 178.582031 C 94.347656 182.667969 104.417969 198.871094 104.417969 198.871094 C 106.308594 185.507812 92.464844 169.148438 62.589844 168.359375 C 32.710938 167.570312 9.597656 185.660156 9.597656 206.421875 C 9.597656 213.242188 12.429688 223.25 12.429688 223.25 C 12.429688 223.25 10.066406 229.539062 10.386719 236.304688 C 10.96875 248.792969 21.078125 267.128906 35.230469 271.0625 C 49.382812 274.996094 61.804688 280.023438 61.804688 280.023438 L 61.015625 273.734375 C 48.90625 275.464844 41.359375 266.96875 41.359375 258.636719 C 41.359375 250.300781 45.601562 251.402344 45.601562 251.402344 C 45.601562 251.402344 61.167969 261.621094 63.058594 259.890625 C 64.664062 258.414062 61.265625 251.128906 58.949219 241.914062 L 67.695312 235.960938 C 69.746094 237.890625 78.695312 245.382812 88.699219 240.238281 C 99.039062 234.921875 94.789062 223.386719 93.765625 221.007812 C 94.078125 220.671875 94.652344 220.113281 95.433594 219.660156 C 95.304688 219.9375 95.363281 220.273438 95.601562 220.480469 C 95.730469 220.59375 108.644531 231.964844 111.109375 234.730469 C 113.152344 237.03125 109.746094 240.644531 109.714844 240.683594 C 109.585938 240.8125 109.53125 240.980469 109.523438 241.148438 C 107.59375 241.808594 105.605469 242.679688 103.621094 243.851562 C 91.667969 250.929688 84.28125 261.472656 87.582031 281.753906 C 87.582031 281.753906 93.925781 283.851562 106.714844 284.691406 C 119.917969 284.921875 128.621094 275.484375 129.5625 268.09375 Z M 113.472656 208.191406 C 114.015625 209.789062 115.882812 215.859375 114.070312 219.777344 C 113.402344 221.230469 112.324219 222.203125 110.777344 222.753906 C 104.257812 225.054688 99.542969 219.722656 98.363281 218.207031 C 102.128906 207.609375 111.390625 207.960938 113.472656 208.191406 Z M 94.0625 228.21875 C 94.339844 233.160156 92.3125 236.78125 88.039062 238.984375 C 78.671875 243.804688 70.214844 236.421875 68.570312 234.859375 C 69.394531 232.339844 74.636719 219.027344 92.433594 221.566406 C 92.839844 222.484375 93.886719 225.15625 94.0625 228.21875 Z M 118.441406 252.894531 C 118.050781 253.011719 108.710938 255.75 102.566406 256.21875 C 101.648438 256.292969 101.21875 256.539062 101.128906 256.738281 C 101.042969 256.929688 101.1875 257.296875 101.496094 257.695312 C 103.148438 259.796875 108.867188 262.324219 115.90625 261.097656 C 116.296875 261.023438 116.664062 261.289062 116.734375 261.679688 C 116.808594 262.070312 116.542969 262.4375 116.152344 262.507812 C 114.773438 262.746094 113.441406 262.859375 112.179688 262.859375 C 106.378906 262.859375 101.945312 260.59375 100.371094 258.582031 C 99.472656 257.433594 99.636719 256.570312 99.820312 256.164062 C 100.0625 255.613281 100.714844 254.9375 102.453125 254.800781 C 108.445312 254.335938 117.941406 251.550781 118.035156 251.519531 C 118.410156 251.410156 118.808594 251.625 118.921875 252.007812 C 119.039062 252.382812 118.824219 252.78125 118.441406 252.894531 Z M 85.382812 229.710938 C 85.382812 230.847656 84.464844 231.753906 83.339844 231.753906 C 82.207031 231.753906 81.296875 230.839844 81.296875 229.710938 C 81.296875 228.578125 82.214844 227.671875 83.339844 227.671875 C 84.464844 227.671875 85.382812 228.585938 85.382812 229.710938 Z M 105.820312 216.660156 C 105.820312 215.527344 106.738281 214.617188 107.863281 214.617188 C 108.996094 214.617188 109.90625 215.535156 109.90625 216.660156 C 109.90625 217.792969 108.988281 218.703125 107.863281 218.703125 C 106.738281 218.710938 105.820312 217.792969 105.820312 216.660156 Z M 78.671875 212.214844 C 78.785156 212.589844 78.566406 212.988281 78.191406 213.101562 C 68.691406 215.925781 66.96875 224.597656 66.894531 224.972656 C 66.832031 225.316406 66.527344 225.554688 66.195312 225.554688 C 66.152344 225.554688 66.105469 225.546875 66.066406 225.539062 C 65.675781 225.46875 65.421875 225.09375 65.492188 224.710938 C 65.507812 224.613281 67.421875 214.808594 77.785156 211.726562 C 78.160156 211.617188 78.558594 211.832031 78.671875 212.214844 Z M 101.179688 198.496094 C 101.5625 198.449219 101.921875 198.738281 101.96875 199.128906 C 102.015625 199.519531 101.730469 199.871094 101.335938 199.917969 C 92.28125 200.9375 91.15625 208.121094 91.117188 208.433594 C 91.070312 208.789062 90.757812 209.046875 90.40625 209.046875 C 90.375 209.046875 90.34375 209.046875 90.304688 209.039062 C 89.914062 208.980469 89.640625 208.625 89.699219 208.230469 C 89.714844 208.144531 90.996094 199.648438 101.179688 198.496094 Z M 89.371094 315.46875 L 84.335938 333.398438 C 84.25 333.707031 83.960938 333.914062 83.648438 333.914062 C 83.617188 333.914062 83.59375 333.914062 83.5625 333.90625 C 65.4375 331.699219 56.164062 322.457031 55.773438 322.058594 C 55.496094 321.777344 55.503906 321.324219 55.78125 321.054688 C 56.0625 320.773438 56.515625 320.78125 56.796875 321.0625 C 56.882812 321.15625 65.921875 330.132812 83.132812 332.414062 L 88 315.078125 C 88.101562 314.691406 88.5 314.476562 88.875 314.582031 C 89.25 314.691406 89.472656 315.085938 89.371094 315.46875 Z M 130.878906 308.789062 C 130.945312 309.035156 130.878906 309.292969 130.703125 309.476562 C 130.570312 309.617188 130.386719 309.691406 130.195312 309.691406 C 130.136719 309.691406 130.082031 309.683594 130.027344 309.667969 L 110.6875 304.949219 C 110.304688 304.855469 110.074219 304.472656 110.160156 304.089844 C 110.25 303.707031 110.640625 303.464844 111.023438 303.5625 L 129.078125 307.964844 C 128.222656 305.851562 125.941406 301.207031 120.890625 296.277344 C 120.613281 295.996094 120.605469 295.550781 120.882812 295.261719 C 121.164062 294.984375 121.609375 294.976562 121.898438 295.253906 C 129.023438 302.238281 130.808594 308.523438 130.878906 308.789062 Z M 171.257812 128.566406 C 169.789062 128.070312 168.195312 127.695312 166.511719 127.417969 C 167.230469 120.148438 165.886719 114.25 161.324219 112.058594 C 158.140625 110.523438 154.152344 111.402344 149.789062 114.578125 C 147.425781 116.292969 144.96875 118.664062 142.542969 121.527344 C 138.46875 118.601562 134.589844 116.621094 131.175781 115.78125 C 126.765625 114.699219 123.285156 115.527344 120.828125 118.257812 C 117.246094 122.230469 117.269531 128.519531 120.898438 136.441406 C 120.914062 136.480469 120.941406 136.523438 120.957031 136.5625 C 119.632812 137.304688 118.394531 138.078125 117.285156 138.859375 C 116.964844 139.089844 116.886719 139.53125 117.117188 139.855469 C 117.347656 140.175781 117.789062 140.257812 118.117188 140.023438 C 119.160156 139.28125 120.324219 138.554688 121.578125 137.855469 C 123.117188 140.933594 125.167969 144.183594 127.585938 147.421875 C 126.101562 151.339844 125.039062 155.066406 124.425781 158.457031 C 121.632812 158.082031 119.136719 157.476562 117.078125 156.613281 C 113.847656 155.257812 111.949219 153.367188 111.429688 150.988281 C 111.132812 149.640625 111.285156 148.25 111.882812 146.847656 C 112.035156 146.480469 111.867188 146.066406 111.507812 145.914062 C 111.152344 145.761719 110.726562 145.929688 110.578125 146.289062 C 109.867188 147.964844 109.683594 149.648438 110.042969 151.292969 C 110.664062 154.148438 112.851562 156.382812 116.535156 157.929688 C 118.683594 158.832031 121.296875 159.453125 124.210938 159.84375 C 123.78125 162.773438 123.699219 165.4375 124.011719 167.730469 C 124.625 172.230469 126.675781 175.164062 130.113281 176.449219 C 131.238281 176.875 132.402344 177.082031 133.601562 177.082031 C 137.75 177.082031 142.3125 174.582031 147.003906 169.699219 C 147.617188 169.0625 148.226562 168.382812 148.832031 167.671875 C 153.992188 171.007812 159.058594 173.132812 163.214844 173.132812 C 165.5625 173.132812 167.621094 172.460938 169.246094 170.953125 C 171.839844 168.558594 172.492188 164.527344 171.136719 159.292969 C 170.570312 157.117188 169.660156 154.746094 168.472656 152.257812 C 169.75 151.617188 170.96875 150.949219 172.085938 150.246094 C 172.421875 150.039062 172.527344 149.59375 172.3125 149.265625 C 172.101562 148.929688 171.664062 148.832031 171.328125 149.042969 C 170.246094 149.71875 169.070312 150.367188 167.84375 150.988281 C 166.46875 148.308594 164.789062 145.515625 162.832031 142.691406 C 164.53125 137.964844 165.785156 133.203125 166.359375 128.851562 C 167.945312 129.109375 169.445312 129.46875 170.820312 129.929688 C 175.039062 131.351562 177.671875 133.640625 178.644531 136.738281 C 179.308594 138.851562 179.019531 140.972656 177.777344 143.046875 C 177.574219 143.382812 177.679688 143.824219 178.023438 144.03125 C 178.132812 144.101562 178.261719 144.132812 178.390625 144.132812 C 178.628906 144.132812 178.867188 144.007812 179.003906 143.789062 C 180.464844 141.355469 180.808594 138.835938 180.007812 136.3125 C 178.875 132.738281 175.933594 130.136719 171.257812 128.566406 Z M 150.625 115.734375 C 153.371094 113.742188 155.828125 112.742188 157.988281 112.742188 C 158.957031 112.742188 159.863281 112.941406 160.703125 113.347656 C 164.636719 115.242188 165.746094 120.59375 165.089844 127.210938 C 160.414062 126.621094 155.117188 126.769531 149.707031 127.488281 C 147.691406 125.589844 145.671875 123.882812 143.703125 122.390625 C 145.976562 119.710938 148.3125 117.417969 150.625 115.734375 Z M 161.207031 142.914062 C 160.710938 144.253906 160.183594 145.585938 159.625 146.894531 C 158.347656 149.894531 156.898438 152.847656 155.332031 155.640625 C 150.210938 157.042969 144.777344 158.035156 139.519531 158.535156 C 138.820312 157.890625 138.132812 157.226562 137.453125 156.566406 C 134.488281 153.636719 131.703125 150.484375 129.253906 147.277344 C 131.296875 142.003906 133.984375 136.59375 137.03125 131.652344 C 140.988281 130.527344 145.121094 129.628906 149.183594 129.054688 C 153.539062 133.1875 157.71875 137.996094 161.207031 142.914062 Z M 154.351562 157.347656 C 152.539062 160.417969 150.578125 163.269531 148.550781 165.765625 C 145.96875 164.019531 143.375 161.976562 140.902344 159.789062 C 145.382812 159.292969 149.964844 158.472656 154.351562 157.347656 Z M 138.21875 129.785156 C 139.671875 127.5625 141.1875 125.460938 142.734375 123.539062 C 144.417969 124.816406 146.109375 126.226562 147.792969 127.753906 C 144.585938 128.253906 141.363281 128.949219 138.21875 129.785156 Z M 121.890625 119.207031 C 123.363281 117.570312 125.304688 116.757812 127.6875 116.757812 C 128.664062 116.757812 129.714844 116.890625 130.832031 117.171875 C 134.0625 117.960938 137.765625 119.941406 141.585938 122.691406 C 139.71875 125 137.886719 127.585938 136.121094 130.378906 C 131.015625 131.878906 126.230469 133.769531 122.207031 135.882812 C 119.105469 129.125 118.457031 123.011719 121.890625 119.207031 Z M 122.832031 137.175781 C 126.355469 135.324219 130.511719 133.648438 134.964844 132.269531 C 133.65625 134.464844 132.394531 136.761719 131.214844 139.148438 C 130.089844 141.429688 129.085938 143.671875 128.207031 145.867188 C 126.078125 142.960938 124.25 140.023438 122.832031 137.175781 Z M 128.671875 148.839844 C 131 151.835938 133.625 154.792969 136.449219 157.578125 C 136.832031 157.953125 137.222656 158.328125 137.613281 158.695312 C 133.457031 159 129.476562 158.984375 125.902344 158.625 C 126.484375 155.558594 127.433594 152.242188 128.671875 148.839844 Z M 130.601562 175.101562 C 127.695312 174.015625 125.957031 171.472656 125.414062 167.53125 C 125.121094 165.359375 125.222656 162.804688 125.664062 160.019531 C 127.609375 160.21875 129.675781 160.316406 131.820312 160.316406 C 134.128906 160.316406 136.535156 160.195312 138.984375 159.980469 C 141.785156 162.542969 144.714844 164.886719 147.632812 166.875 C 142.019531 173.386719 135.914062 177.089844 130.601562 175.101562 Z M 169.734375 159.644531 C 170.960938 164.402344 170.46875 167.847656 168.257812 169.898438 C 164.339844 173.53125 157.160156 171.328125 149.742188 166.546875 C 152.015625 163.730469 154.242188 160.429688 156.289062 156.828125 C 160.191406 155.734375 163.886719 154.402344 167.171875 152.863281 C 168.304688 155.226562 169.183594 157.507812 169.734375 159.644531 Z M 166.550781 151.601562 C 163.71875 152.925781 160.574219 154.101562 157.257812 155.089844 C 158.582031 152.640625 159.816406 150.078125 160.941406 147.453125 C 161.378906 146.425781 161.804688 145.378906 162.203125 144.332031 C 163.855469 146.773438 165.320312 149.214844 166.550781 151.601562 Z M 161.804688 141.246094 C 159.792969 138.46875 157.550781 135.683594 155.101562 132.980469 C 153.769531 131.503906 152.429688 130.121094 151.089844 128.804688 C 155.988281 128.222656 160.742188 128.128906 164.921875 128.636719 C 164.394531 132.613281 163.28125 136.953125 161.804688 141.246094 Z M 269.996094 224.054688 C 271.710938 231.5625 276.417969 241.578125 280.238281 248.96875 C 275.785156 248.191406 271.445312 247.125 267.210938 245.773438 C 269.417969 237.546875 269.996094 224.054688 269.996094 224.054688 Z M 269.996094 224.054688 " fill-opacity="1" fill-rule="nonzero"/></svg>