<svg xmlns="http://www.w3.org/2000/svg" xmlns:xlink="http://www.w3.org/1999/xlink" width="529" zoomAndPan="magnify" viewBox="0 0 396.75 396.749984" height="529" preserveAspectRatio="xMidYMid meet" version="1.0"><defs><clipPath id="id1"><path d="M 0 0 L 396.5 0 L 396.5 396.5 L 0 396.5 Z M 0 0 " clip-rule="nonzero"/></clipPath></defs><g clip-path="url(#id1)"><path fill="#ffffff" d="M 371.953125 139.949219 C 358.625 139.949219 348.085938 150.175781 347.15625 163.195312 L 269.664062 178.382812 C 266.566406 167.84375 261.296875 157.925781 254.167969 149.867188 L 275.554688 127.859375 C 282.683594 132.816406 291.363281 135.917969 300.660156 135.917969 C 324.21875 135.917969 343.4375 116.699219 343.4375 93.144531 C 343.4375 69.585938 324.21875 50.367188 300.660156 50.367188 C 277.105469 50.367188 257.578125 69.585938 257.578125 93.144531 C 257.578125 103.0625 260.988281 112.050781 266.566406 119.179688 L 245.179688 141.1875 C 233.710938 131.886719 219.761719 125.6875 204.265625 124.449219 L 204.265625 49.128906 C 214.804688 46.339844 222.863281 36.730469 222.863281 25.261719 C 222.863281 11.625 211.703125 0.464844 198.066406 0.464844 C 184.425781 0.464844 173.269531 11.625 173.269531 25.261719 C 173.269531 36.730469 181.328125 46.648438 191.867188 49.128906 L 191.867188 124.757812 C 176.058594 126 161.488281 132.507812 150.019531 142.117188 L 77.179688 69.277344 C 82.449219 62.148438 85.859375 53.160156 85.859375 43.550781 C 85.859375 19.992188 66.640625 0.773438 43.085938 0.773438 C 19.21875 0.773438 0 19.992188 0 43.550781 C 0 67.105469 19.21875 86.324219 42.773438 86.324219 C 52.382812 86.324219 61.0625 83.222656 68.5 77.644531 L 141.34375 150.484375 C 136.074219 156.683594 131.734375 163.8125 128.945312 171.5625 L 77.179688 156.066406 C 77.179688 155.753906 77.179688 155.445312 77.179688 155.136719 C 77.179688 141.496094 66.023438 130.339844 52.382812 130.339844 C 38.746094 130.339844 27.585938 141.496094 27.585938 155.136719 C 27.585938 168.773438 38.746094 179.933594 52.382812 179.933594 C 61.371094 179.933594 69.121094 174.972656 73.769531 167.84375 L 125.535156 183.34375 C 124.605469 188.300781 123.984375 193.261719 123.984375 198.53125 C 123.984375 216.816406 130.492188 233.554688 141.652344 246.574219 L 68.8125 319.414062 C 61.683594 314.144531 52.695312 310.734375 43.085938 310.734375 C 19.527344 310.734375 0.308594 329.953125 0.308594 353.511719 C 0.308594 377.066406 19.527344 396.285156 43.085938 396.285156 C 66.640625 396.285156 85.859375 377.066406 85.859375 353.511719 C 85.859375 343.902344 82.757812 335.222656 77.179688 327.785156 L 150.019531 254.941406 C 158.078125 261.761719 167.378906 266.722656 177.917969 269.820312 L 174.816406 285.007812 C 161.800781 285.9375 151.570312 296.476562 151.570312 309.804688 C 151.570312 323.445312 162.730469 334.601562 176.367188 334.601562 C 190.007812 334.601562 201.164062 323.445312 201.164062 309.804688 C 201.164062 299.886719 195.273438 291.519531 186.90625 287.488281 L 190.007812 272.300781 C 192.796875 272.609375 195.277344 272.609375 198.066406 272.609375 C 219.761719 272.609375 239.601562 263.3125 253.238281 248.125 L 294.152344 279.429688 C 290.742188 285.628906 288.574219 292.757812 288.574219 300.195312 C 288.574219 323.753906 307.792969 342.972656 331.347656 342.972656 C 354.90625 342.972656 374.121094 323.753906 374.121094 300.195312 C 374.121094 276.640625 354.90625 257.421875 331.347656 257.421875 C 319.878906 257.421875 309.339844 262.070312 301.59375 269.511719 L 260.675781 239.136719 C 268.117188 227.667969 272.457031 213.71875 272.457031 198.839844 C 272.457031 196.050781 272.144531 193.261719 272.144531 190.472656 L 349.636719 175.28125 C 353.664062 183.652344 362.035156 189.542969 371.953125 189.542969 C 385.589844 189.542969 396.75 178.382812 396.75 164.746094 C 396.75 151.105469 385.589844 139.949219 371.953125 139.949219 Z M 300.660156 62.765625 C 317.398438 62.765625 331.039062 76.40625 331.039062 93.144531 C 331.039062 109.882812 317.398438 123.519531 300.660156 123.519531 C 283.925781 123.519531 270.285156 109.882812 270.285156 93.144531 C 270.285156 76.40625 283.613281 62.765625 300.660156 62.765625 Z M 42.773438 74.234375 C 26.035156 74.234375 12.398438 60.289062 12.398438 43.550781 C 12.398438 26.8125 26.035156 13.171875 42.773438 13.171875 C 59.511719 13.171875 73.152344 26.8125 73.152344 43.550781 C 73.460938 60.289062 59.824219 74.234375 42.773438 74.234375 Z M 52.074219 167.84375 C 45.253906 167.84375 39.675781 162.265625 39.675781 155.445312 C 39.675781 148.625 45.253906 143.046875 52.074219 143.046875 C 58.894531 143.046875 64.472656 148.625 64.472656 155.445312 C 64.472656 162.265625 59.203125 167.84375 52.074219 167.84375 Z M 42.773438 384.507812 C 26.035156 384.507812 12.398438 370.867188 12.398438 354.128906 C 12.398438 337.390625 26.035156 323.753906 42.773438 323.753906 C 59.511719 323.753906 73.152344 337.390625 73.152344 354.128906 C 73.460938 370.867188 59.824219 384.507812 42.773438 384.507812 Z M 331.65625 270.75 C 348.394531 270.75 362.035156 284.390625 362.035156 301.128906 C 362.035156 317.863281 348.394531 331.503906 331.65625 331.503906 C 314.921875 331.503906 301.28125 317.863281 301.28125 301.128906 C 300.972656 284.390625 314.609375 270.75 331.65625 270.75 Z M 185.667969 24.953125 C 185.667969 18.132812 191.246094 12.554688 198.066406 12.554688 C 204.882812 12.554688 210.464844 18.132812 210.464844 24.953125 C 210.464844 31.769531 204.882812 37.351562 198.066406 37.351562 C 191.246094 37.351562 185.667969 31.769531 185.667969 24.953125 Z M 188.765625 310.425781 C 188.765625 317.246094 183.1875 322.824219 176.367188 322.824219 C 169.546875 322.824219 163.96875 317.246094 163.96875 310.425781 C 163.96875 303.605469 169.546875 298.027344 176.367188 298.027344 C 183.1875 298.027344 188.765625 303.605469 188.765625 310.425781 Z M 198.066406 260.832031 C 163.96875 260.832031 136.074219 232.9375 136.074219 198.839844 C 136.074219 164.746094 163.96875 136.847656 198.066406 136.847656 C 232.160156 136.847656 260.058594 164.746094 260.058594 198.839844 C 260.058594 232.9375 232.46875 260.832031 198.066406 260.832031 Z M 371.953125 177.144531 C 365.132812 177.144531 359.554688 171.5625 359.554688 164.746094 C 359.554688 157.925781 365.132812 152.347656 371.953125 152.347656 C 378.773438 152.347656 384.351562 157.925781 384.351562 164.746094 C 384.351562 171.5625 378.773438 177.144531 371.953125 177.144531 Z M 371.953125 177.144531 " fill-opacity="1" fill-rule="nonzero"/></g><path fill="#ffffff" d="M 231.230469 211.238281 L 231.230469 167.84375 C 231.230469 161.023438 225.652344 155.445312 218.832031 155.445312 L 177.609375 155.445312 C 170.789062 155.445312 165.210938 161.023438 165.210938 167.84375 L 165.210938 211.238281 L 156.53125 222.085938 C 153.742188 225.804688 153.121094 230.765625 155.289062 235.105469 C 157.460938 239.445312 161.800781 242.234375 166.449219 242.234375 L 229.992188 242.234375 C 234.640625 242.234375 238.980469 239.445312 241.148438 235.105469 C 243.320312 230.765625 242.699219 225.804688 239.910156 222.085938 Z M 177.609375 167.84375 L 218.832031 167.84375 L 218.832031 203.179688 L 177.609375 203.179688 Z M 166.140625 229.835938 L 177.296875 215.578125 L 218.523438 215.578125 L 229.679688 229.835938 Z M 166.140625 229.835938 " fill-opacity="1" fill-rule="nonzero"/></svg>