<svg xmlns="http://www.w3.org/2000/svg" xmlns:xlink="http://www.w3.org/1999/xlink" width="529" zoomAndPan="magnify" viewBox="0 0 396.75 396.749984" height="529" preserveAspectRatio="xMidYMid meet" version="1.0"><defs><clipPath id="id1"><path d="M 5.796875 2.617188 L 391.296875 2.617188 L 391.296875 394.117188 L 5.796875 394.117188 Z M 5.796875 2.617188 " clip-rule="nonzero"/></clipPath><clipPath id="id2"><path d="M 5.796875 2.617188 L 391.296875 2.617188 L 391.296875 394.117188 L 5.796875 394.117188 Z M 5.796875 2.617188 " clip-rule="nonzero"/></clipPath></defs><path fill="#ffffff" d="M 156.09375 368.015625 L 247.53125 368.015625 L 247.53125 354.964844 L 156.09375 354.964844 L 156.09375 368.015625 " fill-opacity="1" fill-rule="nonzero"/><path fill="#ffffff" d="M 129.972656 368.015625 L 143.035156 368.015625 L 143.035156 354.964844 L 129.972656 354.964844 L 129.972656 368.015625 " fill-opacity="1" fill-rule="nonzero"/><path fill="#ffffff" d="M 129.972656 341.917969 L 143.035156 341.917969 L 143.035156 328.867188 L 129.972656 328.867188 L 129.972656 341.917969 " fill-opacity="1" fill-rule="nonzero"/><path fill="#ffffff" d="M 169.15625 328.867188 L 156.09375 328.867188 L 156.09375 341.917969 L 169.15625 341.917969 L 169.15625 328.867188 " fill-opacity="1" fill-rule="nonzero"/><path fill="#ffffff" d="M 195.28125 328.867188 L 182.21875 328.867188 L 182.21875 341.917969 L 195.28125 341.917969 L 195.28125 328.867188 " fill-opacity="1" fill-rule="nonzero"/><path fill="#ffffff" d="M 221.40625 328.867188 L 208.34375 328.867188 L 208.34375 341.917969 L 221.40625 341.917969 L 221.40625 328.867188 " fill-opacity="1" fill-rule="nonzero"/><path fill="#ffffff" d="M 234.46875 341.917969 L 247.53125 341.917969 L 247.53125 328.867188 L 234.46875 328.867188 L 234.46875 341.917969 " fill-opacity="1" fill-rule="nonzero"/><path fill="#ffffff" d="M 260.59375 341.917969 L 273.65625 341.917969 L 273.65625 328.867188 L 260.59375 328.867188 L 260.59375 341.917969 " fill-opacity="1" fill-rule="nonzero"/><path fill="#ffffff" d="M 260.59375 368.015625 L 273.65625 368.015625 L 273.65625 354.964844 L 260.59375 354.964844 L 260.59375 368.015625 " fill-opacity="1" fill-rule="nonzero"/><g clip-path="url(#id1)"><path fill="#ffffff" d="M 51.597656 191.839844 L 51.597656 185.316406 L 352.027344 185.316406 L 352.027344 191.839844 C 352.027344 202.648438 343.253906 211.417969 332.4375 211.417969 L 71.191406 211.417969 C 60.375 211.417969 51.597656 202.648438 51.597656 191.839844 Z M 71.191406 15.667969 L 332.4375 15.667969 C 343.253906 15.667969 352.027344 24.433594 352.027344 35.242188 L 352.027344 172.265625 L 51.597656 172.265625 L 51.597656 35.242188 C 51.597656 24.433594 60.375 15.667969 71.191406 15.667969 Z M 233.039062 276.667969 L 170.585938 276.667969 L 181.046875 224.464844 L 222.582031 224.464844 Z M 352.027344 315.816406 L 352.027344 341.917969 C 352.027344 349.105469 346.160156 354.964844 338.96875 354.964844 C 331.773438 354.964844 325.90625 349.105469 325.90625 341.917969 L 325.90625 315.816406 C 325.90625 308.628906 331.773438 302.765625 338.96875 302.765625 C 346.160156 302.765625 352.027344 308.628906 352.027344 315.816406 Z M 116.910156 315.816406 L 286.71875 315.816406 L 286.71875 381.066406 L 116.910156 381.066406 Z M 25.472656 328.867188 L 103.847656 328.867188 L 103.847656 387.589844 C 103.847656 391.183594 106.78125 394.117188 110.378906 394.117188 L 293.25 394.117188 C 296.847656 394.117188 299.78125 391.183594 299.78125 387.589844 L 299.78125 309.292969 C 299.78125 305.699219 296.847656 302.765625 293.25 302.765625 L 110.378906 302.765625 C 106.78125 302.765625 103.847656 305.699219 103.847656 309.292969 L 103.847656 315.816406 L 25.472656 315.816406 C 21.875 315.816406 18.941406 312.886719 18.941406 309.292969 C 18.941406 305.699219 21.875 302.765625 25.472656 302.765625 L 77.722656 302.765625 C 88.539062 302.765625 97.316406 294 97.316406 283.191406 C 97.316406 272.382812 88.539062 263.617188 77.722656 263.617188 L 71.191406 263.617188 C 67.59375 263.617188 64.660156 260.683594 64.660156 257.089844 C 64.660156 253.496094 67.59375 250.566406 71.191406 250.566406 L 129.972656 250.566406 C 140.789062 250.566406 149.5625 241.796875 149.5625 230.992188 L 149.5625 224.464844 L 167.730469 224.464844 L 157.269531 276.667969 L 143.035156 276.667969 L 143.035156 289.714844 L 260.59375 289.714844 L 260.59375 276.667969 L 246.359375 276.667969 L 235.898438 224.464844 L 254.0625 224.464844 L 254.0625 230.992188 C 254.0625 241.796875 262.839844 250.566406 273.65625 250.566406 L 371.621094 250.566406 C 375.21875 250.566406 378.152344 253.496094 378.152344 257.089844 C 378.152344 260.683594 375.21875 263.617188 371.621094 263.617188 L 352.027344 263.617188 C 341.210938 263.617188 332.4375 272.382812 332.4375 283.191406 L 332.4375 290.632812 C 321.210938 293.566406 312.84375 303.683594 312.84375 315.816406 L 312.84375 341.917969 C 312.84375 356.316406 324.550781 368.015625 338.96875 368.015625 C 353.382812 368.015625 365.089844 356.316406 365.089844 341.917969 L 365.089844 315.816406 C 365.089844 303.683594 356.722656 293.566406 345.5 290.632812 L 345.5 283.191406 C 345.5 279.597656 348.433594 276.667969 352.027344 276.667969 L 371.621094 276.667969 C 382.441406 276.667969 391.214844 267.898438 391.214844 257.089844 C 391.214844 246.285156 382.441406 237.515625 371.621094 237.515625 L 273.65625 237.515625 C 270.058594 237.515625 267.125 234.585938 267.125 230.992188 L 267.125 224.464844 L 332.4375 224.464844 C 350.449219 224.464844 365.089844 209.835938 365.089844 191.839844 L 365.089844 35.242188 C 365.089844 17.246094 350.449219 2.617188 332.4375 2.617188 L 71.191406 2.617188 C 53.179688 2.617188 38.535156 17.246094 38.535156 35.242188 L 38.535156 191.839844 C 38.535156 209.835938 53.179688 224.464844 71.191406 224.464844 L 136.503906 224.464844 L 136.503906 230.992188 C 136.503906 234.585938 133.566406 237.515625 129.972656 237.515625 L 71.191406 237.515625 C 60.375 237.515625 51.597656 246.285156 51.597656 257.089844 C 51.597656 267.898438 60.375 276.667969 71.191406 276.667969 L 77.722656 276.667969 C 81.320312 276.667969 84.253906 279.597656 84.253906 283.191406 C 84.253906 286.785156 81.320312 289.714844 77.722656 289.714844 L 25.472656 289.714844 C 14.65625 289.714844 5.878906 298.484375 5.878906 309.292969 C 5.878906 320.097656 14.65625 328.867188 25.472656 328.867188 " fill-opacity="1" fill-rule="nonzero"/></g><path fill="#ffffff" d="M 156.09375 368.015625 L 247.53125 368.015625 L 247.53125 354.964844 L 156.09375 354.964844 L 156.09375 368.015625 " fill-opacity="1" fill-rule="nonzero"/><path fill="#ffffff" d="M 129.972656 368.015625 L 143.035156 368.015625 L 143.035156 354.964844 L 129.972656 354.964844 L 129.972656 368.015625 " fill-opacity="1" fill-rule="nonzero"/><path fill="#ffffff" d="M 129.972656 341.917969 L 143.035156 341.917969 L 143.035156 328.867188 L 129.972656 328.867188 L 129.972656 341.917969 " fill-opacity="1" fill-rule="nonzero"/><path fill="#ffffff" d="M 169.15625 328.867188 L 156.09375 328.867188 L 156.09375 341.917969 L 169.15625 341.917969 L 169.15625 328.867188 " fill-opacity="1" fill-rule="nonzero"/><path fill="#ffffff" d="M 195.28125 328.867188 L 182.21875 328.867188 L 182.21875 341.917969 L 195.28125 341.917969 L 195.28125 328.867188 " fill-opacity="1" fill-rule="nonzero"/><path fill="#ffffff" d="M 221.40625 328.867188 L 208.34375 328.867188 L 208.34375 341.917969 L 221.40625 341.917969 L 221.40625 328.867188 " fill-opacity="1" fill-rule="nonzero"/><path fill="#ffffff" d="M 234.46875 341.917969 L 247.53125 341.917969 L 247.53125 328.867188 L 234.46875 328.867188 L 234.46875 341.917969 " fill-opacity="1" fill-rule="nonzero"/><path fill="#ffffff" d="M 260.59375 341.917969 L 273.65625 341.917969 L 273.65625 328.867188 L 260.59375 328.867188 L 260.59375 341.917969 " fill-opacity="1" fill-rule="nonzero"/><path fill="#ffffff" d="M 260.59375 368.015625 L 273.65625 368.015625 L 273.65625 354.964844 L 260.59375 354.964844 L 260.59375 368.015625 " fill-opacity="1" fill-rule="nonzero"/><g clip-path="url(#id2)"><path fill="#ffffff" d="M 51.597656 191.839844 L 51.597656 185.316406 L 352.027344 185.316406 L 352.027344 191.839844 C 352.027344 202.648438 343.253906 211.417969 332.4375 211.417969 L 71.191406 211.417969 C 60.375 211.417969 51.597656 202.648438 51.597656 191.839844 Z M 71.191406 15.667969 L 332.4375 15.667969 C 343.253906 15.667969 352.027344 24.433594 352.027344 35.242188 L 352.027344 172.265625 L 51.597656 172.265625 L 51.597656 35.242188 C 51.597656 24.433594 60.375 15.667969 71.191406 15.667969 Z M 233.039062 276.667969 L 170.585938 276.667969 L 181.046875 224.464844 L 222.582031 224.464844 Z M 352.027344 315.816406 L 352.027344 341.917969 C 352.027344 349.105469 346.160156 354.964844 338.96875 354.964844 C 331.773438 354.964844 325.90625 349.105469 325.90625 341.917969 L 325.90625 315.816406 C 325.90625 308.628906 331.773438 302.765625 338.96875 302.765625 C 346.160156 302.765625 352.027344 308.628906 352.027344 315.816406 Z M 116.910156 315.816406 L 286.71875 315.816406 L 286.71875 381.066406 L 116.910156 381.066406 Z M 25.472656 328.867188 L 103.847656 328.867188 L 103.847656 387.589844 C 103.847656 391.183594 106.78125 394.117188 110.378906 394.117188 L 293.25 394.117188 C 296.847656 394.117188 299.78125 391.183594 299.78125 387.589844 L 299.78125 309.292969 C 299.78125 305.699219 296.847656 302.765625 293.25 302.765625 L 110.378906 302.765625 C 106.78125 302.765625 103.847656 305.699219 103.847656 309.292969 L 103.847656 315.816406 L 25.472656 315.816406 C 21.875 315.816406 18.941406 312.886719 18.941406 309.292969 C 18.941406 305.699219 21.875 302.765625 25.472656 302.765625 L 77.722656 302.765625 C 88.539062 302.765625 97.316406 294 97.316406 283.191406 C 97.316406 272.382812 88.539062 263.617188 77.722656 263.617188 L 71.191406 263.617188 C 67.59375 263.617188 64.660156 260.683594 64.660156 257.089844 C 64.660156 253.496094 67.59375 250.566406 71.191406 250.566406 L 129.972656 250.566406 C 140.789062 250.566406 149.5625 241.796875 149.5625 230.992188 L 149.5625 224.464844 L 167.730469 224.464844 L 157.269531 276.667969 L 143.035156 276.667969 L 143.035156 289.714844 L 260.59375 289.714844 L 260.59375 276.667969 L 246.359375 276.667969 L 235.898438 224.464844 L 254.0625 224.464844 L 254.0625 230.992188 C 254.0625 241.796875 262.839844 250.566406 273.65625 250.566406 L 371.621094 250.566406 C 375.21875 250.566406 378.152344 253.496094 378.152344 257.089844 C 378.152344 260.683594 375.21875 263.617188 371.621094 263.617188 L 352.027344 263.617188 C 341.210938 263.617188 332.4375 272.382812 332.4375 283.191406 L 332.4375 290.632812 C 321.210938 293.566406 312.84375 303.683594 312.84375 315.816406 L 312.84375 341.917969 C 312.84375 356.316406 324.550781 368.015625 338.96875 368.015625 C 353.382812 368.015625 365.089844 356.316406 365.089844 341.917969 L 365.089844 315.816406 C 365.089844 303.683594 356.722656 293.566406 345.5 290.632812 L 345.5 283.191406 C 345.5 279.597656 348.433594 276.667969 352.027344 276.667969 L 371.621094 276.667969 C 382.441406 276.667969 391.214844 267.898438 391.214844 257.089844 C 391.214844 246.285156 382.441406 237.515625 371.621094 237.515625 L 273.65625 237.515625 C 270.058594 237.515625 267.125 234.585938 267.125 230.992188 L 267.125 224.464844 L 332.4375 224.464844 C 350.449219 224.464844 365.089844 209.835938 365.089844 191.839844 L 365.089844 35.242188 C 365.089844 17.246094 350.449219 2.617188 332.4375 2.617188 L 71.191406 2.617188 C 53.179688 2.617188 38.535156 17.246094 38.535156 35.242188 L 38.535156 191.839844 C 38.535156 209.835938 53.179688 224.464844 71.191406 224.464844 L 136.503906 224.464844 L 136.503906 230.992188 C 136.503906 234.585938 133.566406 237.515625 129.972656 237.515625 L 71.191406 237.515625 C 60.375 237.515625 51.597656 246.285156 51.597656 257.089844 C 51.597656 267.898438 60.375 276.667969 71.191406 276.667969 L 77.722656 276.667969 C 81.320312 276.667969 84.253906 279.597656 84.253906 283.191406 C 84.253906 286.785156 81.320312 289.714844 77.722656 289.714844 L 25.472656 289.714844 C 14.65625 289.714844 5.878906 298.484375 5.878906 309.292969 C 5.878906 320.097656 14.65625 328.867188 25.472656 328.867188 " fill-opacity="1" fill-rule="nonzero"/></g></svg>