<svg xmlns="http://www.w3.org/2000/svg" xmlns:xlink="http://www.w3.org/1999/xlink" width="529" zoomAndPan="magnify" viewBox="0 0 396.75 396.749984" height="529" preserveAspectRatio="xMidYMid meet" version="1.0"><defs><clipPath id="id1"><path d="M 0.253906 0.253906 L 396.5 0.253906 L 396.5 396.5 L 0.253906 396.5 Z M 0.253906 0.253906 " clip-rule="nonzero"/></clipPath></defs><g clip-path="url(#id1)"><path fill="#332f2f" d="M 397.003906 198.628906 C 397.003906 308.230469 308.230469 397.003906 198.628906 397.003906 C 89.027344 397.003906 0.253906 308.230469 0.253906 198.628906 C 0.253906 89.027344 89.027344 0.253906 198.628906 0.253906 C 308.230469 0.253906 397.003906 89.027344 397.003906 198.628906 Z M 162.328125 303.273438 C 250.304688 303.273438 298.410156 230.367188 298.410156 167.1875 C 298.410156 165.105469 298.410156 163.019531 298.3125 161.035156 C 307.636719 154.292969 315.769531 145.863281 322.214844 136.238281 C 313.6875 140.007812 304.460938 142.589844 294.742188 143.777344 C 304.660156 137.828125 312.199219 128.503906 315.769531 117.296875 C 306.546875 122.75 296.328125 126.71875 285.417969 128.898438 C 276.691406 119.578125 264.292969 113.824219 250.503906 113.824219 C 224.121094 113.824219 202.695312 135.25 202.695312 161.632812 C 202.695312 165.402344 203.09375 169.070312 203.984375 172.542969 C 164.210938 170.558594 129 151.515625 105.394531 122.550781 C 101.328125 129.59375 98.945312 137.828125 98.945312 146.554688 C 98.945312 163.121094 107.375 177.800781 120.269531 186.328125 C 112.433594 186.132812 105.09375 183.949219 98.648438 180.378906 C 98.648438 180.578125 98.648438 180.777344 98.648438 180.972656 C 98.648438 204.183594 115.113281 223.425781 137.035156 227.890625 C 133.066406 228.980469 128.800781 229.574219 124.4375 229.574219 C 121.363281 229.574219 118.386719 229.277344 115.410156 228.683594 C 121.460938 247.726562 139.117188 261.515625 160.046875 261.910156 C 143.679688 274.707031 123.046875 282.34375 100.632812 282.34375 C 96.761719 282.34375 92.996094 282.144531 89.226562 281.648438 C 110.152344 295.335938 135.347656 303.273438 162.328125 303.273438 " fill-opacity="1" fill-rule="nonzero"/></g></svg>