<svg xmlns="http://www.w3.org/2000/svg" xmlns:xlink="http://www.w3.org/1999/xlink" width="529" zoomAndPan="magnify" viewBox="0 0 396.75 396.749984" height="529" preserveAspectRatio="xMidYMid meet" version="1.0"><defs><clipPath id="id1"><path d="M 2.753906 0 L 396.5 0 L 396.5 393.75 L 2.753906 393.75 Z M 2.753906 0 " clip-rule="nonzero"/></clipPath></defs><g clip-path="url(#id1)"><path fill="#332f2f" d="M 199.628906 0 C 90.878906 0 2.753906 88.125 2.753906 196.875 C 2.753906 305.625 90.878906 393.75 199.628906 393.75 C 308.378906 393.75 396.503906 305.625 396.503906 196.875 C 396.332031 88.125 308.207031 0 199.628906 0 Z M 312.980469 251.933594 C 310.761719 266.421875 298.148438 276.988281 283.492188 276.988281 L 115.59375 276.988281 C 100.933594 276.988281 88.320312 266.421875 86.105469 251.933594 C 84.058594 238.464844 82.011719 219.714844 81.84375 196.703125 C 82.011719 173.691406 83.886719 155.113281 86.105469 141.476562 C 88.320312 126.988281 100.933594 116.421875 115.59375 116.421875 L 283.492188 116.421875 C 298.148438 116.421875 310.761719 126.988281 312.980469 141.476562 C 315.023438 154.941406 317.070312 173.691406 317.242188 196.703125 C 317.070312 219.714844 315.023438 238.464844 312.980469 251.933594 Z M 312.980469 251.933594 " fill-opacity="1" fill-rule="nonzero"/></g><path fill="#332f2f" d="M 174.742188 164.828125 L 174.742188 228.75 L 234.230469 196.875 Z M 174.742188 164.828125 " fill-opacity="1" fill-rule="nonzero"/></svg>